<?xml version="1.0" encoding="UTF-8" standalone="no"?>
<svg
   width="600"
   height="380"
   viewBox="0 0 158.75 100.54166"
   version="1.1"
   id="svg12553"
   inkscape:version="1.3.2 (091e20e, 2023-11-25)"
   sodipodi:docname="AbcdSeq.svg"
   xmlns:inkscape="http://www.inkscape.org/namespaces/inkscape"
   xmlns:sodipodi="http://sodipodi.sourceforge.net/DTD/sodipodi-0.dtd"
   xmlns="http://www.w3.org/2000/svg"
   xmlns:svg="http://www.w3.org/2000/svg"
   xmlns:rdf="http://www.w3.org/1999/02/22-rdf-syntax-ns#"
   xmlns:cc="http://creativecommons.org/ns#"
   xmlns:dc="http://purl.org/dc/elements/1.1/">
  <defs
     id="defs12547" />
  <sodipodi:namedview
     id="base"
     pagecolor="#ffffff"
     bordercolor="#666666"
     borderopacity="1.0"
     inkscape:pageopacity="0.0"
     inkscape:pageshadow="2"
     inkscape:zoom="4.5448321"
     inkscape:cx="285.70912"
     inkscape:cy="314.64309"
     inkscape:document-units="px"
     inkscape:current-layer="layer1"
     showgrid="true"
     fit-margin-top="0"
     fit-margin-left="0"
     fit-margin-right="0"
     fit-margin-bottom="0"
     units="px"
     inkscape:window-width="1904"
     inkscape:window-height="1127"
     inkscape:window-x="1445"
     inkscape:window-y="359"
     inkscape:window-maximized="0"
     inkscape:snap-grids="false"
     showguides="false"
     inkscape:snap-others="false"
     inkscape:snap-nodes="false"
     inkscape:snap-global="false"
     inkscape:document-rotation="0"
     inkscape:showpageshadow="2"
     inkscape:pagecheckerboard="0"
     inkscape:deskcolor="#d1d1d1">
    <inkscape:grid
       type="xygrid"
       id="grid12870"
       originx="-20.372917"
       originy="84.666664"
       spacingy="1"
       spacingx="1"
       units="px"
       visible="true" />
  </sodipodi:namedview>
  <metadata
     id="metadata12550">
    <rdf:RDF>
      <cc:Work
         rdf:about="">
        <dc:format>image/svg+xml</dc:format>
        <dc:type
           rdf:resource="http://purl.org/dc/dcmitype/StillImage" />
      </cc:Work>
    </rdf:RDF>
  </metadata>
  <g
     inkscape:label="Layer 1"
     inkscape:groupmode="layer"
     id="layer1"
     transform="translate(-26.543497,-161.30655)">
    <path
       inkscape:connector-curvature="0"
       id="path33453"
       d="M 26.543497,161.45211 H 185.29349 v 100.3961 H 26.543497 Z m 0,0"
       style="fill:#e6e6e6;fill-opacity:1;fill-rule:nonzero;stroke:none;stroke-width:0.372222" />
    <path
       id="rect1298"
       style="fill:#bed7ea;fill-opacity:1;stroke:none;stroke-width:0.297086;stroke-miterlimit:4;stroke-dasharray:none;stroke-dashoffset:0;stroke-opacity:1"
       d="m 40.313548,176.21017 h 14.548767 v 14.66282 H 40.313548 Z" />
    <path
       id="rect1358"
       style="fill:#bed7ea;fill-opacity:1;stroke:none;stroke-width:0.297086;stroke-miterlimit:4;stroke-dasharray:none;stroke-dashoffset:0;stroke-opacity:1"
       d="m 56.622819,176.21017 h 14.548765 v 14.66282 H 56.622819 Z" />
    <path
       id="rect1440"
       style="fill:#bed7ea;fill-opacity:1;stroke:none;stroke-width:0.297086;stroke-miterlimit:4;stroke-dasharray:none;stroke-dashoffset:0;stroke-opacity:1"
       d="m 72.932092,176.21017 h 14.548767 v 14.66282 H 72.932092 Z" />
    <path
       id="rect1442"
       style="fill:#bed7ea;fill-opacity:1;stroke:none;stroke-width:0.297086;stroke-miterlimit:4;stroke-dasharray:none;stroke-dashoffset:0;stroke-opacity:1"
       d="m 89.241364,176.21017 h 14.548766 v 14.66282 H 89.241364 Z" />
    <g
       transform="matrix(0.58995858,0,0,0.59930845,15.568632,97.672898)"
       id="layer1-7"
       inkscape:label="Layer 1">
      <rect
         y="256.12662"
         x="29.52006"
         height="1.6536458"
         width="7.2760415"
         id="rect823"
         style="fill:#ffffff;fill-opacity:1;stroke:none;stroke-width:0.710598;stroke-miterlimit:4;stroke-dasharray:none;stroke-opacity:1" />
      <rect
         y="256.57309"
         x="28.643627"
         height="0.51248246"
         width="9.0803432"
         id="rect821"
         style="fill:#ffffff;fill-opacity:1;stroke:none;stroke-width:0.176948;stroke-miterlimit:4;stroke-dasharray:none;stroke-opacity:1" />
      <ellipse
         ry="5.8699069"
         rx="6.1973119"
         cy="250.78661"
         cx="33.068214"
         id="path817"
         style="fill:#ffffff;fill-opacity:1;stroke:none;stroke-width:0.294763;stroke-miterlimit:4;stroke-dasharray:none;stroke-opacity:1" />
      <rect
         y="257.08557"
         x="28.265131"
         height="4.3030396"
         width="9.541522"
         id="rect819"
         style="fill:#ffffff;fill-opacity:1;stroke:none;stroke-width:0.236954;stroke-miterlimit:4;stroke-dasharray:none;stroke-opacity:1" />
      <path
         style="fill:#54b6fc;stroke-width:0.434238"
         d="m 28.040353,261.67777 c -0.05624,-0.1049 -0.09132,-1.05343 -0.09132,-2.46939 0,-2.62823 -0.06483,-2.41007 0.868669,-2.92327 0.298327,-0.16393 0.542417,-0.32331 0.542417,-0.35402 0,-0.0309 -0.162318,-0.16826 -0.360716,-0.30583 -1.028016,-0.71241 -2.013971,-2.17766 -2.338877,-3.47584 -0.201325,-0.80442 -0.134174,-2.39054 0.13451,-3.17721 1.033244,-3.02511 4.386038,-4.85502 7.661927,-4.18175 2.136444,0.4391 3.832748,1.7715 4.690824,3.6846 0.361925,0.8069 0.484002,1.41362 0.481552,2.39329 -0.0043,1.76252 -0.804317,3.40089 -2.221636,4.55038 -0.254647,0.20641 -0.463011,0.4065 -0.463011,0.44439 0,0.038 0.188503,0.17638 0.418915,0.30774 0.88078,0.5022 0.815782,0.26078 0.815782,3.02947 0,1.77735 -0.02862,2.465 -0.105831,2.54221 -0.07977,0.0796 -1.316324,0.10568 -5.023888,0.10568 -4.772077,0 -4.920765,-0.006 -5.009351,-0.17069 z m 4.778272,-1.34136 c 0.02029,-0.72066 0.0537,-0.91258 0.172084,-0.98706 0.106484,-0.067 0.185415,-0.0605 0.286623,0.0243 0.110188,0.0915 0.139673,0.2998 0.139673,0.98705 v 0.87111 h 2.031202 c 1.725502,0 2.038854,-0.0189 2.082046,-0.13248 0.118689,-0.30933 -0.0843,-0.54865 -1.048716,-1.23644 -0.806681,-0.57531 -0.992,-0.74828 -0.992,-0.92603 0,-0.17285 0.05069,-0.22425 0.242529,-0.24644 l 0.242526,-0.0279 v -0.72694 c 0,-0.82266 0.11329,-1.0851 0.425635,-0.98597 0.182308,0.0579 0.191777,0.11143 0.193075,1.09112 6.9e-4,0.56673 0.03051,1.07216 0.06615,1.12322 0.107317,0.15365 0.691445,0.5686 0.80071,0.5686 0.07253,0 0.101903,-0.37768 0.101903,-1.30922 0,-1.48548 0.04525,-1.38286 -0.823095,-1.86798 l -0.514419,-0.28745 -0.896236,0.29918 c -0.869904,0.29041 -0.937695,0.2992 -2.307746,0.29891 -1.355532,-2.1e-4 -1.441911,-0.0113 -2.177833,-0.27426 l -0.766317,-0.27401 -0.710913,0.40097 -0.710915,0.40096 v 1.35053 c 0,0.7428 0.02272,1.35058 0.05046,1.35058 0.02775,0 0.226187,-0.10309 0.440962,-0.22887 l 0.390524,-0.22887 0.0014,-0.89557 c 0.0016,-1.14751 0.206306,-1.60144 0.561721,-1.24599 0.108544,0.1085 0.142513,0.31853 0.142513,0.88028 v 0.7378 l 0.290718,-0.0471 c 0.315025,-0.0511 0.543194,0.11558 0.458905,0.33517 -0.02597,0.0676 -0.562393,0.43193 -1.192126,0.80964 -1.113533,0.66789 -1.144968,0.69508 -1.144968,0.9907 v 0.30396 h 2.069441 2.069444 z m 2.265337,-4.35748 c 1.820054,-0.60937 3.301106,-2.14018 3.754405,-3.88051 0.141672,-0.5439 0.182494,-2.03256 0.06101,-2.22398 -0.0547,-0.0862 -0.514454,-0.10647 -1.993182,-0.0881 l -1.922097,0.0243 -0.285943,0.79373 c -0.250451,0.69526 -0.311823,0.79372 -0.494567,0.79372 -0.193669,0 -0.219614,-0.0593 -0.361764,-0.82692 -0.233437,-1.26061 -0.264438,-1.24093 -0.550459,0.34982 -0.250913,1.39568 -0.282965,1.49134 -0.499452,1.49134 -0.208819,0 -0.19843,0.0455 -0.591264,-2.59459 -0.179846,-1.20877 -0.366691,-2.21079 -0.415197,-2.22673 -0.04851,-0.0164 -0.346157,0.47702 -0.661443,1.09535 l -0.573255,1.12428 -1.649981,0.0244 -1.649981,0.0243 -0.05961,0.3176 c -0.100912,0.53789 0.02055,1.63287 0.25608,2.31038 0.480987,1.38307 1.462121,2.47313 2.838905,3.15409 1.070426,0.52942 1.68831,0.6568 2.998555,0.61816 0.870867,-0.027 1.189545,-0.0752 1.799239,-0.27931 z m -2.582339,-0.34598 c -0.501349,-0.14204 -0.612279,-0.23104 -0.568647,-0.45582 0.02803,-0.14447 0.130451,-0.16555 0.868148,-0.17909 0.460004,-0.008 0.975273,-0.0281 1.145044,-0.0441 0.276178,-0.0243 0.311494,-0.006 0.335474,0.20237 0.023,0.19722 -0.02543,0.25187 -0.329357,0.37355 -0.522805,0.20913 -0.965587,0.24078 -1.450662,0.1031 z m -1.6422,-2.07469 c -0.09701,-0.0972 -0.176384,-0.25567 -0.176384,-0.35282 0,-0.24453 0.308426,-0.52913 0.573253,-0.52913 0.264818,0 0.573252,0.28468 0.573252,0.52913 0,0.24455 -0.308429,0.52918 -0.573252,0.52918 -0.121275,0 -0.299857,-0.0793 -0.396869,-0.17636 z m 3.439517,-0.0882 c -0.232761,-0.23267 -0.222508,-0.40285 0.0401,-0.66546 0.243582,-0.24345 0.329798,-0.25996 0.605107,-0.11502 0.242042,0.12748 0.321863,0.24591 0.323575,0.48022 0.0031,0.43406 -0.63668,0.63239 -0.968767,0.30029 z m -1.151475,-4.27736 c 0.296559,-1.78581 0.575578,-1.83207 0.874871,-0.14501 0.09772,0.55084 0.197295,1.02113 0.221263,1.04511 0.08271,0.0828 0.212362,-0.0613 0.273139,-0.30344 0.117052,-0.46642 0.107419,-0.46436 2.176972,-0.46436 2.188984,0 2.146871,0.0162 1.845872,-0.66529 -0.655344,-1.4815 -2.160669,-2.71162 -3.887876,-3.17706 -0.773684,-0.20858 -2.314597,-0.21425 -3.086746,-0.0113 -1.862761,0.48917 -3.433992,1.84034 -4.06194,3.49292 l -0.172218,0.45328 1.47768,-0.0243 1.477684,-0.0244 0.705541,-1.38465 c 0.388047,-0.76156 0.755433,-1.43456 0.816413,-1.4955 0.244962,-0.24482 0.364055,0.12518 0.643002,1.99713 0.151683,1.01798 0.296644,1.88465 0.322123,1.92588 0.102882,0.16637 0.192723,-0.12627 0.374219,-1.21922 z"
         id="path4012-8"
         inkscape:connector-curvature="0" />
      <path
         style="fill:#a0a0a0;stroke-width:0.434238"
         d="m 28.040353,261.67777 c -0.05624,-0.1049 -0.09132,-1.05343 -0.09132,-2.46939 0,-2.62823 -0.06483,-2.41007 0.868669,-2.92327 0.298327,-0.16393 0.542417,-0.32331 0.542417,-0.35402 0,-0.0309 -0.162318,-0.16826 -0.360716,-0.30583 -1.028016,-0.71241 -2.013971,-2.17766 -2.338877,-3.47584 -0.201325,-0.80442 -0.134174,-2.39054 0.13451,-3.17721 1.033244,-3.02511 4.386038,-4.85502 7.661927,-4.18175 2.136444,0.4391 3.832748,1.7715 4.690824,3.6846 0.361925,0.8069 0.484002,1.41362 0.481552,2.39329 -0.0043,1.76252 -0.804317,3.40089 -2.221636,4.55038 -0.254647,0.20641 -0.463011,0.4065 -0.463011,0.44439 0,0.038 0.188503,0.17638 0.418915,0.30774 0.88078,0.5022 0.815782,0.26078 0.815782,3.02947 0,1.77735 -0.02862,2.465 -0.105831,2.54221 -0.07977,0.0796 -1.316324,0.10568 -5.023888,0.10568 -4.772077,0 -4.920765,-0.006 -5.009351,-0.17069 z m 4.778272,-1.34136 c 0.02029,-0.72066 0.0537,-0.91258 0.172084,-0.98706 0.106484,-0.067 0.185415,-0.0605 0.286623,0.0243 0.110188,0.0915 0.139673,0.2998 0.139673,0.98705 v 0.87111 h 2.031202 c 1.725502,0 2.038854,-0.0189 2.082046,-0.13248 0.118689,-0.30933 -0.0843,-0.54865 -1.048716,-1.23644 -0.806681,-0.57531 -0.992,-0.74828 -0.992,-0.92603 0,-0.17285 0.05069,-0.22425 0.242529,-0.24644 l 0.242526,-0.0279 v -0.72694 c 0,-0.82266 0.11329,-1.0851 0.425635,-0.98597 0.182308,0.0579 0.191777,0.11143 0.193075,1.09112 6.9e-4,0.56673 0.03051,1.07216 0.06615,1.12322 0.107317,0.15365 0.691445,0.5686 0.80071,0.5686 0.07253,0 0.101903,-0.37768 0.101903,-1.30922 0,-1.48548 0.04525,-1.38286 -0.823095,-1.86798 l -0.514419,-0.28745 -0.896236,0.29918 c -0.869904,0.29041 -0.937695,0.2992 -2.307746,0.29891 -1.355532,-2.1e-4 -1.441911,-0.0113 -2.177833,-0.27426 l -0.766317,-0.27401 -0.710913,0.40097 -0.710915,0.40096 v 1.35053 c 0,0.7428 0.02272,1.35058 0.05046,1.35058 0.02775,0 0.226187,-0.10309 0.440962,-0.22887 l 0.390524,-0.22887 0.0014,-0.89557 c 0.0016,-1.14751 0.206306,-1.60144 0.561721,-1.24599 0.108544,0.1085 0.142513,0.31853 0.142513,0.88028 v 0.7378 l 0.290718,-0.0471 c 0.315025,-0.0511 0.543194,0.11558 0.458905,0.33517 -0.02597,0.0676 -0.562393,0.43193 -1.192126,0.80964 -1.113533,0.66789 -1.144968,0.69508 -1.144968,0.9907 v 0.30396 h 2.069441 2.069444 z m 2.265337,-4.35748 c 1.403562,-0.46993 2.640938,-1.50058 3.294283,-2.74387 0.429067,-0.81653 0.595175,-1.49004 0.593708,-2.40729 -0.002,-1.2675 0.205601,-1.15 -2.032309,-1.15 -1.442955,0 -1.942613,0.0275 -1.996101,0.11041 -0.03924,0.0606 -0.191398,0.42737 -0.338104,0.81498 -0.382438,1.0104 -0.497129,0.9789 -0.708436,-0.1945 -0.249425,-1.38497 -0.369803,-1.31205 -0.674781,0.40874 -0.236279,1.33315 -0.338408,1.62908 -0.50309,1.45776 -0.04428,-0.0461 -0.22394,-1.07598 -0.399194,-2.28859 -0.378048,-2.61568 -0.375281,-2.60172 -0.515638,-2.60172 -0.06054,0 -0.377093,0.53579 -0.703448,1.19062 l -0.593372,1.1906 h -1.626578 -1.626579 l -0.06131,0.40891 c -0.234007,1.5605 0.483321,3.42764 1.761718,4.58559 0.632883,0.57328 1.868907,1.21483 2.698432,1.40062 0.933964,0.20911 2.512332,0.12546 3.430809,-0.18205 z m -2.582339,-0.34598 c -0.501349,-0.14204 -0.612279,-0.23104 -0.568647,-0.45582 0.02803,-0.14447 0.130451,-0.16555 0.868148,-0.17909 0.460004,-0.008 0.975273,-0.0281 1.145044,-0.0441 0.276178,-0.0243 0.311494,-0.006 0.335474,0.20237 0.023,0.19722 -0.02543,0.25187 -0.329357,0.37355 -0.522805,0.20913 -0.965587,0.24078 -1.450662,0.1031 z m -1.6422,-2.07469 c -0.09701,-0.0972 -0.176384,-0.25567 -0.176384,-0.35282 0,-0.24453 0.308426,-0.52913 0.573253,-0.52913 0.264818,0 0.573252,0.28468 0.573252,0.52913 0,0.24455 -0.308429,0.52918 -0.573252,0.52918 -0.121275,0 -0.299857,-0.0793 -0.396869,-0.17636 z m 3.439517,-0.0882 c -0.232761,-0.23267 -0.222508,-0.40285 0.0401,-0.66546 0.243582,-0.24345 0.329798,-0.25996 0.605107,-0.11502 0.242042,0.12748 0.321863,0.24591 0.323575,0.48022 0.0031,0.43406 -0.63668,0.63239 -0.968767,0.30029 z m -1.097809,-4.10189 c 0.211607,-1.21013 0.333943,-1.55258 0.494567,-1.38443 0.03281,0.0344 0.152225,0.57839 0.265306,1.20896 0.232869,1.29834 0.343523,1.42064 0.618496,0.68352 l 0.172705,-0.46302 h 1.972971 c 1.085132,0 1.99242,-0.0315 2.016195,-0.0698 0.08023,-0.12991 -0.357483,-1.05886 -0.773608,-1.642 -0.728041,-1.02028 -1.981677,-1.859 -3.316077,-2.21859 -0.773686,-0.20857 -2.314601,-0.21426 -3.086747,-0.0113 -1.084749,0.28486 -1.999152,0.80872 -2.786328,1.59624 -0.677355,0.67767 -1.19903,1.50881 -1.403089,2.23545 l -0.05574,0.19856 1.439077,-9.8e-4 c 0.791494,-6.2e-4 1.483847,-0.0306 1.538565,-0.0662 0.05473,-0.0355 0.422055,-0.70973 0.816304,-1.49793 0.672478,-1.34451 0.811339,-1.54707 0.929474,-1.35595 0.02624,0.0426 0.169945,0.92549 0.319337,1.9623 0.278277,1.93132 0.382411,2.3719 0.526552,2.22775 0.04457,-0.0447 0.184959,-0.67541 0.312001,-1.40192 z"
         id="path4010-0"
         inkscape:connector-curvature="0" />
      <path
         style="fill:#179cfd;stroke-width:0.434238"
         d="m 28.084301,261.62139 c -0.09334,-0.2432 -0.06068,-4.53422 0.03585,-4.71459 0.04932,-0.0922 0.366818,-0.32942 0.705541,-0.52725 0.338727,-0.19778 0.615865,-0.39635 0.615865,-0.44114 0,-0.0449 -0.225402,-0.25131 -0.5009,-0.45914 -1.007366,-0.75955 -1.863496,-2.05429 -2.182561,-3.30077 -0.176274,-0.68859 -0.179006,-2.04001 -0.0054,-2.72476 0.07324,-0.28909 0.298305,-0.86296 0.500144,-1.27526 0.293281,-0.59912 0.51896,-0.90166 1.123813,-1.50667 0.628099,-0.62825 0.899287,-0.82698 1.594434,-1.16847 1.206772,-0.59277 1.759323,-0.7188 3.130615,-0.71416 0.806735,0.002 1.311968,0.0495 1.704825,0.15746 3.200698,0.88036 5.194794,3.81447 4.65392,6.84772 -0.248316,1.39251 -1.241594,2.98286 -2.337264,3.74216 -0.198811,0.13767 -0.36148,0.28303 -0.36148,0.3228 0,0.0398 0.277437,0.23428 0.616524,0.43238 0.393273,0.22968 0.633784,0.4307 0.664178,0.55509 0.02625,0.10714 0.03649,1.24673 0.02299,2.53213 l -0.02488,2.33712 -4.951132,0.0216 c -4.457619,0.0215 -4.956494,0.008 -5.004941,-0.11734 z m 4.796794,-1.27231 c 0.04062,-0.85254 0.0581,-0.92604 0.220478,-0.92604 0.162399,0 0.179874,0.0735 0.22048,0.92604 l 0.0441,0.92602 h 2.11542 c 1.979416,0 2.117418,-0.0113 2.146485,-0.16124 0.07415,-0.38501 -0.08786,-0.58193 -1.039039,-1.26279 -0.5321,-0.38086 -0.988888,-0.74572 -1.015085,-0.81071 -0.07133,-0.17694 0.02596,-0.27867 0.266821,-0.27867 0.212067,0 0.215285,-0.0113 0.215285,-0.78294 0,-0.57789 0.03363,-0.81084 0.12842,-0.88952 0.247505,-0.20531 0.312538,-0.006 0.312538,0.96492 0,0.5267 0.02407,1.0201 0.05321,1.09639 0.07569,0.19722 0.895628,0.78122 1.003392,0.71461 0.137026,-0.0848 0.118488,-2.70962 -0.02028,-2.88339 -0.06062,-0.0761 -0.366131,-0.28527 -0.678882,-0.46529 -0.638192,-0.36731 -0.664782,-0.36715 -1.680277,0.0113 -0.620191,0.23022 -0.749452,0.24593 -2.072528,0.24835 -1.367516,0.002 -1.436372,-0.006 -2.229991,-0.28332 l -0.818897,-0.286 -0.707163,0.41086 c -0.388942,0.22589 -0.744718,0.48108 -0.790616,0.56686 -0.04592,0.0857 -0.08344,0.71537 -0.08344,1.39919 0,0.99797 0.02488,1.25279 0.126404,1.29174 0.157447,0.0603 0.905595,-0.36921 1.022127,-0.58694 0.04739,-0.0885 0.0862,-0.57804 0.0862,-1.08767 0,-0.95796 0.0901,-1.20675 0.322052,-0.88956 0.07719,0.10547 0.118894,0.4201 0.118894,0.89644 v 0.73386 l 0.360543,-0.0576 c 0.341277,-0.0546 0.358954,-0.0466 0.330725,0.14961 -0.02299,0.16068 -0.280994,0.35508 -1.148549,0.86561 -1.145685,0.67416 -1.30229,0.84178 -1.171412,1.25421 0.05178,0.16311 0.145382,0.16933 2.186334,0.14688 l 2.132238,-0.0243 z m 2.160723,-4.26226 c 1.769875,-0.57963 3.167996,-1.90262 3.76078,-3.55863 0.192048,-0.53652 0.328288,-2.18171 0.217288,-2.62393 l -0.05685,-0.22641 h -1.977453 c -1.485114,0 -1.995217,0.0273 -2.0488,0.11041 -0.03924,0.0605 -0.191399,0.42736 -0.338105,0.81497 -0.382437,1.0104 -0.497129,0.97892 -0.708437,-0.1945 -0.249424,-1.38497 -0.369803,-1.31205 -0.674782,0.40873 -0.236276,1.33315 -0.338406,1.62909 -0.503087,1.45777 -0.04428,-0.046 -0.223941,-1.07597 -0.399196,-2.28861 -0.378048,-2.61567 -0.375282,-2.6017 -0.515636,-2.6017 -0.06054,0 -0.377094,0.53578 -0.703448,1.19062 l -0.593373,1.19063 h -1.628884 c -1.902339,0 -1.81147,-0.0499 -1.81147,0.99426 0,0.80431 0.255081,1.83651 0.632916,2.56111 0.424332,0.81377 1.610253,1.95985 2.460638,2.37796 1.097382,0.53952 1.794389,0.68665 3.07994,0.64999 0.892825,-0.0244 1.23655,-0.0755 1.807954,-0.26241 z m -2.425303,-0.51429 c -0.478805,-0.10703 -0.703657,-0.2876 -0.549872,-0.44139 0.07642,-0.0766 0.231706,-0.0808 0.585546,-0.0162 0.356597,0.0647 0.599579,0.0571 0.936494,-0.0291 0.48231,-0.12329 0.615302,-0.0987 0.615302,0.11422 0,0.28859 -0.958357,0.51378 -1.58747,0.37302 z m -1.706091,-2.08738 c -0.189693,-0.20965 -0.184796,-0.3936 0.01543,-0.57471 0.232894,-0.21073 0.518062,-0.17963 0.684657,0.0743 0.133834,0.20423 0.133834,0.23669 0,0.44096 -0.171756,0.26213 -0.491832,0.2892 -0.699982,0.0593 z m 3.421615,-0.14148 c -0.271481,-0.41435 0.198702,-0.82027 0.625904,-0.54036 0.247452,0.16205 0.279238,0.41467 0.07757,0.61634 -0.207737,0.20776 -0.541169,0.17179 -0.703478,-0.0761 z m -1.137669,-3.97553 c 0.211606,-1.21013 0.333942,-1.55259 0.494569,-1.38441 0.03282,0.0344 0.152224,0.57837 0.265305,1.20895 0.23276,1.29772 0.34355,1.42057 0.617887,0.68512 l 0.172107,-0.46134 2.000835,-0.0243 c 2.352706,-0.0279 2.281076,0.0162 1.723959,-1.05794 -0.429635,-0.82824 -1.435244,-1.8525 -2.279603,-2.32184 -3.036046,-1.6875 -6.967182,-0.61741 -8.490501,2.31125 -0.205682,0.39548 -0.373989,0.82207 -0.373989,0.94808 v 0.22911 l 1.433135,-9.7e-4 c 0.788221,-6e-4 1.477901,-0.0306 1.53262,-0.0663 0.05473,-0.0355 0.422054,-0.7097 0.816303,-1.49792 0.672479,-1.34449 0.811342,-1.54706 0.929474,-1.35594 0.02625,0.0425 0.169945,0.9255 0.319337,1.96229 0.278278,1.93132 0.382411,2.37191 0.526555,2.22776 0.04455,-0.0447 0.184956,-0.67543 0.311999,-1.40192 z"
         id="path4008-4"
         inkscape:connector-curvature="0" />
      <path
         style="fill:#050505;fill-opacity:1;stroke-width:0.434238"
         d="m 28.084301,261.62139 c -0.09334,-0.2432 -0.06068,-4.53422 0.03585,-4.71459 0.04932,-0.0922 0.366818,-0.32942 0.705541,-0.52725 0.338727,-0.19778 0.615865,-0.39635 0.615865,-0.44114 0,-0.0449 -0.225402,-0.25131 -0.5009,-0.45914 -1.007366,-0.75955 -1.863496,-2.05429 -2.182561,-3.30077 -0.176274,-0.68859 -0.179006,-2.04001 -0.0054,-2.72476 0.07324,-0.28909 0.298305,-0.86296 0.500144,-1.27526 0.293281,-0.59912 0.51896,-0.90166 1.123813,-1.50667 0.628099,-0.62825 0.899287,-0.82698 1.594434,-1.16847 1.206772,-0.59277 1.759323,-0.7188 3.130615,-0.71416 0.806735,0.002 1.311968,0.0495 1.704825,0.15746 3.200698,0.88036 5.194794,3.81447 4.65392,6.84772 -0.248316,1.39251 -1.241594,2.98286 -2.337264,3.74216 -0.198811,0.13767 -0.36148,0.28303 -0.36148,0.3228 0,0.0398 0.277437,0.23428 0.616524,0.43238 0.393273,0.22968 0.633784,0.4307 0.664178,0.55509 0.02625,0.10714 0.03649,1.24673 0.02299,2.53213 l -0.02488,2.33712 -4.951132,0.0216 c -4.457619,0.0215 -4.956494,0.008 -5.004941,-0.11734 z m 4.796794,-1.27231 c 0.04062,-0.85254 0.0581,-0.92604 0.220478,-0.92604 0.162399,0 0.179874,0.0735 0.22048,0.92604 l 0.0441,0.92602 h 2.11542 c 1.979416,0 2.117418,-0.0113 2.146485,-0.16124 0.07415,-0.38501 -0.08786,-0.58193 -1.039039,-1.26279 -0.5321,-0.38086 -0.988888,-0.74572 -1.015085,-0.81071 -0.07133,-0.17694 0.02596,-0.27867 0.266821,-0.27867 0.212067,0 0.215285,-0.0113 0.215285,-0.78294 0,-0.57789 0.03363,-0.81084 0.12842,-0.88952 0.247505,-0.20531 0.312538,-0.006 0.312538,0.96492 0,0.5267 0.02407,1.0201 0.05321,1.09639 0.07569,0.19722 0.895628,0.78122 1.003392,0.71461 0.137026,-0.0848 0.118488,-2.70962 -0.02028,-2.88339 -0.06062,-0.0761 -0.366131,-0.28527 -0.678882,-0.46529 -0.638192,-0.36731 -0.664782,-0.36715 -1.680277,0.0113 -0.620191,0.23022 -0.749452,0.24593 -2.072528,0.24835 -1.367516,0.002 -1.436372,-0.006 -2.229991,-0.28332 l -0.818897,-0.286 -0.707163,0.41086 c -0.388942,0.22589 -0.744718,0.48108 -0.790616,0.56686 -0.04592,0.0857 -0.08344,0.71537 -0.08344,1.39919 0,0.99797 0.02488,1.25279 0.126404,1.29174 0.157447,0.0603 0.905595,-0.36921 1.022127,-0.58694 0.04739,-0.0885 0.0862,-0.57804 0.0862,-1.08767 0,-0.95796 0.0901,-1.20675 0.322052,-0.88956 0.07719,0.10547 0.118894,0.4201 0.118894,0.89644 v 0.73386 l 0.360543,-0.0576 c 0.341277,-0.0546 0.358954,-0.0466 0.330725,0.14961 -0.02299,0.16068 -0.280994,0.35508 -1.148549,0.86561 -1.145685,0.67416 -1.30229,0.84178 -1.171412,1.25421 0.05178,0.16311 0.145382,0.16933 2.186334,0.14688 l 2.132238,-0.0243 z m 2.160723,-4.26226 c 1.798336,-0.58895 3.232202,-1.974 3.804655,-3.6751 0.213148,-0.63339 0.221914,-2.36663 0.01569,-3.09953 -0.356769,-1.26779 -1.453375,-2.62144 -2.672695,-3.2992 -2.477562,-1.37709 -5.596645,-0.9588 -7.541693,1.01144 -1.633552,1.65471 -2.027872,4.11443 -0.994473,6.2034 0.44418,0.89788 1.576714,2.0172 2.500652,2.47147 1.097382,0.53953 1.794387,0.68664 3.079941,0.64999 0.892823,-0.0243 1.236549,-0.0756 1.807951,-0.26241 z m -2.425303,-0.51429 c -0.478805,-0.10703 -0.703657,-0.2876 -0.549872,-0.44139 0.07642,-0.0766 0.231706,-0.0808 0.585546,-0.0162 0.356597,0.0647 0.599579,0.0571 0.936494,-0.0291 0.48231,-0.12329 0.615302,-0.0987 0.615302,0.11422 0,0.28859 -0.958357,0.51378 -1.58747,0.37302 z m -1.706091,-2.08738 c -0.189693,-0.20965 -0.184796,-0.3936 0.01543,-0.57471 0.232894,-0.21073 0.518062,-0.17963 0.684657,0.0743 0.133834,0.20423 0.133834,0.23669 0,0.44096 -0.171756,0.26213 -0.491832,0.2892 -0.699982,0.0593 z m 3.421615,-0.14148 c -0.271481,-0.41435 0.198702,-0.82027 0.625904,-0.54036 0.247452,0.16205 0.279238,0.41467 0.07757,0.61634 -0.207737,0.20776 -0.541169,0.17179 -0.703478,-0.0761 z"
         id="path4006-5"
         inkscape:connector-curvature="0" />
    </g>
    <g
       aria-label="ROOT"
       style="font-style:normal;font-variant:normal;font-weight:bold;font-stretch:normal;font-size:2.11667px;line-height:1.25;font-family:monospace;-inkscape-font-specification:'monospace, Bold';font-variant-ligatures:normal;font-variant-caps:normal;font-variant-numeric:normal;font-feature-settings:normal;text-align:start;letter-spacing:0px;word-spacing:0px;writing-mode:lr-tb;text-anchor:start;fill:#1996fc;fill-opacity:1;stroke:none;stroke-width:0.264583"
       id="text920"
       transform="translate(1.0583333,-1.0583333)">
      <path
         d="m 46.162965,243.65707 q 0.04548,0.009 0.07855,0.0434 0.03411,0.0331 0.08268,0.13023 l 0.279053,0.555 h -0.334863 l -0.186036,-0.38964 q -0.0083,-0.0165 -0.0217,-0.0455 -0.08165,-0.17467 -0.192236,-0.17467 h -0.09715 v 0.60978 h -0.304891 v -1.54306 h 0.440283 q 0.297657,0 0.426848,0.10542 0.130224,0.10542 0.130224,0.34313 0,0.15917 -0.07751,0.25322 -0.07751,0.0941 -0.223242,0.11265 z m -0.391708,-0.5581 v 0.42064 h 0.143661 q 0.125057,0 0.1788,-0.0486 0.05478,-0.0496 0.05478,-0.16227 0,-0.11265 -0.05374,-0.16123 -0.05374,-0.0486 -0.179834,-0.0486 z"
         style="font-style:normal;font-variant:normal;font-weight:bold;font-stretch:normal;font-size:2.11667px;font-family:monospace;-inkscape-font-specification:'monospace, Bold';font-variant-ligatures:normal;font-variant-caps:normal;font-variant-numeric:normal;font-feature-settings:normal;text-align:start;writing-mode:lr-tb;text-anchor:start;fill:#1996fc;fill-opacity:1;stroke-width:0.264583"
         id="path1002"
         inkscape:connector-curvature="0" />
      <path
         d="m 47.238868,243.08863 q -0.116789,0 -0.170532,0.12506 -0.05374,0.12402 -0.05374,0.40204 0,0.27699 0.05374,0.40205 0.05374,0.12402 0.170532,0.12402 0.117822,0 0.171566,-0.12402 0.05374,-0.12506 0.05374,-0.40205 0,-0.27802 -0.05374,-0.40204 -0.05374,-0.12506 -0.171566,-0.12506 z m -0.541569,0.5271 q 0,-0.39584 0.136426,-0.59841 0.137459,-0.20257 0.405143,-0.20257 0.268717,0 0.405143,0.20257 0.137459,0.20257 0.137459,0.59841 0,0.39481 -0.137459,0.59738 -0.136426,0.20257 -0.405143,0.20257 -0.267684,0 -0.405143,-0.20257 -0.136426,-0.20257 -0.136426,-0.59738 z"
         style="font-style:normal;font-variant:normal;font-weight:bold;font-stretch:normal;font-size:2.11667px;font-family:monospace;-inkscape-font-specification:'monospace, Bold';font-variant-ligatures:normal;font-variant-caps:normal;font-variant-numeric:normal;font-feature-settings:normal;text-align:start;writing-mode:lr-tb;text-anchor:start;fill:#1996fc;fill-opacity:1;stroke-width:0.264583"
         id="path1004"
         inkscape:connector-curvature="0" />
      <path
         d="m 48.512175,243.08863 q -0.116789,0 -0.170532,0.12506 -0.05374,0.12402 -0.05374,0.40204 0,0.27699 0.05374,0.40205 0.05374,0.12402 0.170532,0.12402 0.117822,0 0.171566,-0.12402 0.05374,-0.12506 0.05374,-0.40205 0,-0.27802 -0.05374,-0.40204 -0.05374,-0.12506 -0.171566,-0.12506 z m -0.541569,0.5271 q 0,-0.39584 0.136426,-0.59841 0.137459,-0.20257 0.405143,-0.20257 0.268717,0 0.405143,0.20257 0.13746,0.20257 0.13746,0.59841 0,0.39481 -0.13746,0.59738 -0.136426,0.20257 -0.405143,0.20257 -0.267684,0 -0.405143,-0.20257 -0.136426,-0.20257 -0.136426,-0.59738 z"
         style="font-style:normal;font-variant:normal;font-weight:bold;font-stretch:normal;font-size:2.11667px;font-family:monospace;-inkscape-font-specification:'monospace, Bold';font-variant-ligatures:normal;font-variant-caps:normal;font-variant-numeric:normal;font-feature-settings:normal;text-align:start;writing-mode:lr-tb;text-anchor:start;fill:#1996fc;fill-opacity:1;stroke-width:0.264583"
         id="path1006"
         inkscape:connector-curvature="0" />
      <path
         d="m 49.938444,244.38571 h -0.304891 v -1.27641 h -0.391707 v -0.26665 h 1.088306 v 0.26665 h -0.391708 z"
         style="font-style:normal;font-variant:normal;font-weight:bold;font-stretch:normal;font-size:2.11667px;font-family:monospace;-inkscape-font-specification:'monospace, Bold';font-variant-ligatures:normal;font-variant-caps:normal;font-variant-numeric:normal;font-feature-settings:normal;text-align:start;writing-mode:lr-tb;text-anchor:start;fill:#1996fc;fill-opacity:1;stroke-width:0.264583"
         id="path1008"
         inkscape:connector-curvature="0" />
    </g>
    <g
       aria-label="SCALE"
       style="font-style:normal;font-variant:normal;font-weight:bold;font-stretch:normal;font-size:2.11667px;line-height:1.25;font-family:monospace;-inkscape-font-specification:'monospace, Bold';font-variant-ligatures:normal;font-variant-caps:normal;font-variant-numeric:normal;font-feature-settings:normal;text-align:start;letter-spacing:0px;word-spacing:0px;writing-mode:lr-tb;text-anchor:start;fill:#1996fc;fill-opacity:1;stroke:none;stroke-width:0.264583"
       id="text924"
       transform="translate(13.229168,-1.0583233)">
      <path
         d="m 54.05809,243.70875 q -0.230477,-0.0879 -0.312125,-0.18397 -0.08165,-0.0971 -0.08165,-0.26045 0,-0.2098 0.134359,-0.32969 0.134358,-0.11989 0.368969,-0.11989 0.106454,0 0.212907,0.0248 0.106454,0.0238 0.21084,0.0713 v 0.29765 q -0.09819,-0.0692 -0.199471,-0.10542 -0.101286,-0.0362 -0.200505,-0.0362 -0.110587,0 -0.169498,0.0444 -0.05891,0.0444 -0.05891,0.12712 0,0.0641 0.04237,0.10646 0.04341,0.0413 0.179834,0.092 l 0.131258,0.0496 q 0.186035,0.0682 0.273885,0.18087 0.08785,0.11265 0.08785,0.28422 0,0.23358 -0.138492,0.34933 -0.13746,0.11472 -0.416513,0.11472 -0.114721,0 -0.230476,-0.0279 -0.114722,-0.0269 -0.222209,-0.0806 v -0.31522 q 0.121956,0.0868 0.235644,0.12919 0.114722,0.0424 0.226343,0.0424 0.112655,0 0.174667,-0.0506 0.06201,-0.0517 0.06201,-0.14366 0,-0.0693 -0.04134,-0.12092 -0.04134,-0.0527 -0.119889,-0.0827 z"
         id="path991"
         inkscape:connector-curvature="0" />
      <path
         d="m 55.921542,244.34127 q -0.07235,0.0372 -0.151928,0.0558 -0.07958,0.0186 -0.167432,0.0186 -0.312126,0 -0.476457,-0.20567 -0.164331,-0.20567 -0.164331,-0.59428 0,-0.38964 0.164331,-0.59531 0.164331,-0.20567 0.476457,-0.20567 0.08785,0 0.168465,0.0186 0.08062,0.0186 0.150895,0.0558 v 0.339 q -0.07855,-0.0724 -0.152962,-0.10542 -0.07338,-0.0341 -0.151929,-0.0341 -0.167431,0 -0.253214,0.13333 -0.08475,0.13229 -0.08475,0.39377 0,0.26045 0.08475,0.39378 0.08578,0.13229 0.253214,0.13229 0.07855,0 0.151929,-0.0331 0.07441,-0.0341 0.152962,-0.10646 z"
         id="path993"
         inkscape:connector-curvature="0" />
      <path
         d="m 56.714259,243.12171 -0.143661,0.63148 h 0.288355 z m -0.186036,-0.27906 h 0.373104 l 0.416512,1.54306 h -0.304891 l -0.09508,-0.38137 H 56.50962 l -0.09302,0.38137 h -0.304891 z"
         id="path995"
         inkscape:connector-curvature="0" />
      <path
         d="m 57.583456,244.38571 v -1.54306 h 0.304891 v 1.27434 h 0.652157 v 0.26872 z"
         id="path997"
         inkscape:connector-curvature="0" />
      <path
         d="m 59.759034,244.38571 h -0.961182 v -1.54306 h 0.961182 v 0.26872 h -0.656291 v 0.3328 h 0.594279 v 0.26871 h -0.594279 v 0.40411 h 0.656291 z"
         id="path999"
         inkscape:connector-curvature="0" />
    </g>
    <g
       aria-label="RANGE"
       style="font-style:normal;font-variant:normal;font-weight:bold;font-stretch:normal;font-size:2.11667px;line-height:1.25;font-family:monospace;-inkscape-font-specification:'monospace, Bold';font-variant-ligatures:normal;font-variant-caps:normal;font-variant-numeric:normal;font-feature-settings:normal;text-align:start;letter-spacing:0px;word-spacing:0px;writing-mode:lr-tb;text-anchor:start;fill:#1996fc;fill-opacity:1;stroke:none;stroke-width:0.264583"
       id="text928"
       transform="translate(13.819781,-1.0582933)">
      <path
         d="m 63.89005,243.65707 q 0.04547,0.009 0.07855,0.0434 0.03411,0.0331 0.08268,0.13023 l 0.279053,0.555 H 63.99547 l -0.186036,-0.38964 q -0.0083,-0.0165 -0.0217,-0.0455 -0.08165,-0.17467 -0.192236,-0.17467 h -0.09715 v 0.60978 h -0.304891 v -1.54306 h 0.440284 q 0.297656,0 0.426847,0.10542 0.130225,0.10542 0.130225,0.34313 0,0.15917 -0.07752,0.25322 -0.07752,0.0941 -0.223242,0.11265 z m -0.391708,-0.5581 v 0.42064 h 0.143661 q 0.125057,0 0.1788,-0.0486 0.05478,-0.0496 0.05478,-0.16227 0,-0.11265 -0.05374,-0.16123 -0.05374,-0.0486 -0.179834,-0.0486 z"
         id="path980"
         inkscape:connector-curvature="0" />
      <path
         d="m 64.965953,243.12171 -0.143661,0.63148 h 0.288355 z m -0.186035,-0.27906 h 0.373104 l 0.416512,1.54306 h -0.304891 l -0.09509,-0.38137 h -0.408244 l -0.09302,0.38137 h -0.304891 z"
         id="path982"
         inkscape:connector-curvature="0" />
      <path
         d="m 65.725596,242.84265 h 0.327629 l 0.429948,1.12138 v -1.12138 h 0.268717 v 1.54306 h -0.325561 l -0.432015,-1.12138 v 1.12138 h -0.268718 z"
         id="path984"
         inkscape:connector-curvature="0" />
      <path
         d="m 67.777151,244.10666 v -0.29456 h -0.208773 v -0.25631 h 0.475423 v 0.70693 q -0.08785,0.0754 -0.194303,0.11472 -0.10542,0.0382 -0.226343,0.0382 -0.299723,0 -0.463021,-0.20774 -0.163298,-0.20877 -0.163298,-0.59221 0,-0.38964 0.164332,-0.59531 0.165364,-0.20567 0.476456,-0.20567 0.09302,0 0.182935,0.0269 0.08992,0.0258 0.168465,0.0754 v 0.33796 q -0.06408,-0.0827 -0.147795,-0.12402 -0.08268,-0.0424 -0.181901,-0.0424 -0.173633,0 -0.259415,0.13126 -0.08578,0.13023 -0.08578,0.39584 0,0.25735 0.08268,0.39171 0.08268,0.13436 0.240812,0.13436 0.04754,0 0.08268,-0.008 0.03514,-0.009 0.05685,-0.0269 z"
         id="path986"
         inkscape:connector-curvature="0" />
      <path
         d="m 69.284035,244.38571 h -0.961181 v -1.54306 h 0.961181 v 0.26872 h -0.65629 v 0.3328 h 0.594279 v 0.26871 h -0.594279 v 0.40411 h 0.65629 z"
         id="path988"
         inkscape:connector-curvature="0" />
    </g>
    <g
       aria-label="OCTAVE"
       style="font-style:normal;font-variant:normal;font-weight:bold;font-stretch:normal;font-size:2.11667px;line-height:1.25;font-family:monospace;-inkscape-font-specification:'monospace, Bold';font-variant-ligatures:normal;font-variant-caps:normal;font-variant-numeric:normal;font-feature-settings:normal;text-align:start;letter-spacing:0px;word-spacing:0px;writing-mode:lr-tb;text-anchor:start;fill:#1996fc;fill-opacity:1;stroke:none;stroke-width:0.264583"
       id="text2362">
      <path
         d="m 55.927608,242.12289 q -0.116789,0 -0.170532,0.12506 -0.05374,0.12402 -0.05374,0.40204 0,0.27698 0.05374,0.40204 0.05374,0.12402 0.170532,0.12402 0.117822,0 0.171566,-0.12402 0.05374,-0.12506 0.05374,-0.40204 0,-0.27802 -0.05374,-0.40204 -0.05374,-0.12506 -0.171566,-0.12506 z m -0.541569,0.5271 q 0,-0.39584 0.136426,-0.59841 0.137459,-0.20258 0.405143,-0.20258 0.268718,0 0.405143,0.20258 0.13746,0.20257 0.13746,0.59841 0,0.39481 -0.13746,0.59738 -0.136425,0.20257 -0.405143,0.20257 -0.267684,0 -0.405143,-0.20257 -0.136426,-0.20257 -0.136426,-0.59738 z"
         style="font-style:normal;font-variant:normal;font-weight:bold;font-stretch:normal;font-size:2.11667px;font-family:monospace;-inkscape-font-specification:'monospace, Bold';font-variant-ligatures:normal;font-variant-caps:normal;font-variant-numeric:normal;font-feature-settings:normal;text-align:start;writing-mode:lr-tb;text-anchor:start;fill:#1996fc;fill-opacity:1;stroke-width:0.264583"
         id="path2494" />
      <path
         d="m 57.681506,243.37553 q -0.07235,0.0372 -0.151929,0.0558 -0.07958,0.0186 -0.167431,0.0186 -0.312126,0 -0.476457,-0.20567 -0.164331,-0.20567 -0.164331,-0.59428 0,-0.38964 0.164331,-0.59531 0.164331,-0.20568 0.476457,-0.20568 0.08785,0 0.168465,0.0186 0.08062,0.0186 0.150895,0.0558 v 0.339 q -0.07855,-0.0724 -0.152962,-0.10542 -0.07338,-0.0341 -0.151929,-0.0341 -0.167431,0 -0.253214,0.13332 -0.08475,0.1323 -0.08475,0.39378 0,0.26045 0.08475,0.39377 0.08578,0.13229 0.253214,0.13229 0.07855,0 0.151929,-0.0331 0.07441,-0.0341 0.152962,-0.10645 z"
         style="font-style:normal;font-variant:normal;font-weight:bold;font-stretch:normal;font-size:2.11667px;font-family:monospace;-inkscape-font-specification:'monospace, Bold';font-variant-ligatures:normal;font-variant-caps:normal;font-variant-numeric:normal;font-feature-settings:normal;text-align:start;writing-mode:lr-tb;text-anchor:start;fill:#1996fc;fill-opacity:1;stroke-width:0.264583"
         id="path2496" />
      <path
         d="m 58.627185,243.41997 h -0.304891 v -1.27641 h -0.391707 v -0.26665 h 1.088305 v 0.26665 h -0.391707 z"
         style="font-style:normal;font-variant:normal;font-weight:bold;font-stretch:normal;font-size:2.11667px;font-family:monospace;-inkscape-font-specification:'monospace, Bold';font-variant-ligatures:normal;font-variant-caps:normal;font-variant-numeric:normal;font-feature-settings:normal;text-align:start;writing-mode:lr-tb;text-anchor:start;fill:#1996fc;fill-opacity:1;stroke-width:0.264583"
         id="path2498" />
      <path
         d="m 59.74753,242.15596 -0.143661,0.63149 h 0.288355 z m -0.186035,-0.27905 h 0.373103 l 0.416512,1.54306 h -0.304891 l -0.09508,-0.38137 h -0.408244 l -0.09302,0.38137 h -0.30489 z"
         style="font-style:normal;font-variant:normal;font-weight:bold;font-stretch:normal;font-size:2.11667px;font-family:monospace;-inkscape-font-specification:'monospace, Bold';font-variant-ligatures:normal;font-variant-caps:normal;font-variant-numeric:normal;font-feature-settings:normal;text-align:start;writing-mode:lr-tb;text-anchor:start;fill:#1996fc;fill-opacity:1;stroke-width:0.264583"
         id="path2500" />
      <path
         d="m 61.020837,243.16572 0.271818,-1.28881 h 0.306958 l -0.366903,1.54306 h -0.422713 l -0.366902,-1.54306 h 0.306958 z"
         style="font-style:normal;font-variant:normal;font-weight:bold;font-stretch:normal;font-size:2.11667px;font-family:monospace;-inkscape-font-specification:'monospace, Bold';font-variant-ligatures:normal;font-variant-caps:normal;font-variant-numeric:normal;font-feature-settings:normal;text-align:start;writing-mode:lr-tb;text-anchor:start;fill:#1996fc;fill-opacity:1;stroke-width:0.264583"
         id="path2502" />
      <path
         d="m 62.792305,243.41997 h -0.961181 v -1.54306 h 0.961181 v 0.26872 h -0.656291 v 0.33279 h 0.594279 v 0.26872 h -0.594279 v 0.40411 h 0.656291 z"
         style="font-style:normal;font-variant:normal;font-weight:bold;font-stretch:normal;font-size:2.11667px;font-family:monospace;-inkscape-font-specification:'monospace, Bold';font-variant-ligatures:normal;font-variant-caps:normal;font-variant-numeric:normal;font-feature-settings:normal;text-align:start;writing-mode:lr-tb;text-anchor:start;fill:#1996fc;fill-opacity:1;stroke-width:0.264583"
         id="path2504" />
    </g>
    <g
       aria-label="CLOCK"
       id="text481"
       style="font-style:normal;font-variant:normal;font-weight:bold;font-stretch:normal;font-size:2.82222px;line-height:1.25;font-family:sans-serif;-inkscape-font-specification:'sans-serif, Bold';font-variant-ligatures:normal;font-variant-caps:normal;font-variant-numeric:normal;font-variant-east-asian:normal;fill:#1996fc;fill-opacity:1;stroke:none;stroke-width:0.264583"
       transform="translate(25.120191,-10.004429)">
      <path
         d="m 34.761638,177.09625 q -0.228755,0 -0.423058,-0.0675 -0.192925,-0.0675 -0.332107,-0.20119 -0.139182,-0.13367 -0.216352,-0.33349 -0.07579,-0.19981 -0.07579,-0.46164 0,-0.24391 0.07304,-0.44235 0.07304,-0.19844 0.212218,-0.34038 0.13367,-0.13642 0.330729,-0.21084 0.198437,-0.0744 0.432704,-0.0744 0.129535,0 0.232888,0.0152 0.104731,0.0138 0.192925,0.0372 0.09233,0.0262 0.166743,0.0593 0.07579,0.0317 0.132291,0.0593 v 0.49747 h -0.06063 q -0.03859,-0.0331 -0.09784,-0.0786 -0.05788,-0.0455 -0.132292,-0.0896 -0.07579,-0.0441 -0.163986,-0.0744 -0.08819,-0.0303 -0.188791,-0.0303 -0.111621,0 -0.212218,0.0358 -0.100597,0.0345 -0.186035,0.11576 -0.0813,0.0786 -0.132292,0.20808 -0.04961,0.12954 -0.04961,0.3142 0,0.19292 0.05374,0.32246 0.05512,0.12953 0.137803,0.20395 0.08406,0.0758 0.187413,0.10886 0.103353,0.0317 0.20395,0.0317 0.09646,0 0.190169,-0.0289 0.09509,-0.0289 0.175011,-0.0786 0.06752,-0.04 0.125401,-0.0854 0.05788,-0.0455 0.09508,-0.0786 h 0.05512 v 0.49058 q -0.07717,0.0344 -0.14745,0.0648 -0.07028,0.0303 -0.14745,0.0524 -0.100597,0.0289 -0.188791,0.0441 -0.08819,0.0152 -0.242534,0.0152 z"
         style="font-style:normal;font-variant:normal;font-weight:bold;font-stretch:normal;font-size:2.82222px;font-family:sans-serif;-inkscape-font-specification:'sans-serif, Bold';font-variant-ligatures:normal;font-variant-caps:normal;font-variant-numeric:normal;font-variant-east-asian:normal;fill:#1996fc;fill-opacity:1;stroke-width:0.264583"
         id="path522" />
      <path
         d="m 37.359238,177.05629 h -1.480012 v -2.0519 h 0.529166 v 1.65502 h 0.950846 z"
         style="font-style:normal;font-variant:normal;font-weight:bold;font-stretch:normal;font-size:2.82222px;font-family:sans-serif;-inkscape-font-specification:'sans-serif, Bold';font-variant-ligatures:normal;font-variant-caps:normal;font-variant-numeric:normal;font-variant-east-asian:normal;fill:#1996fc;fill-opacity:1;stroke-width:0.264583"
         id="path524" />
      <path
         d="m 39.671584,176.03103 q 0,0.49058 -0.28112,0.77997 -0.281119,0.28801 -0.777213,0.28801 -0.494715,0 -0.775835,-0.28801 -0.281119,-0.28939 -0.281119,-0.77997 0,-0.49472 0.281119,-0.78135 0.28112,-0.28801 0.775835,-0.28801 0.493338,0 0.775835,0.28801 0.282498,0.28663 0.282498,0.78135 z m -0.701421,0.51952 q 0.07717,-0.0937 0.114377,-0.22049 0.03721,-0.12815 0.03721,-0.30041 0,-0.18465 -0.04272,-0.31419 -0.04272,-0.12954 -0.111621,-0.20946 -0.07028,-0.0827 -0.162608,-0.11989 -0.09095,-0.0372 -0.19017,-0.0372 -0.100596,0 -0.190169,0.0358 -0.08819,0.0358 -0.162608,0.11851 -0.0689,0.0772 -0.112999,0.2136 -0.04272,0.13505 -0.04272,0.31419 0,0.18328 0.04134,0.31281 0.04272,0.12816 0.111621,0.20947 0.0689,0.0813 0.16123,0.11989 0.09233,0.0386 0.194303,0.0386 0.101975,0 0.194304,-0.0386 0.09233,-0.04 0.16123,-0.12265 z"
         style="font-style:normal;font-variant:normal;font-weight:bold;font-stretch:normal;font-size:2.82222px;font-family:sans-serif;-inkscape-font-specification:'sans-serif, Bold';font-variant-ligatures:normal;font-variant-caps:normal;font-variant-numeric:normal;font-variant-east-asian:normal;fill:#1996fc;fill-opacity:1;stroke-width:0.264583"
         id="path526" />
      <path
         d="m 41.00139,177.09625 q -0.228754,0 -0.423058,-0.0675 -0.192925,-0.0675 -0.332106,-0.20119 -0.139182,-0.13367 -0.216352,-0.33349 -0.07579,-0.19981 -0.07579,-0.46164 0,-0.24391 0.07304,-0.44235 0.07304,-0.19844 0.212217,-0.34038 0.13367,-0.13642 0.330729,-0.21084 0.198438,-0.0744 0.432704,-0.0744 0.129535,0 0.232888,0.0152 0.104731,0.0138 0.192925,0.0372 0.09233,0.0262 0.166743,0.0593 0.07579,0.0317 0.132291,0.0593 v 0.49747 h -0.06063 q -0.03858,-0.0331 -0.09784,-0.0786 -0.05788,-0.0455 -0.132291,-0.0896 -0.07579,-0.0441 -0.163987,-0.0744 -0.08819,-0.0303 -0.188791,-0.0303 -0.111621,0 -0.212218,0.0358 -0.100596,0.0345 -0.186035,0.11576 -0.0813,0.0786 -0.132291,0.20808 -0.04961,0.12954 -0.04961,0.3142 0,0.19292 0.05374,0.32246 0.05512,0.12953 0.137804,0.20395 0.08406,0.0758 0.187413,0.10886 0.103352,0.0317 0.203949,0.0317 0.09646,0 0.190169,-0.0289 0.09508,-0.0289 0.175011,-0.0786 0.06752,-0.04 0.125401,-0.0854 0.05788,-0.0455 0.09508,-0.0786 h 0.05512 v 0.49058 q -0.07717,0.0344 -0.14745,0.0648 -0.07028,0.0303 -0.14745,0.0524 -0.100596,0.0289 -0.188791,0.0441 -0.08819,0.0152 -0.242534,0.0152 z"
         style="font-style:normal;font-variant:normal;font-weight:bold;font-stretch:normal;font-size:2.82222px;font-family:sans-serif;-inkscape-font-specification:'sans-serif, Bold';font-variant-ligatures:normal;font-variant-caps:normal;font-variant-numeric:normal;font-variant-east-asian:normal;fill:#1996fc;fill-opacity:1;stroke-width:0.264583"
         id="path528" />
      <path
         d="m 44.03445,177.05629 h -0.649056 l -0.613226,-0.82131 -0.124024,0.15021 v 0.6711 h -0.529166 v -2.0519 h 0.529166 v 0.9288 l 0.733116,-0.9288 h 0.613227 l -0.802018,0.94947 z"
         style="font-style:normal;font-variant:normal;font-weight:bold;font-stretch:normal;font-size:2.82222px;font-family:sans-serif;-inkscape-font-specification:'sans-serif, Bold';font-variant-ligatures:normal;font-variant-caps:normal;font-variant-numeric:normal;font-variant-east-asian:normal;fill:#1996fc;fill-opacity:1;stroke-width:0.264583"
         id="path530" />
    </g>
    <g
       aria-label="RESET"
       id="text500"
       style="font-style:normal;font-variant:normal;font-weight:bold;font-stretch:normal;font-size:2.82222px;line-height:1.25;font-family:sans-serif;-inkscape-font-specification:'sans-serif, Bold';font-variant-ligatures:normal;font-variant-caps:normal;font-variant-numeric:normal;font-variant-east-asian:normal;fill:#1996fc;fill-opacity:1;stroke:none;stroke-width:0.264583"
       transform="translate(39.111186,-17.25883)">
      <path
         d="m 35.231671,182.88705 q 0,-0.0772 -0.03169,-0.13229 -0.03169,-0.0551 -0.108865,-0.0868 -0.05374,-0.022 -0.125402,-0.0262 -0.07166,-0.006 -0.166742,-0.006 h -0.191547 v 0.55259 h 0.162608 q 0.126779,0 0.212218,-0.0124 0.08544,-0.0124 0.143316,-0.0565 0.05512,-0.0427 0.07993,-0.0937 0.02618,-0.0524 0.02618,-0.13918 z m 0.825445,1.42351 h -0.6463 l -0.559483,-0.75241 h -0.243912 v 0.75241 H 34.08101 v -2.0519 h 0.887456 q 0.181901,0 0.312815,0.0207 0.130913,0.0207 0.24529,0.0896 0.115756,0.0689 0.183279,0.17914 0.0689,0.10887 0.0689,0.27423 0,0.22738 -0.106109,0.37069 -0.104731,0.14332 -0.300412,0.2384 z"
         style="font-style:normal;font-variant:normal;font-weight:bold;font-stretch:normal;font-size:2.82222px;font-family:sans-serif;-inkscape-font-specification:'sans-serif, Bold';font-variant-ligatures:normal;font-variant-caps:normal;font-variant-numeric:normal;font-variant-east-asian:normal;fill:#1996fc;fill-opacity:1;stroke-width:0.264583"
         id="path533" />
      <path
         d="m 37.775528,184.31056 h -1.484146 v -2.0519 h 1.484146 v 0.39688 h -0.957736 v 0.35416 h 0.888834 v 0.39687 h -0.888834 v 0.50712 h 0.957736 z"
         style="font-style:normal;font-variant:normal;font-weight:bold;font-stretch:normal;font-size:2.82222px;font-family:sans-serif;-inkscape-font-specification:'sans-serif, Bold';font-variant-ligatures:normal;font-variant-caps:normal;font-variant-numeric:normal;font-variant-east-asian:normal;fill:#1996fc;fill-opacity:1;stroke-width:0.264583"
         id="path535" />
      <path
         d="m 39.863254,183.66564 q 0,0.30317 -0.257693,0.49334 -0.256315,0.18879 -0.697286,0.18879 -0.254937,0 -0.445106,-0.0441 -0.188792,-0.0455 -0.354156,-0.11438 v -0.49195 h 0.05788 q 0.163986,0.13091 0.366557,0.20119 0.20395,0.0703 0.391363,0.0703 0.04823,0 0.126779,-0.008 0.07855,-0.008 0.128158,-0.0276 0.06063,-0.0248 0.09922,-0.062 0.03996,-0.0372 0.03996,-0.11024 0,-0.0675 -0.05788,-0.11576 -0.0565,-0.0496 -0.166742,-0.0758 -0.115756,-0.0276 -0.245291,-0.051 -0.128157,-0.0248 -0.241157,-0.062 -0.25907,-0.0841 -0.373448,-0.22738 -0.112999,-0.14469 -0.112999,-0.35829 0,-0.28663 0.256315,-0.46715 0.257693,-0.1819 0.661458,-0.1819 0.202572,0 0.399631,0.04 0.198437,0.0386 0.343131,0.0978 v 0.47267 h -0.0565 q -0.124024,-0.0992 -0.304547,-0.16537 -0.179144,-0.0675 -0.366557,-0.0675 -0.06615,0 -0.132292,0.01 -0.06477,0.008 -0.125401,0.0331 -0.05374,0.0207 -0.09233,0.0634 -0.03858,0.0413 -0.03858,0.0951 0,0.0813 0.06201,0.1254 0.06201,0.0427 0.234266,0.0785 0.112999,0.0234 0.216352,0.0455 0.104731,0.0221 0.22462,0.0606 0.235644,0.0772 0.347265,0.21084 0.112999,0.13229 0.112999,0.34451 z"
         style="font-style:normal;font-variant:normal;font-weight:bold;font-stretch:normal;font-size:2.82222px;font-family:sans-serif;-inkscape-font-specification:'sans-serif, Bold';font-variant-ligatures:normal;font-variant-caps:normal;font-variant-numeric:normal;font-variant-east-asian:normal;fill:#1996fc;fill-opacity:1;stroke-width:0.264583"
         id="path537" />
      <path
         d="m 41.711202,184.31056 h -1.484146 v -2.0519 h 1.484146 v 0.39688 h -0.957736 v 0.35416 H 41.6423 v 0.39687 h -0.888834 v 0.50712 h 0.957736 z"
         style="font-style:normal;font-variant:normal;font-weight:bold;font-stretch:normal;font-size:2.82222px;font-family:sans-serif;-inkscape-font-specification:'sans-serif, Bold';font-variant-ligatures:normal;font-variant-caps:normal;font-variant-numeric:normal;font-variant-east-asian:normal;fill:#1996fc;fill-opacity:1;stroke-width:0.264583"
         id="path539" />
      <path
         d="m 43.761721,182.65554 h -0.640787 v 1.65502 h -0.529166 v -1.65502 H 41.95098 v -0.39688 h 1.810741 z"
         style="font-style:normal;font-variant:normal;font-weight:bold;font-stretch:normal;font-size:2.82222px;font-family:sans-serif;-inkscape-font-specification:'sans-serif, Bold';font-variant-ligatures:normal;font-variant-caps:normal;font-variant-numeric:normal;font-variant-east-asian:normal;fill:#1996fc;fill-opacity:1;stroke-width:0.264583"
         id="path541" />
    </g>
    <g
       aria-label="GATE"
       id="text504"
       style="font-style:normal;font-variant:normal;font-weight:bold;font-stretch:normal;font-size:2.82222px;line-height:1.25;font-family:sans-serif;-inkscape-font-specification:'sans-serif, Bold';font-variant-ligatures:normal;font-variant-caps:normal;font-variant-numeric:normal;font-variant-east-asian:normal;fill:#1996fc;fill-opacity:1;stroke:none;stroke-width:0.264583"
       transform="translate(-41.068364,67.509257)">
      <path
         d="m 166.32638,177.35395 q -0.1378,0.0537 -0.36518,0.10749 -0.22737,0.0524 -0.45337,0.0524 -0.52366,0 -0.81993,-0.28387 -0.29628,-0.28526 -0.29628,-0.78686 0,-0.47818 0.29903,-0.77032 0.29904,-0.29353 0.83371,-0.29353 0.20258,0 0.38585,0.0372 0.18328,0.0358 0.4079,0.1447 v 0.48093 h -0.0592 q -0.0386,-0.0289 -0.113,-0.0813 -0.0744,-0.0537 -0.14332,-0.0909 -0.0799,-0.0441 -0.18741,-0.0758 -0.10611,-0.0317 -0.226,-0.0317 -0.14056,0 -0.25494,0.0413 -0.11437,0.0413 -0.20532,0.12678 -0.0868,0.0827 -0.13781,0.21084 -0.0496,0.12678 -0.0496,0.29352 0,0.34038 0.18053,0.5209 0.18052,0.18052 0.5333,0.18052 0.0303,0 0.0661,-10e-4 0.0372,-0.001 0.0675,-0.004 v -0.40239 h -0.40928 v -0.38723 h 0.94671 z"
         style="font-style:normal;font-variant:normal;font-weight:bold;font-stretch:normal;font-size:2.82222px;font-family:sans-serif;-inkscape-font-specification:'sans-serif, Bold';font-variant-ligatures:normal;font-variant-caps:normal;font-variant-numeric:normal;font-variant-east-asian:normal;fill:#1996fc;fill-opacity:1;stroke-width:0.264583"
         id="path544" />
      <path
         d="m 168.69523,177.47108 h -0.54708 l -0.14194,-0.41478 h -0.76068 l -0.14194,0.41478 h -0.5333 l 0.75792,-2.05189 h 0.6091 z m -0.81718,-0.79099 -0.25218,-0.73587 -0.25218,0.73587 z"
         style="font-style:normal;font-variant:normal;font-weight:bold;font-stretch:normal;font-size:2.82222px;font-family:sans-serif;-inkscape-font-specification:'sans-serif, Bold';font-variant-ligatures:normal;font-variant-caps:normal;font-variant-numeric:normal;font-variant-east-asian:normal;fill:#1996fc;fill-opacity:1;stroke-width:0.264583"
         id="path546" />
      <path
         d="m 170.5983,175.81606 h -0.64079 v 1.65502 h -0.52917 v -1.65502 h -0.64078 v -0.39687 h 1.81074 z"
         style="font-style:normal;font-variant:normal;font-weight:bold;font-stretch:normal;font-size:2.82222px;font-family:sans-serif;-inkscape-font-specification:'sans-serif, Bold';font-variant-ligatures:normal;font-variant-caps:normal;font-variant-numeric:normal;font-variant-east-asian:normal;fill:#1996fc;fill-opacity:1;stroke-width:0.264583"
         id="path548" />
      <path
         d="m 172.40077,177.47108 h -1.48415 v -2.05189 h 1.48415 v 0.39687 h -0.95774 v 0.35416 h 0.88884 v 0.39687 h -0.88884 v 0.50712 h 0.95774 z"
         style="font-style:normal;font-variant:normal;font-weight:bold;font-stretch:normal;font-size:2.82222px;font-family:sans-serif;-inkscape-font-specification:'sans-serif, Bold';font-variant-ligatures:normal;font-variant-caps:normal;font-variant-numeric:normal;font-variant-east-asian:normal;fill:#1996fc;fill-opacity:1;stroke-width:0.264583"
         id="path550" />
    </g>
    <g
       aria-label="LENGTH"
       id="text384"
       style="font-style:normal;font-weight:normal;font-size:10.5833px;line-height:1.25;font-family:sans-serif;fill:#1996fc;fill-opacity:1;stroke:none;stroke-width:0.264583"
       transform="translate(110.49426,2.818818)">
      <path
         d="m 61.595049,172.04108 h -1.480011 v -2.0519 h 0.529166 v 1.65502 h 0.950845 z"
         style="font-style:normal;font-variant:normal;font-weight:bold;font-stretch:normal;font-size:2.82222px;font-family:sans-serif;-inkscape-font-specification:'sans-serif, Bold';font-variant-ligatures:normal;font-variant-caps:normal;font-variant-numeric:normal;font-variant-east-asian:normal;fill:#1996fc;fill-opacity:1;stroke-width:0.264583"
         id="path386" />
      <path
         d="m 63.396144,172.04108 h -1.484146 v -2.0519 h 1.484146 v 0.39687 h -0.957736 v 0.35416 h 0.888834 v 0.39687 h -0.888834 v 0.50712 h 0.957736 z"
         style="font-style:normal;font-variant:normal;font-weight:bold;font-stretch:normal;font-size:2.82222px;font-family:sans-serif;-inkscape-font-specification:'sans-serif, Bold';font-variant-ligatures:normal;font-variant-caps:normal;font-variant-numeric:normal;font-variant-east-asian:normal;fill:#1996fc;fill-opacity:1;stroke-width:0.264583"
         id="path388" />
      <path
         d="m 65.707112,172.04108 h -0.509873 l -0.87092,-1.40836 v 1.40836 H 63.84125 v -2.0519 h 0.632519 l 0.748274,1.17547 v -1.17547 h 0.485069 z"
         style="font-style:normal;font-variant:normal;font-weight:bold;font-stretch:normal;font-size:2.82222px;font-family:sans-serif;-inkscape-font-specification:'sans-serif, Bold';font-variant-ligatures:normal;font-variant-caps:normal;font-variant-numeric:normal;font-variant-east-asian:normal;fill:#1996fc;fill-opacity:1;stroke-width:0.264583"
         id="path390" />
      <path
         d="m 68.048397,171.92394 q -0.137803,0.0538 -0.365179,0.10749 -0.227377,0.0524 -0.453375,0.0524 -0.523654,0 -0.819932,-0.28388 -0.296278,-0.28525 -0.296278,-0.78686 0,-0.47818 0.299034,-0.77032 0.299034,-0.29352 0.833713,-0.29352 0.202571,0 0.38585,0.0372 0.183279,0.0358 0.407899,0.1447 v 0.48093 h -0.05925 q -0.03858,-0.0289 -0.112999,-0.0813 -0.07441,-0.0538 -0.143316,-0.091 -0.07993,-0.0441 -0.187413,-0.0758 -0.106109,-0.0317 -0.225998,-0.0317 -0.14056,0 -0.254937,0.0413 -0.114377,0.0413 -0.205328,0.12678 -0.08682,0.0827 -0.137804,0.21084 -0.04961,0.12678 -0.04961,0.29352 0,0.34038 0.180523,0.5209 0.180523,0.18052 0.5333,0.18052 0.03032,0 0.06615,-0.001 0.03721,-0.001 0.06752,-0.004 v -0.40239 H 67.10169 v -0.38722 h 0.946711 z"
         style="font-style:normal;font-variant:normal;font-weight:bold;font-stretch:normal;font-size:2.82222px;font-family:sans-serif;-inkscape-font-specification:'sans-serif, Bold';font-variant-ligatures:normal;font-variant-caps:normal;font-variant-numeric:normal;font-variant-east-asian:normal;fill:#1996fc;fill-opacity:1;stroke-width:0.264583"
         id="path392" />
      <path
         d="M 70.126478,170.38605 H 69.48569 v 1.65503 h -0.529166 v -1.65503 h -0.640787 v -0.39687 h 1.810741 z"
         style="font-style:normal;font-variant:normal;font-weight:bold;font-stretch:normal;font-size:2.82222px;font-family:sans-serif;-inkscape-font-specification:'sans-serif, Bold';font-variant-ligatures:normal;font-variant-caps:normal;font-variant-numeric:normal;font-variant-east-asian:normal;fill:#1996fc;fill-opacity:1;stroke-width:0.264583"
         id="path394" />
      <path
         d="m 72.284483,172.04108 h -0.529166 v -0.904 H 70.97397 v 0.904 h -0.529166 v -2.0519 h 0.529166 v 0.75103 h 0.781347 v -0.75103 h 0.529166 z"
         style="font-style:normal;font-variant:normal;font-weight:bold;font-stretch:normal;font-size:2.82222px;font-family:sans-serif;-inkscape-font-specification:'sans-serif, Bold';font-variant-ligatures:normal;font-variant-caps:normal;font-variant-numeric:normal;font-variant-east-asian:normal;fill:#1996fc;fill-opacity:1;stroke-width:0.264583"
         id="path396" />
    </g>
    <path
       id="path2102"
       style="fill:#bed7ea;fill-opacity:1;stroke:none;stroke-width:0.297086;stroke-miterlimit:4;stroke-dasharray:none;stroke-dashoffset:0;stroke-opacity:1"
       d="m 40.313548,192.53527 h 14.548767 v 14.66282 H 40.313548 Z" />
    <path
       id="path2104"
       style="fill:#bed7ea;fill-opacity:1;stroke:none;stroke-width:0.297086;stroke-miterlimit:4;stroke-dasharray:none;stroke-dashoffset:0;stroke-opacity:1"
       d="m 56.622819,192.53527 h 14.548765 v 14.66282 H 56.622819 Z" />
    <path
       id="path2106"
       style="fill:#bed7ea;fill-opacity:1;stroke:none;stroke-width:0.297086;stroke-miterlimit:4;stroke-dasharray:none;stroke-dashoffset:0;stroke-opacity:1"
       d="m 72.932092,192.53527 h 14.548767 v 14.66282 H 72.932092 Z" />
    <path
       id="path2108"
       style="fill:#bed7ea;fill-opacity:1;stroke:none;stroke-width:0.297086;stroke-miterlimit:4;stroke-dasharray:none;stroke-dashoffset:0;stroke-opacity:1"
       d="m 89.241364,192.53527 h 14.548766 v 14.66282 H 89.241364 Z" />
    <path
       id="path2110"
       style="fill:#bed7ea;fill-opacity:1;stroke:none;stroke-width:0.297086;stroke-miterlimit:4;stroke-dasharray:none;stroke-dashoffset:0;stroke-opacity:1"
       d="m 40.313548,208.86036 h 14.548767 v 14.66282 H 40.313548 Z" />
    <path
       id="path2112"
       style="fill:#bed7ea;fill-opacity:1;stroke:none;stroke-width:0.297086;stroke-miterlimit:4;stroke-dasharray:none;stroke-dashoffset:0;stroke-opacity:1"
       d="m 56.622819,208.86036 h 14.548765 v 14.66282 H 56.622819 Z" />
    <path
       id="path2114"
       style="fill:#bed7ea;fill-opacity:1;stroke:none;stroke-width:0.297086;stroke-miterlimit:4;stroke-dasharray:none;stroke-dashoffset:0;stroke-opacity:1"
       d="m 72.932092,208.86036 h 14.548767 v 14.66282 H 72.932092 Z" />
    <path
       id="path2116"
       style="fill:#bed7ea;fill-opacity:1;stroke:none;stroke-width:0.297086;stroke-miterlimit:4;stroke-dasharray:none;stroke-dashoffset:0;stroke-opacity:1"
       d="m 89.241362,208.86036 h 14.548768 v 14.66282 H 89.241362 Z" />
    <path
       id="path2118"
       style="fill:#bed7ea;fill-opacity:1;stroke:none;stroke-width:0.297086;stroke-miterlimit:4;stroke-dasharray:none;stroke-dashoffset:0;stroke-opacity:1"
       d="m 40.313548,225.18546 h 14.548767 v 14.66282 H 40.313548 Z" />
    <path
       id="path2120"
       style="fill:#bed7ea;fill-opacity:1;stroke:none;stroke-width:0.297086;stroke-miterlimit:4;stroke-dasharray:none;stroke-dashoffset:0;stroke-opacity:1"
       d="m 56.622819,225.18546 h 14.548765 v 14.66282 H 56.622819 Z" />
    <path
       id="path2122"
       style="fill:#bed7ea;fill-opacity:1;stroke:none;stroke-width:0.297086;stroke-miterlimit:4;stroke-dasharray:none;stroke-dashoffset:0;stroke-opacity:1"
       d="m 72.932092,225.18546 h 14.548767 v 14.66282 H 72.932092 Z" />
    <path
       id="path2124"
       style="fill:#bed7ea;fill-opacity:1;stroke:none;stroke-width:0.297086;stroke-miterlimit:4;stroke-dasharray:none;stroke-dashoffset:0;stroke-opacity:1"
       d="m 89.241361,225.18546 h 14.548769 v 14.66282 H 89.241361 Z" />
    <path
       id="rect1298-8"
       style="fill:#bed7ea;fill-opacity:1;stroke:none;stroke-width:0.297086;stroke-miterlimit:4;stroke-dasharray:none;stroke-dashoffset:0;stroke-opacity:1"
       d="m 105.4018,176.24712 h 14.54877 v 14.66282 H 105.4018 Z" />
    <path
       id="rect1358-4"
       style="fill:#bed7ea;fill-opacity:1;stroke:none;stroke-width:0.297086;stroke-miterlimit:4;stroke-dasharray:none;stroke-dashoffset:0;stroke-opacity:1"
       d="m 121.71107,176.24712 h 14.54877 v 14.66282 h -14.54877 z" />
    <path
       id="rect1440-1"
       style="fill:#bed7ea;fill-opacity:1;stroke:none;stroke-width:0.297086;stroke-miterlimit:4;stroke-dasharray:none;stroke-dashoffset:0;stroke-opacity:1"
       d="m 138.02034,176.24712 h 14.54877 v 14.66282 h -14.54877 z" />
    <path
       id="rect1442-7"
       style="fill:#bed7ea;fill-opacity:1;stroke:none;stroke-width:0.297086;stroke-miterlimit:4;stroke-dasharray:none;stroke-dashoffset:0;stroke-opacity:1"
       d="m 154.32962,176.24712 h 14.54876 v 14.66282 h -14.54876 z" />
    <path
       id="path2102-1"
       style="fill:#bed7ea;fill-opacity:1;stroke:none;stroke-width:0.297086;stroke-miterlimit:4;stroke-dasharray:none;stroke-dashoffset:0;stroke-opacity:1"
       d="m 105.4018,192.57222 h 14.54877 v 14.66282 H 105.4018 Z" />
    <path
       id="path2104-8"
       style="fill:#bed7ea;fill-opacity:1;stroke:none;stroke-width:0.297086;stroke-miterlimit:4;stroke-dasharray:none;stroke-dashoffset:0;stroke-opacity:1"
       d="m 121.71107,192.57222 h 14.54877 v 14.66282 h -14.54877 z" />
    <path
       id="path2106-7"
       style="fill:#bed7ea;fill-opacity:1;stroke:none;stroke-width:0.297086;stroke-miterlimit:4;stroke-dasharray:none;stroke-dashoffset:0;stroke-opacity:1"
       d="m 138.02034,192.57222 h 14.54877 v 14.66282 h -14.54877 z" />
    <path
       id="path2108-8"
       style="fill:#bed7ea;fill-opacity:1;stroke:none;stroke-width:0.297086;stroke-miterlimit:4;stroke-dasharray:none;stroke-dashoffset:0;stroke-opacity:1"
       d="m 154.32962,192.57222 h 14.54876 v 14.66282 h -14.54876 z" />
    <path
       id="path2108-8-6"
       style="fill:#bed7ea;fill-opacity:1;stroke:none;stroke-width:0.593426;stroke-miterlimit:4;stroke-dasharray:none;stroke-dashoffset:0;stroke-opacity:1"
       d="m 183.93111,176.24704 h -13.38443 v 63.59363 h 13.38443 z" />
    <path
       id="path2110-7"
       style="fill:#bed7ea;fill-opacity:1;stroke:none;stroke-width:0.297086;stroke-miterlimit:4;stroke-dasharray:none;stroke-dashoffset:0;stroke-opacity:1"
       d="m 105.4018,208.89731 h 14.54877 v 14.66282 H 105.4018 Z" />
    <path
       id="path2112-7"
       style="fill:#bed7ea;fill-opacity:1;stroke:none;stroke-width:0.297086;stroke-miterlimit:4;stroke-dasharray:none;stroke-dashoffset:0;stroke-opacity:1"
       d="m 121.71107,208.89731 h 14.54877 v 14.66282 h -14.54877 z" />
    <path
       id="path2114-4"
       style="fill:#bed7ea;fill-opacity:1;stroke:none;stroke-width:0.297086;stroke-miterlimit:4;stroke-dasharray:none;stroke-dashoffset:0;stroke-opacity:1"
       d="m 138.02034,208.89731 h 14.54877 v 14.66282 h -14.54877 z" />
    <path
       id="path2116-4"
       style="fill:#bed7ea;fill-opacity:1;stroke:none;stroke-width:0.297086;stroke-miterlimit:4;stroke-dasharray:none;stroke-dashoffset:0;stroke-opacity:1"
       d="m 154.32961,208.89731 h 14.54877 v 14.66282 h -14.54877 z" />
    <path
       id="path2118-9"
       style="fill:#bed7ea;fill-opacity:1;stroke:none;stroke-width:0.297086;stroke-miterlimit:4;stroke-dasharray:none;stroke-dashoffset:0;stroke-opacity:1"
       d="m 105.4018,225.22241 h 14.54877 v 14.66282 H 105.4018 Z" />
    <path
       id="path2120-1"
       style="fill:#bed7ea;fill-opacity:1;stroke:none;stroke-width:0.297086;stroke-miterlimit:4;stroke-dasharray:none;stroke-dashoffset:0;stroke-opacity:1"
       d="m 121.71107,225.22241 h 14.54877 v 14.66282 h -14.54877 z" />
    <path
       id="path2122-5"
       style="fill:#bed7ea;fill-opacity:1;stroke:none;stroke-width:0.297086;stroke-miterlimit:4;stroke-dasharray:none;stroke-dashoffset:0;stroke-opacity:1"
       d="m 138.02034,225.22241 h 14.54877 v 14.66282 h -14.54877 z" />
    <path
       id="path2124-5"
       style="fill:#bed7ea;fill-opacity:1;stroke:none;stroke-width:0.297086;stroke-miterlimit:4;stroke-dasharray:none;stroke-dashoffset:0;stroke-opacity:1"
       d="m 154.32961,225.22241 h 14.54877 v 14.66282 h -14.54877 z" />
    <path
       id="path2124-5-5"
       style="fill:#1a96fc;fill-opacity:1;stroke:none;stroke-width:0.204983;stroke-miterlimit:4;stroke-dasharray:none;stroke-dashoffset:0;stroke-opacity:1"
       d="m 122.59858,245.90848 h 10.10293 v 10.05232 h -10.10293 z" />
    <path
       id="path2124-5-5-7"
       style="fill:#1a96fc;fill-opacity:1;stroke:none;stroke-width:0.204983;stroke-miterlimit:4;stroke-dasharray:none;stroke-dashoffset:0;stroke-opacity:1"
       d="M 139.12367,245.90848 H 149.2266 V 255.9608 H 139.12367 Z" />
    <path
       id="path2124-5-5-7-2"
       style="fill:#1a96fc;fill-opacity:1;stroke:none;stroke-width:0.204983;stroke-miterlimit:4;stroke-dasharray:none;stroke-dashoffset:0;stroke-opacity:1"
       d="m 155.86279,245.90848 h 10.10293 v 10.05232 h -10.10293 z" />
    <g
       aria-label="RANDOM"
       id="text2145"
       style="font-style:normal;font-variant:normal;font-weight:bold;font-stretch:normal;font-size:1.76389px;line-height:1.25;font-family:sans-serif;-inkscape-font-specification:'sans-serif, Bold';font-variant-ligatures:normal;font-variant-caps:normal;font-variant-numeric:normal;font-variant-east-asian:normal;fill:#1996fc;fill-opacity:1;stroke:none;stroke-width:0.264583"
       transform="translate(2.6458331)">
      <path
         d="m 92.567422,242.21882 q 0,-0.0482 -0.01981,-0.0827 -0.01981,-0.0345 -0.06804,-0.0543 -0.03359,-0.0138 -0.07838,-0.0164 -0.04479,-0.003 -0.104214,-0.003 h -0.119717 v 0.34537 h 0.10163 q 0.07924,0 0.132636,-0.008 0.0534,-0.008 0.08957,-0.0353 0.03445,-0.0267 0.04995,-0.0586 0.01636,-0.0327 0.01636,-0.087 z m 0.515903,0.8897 h -0.403938 l -0.349677,-0.47026 h -0.152445 v 0.47026 h -0.329007 v -1.28244 h 0.55466 q 0.113689,0 0.19551,0.0129 0.08182,0.0129 0.153306,0.056 0.07235,0.0431 0.11455,0.11196 0.04306,0.068 0.04306,0.17139 0,0.14211 -0.06632,0.23169 -0.06546,0.0896 -0.187757,0.149 z"
         id="path2168" />
      <path
         d="m 94.414854,243.10852 h -0.341926 l -0.08871,-0.25924 h -0.475423 l -0.08871,0.25924 H 93.08677 l 0.4737,-1.28244 h 0.380684 z m -0.510735,-0.49437 -0.157613,-0.45992 -0.157613,0.45992 z"
         id="path2170" />
      <path
         d="m 95.767054,243.10852 h -0.318671 l -0.544325,-0.88022 v 0.88022 h -0.303169 v -1.28244 h 0.395325 l 0.467672,0.73467 v -0.73467 h 0.303168 z"
         id="path2172" />
      <path
         d="m 97.307873,242.46859 q 0,0.17915 -0.08182,0.32126 -0.08182,0.14125 -0.206706,0.21704 -0.09388,0.0568 -0.205844,0.0792 -0.111966,0.0224 -0.265272,0.0224 h -0.452169 v -1.28244 h 0.465088 q 0.156752,0 0.27044,0.0267 0.113688,0.0258 0.191203,0.0741 0.132636,0.081 0.208428,0.21877 0.07665,0.13694 0.07665,0.32297 z m -0.341926,-0.003 q 0,-0.12661 -0.04651,-0.21618 -0.04565,-0.0904 -0.145556,-0.14125 -0.05082,-0.025 -0.104214,-0.0336 -0.05254,-0.009 -0.159335,-0.009 h -0.08354 v 0.80271 h 0.08354 q 0.117994,0 0.173116,-0.0103 0.05512,-0.0112 0.107659,-0.0396 0.09043,-0.0517 0.132636,-0.1378 0.0422,-0.087 0.0422,-0.21446 z"
         id="path2174" />
      <path
         d="m 98.807351,242.46773 q 0,0.30662 -0.1757,0.48748 -0.1757,0.18001 -0.485758,0.18001 -0.309198,0 -0.484897,-0.18001 -0.1757,-0.18086 -0.1757,-0.48748 0,-0.30919 0.1757,-0.48834 0.175699,-0.18001 0.484897,-0.18001 0.308336,0 0.484897,0.18001 0.176561,0.17915 0.176561,0.48834 z m -0.438388,0.3247 q 0.04823,-0.0586 0.07149,-0.1378 0.02325,-0.0801 0.02325,-0.18776 0,-0.11541 -0.0267,-0.19637 -0.0267,-0.081 -0.06976,-0.13091 -0.04393,-0.0517 -0.10163,-0.0749 -0.05684,-0.0233 -0.118856,-0.0233 -0.06287,0 -0.118856,0.0224 -0.05512,0.0224 -0.10163,0.0741 -0.04306,0.0482 -0.07062,0.1335 -0.0267,0.0844 -0.0267,0.19637 0,0.11455 0.02584,0.19551 0.0267,0.0801 0.06976,0.13092 0.04306,0.0508 0.100769,0.0749 0.05771,0.0241 0.12144,0.0241 0.06373,0 0.12144,-0.0241 0.05771,-0.025 0.100769,-0.0767 z"
         id="path2176" />
      <path
         d="m 100.40329,243.10852 h -0.32901 v -0.85869 l -0.237707,0.55724 h -0.228238 l -0.237711,-0.55724 v 0.85869 h -0.311781 v -1.28244 h 0.384128 l 0.288527,0.64338 0.287662,-0.64338 h 0.38413 z"
         id="path2178" />
    </g>
    <g
       aria-label="GATE"
       id="text2151"
       style="font-style:normal;font-variant:normal;font-weight:bold;font-stretch:normal;font-size:1.76389px;line-height:1.25;font-family:sans-serif;-inkscape-font-specification:'sans-serif, Bold';font-variant-ligatures:normal;font-variant-caps:normal;font-variant-numeric:normal;font-variant-east-asian:normal;fill:#1996fc;fill-opacity:1;stroke:none;stroke-width:0.264583">
      <path
         d="m 88.028508,245.51844 q -0.08613,0.0336 -0.228237,0.0672 -0.142111,0.0327 -0.28336,0.0327 -0.327284,0 -0.512458,-0.17742 -0.185174,-0.17828 -0.185174,-0.49179 0,-0.29886 0.186897,-0.48145 0.186896,-0.18345 0.521071,-0.18345 0.126607,0 0.241157,0.0232 0.114549,0.0224 0.254937,0.0904 v 0.30058 h -0.03704 q -0.02412,-0.0181 -0.07062,-0.0508 -0.04651,-0.0336 -0.08957,-0.0569 -0.04995,-0.0276 -0.117133,-0.0474 -0.06632,-0.0198 -0.141249,-0.0198 -0.08785,0 -0.159336,0.0258 -0.07149,0.0258 -0.12833,0.0792 -0.05426,0.0517 -0.08613,0.13177 -0.03101,0.0792 -0.03101,0.18346 0,0.21273 0.112827,0.32556 0.112827,0.11282 0.333313,0.11282 0.01895,0 0.04134,-8.6e-4 0.02325,-8.6e-4 0.0422,-0.003 v -0.25149 h -0.255798 v -0.24202 H 88.0285 Z"
         id="path2181" />
      <path
         d="m 89.509039,245.59164 h -0.341926 l -0.08871,-0.25924 H 88.60298 l -0.08871,0.25924 h -0.333313 l 0.473701,-1.28243 h 0.380683 z m -0.510736,-0.49437 -0.157613,-0.45992 -0.157613,0.45992 z"
         id="path2183" />
      <path
         d="m 90.698459,244.55725 h -0.400492 v 1.03439 h -0.33073 v -1.03439 h -0.400492 v -0.24804 h 1.131714 z"
         id="path2185" />
      <path
         d="m 91.825006,245.59164 h -0.927593 v -1.28243 h 0.927593 v 0.24804 H 91.22642 v 0.22135 h 0.555522 v 0.24805 H 91.22642 v 0.31695 h 0.598586 z"
         id="path2187" />
    </g>
    <path
       style="font-weight:bold;font-size:4.9389px;-inkscape-font-specification:'sans-serif Bold';fill:#40a5f7;stroke-width:0.265"
       d="m 32.978507,170.19823 h -0.957394 l -0.248392,-0.72589 h -1.331188 l -0.248392,0.72589 h -0.933278 l 1.326365,-3.59083 h 1.065915 z m -1.430062,-1.38425 -0.441318,-1.28778 -0.441318,1.28778 z m 4.72427,-0.007 q 0,0.63907 -0.354501,1.0418 -0.35209,0.40273 -0.880224,0.40273 -0.226688,0 -0.397909,-0.0482 -0.171222,-0.0482 -0.325563,-0.13987 l -0.03617,0.13505 h -0.831996 v -3.75241 h 0.868166 v 1.32637 q 0.200161,-0.15917 0.407556,-0.25804 0.209807,-0.0989 0.482315,-0.0989 0.513664,0 0.790995,0.37138 0.277331,0.36898 0.277331,1.0201 z m -0.894693,0.0169 q 0,-0.36174 -0.12299,-0.55707 -0.122991,-0.19534 -0.438907,-0.19534 -0.12299,0 -0.253215,0.0386 -0.130225,0.0362 -0.248392,0.1061 v 1.36013 q 0.09405,0.0338 0.178457,0.0458 0.08441,0.0121 0.202572,0.0121 0.344855,0 0.513665,-0.20257 0.16881,-0.20258 0.16881,-0.60772 z m 2.932471,1.44694 q -0.354501,0 -0.648713,-0.0844 -0.2918,-0.0844 -0.508841,-0.26045 -0.21463,-0.17605 -0.332797,-0.44373 -0.118167,-0.26768 -0.118167,-0.62701 0,-0.37862 0.125401,-0.65353 0.127814,-0.27492 0.354502,-0.45579 0.219453,-0.17122 0.50643,-0.25081 0.286977,-0.0796 0.595658,-0.0796 0.277331,0 0.511253,0.0603 0.233923,0.0603 0.436495,0.15675 v 0.74036 h -0.12299 q -0.05064,-0.0434 -0.12299,-0.10129 -0.06994,-0.0579 -0.173634,-0.11334 -0.09887,-0.0531 -0.217041,-0.0868 -0.118167,-0.0362 -0.274919,-0.0362 -0.347267,0 -0.535369,0.22186 -0.185691,0.21945 -0.185691,0.59807 0,0.39068 0.190514,0.59325 0.192926,0.20257 0.545015,0.20257 0.163987,0 0.294212,-0.0362 0.132636,-0.0386 0.219453,-0.0892 0.08199,-0.0482 0.144694,-0.10129 0.0627,-0.0531 0.115756,-0.1037 h 0.12299 v 0.74036 q -0.204984,0.0965 -0.42926,0.15193 -0.221865,0.0579 -0.491961,0.0579 z m 4.128612,-0.0723 h -0.868166 v -0.28216 q -0.224276,0.18328 -0.419613,0.2701 -0.195338,0.0868 -0.450964,0.0868 -0.494373,0 -0.790996,-0.38103 -0.296623,-0.38103 -0.296623,-1.02733 0,-0.34486 0.09887,-0.61013 0.101286,-0.26768 0.274919,-0.4582 0.163987,-0.18087 0.39791,-0.27974 0.233922,-0.10129 0.467845,-0.10129 0.243569,0 0.397909,0.0531 0.156752,0.0506 0.320739,0.13022 v -1.15273 h 0.868166 z m -0.868166,-0.74759 v -1.32878 q -0.09164,-0.0386 -0.192925,-0.0555 -0.101286,-0.0169 -0.185692,-0.0169 -0.342443,0 -0.513664,0.21463 -0.171222,0.21221 -0.171222,0.59083 0,0.39791 0.13746,0.57878 0.137459,0.17845 0.441317,0.17845 0.118167,0 0.250804,-0.0434 0.132636,-0.0458 0.233922,-0.11817 z m 4.610926,-0.38103 q 0,0.53055 -0.450964,0.86334 -0.448552,0.33039 -1.220256,0.33039 -0.44614,0 -0.778937,-0.0772 -0.330386,-0.0796 -0.619774,-0.20016 v -0.86093 h 0.101286 q 0.286977,0.2291 0.641478,0.35209 0.356913,0.12299 0.684886,0.12299 0.0844,0 0.221865,-0.0145 0.13746,-0.0145 0.224276,-0.0482 0.106109,-0.0434 0.173633,-0.10852 0.06994,-0.0651 0.06994,-0.19293 0,-0.11817 -0.101286,-0.20257 -0.09887,-0.0868 -0.2918,-0.13264 -0.202572,-0.0482 -0.42926,-0.0892 -0.224276,-0.0434 -0.422025,-0.10852 -0.453376,-0.1471 -0.653536,-0.39791 -0.197749,-0.25321 -0.197749,-0.62701 0,-0.5016 0.448552,-0.81752 0.450964,-0.31833 1.157555,-0.31833 0.354501,0 0.699356,0.0699 0.347266,0.0675 0.600481,0.17122 v 0.82717 h -0.09887 q -0.217042,-0.17363 -0.532958,-0.28939 -0.313504,-0.11817 -0.641478,-0.11817 -0.115755,0 -0.231511,0.0169 -0.113344,0.0145 -0.219453,0.0579 -0.09405,0.0362 -0.161575,0.11094 -0.06752,0.0723 -0.06752,0.16639 0,0.14229 0.108521,0.21946 0.10852,0.0748 0.409967,0.13746 0.197749,0.041 0.378617,0.0796 0.183279,0.0386 0.393086,0.10611 0.412379,0.13505 0.607716,0.36897 0.197749,0.23151 0.197749,0.60289 z m 3.253212,-0.0651 h -1.987135 q 0.01929,0.31833 0.241157,0.48714 0.224276,0.16881 0.658359,0.16881 0.274919,0 0.532957,-0.0989 0.258039,-0.0989 0.407556,-0.21222 h 0.09646 v 0.69695 q -0.294212,0.11816 -0.554662,0.17122 -0.260449,0.053 -0.576365,0.053 -0.815112,0 -1.249195,-0.36655 -0.434083,-0.36656 -0.434083,-1.04422 0,-0.67041 0.409968,-1.06109 0.412378,-0.39308 1.128615,-0.39308 0.660771,0 0.993568,0.3352 0.332797,0.3328 0.332797,0.95981 z m -0.863343,-0.50884 q -0.0072,-0.27251 -0.135048,-0.40997 -0.127813,-0.13746 -0.397909,-0.13746 -0.250804,0 -0.412379,0.13022 -0.161575,0.13023 -0.180868,0.41721 z m 4.109319,2.69613 h -0.868166 v -1.25884 q -0.212219,0.17123 -0.414791,0.25563 -0.202572,0.0844 -0.455787,0.0844 -0.496784,0 -0.793407,-0.38103 -0.294212,-0.38103 -0.294212,-1.02733 0,-0.34486 0.09887,-0.61013 0.101286,-0.26768 0.27492,-0.4582 0.163986,-0.18087 0.397909,-0.27974 0.233922,-0.10129 0.467845,-0.10129 0.229099,0 0.38344,0.0531 0.156752,0.0506 0.330385,0.14228 l 0.03135,-0.12058 h 0.841639 z m -0.868166,-1.74115 v -1.32878 q -0.09164,-0.0386 -0.192926,-0.0555 -0.101286,-0.0169 -0.185691,-0.0169 -0.342444,0 -0.513665,0.21463 -0.171222,0.21221 -0.171222,0.59083 0,0.39791 0.13746,0.57878 0.137459,0.17845 0.441317,0.17845 0.118168,0 0.250804,-0.0434 0.132636,-0.0458 0.233923,-0.11817 z"
       id="text1"
       aria-label="AbcdSeq" />
    <path
       style="font-weight:bold;font-size:4.9389px;-inkscape-font-specification:'sans-serif Bold';fill:#40a5f7;stroke-width:0.265"
       d="m 35.379546,185.67632 h -0.957394 l -0.248392,-0.72589 h -1.331188 l -0.248392,0.72589 h -0.933279 l 1.326365,-3.59084 h 1.065915 z m -1.430063,-1.38425 -0.441317,-1.28778 -0.441318,1.28778 z"
       id="text2"
       aria-label="A" />
    <path
       style="font-weight:bold;font-size:4.9389px;-inkscape-font-specification:'sans-serif Bold';fill:#40a5f7;stroke-width:0.265"
       d="m 35.056396,200.54871 q 0,0.26045 -0.106109,0.46544 -0.103698,0.20498 -0.286977,0.34003 -0.212219,0.15916 -0.467845,0.22669 -0.253215,0.0675 -0.64389,0.0675 h -1.567522 v -3.59083 h 1.393889 q 0.434083,0 0.634243,0.0289 0.202572,0.0289 0.400321,0.12781 0.204984,0.1037 0.303858,0.27975 0.101286,0.17363 0.101286,0.3979 0,0.26045 -0.137459,0.46061 -0.13746,0.19775 -0.388264,0.30869 v 0.0193 q 0.35209,0.0699 0.557074,0.28939 0.207395,0.21945 0.207395,0.57877 z m -1.186494,-1.47588 q 0,-0.0892 -0.04582,-0.17845 -0.04341,-0.0892 -0.156752,-0.13264 -0.101286,-0.0386 -0.253215,-0.041 -0.149517,-0.005 -0.422025,-0.005 h -0.08682 v 0.75965 h 0.144695 q 0.219453,0 0.373793,-0.007 0.154341,-0.007 0.243569,-0.0482 0.125402,-0.0555 0.163987,-0.14228 0.03859,-0.0892 0.03859,-0.20499 z m 0.226688,1.46142 q 0,-0.17123 -0.06752,-0.26287 -0.06511,-0.094 -0.224276,-0.13987 -0.108521,-0.0314 -0.299035,-0.0338 -0.190514,-0.002 -0.397909,-0.002 h -0.202573 v 0.89469 h 0.06752 q 0.390675,0 0.559485,-0.002 0.16881,-0.002 0.311093,-0.0627 0.144694,-0.0603 0.197749,-0.15916 0.05547,-0.10129 0.05547,-0.23151 z"
       id="text3"
       aria-label="B" />
    <path
       style="font-weight:bold;font-size:4.9389px;-inkscape-font-specification:'sans-serif Bold';fill:#40a5f7;stroke-width:0.265"
       d="m 33.801171,216.8671 q -0.400321,0 -0.740353,-0.11817 -0.33762,-0.11816 -0.581189,-0.35209 -0.243568,-0.23392 -0.378617,-0.5836 -0.132636,-0.34967 -0.132636,-0.80787 0,-0.42685 0.127813,-0.77412 0.127814,-0.34726 0.371382,-0.59566 0.233923,-0.23874 0.578778,-0.36897 0.347266,-0.13022 0.757233,-0.13022 0.226688,0 0.407556,0.0265 0.18328,0.0241 0.33762,0.0651 0.161576,0.0458 0.291801,0.1037 0.132636,0.0555 0.23151,0.10369 v 0.87058 H 34.96596 q -0.06752,-0.0579 -0.171221,-0.13746 -0.101286,-0.0796 -0.231511,-0.15675 -0.132637,-0.0772 -0.286977,-0.13023 -0.154341,-0.0531 -0.330386,-0.0531 -0.195337,0 -0.371382,0.0627 -0.176045,0.0603 -0.325562,0.20257 -0.142283,0.13746 -0.231511,0.36415 -0.08682,0.22669 -0.08682,0.54984 0,0.33762 0.09405,0.56431 0.09646,0.22668 0.241157,0.35691 0.147106,0.13264 0.327974,0.19051 0.180868,0.0555 0.356912,0.0555 0.16881,0 0.332797,-0.0506 0.166399,-0.0506 0.30627,-0.13746 0.118167,-0.0699 0.219453,-0.14952 0.101286,-0.0796 0.166399,-0.13746 h 0.09646 v 0.85852 q -0.135048,0.0603 -0.258038,0.11334 -0.12299,0.0531 -0.258038,0.0916 -0.176045,0.0507 -0.330385,0.0772 -0.154341,0.0265 -0.424437,0.0265 z"
       id="text4"
       aria-label="C" />
    <path
       style="font-weight:bold;font-size:4.9389px;-inkscape-font-specification:'sans-serif Bold';fill:#40a5f7;stroke-width:0.265"
       d="m 35.216765,231.9654 q 0,0.50161 -0.229099,0.89952 -0.2291,0.3955 -0.578778,0.60772 -0.262861,0.15916 -0.576365,0.22186 -0.313505,0.0627 -0.742765,0.0627 h -1.266075 v -3.59083 h 1.302249 q 0.438906,0 0.757234,0.0748 0.318327,0.0724 0.535369,0.2074 0.371382,0.22668 0.5836,0.61253 0.21463,0.38344 0.21463,0.90434 z m -0.957394,-0.007 q 0,-0.3545 -0.130225,-0.60531 -0.127813,-0.25321 -0.407556,-0.39549 -0.142282,-0.0699 -0.2918,-0.0941 -0.147106,-0.0265 -0.446141,-0.0265 h -0.233922 v 2.24758 h 0.233922 q 0.330386,0 0.484726,-0.0289 0.154341,-0.0314 0.301447,-0.11093 0.253215,-0.14469 0.371382,-0.38585 0.118167,-0.24357 0.118167,-0.60048 z"
       id="text5"
       aria-label="D" />
    <path
       style="font-weight:bold;font-size:3.175px;-inkscape-font-specification:'sans-serif Bold';fill:#40a5f7;stroke-width:0.265"
       d="m 156.37823,242.31643 -0.8418,2.30839 h -0.66663 l -0.84181,-2.30839 h 0.62477 l 0.5581,1.62161 0.55811,-1.62161 z m 2.01539,1.54099 h -1.27745 q 0.0124,0.20464 0.15503,0.31316 0.14418,0.10852 0.42323,0.10852 0.17674,0 0.34262,-0.0636 0.16588,-0.0636 0.262,-0.13643 h 0.062 v 0.44804 q -0.18914,0.076 -0.35657,0.11007 -0.16743,0.0341 -0.37052,0.0341 -0.524,0 -0.80305,-0.23565 -0.27905,-0.23564 -0.27905,-0.67128 0,-0.43098 0.26355,-0.68212 0.2651,-0.2527 0.72553,-0.2527 0.42478,0 0.63873,0.21549 0.21394,0.21394 0.21394,0.61701 z m -0.55501,-0.32711 q -0.005,-0.17518 -0.0868,-0.26355 -0.0822,-0.0884 -0.25579,-0.0884 -0.16123,0 -0.2651,0.0837 -0.10387,0.0837 -0.11628,0.2682 z m 1.50689,1.09451 h -0.55811 v -2.41226 h 0.55811 z m 2.30683,-0.86972 q 0,0.42943 -0.25115,0.67748 -0.24959,0.2465 -0.70228,0.2465 -0.45268,0 -0.70383,-0.2465 -0.2496,-0.24805 -0.2496,-0.67748 0,-0.43253 0.25115,-0.67903 0.2527,-0.24649 0.70228,-0.24649 0.45579,0 0.70383,0.24804 0.2496,0.24805 0.2496,0.67748 z m -0.68678,0.42323 q 0.0543,-0.0667 0.0806,-0.15968 0.0279,-0.0946 0.0279,-0.26045 0,-0.15348 -0.0279,-0.25735 -0.0279,-0.10387 -0.0775,-0.16588 -0.0496,-0.0636 -0.11937,-0.0899 -0.0698,-0.0264 -0.15038,-0.0264 -0.0806,0 -0.14418,0.0217 -0.062,0.0217 -0.11937,0.0868 -0.0512,0.0605 -0.0822,0.16588 -0.0295,0.10542 -0.0295,0.2651 0,0.14263 0.0264,0.24805 0.0264,0.10387 0.0775,0.16743 0.0496,0.0605 0.11782,0.0884 0.0698,0.0279 0.15813,0.0279 0.076,0 0.14418,-0.0248 0.0698,-0.0264 0.11782,-0.0868 z m 1.99368,0.493 q -0.22789,0 -0.41703,-0.0543 -0.18759,-0.0543 -0.32711,-0.16744 -0.13798,-0.11317 -0.21394,-0.28525 -0.076,-0.17208 -0.076,-0.40308 0,-0.24339 0.0806,-0.42013 0.0822,-0.17673 0.22789,-0.293 0.14108,-0.11007 0.32556,-0.16123 0.18449,-0.0512 0.38293,-0.0512 0.17828,0 0.32866,0.0388 0.15038,0.0387 0.2806,0.10077 v 0.47594 h -0.0791 q -0.0326,-0.0279 -0.0791,-0.0651 -0.045,-0.0372 -0.11162,-0.0729 -0.0636,-0.0341 -0.13953,-0.0558 -0.076,-0.0233 -0.17673,-0.0233 -0.22324,0 -0.34417,0.14263 -0.11937,0.14108 -0.11937,0.38447 0,0.25115 0.12248,0.38138 0.12402,0.13022 0.35036,0.13022 0.10542,0 0.18914,-0.0232 0.0853,-0.0248 0.14107,-0.0574 0.0527,-0.031 0.093,-0.0651 0.0403,-0.0341 0.0744,-0.0667 h 0.0791 v 0.47594 q -0.13177,0.062 -0.27595,0.0977 -0.14263,0.0372 -0.31626,0.0372 z m 1.51929,-0.0465 h -0.55811 v -1.74098 h 0.55811 z m 0.0155,-1.98903 h -0.58911 v -0.42323 h 0.58911 z m 1.62471,1.97352 q -0.0899,0.0233 -0.19069,0.0357 -0.10077,0.0139 -0.2465,0.0139 -0.32556,0 -0.48524,-0.13177 -0.15813,-0.13178 -0.15813,-0.45114 v -0.8139 h -0.22944 v -0.37827 h 0.22944 v -0.49765 h 0.55811 v 0.49765 h 0.52245 v 0.37827 h -0.52245 v 0.61702 q 0,0.0915 0.002,0.15968 0.002,0.0682 0.0248,0.12247 0.0217,0.0543 0.076,0.0868 0.0558,0.031 0.16123,0.031 0.0434,0 0.11317,-0.0186 0.0713,-0.0186 0.0992,-0.0341 h 0.0465 z m 1.11931,-0.59996 0.39687,-1.12551 h 0.57361 l -0.96738,2.3797 h -0.60462 l 0.27595,-0.65113 -0.67747,-1.72857 h 0.58601 z"
       id="text6"
       aria-label="Velocity" />
    <path
       style="font-weight:bold;font-size:3.175px;-inkscape-font-specification:'sans-serif Bold';fill:#1a96fc;stroke-width:0.265"
       d="m 142.48517,244.99908 q -0.25735,0 -0.47594,-0.076 -0.21705,-0.076 -0.37363,-0.22634 -0.15657,-0.15038 -0.24339,-0.37517 -0.0853,-0.2248 -0.0853,-0.51935 0,-0.2744 0.0822,-0.49764 0.0822,-0.22325 0.23874,-0.38293 0.15038,-0.15348 0.37207,-0.23719 0.22325,-0.0837 0.4868,-0.0837 0.14572,0 0.262,0.0171 0.11782,0.0155 0.21704,0.0419 0.10387,0.0295 0.18758,0.0667 0.0853,0.0357 0.14883,0.0667 v 0.55965 h -0.0682 q -0.0434,-0.0372 -0.11007,-0.0884 -0.0651,-0.0512 -0.14883,-0.10077 -0.0853,-0.0496 -0.18449,-0.0837 -0.0992,-0.0341 -0.21239,-0.0341 -0.12557,0 -0.23874,0.0403 -0.11317,0.0388 -0.20929,0.13023 -0.0915,0.0884 -0.14883,0.23409 -0.0558,0.14573 -0.0558,0.35347 0,0.21704 0.0605,0.36277 0.062,0.14573 0.15503,0.22944 0.0946,0.0853 0.21084,0.12247 0.11627,0.0357 0.22944,0.0357 0.10852,0 0.21394,-0.0325 0.10697,-0.0326 0.19689,-0.0884 0.076,-0.045 0.14108,-0.0961 0.0651,-0.0512 0.10697,-0.0884 h 0.062 v 0.55191 q -0.0868,0.0388 -0.16588,0.0729 -0.0791,0.0341 -0.16588,0.0589 -0.11317,0.0326 -0.21239,0.0496 -0.0992,0.0171 -0.27285,0.0171 z m 3.34708,-2.35335 -0.84181,2.30839 h -0.66663 l -0.84181,-2.30839 h 0.62477 l 0.55811,1.62161 0.5581,-1.62161 z"
       id="text7"
       aria-label="CV" />
    <path
       style="font-weight:bold;font-size:1.76389px;-inkscape-font-specification:'sans-serif Bold';fill:#1a96fc;stroke-width:0.265"
       d="m 101.93056,244.24799 -0.46768,1.28244 h -0.37035 l -0.46767,-1.28244 h 0.34709 l 0.31006,0.90089 0.31007,-0.90089 z m 1.11191,1.28244 h -0.9276 v -1.28244 h 0.9276 v 0.24805 h -0.59859 v 0.22134 h 0.55552 v 0.24805 h -0.55552 v 0.31695 h 0.59859 z m 1.20235,0 h -0.92502 v -1.28244 h 0.33073 v 1.03439 h 0.59429 z"
       id="text8"
       aria-label="VEL" />
    <path
       style="font-weight:bold;font-size:1.76389px;-inkscape-font-specification:'sans-serif Bold';fill:#1a96fc;stroke-width:0.265"
       d="m 108.05424,244.56937 h -0.40049 v 1.03439 h -0.33073 v -1.03439 h -0.40049 v -0.24805 h 1.13171 z m 1.36168,1.03439 h -0.38241 l -0.27647,-0.42202 -0.28163,0.42202 h -0.36518 l 0.45475,-0.64596 -0.44528,-0.63648 h 0.38155 l 0.26699,0.39963 0.27475,-0.39963 h 0.36604 l -0.44786,0.62356 z m 1.1877,-1.03439 h -0.4005 v 1.03439 h -0.33073 v -1.03439 h -0.40049 v -0.24805 h 1.13172 z"
       id="text9"
       aria-label="TXT" />
    <path
       style="font-weight:bold;font-size:1.76389px;-inkscape-font-specification:'sans-serif Bold';fill:#1b97fc;stroke-width:0.265"
       d="m 95.196008,245.63774 q -0.14297,0 -0.264407,-0.0422 -0.12058,-0.0422 -0.20757,-0.12575 -0.087,-0.0835 -0.13522,-0.20843 -0.0474,-0.12488 -0.0474,-0.28852 0,-0.15245 0.0456,-0.27647 0.0457,-0.12403 0.13264,-0.21274 0.0835,-0.0853 0.2067,-0.13177 0.124027,-0.0465 0.270437,-0.0465 0.081,0 0.14556,0.009 0.0654,0.009 0.12058,0.0233 0.0577,0.0164 0.104207,0.037 0.0474,0.0198 0.0827,0.037 v 0.31092 h -0.0379 q -0.0241,-0.0207 -0.0611,-0.0491 -0.0362,-0.0284 -0.0827,-0.056 -0.0474,-0.0276 -0.10249,-0.0465 -0.0551,-0.019 -0.11799,-0.019 -0.0698,0 -0.13264,0.0224 -0.0629,0.0215 -0.11627,0.0723 -0.0508,0.0491 -0.0827,0.13006 -0.031,0.081 -0.031,0.19637 0,0.12058 0.0336,0.20154 0.0344,0.081 0.0861,0.12746 0.0525,0.0474 0.11713,0.068 0.0646,0.0198 0.12747,0.0198 0.0603,0 0.11886,-0.0181 0.0594,-0.0181 0.10938,-0.0491 0.0422,-0.025 0.0784,-0.0534 0.0362,-0.0284 0.0594,-0.0491 h 0.0344 v 0.30662 q -0.0482,0.0215 -0.0921,0.0405 -0.0439,0.0189 -0.0922,0.0327 -0.0629,0.0181 -0.118,0.0276 -0.0551,0.009 -0.15158,0.009 z m 1.859481,-1.30742 -0.46767,1.28244 h -0.370347 l -0.467667,-1.28244 h 0.347087 l 0.31006,0.9009 0.310057,-0.9009 z"
       id="text10"
       aria-label="CV" />
  </g>
</svg>
