<?xml version="1.0" encoding="UTF-8" standalone="no"?>
<!-- Generator: Gravit.io -->

<svg
   style="isolation:isolate"
   viewBox="0 0 345 380"
   width="345"
   height="380"
   version="1.1"
   id="svg28"
   sodipodi:docname="Arrange16.svg"
   inkscape:version="1.3.2 (091e20e, 2023-11-25)"
   xmlns:inkscape="http://www.inkscape.org/namespaces/inkscape"
   xmlns:sodipodi="http://sodipodi.sourceforge.net/DTD/sodipodi-0.dtd"
   xmlns="http://www.w3.org/2000/svg"
   xmlns:svg="http://www.w3.org/2000/svg"
   xmlns:rdf="http://www.w3.org/1999/02/22-rdf-syntax-ns#"
   xmlns:cc="http://creativecommons.org/ns#"
   xmlns:dc="http://purl.org/dc/elements/1.1/">
  <metadata
     id="metadata32">
    <rdf:RDF>
      <cc:Work
         rdf:about="">
        <dc:format>image/svg+xml</dc:format>
        <dc:type
           rdf:resource="http://purl.org/dc/dcmitype/StillImage" />
      </cc:Work>
    </rdf:RDF>
  </metadata>
  <sodipodi:namedview
     pagecolor="#ffffff"
     bordercolor="#666666"
     borderopacity="1"
     objecttolerance="10"
     gridtolerance="10"
     guidetolerance="10"
     inkscape:pageopacity="0"
     inkscape:pageshadow="2"
     inkscape:window-width="1944"
     inkscape:window-height="951"
     id="namedview30"
     showgrid="false"
     inkscape:zoom="1.2727922"
     inkscape:cx="232.55956"
     inkscape:cy="150.84945"
     inkscape:window-x="888"
     inkscape:window-y="538"
     inkscape:window-maximized="0"
     inkscape:current-layer="svg28"
     showguides="false"
     inkscape:snap-nodes="true"
     inkscape:snap-grids="false"
     inkscape:snap-global="false"
     inkscape:showpageshadow="2"
     inkscape:pagecheckerboard="0"
     inkscape:deskcolor="#d1d1d1" />
  <defs
     id="defs5">
    <clipPath
       id="_clipPath_0ow2e6EsI2z2JMRNarlGPRVH8APlqVOp">
      <rect
         width="720"
         height="380"
         id="rect2"
         x="0"
         y="0" />
    </clipPath>
  </defs>
  <path
     style="fill:#e5e5e5;fill-opacity:1;stroke-width:0.692219"
     inkscape:connector-curvature="0"
     id="path7"
     d="M 0,0 H 345 V 379.45 H 0 Z" />
  <g
     id="layer1-2"
     transform="translate(246.56334,-47.663851)">
    <rect
       style="fill:#ffffff"
       id="rect9"
       height="2.2750001"
       width="10.008"
       y="347.13"
       x="39.669998" />
    <rect
       style="fill:#ffffff"
       id="rect11"
       height="0.70499998"
       width="12.49"
       y="347.74399"
       x="38.465" />
    <path
       style="fill:#ffffff"
       inkscape:connector-curvature="0"
       id="path13"
       d="m 36.026,339.784 c 0,-4.456 3.82,-8.074 8.525,-8.074 4.705,0 8.524,3.618 8.524,8.074 0,4.457 -3.819,8.075 -8.524,8.075 -4.705,0 -8.525,-3.618 -8.525,-8.075 z" />
    <rect
       style="fill:#ffffff"
       id="rect15"
       height="5.9190001"
       width="13.125"
       y="348.44901"
       x="37.944" />
    <path
       style="fill:#54b6fc"
       inkscape:connector-curvature="0"
       id="path17"
       d="m 37.635,354.766 c -0.078,-0.145 -0.126,-1.449 -0.126,-3.397 0,-3.615 -0.089,-3.315 1.195,-4.021 0.41,-0.226 0.746,-0.445 0.746,-0.487 0,-0.043 -0.223,-0.232 -0.496,-0.421 -1.414,-0.98 -2.77,-2.995 -3.217,-4.781 -0.277,-1.106 -0.185,-3.288 0.185,-4.37 1.421,-4.161 6.033,-6.679 10.539,-5.752 2.939,0.604 5.272,2.436 6.452,5.068 0.498,1.11 0.666,1.944 0.663,3.292 -0.006,2.424 -1.107,4.678 -3.056,6.259 -0.35,0.284 -0.637,0.559 -0.637,0.611 0,0.053 0.259,0.243 0.576,0.424 1.212,0.69 1.122,0.358 1.122,4.167 0,2.445 -0.039,3.39 -0.145,3.497 -0.11,0.109 -1.811,0.145 -6.911,0.145 -6.564,0 -6.768,-0.008 -6.89,-0.235 z m 6.572,-1.846 c 0.028,-0.991 0.074,-1.255 0.237,-1.357 0.147,-0.092 0.255,-0.083 0.394,0.033 0.152,0.126 0.192,0.413 0.192,1.358 v 1.198 h 2.794 c 2.374,0 2.805,-0.026 2.864,-0.182 0.164,-0.426 -0.116,-0.755 -1.442,-1.701 -1.11,-0.791 -1.365,-1.029 -1.365,-1.274 0,-0.237 0.07,-0.308 0.334,-0.339 l 0.334,-0.038 v -1 c 0,-1.132 0.155,-1.493 0.585,-1.356 0.251,0.079 0.264,0.153 0.266,1.501 0.001,0.779 0.042,1.474 0.091,1.545 0.147,0.211 0.951,0.782 1.101,0.782 0.1,0 0.14,-0.52 0.14,-1.801 0,-2.043 0.062,-1.902 -1.132,-2.569 l -0.708,-0.396 -1.232,0.412 c -1.197,0.399 -1.29,0.411 -3.175,0.411 -1.864,0 -1.983,-0.016 -2.996,-0.377 l -1.054,-0.377 -0.977,0.551 -0.978,0.552 v 1.857 c 0,1.022 0.031,1.858 0.069,1.858 0.038,0 0.311,-0.142 0.607,-0.315 l 0.537,-0.314 0.002,-1.232 c 0.002,-1.579 0.283,-2.203 0.772,-1.714 0.15,0.149 0.196,0.438 0.196,1.211 v 1.014 l 0.4,-0.064 c 0.434,-0.071 0.747,0.159 0.632,0.461 -0.036,0.093 -0.774,0.594 -1.64,1.113 -1.532,0.919 -1.575,0.957 -1.575,1.363 v 0.418 h 2.846 2.847 z m 3.116,-5.993 c 2.504,-0.839 4.541,-2.944 5.165,-5.338 0.195,-0.748 0.251,-2.796 0.084,-3.059 -0.076,-0.119 -0.708,-0.147 -2.742,-0.121 l -2.644,0.033 -0.393,1.092 c -0.345,0.956 -0.429,1.092 -0.681,1.092 -0.266,0 -0.302,-0.082 -0.497,-1.138 -0.321,-1.734 -0.364,-1.707 -0.757,0.481 -0.345,1.92 -0.39,2.052 -0.687,2.052 -0.288,0 -0.273,0.062 -0.814,-3.569 -0.247,-1.663 -0.504,-3.041 -0.571,-3.063 -0.066,-0.023 -0.476,0.656 -0.91,1.507 l -0.788,1.546 -2.27,0.034 -2.269,0.033 -0.082,0.437 c -0.139,0.74 0.028,2.246 0.352,3.178 0.662,1.902 2.011,3.402 3.905,4.338 1.472,0.729 2.322,0.904 4.125,0.851 1.197,-0.037 1.636,-0.104 2.474,-0.385 z m -3.552,-0.476 c -0.689,-0.196 -0.842,-0.318 -0.782,-0.627 0.039,-0.199 0.18,-0.228 1.194,-0.247 0.633,-0.011 1.342,-0.038 1.575,-0.06 0.38,-0.034 0.429,-0.009 0.462,0.278 0.031,0.271 -0.035,0.347 -0.453,0.514 -0.719,0.288 -1.328,0.331 -1.996,0.142 z m -2.259,-2.854 c -0.133,-0.134 -0.242,-0.352 -0.242,-0.485 0,-0.337 0.424,-0.728 0.788,-0.728 0.365,0 0.789,0.391 0.789,0.728 0,0.336 -0.424,0.728 -0.789,0.728 -0.166,0 -0.412,-0.11 -0.546,-0.243 z m 4.732,-0.121 c -0.321,-0.32 -0.306,-0.555 0.055,-0.916 0.335,-0.335 0.453,-0.357 0.832,-0.158 0.333,0.175 0.443,0.338 0.445,0.661 0.004,0.597 -0.876,0.869 -1.332,0.413 z m -1.584,-5.884 c 0.408,-2.456 0.791,-2.52 1.203,-0.199 0.135,0.757 0.272,1.404 0.304,1.437 0.114,0.114 0.293,-0.084 0.376,-0.417 0.161,-0.642 0.148,-0.639 2.995,-0.639 3.011,0 2.953,0.022 2.539,-0.915 -0.902,-2.038 -2.972,-3.73 -5.348,-4.37 -1.064,-0.287 -3.184,-0.295 -4.246,-0.016 -2.562,0.673 -4.724,2.532 -5.587,4.805 l -0.237,0.623 2.032,-0.033 2.033,-0.034 0.97,-1.904 c 0.534,-1.048 1.04,-1.974 1.123,-2.057 0.337,-0.337 0.501,0.172 0.885,2.747 0.209,1.4 0.408,2.592 0.443,2.649 0.141,0.229 0.265,-0.174 0.515,-1.677 z" />
    <path
       style="fill:#a0a0a0"
       inkscape:connector-curvature="0"
       id="path19"
       d="m 37.635,354.766 c -0.078,-0.145 -0.126,-1.449 -0.126,-3.397 0,-3.615 -0.089,-3.315 1.195,-4.021 0.41,-0.226 0.746,-0.445 0.746,-0.487 0,-0.043 -0.223,-0.232 -0.496,-0.421 -1.414,-0.98 -2.77,-2.995 -3.217,-4.781 -0.277,-1.106 -0.185,-3.288 0.185,-4.37 1.421,-4.161 6.033,-6.679 10.539,-5.752 2.939,0.604 5.272,2.436 6.452,5.068 0.498,1.11 0.666,1.944 0.663,3.292 -0.006,2.424 -1.107,4.678 -3.056,6.259 -0.35,0.284 -0.637,0.559 -0.637,0.611 0,0.053 0.259,0.243 0.576,0.424 1.212,0.69 1.122,0.358 1.122,4.167 0,2.445 -0.039,3.39 -0.145,3.497 -0.11,0.109 -1.811,0.145 -6.911,0.145 -6.564,0 -6.768,-0.008 -6.89,-0.235 z m 6.572,-1.846 c 0.028,-0.991 0.074,-1.255 0.237,-1.357 0.147,-0.092 0.255,-0.083 0.394,0.033 0.152,0.126 0.192,0.413 0.192,1.358 v 1.198 h 2.794 c 2.374,0 2.805,-0.026 2.864,-0.182 0.164,-0.426 -0.116,-0.755 -1.442,-1.701 -1.11,-0.791 -1.365,-1.029 -1.365,-1.274 0,-0.237 0.07,-0.308 0.334,-0.339 l 0.334,-0.038 v -1 c 0,-1.132 0.155,-1.493 0.585,-1.356 0.251,0.079 0.264,0.153 0.266,1.501 0.001,0.779 0.042,1.474 0.091,1.545 0.147,0.211 0.951,0.782 1.101,0.782 0.1,0 0.14,-0.52 0.14,-1.801 0,-2.043 0.062,-1.902 -1.132,-2.569 l -0.708,-0.396 -1.232,0.412 c -1.197,0.399 -1.29,0.411 -3.175,0.411 -1.864,0 -1.983,-0.016 -2.996,-0.377 l -1.054,-0.377 -0.977,0.551 -0.978,0.552 v 1.857 c 0,1.022 0.031,1.858 0.069,1.858 0.038,0 0.311,-0.142 0.607,-0.315 l 0.537,-0.314 0.002,-1.232 c 0.002,-1.579 0.283,-2.203 0.772,-1.714 0.15,0.149 0.196,0.438 0.196,1.211 v 1.014 l 0.4,-0.064 c 0.434,-0.071 0.747,0.159 0.632,0.461 -0.036,0.093 -0.774,0.594 -1.64,1.113 -1.532,0.919 -1.575,0.957 -1.575,1.363 v 0.418 h 2.846 2.847 z m 3.116,-5.993 c 1.931,-0.647 3.633,-2.064 4.532,-3.775 0.59,-1.123 0.818,-2.049 0.816,-3.311 -0.002,-1.743 0.283,-1.582 -2.795,-1.582 -1.985,0 -2.672,0.038 -2.746,0.152 -0.054,0.083 -0.263,0.588 -0.465,1.121 -0.526,1.39 -0.684,1.347 -0.974,-0.267 -0.343,-1.905 -0.509,-1.805 -0.928,0.562 -0.325,1.834 -0.466,2.241 -0.692,2.005 -0.061,-0.063 -0.309,-1.48 -0.55,-3.148 -0.52,-3.598 -0.516,-3.579 -0.709,-3.579 -0.083,0 -0.519,0.737 -0.967,1.638 l -0.817,1.638 h -2.237 -2.237 l -0.085,0.562 c -0.322,2.147 0.665,4.715 2.423,6.308 0.871,0.788 2.571,1.671 3.712,1.926 1.285,0.288 3.456,0.173 4.719,-0.25 z m -3.552,-0.476 c -0.689,-0.196 -0.842,-0.318 -0.782,-0.627 0.039,-0.199 0.18,-0.228 1.194,-0.247 0.633,-0.011 1.342,-0.038 1.575,-0.06 0.38,-0.034 0.429,-0.009 0.462,0.278 0.031,0.271 -0.035,0.347 -0.453,0.514 -0.719,0.288 -1.328,0.331 -1.996,0.142 z m -2.259,-2.854 c -0.133,-0.134 -0.242,-0.352 -0.242,-0.485 0,-0.337 0.424,-0.728 0.788,-0.728 0.365,0 0.789,0.391 0.789,0.728 0,0.336 -0.424,0.728 -0.789,0.728 -0.166,0 -0.412,-0.11 -0.546,-0.243 z m 4.732,-0.121 c -0.321,-0.32 -0.306,-0.555 0.055,-0.916 0.335,-0.335 0.453,-0.357 0.832,-0.158 0.333,0.175 0.443,0.338 0.445,0.661 0.004,0.597 -0.876,0.869 -1.332,0.413 z m -1.51,-5.643 c 0.291,-1.664 0.459,-2.135 0.68,-1.904 0.045,0.047 0.209,0.796 0.365,1.663 0.32,1.786 0.472,1.954 0.851,0.94 l 0.237,-0.637 h 2.714 c 1.493,0 2.741,-0.043 2.773,-0.096 0.111,-0.178 -0.491,-1.456 -1.064,-2.258 -1.001,-1.404 -2.726,-2.557 -4.561,-3.052 -1.064,-0.287 -3.184,-0.295 -4.246,-0.016 -1.492,0.392 -2.75,1.113 -3.833,2.196 -0.931,0.932 -1.649,2.075 -1.93,3.075 l -0.076,0.273 1.979,-10e-4 c 1.089,-0.001 2.041,-0.042 2.116,-0.091 0.076,-0.049 0.581,-0.977 1.123,-2.061 0.925,-1.849 1.116,-2.128 1.279,-1.865 0.036,0.059 0.234,1.273 0.439,2.699 0.383,2.657 0.526,3.263 0.724,3.065 0.062,-0.062 0.255,-0.929 0.429,-1.929 z" />
    <path
       style="fill:#179cfd"
       inkscape:connector-curvature="0"
       id="path21"
       d="m 37.695,354.688 c -0.128,-0.335 -0.083,-6.237 0.05,-6.485 0.067,-0.127 0.504,-0.453 0.97,-0.725 0.466,-0.272 0.847,-0.545 0.847,-0.607 0,-0.062 -0.31,-0.346 -0.689,-0.632 -1.386,-1.044 -2.563,-2.825 -3.002,-4.54 -0.243,-0.947 -0.246,-2.806 -0.007,-3.748 0.1,-0.398 0.41,-1.187 0.687,-1.754 0.404,-0.824 0.714,-1.24 1.546,-2.073 0.864,-0.864 1.237,-1.137 2.194,-1.607 1.659,-0.815 2.42,-0.989 4.306,-0.982 1.109,0.003 1.804,0.068 2.345,0.216 4.402,1.211 7.145,5.247 6.401,9.42 -0.341,1.915 -1.707,4.103 -3.215,5.147 -0.273,0.189 -0.497,0.389 -0.497,0.444 0,0.055 0.382,0.322 0.848,0.595 0.541,0.316 0.872,0.592 0.914,0.763 0.036,0.148 0.05,1.715 0.031,3.483 l -0.034,3.215 -6.81,0.03 c -6.132,0.029 -6.818,0.011 -6.885,-0.161 z m 6.598,-1.75 c 0.056,-1.173 0.08,-1.274 0.304,-1.274 0.223,0 0.247,0.101 0.303,1.274 l 0.061,1.274 h 2.909 c 2.723,0 2.913,-0.016 2.953,-0.222 0.102,-0.53 -0.121,-0.801 -1.429,-1.737 -0.732,-0.524 -1.361,-1.026 -1.397,-1.115 -0.098,-0.244 0.036,-0.384 0.367,-0.384 0.292,0 0.297,-0.015 0.297,-1.077 0,-0.794 0.046,-1.115 0.176,-1.223 0.341,-0.283 0.43,-0.008 0.43,1.327 0,0.725 0.033,1.403 0.073,1.508 0.104,0.272 1.232,1.075 1.38,0.983 0.189,-0.116 0.163,-3.727 -0.027,-3.966 -0.084,-0.105 -0.504,-0.392 -0.934,-0.64 -0.878,-0.505 -0.915,-0.505 -2.312,0.016 -0.853,0.316 -1.03,0.338 -2.85,0.341 -1.881,0.003 -1.976,-0.008 -3.068,-0.39 l -1.126,-0.393 -0.973,0.565 c -0.535,0.311 -1.024,0.662 -1.087,0.78 -0.064,0.118 -0.115,0.984 -0.115,1.925 0,1.372 0.034,1.723 0.174,1.776 0.216,0.083 1.245,-0.507 1.406,-0.807 0.065,-0.122 0.118,-0.795 0.118,-1.496 0,-1.318 0.124,-1.66 0.443,-1.224 0.106,0.145 0.164,0.578 0.164,1.233 v 1.01 l 0.496,-0.079 c 0.469,-0.075 0.493,-0.064 0.455,0.205 -0.032,0.221 -0.387,0.489 -1.58,1.191 -1.576,0.927 -1.792,1.158 -1.612,1.725 0.072,0.225 0.2,0.233 3.008,0.202 l 2.933,-0.033 z m 2.972,-5.863 c 2.435,-0.797 4.358,-2.617 5.174,-4.895 0.264,-0.738 0.451,-3.001 0.298,-3.609 l -0.078,-0.312 h -2.72 c -2.043,0 -2.744,0.038 -2.818,0.152 -0.054,0.083 -0.263,0.588 -0.465,1.121 -0.526,1.39 -0.684,1.347 -0.975,-0.267 -0.343,-1.905 -0.508,-1.805 -0.928,0.562 -0.325,1.834 -0.465,2.241 -0.692,2.005 -0.061,-0.063 -0.308,-1.48 -0.549,-3.148 -0.52,-3.598 -0.516,-3.579 -0.709,-3.579 -0.083,0 -0.519,0.737 -0.968,1.638 l -0.816,1.638 h -2.241 c -2.616,0 -2.491,-0.069 -2.491,1.367 0,1.107 0.351,2.527 0.87,3.523 0.584,1.12 2.215,2.696 3.385,3.271 1.509,0.742 2.468,0.945 4.237,0.894 1.228,-0.033 1.7,-0.103 2.486,-0.361 z m -3.336,-0.707 c -0.658,-0.148 -0.968,-0.396 -0.756,-0.608 0.105,-0.105 0.319,-0.111 0.805,-0.022 0.491,0.089 0.825,0.079 1.289,-0.04 0.663,-0.169 0.846,-0.136 0.846,0.157 0,0.397 -1.318,0.707 -2.184,0.513 z m -2.346,-2.872 c -0.261,-0.288 -0.255,-0.541 0.021,-0.79 0.32,-0.29 0.712,-0.247 0.942,0.102 0.184,0.281 0.184,0.326 0,0.607 -0.237,0.36 -0.677,0.397 -0.963,0.081 z m 4.706,-0.194 c -0.373,-0.57 0.273,-1.129 0.861,-0.744 0.34,0.223 0.384,0.571 0.107,0.848 -0.286,0.286 -0.745,0.237 -0.968,-0.104 z m -1.565,-5.469 c 0.291,-1.664 0.46,-2.135 0.681,-1.904 0.045,0.047 0.209,0.796 0.364,1.663 0.321,1.785 0.473,1.954 0.85,0.942 l 0.237,-0.634 2.752,-0.034 c 3.237,-0.038 3.138,0.023 2.372,-1.455 -0.591,-1.139 -1.975,-2.548 -3.136,-3.194 -4.176,-2.321 -9.584,-0.849 -11.679,3.18 -0.283,0.544 -0.514,1.13 -0.514,1.304 v 0.315 l 1.971,-0.002 c 1.084,0 2.033,-0.042 2.108,-0.091 0.075,-0.049 0.581,-0.976 1.123,-2.06 0.925,-1.85 1.116,-2.128 1.279,-1.865 0.036,0.058 0.233,1.273 0.439,2.699 0.383,2.656 0.526,3.263 0.724,3.064 0.061,-0.061 0.254,-0.929 0.429,-1.928 z" />
    <path
       style="fill:#050505"
       inkscape:connector-curvature="0"
       id="path23"
       d="m 37.695,354.688 c -0.128,-0.335 -0.083,-6.237 0.05,-6.485 0.067,-0.127 0.504,-0.453 0.97,-0.725 0.466,-0.272 0.847,-0.545 0.847,-0.607 0,-0.062 -0.31,-0.346 -0.689,-0.632 -1.386,-1.044 -2.563,-2.825 -3.002,-4.54 -0.243,-0.947 -0.246,-2.806 -0.007,-3.748 0.1,-0.398 0.41,-1.187 0.687,-1.754 0.404,-0.824 0.714,-1.24 1.546,-2.073 0.864,-0.864 1.237,-1.137 2.194,-1.607 1.659,-0.815 2.42,-0.989 4.306,-0.982 1.109,0.003 1.804,0.068 2.345,0.216 4.402,1.211 7.145,5.247 6.401,9.42 -0.341,1.915 -1.707,4.103 -3.215,5.147 -0.273,0.189 -0.497,0.389 -0.497,0.444 0,0.055 0.382,0.322 0.848,0.595 0.541,0.316 0.872,0.592 0.914,0.763 0.036,0.148 0.05,1.715 0.031,3.483 l -0.034,3.215 -6.81,0.03 c -6.132,0.029 -6.818,0.011 -6.885,-0.161 z m 6.598,-1.75 c 0.056,-1.173 0.08,-1.274 0.304,-1.274 0.223,0 0.247,0.101 0.303,1.274 l 0.061,1.274 h 2.909 c 2.723,0 2.913,-0.016 2.953,-0.222 0.102,-0.53 -0.121,-0.801 -1.429,-1.737 -0.732,-0.524 -1.361,-1.026 -1.397,-1.115 -0.098,-0.244 0.036,-0.384 0.367,-0.384 0.292,0 0.297,-0.015 0.297,-1.077 0,-0.794 0.046,-1.115 0.176,-1.223 0.341,-0.283 0.43,-0.008 0.43,1.327 0,0.725 0.033,1.403 0.073,1.508 0.104,0.272 1.232,1.075 1.38,0.983 0.189,-0.116 0.163,-3.727 -0.027,-3.966 -0.084,-0.105 -0.504,-0.392 -0.934,-0.64 -0.878,-0.505 -0.915,-0.505 -2.312,0.016 -0.853,0.316 -1.03,0.338 -2.85,0.341 -1.881,0.003 -1.976,-0.008 -3.068,-0.39 l -1.126,-0.393 -0.973,0.565 c -0.535,0.311 -1.024,0.662 -1.087,0.78 -0.064,0.118 -0.115,0.984 -0.115,1.925 0,1.372 0.034,1.723 0.174,1.776 0.216,0.083 1.245,-0.507 1.406,-0.807 0.065,-0.122 0.118,-0.795 0.118,-1.496 0,-1.318 0.124,-1.66 0.443,-1.224 0.106,0.145 0.164,0.578 0.164,1.233 v 1.01 l 0.496,-0.079 c 0.469,-0.075 0.493,-0.064 0.455,0.205 -0.032,0.221 -0.387,0.489 -1.58,1.191 -1.576,0.927 -1.792,1.158 -1.612,1.725 0.072,0.225 0.2,0.233 3.008,0.202 l 2.933,-0.033 z m 2.972,-5.863 c 2.474,-0.81 4.446,-2.715 5.234,-5.055 0.293,-0.871 0.305,-3.256 0.021,-4.264 -0.49,-1.744 -1.999,-3.606 -3.676,-4.538 -3.408,-1.894 -7.698,-1.319 -10.374,1.391 -2.247,2.277 -2.789,5.66 -1.368,8.533 0.611,1.235 2.169,2.775 3.44,3.4 1.51,0.742 2.468,0.944 4.237,0.894 1.228,-0.033 1.701,-0.104 2.486,-0.361 z m -3.336,-0.707 c -0.658,-0.148 -0.968,-0.396 -0.756,-0.608 0.105,-0.105 0.319,-0.111 0.805,-0.022 0.491,0.089 0.825,0.079 1.289,-0.04 0.663,-0.169 0.846,-0.136 0.846,0.157 0,0.397 -1.318,0.707 -2.184,0.513 z m -2.346,-2.872 c -0.261,-0.288 -0.255,-0.541 0.021,-0.79 0.32,-0.29 0.712,-0.247 0.942,0.102 0.184,0.281 0.184,0.326 0,0.607 -0.237,0.36 -0.677,0.397 -0.963,0.081 z m 4.706,-0.194 c -0.373,-0.57 0.273,-1.129 0.861,-0.744 0.34,0.223 0.384,0.571 0.107,0.848 -0.286,0.286 -0.745,0.237 -0.968,-0.104 z" />
  </g>
  <g
     inkscape:groupmode="layer"
     id="layer1"
     inkscape:label="widgets"
     style="display:none">
    <rect
       style="fill:#00ff00;fill-opacity:1;stroke:none;stroke-width:2.09075;stroke-miterlimit:4;stroke-dasharray:none;stroke-opacity:1"
       id="CLOCK"
       width="32"
       height="32"
       x="17.013702"
       y="40.085506"
       inkscape:label="#rect1279" />
    <rect
       style="fill:#00ff00;fill-opacity:1;stroke:none;stroke-width:0.980038;stroke-miterlimit:4;stroke-dasharray:none;stroke-opacity:1"
       id="ROT_RIGHT"
       width="15"
       height="15"
       x="61.344215"
       y="176.88031"
       inkscape:label="#rect1305" />
    <rect
       y="54.189999"
       x="559.08063"
       height="15"
       width="15"
       id="VOCT_1"
       style="fill:#0000ff;fill-opacity:1;stroke:none;stroke-width:0.980038;stroke-miterlimit:4;stroke-dasharray:none;stroke-opacity:1"
       inkscape:label="#rect1317" />
    <rect
       style="isolation:isolate;fill:#000000;fill-opacity:1;stroke:none;stroke-width:1.88735;stroke-miterlimit:4;stroke-dasharray:none;stroke-opacity:1"
       id="rect823"
       width="376"
       height="492.22223"
       x="172"
       y="-40" />
    <g
       aria-label="TODO  REMOVE"
       style="font-style:normal;font-variant:normal;font-weight:normal;font-stretch:normal;font-size:40px;line-height:1.25;font-family:monospace;-inkscape-font-specification:'monospace, Normal';font-variant-ligatures:normal;font-variant-caps:normal;font-variant-numeric:normal;font-feature-settings:normal;text-align:center;letter-spacing:0px;word-spacing:0px;writing-mode:lr-tb;text-anchor:middle;isolation:isolate;fill:#ff0000;fill-opacity:1;stroke:none"
       id="text827">
      <path
         d="m 315.0152,159.72873 h 22.24609 v 3.32031 h -9.12109 v 25.83985 h -3.96485 v -25.83985 h -9.16015 z"
         id="path1257"
         inkscape:connector-curvature="0" />
      <path
         d="m 355.83551,174.3381 q 0,-6.42578 -1.32812,-9.17968 -1.3086,-2.75391 -4.31641,-2.75391 -2.98828,0 -4.31641,2.75391 -1.30859,2.7539 -1.30859,9.17968 0,6.40625 1.30859,9.16016 1.32813,2.75391 4.31641,2.75391 3.00781,0 4.31641,-2.73438 1.32812,-2.7539 1.32812,-9.17969 z m 4.12109,0 q 0,7.61719 -2.42187,11.36719 -2.40234,3.75 -7.34375,3.75 -4.94141,0 -7.34375,-3.73047 -2.40234,-3.73047 -2.40234,-11.38672 0,-7.63671 2.40234,-11.38671 2.42187,-3.75 7.34375,-3.75 4.94141,0 7.34375,3.75 2.42187,3.75 2.42187,11.38671 z"
         id="path1259"
         inkscape:connector-curvature="0" />
      <path
         d="m 370.73785,185.6467 q 4.98047,0 6.95313,-2.44141 1.97266,-2.46094 1.97266,-8.86719 0,-6.46484 -1.97266,-8.90625 -1.95313,-2.46093 -6.95313,-2.46093 h -1.875 v 22.67578 z m 0.0781,-25.91797 q 6.67969,0 9.84375,3.55469 3.16406,3.55468 3.16406,11.05468 0,7.46094 -3.16406,11.01563 -3.16406,3.53516 -9.84375,3.53516 h -5.91797 v -29.16016 z"
         id="path1261"
         inkscape:connector-curvature="0" />
      <path
         d="m 403.96051,174.3381 q 0,-6.42578 -1.32812,-9.17968 -1.3086,-2.75391 -4.31641,-2.75391 -2.98828,0 -4.31641,2.75391 -1.30859,2.7539 -1.30859,9.17968 0,6.40625 1.30859,9.16016 1.32813,2.75391 4.31641,2.75391 3.00781,0 4.31641,-2.73438 1.32812,-2.7539 1.32812,-9.17969 z m 4.12109,0 q 0,7.61719 -2.42187,11.36719 -2.40234,3.75 -7.34375,3.75 -4.94141,0 -7.34375,-3.73047 -2.40234,-3.73047 -2.40234,-11.38672 0,-7.63671 2.40234,-11.38671 2.42187,-3.75 7.34375,-3.75 4.94141,0 7.34375,3.75 2.42187,3.75 2.42187,11.38671 z"
         id="path1263"
         inkscape:connector-curvature="0" />
      <path
         d="m 304.87848,225.11935 q 1.52344,0.39063 2.59766,1.48438 1.07421,1.07422 2.67578,4.31641 l 3.96484,7.96875 h -4.23828 l -3.47656,-7.36329 q -1.50391,-3.14453 -2.71485,-4.04296 -1.1914,-0.91797 -3.125,-0.91797 h -3.76953 v 12.32422 h -3.96484 v -29.16016 h 8.125 q 4.80469,0 7.36328,2.16797 2.55859,2.16797 2.55859,6.26953 0,2.89062 -1.58203,4.72656 -1.5625,1.81641 -4.41406,2.22656 z m -8.08594,-12.14843 v 10.35156 h 4.31641 q 2.83203,0 4.21875,-1.26953 1.38672,-1.26953 1.38672,-3.88672 0,-2.51953 -1.48438,-3.84766 -1.46484,-1.34765 -4.27734,-1.34765 z"
         id="path1265"
         inkscape:connector-curvature="0" />
      <path
         d="m 317.94489,209.72873 h 17.30468 v 3.32031 H 321.8902 v 8.63281 h 12.77344 v 3.32032 H 321.8902 v 10.5664 h 13.73047 v 3.32032 h -17.67578 z"
         id="path1267"
         inkscape:connector-curvature="0" />
      <path
         d="m 339.83942,209.72873 h 5.27343 l 5.03907,14.84375 5.07812,-14.84375 h 5.29297 v 29.16016 h -3.65234 v -25.76172 l -5.19532,15.37109 h -2.98828 l -5.21484,-15.37109 v 25.76172 h -3.63281 z"
         id="path1269"
         inkscape:connector-curvature="0" />
      <path
         d="m 379.89801,224.3381 q 0,-6.42578 -1.32812,-9.17968 -1.3086,-2.75391 -4.31641,-2.75391 -2.98828,0 -4.31641,2.75391 -1.30859,2.7539 -1.30859,9.17968 0,6.40625 1.30859,9.16016 1.32813,2.75391 4.31641,2.75391 3.00781,0 4.31641,-2.73438 1.32812,-2.7539 1.32812,-9.17969 z m 4.12109,0 q 0,7.61719 -2.42187,11.36719 -2.40234,3.75 -7.34375,3.75 -4.94141,0 -7.34375,-3.73047 -2.40234,-3.73047 -2.40234,-11.38672 0,-7.63671 2.40234,-11.38671 2.42187,-3.75 7.34375,-3.75 4.94141,0 7.34375,3.75 2.42187,3.75 2.42187,11.38671 z"
         id="path1271"
         inkscape:connector-curvature="0" />
      <path
         d="m 398.31598,235.56857 6.85547,-25.83984 h 4.08203 l -8.53516,29.16016 h -4.78515 l -8.53516,-29.16016 h 4.08203 z"
         id="path1273"
         inkscape:connector-curvature="0" />
      <path
         d="m 414.19489,209.72873 h 17.30468 v 3.32031 H 418.1402 v 8.63281 h 12.77344 v 3.32032 H 418.1402 v 10.5664 h 13.73047 v 3.32032 h -17.67578 z"
         id="path1275"
         inkscape:connector-curvature="0" />
    </g>
    <rect
       style="fill:#0000ff;fill-opacity:1;stroke:none;stroke-width:0.980038;stroke-miterlimit:4;stroke-dasharray:none;stroke-opacity:1"
       id="VOCT_2"
       width="15"
       height="15"
       x="559.08063"
       y="78.665947"
       inkscape:label="#rect1333" />
    <rect
       y="103.14216"
       x="559.08063"
       height="15"
       width="15"
       id="VOCT_3"
       style="fill:#0000ff;fill-opacity:1;stroke:none;stroke-width:0.980038;stroke-miterlimit:4;stroke-dasharray:none;stroke-opacity:1"
       inkscape:label="#rect1337" />
    <rect
       style="fill:#0000ff;fill-opacity:1;stroke:none;stroke-width:0.980038;stroke-miterlimit:4;stroke-dasharray:none;stroke-opacity:1"
       id="VOCT_4"
       width="15"
       height="15"
       x="559.08063"
       y="127.61829"
       inkscape:label="#rect1341" />
    <rect
       y="152.09445"
       x="559.08063"
       height="15"
       width="15"
       id="VOCT_5"
       style="fill:#0000ff;fill-opacity:1;stroke:none;stroke-width:0.980038;stroke-miterlimit:4;stroke-dasharray:none;stroke-opacity:1"
       inkscape:label="#rect1345" />
    <rect
       style="fill:#0000ff;fill-opacity:1;stroke:none;stroke-width:0.980038;stroke-miterlimit:4;stroke-dasharray:none;stroke-opacity:1"
       id="VOCT_6"
       width="15"
       height="15"
       x="559.08063"
       y="176.5706"
       inkscape:label="#rect1349" />
    <rect
       y="201.04675"
       x="559.08063"
       height="15"
       width="15"
       id="VOCT_7"
       style="fill:#0000ff;fill-opacity:1;stroke:none;stroke-width:0.980038;stroke-miterlimit:4;stroke-dasharray:none;stroke-opacity:1"
       inkscape:label="#rect1351" />
    <rect
       style="fill:#0000ff;fill-opacity:1;stroke:none;stroke-width:0.980038;stroke-miterlimit:4;stroke-dasharray:none;stroke-opacity:1"
       id="VOCT_8"
       width="15"
       height="15"
       x="559.08063"
       y="225.52292"
       inkscape:label="#rect1353" />
    <rect
       y="249.99908"
       x="559.08063"
       height="15"
       width="15"
       id="VOCT_9"
       style="fill:#0000ff;fill-opacity:1;stroke:none;stroke-width:0.980038;stroke-miterlimit:4;stroke-dasharray:none;stroke-opacity:1"
       inkscape:label="#rect1355" />
    <rect
       style="fill:#0000ff;fill-opacity:1;stroke:none;stroke-width:0.980038;stroke-miterlimit:4;stroke-dasharray:none;stroke-opacity:1"
       id="VOCT_10"
       width="15"
       height="15"
       x="559.08063"
       y="274.47522"
       inkscape:label="#rect1357" />
    <rect
       style="fill:#0000ff;fill-opacity:1;stroke:none;stroke-width:0.980038;stroke-miterlimit:4;stroke-dasharray:none;stroke-opacity:1"
       id="GATE_1"
       width="15"
       height="15"
       x="591.8584"
       y="54.189823"
       inkscape:label="#rect1369" />
    <rect
       y="78.665947"
       x="591.8584"
       height="15"
       width="15"
       id="GATE_2"
       style="fill:#0000ff;fill-opacity:1;stroke:none;stroke-width:0.980038;stroke-miterlimit:4;stroke-dasharray:none;stroke-opacity:1"
       inkscape:label="#rect1371" />
    <rect
       style="fill:#0000ff;fill-opacity:1;stroke:none;stroke-width:0.980038;stroke-miterlimit:4;stroke-dasharray:none;stroke-opacity:1"
       id="GATE_3"
       width="15"
       height="15"
       x="591.8584"
       y="103.14216"
       inkscape:label="#rect1373" />
    <rect
       y="127.61829"
       x="591.8584"
       height="15"
       width="15"
       id="GATE_4"
       style="fill:#0000ff;fill-opacity:1;stroke:none;stroke-width:0.980038;stroke-miterlimit:4;stroke-dasharray:none;stroke-opacity:1"
       inkscape:label="#rect1375" />
    <rect
       style="fill:#0000ff;fill-opacity:1;stroke:none;stroke-width:0.980038;stroke-miterlimit:4;stroke-dasharray:none;stroke-opacity:1"
       id="GATE_5"
       width="15"
       height="15"
       x="591.8584"
       y="152.09445"
       inkscape:label="#rect1377" />
    <rect
       y="176.5706"
       x="591.8584"
       height="15"
       width="15"
       id="GATE_6"
       style="fill:#0000ff;fill-opacity:1;stroke:none;stroke-width:0.980038;stroke-miterlimit:4;stroke-dasharray:none;stroke-opacity:1"
       inkscape:label="#rect1379" />
    <rect
       style="fill:#0000ff;fill-opacity:1;stroke:none;stroke-width:0.980038;stroke-miterlimit:4;stroke-dasharray:none;stroke-opacity:1"
       id="GATE_7"
       width="15"
       height="15"
       x="591.8584"
       y="201.04675"
       inkscape:label="#rect1381" />
    <rect
       y="225.52292"
       x="591.8584"
       height="15"
       width="15"
       id="GATE_8"
       style="fill:#0000ff;fill-opacity:1;stroke:none;stroke-width:0.980038;stroke-miterlimit:4;stroke-dasharray:none;stroke-opacity:1"
       inkscape:label="#rect1383" />
    <rect
       style="fill:#0000ff;fill-opacity:1;stroke:none;stroke-width:0.980038;stroke-miterlimit:4;stroke-dasharray:none;stroke-opacity:1"
       id="GATE_9"
       width="15"
       height="15"
       x="591.8584"
       y="249.99908"
       inkscape:label="#rect1385" />
    <rect
       y="274.47522"
       x="591.8584"
       height="15"
       width="15"
       id="GATE_10"
       style="fill:#0000ff;fill-opacity:1;stroke:none;stroke-width:0.980038;stroke-miterlimit:4;stroke-dasharray:none;stroke-opacity:1"
       inkscape:label="#rect1387" />
    <rect
       style="fill:#0000ff;fill-opacity:1;stroke:none;stroke-width:0.980038;stroke-miterlimit:4;stroke-dasharray:none;stroke-opacity:1"
       id="MIN_VOCT"
       width="15"
       height="15"
       x="656.30286"
       y="54.74538"
       inkscape:label="#rect1423" />
    <rect
       y="79.221504"
       x="656.30286"
       height="15"
       width="15"
       id="MID_VOCT"
       style="fill:#0000ff;fill-opacity:1;stroke:none;stroke-width:0.980038;stroke-miterlimit:4;stroke-dasharray:none;stroke-opacity:1"
       inkscape:label="#rect1425" />
    <rect
       style="fill:#0000ff;fill-opacity:1;stroke:none;stroke-width:0.980038;stroke-miterlimit:4;stroke-dasharray:none;stroke-opacity:1"
       id="MAX_VOCT"
       width="15"
       height="15"
       x="656.30286"
       y="103.69772"
       inkscape:label="#rect1427" />
    <rect
       y="128.17386"
       x="656.30286"
       height="15"
       width="15"
       id="RND_VOCT"
       style="fill:#0000ff;fill-opacity:1;stroke:none;stroke-width:0.980038;stroke-miterlimit:4;stroke-dasharray:none;stroke-opacity:1"
       inkscape:label="#rect1429" />
    <rect
       y="54.74538"
       x="689.08063"
       height="15"
       width="15"
       id="MIN_GATE"
       style="fill:#0000ff;fill-opacity:1;stroke:none;stroke-width:0.980038;stroke-miterlimit:4;stroke-dasharray:none;stroke-opacity:1"
       inkscape:label="#rect1431" />
    <rect
       style="fill:#0000ff;fill-opacity:1;stroke:none;stroke-width:0.980038;stroke-miterlimit:4;stroke-dasharray:none;stroke-opacity:1"
       id="MID_GATE"
       width="15"
       height="15"
       x="689.08063"
       y="79.221504"
       inkscape:label="#rect1433" />
    <rect
       y="103.69772"
       x="689.08063"
       height="15"
       width="15"
       id="MAX_GATE"
       style="fill:#0000ff;fill-opacity:1;stroke:none;stroke-width:0.980038;stroke-miterlimit:4;stroke-dasharray:none;stroke-opacity:1"
       inkscape:label="#rect1435" />
    <rect
       style="fill:#0000ff;fill-opacity:1;stroke:none;stroke-width:0.980038;stroke-miterlimit:4;stroke-dasharray:none;stroke-opacity:1"
       id="RND_GATE"
       width="15"
       height="15"
       x="689.08063"
       y="128.17386"
       inkscape:label="#rect1437" />
    <rect
       y="43.085506"
       x="71.854126"
       height="26"
       width="26"
       id="STEP_BTN"
       style="fill:#ff0000;fill-opacity:1;stroke:none;stroke-width:1.69873;stroke-miterlimit:4;stroke-dasharray:none;stroke-opacity:1"
       inkscape:label="#rect1439" />
    <rect
       style="fill:#ff0000;fill-opacity:1;stroke:none;stroke-width:1.69873;stroke-miterlimit:4;stroke-dasharray:none;stroke-opacity:1"
       id="PLAY_MODE_KNOB"
       width="26"
       height="26"
       x="123.4553"
       y="43.085506"
       inkscape:label="#rect1441" />
    <rect
       y="336.88031"
       x="126.41925"
       height="15"
       width="15"
       id="ONE_PER_COL_SWITCH"
       style="fill:#ff0000;fill-opacity:1;stroke:none;stroke-width:0.980038;stroke-miterlimit:4;stroke-dasharray:none;stroke-opacity:1"
       inkscape:label="#rect1447" />
    <rect
       style="fill:#ff0000;fill-opacity:1;stroke:none;stroke-width:0.980038;stroke-miterlimit:4;stroke-dasharray:none;stroke-opacity:1"
       id="ROT_RIGHT_BTN"
       width="15"
       height="15"
       x="82.564194"
       y="176.88031"
       inkscape:label="#rect1449" />
    <rect
       style="fill:#ff0000;fill-opacity:1;stroke:none;stroke-width:1.69873;stroke-miterlimit:4;stroke-dasharray:none;stroke-opacity:1"
       id="LOW_MID_HIGH_SWITCH"
       width="26"
       height="26"
       x="556.33563"
       y="335.53592"
       inkscape:label="#rect1465" />
    <rect
       y="335.53592"
       x="599.12952"
       height="26"
       width="26"
       id="SCALE_KNOB"
       style="fill:#ff0000;fill-opacity:1;stroke:none;stroke-width:1.69873;stroke-miterlimit:4;stroke-dasharray:none;stroke-opacity:1"
       inkscape:label="#rect1467" />
    <rect
       style="fill:#ff0000;fill-opacity:1;stroke:none;stroke-width:1.69873;stroke-miterlimit:4;stroke-dasharray:none;stroke-opacity:1"
       id="NOTE_KNOB"
       width="26"
       height="26"
       x="641.92346"
       y="335.53592"
       inkscape:label="#rect1469" />
    <rect
       y="335.53592"
       x="684.71735"
       height="26"
       width="26"
       id="OCTAVE_KNOB"
       style="fill:#ff0000;fill-opacity:1;stroke:none;stroke-width:1.69873;stroke-miterlimit:4;stroke-dasharray:none;stroke-opacity:1"
       inkscape:label="#rect1471" />
    <rect
       y="176.88031"
       x="116.34422"
       height="15"
       width="15"
       id="ROT_LEFT"
       style="fill:#00ff00;fill-opacity:1;stroke:none;stroke-width:0.980038;stroke-miterlimit:4;stroke-dasharray:none;stroke-opacity:1"
       inkscape:label="#rect1473" />
    <rect
       y="176.88031"
       x="137.56419"
       height="15"
       width="15"
       id="ROT_LEFT_BTN"
       style="fill:#ff0000;fill-opacity:1;stroke:none;stroke-width:0.980038;stroke-miterlimit:4;stroke-dasharray:none;stroke-opacity:1"
       inkscape:label="#rect1475" />
    <rect
       y="196.09796"
       x="61.344215"
       height="15"
       width="15"
       id="FLIP_RIGHT"
       style="fill:#00ff00;fill-opacity:1;stroke:none;stroke-width:0.980038;stroke-miterlimit:4;stroke-dasharray:none;stroke-opacity:1"
       inkscape:label="#rect1477" />
    <rect
       y="196.09796"
       x="82.564194"
       height="15"
       width="15"
       id="FLIP_RIGHT_BTN"
       style="fill:#ff0000;fill-opacity:1;stroke:none;stroke-width:0.980038;stroke-miterlimit:4;stroke-dasharray:none;stroke-opacity:1"
       inkscape:label="#rect1479" />
    <rect
       style="fill:#00ff00;fill-opacity:1;stroke:none;stroke-width:0.980038;stroke-miterlimit:4;stroke-dasharray:none;stroke-opacity:1"
       id="FLIP_LEFT"
       width="15"
       height="15"
       x="116.34422"
       y="196.09796"
       inkscape:label="#rect1481" />
    <rect
       style="fill:#ff0000;fill-opacity:1;stroke:none;stroke-width:0.980038;stroke-miterlimit:4;stroke-dasharray:none;stroke-opacity:1"
       id="FLIP_LEFT_BTN"
       width="15"
       height="15"
       x="137.56419"
       y="196.09796"
       inkscape:label="#rect1483" />
    <rect
       style="fill:#00ff00;fill-opacity:1;stroke:none;stroke-width:0.980038;stroke-miterlimit:4;stroke-dasharray:none;stroke-opacity:1"
       id="FLIP_UP"
       width="15"
       height="15"
       x="61.344215"
       y="235.98683"
       inkscape:label="#rect1485" />
    <rect
       style="fill:#ff0000;fill-opacity:1;stroke:none;stroke-width:0.980038;stroke-miterlimit:4;stroke-dasharray:none;stroke-opacity:1"
       id="FLIP_UP_BTN"
       width="15"
       height="15"
       x="82.564194"
       y="235.98683"
       inkscape:label="#rect1487" />
    <rect
       y="235.98683"
       x="116.34422"
       height="15"
       width="15"
       id="FLIP_DOWN"
       style="fill:#00ff00;fill-opacity:1;stroke:none;stroke-width:0.980038;stroke-miterlimit:4;stroke-dasharray:none;stroke-opacity:1"
       inkscape:label="#rect1489" />
    <rect
       y="235.98683"
       x="137.56419"
       height="15"
       width="15"
       id="FLIP_DOWN_BTN"
       style="fill:#ff0000;fill-opacity:1;stroke:none;stroke-width:0.980038;stroke-miterlimit:4;stroke-dasharray:none;stroke-opacity:1"
       inkscape:label="#rect1491" />
    <rect
       y="290.20911"
       x="61.344002"
       height="15"
       width="15"
       id="LIFE_MODE"
       style="fill:#00ff00;fill-opacity:1;stroke:none;stroke-width:0.980038;stroke-miterlimit:4;stroke-dasharray:none;stroke-opacity:1"
       inkscape:label="#rect1493" />
    <rect
       y="290.20911"
       x="82.563972"
       height="15"
       width="15"
       id="LIFE_MODE_SWITCH"
       style="fill:#ff0000;fill-opacity:1;stroke:none;stroke-width:0.980038;stroke-miterlimit:4;stroke-dasharray:none;stroke-opacity:1"
       inkscape:label="#rect1495" />
    <rect
       style="fill:#00ff00;fill-opacity:1;stroke:none;stroke-width:0.980038;stroke-miterlimit:4;stroke-dasharray:none;stroke-opacity:1"
       id="LIFE_SPEED"
       width="15"
       height="15"
       x="116.344"
       y="290.20911"
       inkscape:label="#rect1497" />
    <rect
       style="fill:#ff0000;fill-opacity:1;stroke:none;stroke-width:0.980038;stroke-miterlimit:4;stroke-dasharray:none;stroke-opacity:1"
       id="LIFE_SPEED_KNOB"
       width="15"
       height="15"
       x="137.56398"
       y="290.20911"
       inkscape:label="#rect1499" />
    <rect
       y="113.7692"
       x="61.344002"
       height="15"
       width="15"
       id="RND_TRIG"
       style="fill:#00ff00;fill-opacity:1;stroke:none;stroke-width:0.980038;stroke-miterlimit:4;stroke-dasharray:none;stroke-opacity:1"
       inkscape:label="#rect1501" />
    <rect
       y="113.7692"
       x="82.56398"
       height="15"
       width="15"
       id="RND_TRIG_BTN"
       style="fill:#ff0000;fill-opacity:1;stroke:none;stroke-width:0.980038;stroke-miterlimit:4;stroke-dasharray:none;stroke-opacity:1"
       inkscape:label="#rect1503" />
    <rect
       style="fill:#00ff00;fill-opacity:1;stroke:none;stroke-width:0.980038;stroke-miterlimit:4;stroke-dasharray:none;stroke-opacity:1"
       id="RND_AMT"
       width="15"
       height="15"
       x="116.34401"
       y="113.7692"
       inkscape:label="#rect1505" />
    <rect
       style="fill:#ff0000;fill-opacity:1;stroke:none;stroke-width:0.980038;stroke-miterlimit:4;stroke-dasharray:none;stroke-opacity:1"
       id="RND_AMT_KNOB"
       width="15"
       height="15"
       x="137.56398"
       y="113.7692"
       inkscape:label="#rect1507" />
  </g>
  <g
     aria-label="LEN"
     style="font-style:normal;font-variant:normal;font-weight:normal;font-stretch:normal;font-size:9.33333px;line-height:1.25;font-family:monospace;-inkscape-font-specification:monospace;text-align:center;letter-spacing:0px;word-spacing:0px;text-anchor:middle;fill:#000000;fill-opacity:1;stroke:none"
     id="text2798"
     transform="translate(124.25672,-12.481519)">
    <path
       d="m 90.767217,19.642573 h 0.92513 v 6.029297 h 3.285808 v 0.774739 h -4.210938 z"
       id="path2800"
       inkscape:connector-curvature="0"
       style="fill:#000000;fill-opacity:1" />
    <path
       d="m 96.299769,19.642573 h 4.037761 v 0.77474 h -3.117188 v 2.014323 h 2.980468 v 0.774739 h -2.980468 v 2.465495 h 3.203778 v 0.774739 h -4.124351 z"
       id="path2802"
       inkscape:connector-curvature="0"
       style="fill:#000000;fill-opacity:1" />
    <path
       d="m 101.65003,19.642573 h 1.16667 l 2.29687,5.600912 v -5.600912 h 0.88867 v 6.804036 h -1.16666 l -2.29688,-5.600911 v 5.600911 h -0.88867 z"
       id="path2804"
       inkscape:connector-curvature="0"
       style="fill:#000000;fill-opacity:1" />
  </g>
  <g
     aria-label="CLEAR"
     style="font-style:normal;font-variant:normal;font-weight:normal;font-stretch:normal;font-size:9.33333px;line-height:1.25;font-family:monospace;-inkscape-font-specification:monospace;text-align:center;letter-spacing:0px;word-spacing:0px;text-anchor:middle;fill:#000000;fill-opacity:1;stroke:none"
     id="text2818"
     transform="translate(242.65498,-2.9718163)">
    <path
       d="m 40.851269,64.489344 q -0.350911,0.186849 -0.720052,0.277995 -0.369141,0.0957 -0.783854,0.0957 -1.307943,0 -2.032552,-0.92513 -0.720052,-0.92513 -0.720052,-2.602213 0,-1.667969 0.724609,-2.597657 0.729167,-0.934244 2.027995,-0.934244 0.414713,0 0.783854,0.0957 0.369141,0.09115 0.720052,0.277995 v 0.943359 Q 40.51403,58.84286 40.12666,58.697027 q -0.38737,-0.145834 -0.779297,-0.145834 -0.897787,0 -1.344401,0.692709 -0.446615,0.692708 -0.446615,2.091797 0,1.394531 0.446615,2.087239 0.446614,0.692708 1.344401,0.692708 0.401042,0 0.783854,-0.145833 0.38737,-0.145833 0.720052,-0.423828 z"
       id="path2837"
       inkscape:connector-curvature="0"
       style="fill:#000000;fill-opacity:1" />
    <path
       d="m 42.555696,57.926845 h 0.92513 v 6.029296 h 3.285807 v 0.77474 h -4.210937 z"
       id="path2839"
       inkscape:connector-curvature="0"
       style="fill:#000000;fill-opacity:1" />
    <path
       d="m 48.088248,57.926845 h 4.03776 v 0.774739 h -3.117187 v 2.014323 h 2.980468 v 0.774739 h -2.980468 v 2.465495 h 3.203776 v 0.77474 h -4.124349 z"
       id="path2841"
       inkscape:connector-curvature="0"
       style="fill:#000000;fill-opacity:1" />
    <path
       d="m 55.612337,58.738042 -0.970703,3.481771 h 1.941406 z m -0.55599,-0.811197 h 1.116537 l 2.082682,6.804036 H 57.303092 L 56.80179,62.958094 h -2.383464 l -0.492187,1.772787 h -0.952474 z"
       id="path2843"
       inkscape:connector-curvature="0"
       style="fill:#000000;fill-opacity:1" />
    <path
       d="m 61.883169,61.51799 q 0.355469,0.09115 0.60612,0.346354 0.250651,0.250651 0.624349,1.007162 l 0.92513,1.859375 H 63.049836 L 62.238638,63.012782 Q 61.887726,62.279058 61.605174,62.069422 61.327179,61.85523 60.876007,61.85523 H 59.99645 v 2.875651 h -0.92513 v -6.804036 h 1.895833 q 1.121094,0 1.718099,0.505859 0.597005,0.505859 0.597005,1.46289 0,0.67448 -0.36914,1.102865 -0.364584,0.423828 -1.029948,0.519531 z M 59.99645,58.683355 v 2.415364 h 1.007162 q 0.660807,0 0.984375,-0.296224 0.323567,-0.296223 0.323567,-0.906901 0,-0.58789 -0.346354,-0.897786 -0.341797,-0.314453 -0.998047,-0.314453 z"
       id="path2845"
       inkscape:connector-curvature="0"
       style="fill:#000000;fill-opacity:1" />
  </g>
  <g
     aria-label="RESET"
     style="font-style:normal;font-variant:normal;font-weight:normal;font-stretch:normal;font-size:9.33333px;line-height:1.25;font-family:monospace;-inkscape-font-specification:monospace;text-align:center;letter-spacing:0px;word-spacing:0px;text-anchor:middle;fill:#000000;fill-opacity:1;stroke:none"
     id="text2850"
     transform="translate(66.80095,-52.897952)">
    <path
       d="m 22.518228,63.51799 q 0.355469,0.09115 0.60612,0.346354 0.250651,0.250651 0.624349,1.007162 l 0.92513,1.859375 H 23.684895 L 22.873697,65.012782 Q 22.522786,64.279058 22.240233,64.069422 21.962239,63.85523 21.511067,63.85523 H 20.63151 v 2.875651 h -0.925131 v -6.804036 h 1.895834 q 1.121093,0 1.718099,0.505859 0.597005,0.505859 0.597005,1.46289 0,0.67448 -0.369141,1.102865 -0.364583,0.423828 -1.029948,0.519531 z M 20.63151,60.683355 v 2.415364 h 1.007161 q 0.660807,0 0.984375,-0.296224 0.323568,-0.296223 0.323568,-0.906901 0,-0.58789 -0.346354,-0.897786 -0.341797,-0.314453 -0.998047,-0.314453 z"
       id="path2873"
       inkscape:connector-curvature="0"
       style="fill:#000000;fill-opacity:1" />
    <path
       d="m 25.567056,59.926845 h 4.03776 v 0.774739 h -3.117187 v 2.014323 h 2.980469 v 0.774739 h -2.980469 v 2.465495 h 3.203776 v 0.77474 h -4.124349 z"
       id="path2875"
       inkscape:connector-curvature="0"
       style="fill:#000000;fill-opacity:1" />
    <path
       d="m 34.895832,60.159266 v 0.934245 q -0.419271,-0.26888 -0.843099,-0.405599 -0.419271,-0.136719 -0.847656,-0.136719 -0.651693,0 -1.029948,0.305339 -0.378255,0.300781 -0.378255,0.815755 0,0.451172 0.246093,0.688151 0.250651,0.236979 0.929688,0.396485 l 0.483073,0.109375 q 0.957031,0.223307 1.394531,0.701822 0.4375,0.478516 0.4375,1.303386 0,0.970703 -0.601563,1.48112 -0.601562,0.510416 -1.75,0.510416 -0.478515,0 -0.961588,-0.104818 -0.483073,-0.10026 -0.970703,-0.305338 v -0.979818 q 0.524088,0.332683 0.988932,0.48763 0.469401,0.154948 0.943359,0.154948 0.697266,0 1.084636,-0.309895 0.38737,-0.314454 0.38737,-0.875 0,-0.510417 -0.268881,-0.779297 -0.264323,-0.26888 -0.92513,-0.414714 l -0.492187,-0.113932 q -0.947917,-0.214193 -1.376302,-0.647135 -0.428386,-0.432943 -0.428386,-1.16211 0,-0.911458 0.610677,-1.458333 0.615235,-0.551432 1.631511,-0.551432 0.391927,0 0.824869,0.09114 0.432943,0.08659 0.911459,0.264323 z"
       id="path2877"
       inkscape:connector-curvature="0"
       style="fill:#000000;fill-opacity:1" />
    <path
       d="m 36.796223,59.926845 h 4.03776 v 0.774739 h -3.117187 v 2.014323 h 2.980469 v 0.774739 h -2.980469 v 2.465495 h 3.203776 v 0.77474 h -4.124349 z"
       id="path2879"
       inkscape:connector-curvature="0"
       style="fill:#000000;fill-opacity:1" />
    <path
       d="m 41.727211,59.926845 h 5.190756 v 0.774739 h -2.128256 v 6.029297 h -0.92513 v -6.029297 h -2.13737 z"
       id="path2881"
       inkscape:connector-curvature="0"
       style="fill:#000000;fill-opacity:1" />
  </g>
  <g
     aria-label="START"
     style="font-style:normal;font-variant:normal;font-weight:normal;font-stretch:normal;font-size:9.33333px;line-height:1.25;font-family:monospace;-inkscape-font-specification:'monospace, Normal';font-variant-ligatures:normal;font-variant-caps:normal;font-variant-numeric:normal;font-feature-settings:normal;text-align:start;letter-spacing:0px;word-spacing:0px;writing-mode:lr-tb;text-anchor:start;fill:#000000;fill-opacity:1;stroke:none"
     id="text2794"
     transform="translate(100.50029,-18.328284)">
    <path
       d="m 51.359591,25.589599 v 0.934244 q -0.419271,-0.26888 -0.843099,-0.405599 -0.419271,-0.136718 -0.847656,-0.136718 -0.651693,0 -1.029948,0.305338 -0.378255,0.300781 -0.378255,0.815755 0,0.451172 0.246094,0.688151 0.250651,0.23698 0.929687,0.396485 l 0.483073,0.109375 q 0.957031,0.223307 1.394531,0.701823 0.4375,0.478515 0.4375,1.303385 0,0.970703 -0.601562,1.48112 -0.601563,0.510416 -1.75,0.510416 -0.478516,0 -0.961589,-0.104817 -0.483073,-0.100261 -0.970703,-0.305339 V 30.9034 q 0.524089,0.332683 0.988932,0.487631 0.469401,0.154948 0.94336,0.154948 0.697265,0 1.084635,-0.309896 0.38737,-0.314453 0.38737,-0.875 0,-0.510417 -0.26888,-0.779297 -0.264323,-0.26888 -0.925131,-0.414714 L 49.185763,29.05314 q -0.947917,-0.214193 -1.376302,-0.647135 -0.428385,-0.432943 -0.428385,-1.16211 0,-0.911458 0.610677,-1.458333 0.615234,-0.551432 1.63151,-0.551432 0.391927,0 0.82487,0.09115 0.432942,0.08659 0.911458,0.264323 z"
       id="path2796"
       inkscape:connector-curvature="0"
       style="fill:#000000;fill-opacity:1" />
    <path
       d="m 52.576388,25.357177 h 5.190755 v 0.774739 h -2.128255 v 6.029297 h -0.925131 v -6.029297 h -2.137369 z"
       id="path2798"
       inkscape:connector-curvature="0"
       style="fill:#000000;fill-opacity:1" />
    <path
       d="m 60.78407,26.168375 -0.970703,3.48177 h 1.941406 z m -0.55599,-0.811198 h 1.116536 l 2.082683,6.804036 h -0.952474 l -0.501302,-1.772786 h -2.383464 l -0.492187,1.772786 h -0.952474 z"
       id="path2801"
       inkscape:connector-curvature="0"
       style="fill:#000000;fill-opacity:1" />
    <path
       d="m 67.054904,28.948322 q 0.355468,0.09115 0.606119,0.346355 0.250651,0.250651 0.624349,1.007161 l 0.92513,1.859375 H 68.22157 L 67.410372,30.443114 Q 67.059461,29.70939 66.776909,29.499755 66.498914,29.285562 66.047742,29.285562 h -0.879557 v 2.875651 h -0.92513 v -6.804036 h 1.895833 q 1.121094,0 1.718099,0.505859 0.597005,0.505859 0.597005,1.462891 0,0.674479 -0.369141,1.102864 -0.364583,0.423828 -1.029947,0.519531 z m -1.886719,-2.834635 v 2.415365 h 1.007161 q 0.660808,0 0.984375,-0.296224 0.323568,-0.296224 0.323568,-0.906901 0,-0.587891 -0.346354,-0.897787 -0.341797,-0.314453 -0.998047,-0.314453 z"
       id="path2803"
       inkscape:connector-curvature="0"
       style="fill:#000000;fill-opacity:1" />
    <path
       d="m 69.420137,25.357177 h 5.190755 v 0.774739 h -2.128255 v 6.029297 h -0.925131 v -6.029297 h -2.137369 z"
       id="path2805"
       inkscape:connector-curvature="0"
       style="fill:#000000;fill-opacity:1" />
  </g>
  <g
     aria-label="CLK"
     style="font-style:normal;font-variant:normal;font-weight:normal;font-stretch:normal;font-size:9.33333px;line-height:1.25;font-family:monospace;-inkscape-font-specification:'monospace, Normal';font-variant-ligatures:normal;font-variant-caps:normal;font-variant-numeric:normal;font-feature-settings:normal;text-align:start;letter-spacing:0px;word-spacing:0px;writing-mode:lr-tb;text-anchor:start;fill:#000000;fill-opacity:1;stroke:none"
     id="text2810"
     transform="translate(36.243862,-18.328285)">
    <path
       d="m 13.568204,31.91968 q -0.350911,0.186849 -0.720052,0.277995 -0.369141,0.0957 -0.783854,0.0957 -1.307943,0 -2.032552,-0.92513 -0.7200522,-0.92513 -0.7200522,-2.602213 0,-1.667969 0.7246092,-2.597657 0.729167,-0.934244 2.027995,-0.934244 0.414713,0 0.783854,0.0957 0.369141,0.09115 0.720052,0.277995 v 0.943359 q -0.337239,-0.277995 -0.724609,-0.423828 -0.38737,-0.145834 -0.779297,-0.145834 -0.897787,0 -1.344401,0.692709 -0.446615,0.692708 -0.446615,2.091797 0,1.394531 0.446615,2.087239 0.446614,0.692708 1.344401,0.692708 0.401042,0 0.783854,-0.145833 0.38737,-0.145833 0.720052,-0.423828 z"
       id="path2812"
       inkscape:connector-curvature="0"
       style="fill:#000000;fill-opacity:1" />
    <path
       d="m 15.272631,25.357181 h 0.92513 v 6.029296 h 3.285807 v 0.77474 h -4.210937 z"
       id="path2814"
       inkscape:connector-curvature="0"
       style="fill:#000000;fill-opacity:1" />
    <path
       d="m 20.531745,25.357181 h 0.92513 v 3.026041 l 2.875651,-3.026041 h 1.080078 l -2.647786,2.779947 2.72526,4.024089 h -1.111979 l -2.219401,-3.408854 -0.701823,0.747395 v 2.661459 h -0.92513 z"
       id="path2816"
       inkscape:connector-curvature="0"
       style="fill:#000000;fill-opacity:1" />
  </g>
  <path
     d="m 252.57905,370.33907 h -3.10156 l -0.80469,-2.35157 h -4.3125 l -0.80469,2.35157 h -3.02344 l 4.29688,-11.63282 h 3.45312 z m -4.63281,-4.48438 -1.42969,-4.17187 -1.42969,4.17187 z m 12.50781,-1.60937 h -0.25 q -0.17969,-0.0625 -0.57813,-0.0937 -0.39843,-0.0312 -0.66406,-0.0312 -0.60156,0 -1.0625,0.0781 -0.46094,0.0781 -0.99219,0.26562 v 5.875 h -2.8125 v -8.77344 h 2.8125 v 1.28906 q 0.92969,-0.79687 1.61719,-1.05469 0.6875,-0.26562 1.26563,-0.26562 0.14843,0 0.33593,0.008 0.1875,0.008 0.32813,0.0234 z m 7.95312,0 h -0.25 q -0.17968,-0.0625 -0.57812,-0.0937 -0.39844,-0.0312 -0.66406,-0.0312 -0.60157,0 -1.0625,0.0781 -0.46094,0.0781 -0.99219,0.26562 v 5.875 h -2.8125 v -8.77344 h 2.8125 v 1.28906 q 0.92969,-0.79687 1.61719,-1.05469 0.6875,-0.26562 1.26562,-0.26562 0.14844,0 0.33594,0.008 0.1875,0.008 0.32812,0.0234 z m 6.90625,3.80468 v -1.82812 q -0.57031,0.0469 -1.23437,0.13281 -0.66406,0.0781 -1.00781,0.1875 -0.42188,0.13281 -0.64844,0.39063 -0.21875,0.25 -0.21875,0.66406 0,0.27344 0.0469,0.44531 0.0469,0.17188 0.23437,0.32813 0.17969,0.15625 0.42969,0.23437 0.25,0.0703 0.78125,0.0703 0.42188,0 0.85156,-0.17187 0.4375,-0.17188 0.76563,-0.45313 z m 0,1.35938 q -0.22656,0.17187 -0.5625,0.41406 -0.33593,0.24219 -0.63281,0.38281 -0.41406,0.1875 -0.85937,0.27344 -0.44532,0.0937 -0.97657,0.0937 -1.25,0 -2.09375,-0.77344 -0.84375,-0.77343 -0.84375,-1.97656 0,-0.96094 0.42969,-1.57031 0.42969,-0.60938 1.21875,-0.96094 0.78125,-0.35156 1.9375,-0.5 1.15625,-0.14844 2.39844,-0.21875 v -0.0469 q 0,-0.72656 -0.59375,-1 -0.59375,-0.28125 -1.75,-0.28125 -0.69531,0 -1.48438,0.25 -0.78906,0.24219 -1.13281,0.375 h -0.25781 v -2.11719 q 0.44531,-0.11719 1.44531,-0.27344 1.00781,-0.16406 2.01563,-0.16406 2.39843,0 3.46093,0.74219 1.07032,0.73437 1.07032,2.3125 v 5.96875 h -2.78907 z m 14.1875,0.92969 h -2.82812 v -4.35157 q 0,-0.53125 -0.0547,-1.05468 -0.0547,-0.53125 -0.1875,-0.78125 -0.15625,-0.28907 -0.46094,-0.42188 -0.29687,-0.13281 -0.83594,-0.13281 -0.38281,0 -0.78125,0.125 -0.39062,0.125 -0.85156,0.39844 v 6.21875 h -2.8125 v -8.77344 h 2.8125 v 0.96875 q 0.75,-0.58594 1.4375,-0.89844 0.69531,-0.3125 1.53906,-0.3125 1.42188,0 2.21875,0.82813 0.80469,0.82812 0.80469,2.47656 z m 11.11719,-1.00782 q 0,1.23438 -0.35156,2.07813 -0.35156,0.84375 -0.98438,1.32031 -0.63281,0.48438 -1.53125,0.69531 -0.89062,0.21875 -2.01562,0.21875 -0.91406,0 -1.80469,-0.10937 -0.88281,-0.10938 -1.53125,-0.26563 v -2.19531 h 0.34375 q 0.51563,0.20313 1.25781,0.36719 0.74219,0.17187 1.32813,0.17187 0.78125,0 1.26562,-0.14843 0.49219,-0.14063 0.75,-0.40625 0.24219,-0.25 0.35157,-0.64063 0.10937,-0.39062 0.10937,-0.9375 v -0.16406 q -0.50781,0.41406 -1.125,0.65625 -0.61719,0.24219 -1.375,0.24219 -1.84375,0 -2.84375,-1.10938 -1,-1.10937 -1,-3.375 0,-1.08594 0.30469,-1.875 0.30469,-0.78906 0.85937,-1.375 0.51563,-0.54687 1.26563,-0.85156 0.75781,-0.30469 1.54687,-0.30469 0.71094,0 1.28907,0.17188 0.58593,0.16406 1.0625,0.46093 l 0.10156,-0.39062 h 2.72656 z m -2.8125,-1.75781 v -3.97656 q -0.24219,-0.10156 -0.59375,-0.15625 -0.35156,-0.0625 -0.63281,-0.0625 -1.10938,0 -1.66406,0.64062 -0.55469,0.63282 -0.55469,1.77344 0,1.26563 0.46875,1.76563 0.47656,0.5 1.40625,0.5 0.42187,0 0.82812,-0.13282 0.40625,-0.13281 0.74219,-0.35156 z m 14.10938,-1.10156 h -6.4375 q 0.0625,1.03125 0.78125,1.57812 0.72656,0.54688 2.13281,0.54688 0.89062,0 1.72656,-0.32031 0.83594,-0.32032 1.32031,-0.6875 h 0.3125 v 2.25781 q -0.95312,0.38281 -1.79687,0.55469 -0.84375,0.17187 -1.86719,0.17187 -2.64062,0 -4.04687,-1.1875 -1.40625,-1.1875 -1.40625,-3.38281 0,-2.17188 1.32812,-3.4375 1.33594,-1.27344 3.65625,-1.27344 2.14063,0 3.21875,1.08594 1.07813,1.07812 1.07813,3.10937 z m -2.79688,-1.64844 q -0.0234,-0.88281 -0.4375,-1.32812 -0.41406,-0.44532 -1.28906,-0.44532 -0.8125,0 -1.33594,0.42188 -0.52344,0.42187 -0.58594,1.35156 z"
     id="text1"
     style="font-weight:bold;font-size:16px;-inkscape-font-specification:'sans-serif Bold';fill:#1996fc;stroke-width:1.00157"
     aria-label="Arrange" />
  <path
     style="font-size:9.33333px;-inkscape-font-specification:sans-serif;fill:#000000;fill-opacity:1;stroke-width:1.00157"
     d="m 316.27117,323.37945 h -4.4707 v -6.7858 h 4.4707 v 0.80208 h -3.56836 v 1.85938 h 3.56836 v 0.80208 h -3.56836 v 2.52018 h 3.56836 z m 6.48958,-6.00651 q 0.41472,0.45573 0.63347,1.11654 0.2233,0.66081 0.2233,1.49935 0,0.83854 -0.22786,1.50391 -0.22331,0.6608 -0.62891,1.10286 -0.41927,0.46029 -0.99349,0.69271 -0.56966,0.23242 -1.30338,0.23242 -0.7155,0 -1.30339,-0.23698 -0.58333,-0.23698 -0.99348,-0.68815 -0.41016,-0.45117 -0.63347,-1.10742 -0.21875,-0.65625 -0.21875,-1.49935 0,-0.82943 0.21875,-1.48568 0.21875,-0.6608 0.63802,-1.13021 0.40104,-0.44661 0.99349,-0.68359 0.59701,-0.23698 1.29883,-0.23698 0.72917,0 1.30794,0.24154 0.58333,0.23698 0.98893,0.67903 z m -0.082,2.61589 q 0,-1.32161 -0.59245,-2.03711 -0.59244,-0.72005 -1.61783,-0.72005 -1.03451,0 -1.62696,0.72005 -0.58789,0.7155 -0.58789,2.03711 0,1.33529 0.60157,2.04622 0.60156,0.70638 1.61328,0.70638 1.01172,0 1.60872,-0.70638 0.60156,-0.71093 0.60156,-2.04622 z m 7.61068,2.89844 q -0.25065,0.10937 -0.45573,0.20507 -0.20052,0.0957 -0.52865,0.20053 -0.27799,0.0866 -0.60612,0.14583 -0.32357,0.0638 -0.71549,0.0638 -0.73828,0 -1.3444,-0.20508 -0.60156,-0.20964 -1.04818,-0.65169 -0.4375,-0.43295 -0.68359,-1.09831 -0.2461,-0.66992 -0.2461,-1.55404 0,-0.83854 0.23698,-1.49934 0.23698,-0.66081 0.6836,-1.11654 0.43294,-0.44206 1.04362,-0.67448 0.61523,-0.23242 1.36263,-0.23242 0.54687,0 1.08919,0.13216 0.54687,0.13216 1.21224,0.46484 v 1.07097 h -0.0684 q -0.56055,-0.4694 -1.11198,-0.6836 -0.55143,-0.21419 -1.18034,-0.21419 -0.51497,0 -0.92969,0.16862 -0.41015,0.16406 -0.73372,0.51497 -0.31445,0.3418 -0.49219,0.86589 -0.17317,0.51953 -0.17317,1.20312 0,0.7155 0.1914,1.23047 0.19596,0.51498 0.5013,0.83854 0.31901,0.33724 0.74284,0.50131 0.42839,0.1595 0.90235,0.1595 0.65169,0 1.22135,-0.22331 0.56966,-0.2233 1.0664,-0.66992 h 0.0638 z"
     id="text2"
     aria-label="EOC" />
  <path
     style="font-size:9.33333px;-inkscape-font-specification:sans-serif;fill:#000000;fill-opacity:1;stroke-width:1.00157"
     d="m 256.81969,317.85877 q 0,0.45117 -0.1595,0.83854 -0.15495,0.38281 -0.4375,0.66536 -0.35091,0.35091 -0.82943,0.52865 -0.47851,0.17318 -1.20768,0.17318 h -0.90233 v 2.52929 h -0.90236 v -6.7858 h 1.84116 q 0.61068,0 1.0345,0.10481 0.42383,0.10026 0.75195,0.31901 0.38737,0.25977 0.597,0.64714 0.21419,0.38737 0.21419,0.97982 z m -0.9388,0.0228 q 0,-0.35092 -0.12304,-0.61068 -0.12305,-0.25977 -0.3737,-0.42383 -0.21875,-0.14128 -0.5013,-0.20052 -0.278,-0.0638 -0.70638,-0.0638 h -0.89323 v 2.71159 h 0.76106 q 0.54688,0 0.88868,-0.0957 0.34179,-0.10026 0.55599,-0.31446 0.21419,-0.21875 0.30078,-0.46028 0.0911,-0.24154 0.0911,-0.54232 z m 7.18685,-1.29427 q 0.41471,0.45572 0.63346,1.11653 0.22331,0.66081 0.22331,1.49935 0,0.83854 -0.22786,1.50391 -0.22331,0.6608 -0.62891,1.10286 -0.41927,0.46029 -0.99349,0.69271 -0.56966,0.23242 -1.30338,0.23242 -0.7155,0 -1.30339,-0.23698 -0.58333,-0.23698 -0.99349,-0.68815 -0.41016,-0.45117 -0.63346,-1.10742 -0.21875,-0.65625 -0.21875,-1.49935 0,-0.82943 0.21875,-1.48568 0.21875,-0.6608 0.63802,-1.1302 0.40104,-0.44662 0.99349,-0.6836 0.597,-0.23698 1.29883,-0.23698 0.72916,0 1.30794,0.24154 0.58333,0.23698 0.98893,0.67904 z m -0.082,2.61588 q 0,-1.32161 -0.59245,-2.03711 -0.59245,-0.72005 -1.61784,-0.72005 -1.0345,0 -1.62695,0.72005 -0.58789,0.7155 -0.58789,2.03711 0,1.33529 0.60156,2.04622 0.60156,0.70638 1.61328,0.70638 1.01172,0 1.60873,-0.70638 0.60156,-0.71093 0.60156,-2.04622 z m 7.30078,1.45378 q 0,0.39648 -0.18685,0.78385 -0.18229,0.38737 -0.51498,0.65625 -0.36458,0.29167 -0.85221,0.45573 -0.48307,0.16406 -1.16666,0.16406 -0.73373,0 -1.32162,-0.13672 -0.58333,-0.13672 -1.18945,-0.4056 v -1.1302 h 0.0638 q 0.51497,0.42838 1.18945,0.6608 0.67448,0.23242 1.26693,0.23242 0.83854,0 1.30338,-0.31445 0.46941,-0.31445 0.46941,-0.83854 0,-0.45117 -0.22331,-0.66536 -0.21875,-0.2142 -0.66992,-0.33269 -0.3418,-0.0912 -0.74284,-0.15039 -0.39649,-0.0592 -0.8431,-0.15039 -0.90234,-0.1914 -1.33984,-0.65169 -0.43295,-0.46484 -0.43295,-1.20768 0,-0.85222 0.72006,-1.39453 0.72005,-0.54688 1.82747,-0.54688 0.71549,0 1.3125,0.13672 0.597,0.13672 1.05729,0.33724 v 1.06641 h -0.0638 q -0.38737,-0.32813 -1.02083,-0.54232 -0.62891,-0.21875 -1.28972,-0.21875 -0.72461,0 -1.16665,0.30078 -0.4375,0.30078 -0.4375,0.77474 0,0.42383 0.21875,0.66536 0.21875,0.24154 0.77017,0.36914 0.29166,0.0638 0.82943,0.15495 0.53776,0.0912 0.91145,0.18685 0.75651,0.20052 1.13933,0.60612 0.38281,0.4056 0.38281,1.13477 z"
     id="text2-9"
     aria-label="POS" />
  <path
     style="font-size:9.33333px;-inkscape-font-specification:sans-serif;fill:#000000;fill-opacity:1;stroke-width:1.00157"
     d="m 285.85046,322.73507 h -2.67969 v -0.69271 h 0.88867 v -5.40039 h -0.88867 v -0.69271 h 2.67969 v 0.69271 h -0.88867 v 5.40039 h 0.88867 z m 6.71289,0 h -1.11654 l -3.21745,-6.07031 v 6.07031 h -0.84309 v -6.78581 h 1.39908 l 2.93491,5.54167 v -5.54167 h 0.84309 z m 6.64453,-5.98372 h -2.42448 v 5.98372 h -0.90235 v -5.98372 h -2.42447 v -0.80209 h 5.7513 z"
     id="text2-9-5"
     aria-label="INT" />
  <path
     style="font-size:9.33333px;-inkscape-font-specification:sans-serif;fill:#000000;fill-opacity:1;stroke-width:1.00157"
     d="m 282.78618,119.63315 h -1.17123 l -2.26953,-2.69791 h -1.27148 v 2.69791 h -0.90234 v -6.7858 h 1.90039 q 0.61523,0 1.02539,0.082 0.41015,0.0775 0.73828,0.28255 0.36914,0.23242 0.57421,0.58789 0.20964,0.35091 0.20964,0.89323 0,0.73373 -0.36914,1.23047 -0.36914,0.49219 -1.01628,0.74284 z m -2.11003,-4.8763 q 0,-0.29166 -0.10482,-0.51497 -0.10026,-0.22786 -0.33724,-0.38281 -0.19596,-0.13216 -0.46484,-0.18229 -0.26888,-0.0547 -0.63346,-0.0547 h -1.06185 v 2.5612 h 0.91146 q 0.42838,0 0.74739,-0.0729 0.31901,-0.0775 0.54232,-0.28256 0.20508,-0.1914 0.30078,-0.4375 0.10026,-0.25065 0.10026,-0.63346 z m 11.10612,-1.10742 h -2.42448 v 5.98372 h -0.90234 v -5.98372 h -2.42448 v -0.80208 h 5.7513 z m 6.52604,5.98372 h -1.17123 l -2.26953,-2.69791 h -1.27148 v 2.69791 h -0.90234 v -6.7858 h 1.90039 q 0.61523,0 1.02539,0.082 0.41015,0.0775 0.73828,0.28255 0.36914,0.23242 0.57421,0.58789 0.20964,0.35091 0.20964,0.89323 0,0.73373 -0.36914,1.23047 -0.36914,0.49219 -1.01628,0.74284 z m -2.11003,-4.8763 q 0,-0.29166 -0.10482,-0.51497 -0.10026,-0.22786 -0.33724,-0.38281 -0.19596,-0.13216 -0.46484,-0.18229 -0.26888,-0.0547 -0.63346,-0.0547 h -1.06185 v 2.5612 h 0.91146 q 0.42838,0 0.74739,-0.0729 0.31901,-0.0775 0.54232,-0.28256 0.20508,-0.1914 0.30078,-0.4375 0.10026,-0.25065 0.10026,-0.63346 z m 5.3776,4.8763 h -2.67968 v -0.6927 h 0.88867 v -5.40039 h -0.88867 v -0.69271 h 2.67968 v 0.69271 h -0.88867 v 5.40039 h 0.88867 z m 7.19597,-0.5013 q -0.55599,0.25521 -1.2168,0.44662 -0.65625,0.18685 -1.27149,0.18685 -0.79296,0 -1.45377,-0.21875 -0.66081,-0.21875 -1.12565,-0.65625 -0.4694,-0.44206 -0.72461,-1.10287 -0.25521,-0.66536 -0.25521,-1.55403 0,-1.62696 0.94792,-2.56576 0.95247,-0.94336 2.61132,-0.94336 0.57878,0 1.18034,0.14128 0.60612,0.13672 1.30339,0.4694 v 1.07096 h -0.082 q -0.14128,-0.10937 -0.41016,-0.28711 -0.26888,-0.17773 -0.52864,-0.29622 -0.31446,-0.14128 -0.7155,-0.23242 -0.39648,-0.0957 -0.90234,-0.0957 -1.13933,0 -1.80469,0.73373 -0.66081,0.72917 -0.66081,1.97786 0,1.31706 0.69271,2.05078 0.69271,0.72917 1.88672,0.72917 0.4375,0 0.87044,-0.0866 0.4375,-0.0866 0.76563,-0.22331 v -1.66341 h -1.81836 v -0.79297 h 2.71159 z"
     id="text2-7"
     aria-label="R TRIG" />
  <path
     style="font-size:9.33333px;-inkscape-font-specification:sans-serif;fill:#000000;fill-opacity:1;stroke-width:1.00157"
     d="m 284.15795,185.3842 h -1.17123 l -2.26953,-2.69792 h -1.27148 v 2.69792 h -0.90235 v -6.78581 h 1.90039 q 0.61524,0 1.02539,0.082 0.41016,0.0775 0.73829,0.28255 0.36914,0.23243 0.57421,0.58789 0.20964,0.35092 0.20964,0.89323 0,0.73373 -0.36914,1.23047 -0.36914,0.49219 -1.01628,0.74284 z m -2.11003,-4.8763 q 0,-0.29167 -0.10482,-0.51498 -0.10026,-0.22786 -0.33724,-0.38281 -0.19596,-0.13216 -0.46484,-0.18229 -0.26888,-0.0547 -0.63346,-0.0547 h -1.06185 v 2.5612 h 0.91146 q 0.42838,0 0.74739,-0.0729 0.31901,-0.0775 0.54232,-0.28255 0.20508,-0.19141 0.30078,-0.4375 0.10026,-0.25065 0.10026,-0.63347 z m 11.61653,4.8763 h -0.96159 l -0.66536,-1.89128 h -2.93489 l -0.66537,1.89128 h -0.91601 l 2.47005,-6.78581 h 1.20312 z m -1.90494,-2.66602 -1.18946,-3.33138 -1.19401,3.33138 z m 8.97786,2.66602 h -0.90235 v -5.84701 l -1.88672,3.97852 h -0.53776 l -1.87304,-3.97852 v 5.84701 h -0.8431 v -6.78581 h 1.23047 l 1.80924,3.778 1.75,-3.778 h 1.25326 z m 6.66275,-5.98373 h -2.42447 v 5.98373 h -0.90235 v -5.98373 h -2.42448 v -0.80208 h 5.7513 z"
     id="text2-7-4"
     aria-label="R AMT" />
  <path
     id="path2124-5-5-7-2-1"
     style="fill:#1a96fc;fill-opacity:1;stroke:none;stroke-width:0.406811;stroke-miterlimit:4;stroke-dasharray:none;stroke-dashoffset:0;stroke-opacity:1"
     d="m 251.33371,329.21434 h 20 v 20 h -20 z" />
  <path
     id="path2124-5-5-7-2-1-3"
     style="isolation:isolate;fill:#1a96fc;fill-opacity:1;stroke:none;stroke-width:0.406811;stroke-miterlimit:4;stroke-dasharray:none;stroke-dashoffset:0;stroke-opacity:1"
     d="m 281.18933,329.21434 h 20 v 20 h -20 z" />
  <path
     id="path2124-5-5-7-2-1-3-4"
     style="isolation:isolate;fill:#1a96fc;fill-opacity:1;stroke:none;stroke-width:0.406811;stroke-miterlimit:4;stroke-dasharray:none;stroke-dashoffset:0;stroke-opacity:1"
     d="m 311.04495,329.21434 h 20 v 20 h -20 z" />
</svg>
