<?xml version="1.0" encoding="UTF-8" standalone="no"?>
<!-- Created with Inkscape (http://www.inkscape.org/) -->

<svg
   xmlns:dc="http://purl.org/dc/elements/1.1/"
   xmlns:cc="http://creativecommons.org/ns#"
   xmlns:rdf="http://www.w3.org/1999/02/22-rdf-syntax-ns#"
   xmlns:svg="http://www.w3.org/2000/svg"
   xmlns="http://www.w3.org/2000/svg"
   xmlns:sodipodi="http://sodipodi.sourceforge.net/DTD/sodipodi-0.dtd"
   xmlns:inkscape="http://www.inkscape.org/namespaces/inkscape"
   width="360"
   height="380"
   viewBox="0 0 95.25 100.54166"
   version="1.1"
   id="svg12553"
   inkscape:version="0.92.2 5c3e80d, 2017-08-06"
   sodipodi:docname="BouncyBall.svg">
  <defs
     id="defs12547" />
  <sodipodi:namedview
     id="base"
     pagecolor="#ffffff"
     bordercolor="#666666"
     borderopacity="1.0"
     inkscape:pageopacity="0.0"
     inkscape:pageshadow="2"
     inkscape:zoom="3.22"
     inkscape:cx="268.08303"
     inkscape:cy="32.953945"
     inkscape:document-units="px"
     inkscape:current-layer="layer1"
     showgrid="true"
     fit-margin-top="0"
     fit-margin-left="0"
     fit-margin-right="0"
     fit-margin-bottom="0"
     units="px"
     inkscape:window-width="1165"
     inkscape:window-height="785"
     inkscape:window-x="734"
     inkscape:window-y="0"
     inkscape:window-maximized="0"
     inkscape:snap-global="false"
     inkscape:measure-start="0,0"
     inkscape:measure-end="0,0">
    <inkscape:grid
       type="xygrid"
       id="grid12870"
       originx="-20.372917"
       originy="84.666661" />
  </sodipodi:namedview>
  <metadata
     id="metadata12550">
    <rdf:RDF>
      <cc:Work
         rdf:about="">
        <dc:format>image/svg+xml</dc:format>
        <dc:type
           rdf:resource="http://purl.org/dc/dcmitype/StillImage" />
        <dc:title />
      </cc:Work>
    </rdf:RDF>
  </metadata>
  <g
     inkscape:label="Layer 1"
     inkscape:groupmode="layer"
     id="layer1"
     transform="translate(-26.543497,-161.30655)">
    <path
       inkscape:connector-curvature="0"
       id="path33453"
       d="m 26.543497,161.45211 h 95.249993 v 100.3961 H 26.543497 Z m 0,0"
       style="fill:#e6e6e6;fill-opacity:1;fill-rule:nonzero;stroke:none;stroke-width:0.28832152" />
    <g
       transform="matrix(0.36394193,0,0,0.36394193,18.735289,73.983813)"
       id="layer1-2"
       inkscape:label="Layer 1">
      <rect
         y="256.12662"
         x="29.52006"
         height="1.6536458"
         width="7.2760415"
         id="rect823"
         style="fill:#ffffff;fill-opacity:1;stroke:none;stroke-width:0.71059781;stroke-miterlimit:4;stroke-dasharray:none;stroke-opacity:1" />
      <rect
         y="256.57309"
         x="28.643627"
         height="0.51248246"
         width="9.0803432"
         id="rect821"
         style="fill:#ffffff;fill-opacity:1;stroke:none;stroke-width:0.17694761;stroke-miterlimit:4;stroke-dasharray:none;stroke-opacity:1" />
      <ellipse
         ry="5.8699069"
         rx="6.1973119"
         cy="250.78661"
         cx="33.068214"
         id="path817"
         style="fill:#ffffff;fill-opacity:1;stroke:none;stroke-width:0.29476252;stroke-miterlimit:4;stroke-dasharray:none;stroke-opacity:1" />
      <rect
         y="257.08557"
         x="28.265131"
         height="4.3030396"
         width="9.541522"
         id="rect819"
         style="fill:#ffffff;fill-opacity:1;stroke:none;stroke-width:0.23695372;stroke-miterlimit:4;stroke-dasharray:none;stroke-opacity:1" />
      <path
         style="fill:#54b6fc;stroke-width:0.43423772"
         d="m 28.040353,261.67777 c -0.05624,-0.1049 -0.09132,-1.05343 -0.09132,-2.46939 0,-2.62823 -0.06483,-2.41007 0.868669,-2.92327 0.298327,-0.16393 0.542417,-0.32331 0.542417,-0.35402 0,-0.0309 -0.162318,-0.16826 -0.360716,-0.30583 -1.028016,-0.71241 -2.013971,-2.17766 -2.338877,-3.47584 -0.201325,-0.80442 -0.134174,-2.39054 0.13451,-3.17721 1.033244,-3.02511 4.386038,-4.85502 7.661927,-4.18175 2.136444,0.4391 3.832748,1.7715 4.690824,3.6846 0.361925,0.8069 0.484002,1.41362 0.481552,2.39329 -0.0043,1.76252 -0.804317,3.40089 -2.221636,4.55038 -0.254647,0.20641 -0.463011,0.4065 -0.463011,0.44439 0,0.038 0.188503,0.17638 0.418915,0.30774 0.88078,0.5022 0.815782,0.26078 0.815782,3.02947 0,1.77735 -0.02862,2.465 -0.105831,2.54221 -0.07977,0.0796 -1.316324,0.10568 -5.023888,0.10568 -4.772077,0 -4.920765,-0.006 -5.009351,-0.17069 z m 4.778272,-1.34136 c 0.02029,-0.72066 0.0537,-0.91258 0.172084,-0.98706 0.106484,-0.067 0.185415,-0.0605 0.286623,0.0243 0.110188,0.0915 0.139673,0.2998 0.139673,0.98705 v 0.87111 h 2.031202 c 1.725502,0 2.038854,-0.0189 2.082046,-0.13248 0.118689,-0.30933 -0.0843,-0.54865 -1.048716,-1.23644 -0.806681,-0.57531 -0.992,-0.74828 -0.992,-0.92603 0,-0.17285 0.05069,-0.22425 0.242529,-0.24644 l 0.242526,-0.0279 v -0.72694 c 0,-0.82266 0.11329,-1.0851 0.425635,-0.98597 0.182308,0.0579 0.191777,0.11143 0.193075,1.09112 6.9e-4,0.56673 0.03051,1.07216 0.06615,1.12322 0.107317,0.15365 0.691445,0.5686 0.80071,0.5686 0.07253,0 0.101903,-0.37768 0.101903,-1.30922 0,-1.48548 0.04525,-1.38286 -0.823095,-1.86798 l -0.514419,-0.28745 -0.896236,0.29918 c -0.869904,0.29041 -0.937695,0.2992 -2.307746,0.29891 -1.355532,-2.1e-4 -1.441911,-0.0113 -2.177833,-0.27426 l -0.766317,-0.27401 -0.710913,0.40097 -0.710915,0.40096 v 1.35053 c 0,0.7428 0.02272,1.35058 0.05046,1.35058 0.02775,0 0.226187,-0.10309 0.440962,-0.22887 l 0.390524,-0.22887 0.0014,-0.89557 c 0.0016,-1.14751 0.206306,-1.60144 0.561721,-1.24599 0.108544,0.1085 0.142513,0.31853 0.142513,0.88028 v 0.7378 l 0.290718,-0.0471 c 0.315025,-0.0511 0.543194,0.11558 0.458905,0.33517 -0.02597,0.0676 -0.562393,0.43193 -1.192126,0.80964 -1.113533,0.66789 -1.144968,0.69508 -1.144968,0.9907 v 0.30396 h 2.069441 2.069444 z m 2.265337,-4.35748 c 1.820054,-0.60937 3.301106,-2.14018 3.754405,-3.88051 0.141672,-0.5439 0.182494,-2.03256 0.06101,-2.22398 -0.0547,-0.0862 -0.514454,-0.10647 -1.993182,-0.0881 l -1.922097,0.0243 -0.285943,0.79373 c -0.250451,0.69526 -0.311823,0.79372 -0.494567,0.79372 -0.193669,0 -0.219614,-0.0593 -0.361764,-0.82692 -0.233437,-1.26061 -0.264438,-1.24093 -0.550459,0.34982 -0.250913,1.39568 -0.282965,1.49134 -0.499452,1.49134 -0.208819,0 -0.19843,0.0455 -0.591264,-2.59459 -0.179846,-1.20877 -0.366691,-2.21079 -0.415197,-2.22673 -0.04851,-0.0164 -0.346157,0.47702 -0.661443,1.09535 l -0.573255,1.12428 -1.649981,0.0244 -1.649981,0.0243 -0.05961,0.3176 c -0.100912,0.53789 0.02055,1.63287 0.25608,2.31038 0.480987,1.38307 1.462121,2.47313 2.838905,3.15409 1.070426,0.52942 1.68831,0.6568 2.998555,0.61816 0.870867,-0.027 1.189545,-0.0752 1.799239,-0.27931 z m -2.582339,-0.34598 c -0.501349,-0.14204 -0.612279,-0.23104 -0.568647,-0.45582 0.02803,-0.14447 0.130451,-0.16555 0.868148,-0.17909 0.460004,-0.008 0.975273,-0.0281 1.145044,-0.0441 0.276178,-0.0243 0.311494,-0.006 0.335474,0.20237 0.023,0.19722 -0.02543,0.25187 -0.329357,0.37355 -0.522805,0.20913 -0.965587,0.24078 -1.450662,0.1031 z m -1.6422,-2.07469 c -0.09701,-0.0972 -0.176384,-0.25567 -0.176384,-0.35282 0,-0.24453 0.308426,-0.52913 0.573253,-0.52913 0.264818,0 0.573252,0.28468 0.573252,0.52913 0,0.24455 -0.308429,0.52918 -0.573252,0.52918 -0.121275,0 -0.299857,-0.0793 -0.396869,-0.17636 z m 3.439517,-0.0882 c -0.232761,-0.23267 -0.222508,-0.40285 0.0401,-0.66546 0.243582,-0.24345 0.329798,-0.25996 0.605107,-0.11502 0.242042,0.12748 0.321863,0.24591 0.323575,0.48022 0.0031,0.43406 -0.63668,0.63239 -0.968767,0.30029 z m -1.151475,-4.27736 c 0.296559,-1.78581 0.575578,-1.83207 0.874871,-0.14501 0.09772,0.55084 0.197295,1.02113 0.221263,1.04511 0.08271,0.0828 0.212362,-0.0613 0.273139,-0.30344 0.117052,-0.46642 0.107419,-0.46436 2.176972,-0.46436 2.188984,0 2.146871,0.0162 1.845872,-0.66529 -0.655344,-1.4815 -2.160669,-2.71162 -3.887876,-3.17706 -0.773684,-0.20858 -2.314597,-0.21425 -3.086746,-0.0113 -1.862761,0.48917 -3.433992,1.84034 -4.06194,3.49292 l -0.172218,0.45328 1.47768,-0.0243 1.477684,-0.0244 0.705541,-1.38465 c 0.388047,-0.76156 0.755433,-1.43456 0.816413,-1.4955 0.244962,-0.24482 0.364055,0.12518 0.643002,1.99713 0.151683,1.01798 0.296644,1.88465 0.322123,1.92588 0.102882,0.16637 0.192723,-0.12627 0.374219,-1.21922 z"
         id="path4012-7"
         inkscape:connector-curvature="0" />
      <path
         style="fill:#a0a0a0;stroke-width:0.43423772"
         d="m 28.040353,261.67777 c -0.05624,-0.1049 -0.09132,-1.05343 -0.09132,-2.46939 0,-2.62823 -0.06483,-2.41007 0.868669,-2.92327 0.298327,-0.16393 0.542417,-0.32331 0.542417,-0.35402 0,-0.0309 -0.162318,-0.16826 -0.360716,-0.30583 -1.028016,-0.71241 -2.013971,-2.17766 -2.338877,-3.47584 -0.201325,-0.80442 -0.134174,-2.39054 0.13451,-3.17721 1.033244,-3.02511 4.386038,-4.85502 7.661927,-4.18175 2.136444,0.4391 3.832748,1.7715 4.690824,3.6846 0.361925,0.8069 0.484002,1.41362 0.481552,2.39329 -0.0043,1.76252 -0.804317,3.40089 -2.221636,4.55038 -0.254647,0.20641 -0.463011,0.4065 -0.463011,0.44439 0,0.038 0.188503,0.17638 0.418915,0.30774 0.88078,0.5022 0.815782,0.26078 0.815782,3.02947 0,1.77735 -0.02862,2.465 -0.105831,2.54221 -0.07977,0.0796 -1.316324,0.10568 -5.023888,0.10568 -4.772077,0 -4.920765,-0.006 -5.009351,-0.17069 z m 4.778272,-1.34136 c 0.02029,-0.72066 0.0537,-0.91258 0.172084,-0.98706 0.106484,-0.067 0.185415,-0.0605 0.286623,0.0243 0.110188,0.0915 0.139673,0.2998 0.139673,0.98705 v 0.87111 h 2.031202 c 1.725502,0 2.038854,-0.0189 2.082046,-0.13248 0.118689,-0.30933 -0.0843,-0.54865 -1.048716,-1.23644 -0.806681,-0.57531 -0.992,-0.74828 -0.992,-0.92603 0,-0.17285 0.05069,-0.22425 0.242529,-0.24644 l 0.242526,-0.0279 v -0.72694 c 0,-0.82266 0.11329,-1.0851 0.425635,-0.98597 0.182308,0.0579 0.191777,0.11143 0.193075,1.09112 6.9e-4,0.56673 0.03051,1.07216 0.06615,1.12322 0.107317,0.15365 0.691445,0.5686 0.80071,0.5686 0.07253,0 0.101903,-0.37768 0.101903,-1.30922 0,-1.48548 0.04525,-1.38286 -0.823095,-1.86798 l -0.514419,-0.28745 -0.896236,0.29918 c -0.869904,0.29041 -0.937695,0.2992 -2.307746,0.29891 -1.355532,-2.1e-4 -1.441911,-0.0113 -2.177833,-0.27426 l -0.766317,-0.27401 -0.710913,0.40097 -0.710915,0.40096 v 1.35053 c 0,0.7428 0.02272,1.35058 0.05046,1.35058 0.02775,0 0.226187,-0.10309 0.440962,-0.22887 l 0.390524,-0.22887 0.0014,-0.89557 c 0.0016,-1.14751 0.206306,-1.60144 0.561721,-1.24599 0.108544,0.1085 0.142513,0.31853 0.142513,0.88028 v 0.7378 l 0.290718,-0.0471 c 0.315025,-0.0511 0.543194,0.11558 0.458905,0.33517 -0.02597,0.0676 -0.562393,0.43193 -1.192126,0.80964 -1.113533,0.66789 -1.144968,0.69508 -1.144968,0.9907 v 0.30396 h 2.069441 2.069444 z m 2.265337,-4.35748 c 1.403562,-0.46993 2.640938,-1.50058 3.294283,-2.74387 0.429067,-0.81653 0.595175,-1.49004 0.593708,-2.40729 -0.002,-1.2675 0.205601,-1.15 -2.032309,-1.15 -1.442955,0 -1.942613,0.0275 -1.996101,0.11041 -0.03924,0.0606 -0.191398,0.42737 -0.338104,0.81498 -0.382438,1.0104 -0.497129,0.9789 -0.708436,-0.1945 -0.249425,-1.38497 -0.369803,-1.31205 -0.674781,0.40874 -0.236279,1.33315 -0.338408,1.62908 -0.50309,1.45776 -0.04428,-0.0461 -0.22394,-1.07598 -0.399194,-2.28859 -0.378048,-2.61568 -0.375281,-2.60172 -0.515638,-2.60172 -0.06054,0 -0.377093,0.53579 -0.703448,1.19062 l -0.593372,1.1906 h -1.626578 -1.626579 l -0.06131,0.40891 c -0.234007,1.5605 0.483321,3.42764 1.761718,4.58559 0.632883,0.57328 1.868907,1.21483 2.698432,1.40062 0.933964,0.20911 2.512332,0.12546 3.430809,-0.18205 z m -2.582339,-0.34598 c -0.501349,-0.14204 -0.612279,-0.23104 -0.568647,-0.45582 0.02803,-0.14447 0.130451,-0.16555 0.868148,-0.17909 0.460004,-0.008 0.975273,-0.0281 1.145044,-0.0441 0.276178,-0.0243 0.311494,-0.006 0.335474,0.20237 0.023,0.19722 -0.02543,0.25187 -0.329357,0.37355 -0.522805,0.20913 -0.965587,0.24078 -1.450662,0.1031 z m -1.6422,-2.07469 c -0.09701,-0.0972 -0.176384,-0.25567 -0.176384,-0.35282 0,-0.24453 0.308426,-0.52913 0.573253,-0.52913 0.264818,0 0.573252,0.28468 0.573252,0.52913 0,0.24455 -0.308429,0.52918 -0.573252,0.52918 -0.121275,0 -0.299857,-0.0793 -0.396869,-0.17636 z m 3.439517,-0.0882 c -0.232761,-0.23267 -0.222508,-0.40285 0.0401,-0.66546 0.243582,-0.24345 0.329798,-0.25996 0.605107,-0.11502 0.242042,0.12748 0.321863,0.24591 0.323575,0.48022 0.0031,0.43406 -0.63668,0.63239 -0.968767,0.30029 z m -1.097809,-4.10189 c 0.211607,-1.21013 0.333943,-1.55258 0.494567,-1.38443 0.03281,0.0344 0.152225,0.57839 0.265306,1.20896 0.232869,1.29834 0.343523,1.42064 0.618496,0.68352 l 0.172705,-0.46302 h 1.972971 c 1.085132,0 1.99242,-0.0315 2.016195,-0.0698 0.08023,-0.12991 -0.357483,-1.05886 -0.773608,-1.642 -0.728041,-1.02028 -1.981677,-1.859 -3.316077,-2.21859 -0.773686,-0.20857 -2.314601,-0.21426 -3.086747,-0.0113 -1.084749,0.28486 -1.999152,0.80872 -2.786328,1.59624 -0.677355,0.67767 -1.19903,1.50881 -1.403089,2.23545 l -0.05574,0.19856 1.439077,-9.8e-4 c 0.791494,-6.2e-4 1.483847,-0.0306 1.538565,-0.0662 0.05473,-0.0355 0.422055,-0.70973 0.816304,-1.49793 0.672478,-1.34451 0.811339,-1.54707 0.929474,-1.35595 0.02624,0.0426 0.169945,0.92549 0.319337,1.9623 0.278277,1.93132 0.382411,2.3719 0.526552,2.22775 0.04457,-0.0447 0.184959,-0.67541 0.312001,-1.40192 z"
         id="path4010-1"
         inkscape:connector-curvature="0" />
      <path
         style="fill:#179cfd;stroke-width:0.43423772"
         d="m 28.084301,261.62139 c -0.09334,-0.2432 -0.06068,-4.53422 0.03585,-4.71459 0.04932,-0.0922 0.366818,-0.32942 0.705541,-0.52725 0.338727,-0.19778 0.615865,-0.39635 0.615865,-0.44114 0,-0.0449 -0.225402,-0.25131 -0.5009,-0.45914 -1.007366,-0.75955 -1.863496,-2.05429 -2.182561,-3.30077 -0.176274,-0.68859 -0.179006,-2.04001 -0.0054,-2.72476 0.07324,-0.28909 0.298305,-0.86296 0.500144,-1.27526 0.293281,-0.59912 0.51896,-0.90166 1.123813,-1.50667 0.628099,-0.62825 0.899287,-0.82698 1.594434,-1.16847 1.206772,-0.59277 1.759323,-0.7188 3.130615,-0.71416 0.806735,0.002 1.311968,0.0495 1.704825,0.15746 3.200698,0.88036 5.194794,3.81447 4.65392,6.84772 -0.248316,1.39251 -1.241594,2.98286 -2.337264,3.74216 -0.198811,0.13767 -0.36148,0.28303 -0.36148,0.3228 0,0.0398 0.277437,0.23428 0.616524,0.43238 0.393273,0.22968 0.633784,0.4307 0.664178,0.55509 0.02625,0.10714 0.03649,1.24673 0.02299,2.53213 l -0.02488,2.33712 -4.951132,0.0216 c -4.457619,0.0215 -4.956494,0.008 -5.004941,-0.11734 z m 4.796794,-1.27231 c 0.04062,-0.85254 0.0581,-0.92604 0.220478,-0.92604 0.162399,0 0.179874,0.0735 0.22048,0.92604 l 0.0441,0.92602 h 2.11542 c 1.979416,0 2.117418,-0.0113 2.146485,-0.16124 0.07415,-0.38501 -0.08786,-0.58193 -1.039039,-1.26279 -0.5321,-0.38086 -0.988888,-0.74572 -1.015085,-0.81071 -0.07133,-0.17694 0.02596,-0.27867 0.266821,-0.27867 0.212067,0 0.215285,-0.0113 0.215285,-0.78294 0,-0.57789 0.03363,-0.81084 0.12842,-0.88952 0.247505,-0.20531 0.312538,-0.006 0.312538,0.96492 0,0.5267 0.02407,1.0201 0.05321,1.09639 0.07569,0.19722 0.895628,0.78122 1.003392,0.71461 0.137026,-0.0848 0.118488,-2.70962 -0.02028,-2.88339 -0.06062,-0.0761 -0.366131,-0.28527 -0.678882,-0.46529 -0.638192,-0.36731 -0.664782,-0.36715 -1.680277,0.0113 -0.620191,0.23022 -0.749452,0.24593 -2.072528,0.24835 -1.367516,0.002 -1.436372,-0.006 -2.229991,-0.28332 l -0.818897,-0.286 -0.707163,0.41086 c -0.388942,0.22589 -0.744718,0.48108 -0.790616,0.56686 -0.04592,0.0857 -0.08344,0.71537 -0.08344,1.39919 0,0.99797 0.02488,1.25279 0.126404,1.29174 0.157447,0.0603 0.905595,-0.36921 1.022127,-0.58694 0.04739,-0.0885 0.0862,-0.57804 0.0862,-1.08767 0,-0.95796 0.0901,-1.20675 0.322052,-0.88956 0.07719,0.10547 0.118894,0.4201 0.118894,0.89644 v 0.73386 l 0.360543,-0.0576 c 0.341277,-0.0546 0.358954,-0.0466 0.330725,0.14961 -0.02299,0.16068 -0.280994,0.35508 -1.148549,0.86561 -1.145685,0.67416 -1.30229,0.84178 -1.171412,1.25421 0.05178,0.16311 0.145382,0.16933 2.186334,0.14688 l 2.132238,-0.0243 z m 2.160723,-4.26226 c 1.769875,-0.57963 3.167996,-1.90262 3.76078,-3.55863 0.192048,-0.53652 0.328288,-2.18171 0.217288,-2.62393 l -0.05685,-0.22641 h -1.977453 c -1.485114,0 -1.995217,0.0273 -2.0488,0.11041 -0.03924,0.0605 -0.191399,0.42736 -0.338105,0.81497 -0.382437,1.0104 -0.497129,0.97892 -0.708437,-0.1945 -0.249424,-1.38497 -0.369803,-1.31205 -0.674782,0.40873 -0.236276,1.33315 -0.338406,1.62909 -0.503087,1.45777 -0.04428,-0.046 -0.223941,-1.07597 -0.399196,-2.28861 -0.378048,-2.61567 -0.375282,-2.6017 -0.515636,-2.6017 -0.06054,0 -0.377094,0.53578 -0.703448,1.19062 l -0.593373,1.19063 h -1.628884 c -1.902339,0 -1.81147,-0.0499 -1.81147,0.99426 0,0.80431 0.255081,1.83651 0.632916,2.56111 0.424332,0.81377 1.610253,1.95985 2.460638,2.37796 1.097382,0.53952 1.794389,0.68665 3.07994,0.64999 0.892825,-0.0244 1.23655,-0.0755 1.807954,-0.26241 z m -2.425303,-0.51429 c -0.478805,-0.10703 -0.703657,-0.2876 -0.549872,-0.44139 0.07642,-0.0766 0.231706,-0.0808 0.585546,-0.0162 0.356597,0.0647 0.599579,0.0571 0.936494,-0.0291 0.48231,-0.12329 0.615302,-0.0987 0.615302,0.11422 0,0.28859 -0.958357,0.51378 -1.58747,0.37302 z m -1.706091,-2.08738 c -0.189693,-0.20965 -0.184796,-0.3936 0.01543,-0.57471 0.232894,-0.21073 0.518062,-0.17963 0.684657,0.0743 0.133834,0.20423 0.133834,0.23669 0,0.44096 -0.171756,0.26213 -0.491832,0.2892 -0.699982,0.0593 z m 3.421615,-0.14148 c -0.271481,-0.41435 0.198702,-0.82027 0.625904,-0.54036 0.247452,0.16205 0.279238,0.41467 0.07757,0.61634 -0.207737,0.20776 -0.541169,0.17179 -0.703478,-0.0761 z m -1.137669,-3.97553 c 0.211606,-1.21013 0.333942,-1.55259 0.494569,-1.38441 0.03282,0.0344 0.152224,0.57837 0.265305,1.20895 0.23276,1.29772 0.34355,1.42057 0.617887,0.68512 l 0.172107,-0.46134 2.000835,-0.0243 c 2.352706,-0.0279 2.281076,0.0162 1.723959,-1.05794 -0.429635,-0.82824 -1.435244,-1.8525 -2.279603,-2.32184 -3.036046,-1.6875 -6.967182,-0.61741 -8.490501,2.31125 -0.205682,0.39548 -0.373989,0.82207 -0.373989,0.94808 v 0.22911 l 1.433135,-9.7e-4 c 0.788221,-6e-4 1.477901,-0.0306 1.53262,-0.0663 0.05473,-0.0355 0.422054,-0.7097 0.816303,-1.49792 0.672479,-1.34449 0.811342,-1.54706 0.929474,-1.35594 0.02625,0.0425 0.169945,0.9255 0.319337,1.96229 0.278278,1.93132 0.382411,2.37191 0.526555,2.22776 0.04455,-0.0447 0.184956,-0.67543 0.311999,-1.40192 z"
         id="path4008-0"
         inkscape:connector-curvature="0" />
      <path
         style="fill:#050505;fill-opacity:1;stroke-width:0.43423772"
         d="m 28.084301,261.62139 c -0.09334,-0.2432 -0.06068,-4.53422 0.03585,-4.71459 0.04932,-0.0922 0.366818,-0.32942 0.705541,-0.52725 0.338727,-0.19778 0.615865,-0.39635 0.615865,-0.44114 0,-0.0449 -0.225402,-0.25131 -0.5009,-0.45914 -1.007366,-0.75955 -1.863496,-2.05429 -2.182561,-3.30077 -0.176274,-0.68859 -0.179006,-2.04001 -0.0054,-2.72476 0.07324,-0.28909 0.298305,-0.86296 0.500144,-1.27526 0.293281,-0.59912 0.51896,-0.90166 1.123813,-1.50667 0.628099,-0.62825 0.899287,-0.82698 1.594434,-1.16847 1.206772,-0.59277 1.759323,-0.7188 3.130615,-0.71416 0.806735,0.002 1.311968,0.0495 1.704825,0.15746 3.200698,0.88036 5.194794,3.81447 4.65392,6.84772 -0.248316,1.39251 -1.241594,2.98286 -2.337264,3.74216 -0.198811,0.13767 -0.36148,0.28303 -0.36148,0.3228 0,0.0398 0.277437,0.23428 0.616524,0.43238 0.393273,0.22968 0.633784,0.4307 0.664178,0.55509 0.02625,0.10714 0.03649,1.24673 0.02299,2.53213 l -0.02488,2.33712 -4.951132,0.0216 c -4.457619,0.0215 -4.956494,0.008 -5.004941,-0.11734 z m 4.796794,-1.27231 c 0.04062,-0.85254 0.0581,-0.92604 0.220478,-0.92604 0.162399,0 0.179874,0.0735 0.22048,0.92604 l 0.0441,0.92602 h 2.11542 c 1.979416,0 2.117418,-0.0113 2.146485,-0.16124 0.07415,-0.38501 -0.08786,-0.58193 -1.039039,-1.26279 -0.5321,-0.38086 -0.988888,-0.74572 -1.015085,-0.81071 -0.07133,-0.17694 0.02596,-0.27867 0.266821,-0.27867 0.212067,0 0.215285,-0.0113 0.215285,-0.78294 0,-0.57789 0.03363,-0.81084 0.12842,-0.88952 0.247505,-0.20531 0.312538,-0.006 0.312538,0.96492 0,0.5267 0.02407,1.0201 0.05321,1.09639 0.07569,0.19722 0.895628,0.78122 1.003392,0.71461 0.137026,-0.0848 0.118488,-2.70962 -0.02028,-2.88339 -0.06062,-0.0761 -0.366131,-0.28527 -0.678882,-0.46529 -0.638192,-0.36731 -0.664782,-0.36715 -1.680277,0.0113 -0.620191,0.23022 -0.749452,0.24593 -2.072528,0.24835 -1.367516,0.002 -1.436372,-0.006 -2.229991,-0.28332 l -0.818897,-0.286 -0.707163,0.41086 c -0.388942,0.22589 -0.744718,0.48108 -0.790616,0.56686 -0.04592,0.0857 -0.08344,0.71537 -0.08344,1.39919 0,0.99797 0.02488,1.25279 0.126404,1.29174 0.157447,0.0603 0.905595,-0.36921 1.022127,-0.58694 0.04739,-0.0885 0.0862,-0.57804 0.0862,-1.08767 0,-0.95796 0.0901,-1.20675 0.322052,-0.88956 0.07719,0.10547 0.118894,0.4201 0.118894,0.89644 v 0.73386 l 0.360543,-0.0576 c 0.341277,-0.0546 0.358954,-0.0466 0.330725,0.14961 -0.02299,0.16068 -0.280994,0.35508 -1.148549,0.86561 -1.145685,0.67416 -1.30229,0.84178 -1.171412,1.25421 0.05178,0.16311 0.145382,0.16933 2.186334,0.14688 l 2.132238,-0.0243 z m 2.160723,-4.26226 c 1.798336,-0.58895 3.232202,-1.974 3.804655,-3.6751 0.213148,-0.63339 0.221914,-2.36663 0.01569,-3.09953 -0.356769,-1.26779 -1.453375,-2.62144 -2.672695,-3.2992 -2.477562,-1.37709 -5.596645,-0.9588 -7.541693,1.01144 -1.633552,1.65471 -2.027872,4.11443 -0.994473,6.2034 0.44418,0.89788 1.576714,2.0172 2.500652,2.47147 1.097382,0.53953 1.794387,0.68664 3.079941,0.64999 0.892823,-0.0243 1.236549,-0.0756 1.807951,-0.26241 z m -2.425303,-0.51429 c -0.478805,-0.10703 -0.703657,-0.2876 -0.549872,-0.44139 0.07642,-0.0766 0.231706,-0.0808 0.585546,-0.0162 0.356597,0.0647 0.599579,0.0571 0.936494,-0.0291 0.48231,-0.12329 0.615302,-0.0987 0.615302,0.11422 0,0.28859 -0.958357,0.51378 -1.58747,0.37302 z m -1.706091,-2.08738 c -0.189693,-0.20965 -0.184796,-0.3936 0.01543,-0.57471 0.232894,-0.21073 0.518062,-0.17963 0.684657,0.0743 0.133834,0.20423 0.133834,0.23669 0,0.44096 -0.171756,0.26213 -0.491832,0.2892 -0.699982,0.0593 z m 3.421615,-0.14148 c -0.271481,-0.41435 0.198702,-0.82027 0.625904,-0.54036 0.247452,0.16205 0.279238,0.41467 0.07757,0.61634 -0.207737,0.20776 -0.541169,0.17179 -0.703478,-0.0761 z"
         id="path4006-0"
         inkscape:connector-curvature="0" />
    </g>
    <g
       aria-label="X Scale"
       style="font-style:normal;font-variant:normal;font-weight:normal;font-stretch:normal;font-size:2.82222223px;line-height:1.25;font-family:sans-serif;-inkscape-font-specification:'sans-serif, Normal';font-variant-ligatures:normal;font-variant-caps:normal;font-variant-numeric:normal;font-feature-settings:normal;text-align:start;letter-spacing:0px;word-spacing:0px;writing-mode:lr-tb;text-anchor:start;fill:#000000;fill-opacity:1;stroke:none;stroke-width:0.26458332"
       id="text833"
       transform="translate(-2.1166665)">
      <path
         d="m 63.315699,163.25655 h 0.299034 l 0.511252,0.76482 0.514008,-0.76482 h 0.299035 l -0.661459,0.98806 0.705556,1.06935 h -0.299034 l -0.578776,-0.87505 -0.582911,0.87505 h -0.300412 l 0.734495,-1.09829 z"
         style="font-style:normal;font-variant:normal;font-weight:normal;font-stretch:normal;font-size:2.82222223px;font-family:sans-serif;-inkscape-font-specification:'sans-serif, Normal';font-variant-ligatures:normal;font-variant-caps:normal;font-variant-numeric:normal;font-feature-settings:normal;text-align:start;writing-mode:lr-tb;text-anchor:start;stroke-width:0.26458332"
         id="path945"
         inkscape:connector-curvature="0" />
      <path
         d="m 67.481508,163.32408 v 0.27147 q -0.158474,-0.0758 -0.299034,-0.113 -0.14056,-0.0372 -0.271474,-0.0372 -0.227376,0 -0.351399,0.0882 -0.122646,0.0882 -0.122646,0.2508 0,0.13643 0.0813,0.20671 0.08268,0.0689 0.311437,0.11162 l 0.168121,0.0345 q 0.311436,0.0593 0.458886,0.20946 0.148829,0.14883 0.148829,0.39963 0,0.29904 -0.201194,0.45338 -0.199816,0.15434 -0.587044,0.15434 -0.146072,0 -0.311437,-0.0331 -0.163986,-0.0331 -0.340375,-0.0979 v -0.28663 q 0.169498,0.0951 0.332107,0.14332 0.162608,0.0482 0.319705,0.0482 0.2384,0 0.367936,-0.0937 0.129536,-0.0937 0.129536,-0.26734 0,-0.15158 -0.09371,-0.23702 -0.09233,-0.0854 -0.304547,-0.12816 l -0.169498,-0.0331 q -0.311437,-0.062 -0.450619,-0.1943 -0.139182,-0.13229 -0.139182,-0.36794 0,-0.27285 0.191548,-0.42995 0.192925,-0.15709 0.530544,-0.15709 0.144694,0 0.294901,0.0262 0.150206,0.0262 0.307302,0.0786 z"
         style="font-style:normal;font-variant:normal;font-weight:normal;font-stretch:normal;font-size:2.82222223px;font-family:sans-serif;-inkscape-font-specification:'sans-serif, Normal';font-variant-ligatures:normal;font-variant-caps:normal;font-variant-numeric:normal;font-feature-settings:normal;text-align:start;writing-mode:lr-tb;text-anchor:start;stroke-width:0.26458332"
         id="path947"
         inkscape:connector-curvature="0" />
      <path
         d="m 69.139288,163.82982 v 0.23702 q -0.107487,-0.0593 -0.216352,-0.0882 -0.107487,-0.0303 -0.21773,-0.0303 -0.246669,0 -0.383094,0.1571 -0.136426,0.15571 -0.136426,0.43821 0,0.2825 0.136426,0.4396 0.136425,0.15571 0.383094,0.15571 0.110243,0 0.21773,-0.0289 0.108865,-0.0303 0.216352,-0.0896 v 0.23427 q -0.106109,0.0496 -0.220486,0.0744 -0.112999,0.0248 -0.241157,0.0248 -0.348643,0 -0.553971,-0.21911 -0.205328,-0.21911 -0.205328,-0.59118 0,-0.37758 0.206706,-0.59393 0.208084,-0.21635 0.56913,-0.21635 0.117133,0 0.228754,0.0248 0.111621,0.0234 0.216352,0.0717 z"
         style="font-style:normal;font-variant:normal;font-weight:normal;font-stretch:normal;font-size:2.82222223px;font-family:sans-serif;-inkscape-font-specification:'sans-serif, Normal';font-variant-ligatures:normal;font-variant-caps:normal;font-variant-numeric:normal;font-feature-settings:normal;text-align:start;writing-mode:lr-tb;text-anchor:start;stroke-width:0.26458332"
         id="path949"
         inkscape:connector-curvature="0" />
      <path
         d="m 70.284438,164.53813 q -0.307302,0 -0.425814,0.0703 -0.118511,0.0703 -0.118511,0.23978 0,0.13505 0.08819,0.21497 0.08957,0.0785 0.242535,0.0785 0.21084,0 0.337619,-0.14883 0.128158,-0.1502 0.128158,-0.39825 v -0.0565 z m 0.50574,-0.10473 v 0.88056 h -0.253559 v -0.23426 q -0.08682,0.14056 -0.216352,0.20808 -0.129536,0.0661 -0.316949,0.0661 -0.237022,0 -0.377582,-0.13229 -0.139182,-0.13367 -0.139182,-0.35692 0,-0.26044 0.173633,-0.39274 0.175011,-0.13229 0.520898,-0.13229 h 0.355534 v -0.0248 q 0,-0.17501 -0.115755,-0.2701 -0.114377,-0.0965 -0.322461,-0.0965 -0.132292,0 -0.257693,0.0317 -0.125402,0.0317 -0.241157,0.0951 v -0.23427 q 0.139182,-0.0537 0.270096,-0.0799 0.130913,-0.0276 0.254937,-0.0276 0.334863,0 0.500227,0.17363 0.165365,0.17363 0.165365,0.52641 z"
         style="font-style:normal;font-variant:normal;font-weight:normal;font-stretch:normal;font-size:2.82222223px;font-family:sans-serif;-inkscape-font-specification:'sans-serif, Normal';font-variant-ligatures:normal;font-variant-caps:normal;font-variant-numeric:normal;font-feature-settings:normal;text-align:start;writing-mode:lr-tb;text-anchor:start;stroke-width:0.26458332"
         id="path951"
         inkscape:connector-curvature="0" />
      <path
         d="m 71.313832,163.16974 h 0.25356 v 2.14422 h -0.25356 z"
         style="font-style:normal;font-variant:normal;font-weight:normal;font-stretch:normal;font-size:2.82222223px;font-family:sans-serif;-inkscape-font-specification:'sans-serif, Normal';font-variant-ligatures:normal;font-variant-caps:normal;font-variant-numeric:normal;font-feature-settings:normal;text-align:start;writing-mode:lr-tb;text-anchor:start;stroke-width:0.26458332"
         id="path953"
         inkscape:connector-curvature="0" />
      <path
         d="m 73.416719,164.47887 v 0.12403 h -1.16582 q 0.01654,0.26182 0.157096,0.39963 0.141938,0.13642 0.394119,0.13642 0.146072,0 0.282498,-0.0358 0.137804,-0.0358 0.272851,-0.10748 v 0.23978 q -0.136426,0.0579 -0.279742,0.0882 -0.143315,0.0303 -0.290766,0.0303 -0.369314,0 -0.585666,-0.21498 -0.214974,-0.21497 -0.214974,-0.58153 0,-0.37896 0.20395,-0.60082 0.205328,-0.22324 0.552593,-0.22324 0.311437,0 0.49196,0.20119 0.181901,0.19981 0.181901,0.54432 z m -0.253559,-0.0744 q -0.0028,-0.20808 -0.117133,-0.33211 -0.113,-0.12402 -0.300413,-0.12402 -0.212218,0 -0.340375,0.11989 -0.12678,0.11989 -0.146072,0.33762 z"
         style="font-style:normal;font-variant:normal;font-weight:normal;font-stretch:normal;font-size:2.82222223px;font-family:sans-serif;-inkscape-font-specification:'sans-serif, Normal';font-variant-ligatures:normal;font-variant-caps:normal;font-variant-numeric:normal;font-feature-settings:normal;text-align:start;writing-mode:lr-tb;text-anchor:start;stroke-width:0.26458332"
         id="path955"
         inkscape:connector-curvature="0" />
    </g>
    <g
       aria-label="Y Scale"
       style="font-style:normal;font-variant:normal;font-weight:normal;font-stretch:normal;font-size:2.82222223px;line-height:1.25;font-family:sans-serif;-inkscape-font-specification:'sans-serif, Normal';font-variant-ligatures:normal;font-variant-caps:normal;font-variant-numeric:normal;font-feature-settings:normal;text-align:start;letter-spacing:0px;word-spacing:0px;writing-mode:lr-tb;text-anchor:start;fill:#000000;fill-opacity:1;stroke:none;stroke-width:0.26458332"
       id="text837">
      <path
         d="m 76.09499,163.25655 h 0.299034 l 0.570508,0.84612 0.566374,-0.84612 h 0.299034 l -0.727604,1.07763 v 0.97978 h -0.279742 v -0.97978 z"
         style="font-style:normal;font-variant:normal;font-weight:normal;font-stretch:normal;font-size:2.82222223px;font-family:sans-serif;-inkscape-font-specification:'sans-serif, Normal';font-variant-ligatures:normal;font-variant-caps:normal;font-variant-numeric:normal;font-feature-settings:normal;text-align:start;writing-mode:lr-tb;text-anchor:start;stroke-width:0.26458332"
         id="path932" />
      <path
         d="m 80.234616,163.32408 v 0.27147 q -0.158474,-0.0758 -0.299034,-0.113 -0.14056,-0.0372 -0.271473,-0.0372 -0.227377,0 -0.3514,0.0882 -0.122646,0.0882 -0.122646,0.2508 0,0.13643 0.08131,0.20671 0.08268,0.0689 0.311436,0.11162 l 0.168121,0.0345 q 0.311437,0.0593 0.458887,0.20946 0.148828,0.14883 0.148828,0.39963 0,0.29904 -0.201194,0.45338 -0.199815,0.15434 -0.587044,0.15434 -0.146072,0 -0.311437,-0.0331 -0.163986,-0.0331 -0.340375,-0.0979 v -0.28663 q 0.169499,0.0951 0.332107,0.14332 0.162609,0.0482 0.319705,0.0482 0.238401,0 0.367936,-0.0937 0.129536,-0.0937 0.129536,-0.26734 0,-0.15158 -0.09371,-0.23702 -0.09233,-0.0854 -0.304546,-0.12816 l -0.169499,-0.0331 q -0.311437,-0.062 -0.450618,-0.1943 -0.139182,-0.13229 -0.139182,-0.36794 0,-0.27285 0.191547,-0.42995 0.192925,-0.15709 0.530545,-0.15709 0.144694,0 0.2949,0.0262 0.150206,0.0262 0.307302,0.0786 z"
         style="font-style:normal;font-variant:normal;font-weight:normal;font-stretch:normal;font-size:2.82222223px;font-family:sans-serif;-inkscape-font-specification:'sans-serif, Normal';font-variant-ligatures:normal;font-variant-caps:normal;font-variant-numeric:normal;font-feature-settings:normal;text-align:start;writing-mode:lr-tb;text-anchor:start;stroke-width:0.26458332"
         id="path934" />
      <path
         d="m 81.892397,163.82982 v 0.23702 q -0.107487,-0.0593 -0.216352,-0.0882 -0.107487,-0.0303 -0.21773,-0.0303 -0.246669,0 -0.383095,0.1571 -0.136426,0.15571 -0.136426,0.43821 0,0.2825 0.136426,0.4396 0.136426,0.15571 0.383095,0.15571 0.110243,0 0.21773,-0.0289 0.108865,-0.0303 0.216352,-0.0896 v 0.23427 q -0.106109,0.0496 -0.220486,0.0744 -0.113,0.0248 -0.241157,0.0248 -0.348644,0 -0.553971,-0.21911 -0.205328,-0.21911 -0.205328,-0.59118 0,-0.37758 0.206706,-0.59393 0.208083,-0.21635 0.569129,-0.21635 0.117134,0 0.228755,0.0248 0.111621,0.0234 0.216352,0.0717 z"
         style="font-style:normal;font-variant:normal;font-weight:normal;font-stretch:normal;font-size:2.82222223px;font-family:sans-serif;-inkscape-font-specification:'sans-serif, Normal';font-variant-ligatures:normal;font-variant-caps:normal;font-variant-numeric:normal;font-feature-settings:normal;text-align:start;writing-mode:lr-tb;text-anchor:start;stroke-width:0.26458332"
         id="path936" />
      <path
         d="m 83.037547,164.53813 q -0.307303,0 -0.425814,0.0703 -0.118512,0.0703 -0.118512,0.23978 0,0.13505 0.08819,0.21497 0.08957,0.0785 0.242535,0.0785 0.210839,0 0.337619,-0.14883 0.128158,-0.1502 0.128158,-0.39825 v -0.0565 z m 0.50574,-0.10473 v 0.88056 h -0.253559 v -0.23426 q -0.08682,0.14056 -0.216352,0.20808 -0.129536,0.0661 -0.316949,0.0661 -0.237023,0 -0.377583,-0.13229 -0.139182,-0.13367 -0.139182,-0.35692 0,-0.26044 0.173633,-0.39274 0.175011,-0.13229 0.520899,-0.13229 h 0.355534 v -0.0248 q 0,-0.17501 -0.115756,-0.2701 -0.114377,-0.0965 -0.322461,-0.0965 -0.132291,0 -0.257693,0.0317 -0.125401,0.0317 -0.241156,0.0951 v -0.23427 q 0.139181,-0.0537 0.270095,-0.0799 0.130914,-0.0276 0.254937,-0.0276 0.334863,0 0.500228,0.17363 0.165365,0.17363 0.165365,0.52641 z"
         style="font-style:normal;font-variant:normal;font-weight:normal;font-stretch:normal;font-size:2.82222223px;font-family:sans-serif;-inkscape-font-specification:'sans-serif, Normal';font-variant-ligatures:normal;font-variant-caps:normal;font-variant-numeric:normal;font-feature-settings:normal;text-align:start;writing-mode:lr-tb;text-anchor:start;stroke-width:0.26458332"
         id="path938" />
      <path
         d="M 84.066941,163.16974 H 84.3205 v 2.14422 h -0.253559 z"
         style="font-style:normal;font-variant:normal;font-weight:normal;font-stretch:normal;font-size:2.82222223px;font-family:sans-serif;-inkscape-font-specification:'sans-serif, Normal';font-variant-ligatures:normal;font-variant-caps:normal;font-variant-numeric:normal;font-feature-settings:normal;text-align:start;writing-mode:lr-tb;text-anchor:start;stroke-width:0.26458332"
         id="path940" />
      <path
         d="m 86.169827,164.47887 v 0.12403 h -1.16582 q 0.01654,0.26182 0.157096,0.39963 0.141938,0.13642 0.394119,0.13642 0.146072,0 0.282498,-0.0358 0.137804,-0.0358 0.272851,-0.10748 v 0.23978 q -0.136426,0.0579 -0.279741,0.0882 -0.143316,0.0303 -0.290767,0.0303 -0.369314,0 -0.585666,-0.21498 -0.214974,-0.21497 -0.214974,-0.58153 0,-0.37896 0.20395,-0.60082 0.205328,-0.22324 0.552593,-0.22324 0.311437,0 0.49196,0.20119 0.181901,0.19981 0.181901,0.54432 z m -0.253559,-0.0744 q -0.0028,-0.20808 -0.117133,-0.33211 -0.112999,-0.12402 -0.300413,-0.12402 -0.212218,0 -0.340375,0.11989 -0.12678,0.11989 -0.146072,0.33762 z"
         style="font-style:normal;font-variant:normal;font-weight:normal;font-stretch:normal;font-size:2.82222223px;font-family:sans-serif;-inkscape-font-specification:'sans-serif, Normal';font-variant-ligatures:normal;font-variant-caps:normal;font-variant-numeric:normal;font-feature-settings:normal;text-align:start;writing-mode:lr-tb;text-anchor:start;stroke-width:0.26458332"
         id="path942" />
    </g>
    <g
       aria-label="X Offset"
       style="font-style:normal;font-variant:normal;font-weight:normal;font-stretch:normal;font-size:2.82222223px;line-height:1.25;font-family:sans-serif;-inkscape-font-specification:'sans-serif, Normal';font-variant-ligatures:normal;font-variant-caps:normal;font-variant-numeric:normal;font-feature-settings:normal;text-align:start;letter-spacing:0px;word-spacing:0px;writing-mode:lr-tb;text-anchor:start;fill:#000000;fill-opacity:1;stroke:none;stroke-width:0.26458332"
       id="text841"
       transform="translate(1.5874999)">
      <path
         d="m 90.443552,163.25655 h 0.299034 l 0.511253,0.76482 0.514008,-0.76482 h 0.299034 l -0.661458,0.98806 0.705555,1.06935 h -0.299034 l -0.578776,-0.87505 -0.58291,0.87505 h -0.300412 l 0.734494,-1.09829 z"
         style="font-style:normal;font-variant:normal;font-weight:normal;font-stretch:normal;font-size:2.82222223px;font-family:sans-serif;-inkscape-font-specification:'sans-serif, Normal';font-variant-ligatures:normal;font-variant-caps:normal;font-variant-numeric:normal;font-feature-settings:normal;text-align:start;writing-mode:lr-tb;text-anchor:start;stroke-width:0.26458332"
         id="path917"
         inkscape:connector-curvature="0" />
      <path
         d="m 94.211109,163.44535 q -0.303169,0 -0.482314,0.22599 -0.177767,0.226 -0.177767,0.61599 0,0.3886 0.177767,0.6146 0.179145,0.226 0.482314,0.226 0.303168,0 0.479557,-0.226 0.177767,-0.226 0.177767,-0.6146 0,-0.38999 -0.177767,-0.61599 -0.176389,-0.22599 -0.479557,-0.22599 z m 0,-0.226 q 0.432704,0 0.691775,0.29076 0.259071,0.28939 0.259071,0.77722 0,0.48644 -0.259071,0.77721 -0.259071,0.28939 -0.691775,0.28939 -0.434083,0 -0.694532,-0.28939 -0.259071,-0.28939 -0.259071,-0.77721 0,-0.48783 0.259071,-0.77722 0.260449,-0.29076 0.694532,-0.29076 z"
         style="font-style:normal;font-variant:normal;font-weight:normal;font-stretch:normal;font-size:2.82222223px;font-family:sans-serif;-inkscape-font-specification:'sans-serif, Normal';font-variant-ligatures:normal;font-variant-caps:normal;font-variant-numeric:normal;font-feature-settings:normal;text-align:start;writing-mode:lr-tb;text-anchor:start;stroke-width:0.26458332"
         id="path919"
         inkscape:connector-curvature="0" />
      <path
         d="m 96.367738,163.16974 v 0.21084 h -0.242534 q -0.136426,0 -0.19017,0.0551 -0.05236,0.0551 -0.05236,0.19844 v 0.13642 h 0.417545 v 0.19706 h -0.417545 v 1.34634 h -0.254937 v -1.34634 h -0.242535 v -0.19706 h 0.242535 v -0.10748 q 0,-0.2577 0.119889,-0.37483 0.119889,-0.11851 0.380339,-0.11851 z"
         style="font-style:normal;font-variant:normal;font-weight:normal;font-stretch:normal;font-size:2.82222223px;font-family:sans-serif;-inkscape-font-specification:'sans-serif, Normal';font-variant-ligatures:normal;font-variant-caps:normal;font-variant-numeric:normal;font-feature-settings:normal;text-align:start;writing-mode:lr-tb;text-anchor:start;stroke-width:0.26458332"
         id="path921"
         inkscape:connector-curvature="0" />
      <path
         d="m 97.359926,163.16974 v 0.21084 h -0.242535 q -0.136426,0 -0.190169,0.0551 -0.05237,0.0551 -0.05237,0.19844 v 0.13642 h 0.417546 v 0.19706 h -0.417546 v 1.34634 h -0.254937 v -1.34634 h -0.242534 v -0.19706 h 0.242534 v -0.10748 q 0,-0.2577 0.11989,-0.37483 0.119889,-0.11851 0.380338,-0.11851 z"
         style="font-style:normal;font-variant:normal;font-weight:normal;font-stretch:normal;font-size:2.82222223px;font-family:sans-serif;-inkscape-font-specification:'sans-serif, Normal';font-variant-ligatures:normal;font-variant-caps:normal;font-variant-numeric:normal;font-feature-settings:normal;text-align:start;writing-mode:lr-tb;text-anchor:start;stroke-width:0.26458332"
         id="path923"
         inkscape:connector-curvature="0" />
      <path
         d="m 98.554685,163.81604 v 0.23978 q -0.107487,-0.0551 -0.223242,-0.0827 -0.115755,-0.0276 -0.239779,-0.0276 -0.188791,0 -0.283876,0.0579 -0.09371,0.0579 -0.09371,0.17363 0,0.0882 0.06752,0.13919 0.06752,0.0496 0.271473,0.0951 l 0.08682,0.0193 q 0.270096,0.0579 0.383095,0.16399 0.114377,0.10473 0.114377,0.29352 0,0.21497 -0.170876,0.34038 -0.169499,0.1254 -0.467155,0.1254 -0.124024,0 -0.259072,-0.0248 -0.133669,-0.0234 -0.282497,-0.0716 v -0.26183 q 0.140559,0.073 0.276985,0.11024 0.136426,0.0358 0.270096,0.0358 0.179145,0 0.275607,-0.0606 0.09646,-0.062 0.09646,-0.17364 0,-0.10335 -0.07028,-0.15847 -0.0689,-0.0551 -0.304546,-0.10611 l -0.08819,-0.0207 q -0.235644,-0.0496 -0.340375,-0.15158 -0.104731,-0.10336 -0.104731,-0.2825 0,-0.21773 0.15434,-0.33624 0.15434,-0.11851 0.438216,-0.11851 0.14056,0 0.264584,0.0207 0.124023,0.0207 0.228754,0.062 z"
         style="font-style:normal;font-variant:normal;font-weight:normal;font-stretch:normal;font-size:2.82222223px;font-family:sans-serif;-inkscape-font-specification:'sans-serif, Normal';font-variant-ligatures:normal;font-variant-caps:normal;font-variant-numeric:normal;font-feature-settings:normal;text-align:start;writing-mode:lr-tb;text-anchor:start;stroke-width:0.26458332"
         id="path925"
         inkscape:connector-curvature="0" />
      <path
         d="m 100.36267,164.47887 v 0.12403 h -1.165819 q 0.01654,0.26182 0.157096,0.39963 0.141938,0.13642 0.394119,0.13642 0.146072,0 0.282494,-0.0358 0.13781,-0.0358 0.27286,-0.10748 v 0.23978 q -0.13643,0.0579 -0.27975,0.0882 -0.143312,0.0303 -0.290762,0.0303 -0.369314,0 -0.585666,-0.21498 -0.214974,-0.21497 -0.214974,-0.58153 0,-0.37896 0.203949,-0.60082 0.205328,-0.22324 0.552594,-0.22324 0.311439,0 0.491959,0.20119 0.1819,0.19981 0.1819,0.54432 z m -0.25356,-0.0744 q -0.003,-0.20808 -0.117131,-0.33211 -0.112999,-0.12402 -0.300412,-0.12402 -0.212218,0 -0.340376,0.11989 -0.126779,0.11989 -0.146072,0.33762 z"
         style="font-style:normal;font-variant:normal;font-weight:normal;font-stretch:normal;font-size:2.82222223px;font-family:sans-serif;-inkscape-font-specification:'sans-serif, Normal';font-variant-ligatures:normal;font-variant-caps:normal;font-variant-numeric:normal;font-feature-settings:normal;text-align:start;writing-mode:lr-tb;text-anchor:start;stroke-width:0.26458332"
         id="path927"
         inkscape:connector-curvature="0" />
      <path
         d="m 101.02964,163.33235 v 0.43821 h 0.52228 v 0.19706 h -0.52228 v 0.83785 q 0,0.18879 0.051,0.24253 0.0524,0.0538 0.21084,0.0538 h 0.26045 v 0.21221 h -0.26045 q -0.29352,0 -0.40514,-0.10886 -0.11163,-0.11024 -0.11163,-0.39963 v -0.83785 h -0.18603 v -0.19706 h 0.18603 v -0.43821 z"
         style="font-style:normal;font-variant:normal;font-weight:normal;font-stretch:normal;font-size:2.82222223px;font-family:sans-serif;-inkscape-font-specification:'sans-serif, Normal';font-variant-ligatures:normal;font-variant-caps:normal;font-variant-numeric:normal;font-feature-settings:normal;text-align:start;writing-mode:lr-tb;text-anchor:start;stroke-width:0.26458332"
         id="path929"
         inkscape:connector-curvature="0" />
    </g>
    <g
       aria-label="Y Offset"
       style="font-style:normal;font-variant:normal;font-weight:normal;font-stretch:normal;font-size:2.82222223px;line-height:1.25;font-family:sans-serif;-inkscape-font-specification:'sans-serif, Normal';font-variant-ligatures:normal;font-variant-caps:normal;font-variant-numeric:normal;font-feature-settings:normal;text-align:start;letter-spacing:0px;word-spacing:0px;writing-mode:lr-tb;text-anchor:start;fill:#000000;fill-opacity:1;stroke:none;stroke-width:0.26458332"
       id="text845"
       transform="translate(2.1166665)">
      <path
         d="m 105.22738,163.25655 h 0.29903 l 0.57051,0.84612 0.56637,-0.84612 h 0.29904 l -0.72761,1.07763 v 0.97978 h -0.27974 v -0.97978 z"
         style="font-style:normal;font-variant:normal;font-weight:normal;font-stretch:normal;font-size:2.82222223px;font-family:sans-serif;-inkscape-font-specification:'sans-serif, Normal';font-variant-ligatures:normal;font-variant-caps:normal;font-variant-numeric:normal;font-feature-settings:normal;text-align:start;writing-mode:lr-tb;text-anchor:start;stroke-width:0.26458332"
         id="path902"
         inkscape:connector-curvature="0" />
      <path
         d="m 108.96875,163.44535 q -0.30317,0 -0.48231,0.22599 -0.17777,0.226 -0.17777,0.61599 0,0.3886 0.17777,0.6146 0.17914,0.226 0.48231,0.226 0.30317,0 0.47956,-0.226 0.17776,-0.226 0.17776,-0.6146 0,-0.38999 -0.17776,-0.61599 -0.17639,-0.22599 -0.47956,-0.22599 z m 0,-0.226 q 0.4327,0 0.69177,0.29076 0.25907,0.28939 0.25907,0.77722 0,0.48644 -0.25907,0.77721 -0.25907,0.28939 -0.69177,0.28939 -0.43408,0 -0.69453,-0.28939 -0.25907,-0.28939 -0.25907,-0.77721 0,-0.48783 0.25907,-0.77722 0.26045,-0.29076 0.69453,-0.29076 z"
         style="font-style:normal;font-variant:normal;font-weight:normal;font-stretch:normal;font-size:2.82222223px;font-family:sans-serif;-inkscape-font-specification:'sans-serif, Normal';font-variant-ligatures:normal;font-variant-caps:normal;font-variant-numeric:normal;font-feature-settings:normal;text-align:start;writing-mode:lr-tb;text-anchor:start;stroke-width:0.26458332"
         id="path904"
         inkscape:connector-curvature="0" />
      <path
         d="m 111.12538,163.16974 v 0.21084 h -0.24254 q -0.13642,0 -0.19017,0.0551 -0.0524,0.0551 -0.0524,0.19844 v 0.13642 h 0.41754 v 0.19706 h -0.41754 v 1.34634 h -0.25494 v -1.34634 h -0.24253 v -0.19706 h 0.24253 v -0.10748 q 0,-0.2577 0.11989,-0.37483 0.11989,-0.11851 0.38034,-0.11851 z"
         style="font-style:normal;font-variant:normal;font-weight:normal;font-stretch:normal;font-size:2.82222223px;font-family:sans-serif;-inkscape-font-specification:'sans-serif, Normal';font-variant-ligatures:normal;font-variant-caps:normal;font-variant-numeric:normal;font-feature-settings:normal;text-align:start;writing-mode:lr-tb;text-anchor:start;stroke-width:0.26458332"
         id="path906"
         inkscape:connector-curvature="0" />
      <path
         d="m 112.11757,163.16974 v 0.21084 h -0.24254 q -0.13642,0 -0.19017,0.0551 -0.0524,0.0551 -0.0524,0.19844 v 0.13642 H 112.05 v 0.19706 h -0.41754 v 1.34634 h -0.25494 v -1.34634 h -0.24254 v -0.19706 h 0.24254 v -0.10748 q 0,-0.2577 0.11989,-0.37483 0.11989,-0.11851 0.38034,-0.11851 z"
         style="font-style:normal;font-variant:normal;font-weight:normal;font-stretch:normal;font-size:2.82222223px;font-family:sans-serif;-inkscape-font-specification:'sans-serif, Normal';font-variant-ligatures:normal;font-variant-caps:normal;font-variant-numeric:normal;font-feature-settings:normal;text-align:start;writing-mode:lr-tb;text-anchor:start;stroke-width:0.26458332"
         id="path908"
         inkscape:connector-curvature="0" />
      <path
         d="m 113.31233,163.81604 v 0.23978 q -0.10749,-0.0551 -0.22325,-0.0827 -0.11575,-0.0276 -0.23978,-0.0276 -0.18879,0 -0.28387,0.0579 -0.0937,0.0579 -0.0937,0.17363 0,0.0882 0.0675,0.13919 0.0675,0.0496 0.27147,0.0951 l 0.0868,0.0193 q 0.27009,0.0579 0.38309,0.16399 0.11438,0.10473 0.11438,0.29352 0,0.21497 -0.17088,0.34038 -0.1695,0.1254 -0.46715,0.1254 -0.12403,0 -0.25908,-0.0248 -0.13366,-0.0234 -0.28249,-0.0716 v -0.26183 q 0.14056,0.073 0.27698,0.11024 0.13643,0.0358 0.2701,0.0358 0.17914,0 0.27561,-0.0606 0.0965,-0.062 0.0965,-0.17364 0,-0.10335 -0.0703,-0.15847 -0.0689,-0.0551 -0.30455,-0.10611 l -0.0882,-0.0207 q -0.23565,-0.0496 -0.34038,-0.15158 -0.10473,-0.10336 -0.10473,-0.2825 0,-0.21773 0.15434,-0.33624 0.15434,-0.11851 0.43822,-0.11851 0.14056,0 0.26458,0.0207 0.12402,0.0207 0.22876,0.062 z"
         style="font-style:normal;font-variant:normal;font-weight:normal;font-stretch:normal;font-size:2.82222223px;font-family:sans-serif;-inkscape-font-specification:'sans-serif, Normal';font-variant-ligatures:normal;font-variant-caps:normal;font-variant-numeric:normal;font-feature-settings:normal;text-align:start;writing-mode:lr-tb;text-anchor:start;stroke-width:0.26458332"
         id="path910"
         inkscape:connector-curvature="0" />
      <path
         d="m 115.12031,164.47887 v 0.12403 h -1.16582 q 0.0165,0.26182 0.1571,0.39963 0.14194,0.13642 0.39412,0.13642 0.14607,0 0.28249,-0.0358 0.13781,-0.0358 0.27286,-0.10748 v 0.23978 q -0.13643,0.0579 -0.27975,0.0882 -0.14331,0.0303 -0.29076,0.0303 -0.36932,0 -0.58567,-0.21498 -0.21497,-0.21497 -0.21497,-0.58153 0,-0.37896 0.20395,-0.60082 0.20532,-0.22324 0.55259,-0.22324 0.31144,0 0.49196,0.20119 0.1819,0.19981 0.1819,0.54432 z m -0.25356,-0.0744 q -0.003,-0.20808 -0.11713,-0.33211 -0.113,-0.12402 -0.30041,-0.12402 -0.21222,0 -0.34038,0.11989 -0.12678,0.11989 -0.14607,0.33762 z"
         style="font-style:normal;font-variant:normal;font-weight:normal;font-stretch:normal;font-size:2.82222223px;font-family:sans-serif;-inkscape-font-specification:'sans-serif, Normal';font-variant-ligatures:normal;font-variant-caps:normal;font-variant-numeric:normal;font-feature-settings:normal;text-align:start;writing-mode:lr-tb;text-anchor:start;stroke-width:0.26458332"
         id="path912"
         inkscape:connector-curvature="0" />
      <path
         d="m 115.78728,163.33235 v 0.43821 h 0.52228 v 0.19706 h -0.52228 v 0.83785 q 0,0.18879 0.051,0.24253 0.0524,0.0538 0.21084,0.0538 h 0.26045 v 0.21221 h -0.26045 q -0.29352,0 -0.40514,-0.10886 -0.11163,-0.11024 -0.11163,-0.39963 v -0.83785 h -0.18603 v -0.19706 h 0.18603 v -0.43821 z"
         style="font-style:normal;font-variant:normal;font-weight:normal;font-stretch:normal;font-size:2.82222223px;font-family:sans-serif;-inkscape-font-specification:'sans-serif, Normal';font-variant-ligatures:normal;font-variant-caps:normal;font-variant-numeric:normal;font-feature-settings:normal;text-align:start;writing-mode:lr-tb;text-anchor:start;stroke-width:0.26458332"
         id="path914"
         inkscape:connector-curvature="0" />
    </g>
    <g
       aria-label="Reset"
       style="font-style:normal;font-variant:normal;font-weight:normal;font-stretch:normal;font-size:2.82222223px;line-height:1.25;font-family:sans-serif;-inkscape-font-specification:'sans-serif, Normal';font-variant-ligatures:normal;font-variant-caps:normal;font-variant-numeric:normal;font-feature-settings:normal;text-align:start;letter-spacing:0px;word-spacing:0px;writing-mode:lr-tb;text-anchor:start;fill:#000000;fill-opacity:1;stroke:none;stroke-width:0.26458332"
       id="text906"
       transform="translate(-2.6458331)">
      <path
         d="m 33.007891,254.18914 q 0.08957,0.0303 0.173633,0.12953 0.08544,0.0992 0.170877,0.27285 l 0.282498,0.56224 h -0.299034 l -0.263206,-0.52779 q -0.101975,-0.2067 -0.198437,-0.27423 -0.09509,-0.0675 -0.260449,-0.0675 h -0.303169 v 0.86954 H 32.03224 v -2.05741 h 0.628386 q 0.352778,0 0.52641,0.14745 0.173633,0.14745 0.173633,0.44511 0,0.1943 -0.09095,0.32246 -0.08957,0.12816 -0.261828,0.17777 z m -0.697287,-0.86403 v 0.73036 h 0.350022 q 0.201193,0 0.303168,-0.0923 0.103353,-0.0937 0.103353,-0.27423 0,-0.18052 -0.103353,-0.27148 -0.101975,-0.0923 -0.303168,-0.0923 z"
         style="font-style:normal;font-variant:normal;font-weight:normal;font-stretch:normal;font-size:2.82222223px;font-family:sans-serif;-inkscape-font-specification:'sans-serif, Normal';font-variant-ligatures:normal;font-variant-caps:normal;font-variant-numeric:normal;font-feature-settings:normal;text-align:start;writing-mode:lr-tb;text-anchor:start;stroke-width:0.26458332"
         id="path1014"
         inkscape:connector-curvature="0" />
      <path
         d="m 35.17968,254.31867 v 0.12403 h -1.165821 q 0.01654,0.26182 0.157097,0.39963 0.141938,0.13642 0.394119,0.13642 0.146072,0 0.282497,-0.0358 0.137804,-0.0358 0.272852,-0.10748 v 0.23977 q -0.136426,0.0579 -0.279742,0.0882 -0.143316,0.0303 -0.290766,0.0303 -0.369314,0 -0.585666,-0.21498 -0.214974,-0.21497 -0.214974,-0.58153 0,-0.37896 0.20395,-0.60082 0.205327,-0.22325 0.552593,-0.22325 0.311437,0 0.49196,0.2012 0.181901,0.19981 0.181901,0.54432 z m -0.253559,-0.0744 q -0.0028,-0.20809 -0.117134,-0.33211 -0.112999,-0.12402 -0.300412,-0.12402 -0.212218,0 -0.340375,0.11989 -0.12678,0.11989 -0.146072,0.33762 z"
         style="font-style:normal;font-variant:normal;font-weight:normal;font-stretch:normal;font-size:2.82222223px;font-family:sans-serif;-inkscape-font-specification:'sans-serif, Normal';font-variant-ligatures:normal;font-variant-caps:normal;font-variant-numeric:normal;font-feature-settings:normal;text-align:start;writing-mode:lr-tb;text-anchor:start;stroke-width:0.26458332"
         id="path1016"
         inkscape:connector-curvature="0" />
      <path
         d="m 36.582523,253.65584 v 0.23977 q -0.107487,-0.0551 -0.223242,-0.0827 -0.115756,-0.0276 -0.239779,-0.0276 -0.188791,0 -0.283876,0.0579 -0.09371,0.0579 -0.09371,0.17363 0,0.0882 0.06752,0.13918 0.06752,0.0496 0.271474,0.0951 l 0.08682,0.0193 q 0.270096,0.0579 0.383095,0.16399 0.114377,0.10473 0.114377,0.29352 0,0.21497 -0.170877,0.34037 -0.169498,0.12541 -0.467155,0.12541 -0.124023,0 -0.259071,-0.0248 -0.13367,-0.0234 -0.282498,-0.0717 v -0.26182 q 0.14056,0.073 0.276986,0.11024 0.136426,0.0358 0.270095,0.0358 0.179145,0 0.275608,-0.0606 0.09646,-0.062 0.09646,-0.17363 0,-0.10335 -0.07028,-0.15847 -0.0689,-0.0551 -0.304547,-0.10611 l -0.08819,-0.0207 q -0.235645,-0.0496 -0.340375,-0.15159 -0.104731,-0.10335 -0.104731,-0.28249 0,-0.21773 0.15434,-0.33625 0.15434,-0.11851 0.438216,-0.11851 0.14056,0 0.264583,0.0207 0.124024,0.0207 0.228755,0.062 z"
         style="font-style:normal;font-variant:normal;font-weight:normal;font-stretch:normal;font-size:2.82222223px;font-family:sans-serif;-inkscape-font-specification:'sans-serif, Normal';font-variant-ligatures:normal;font-variant-caps:normal;font-variant-numeric:normal;font-feature-settings:normal;text-align:start;writing-mode:lr-tb;text-anchor:start;stroke-width:0.26458332"
         id="path1018"
         inkscape:connector-curvature="0" />
      <path
         d="m 38.390509,254.31867 v 0.12403 h -1.165821 q 0.01654,0.26182 0.157097,0.39963 0.141938,0.13642 0.394119,0.13642 0.146072,0 0.282497,-0.0358 0.137804,-0.0358 0.272852,-0.10748 v 0.23977 q -0.136426,0.0579 -0.279742,0.0882 -0.143316,0.0303 -0.290766,0.0303 -0.369314,0 -0.585666,-0.21498 -0.214974,-0.21497 -0.214974,-0.58153 0,-0.37896 0.20395,-0.60082 0.205327,-0.22325 0.552593,-0.22325 0.311437,0 0.49196,0.2012 0.181901,0.19981 0.181901,0.54432 z m -0.253559,-0.0744 q -0.0028,-0.20809 -0.117134,-0.33211 -0.112999,-0.12402 -0.300412,-0.12402 -0.212218,0 -0.340375,0.11989 -0.12678,0.11989 -0.146073,0.33762 z"
         style="font-style:normal;font-variant:normal;font-weight:normal;font-stretch:normal;font-size:2.82222223px;font-family:sans-serif;-inkscape-font-specification:'sans-serif, Normal';font-variant-ligatures:normal;font-variant-caps:normal;font-variant-numeric:normal;font-feature-settings:normal;text-align:start;writing-mode:lr-tb;text-anchor:start;stroke-width:0.26458332"
         id="path1020"
         inkscape:connector-curvature="0" />
      <path
         d="m 39.057479,253.17214 v 0.43822 h 0.522277 v 0.19706 h -0.522277 v 0.83785 q 0,0.18879 0.05099,0.24253 0.05237,0.0537 0.21084,0.0537 h 0.26045 v 0.21222 h -0.26045 q -0.293522,0 -0.405143,-0.10886 -0.111621,-0.11025 -0.111621,-0.39963 v -0.83785 H 38.61651 v -0.19706 h 0.186035 v -0.43822 z"
         style="font-style:normal;font-variant:normal;font-weight:normal;font-stretch:normal;font-size:2.82222223px;font-family:sans-serif;-inkscape-font-specification:'sans-serif, Normal';font-variant-ligatures:normal;font-variant-caps:normal;font-variant-numeric:normal;font-feature-settings:normal;text-align:start;writing-mode:lr-tb;text-anchor:start;stroke-width:0.26458332"
         id="path1022"
         inkscape:connector-curvature="0" />
    </g>
    <g
       aria-label="Bump"
       style="font-style:normal;font-variant:normal;font-weight:normal;font-stretch:normal;font-size:2.82222223px;line-height:1.25;font-family:sans-serif;-inkscape-font-specification:'sans-serif, Normal';font-variant-ligatures:normal;font-variant-caps:normal;font-variant-numeric:normal;font-feature-settings:normal;text-align:start;letter-spacing:0px;word-spacing:0px;writing-mode:lr-tb;text-anchor:start;fill:#000000;fill-opacity:1;stroke:none;stroke-width:0.26458332"
       id="text910"
       transform="translate(-2.1166665,0.06664665)"
       inkscape:transform-center-x="-0.24650621"
       inkscape:transform-center-y="0.16433747">
      <path
         d="m 42.867754,254.08667 v 0.75379 h 0.446484 q 0.224621,0 0.332108,-0.0923 0.108865,-0.0937 0.108865,-0.28525 0,-0.19293 -0.108865,-0.28388 -0.107487,-0.0923 -0.332108,-0.0923 z m 0,-0.84611 v 0.62011 h 0.412033 q 0.20395,0 0.303169,-0.0758 0.100597,-0.0772 0.100597,-0.23426 0,-0.15572 -0.100597,-0.23289 -0.09922,-0.0772 -0.303169,-0.0772 z M 42.58939,253.0118 h 0.711068 q 0.318327,0 0.490582,0.13229 0.172254,0.1323 0.172254,0.37621 0,0.18879 -0.08819,0.30041 -0.08819,0.11162 -0.259071,0.13918 0.205327,0.0441 0.318327,0.18466 0.114377,0.13918 0.114377,0.34864 0,0.27561 -0.187413,0.42582 -0.187414,0.1502 -0.533301,0.1502 H 42.58939 Z"
         style="font-style:normal;font-variant:normal;font-weight:normal;font-stretch:normal;font-size:2.82222223px;font-family:sans-serif;-inkscape-font-specification:'sans-serif, Normal';font-variant-ligatures:normal;font-variant-caps:normal;font-variant-numeric:normal;font-feature-settings:normal;text-align:start;writing-mode:lr-tb;text-anchor:start;stroke-width:0.26458332"
         id="path1005"
         inkscape:connector-curvature="0" />
      <path
         d="m 44.486949,254.46012 v -0.93431 h 0.253559 v 0.92466 q 0,0.21911 0.08544,0.32936 0.08544,0.10886 0.256315,0.10886 0.205328,0 0.323839,-0.13091 0.11989,-0.13092 0.11989,-0.35691 v -0.87506 h 0.253559 v 1.5434 H 45.52599 v -0.23702 q -0.09233,0.14056 -0.214974,0.20946 -0.121268,0.0675 -0.282498,0.0675 -0.265962,0 -0.403765,-0.16537 -0.137804,-0.16536 -0.137804,-0.48369 z"
         style="font-style:normal;font-variant:normal;font-weight:normal;font-stretch:normal;font-size:2.82222223px;font-family:sans-serif;-inkscape-font-specification:'sans-serif, Normal';font-variant-ligatures:normal;font-variant-caps:normal;font-variant-numeric:normal;font-feature-settings:normal;text-align:start;writing-mode:lr-tb;text-anchor:start;stroke-width:0.26458332"
         id="path1007"
         inkscape:connector-curvature="0" />
      <path
         d="m 47.506231,253.82209 q 0.09508,-0.17088 0.227376,-0.25218 0.132292,-0.0813 0.311437,-0.0813 0.241156,0 0.37207,0.1695 0.130914,0.16812 0.130914,0.47956 v 0.93155 H 48.29309 v -0.92328 q 0,-0.22187 -0.07855,-0.32935 -0.07855,-0.10749 -0.239778,-0.10749 -0.19706,0 -0.311437,0.13091 -0.114377,0.13092 -0.114377,0.35692 v 0.87229 h -0.254937 v -0.92328 q 0,-0.22324 -0.07855,-0.32935 -0.07855,-0.10749 -0.242535,-0.10749 -0.194303,0 -0.308681,0.13229 -0.114377,0.13092 -0.114377,0.35554 v 0.87229 h -0.254937 v -1.5434 h 0.254937 v 0.23978 q 0.08682,-0.14194 0.208084,-0.20946 0.121267,-0.0675 0.28801,-0.0675 0.168121,0 0.285254,0.0854 0.118511,0.0854 0.175011,0.24805 z"
         style="font-style:normal;font-variant:normal;font-weight:normal;font-stretch:normal;font-size:2.82222223px;font-family:sans-serif;-inkscape-font-specification:'sans-serif, Normal';font-variant-ligatures:normal;font-variant-caps:normal;font-variant-numeric:normal;font-feature-settings:normal;text-align:start;writing-mode:lr-tb;text-anchor:start;stroke-width:0.26458332"
         id="path1009"
         inkscape:connector-curvature="0" />
      <path
         d="m 49.300436,254.8377 v 0.81856 h -0.254937 v -2.13045 h 0.254937 v 0.23427 q 0.07993,-0.13781 0.201194,-0.20395 0.122645,-0.0675 0.292144,-0.0675 0.28112,0 0.456131,0.22325 0.176388,0.22324 0.176388,0.58704 0,0.3638 -0.176388,0.58704 -0.175011,0.22325 -0.456131,0.22325 -0.169499,0 -0.292144,-0.0662 -0.121268,-0.0675 -0.201194,-0.20533 z m 0.862652,-0.53881 q 0,-0.27974 -0.115755,-0.43822 -0.114377,-0.15985 -0.315571,-0.15985 -0.201193,0 -0.316949,0.15985 -0.114377,0.15848 -0.114377,0.43822 0,0.27974 0.114377,0.43959 0.115756,0.15848 0.316949,0.15848 0.201194,0 0.315571,-0.15848 0.115755,-0.15985 0.115755,-0.43959 z"
         style="font-style:normal;font-variant:normal;font-weight:normal;font-stretch:normal;font-size:2.82222223px;font-family:sans-serif;-inkscape-font-specification:'sans-serif, Normal';font-variant-ligatures:normal;font-variant-caps:normal;font-variant-numeric:normal;font-feature-settings:normal;text-align:start;writing-mode:lr-tb;text-anchor:start;stroke-width:0.26458332"
         id="path1011"
         inkscape:connector-curvature="0" />
    </g>
    <g
       aria-label="VelX"
       style="font-style:normal;font-variant:normal;font-weight:normal;font-stretch:normal;font-size:2.82222223px;line-height:1.25;font-family:sans-serif;-inkscape-font-specification:'sans-serif, Normal';font-variant-ligatures:normal;font-variant-caps:normal;font-variant-numeric:normal;font-feature-settings:normal;text-align:start;letter-spacing:0px;word-spacing:0px;writing-mode:lr-tb;text-anchor:start;fill:#000000;fill-opacity:1;stroke:none;stroke-width:0.26458332"
       id="text914"
       transform="translate(-1.0583333,-0.04342)">
      <path
         d="m 54.211621,255.19717 -0.785482,-2.05741 h 0.290767 l 0.651812,1.7322 0.65319,-1.7322 h 0.289388 l -0.784104,2.05741 z"
         style="font-style:normal;font-variant:normal;font-weight:normal;font-stretch:normal;font-size:2.82222223px;font-family:sans-serif;-inkscape-font-specification:'sans-serif, Normal';font-variant-ligatures:normal;font-variant-caps:normal;font-variant-numeric:normal;font-feature-settings:normal;text-align:start;writing-mode:lr-tb;text-anchor:start;stroke-width:0.26458332"
         id="path996"
         inkscape:connector-curvature="0" />
      <path
         d="m 56.69898,254.36208 v 0.12403 h -1.16582 q 0.01654,0.26182 0.157096,0.39963 0.141938,0.13642 0.394119,0.13642 0.146072,0 0.282498,-0.0358 0.137804,-0.0358 0.272852,-0.10748 v 0.23978 q -0.136426,0.0579 -0.279742,0.0882 -0.143316,0.0303 -0.290766,0.0303 -0.369315,0 -0.585667,-0.21498 -0.214974,-0.21497 -0.214974,-0.58153 0,-0.37896 0.20395,-0.60082 0.205328,-0.22325 0.552593,-0.22325 0.311437,0 0.49196,0.2012 0.181901,0.19981 0.181901,0.54432 z m -0.253559,-0.0744 q -0.0028,-0.20808 -0.117133,-0.33211 -0.112999,-0.12402 -0.300412,-0.12402 -0.212218,0 -0.340376,0.11989 -0.126779,0.11989 -0.146072,0.33762 z"
         style="font-style:normal;font-variant:normal;font-weight:normal;font-stretch:normal;font-size:2.82222223px;font-family:sans-serif;-inkscape-font-specification:'sans-serif, Normal';font-variant-ligatures:normal;font-variant-caps:normal;font-variant-numeric:normal;font-feature-settings:normal;text-align:start;writing-mode:lr-tb;text-anchor:start;stroke-width:0.26458332"
         id="path998"
         inkscape:connector-curvature="0" />
      <path
         d="m 57.115148,253.05295 h 0.253559 v 2.14422 h -0.253559 z"
         style="font-style:normal;font-variant:normal;font-weight:normal;font-stretch:normal;font-size:2.82222223px;font-family:sans-serif;-inkscape-font-specification:'sans-serif, Normal';font-variant-ligatures:normal;font-variant-caps:normal;font-variant-numeric:normal;font-feature-settings:normal;text-align:start;writing-mode:lr-tb;text-anchor:start;stroke-width:0.26458332"
         id="path1000"
         inkscape:connector-curvature="0" />
      <path
         d="m 57.809679,253.13976 h 0.299034 l 0.511253,0.76481 0.514008,-0.76481 h 0.299034 l -0.661458,0.98806 0.705555,1.06935 h -0.299034 l -0.578776,-0.87505 -0.58291,0.87505 h -0.300412 l 0.734494,-1.09829 z"
         style="font-style:normal;font-variant:normal;font-weight:normal;font-stretch:normal;font-size:2.82222223px;font-family:sans-serif;-inkscape-font-specification:'sans-serif, Normal';font-variant-ligatures:normal;font-variant-caps:normal;font-variant-numeric:normal;font-feature-settings:normal;text-align:start;writing-mode:lr-tb;text-anchor:start;stroke-width:0.26458332"
         id="path1002"
         inkscape:connector-curvature="0" />
    </g>
    <g
       aria-label="VelY"
       style="font-style:normal;font-variant:normal;font-weight:normal;font-stretch:normal;font-size:2.82222223px;line-height:1.25;font-family:sans-serif;-inkscape-font-specification:'sans-serif, Normal';font-variant-ligatures:normal;font-variant-caps:normal;font-variant-numeric:normal;font-feature-settings:normal;text-align:start;letter-spacing:0px;word-spacing:0px;writing-mode:lr-tb;text-anchor:start;fill:#000000;fill-opacity:1;stroke:none;stroke-width:0.26458332"
       id="text918"
       transform="translate(-1.0583333,-0.04342)">
      <path
         d="m 62.517121,255.19717 -0.785481,-2.05741 h 0.290766 l 0.651812,1.7322 0.65319,-1.7322 h 0.289388 l -0.784104,2.05741 z"
         style="font-style:normal;font-variant:normal;font-weight:normal;font-stretch:normal;font-size:2.82222223px;font-family:sans-serif;-inkscape-font-specification:'sans-serif, Normal';font-variant-ligatures:normal;font-variant-caps:normal;font-variant-numeric:normal;font-feature-settings:normal;text-align:start;writing-mode:lr-tb;text-anchor:start;stroke-width:0.26458332"
         id="path987"
         inkscape:connector-curvature="0" />
      <path
         d="m 65.00448,254.36208 v 0.12403 h -1.16582 q 0.01654,0.26182 0.157096,0.39963 0.141938,0.13642 0.394119,0.13642 0.146072,0 0.282498,-0.0358 0.137804,-0.0358 0.272852,-0.10748 v 0.23978 q -0.136426,0.0579 -0.279742,0.0882 -0.143316,0.0303 -0.290766,0.0303 -0.369315,0 -0.585667,-0.21498 -0.214973,-0.21497 -0.214973,-0.58153 0,-0.37896 0.203949,-0.60082 0.205328,-0.22325 0.552593,-0.22325 0.311437,0 0.49196,0.2012 0.181901,0.19981 0.181901,0.54432 z m -0.253559,-0.0744 q -0.0028,-0.20808 -0.117133,-0.33211 -0.112999,-0.12402 -0.300412,-0.12402 -0.212218,0 -0.340376,0.11989 -0.126779,0.11989 -0.146072,0.33762 z"
         style="font-style:normal;font-variant:normal;font-weight:normal;font-stretch:normal;font-size:2.82222223px;font-family:sans-serif;-inkscape-font-specification:'sans-serif, Normal';font-variant-ligatures:normal;font-variant-caps:normal;font-variant-numeric:normal;font-feature-settings:normal;text-align:start;writing-mode:lr-tb;text-anchor:start;stroke-width:0.26458332"
         id="path989"
         inkscape:connector-curvature="0" />
      <path
         d="m 65.420648,253.05295 h 0.253559 v 2.14422 h -0.253559 z"
         style="font-style:normal;font-variant:normal;font-weight:normal;font-stretch:normal;font-size:2.82222223px;font-family:sans-serif;-inkscape-font-specification:'sans-serif, Normal';font-variant-ligatures:normal;font-variant-caps:normal;font-variant-numeric:normal;font-feature-settings:normal;text-align:start;writing-mode:lr-tb;text-anchor:start;stroke-width:0.26458332"
         id="path991"
         inkscape:connector-curvature="0" />
      <path
         d="m 65.9319,253.13976 h 0.299034 l 0.570508,0.84612 0.566374,-0.84612 h 0.299034 l -0.727604,1.07763 v 0.97978 h -0.279742 v -0.97978 z"
         style="font-style:normal;font-variant:normal;font-weight:normal;font-stretch:normal;font-size:2.82222223px;font-family:sans-serif;-inkscape-font-specification:'sans-serif, Normal';font-variant-ligatures:normal;font-variant-caps:normal;font-variant-numeric:normal;font-feature-settings:normal;text-align:start;writing-mode:lr-tb;text-anchor:start;stroke-width:0.26458332"
         id="path993"
         inkscape:connector-curvature="0" />
    </g>
    <path
       inkscape:connector-curvature="0"
       id="path984"
       style="font-style:normal;font-variant:normal;font-weight:normal;font-stretch:normal;font-size:2.82222223px;line-height:1.25;font-family:sans-serif;-inkscape-font-specification:'sans-serif, Normal';font-variant-ligatures:normal;font-variant-caps:normal;font-variant-numeric:normal;font-feature-settings:normal;text-align:start;letter-spacing:0px;word-spacing:0px;writing-mode:lr-tb;text-anchor:start;fill:#000000;fill-opacity:1;stroke:none;stroke-width:0.26458332"
       d="m 86.962201,253.13633 h 0.299035 l 0.511252,0.76481 0.514008,-0.76481 h 0.299034 l -0.661458,0.98806 0.705556,1.06935 h -0.299035 l -0.578776,-0.87505 -0.58291,0.87505 h -0.300412 l 0.734494,-1.09829 z" />
    <path
       inkscape:connector-curvature="0"
       id="path973"
       style="font-style:normal;font-variant:normal;font-weight:normal;font-stretch:normal;font-size:2.82222223px;line-height:1.25;font-family:sans-serif;-inkscape-font-specification:'sans-serif, Normal';font-variant-ligatures:normal;font-variant-caps:normal;font-variant-numeric:normal;font-feature-settings:normal;text-align:start;letter-spacing:0px;word-spacing:0px;writing-mode:lr-tb;text-anchor:start;fill:#000000;fill-opacity:1;stroke:none;stroke-width:0.26458332"
       d="m 93.616731,253.13633 h 0.299035 l 0.570507,0.84612 0.566374,-0.84612 h 0.299034 l -0.727604,1.07763 v 0.97978 h -0.279742 v -0.97978 z" />
    <g
       aria-label="N"
       style="font-style:normal;font-variant:normal;font-weight:normal;font-stretch:normal;font-size:2.82222223px;line-height:1.25;font-family:sans-serif;-inkscape-font-specification:'sans-serif, Normal';font-variant-ligatures:normal;font-variant-caps:normal;font-variant-numeric:normal;font-feature-settings:normal;text-align:start;letter-spacing:0px;word-spacing:0px;writing-mode:lr-tb;text-anchor:start;fill:#000000;fill-opacity:1;stroke:none;stroke-width:0.26458332"
       id="text934"
       transform="translate(0.52480785,0.01999)">
      <path
         d="m 100.89577,253.11634 h 0.37482 l 0.91227,1.72117 v -1.72117 h 0.27009 v 2.05741 h -0.37483 l -0.91226,-1.72117 v 1.72117 h -0.27009 z"
         style="font-style:normal;font-variant:normal;font-weight:normal;font-stretch:normal;font-size:2.82222223px;font-family:sans-serif;-inkscape-font-specification:'sans-serif, Normal';font-variant-ligatures:normal;font-variant-caps:normal;font-variant-numeric:normal;font-feature-settings:normal;text-align:start;writing-mode:lr-tb;text-anchor:start;stroke-width:0.26458332"
         id="path959"
         inkscape:connector-curvature="0" />
    </g>
    <g
       aria-label="S"
       style="font-style:normal;font-variant:normal;font-weight:normal;font-stretch:normal;font-size:2.82222223px;line-height:1.25;font-family:sans-serif;-inkscape-font-specification:'sans-serif, Normal';font-variant-ligatures:normal;font-variant-caps:normal;font-variant-numeric:normal;font-feature-settings:normal;text-align:start;letter-spacing:0px;word-spacing:0px;writing-mode:lr-tb;text-anchor:start;fill:#000000;fill-opacity:1;stroke:none;stroke-width:0.26458332"
       id="text938"
       transform="translate(6.906845,-0.01855)">
      <path
         d="m 106.86243,253.18248 v 0.27147 q -0.15848,-0.0758 -0.29904,-0.113 -0.14056,-0.0372 -0.27147,-0.0372 -0.22738,0 -0.3514,0.0882 -0.12265,0.0882 -0.12265,0.2508 0,0.13643 0.0813,0.20671 0.0827,0.0689 0.31143,0.11162 l 0.16813,0.0344 q 0.31143,0.0592 0.45888,0.20946 0.14883,0.14883 0.14883,0.39963 0,0.29904 -0.20119,0.45338 -0.19982,0.15434 -0.58705,0.15434 -0.14607,0 -0.31143,-0.0331 -0.16399,-0.0331 -0.34038,-0.0978 v -0.28663 q 0.1695,0.0951 0.33211,0.14332 0.16261,0.0482 0.3197,0.0482 0.2384,0 0.36794,-0.0937 0.12953,-0.0937 0.12953,-0.26734 0,-0.15158 -0.0937,-0.23702 -0.0923,-0.0854 -0.30455,-0.12816 l -0.1695,-0.0331 q -0.31143,-0.062 -0.45062,-0.1943 -0.13918,-0.1323 -0.13918,-0.36794 0,-0.27285 0.19155,-0.42995 0.19292,-0.15709 0.53054,-0.15709 0.1447,0 0.2949,0.0262 0.15021,0.0262 0.30731,0.0786 z"
         style="font-style:normal;font-variant:normal;font-weight:normal;font-stretch:normal;font-size:2.82222223px;font-family:sans-serif;-inkscape-font-specification:'sans-serif, Normal';font-variant-ligatures:normal;font-variant-caps:normal;font-variant-numeric:normal;font-feature-settings:normal;text-align:start;writing-mode:lr-tb;text-anchor:start;stroke-width:0.26458332"
         id="path956"
         inkscape:connector-curvature="0" />
    </g>
    <g
       aria-label="E"
       style="font-style:normal;font-variant:normal;font-weight:normal;font-stretch:normal;font-size:2.82222223px;line-height:1.25;font-family:sans-serif;-inkscape-font-specification:'sans-serif, Normal';font-variant-ligatures:normal;font-variant-caps:normal;font-variant-numeric:normal;font-feature-settings:normal;text-align:start;letter-spacing:0px;word-spacing:0px;writing-mode:lr-tb;text-anchor:start;fill:#000000;fill-opacity:1;stroke:none;stroke-width:0.26458332"
       id="text942"
       transform="translate(-2.9846223,0.01999)">
      <path
         d="m 109.96145,253.11634 h 1.30087 v 0.23427 h -1.02251 v 0.60909 h 0.97979 v 0.23427 h -0.97979 v 0.74552 h 1.04731 v 0.23426 h -1.32567 z"
         style="font-style:normal;font-variant:normal;font-weight:normal;font-stretch:normal;font-size:2.82222223px;font-family:sans-serif;-inkscape-font-specification:'sans-serif, Normal';font-variant-ligatures:normal;font-variant-caps:normal;font-variant-numeric:normal;font-feature-settings:normal;text-align:start;writing-mode:lr-tb;text-anchor:start;stroke-width:0.26458332"
         id="path952"
         inkscape:connector-curvature="0" />
    </g>
    <g
       aria-label="W"
       style="font-style:normal;font-variant:normal;font-weight:normal;font-stretch:normal;font-size:2.82222223px;line-height:1.25;font-family:sans-serif;-inkscape-font-specification:'sans-serif, Normal';font-variant-ligatures:normal;font-variant-caps:normal;font-variant-numeric:normal;font-feature-settings:normal;text-align:start;letter-spacing:0px;word-spacing:0px;writing-mode:lr-tb;text-anchor:start;fill:#000000;fill-opacity:1;stroke:none;stroke-width:0.26458332"
       id="text946"
       transform="translate(2.3271507,0.01999)">
      <path
         d="m 114.43926,253.11634 h 0.28112 l 0.4327,1.73909 0.43133,-1.73909 h 0.31281 l 0.43271,1.73909 0.43132,-1.73909 h 0.2825 l -0.51676,2.05741 h -0.35003 l -0.43408,-1.78594 -0.43821,1.78594 h -0.35003 z"
         style="font-style:normal;font-variant:normal;font-weight:normal;font-stretch:normal;font-size:2.82222223px;font-family:sans-serif;-inkscape-font-specification:'sans-serif, Normal';font-variant-ligatures:normal;font-variant-caps:normal;font-variant-numeric:normal;font-feature-settings:normal;text-align:start;writing-mode:lr-tb;text-anchor:start;stroke-width:0.26458332"
         id="path948"
         inkscape:connector-curvature="0" />
    </g>
    <g
       aria-label="BouncyBall"
       style="font-style:normal;font-variant:normal;font-weight:bold;font-stretch:normal;font-size:3.17499995px;line-height:1.25;font-family:monospace;-inkscape-font-specification:'monospace, Bold';font-variant-ligatures:normal;font-variant-caps:normal;font-variant-numeric:normal;font-feature-settings:normal;text-align:start;letter-spacing:0px;word-spacing:0px;writing-mode:lr-tb;text-anchor:start;fill:#1996fc;fill-opacity:1;stroke:none;stroke-width:0.26458332"
       id="text1027">
      <path
         d="m 34.738644,164.2242 v 0.68523 h 0.303857 q 0.218591,0 0.305408,-0.0744 0.08837,-0.0744 0.08837,-0.2589 0,-0.18759 -0.09147,-0.26975 -0.09147,-0.0822 -0.302307,-0.0822 z m 0,-0.90227 v 0.53795 h 0.303857 q 0.173633,0 0.246497,-0.062 0.07441,-0.062 0.07441,-0.20464 0,-0.14263 -0.07596,-0.20619 -0.07441,-0.0651 -0.244946,-0.0651 z m -0.441834,-0.36432 h 0.745691 q 0.386023,0 0.57981,0.14728 0.195337,0.14573 0.195337,0.43718 0,0.22324 -0.114722,0.34882 -0.114722,0.12557 -0.336414,0.14573 0.2651,0.0264 0.398426,0.17828 0.134875,0.15193 0.134875,0.42478 0,0.33486 -0.201538,0.48524 -0.201538,0.15038 -0.655774,0.15038 H 34.29681 Z"
         style="font-style:normal;font-variant:normal;font-weight:bold;font-stretch:normal;font-size:3.17499995px;font-family:monospace;-inkscape-font-specification:'monospace, Bold';font-variant-ligatures:normal;font-variant-caps:normal;font-variant-numeric:normal;font-feature-settings:normal;text-align:start;writing-mode:lr-tb;text-anchor:start;fill:#1996fc;fill-opacity:1;stroke-width:0.26458332"
         id="path1029" />
      <path
         d="m 36.967965,163.86608 q -0.162781,0 -0.255798,0.14418 -0.09302,0.14263 -0.09302,0.39843 0,0.25579 0.09302,0.39997 0.09302,0.14263 0.255798,0.14263 0.164331,0 0.257348,-0.14263 0.09302,-0.14418 0.09302,-0.39997 0,-0.2558 -0.09302,-0.39843 -0.09302,-0.14418 -0.257348,-0.14418 z m -0.803052,0.54261 q 0,-0.42013 0.217041,-0.66508 0.218591,-0.2465 0.586011,-0.2465 0.36897,0 0.586011,0.2465 0.218591,0.24495 0.218591,0.66508 0,0.42012 -0.218591,0.66662 -0.217041,0.24495 -0.586011,0.24495 -0.36742,0 -0.586011,-0.24495 -0.217041,-0.2465 -0.217041,-0.66662 z"
         style="font-style:normal;font-variant:normal;font-weight:bold;font-stretch:normal;font-size:3.17499995px;font-family:monospace;-inkscape-font-specification:'monospace, Bold';font-variant-ligatures:normal;font-variant-caps:normal;font-variant-numeric:normal;font-feature-settings:normal;text-align:start;writing-mode:lr-tb;text-anchor:start;fill:#1996fc;fill-opacity:1;stroke-width:0.26458332"
         id="path1031" />
      <path
         d="m 38.170992,164.66913 v -1.13016 h 0.454236 v 1.0604 q 0,0.18759 0.05271,0.2682 0.05271,0.0806 0.175183,0.0806 0.122473,0 0.190686,-0.10852 0.06976,-0.10852 0.06976,-0.30386 v -0.99684 h 0.454236 v 1.73633 H 39.11357 v -0.25735 q -0.04806,0.14418 -0.164331,0.22324 -0.114721,0.0791 -0.277502,0.0791 -0.248047,0 -0.375171,-0.16433 -0.125574,-0.16433 -0.125574,-0.4868 z"
         style="font-style:normal;font-variant:normal;font-weight:bold;font-stretch:normal;font-size:3.17499995px;font-family:monospace;-inkscape-font-specification:'monospace, Bold';font-variant-ligatures:normal;font-variant-caps:normal;font-variant-numeric:normal;font-feature-settings:normal;text-align:start;writing-mode:lr-tb;text-anchor:start;fill:#1996fc;fill-opacity:1;stroke-width:0.26458332"
         id="path1033" />
      <path
         d="m 41.49327,164.14824 v 1.12706 h -0.451135 v -1.0573 q 0,-0.18914 -0.05426,-0.26975 -0.05271,-0.0822 -0.173632,-0.0822 -0.122473,0 -0.193787,0.11007 -0.06976,0.11007 -0.06976,0.30541 v 0.99374 h -0.451135 v -1.73633 h 0.451135 v 0.26045 q 0.04806,-0.14418 0.164331,-0.22324 0.116272,-0.0791 0.280603,-0.0791 0.246497,0 0.37207,0.16433 0.125574,0.16278 0.125574,0.4868 z"
         style="font-style:normal;font-variant:normal;font-weight:bold;font-stretch:normal;font-size:3.17499995px;font-family:monospace;-inkscape-font-specification:'monospace, Bold';font-variant-ligatures:normal;font-variant-caps:normal;font-variant-numeric:normal;font-feature-settings:normal;text-align:start;writing-mode:lr-tb;text-anchor:start;fill:#1996fc;fill-opacity:1;stroke-width:0.26458332"
         id="path1035" />
      <path
         d="m 43.387728,165.18693 q -0.114722,0.0667 -0.246497,0.0992 -0.131775,0.0341 -0.283703,0.0341 -0.401526,0 -0.627869,-0.24185 -0.226343,-0.24184 -0.226343,-0.66972 0,-0.42944 0.227893,-0.67128 0.227893,-0.2434 0.629419,-0.2434 0.139527,0 0.268201,0.0326 0.130224,0.0326 0.258899,0.10077 v 0.41548 q -0.09922,-0.0853 -0.218591,-0.13023 -0.117823,-0.0465 -0.244947,-0.0465 -0.221692,0 -0.341064,0.14108 -0.119373,0.14108 -0.119373,0.40153 0,0.26044 0.119373,0.39997 0.119372,0.13953 0.341064,0.13953 0.131775,0 0.246497,-0.0434 0.114721,-0.045 0.217041,-0.13488 z"
         style="font-style:normal;font-variant:normal;font-weight:bold;font-stretch:normal;font-size:3.17499995px;font-family:monospace;-inkscape-font-specification:'monospace, Bold';font-variant-ligatures:normal;font-variant-caps:normal;font-variant-numeric:normal;font-feature-settings:normal;text-align:start;writing-mode:lr-tb;text-anchor:start;fill:#1996fc;fill-opacity:1;stroke-width:0.26458332"
         id="path1037" />
      <path
         d="m 44.755087,165.46288 q -0.09147,0.24495 -0.220142,0.35657 -0.127124,0.11317 -0.310059,0.11317 h -0.375171 v -0.34571 H 44.0342 q 0.139527,0 0.204639,-0.0481 0.06511,-0.0465 0.131775,-0.21859 l 0.03411,-0.093 -0.660424,-1.68827 h 0.47749 l 0.396875,1.12706 0.379821,-1.12706 h 0.477491 z"
         style="font-style:normal;font-variant:normal;font-weight:bold;font-stretch:normal;font-size:3.17499995px;font-family:monospace;-inkscape-font-specification:'monospace, Bold';font-variant-ligatures:normal;font-variant-caps:normal;font-variant-numeric:normal;font-feature-settings:normal;text-align:start;writing-mode:lr-tb;text-anchor:start;fill:#1996fc;fill-opacity:1;stroke-width:0.26458332"
         id="path1039" />
      <path
         d="m 46.198409,164.2242 v 0.68523 h 0.303857 q 0.218592,0 0.305408,-0.0744 0.08837,-0.0744 0.08837,-0.2589 0,-0.18759 -0.09147,-0.26975 -0.09147,-0.0822 -0.302308,-0.0822 z m 0,-0.90227 v 0.53795 h 0.303857 q 0.173633,0 0.246497,-0.062 0.07441,-0.062 0.07441,-0.20464 0,-0.14263 -0.07596,-0.20619 -0.07441,-0.0651 -0.244947,-0.0651 z m -0.441833,-0.36432 h 0.74569 q 0.386023,0 0.57981,0.14728 0.195337,0.14573 0.195337,0.43718 0,0.22324 -0.114722,0.34882 -0.114721,0.12557 -0.336413,0.14573 0.2651,0.0264 0.398425,0.17828 0.134875,0.15193 0.134875,0.42478 0,0.33486 -0.201538,0.48524 -0.201538,0.15038 -0.655774,0.15038 h -0.74569 z"
         style="font-style:normal;font-variant:normal;font-weight:bold;font-stretch:normal;font-size:3.17499995px;font-family:monospace;-inkscape-font-specification:'monospace, Bold';font-variant-ligatures:normal;font-variant-caps:normal;font-variant-numeric:normal;font-feature-settings:normal;text-align:start;writing-mode:lr-tb;text-anchor:start;fill:#1996fc;fill-opacity:1;stroke-width:0.26458332"
         id="path1041" />
      <path
         d="m 48.557955,164.45984 q -0.254248,0 -0.355017,0.0651 -0.100769,0.0651 -0.100769,0.22324 0,0.11782 0.06976,0.18758 0.06976,0.0698 0.189136,0.0698 0.179834,0 0.279052,-0.13488 0.09922,-0.13642 0.09922,-0.37982 v -0.031 z m 0.632519,-0.17518 v 0.99064 h -0.451135 v -0.19379 q -0.08217,0.11472 -0.21084,0.17674 -0.128674,0.062 -0.283703,0.062 -0.296106,0 -0.461988,-0.15658 -0.164331,-0.15658 -0.164331,-0.43718 0,-0.30386 0.196887,-0.44804 0.196888,-0.14573 0.609266,-0.14573 h 0.314709 v -0.076 q 0,-0.11007 -0.08062,-0.16588 -0.07906,-0.0574 -0.234094,-0.0574 -0.162781,0 -0.31626,0.0419 -0.151929,0.0403 -0.31781,0.13023 v -0.38757 q 0.150378,-0.062 0.305407,-0.0915 0.15503,-0.0295 0.328663,-0.0295 0.42323,0 0.593762,0.17209 0.172082,0.17208 0.172082,0.61546 z"
         style="font-style:normal;font-variant:normal;font-weight:bold;font-stretch:normal;font-size:3.17499995px;font-family:monospace;-inkscape-font-specification:'monospace, Bold';font-variant-ligatures:normal;font-variant-caps:normal;font-variant-numeric:normal;font-feature-settings:normal;text-align:start;writing-mode:lr-tb;text-anchor:start;fill:#1996fc;fill-opacity:1;stroke-width:0.26458332"
         id="path1043" />
      <path
         d="m 49.982674,164.55131 v -1.33945 h -0.460437 v -0.34882 h 0.914673 v 1.68827 q 0,0.20464 0.06356,0.28991 0.06356,0.0853 0.21549,0.0853 h 0.362769 v 0.34882 h -0.489893 q -0.324011,0 -0.465088,-0.16743 -0.141076,-0.16743 -0.141076,-0.55656 z"
         style="font-style:normal;font-variant:normal;font-weight:bold;font-stretch:normal;font-size:3.17499995px;font-family:monospace;-inkscape-font-specification:'monospace, Bold';font-variant-ligatures:normal;font-variant-caps:normal;font-variant-numeric:normal;font-feature-settings:normal;text-align:start;writing-mode:lr-tb;text-anchor:start;fill:#1996fc;fill-opacity:1;stroke-width:0.26458332"
         id="path1045" />
      <path
         d="m 51.892635,164.55131 v -1.33945 h -0.460437 v -0.34882 h 0.914672 v 1.68827 q 0,0.20464 0.06356,0.28991 0.06356,0.0853 0.215491,0.0853 h 0.362769 v 0.34882 h -0.489893 q -0.324011,0 -0.465088,-0.16743 -0.141076,-0.16743 -0.141076,-0.55656 z"
         style="font-style:normal;font-variant:normal;font-weight:bold;font-stretch:normal;font-size:3.17499995px;font-family:monospace;-inkscape-font-specification:'monospace, Bold';font-variant-ligatures:normal;font-variant-caps:normal;font-variant-numeric:normal;font-feature-settings:normal;text-align:start;writing-mode:lr-tb;text-anchor:start;fill:#1996fc;fill-opacity:1;stroke-width:0.26458332"
         id="path1047" />
    </g>
    <g
       aria-label="SPD"
       style="font-style:normal;font-variant:normal;font-weight:normal;font-stretch:normal;font-size:2.82222223px;line-height:1.25;font-family:monospace;-inkscape-font-specification:'monospace, Normal';font-variant-ligatures:normal;font-variant-caps:normal;font-variant-numeric:normal;font-feature-settings:normal;text-align:start;letter-spacing:0px;word-spacing:0px;writing-mode:lr-tb;text-anchor:start;fill:#000000;fill-opacity:1;stroke:none;stroke-width:0.26458332"
       id="text1066">
      <path
         d="m 71.140745,253.16665 v 0.28249 q -0.12678,-0.0813 -0.254937,-0.12264 -0.12678,-0.0413 -0.256315,-0.0413 -0.19706,0 -0.311437,0.0923 -0.114377,0.0909 -0.114377,0.24667 0,0.13642 0.07441,0.20808 0.07579,0.0717 0.28112,0.11989 l 0.146072,0.0331 q 0.289388,0.0675 0.421679,0.21222 0.132292,0.14469 0.132292,0.39412 0,0.29352 -0.181901,0.44786 -0.181901,0.15434 -0.529167,0.15434 -0.144694,0 -0.290766,-0.0317 -0.146072,-0.0303 -0.293522,-0.0923 v -0.29628 q 0.158474,0.1006 0.299034,0.14745 0.141938,0.0468 0.285254,0.0468 0.21084,0 0.327973,-0.0937 0.117134,-0.0951 0.117134,-0.26459 0,-0.15434 -0.08131,-0.23564 -0.07993,-0.0813 -0.279741,-0.1254 l -0.148829,-0.0345 q -0.286631,-0.0648 -0.416167,-0.19569 -0.129536,-0.13091 -0.129536,-0.3514 0,-0.2756 0.184657,-0.44097 0.186036,-0.16674 0.493338,-0.16674 0.118511,0 0.249425,0.0276 0.130914,0.0262 0.275608,0.0799 z"
         style="font-style:normal;font-variant:normal;font-weight:normal;font-stretch:normal;font-size:2.82222223px;font-family:monospace;-inkscape-font-specification:'monospace, Normal';font-variant-ligatures:normal;font-variant-caps:normal;font-variant-numeric:normal;font-feature-settings:normal;text-align:start;writing-mode:lr-tb;text-anchor:start;stroke-width:0.26458332"
         id="path1092" />
      <path
         d="m 71.99375,253.32512 v 0.77308 h 0.322461 q 0.192926,0 0.300413,-0.10197 0.108865,-0.10198 0.108865,-0.28526 0,-0.18328 -0.107487,-0.28387 -0.107487,-0.10198 -0.301791,-0.10198 z m -0.278363,-0.22875 h 0.600824 q 0.34451,0 0.522277,0.15709 0.177767,0.15572 0.177767,0.45751 0,0.30455 -0.177767,0.46027 -0.176389,0.15572 -0.522277,0.15572 H 71.99375 v 0.82682 h -0.278363 z"
         style="font-style:normal;font-variant:normal;font-weight:normal;font-stretch:normal;font-size:2.82222223px;font-family:monospace;-inkscape-font-specification:'monospace, Normal';font-variant-ligatures:normal;font-variant-caps:normal;font-variant-numeric:normal;font-feature-settings:normal;text-align:start;writing-mode:lr-tb;text-anchor:start;stroke-width:0.26458332"
         id="path1094" />
      <path
         d="m 73.742481,254.92502 q 0.3514,0 0.490581,-0.17225 0.139182,-0.17363 0.139182,-0.62563 0,-0.45613 -0.139182,-0.62839 -0.137803,-0.17363 -0.490581,-0.17363 h -0.132292 v 1.5999 z m 0.0055,-1.82865 q 0.471289,0 0.694531,0.2508 0.223242,0.2508 0.223242,0.77997 0,0.52641 -0.223242,0.77721 -0.223242,0.24943 -0.694531,0.24943 h -0.417546 v -2.05741 z"
         style="font-style:normal;font-variant:normal;font-weight:normal;font-stretch:normal;font-size:2.82222223px;font-family:monospace;-inkscape-font-specification:'monospace, Normal';font-variant-ligatures:normal;font-variant-caps:normal;font-variant-numeric:normal;font-feature-settings:normal;text-align:start;writing-mode:lr-tb;text-anchor:start;stroke-width:0.26458332"
         id="path1096" />
    </g>
  </g>
</svg>
