<?xml version="1.0" encoding="UTF-8" standalone="no"?>
<!-- Generator: Gravit.io -->

<svg
   style="isolation:isolate"
   viewBox="0 0 45 380"
   width="45"
   height="380"
   version="1.1"
   id="svg28"
   sodipodi:docname="Buffer.svg"
   inkscape:version="1.3.2 (091e20e, 2023-11-25)"
   xmlns:inkscape="http://www.inkscape.org/namespaces/inkscape"
   xmlns:sodipodi="http://sodipodi.sourceforge.net/DTD/sodipodi-0.dtd"
   xmlns="http://www.w3.org/2000/svg"
   xmlns:svg="http://www.w3.org/2000/svg"
   xmlns:rdf="http://www.w3.org/1999/02/22-rdf-syntax-ns#"
   xmlns:cc="http://creativecommons.org/ns#"
   xmlns:dc="http://purl.org/dc/elements/1.1/">
  <metadata
     id="metadata32">
    <rdf:RDF>
      <cc:Work
         rdf:about="">
        <dc:format>image/svg+xml</dc:format>
        <dc:type
           rdf:resource="http://purl.org/dc/dcmitype/StillImage" />
      </cc:Work>
    </rdf:RDF>
  </metadata>
  <sodipodi:namedview
     pagecolor="#ffffff"
     bordercolor="#666666"
     borderopacity="1"
     objecttolerance="10"
     gridtolerance="10"
     guidetolerance="10"
     inkscape:pageopacity="0"
     inkscape:pageshadow="2"
     inkscape:window-width="1408"
     inkscape:window-height="1099"
     id="namedview30"
     showgrid="false"
     inkscape:zoom="1.8868421"
     inkscape:cx="54.058578"
     inkscape:cy="138.85635"
     inkscape:window-x="125"
     inkscape:window-y="40"
     inkscape:window-maximized="0"
     inkscape:current-layer="svg28"
     showguides="false"
     inkscape:snap-nodes="true"
     inkscape:snap-grids="false"
     inkscape:snap-global="false"
     inkscape:showpageshadow="2"
     inkscape:pagecheckerboard="0"
     inkscape:deskcolor="#d1d1d1" />
  <defs
     id="defs5">
    <inkscape:path-effect
       only_selected="false"
       apply_with_weight="true"
       apply_no_weight="true"
       helper_size="0"
       steps="2"
       weight="33.333333"
       is_visible="true"
       id="path-effect1070"
       effect="bspline" />
    <inkscape:path-effect
       effect="bspline"
       id="path-effect1066"
       is_visible="true"
       weight="33.333333"
       steps="2"
       helper_size="0"
       apply_no_weight="true"
       apply_with_weight="true"
       only_selected="false" />
    <clipPath
       id="_clipPath_0ow2e6EsI2z2JMRNarlGPRVH8APlqVOp">
      <rect
         width="720"
         height="380"
         id="rect2"
         x="0"
         y="0" />
    </clipPath>
  </defs>
  <path
     style="fill:#323232;fill-opacity:1;stroke-width:0.505244"
     inkscape:connector-curvature="0"
     id="path7"
     d="M 0,0 H 45 V 380 H 0 Z" />
  <g
     id="layer1-2"
     transform="matrix(0.83511265,0,0,0.83511265,-14.725942,63.355027)"
     style="stroke-width:2.31106">
    <rect
       style="fill:#ffffff;stroke-width:2.31106"
       id="rect9"
       height="2.2750001"
       width="10.008"
       y="347.13"
       x="39.669998" />
    <rect
       style="fill:#ffffff;stroke-width:2.31106"
       id="rect11"
       height="0.70499998"
       width="12.49"
       y="347.74399"
       x="38.465" />
    <path
       style="fill:#ffffff;stroke-width:2.31106"
       inkscape:connector-curvature="0"
       id="path13"
       d="m 36.026,339.784 c 0,-4.456 3.82,-8.074 8.525,-8.074 4.705,0 8.524,3.618 8.524,8.074 0,4.457 -3.819,8.075 -8.524,8.075 -4.705,0 -8.525,-3.618 -8.525,-8.075 z" />
    <rect
       style="fill:#ffffff;stroke-width:2.31106"
       id="rect15"
       height="5.9190001"
       width="13.125"
       y="348.44901"
       x="37.944" />
    <path
       style="fill:#54b6fc;stroke-width:2.31106"
       inkscape:connector-curvature="0"
       id="path17"
       d="m 37.635,354.766 c -0.078,-0.145 -0.126,-1.449 -0.126,-3.397 0,-3.615 -0.089,-3.315 1.195,-4.021 0.41,-0.226 0.746,-0.445 0.746,-0.487 0,-0.043 -0.223,-0.232 -0.496,-0.421 -1.414,-0.98 -2.77,-2.995 -3.217,-4.781 -0.277,-1.106 -0.185,-3.288 0.185,-4.37 1.421,-4.161 6.033,-6.679 10.539,-5.752 2.939,0.604 5.272,2.436 6.452,5.068 0.498,1.11 0.666,1.944 0.663,3.292 -0.006,2.424 -1.107,4.678 -3.056,6.259 -0.35,0.284 -0.637,0.559 -0.637,0.611 0,0.053 0.259,0.243 0.576,0.424 1.212,0.69 1.122,0.358 1.122,4.167 0,2.445 -0.039,3.39 -0.145,3.497 -0.11,0.109 -1.811,0.145 -6.911,0.145 -6.564,0 -6.768,-0.008 -6.89,-0.235 z m 6.572,-1.846 c 0.028,-0.991 0.074,-1.255 0.237,-1.357 0.147,-0.092 0.255,-0.083 0.394,0.033 0.152,0.126 0.192,0.413 0.192,1.358 v 1.198 h 2.794 c 2.374,0 2.805,-0.026 2.864,-0.182 0.164,-0.426 -0.116,-0.755 -1.442,-1.701 -1.11,-0.791 -1.365,-1.029 -1.365,-1.274 0,-0.237 0.07,-0.308 0.334,-0.339 l 0.334,-0.038 v -1 c 0,-1.132 0.155,-1.493 0.585,-1.356 0.251,0.079 0.264,0.153 0.266,1.501 0.001,0.779 0.042,1.474 0.091,1.545 0.147,0.211 0.951,0.782 1.101,0.782 0.1,0 0.14,-0.52 0.14,-1.801 0,-2.043 0.062,-1.902 -1.132,-2.569 l -0.708,-0.396 -1.232,0.412 c -1.197,0.399 -1.29,0.411 -3.175,0.411 -1.864,0 -1.983,-0.016 -2.996,-0.377 l -1.054,-0.377 -0.977,0.551 -0.978,0.552 v 1.857 c 0,1.022 0.031,1.858 0.069,1.858 0.038,0 0.311,-0.142 0.607,-0.315 l 0.537,-0.314 0.002,-1.232 c 0.002,-1.579 0.283,-2.203 0.772,-1.714 0.15,0.149 0.196,0.438 0.196,1.211 v 1.014 l 0.4,-0.064 c 0.434,-0.071 0.747,0.159 0.632,0.461 -0.036,0.093 -0.774,0.594 -1.64,1.113 -1.532,0.919 -1.575,0.957 -1.575,1.363 v 0.418 h 2.846 2.847 z m 3.116,-5.993 c 2.504,-0.839 4.541,-2.944 5.165,-5.338 0.195,-0.748 0.251,-2.796 0.084,-3.059 -0.076,-0.119 -0.708,-0.147 -2.742,-0.121 l -2.644,0.033 -0.393,1.092 c -0.345,0.956 -0.429,1.092 -0.681,1.092 -0.266,0 -0.302,-0.082 -0.497,-1.138 -0.321,-1.734 -0.364,-1.707 -0.757,0.481 -0.345,1.92 -0.39,2.052 -0.687,2.052 -0.288,0 -0.273,0.062 -0.814,-3.569 -0.247,-1.663 -0.504,-3.041 -0.571,-3.063 -0.066,-0.023 -0.476,0.656 -0.91,1.507 l -0.788,1.546 -2.27,0.034 -2.269,0.033 -0.082,0.437 c -0.139,0.74 0.028,2.246 0.352,3.178 0.662,1.902 2.011,3.402 3.905,4.338 1.472,0.729 2.322,0.904 4.125,0.851 1.197,-0.037 1.636,-0.104 2.474,-0.385 z m -3.552,-0.476 c -0.689,-0.196 -0.842,-0.318 -0.782,-0.627 0.039,-0.199 0.18,-0.228 1.194,-0.247 0.633,-0.011 1.342,-0.038 1.575,-0.06 0.38,-0.034 0.429,-0.009 0.462,0.278 0.031,0.271 -0.035,0.347 -0.453,0.514 -0.719,0.288 -1.328,0.331 -1.996,0.142 z m -2.259,-2.854 c -0.133,-0.134 -0.242,-0.352 -0.242,-0.485 0,-0.337 0.424,-0.728 0.788,-0.728 0.365,0 0.789,0.391 0.789,0.728 0,0.336 -0.424,0.728 -0.789,0.728 -0.166,0 -0.412,-0.11 -0.546,-0.243 z m 4.732,-0.121 c -0.321,-0.32 -0.306,-0.555 0.055,-0.916 0.335,-0.335 0.453,-0.357 0.832,-0.158 0.333,0.175 0.443,0.338 0.445,0.661 0.004,0.597 -0.876,0.869 -1.332,0.413 z m -1.584,-5.884 c 0.408,-2.456 0.791,-2.52 1.203,-0.199 0.135,0.757 0.272,1.404 0.304,1.437 0.114,0.114 0.293,-0.084 0.376,-0.417 0.161,-0.642 0.148,-0.639 2.995,-0.639 3.011,0 2.953,0.022 2.539,-0.915 -0.902,-2.038 -2.972,-3.73 -5.348,-4.37 -1.064,-0.287 -3.184,-0.295 -4.246,-0.016 -2.562,0.673 -4.724,2.532 -5.587,4.805 l -0.237,0.623 2.032,-0.033 2.033,-0.034 0.97,-1.904 c 0.534,-1.048 1.04,-1.974 1.123,-2.057 0.337,-0.337 0.501,0.172 0.885,2.747 0.209,1.4 0.408,2.592 0.443,2.649 0.141,0.229 0.265,-0.174 0.515,-1.677 z" />
    <path
       style="fill:#a0a0a0;stroke-width:2.31106"
       inkscape:connector-curvature="0"
       id="path19"
       d="m 37.635,354.766 c -0.078,-0.145 -0.126,-1.449 -0.126,-3.397 0,-3.615 -0.089,-3.315 1.195,-4.021 0.41,-0.226 0.746,-0.445 0.746,-0.487 0,-0.043 -0.223,-0.232 -0.496,-0.421 -1.414,-0.98 -2.77,-2.995 -3.217,-4.781 -0.277,-1.106 -0.185,-3.288 0.185,-4.37 1.421,-4.161 6.033,-6.679 10.539,-5.752 2.939,0.604 5.272,2.436 6.452,5.068 0.498,1.11 0.666,1.944 0.663,3.292 -0.006,2.424 -1.107,4.678 -3.056,6.259 -0.35,0.284 -0.637,0.559 -0.637,0.611 0,0.053 0.259,0.243 0.576,0.424 1.212,0.69 1.122,0.358 1.122,4.167 0,2.445 -0.039,3.39 -0.145,3.497 -0.11,0.109 -1.811,0.145 -6.911,0.145 -6.564,0 -6.768,-0.008 -6.89,-0.235 z m 6.572,-1.846 c 0.028,-0.991 0.074,-1.255 0.237,-1.357 0.147,-0.092 0.255,-0.083 0.394,0.033 0.152,0.126 0.192,0.413 0.192,1.358 v 1.198 h 2.794 c 2.374,0 2.805,-0.026 2.864,-0.182 0.164,-0.426 -0.116,-0.755 -1.442,-1.701 -1.11,-0.791 -1.365,-1.029 -1.365,-1.274 0,-0.237 0.07,-0.308 0.334,-0.339 l 0.334,-0.038 v -1 c 0,-1.132 0.155,-1.493 0.585,-1.356 0.251,0.079 0.264,0.153 0.266,1.501 0.001,0.779 0.042,1.474 0.091,1.545 0.147,0.211 0.951,0.782 1.101,0.782 0.1,0 0.14,-0.52 0.14,-1.801 0,-2.043 0.062,-1.902 -1.132,-2.569 l -0.708,-0.396 -1.232,0.412 c -1.197,0.399 -1.29,0.411 -3.175,0.411 -1.864,0 -1.983,-0.016 -2.996,-0.377 l -1.054,-0.377 -0.977,0.551 -0.978,0.552 v 1.857 c 0,1.022 0.031,1.858 0.069,1.858 0.038,0 0.311,-0.142 0.607,-0.315 l 0.537,-0.314 0.002,-1.232 c 0.002,-1.579 0.283,-2.203 0.772,-1.714 0.15,0.149 0.196,0.438 0.196,1.211 v 1.014 l 0.4,-0.064 c 0.434,-0.071 0.747,0.159 0.632,0.461 -0.036,0.093 -0.774,0.594 -1.64,1.113 -1.532,0.919 -1.575,0.957 -1.575,1.363 v 0.418 h 2.846 2.847 z m 3.116,-5.993 c 1.931,-0.647 3.633,-2.064 4.532,-3.775 0.59,-1.123 0.818,-2.049 0.816,-3.311 -0.002,-1.743 0.283,-1.582 -2.795,-1.582 -1.985,0 -2.672,0.038 -2.746,0.152 -0.054,0.083 -0.263,0.588 -0.465,1.121 -0.526,1.39 -0.684,1.347 -0.974,-0.267 -0.343,-1.905 -0.509,-1.805 -0.928,0.562 -0.325,1.834 -0.466,2.241 -0.692,2.005 -0.061,-0.063 -0.309,-1.48 -0.55,-3.148 -0.52,-3.598 -0.516,-3.579 -0.709,-3.579 -0.083,0 -0.519,0.737 -0.967,1.638 l -0.817,1.638 h -2.237 -2.237 l -0.085,0.562 c -0.322,2.147 0.665,4.715 2.423,6.308 0.871,0.788 2.571,1.671 3.712,1.926 1.285,0.288 3.456,0.173 4.719,-0.25 z m -3.552,-0.476 c -0.689,-0.196 -0.842,-0.318 -0.782,-0.627 0.039,-0.199 0.18,-0.228 1.194,-0.247 0.633,-0.011 1.342,-0.038 1.575,-0.06 0.38,-0.034 0.429,-0.009 0.462,0.278 0.031,0.271 -0.035,0.347 -0.453,0.514 -0.719,0.288 -1.328,0.331 -1.996,0.142 z m -2.259,-2.854 c -0.133,-0.134 -0.242,-0.352 -0.242,-0.485 0,-0.337 0.424,-0.728 0.788,-0.728 0.365,0 0.789,0.391 0.789,0.728 0,0.336 -0.424,0.728 -0.789,0.728 -0.166,0 -0.412,-0.11 -0.546,-0.243 z m 4.732,-0.121 c -0.321,-0.32 -0.306,-0.555 0.055,-0.916 0.335,-0.335 0.453,-0.357 0.832,-0.158 0.333,0.175 0.443,0.338 0.445,0.661 0.004,0.597 -0.876,0.869 -1.332,0.413 z m -1.51,-5.643 c 0.291,-1.664 0.459,-2.135 0.68,-1.904 0.045,0.047 0.209,0.796 0.365,1.663 0.32,1.786 0.472,1.954 0.851,0.94 l 0.237,-0.637 h 2.714 c 1.493,0 2.741,-0.043 2.773,-0.096 0.111,-0.178 -0.491,-1.456 -1.064,-2.258 -1.001,-1.404 -2.726,-2.557 -4.561,-3.052 -1.064,-0.287 -3.184,-0.295 -4.246,-0.016 -1.492,0.392 -2.75,1.113 -3.833,2.196 -0.931,0.932 -1.649,2.075 -1.93,3.075 l -0.076,0.273 1.979,-10e-4 c 1.089,-0.001 2.041,-0.042 2.116,-0.091 0.076,-0.049 0.581,-0.977 1.123,-2.061 0.925,-1.849 1.116,-2.128 1.279,-1.865 0.036,0.059 0.234,1.273 0.439,2.699 0.383,2.657 0.526,3.263 0.724,3.065 0.062,-0.062 0.255,-0.929 0.429,-1.929 z" />
    <path
       style="fill:#179cfd;stroke-width:2.31106"
       inkscape:connector-curvature="0"
       id="path21"
       d="m 37.695,354.688 c -0.128,-0.335 -0.083,-6.237 0.05,-6.485 0.067,-0.127 0.504,-0.453 0.97,-0.725 0.466,-0.272 0.847,-0.545 0.847,-0.607 0,-0.062 -0.31,-0.346 -0.689,-0.632 -1.386,-1.044 -2.563,-2.825 -3.002,-4.54 -0.243,-0.947 -0.246,-2.806 -0.007,-3.748 0.1,-0.398 0.41,-1.187 0.687,-1.754 0.404,-0.824 0.714,-1.24 1.546,-2.073 0.864,-0.864 1.237,-1.137 2.194,-1.607 1.659,-0.815 2.42,-0.989 4.306,-0.982 1.109,0.003 1.804,0.068 2.345,0.216 4.402,1.211 7.145,5.247 6.401,9.42 -0.341,1.915 -1.707,4.103 -3.215,5.147 -0.273,0.189 -0.497,0.389 -0.497,0.444 0,0.055 0.382,0.322 0.848,0.595 0.541,0.316 0.872,0.592 0.914,0.763 0.036,0.148 0.05,1.715 0.031,3.483 l -0.034,3.215 -6.81,0.03 c -6.132,0.029 -6.818,0.011 -6.885,-0.161 z m 6.598,-1.75 c 0.056,-1.173 0.08,-1.274 0.304,-1.274 0.223,0 0.247,0.101 0.303,1.274 l 0.061,1.274 h 2.909 c 2.723,0 2.913,-0.016 2.953,-0.222 0.102,-0.53 -0.121,-0.801 -1.429,-1.737 -0.732,-0.524 -1.361,-1.026 -1.397,-1.115 -0.098,-0.244 0.036,-0.384 0.367,-0.384 0.292,0 0.297,-0.015 0.297,-1.077 0,-0.794 0.046,-1.115 0.176,-1.223 0.341,-0.283 0.43,-0.008 0.43,1.327 0,0.725 0.033,1.403 0.073,1.508 0.104,0.272 1.232,1.075 1.38,0.983 0.189,-0.116 0.163,-3.727 -0.027,-3.966 -0.084,-0.105 -0.504,-0.392 -0.934,-0.64 -0.878,-0.505 -0.915,-0.505 -2.312,0.016 -0.853,0.316 -1.03,0.338 -2.85,0.341 -1.881,0.003 -1.976,-0.008 -3.068,-0.39 l -1.126,-0.393 -0.973,0.565 c -0.535,0.311 -1.024,0.662 -1.087,0.78 -0.064,0.118 -0.115,0.984 -0.115,1.925 0,1.372 0.034,1.723 0.174,1.776 0.216,0.083 1.245,-0.507 1.406,-0.807 0.065,-0.122 0.118,-0.795 0.118,-1.496 0,-1.318 0.124,-1.66 0.443,-1.224 0.106,0.145 0.164,0.578 0.164,1.233 v 1.01 l 0.496,-0.079 c 0.469,-0.075 0.493,-0.064 0.455,0.205 -0.032,0.221 -0.387,0.489 -1.58,1.191 -1.576,0.927 -1.792,1.158 -1.612,1.725 0.072,0.225 0.2,0.233 3.008,0.202 l 2.933,-0.033 z m 2.972,-5.863 c 2.435,-0.797 4.358,-2.617 5.174,-4.895 0.264,-0.738 0.451,-3.001 0.298,-3.609 l -0.078,-0.312 h -2.72 c -2.043,0 -2.744,0.038 -2.818,0.152 -0.054,0.083 -0.263,0.588 -0.465,1.121 -0.526,1.39 -0.684,1.347 -0.975,-0.267 -0.343,-1.905 -0.508,-1.805 -0.928,0.562 -0.325,1.834 -0.465,2.241 -0.692,2.005 -0.061,-0.063 -0.308,-1.48 -0.549,-3.148 -0.52,-3.598 -0.516,-3.579 -0.709,-3.579 -0.083,0 -0.519,0.737 -0.968,1.638 l -0.816,1.638 h -2.241 c -2.616,0 -2.491,-0.069 -2.491,1.367 0,1.107 0.351,2.527 0.87,3.523 0.584,1.12 2.215,2.696 3.385,3.271 1.509,0.742 2.468,0.945 4.237,0.894 1.228,-0.033 1.7,-0.103 2.486,-0.361 z m -3.336,-0.707 c -0.658,-0.148 -0.968,-0.396 -0.756,-0.608 0.105,-0.105 0.319,-0.111 0.805,-0.022 0.491,0.089 0.825,0.079 1.289,-0.04 0.663,-0.169 0.846,-0.136 0.846,0.157 0,0.397 -1.318,0.707 -2.184,0.513 z m -2.346,-2.872 c -0.261,-0.288 -0.255,-0.541 0.021,-0.79 0.32,-0.29 0.712,-0.247 0.942,0.102 0.184,0.281 0.184,0.326 0,0.607 -0.237,0.36 -0.677,0.397 -0.963,0.081 z m 4.706,-0.194 c -0.373,-0.57 0.273,-1.129 0.861,-0.744 0.34,0.223 0.384,0.571 0.107,0.848 -0.286,0.286 -0.745,0.237 -0.968,-0.104 z m -1.565,-5.469 c 0.291,-1.664 0.46,-2.135 0.681,-1.904 0.045,0.047 0.209,0.796 0.364,1.663 0.321,1.785 0.473,1.954 0.85,0.942 l 0.237,-0.634 2.752,-0.034 c 3.237,-0.038 3.138,0.023 2.372,-1.455 -0.591,-1.139 -1.975,-2.548 -3.136,-3.194 -4.176,-2.321 -9.584,-0.849 -11.679,3.18 -0.283,0.544 -0.514,1.13 -0.514,1.304 v 0.315 l 1.971,-0.002 c 1.084,0 2.033,-0.042 2.108,-0.091 0.075,-0.049 0.581,-0.976 1.123,-2.06 0.925,-1.85 1.116,-2.128 1.279,-1.865 0.036,0.058 0.233,1.273 0.439,2.699 0.383,2.656 0.526,3.263 0.724,3.064 0.061,-0.061 0.254,-0.929 0.429,-1.928 z" />
    <path
       style="fill:#050505;stroke-width:2.31106"
       inkscape:connector-curvature="0"
       id="path23"
       d="m 37.695,354.688 c -0.128,-0.335 -0.083,-6.237 0.05,-6.485 0.067,-0.127 0.504,-0.453 0.97,-0.725 0.466,-0.272 0.847,-0.545 0.847,-0.607 0,-0.062 -0.31,-0.346 -0.689,-0.632 -1.386,-1.044 -2.563,-2.825 -3.002,-4.54 -0.243,-0.947 -0.246,-2.806 -0.007,-3.748 0.1,-0.398 0.41,-1.187 0.687,-1.754 0.404,-0.824 0.714,-1.24 1.546,-2.073 0.864,-0.864 1.237,-1.137 2.194,-1.607 1.659,-0.815 2.42,-0.989 4.306,-0.982 1.109,0.003 1.804,0.068 2.345,0.216 4.402,1.211 7.145,5.247 6.401,9.42 -0.341,1.915 -1.707,4.103 -3.215,5.147 -0.273,0.189 -0.497,0.389 -0.497,0.444 0,0.055 0.382,0.322 0.848,0.595 0.541,0.316 0.872,0.592 0.914,0.763 0.036,0.148 0.05,1.715 0.031,3.483 l -0.034,3.215 -6.81,0.03 c -6.132,0.029 -6.818,0.011 -6.885,-0.161 z m 6.598,-1.75 c 0.056,-1.173 0.08,-1.274 0.304,-1.274 0.223,0 0.247,0.101 0.303,1.274 l 0.061,1.274 h 2.909 c 2.723,0 2.913,-0.016 2.953,-0.222 0.102,-0.53 -0.121,-0.801 -1.429,-1.737 -0.732,-0.524 -1.361,-1.026 -1.397,-1.115 -0.098,-0.244 0.036,-0.384 0.367,-0.384 0.292,0 0.297,-0.015 0.297,-1.077 0,-0.794 0.046,-1.115 0.176,-1.223 0.341,-0.283 0.43,-0.008 0.43,1.327 0,0.725 0.033,1.403 0.073,1.508 0.104,0.272 1.232,1.075 1.38,0.983 0.189,-0.116 0.163,-3.727 -0.027,-3.966 -0.084,-0.105 -0.504,-0.392 -0.934,-0.64 -0.878,-0.505 -0.915,-0.505 -2.312,0.016 -0.853,0.316 -1.03,0.338 -2.85,0.341 -1.881,0.003 -1.976,-0.008 -3.068,-0.39 l -1.126,-0.393 -0.973,0.565 c -0.535,0.311 -1.024,0.662 -1.087,0.78 -0.064,0.118 -0.115,0.984 -0.115,1.925 0,1.372 0.034,1.723 0.174,1.776 0.216,0.083 1.245,-0.507 1.406,-0.807 0.065,-0.122 0.118,-0.795 0.118,-1.496 0,-1.318 0.124,-1.66 0.443,-1.224 0.106,0.145 0.164,0.578 0.164,1.233 v 1.01 l 0.496,-0.079 c 0.469,-0.075 0.493,-0.064 0.455,0.205 -0.032,0.221 -0.387,0.489 -1.58,1.191 -1.576,0.927 -1.792,1.158 -1.612,1.725 0.072,0.225 0.2,0.233 3.008,0.202 l 2.933,-0.033 z m 2.972,-5.863 c 2.474,-0.81 4.446,-2.715 5.234,-5.055 0.293,-0.871 0.305,-3.256 0.021,-4.264 -0.49,-1.744 -1.999,-3.606 -3.676,-4.538 -3.408,-1.894 -7.698,-1.319 -10.374,1.391 -2.247,2.277 -2.789,5.66 -1.368,8.533 0.611,1.235 2.169,2.775 3.44,3.4 1.51,0.742 2.468,0.944 4.237,0.894 1.228,-0.033 1.701,-0.104 2.486,-0.361 z m -3.336,-0.707 c -0.658,-0.148 -0.968,-0.396 -0.756,-0.608 0.105,-0.105 0.319,-0.111 0.805,-0.022 0.491,0.089 0.825,0.079 1.289,-0.04 0.663,-0.169 0.846,-0.136 0.846,0.157 0,0.397 -1.318,0.707 -2.184,0.513 z m -2.346,-2.872 c -0.261,-0.288 -0.255,-0.541 0.021,-0.79 0.32,-0.29 0.712,-0.247 0.942,0.102 0.184,0.281 0.184,0.326 0,0.607 -0.237,0.36 -0.677,0.397 -0.963,0.081 z m 4.706,-0.194 c -0.373,-0.57 0.273,-1.129 0.861,-0.744 0.34,0.223 0.384,0.571 0.107,0.848 -0.286,0.286 -0.745,0.237 -0.968,-0.104 z" />
  </g>
  <g
     inkscape:groupmode="layer"
     id="layer1"
     inkscape:label="widgets"
     style="display:none">
    <rect
       style="fill:#00ff00;fill-opacity:1;stroke:none;stroke-width:2.09074736;stroke-miterlimit:4;stroke-dasharray:none;stroke-opacity:1"
       id="CLOCK"
       width="32"
       height="32"
       x="17.013702"
       y="40.085506"
       inkscape:label="#rect1279" />
    <rect
       style="fill:#00ff00;fill-opacity:1;stroke:none;stroke-width:0.98003787;stroke-miterlimit:4;stroke-dasharray:none;stroke-opacity:1"
       id="ROT_RIGHT"
       width="15"
       height="15"
       x="61.344215"
       y="176.88031"
       inkscape:label="#rect1305" />
    <rect
       y="54.189999"
       x="559.08063"
       height="15"
       width="15"
       id="VOCT_1"
       style="fill:#0000ff;fill-opacity:1;stroke:none;stroke-width:0.98003799;stroke-miterlimit:4;stroke-dasharray:none;stroke-opacity:1"
       inkscape:label="#rect1317" />
    <rect
       style="isolation:isolate;fill:#000000;fill-opacity:1;stroke:none;stroke-width:1.88735402;stroke-miterlimit:4;stroke-dasharray:none;stroke-opacity:1"
       id="rect823"
       width="376"
       height="492.22223"
       x="172"
       y="-40" />
    <g
       aria-label="TODO  REMOVE"
       style="font-style:normal;font-variant:normal;font-weight:normal;font-stretch:normal;font-size:40px;line-height:1.25;font-family:monospace;-inkscape-font-specification:'monospace, Normal';font-variant-ligatures:normal;font-variant-caps:normal;font-variant-numeric:normal;font-feature-settings:normal;text-align:center;letter-spacing:0px;word-spacing:0px;writing-mode:lr-tb;text-anchor:middle;isolation:isolate;fill:#ff0000;fill-opacity:1;stroke:none"
       id="text827">
      <path
         d="m 315.0152,159.72873 h 22.24609 v 3.32031 h -9.12109 v 25.83985 h -3.96485 v -25.83985 h -9.16015 z"
         id="path1257"
         inkscape:connector-curvature="0" />
      <path
         d="m 355.83551,174.3381 q 0,-6.42578 -1.32812,-9.17968 -1.3086,-2.75391 -4.31641,-2.75391 -2.98828,0 -4.31641,2.75391 -1.30859,2.7539 -1.30859,9.17968 0,6.40625 1.30859,9.16016 1.32813,2.75391 4.31641,2.75391 3.00781,0 4.31641,-2.73438 1.32812,-2.7539 1.32812,-9.17969 z m 4.12109,0 q 0,7.61719 -2.42187,11.36719 -2.40234,3.75 -7.34375,3.75 -4.94141,0 -7.34375,-3.73047 -2.40234,-3.73047 -2.40234,-11.38672 0,-7.63671 2.40234,-11.38671 2.42187,-3.75 7.34375,-3.75 4.94141,0 7.34375,3.75 2.42187,3.75 2.42187,11.38671 z"
         id="path1259"
         inkscape:connector-curvature="0" />
      <path
         d="m 370.73785,185.6467 q 4.98047,0 6.95313,-2.44141 1.97266,-2.46094 1.97266,-8.86719 0,-6.46484 -1.97266,-8.90625 -1.95313,-2.46093 -6.95313,-2.46093 h -1.875 v 22.67578 z m 0.0781,-25.91797 q 6.67969,0 9.84375,3.55469 3.16406,3.55468 3.16406,11.05468 0,7.46094 -3.16406,11.01563 -3.16406,3.53516 -9.84375,3.53516 h -5.91797 v -29.16016 z"
         id="path1261"
         inkscape:connector-curvature="0" />
      <path
         d="m 403.96051,174.3381 q 0,-6.42578 -1.32812,-9.17968 -1.3086,-2.75391 -4.31641,-2.75391 -2.98828,0 -4.31641,2.75391 -1.30859,2.7539 -1.30859,9.17968 0,6.40625 1.30859,9.16016 1.32813,2.75391 4.31641,2.75391 3.00781,0 4.31641,-2.73438 1.32812,-2.7539 1.32812,-9.17969 z m 4.12109,0 q 0,7.61719 -2.42187,11.36719 -2.40234,3.75 -7.34375,3.75 -4.94141,0 -7.34375,-3.73047 -2.40234,-3.73047 -2.40234,-11.38672 0,-7.63671 2.40234,-11.38671 2.42187,-3.75 7.34375,-3.75 4.94141,0 7.34375,3.75 2.42187,3.75 2.42187,11.38671 z"
         id="path1263"
         inkscape:connector-curvature="0" />
      <path
         d="m 304.87848,225.11935 q 1.52344,0.39063 2.59766,1.48438 1.07421,1.07422 2.67578,4.31641 l 3.96484,7.96875 h -4.23828 l -3.47656,-7.36329 q -1.50391,-3.14453 -2.71485,-4.04296 -1.1914,-0.91797 -3.125,-0.91797 h -3.76953 v 12.32422 h -3.96484 v -29.16016 h 8.125 q 4.80469,0 7.36328,2.16797 2.55859,2.16797 2.55859,6.26953 0,2.89062 -1.58203,4.72656 -1.5625,1.81641 -4.41406,2.22656 z m -8.08594,-12.14843 v 10.35156 h 4.31641 q 2.83203,0 4.21875,-1.26953 1.38672,-1.26953 1.38672,-3.88672 0,-2.51953 -1.48438,-3.84766 -1.46484,-1.34765 -4.27734,-1.34765 z"
         id="path1265"
         inkscape:connector-curvature="0" />
      <path
         d="m 317.94489,209.72873 h 17.30468 v 3.32031 H 321.8902 v 8.63281 h 12.77344 v 3.32032 H 321.8902 v 10.5664 h 13.73047 v 3.32032 h -17.67578 z"
         id="path1267"
         inkscape:connector-curvature="0" />
      <path
         d="m 339.83942,209.72873 h 5.27343 l 5.03907,14.84375 5.07812,-14.84375 h 5.29297 v 29.16016 h -3.65234 v -25.76172 l -5.19532,15.37109 h -2.98828 l -5.21484,-15.37109 v 25.76172 h -3.63281 z"
         id="path1269"
         inkscape:connector-curvature="0" />
      <path
         d="m 379.89801,224.3381 q 0,-6.42578 -1.32812,-9.17968 -1.3086,-2.75391 -4.31641,-2.75391 -2.98828,0 -4.31641,2.75391 -1.30859,2.7539 -1.30859,9.17968 0,6.40625 1.30859,9.16016 1.32813,2.75391 4.31641,2.75391 3.00781,0 4.31641,-2.73438 1.32812,-2.7539 1.32812,-9.17969 z m 4.12109,0 q 0,7.61719 -2.42187,11.36719 -2.40234,3.75 -7.34375,3.75 -4.94141,0 -7.34375,-3.73047 -2.40234,-3.73047 -2.40234,-11.38672 0,-7.63671 2.40234,-11.38671 2.42187,-3.75 7.34375,-3.75 4.94141,0 7.34375,3.75 2.42187,3.75 2.42187,11.38671 z"
         id="path1271"
         inkscape:connector-curvature="0" />
      <path
         d="m 398.31598,235.56857 6.85547,-25.83984 h 4.08203 l -8.53516,29.16016 h -4.78515 l -8.53516,-29.16016 h 4.08203 z"
         id="path1273"
         inkscape:connector-curvature="0" />
      <path
         d="m 414.19489,209.72873 h 17.30468 v 3.32031 H 418.1402 v 8.63281 h 12.77344 v 3.32032 H 418.1402 v 10.5664 h 13.73047 v 3.32032 h -17.67578 z"
         id="path1275"
         inkscape:connector-curvature="0" />
    </g>
    <rect
       style="fill:#0000ff;fill-opacity:1;stroke:none;stroke-width:0.98003787;stroke-miterlimit:4;stroke-dasharray:none;stroke-opacity:1"
       id="VOCT_2"
       width="15"
       height="15"
       x="559.08063"
       y="78.665947"
       inkscape:label="#rect1333" />
    <rect
       y="103.14216"
       x="559.08063"
       height="15"
       width="15"
       id="VOCT_3"
       style="fill:#0000ff;fill-opacity:1;stroke:none;stroke-width:0.98003787;stroke-miterlimit:4;stroke-dasharray:none;stroke-opacity:1"
       inkscape:label="#rect1337" />
    <rect
       style="fill:#0000ff;fill-opacity:1;stroke:none;stroke-width:0.98003787;stroke-miterlimit:4;stroke-dasharray:none;stroke-opacity:1"
       id="VOCT_4"
       width="15"
       height="15"
       x="559.08063"
       y="127.61829"
       inkscape:label="#rect1341" />
    <rect
       y="152.09445"
       x="559.08063"
       height="15"
       width="15"
       id="VOCT_5"
       style="fill:#0000ff;fill-opacity:1;stroke:none;stroke-width:0.98003787;stroke-miterlimit:4;stroke-dasharray:none;stroke-opacity:1"
       inkscape:label="#rect1345" />
    <rect
       style="fill:#0000ff;fill-opacity:1;stroke:none;stroke-width:0.98003787;stroke-miterlimit:4;stroke-dasharray:none;stroke-opacity:1"
       id="VOCT_6"
       width="15"
       height="15"
       x="559.08063"
       y="176.5706"
       inkscape:label="#rect1349" />
    <rect
       y="201.04675"
       x="559.08063"
       height="15"
       width="15"
       id="VOCT_7"
       style="fill:#0000ff;fill-opacity:1;stroke:none;stroke-width:0.98003787;stroke-miterlimit:4;stroke-dasharray:none;stroke-opacity:1"
       inkscape:label="#rect1351" />
    <rect
       style="fill:#0000ff;fill-opacity:1;stroke:none;stroke-width:0.98003787;stroke-miterlimit:4;stroke-dasharray:none;stroke-opacity:1"
       id="VOCT_8"
       width="15"
       height="15"
       x="559.08063"
       y="225.52292"
       inkscape:label="#rect1353" />
    <rect
       y="249.99908"
       x="559.08063"
       height="15"
       width="15"
       id="VOCT_9"
       style="fill:#0000ff;fill-opacity:1;stroke:none;stroke-width:0.98003787;stroke-miterlimit:4;stroke-dasharray:none;stroke-opacity:1"
       inkscape:label="#rect1355" />
    <rect
       style="fill:#0000ff;fill-opacity:1;stroke:none;stroke-width:0.98003787;stroke-miterlimit:4;stroke-dasharray:none;stroke-opacity:1"
       id="VOCT_10"
       width="15"
       height="15"
       x="559.08063"
       y="274.47522"
       inkscape:label="#rect1357" />
    <rect
       style="fill:#0000ff;fill-opacity:1;stroke:none;stroke-width:0.98003787;stroke-miterlimit:4;stroke-dasharray:none;stroke-opacity:1"
       id="GATE_1"
       width="15"
       height="15"
       x="591.8584"
       y="54.189823"
       inkscape:label="#rect1369" />
    <rect
       y="78.665947"
       x="591.8584"
       height="15"
       width="15"
       id="GATE_2"
       style="fill:#0000ff;fill-opacity:1;stroke:none;stroke-width:0.98003787;stroke-miterlimit:4;stroke-dasharray:none;stroke-opacity:1"
       inkscape:label="#rect1371" />
    <rect
       style="fill:#0000ff;fill-opacity:1;stroke:none;stroke-width:0.98003787;stroke-miterlimit:4;stroke-dasharray:none;stroke-opacity:1"
       id="GATE_3"
       width="15"
       height="15"
       x="591.8584"
       y="103.14216"
       inkscape:label="#rect1373" />
    <rect
       y="127.61829"
       x="591.8584"
       height="15"
       width="15"
       id="GATE_4"
       style="fill:#0000ff;fill-opacity:1;stroke:none;stroke-width:0.98003787;stroke-miterlimit:4;stroke-dasharray:none;stroke-opacity:1"
       inkscape:label="#rect1375" />
    <rect
       style="fill:#0000ff;fill-opacity:1;stroke:none;stroke-width:0.98003787;stroke-miterlimit:4;stroke-dasharray:none;stroke-opacity:1"
       id="GATE_5"
       width="15"
       height="15"
       x="591.8584"
       y="152.09445"
       inkscape:label="#rect1377" />
    <rect
       y="176.5706"
       x="591.8584"
       height="15"
       width="15"
       id="GATE_6"
       style="fill:#0000ff;fill-opacity:1;stroke:none;stroke-width:0.98003787;stroke-miterlimit:4;stroke-dasharray:none;stroke-opacity:1"
       inkscape:label="#rect1379" />
    <rect
       style="fill:#0000ff;fill-opacity:1;stroke:none;stroke-width:0.98003787;stroke-miterlimit:4;stroke-dasharray:none;stroke-opacity:1"
       id="GATE_7"
       width="15"
       height="15"
       x="591.8584"
       y="201.04675"
       inkscape:label="#rect1381" />
    <rect
       y="225.52292"
       x="591.8584"
       height="15"
       width="15"
       id="GATE_8"
       style="fill:#0000ff;fill-opacity:1;stroke:none;stroke-width:0.98003787;stroke-miterlimit:4;stroke-dasharray:none;stroke-opacity:1"
       inkscape:label="#rect1383" />
    <rect
       style="fill:#0000ff;fill-opacity:1;stroke:none;stroke-width:0.98003787;stroke-miterlimit:4;stroke-dasharray:none;stroke-opacity:1"
       id="GATE_9"
       width="15"
       height="15"
       x="591.8584"
       y="249.99908"
       inkscape:label="#rect1385" />
    <rect
       y="274.47522"
       x="591.8584"
       height="15"
       width="15"
       id="GATE_10"
       style="fill:#0000ff;fill-opacity:1;stroke:none;stroke-width:0.98003787;stroke-miterlimit:4;stroke-dasharray:none;stroke-opacity:1"
       inkscape:label="#rect1387" />
    <rect
       style="fill:#0000ff;fill-opacity:1;stroke:none;stroke-width:0.98003787;stroke-miterlimit:4;stroke-dasharray:none;stroke-opacity:1"
       id="MIN_VOCT"
       width="15"
       height="15"
       x="656.30286"
       y="54.74538"
       inkscape:label="#rect1423" />
    <rect
       y="79.221504"
       x="656.30286"
       height="15"
       width="15"
       id="MID_VOCT"
       style="fill:#0000ff;fill-opacity:1;stroke:none;stroke-width:0.98003787;stroke-miterlimit:4;stroke-dasharray:none;stroke-opacity:1"
       inkscape:label="#rect1425" />
    <rect
       style="fill:#0000ff;fill-opacity:1;stroke:none;stroke-width:0.98003787;stroke-miterlimit:4;stroke-dasharray:none;stroke-opacity:1"
       id="MAX_VOCT"
       width="15"
       height="15"
       x="656.30286"
       y="103.69772"
       inkscape:label="#rect1427" />
    <rect
       y="128.17386"
       x="656.30286"
       height="15"
       width="15"
       id="RND_VOCT"
       style="fill:#0000ff;fill-opacity:1;stroke:none;stroke-width:0.98003787;stroke-miterlimit:4;stroke-dasharray:none;stroke-opacity:1"
       inkscape:label="#rect1429" />
    <rect
       y="54.74538"
       x="689.08063"
       height="15"
       width="15"
       id="MIN_GATE"
       style="fill:#0000ff;fill-opacity:1;stroke:none;stroke-width:0.98003787;stroke-miterlimit:4;stroke-dasharray:none;stroke-opacity:1"
       inkscape:label="#rect1431" />
    <rect
       style="fill:#0000ff;fill-opacity:1;stroke:none;stroke-width:0.98003787;stroke-miterlimit:4;stroke-dasharray:none;stroke-opacity:1"
       id="MID_GATE"
       width="15"
       height="15"
       x="689.08063"
       y="79.221504"
       inkscape:label="#rect1433" />
    <rect
       y="103.69772"
       x="689.08063"
       height="15"
       width="15"
       id="MAX_GATE"
       style="fill:#0000ff;fill-opacity:1;stroke:none;stroke-width:0.98003787;stroke-miterlimit:4;stroke-dasharray:none;stroke-opacity:1"
       inkscape:label="#rect1435" />
    <rect
       style="fill:#0000ff;fill-opacity:1;stroke:none;stroke-width:0.98003787;stroke-miterlimit:4;stroke-dasharray:none;stroke-opacity:1"
       id="RND_GATE"
       width="15"
       height="15"
       x="689.08063"
       y="128.17386"
       inkscape:label="#rect1437" />
    <rect
       y="43.085506"
       x="71.854126"
       height="26"
       width="26"
       id="STEP_BTN"
       style="fill:#ff0000;fill-opacity:1;stroke:none;stroke-width:1.69873238;stroke-miterlimit:4;stroke-dasharray:none;stroke-opacity:1"
       inkscape:label="#rect1439" />
    <rect
       style="fill:#ff0000;fill-opacity:1;stroke:none;stroke-width:1.69873238;stroke-miterlimit:4;stroke-dasharray:none;stroke-opacity:1"
       id="PLAY_MODE_KNOB"
       width="26"
       height="26"
       x="123.4553"
       y="43.085506"
       inkscape:label="#rect1441" />
    <rect
       y="336.88031"
       x="126.41925"
       height="15"
       width="15"
       id="ONE_PER_COL_SWITCH"
       style="fill:#ff0000;fill-opacity:1;stroke:none;stroke-width:0.98003787;stroke-miterlimit:4;stroke-dasharray:none;stroke-opacity:1"
       inkscape:label="#rect1447" />
    <rect
       style="fill:#ff0000;fill-opacity:1;stroke:none;stroke-width:0.98003787;stroke-miterlimit:4;stroke-dasharray:none;stroke-opacity:1"
       id="ROT_RIGHT_BTN"
       width="15"
       height="15"
       x="82.564194"
       y="176.88031"
       inkscape:label="#rect1449" />
    <rect
       style="fill:#ff0000;fill-opacity:1;stroke:none;stroke-width:1.69873238;stroke-miterlimit:4;stroke-dasharray:none;stroke-opacity:1"
       id="LOW_MID_HIGH_SWITCH"
       width="26"
       height="26"
       x="556.33563"
       y="335.53592"
       inkscape:label="#rect1465" />
    <rect
       y="335.53592"
       x="599.12952"
       height="26"
       width="26"
       id="SCALE_KNOB"
       style="fill:#ff0000;fill-opacity:1;stroke:none;stroke-width:1.69873238;stroke-miterlimit:4;stroke-dasharray:none;stroke-opacity:1"
       inkscape:label="#rect1467" />
    <rect
       style="fill:#ff0000;fill-opacity:1;stroke:none;stroke-width:1.69873238;stroke-miterlimit:4;stroke-dasharray:none;stroke-opacity:1"
       id="NOTE_KNOB"
       width="26"
       height="26"
       x="641.92346"
       y="335.53592"
       inkscape:label="#rect1469" />
    <rect
       y="335.53592"
       x="684.71735"
       height="26"
       width="26"
       id="OCTAVE_KNOB"
       style="fill:#ff0000;fill-opacity:1;stroke:none;stroke-width:1.69873238;stroke-miterlimit:4;stroke-dasharray:none;stroke-opacity:1"
       inkscape:label="#rect1471" />
    <rect
       y="176.88031"
       x="116.34422"
       height="15"
       width="15"
       id="ROT_LEFT"
       style="fill:#00ff00;fill-opacity:1;stroke:none;stroke-width:0.98003787;stroke-miterlimit:4;stroke-dasharray:none;stroke-opacity:1"
       inkscape:label="#rect1473" />
    <rect
       y="176.88031"
       x="137.56419"
       height="15"
       width="15"
       id="ROT_LEFT_BTN"
       style="fill:#ff0000;fill-opacity:1;stroke:none;stroke-width:0.98003787;stroke-miterlimit:4;stroke-dasharray:none;stroke-opacity:1"
       inkscape:label="#rect1475" />
    <rect
       y="196.09796"
       x="61.344215"
       height="15"
       width="15"
       id="FLIP_RIGHT"
       style="fill:#00ff00;fill-opacity:1;stroke:none;stroke-width:0.98003787;stroke-miterlimit:4;stroke-dasharray:none;stroke-opacity:1"
       inkscape:label="#rect1477" />
    <rect
       y="196.09796"
       x="82.564194"
       height="15"
       width="15"
       id="FLIP_RIGHT_BTN"
       style="fill:#ff0000;fill-opacity:1;stroke:none;stroke-width:0.98003787;stroke-miterlimit:4;stroke-dasharray:none;stroke-opacity:1"
       inkscape:label="#rect1479" />
    <rect
       style="fill:#00ff00;fill-opacity:1;stroke:none;stroke-width:0.98003787;stroke-miterlimit:4;stroke-dasharray:none;stroke-opacity:1"
       id="FLIP_LEFT"
       width="15"
       height="15"
       x="116.34422"
       y="196.09796"
       inkscape:label="#rect1481" />
    <rect
       style="fill:#ff0000;fill-opacity:1;stroke:none;stroke-width:0.98003787;stroke-miterlimit:4;stroke-dasharray:none;stroke-opacity:1"
       id="FLIP_LEFT_BTN"
       width="15"
       height="15"
       x="137.56419"
       y="196.09796"
       inkscape:label="#rect1483" />
    <rect
       style="fill:#00ff00;fill-opacity:1;stroke:none;stroke-width:0.98003787;stroke-miterlimit:4;stroke-dasharray:none;stroke-opacity:1"
       id="FLIP_UP"
       width="15"
       height="15"
       x="61.344215"
       y="235.98683"
       inkscape:label="#rect1485" />
    <rect
       style="fill:#ff0000;fill-opacity:1;stroke:none;stroke-width:0.98003787;stroke-miterlimit:4;stroke-dasharray:none;stroke-opacity:1"
       id="FLIP_UP_BTN"
       width="15"
       height="15"
       x="82.564194"
       y="235.98683"
       inkscape:label="#rect1487" />
    <rect
       y="235.98683"
       x="116.34422"
       height="15"
       width="15"
       id="FLIP_DOWN"
       style="fill:#00ff00;fill-opacity:1;stroke:none;stroke-width:0.98003787;stroke-miterlimit:4;stroke-dasharray:none;stroke-opacity:1"
       inkscape:label="#rect1489" />
    <rect
       y="235.98683"
       x="137.56419"
       height="15"
       width="15"
       id="FLIP_DOWN_BTN"
       style="fill:#ff0000;fill-opacity:1;stroke:none;stroke-width:0.98003787;stroke-miterlimit:4;stroke-dasharray:none;stroke-opacity:1"
       inkscape:label="#rect1491" />
    <rect
       y="290.20911"
       x="61.344002"
       height="15"
       width="15"
       id="LIFE_MODE"
       style="fill:#00ff00;fill-opacity:1;stroke:none;stroke-width:0.98003787;stroke-miterlimit:4;stroke-dasharray:none;stroke-opacity:1"
       inkscape:label="#rect1493" />
    <rect
       y="290.20911"
       x="82.563972"
       height="15"
       width="15"
       id="LIFE_MODE_SWITCH"
       style="fill:#ff0000;fill-opacity:1;stroke:none;stroke-width:0.98003787;stroke-miterlimit:4;stroke-dasharray:none;stroke-opacity:1"
       inkscape:label="#rect1495" />
    <rect
       style="fill:#00ff00;fill-opacity:1;stroke:none;stroke-width:0.98003787;stroke-miterlimit:4;stroke-dasharray:none;stroke-opacity:1"
       id="LIFE_SPEED"
       width="15"
       height="15"
       x="116.344"
       y="290.20911"
       inkscape:label="#rect1497" />
    <rect
       style="fill:#ff0000;fill-opacity:1;stroke:none;stroke-width:0.98003787;stroke-miterlimit:4;stroke-dasharray:none;stroke-opacity:1"
       id="LIFE_SPEED_KNOB"
       width="15"
       height="15"
       x="137.56398"
       y="290.20911"
       inkscape:label="#rect1499" />
    <rect
       y="113.7692"
       x="61.344002"
       height="15"
       width="15"
       id="RND_TRIG"
       style="fill:#00ff00;fill-opacity:1;stroke:none;stroke-width:0.98003787;stroke-miterlimit:4;stroke-dasharray:none;stroke-opacity:1"
       inkscape:label="#rect1501" />
    <rect
       y="113.7692"
       x="82.56398"
       height="15"
       width="15"
       id="RND_TRIG_BTN"
       style="fill:#ff0000;fill-opacity:1;stroke:none;stroke-width:0.98003787;stroke-miterlimit:4;stroke-dasharray:none;stroke-opacity:1"
       inkscape:label="#rect1503" />
    <rect
       style="fill:#00ff00;fill-opacity:1;stroke:none;stroke-width:0.98003787;stroke-miterlimit:4;stroke-dasharray:none;stroke-opacity:1"
       id="RND_AMT"
       width="15"
       height="15"
       x="116.34401"
       y="113.7692"
       inkscape:label="#rect1505" />
    <rect
       style="fill:#ff0000;fill-opacity:1;stroke:none;stroke-width:0.98003787;stroke-miterlimit:4;stroke-dasharray:none;stroke-opacity:1"
       id="RND_AMT_KNOB"
       width="15"
       height="15"
       x="137.56398"
       y="113.7692"
       inkscape:label="#rect1507" />
  </g>
  <rect
     style="fill:#000000;fill-opacity:0;stroke:none;stroke-width:1.00157475;stroke-miterlimit:4;stroke-dasharray:none;stroke-dashoffset:0;stroke-opacity:1"
     id="rect6840"
     width="17.988325"
     height="309.73651"
     x="24.733944"
     y="32.762554" />
  <path
     d="m 11.158817,26.749119 q 0,0.562502 -0.229167,1.005211 -0.223959,0.44271 -0.619794,0.734378 Q 9.8515221,28.832459 9.2994367,28.978293 8.75256,29.124126 7.9088073,29.124126 H 4.5233799 v -7.755232 h 3.0104262 q 0.937503,0 1.369796,0.0625 0.4375014,0.0625 0.8645861,0.276042 0.4427098,0.223959 0.6562518,0.604169 0.218751,0.375001 0.218751,0.859378 0,0.562501 -0.296876,0.994794 -0.296876,0.427085 -0.8385443,0.666669 v 0.04167 q 0.7604193,0.151042 1.2031283,0.625002 0.447918,0.47396 0.447918,1.250004 z m -2.5625075,-3.18751 q 0,-0.192709 -0.098959,-0.385418 -0.09375,-0.192709 -0.3385424,-0.286459 -0.2187507,-0.08333 -0.5468767,-0.08854 -0.3229177,-0.01042 -0.9114612,-0.01042 H 6.5129696 v 1.64063 h 0.312501 q 0.4739598,0 0.8072942,-0.01563 0.3333344,-0.01563 0.5260433,-0.104167 0.2708342,-0.119792 0.3541678,-0.307292 0.083334,-0.192709 0.083334,-0.44271 z m 0.4895849,3.15626 q 0,-0.369793 -0.1458338,-0.56771 Q 8.7994351,25.947033 8.455684,25.848074 8.2213083,25.780364 7.8098487,25.775154 7.398389,25.769954 6.9504709,25.769954 H 6.5129696 v 1.932298 h 0.1458338 q 0.8437526,0 1.2083371,-0.0052 0.3645845,-0.0052 0.6718771,-0.135418 0.312501,-0.130208 0.4270847,-0.343751 0.1197921,-0.21875 0.1197921,-0.500001 z m 9.2864876,2.406257 h -1.875006 v -0.645835 q -0.520835,0.395835 -0.953128,0.604169 -0.432293,0.203125 -1.031253,0.203125 -0.968753,0 -1.494797,-0.557293 -0.520835,-0.557294 -0.520835,-1.645839 V 23.27515 h 1.885423 v 2.90105 q 0,0.44271 0.02604,0.739586 0.03125,0.291668 0.135417,0.484377 0.09896,0.192709 0.296876,0.281251 0.203125,0.08854 0.562502,0.08854 0.239584,0 0.531251,-0.08854 0.291668,-0.08854 0.562502,-0.260418 V 23.27515 H 18.37238 Z M 23.9349,22.394939 h -0.140625 q -0.125001,-0.03646 -0.328127,-0.08333 -0.197917,-0.04687 -0.427084,-0.04687 -0.552085,0 -0.750003,0.197917 -0.192709,0.197917 -0.192709,0.765627 v 0.04688 h 1.447922 V 24.546 h -1.385421 v 4.578139 H 20.283847 V 24.545987 H 19.481761 V 23.27515 h 0.802086 v -0.161459 q 0,-1.07292 0.56771,-1.60938 0.572918,-0.53646 1.729172,-0.53646 0.416668,0 0.755211,0.03125 0.338542,0.02604 0.59896,0.07292 z m 4.505222,0 h -0.140625 q -0.125001,-0.03646 -0.328126,-0.08333 -0.197917,-0.04687 -0.427085,-0.04687 -0.552085,0 -0.750002,0.197917 -0.192709,0.197917 -0.192709,0.765627 v 0.04688 h 1.447921 V 24.546 h -1.385421 v 4.578139 H 24.789069 V 24.545987 H 23.986983 V 23.27515 h 0.802086 v -0.161459 q 0,-1.07292 0.56771,-1.60938 0.572919,-0.53646 1.729172,-0.53646 0.416668,0 0.755211,0.03125 0.338543,0.02604 0.59896,0.07292 z m 6.473979,4.151054 h -4.29168 q 0.04167,0.687502 0.520835,1.052087 0.484376,0.364584 1.421879,0.364584 0.593752,0 1.151045,-0.213542 0.557294,-0.213542 0.880211,-0.458335 h 0.208334 V 28.796 q -0.635418,0.25521 -1.19792,0.369793 -0.562502,0.114584 -1.244796,0.114584 -1.760422,0 -2.697925,-0.791669 -0.937503,-0.791669 -0.937503,-2.255216 0,-1.447921 0.88542,-2.291674 0.890628,-0.848961 2.437507,-0.848961 1.427088,0 2.145841,0.723961 0.718752,0.718752 0.718752,2.072923 z m -1.864589,-1.098962 q -0.01563,-0.588543 -0.291668,-0.885419 -0.276043,-0.296876 -0.859378,-0.296876 -0.541668,0 -0.890628,0.281251 -0.348959,0.281251 -0.390626,0.901044 z m 7.427108,-0.385417 h -0.166668 q -0.119792,-0.04167 -0.385418,-0.0625 -0.265625,-0.02083 -0.442709,-0.02083 -0.401043,0 -0.708336,0.05208 -0.307292,0.05208 -0.66146,0.177083 v 3.916679 H 36.237023 V 23.27515 h 1.875006 v 0.859377 q 0.619793,-0.531251 1.078128,-0.703127 0.458335,-0.177084 0.843753,-0.177084 0.09896,0 0.223959,0.0052 0.125,0.0052 0.218751,0.01563 z"
     id="text1"
     style="font-weight:bold;font-size:10.6667px;-inkscape-font-specification:'sans-serif Bold';fill:#ffffff;stroke-width:1.002"
     aria-label="Buffer" />
  <path
     d="m 18.193357,41.545407 q 0,0.283203 -0.133464,0.559896 -0.130208,0.276693 -0.367839,0.46875 -0.260417,0.208334 -0.608724,0.325521 -0.345052,0.117188 -0.833334,0.117188 -0.524089,0 -0.944011,-0.09766 -0.416666,-0.09766 -0.849609,-0.289714 V 41.8221 h 0.04557 q 0.367838,0.30599 0.849609,0.472005 0.481771,0.166016 0.904949,0.166016 0.598958,0 0.93099,-0.22461 0.335286,-0.224609 0.335286,-0.598958 0,-0.322266 -0.159505,-0.475261 -0.15625,-0.152995 -0.478516,-0.23763 -0.244141,-0.0651 -0.530599,-0.107422 -0.283203,-0.04232 -0.602214,-0.107422 -0.644531,-0.136719 -0.957032,-0.465495 -0.309245,-0.332031 -0.309245,-0.862631 0,-0.608724 0.514324,-0.996094 0.514323,-0.390625 1.305339,-0.390625 0.511068,0 0.9375,0.09766 0.426433,0.09766 0.755209,0.240886 v 0.761719 h -0.04557 q -0.276693,-0.234375 -0.729167,-0.38737 -0.449219,-0.15625 -0.921224,-0.15625 -0.517579,0 -0.833334,0.214844 -0.3125,0.214844 -0.3125,0.553385 0,0.302735 0.15625,0.475261 0.15625,0.172526 0.55013,0.263672 0.208334,0.04557 0.592448,0.110677 0.384115,0.0651 0.651042,0.133464 0.540365,0.143229 0.813803,0.432943 0.273438,0.289713 0.273438,0.810547 z m 2.87435,1.350912 q -0.172526,0.04557 -0.377604,0.07487 -0.201823,0.0293 -0.361329,0.0293 -0.556641,0 -0.846354,-0.29948 -0.289714,-0.299479 -0.289714,-0.960286 v -1.933598 h -0.413412 v -0.514323 h 0.413412 v -1.044923 h 0.611979 v 1.044923 h 1.263022 v 0.514323 h -1.263022 v 1.656902 q 0,0.286458 0.01302,0.449219 0.01302,0.159505 0.09115,0.299479 0.07162,0.130208 0.195313,0.192057 0.126953,0.05859 0.384115,0.05859 0.149739,0 0.3125,-0.04232 0.16276,-0.04557 0.234375,-0.07487 h 0.03255 z m 3.564454,0.03255 h -0.608724 v -0.38737 q -0.08138,0.05534 -0.221354,0.15625 -0.136719,0.09766 -0.266927,0.15625 -0.152995,0.07487 -0.351563,0.123698 -0.198568,0.05208 -0.465495,0.05208 -0.491537,0 -0.833334,-0.325521 -0.341797,-0.325521 -0.341797,-0.830079 0,-0.413412 0.175782,-0.667318 0.179036,-0.257161 0.507812,-0.403646 0.332032,-0.146484 0.797527,-0.198568 0.465495,-0.05208 0.999349,-0.07813 v -0.0944 q 0,-0.208333 -0.07487,-0.345052 -0.07161,-0.136719 -0.208333,-0.214844 -0.130208,-0.07487 -0.3125,-0.100911 -0.182292,-0.02604 -0.38086,-0.02604 -0.240885,0 -0.537109,0.0651 -0.296224,0.06185 -0.61198,0.182292 h -0.03255 v -0.621745 q 0.179037,-0.04883 0.517578,-0.107422 0.338542,-0.05859 0.667318,-0.05859 0.384115,0 0.667318,0.0651 0.286459,0.06185 0.494792,0.214844 0.205079,0.14974 0.312501,0.38737 0.107421,0.23763 0.107421,0.589193 z m -0.608724,-0.895183 v -1.01237 q -0.279948,0.01628 -0.660807,0.04883 -0.377605,0.03255 -0.598959,0.0944 -0.263672,0.07487 -0.426433,0.234376 -0.16276,0.15625 -0.16276,0.432942 0,0.312501 0.188802,0.472006 0.188802,0.15625 0.576172,0.15625 0.322266,0 0.589193,-0.123698 0.266928,-0.126953 0.494792,-0.302735 z m 4.055992,-2.073568 h -0.03255 q -0.136719,-0.03255 -0.266928,-0.04557 -0.126953,-0.01628 -0.302734,-0.01628 -0.283203,0 -0.546875,0.126953 -0.263672,0.123698 -0.507813,0.322266 v 2.581381 h -0.61198 v -3.636069 h 0.61198 v 0.537109 q 0.364583,-0.292969 0.641276,-0.413411 0.279948,-0.123698 0.569662,-0.123698 0.159505,0 0.23112,0.0098 0.07161,0.0065 0.214844,0.0293 z m 2.464194,2.936199 q -0.172526,0.04557 -0.377605,0.07487 -0.201823,0.0293 -0.361328,0.0293 -0.556641,0 -0.846354,-0.29948 -0.289714,-0.299479 -0.289714,-0.960286 V 39.807126 H 28.25521 v -0.514323 h 0.413412 V 38.24788 h 0.611979 v 1.044923 h 1.263022 v 0.514323 h -1.263022 v 1.656902 q 0,0.286458 0.01302,0.449219 0.01302,0.159505 0.09115,0.299479 0.07161,0.130208 0.195313,0.192057 0.126953,0.05859 0.384114,0.05859 0.14974,0 0.312501,-0.04232 0.16276,-0.04557 0.234375,-0.07487 h 0.03255 z"
     id="text2"
     style="font-size:6.66667px;-inkscape-font-specification:sans-serif;text-align:center;text-anchor:middle;fill:#ffffff;stroke-width:1.002"
     aria-label="Start" />
  <path
     d="M 20.02604,102.10321 H 16.832679 V 97.2562 h 3.193361 v 0.57292 h -2.548829 v 1.32813 h 2.548829 v 0.57291 h -2.548829 v 1.80013 h 2.548829 z m 4.013674,0 h -0.61198 v -2.07031 q 0,-0.25065 -0.0293,-0.46875 -0.0293,-0.22136 -0.10742,-0.34506 -0.08138,-0.13671 -0.234377,-0.20182 -0.152994,-0.0684 -0.397134,-0.0684 -0.250652,0 -0.524089,0.1237 -0.273438,0.1237 -0.524089,0.31575 v 2.71485 h -0.61198 V 98.4671 h 0.61198 v 0.40365 q 0.286459,-0.23763 0.592448,-0.3711 0.30599,-0.13346 0.628256,-0.13346 0.589193,0 0.898438,0.35482 0.309245,0.35481 0.309245,1.02213 z m 4.127606,0 h -0.61198 v -0.38086 q -0.263672,0.22787 -0.55013,0.35482 -0.286459,0.12695 -0.621745,0.12695 -0.651042,0 -1.035157,-0.5013 -0.380859,-0.5013 -0.380859,-1.38998 0,-0.46223 0.130208,-0.82356 0.133464,-0.36133 0.358073,-0.61524 0.221354,-0.24739 0.514323,-0.3776 0.296224,-0.13021 0.61198,-0.13021 0.286458,0 0.507812,0.0618 0.221355,0.0586 0.465495,0.18555 v -1.57552 h 0.61198 z m -0.61198,-0.89518 v -2.08659 q -0.247395,-0.11068 -0.442708,-0.153 -0.195312,-0.0423 -0.426433,-0.0423 -0.514323,0 -0.800781,0.35808 -0.286459,0.35807 -0.286459,1.01562 0,0.64779 0.221355,0.98633 0.221354,0.33529 0.709635,0.33529 0.260417,0 0.527344,-0.11394 0.266927,-0.11718 0.498047,-0.29948 z"
     id="text3"
     style="font-size:6.66667px;-inkscape-font-specification:sans-serif;text-align:center;text-anchor:middle;fill:#ffffff;stroke-width:1.002"
     aria-label="End" />
  <path
     d="m 13.079421,248.97886 q 0,0.66081 -0.289714,1.19792 -0.286458,0.53711 -0.764974,0.83333 -0.332031,0.20508 -0.742188,0.29623 -0.406901,0.0911 -1.074218,0.0911 H 8.9843676 v -4.84701 h 1.2109384 q 0.709635,0 1.126302,0.10417 0.419922,0.10091 0.709636,0.27995 0.494791,0.30924 0.771484,0.82356 0.276693,0.51433 0.276693,1.22071 z m -0.673828,-0.01 q 0,-0.56966 -0.198568,-0.96028 -0.198568,-0.39063 -0.592448,-0.61524 -0.286459,-0.16276 -0.608725,-0.22461 -0.322265,-0.0651 -0.771484,-0.0651 H 9.6288992 v 3.74024 h 0.6054688 q 0.465495,0 0.810547,-0.0684 0.348307,-0.0684 0.638021,-0.25391 0.361328,-0.23112 0.540365,-0.60872 0.182292,-0.37761 0.182292,-0.94401 z m 3.935548,-0.54036 h -0.03255 q -0.136718,-0.0326 -0.266927,-0.0456 -0.126953,-0.0163 -0.302734,-0.0163 -0.283204,0 -0.546876,0.12695 -0.263672,0.1237 -0.507812,0.32227 v 2.58138 h -0.61198 v -3.63607 h 0.61198 v 0.53711 q 0.364583,-0.29297 0.641276,-0.41341 0.279948,-0.1237 0.569662,-0.1237 0.159505,0 0.23112,0.01 0.07161,0.006 0.214843,0.0293 z m 3.720705,-0.66732 -2.122397,4.97722 h -0.654297 l 0.677084,-1.51693 -1.448569,-3.46029 h 0.664063 l 1.116537,2.69531 1.126303,-2.69531 z m 2.998048,-1.42904 -2.333985,6.05469 h -0.563151 l 2.324219,-6.05469 z m 6.520186,0.2181 -1.259766,4.84701 h -0.725912 l -1.01888,-4.02344 -0.996095,4.02344 h -0.709635 l -1.282553,-4.84701 h 0.660807 l 1.018881,4.02995 1.002605,-4.02995 h 0.654297 l 1.01237,4.06902 1.012371,-4.06902 z m 3.619795,3.09245 h -2.679038 q 0,0.33529 0.100912,0.58594 0.100911,0.2474 0.276692,0.4069 0.169271,0.15625 0.400391,0.23438 0.234375,0.0781 0.514323,0.0781 0.371094,0 0.745443,-0.14649 0.377605,-0.14974 0.53711,-0.29297 h 0.03255 v 0.66732 q -0.309245,0.13021 -0.631511,0.2181 -0.322265,0.0879 -0.677083,0.0879 -0.904949,0 -1.412761,-0.48828 -0.507813,-0.49154 -0.507813,-1.39323 0,-0.89193 0.485026,-1.41602 0.488282,-0.52409 1.282553,-0.52409 0.735677,0 1.132813,0.42969 0.400391,0.42969 0.400391,1.22071 z m -0.595704,-0.46875 q -0.0033,-0.48177 -0.24414,-0.74544 -0.237631,-0.26367 -0.725912,-0.26367 -0.491537,0 -0.784506,0.28971 -0.289713,0.28971 -0.328776,0.7194 z m 3.41146,2.19076 q -0.172526,0.0456 -0.377605,0.0749 -0.201823,0.0293 -0.361328,0.0293 -0.556641,0 -0.846354,-0.29948 -0.289714,-0.29948 -0.289714,-0.96029 v -1.93359 h -0.413412 v -0.51433 h 0.413412 v -1.04492 h 0.611979 v 1.04492 h 1.263022 v 0.51433 h -1.263022 v 1.6569 q 0,0.28646 0.01302,0.44922 0.01302,0.1595 0.09115,0.29948 0.07162,0.13021 0.195313,0.19206 0.126953,0.0586 0.384114,0.0586 0.14974,0 0.312501,-0.0423 0.16276,-0.0456 0.234375,-0.0749 h 0.03255 z"
     id="text4"
     style="font-size:6.66667px;-inkscape-font-specification:sans-serif;text-align:center;text-anchor:middle;fill:#ffffff;stroke-width:1.002"
     aria-label="Dry/Wet" />
  <path
     d="m 15.056963,158.63248 h -2.451174 v 1.36719 h 2.106121 v 0.57291 h -2.106121 v 2.33399 h -0.644531 v -4.84701 h 3.095705 z m 2.95573,1.30534 h -0.03255 q -0.136719,-0.0326 -0.266927,-0.0456 -0.126953,-0.0163 -0.302735,-0.0163 -0.283203,0 -0.546875,0.12695 -0.263672,0.1237 -0.507813,0.32227 v 2.58138 h -0.611979 v -3.63607 h 0.611979 v 0.53711 q 0.364584,-0.29297 0.641277,-0.41341 0.279948,-0.1237 0.569661,-0.1237 0.159506,0 0.23112,0.01 0.07161,0.007 0.214844,0.0293 z m 3.619793,1.21419 h -2.679037 q 0,0.33529 0.100911,0.58594 0.100912,0.2474 0.276693,0.4069 0.169271,0.15625 0.400391,0.23438 0.234375,0.0781 0.514323,0.0781 0.371094,0 0.745443,-0.14648 0.377604,-0.14974 0.53711,-0.29297 h 0.03255 v 0.66732 q -0.309245,0.1302 -0.631511,0.2181 -0.322266,0.0879 -0.677084,0.0879 -0.904948,0 -1.412761,-0.48829 -0.507812,-0.49153 -0.507812,-1.39323 0,-0.89192 0.485026,-1.41601 0.488281,-0.52409 1.282553,-0.52409 0.735677,0 1.132813,0.42969 0.40039,0.42968 0.40039,1.2207 z m -0.595703,-0.46875 q -0.0033,-0.48177 -0.244141,-0.74544 -0.23763,-0.26367 -0.725911,-0.26367 -0.491537,0 -0.784506,0.28971 -0.289714,0.28971 -0.328776,0.7194 z m 4.56706,0.46875 h -2.679038 q 0,0.33529 0.100912,0.58594 0.100911,0.2474 0.276692,0.4069 0.169271,0.15625 0.400391,0.23438 0.234375,0.0781 0.514323,0.0781 0.371094,0 0.745444,-0.14648 0.377604,-0.14974 0.537109,-0.29297 h 0.03255 v 0.66732 q -0.309245,0.1302 -0.63151,0.2181 -0.322266,0.0879 -0.677084,0.0879 -0.904948,0 -1.412761,-0.48829 -0.507813,-0.49153 -0.507813,-1.39323 0,-0.89192 0.485026,-1.41601 0.488282,-0.52409 1.282553,-0.52409 0.735677,0 1.132813,0.42969 0.400391,0.42968 0.400391,1.2207 z m -0.595704,-0.46875 q -0.0033,-0.48177 -0.24414,-0.74544 -0.237631,-0.26367 -0.725912,-0.26367 -0.491537,0 -0.784506,0.28971 -0.289713,0.28971 -0.328776,0.7194 z m 4.160159,2.22331 h -2.936199 v -0.45247 l 2.119141,-2.67253 h -2.073568 v -0.51107 h 2.835287 v 0.4362 l -2.128907,2.68229 h 2.184246 z m 3.870444,-1.75456 h -2.679038 q 0,0.33529 0.100912,0.58594 0.100911,0.2474 0.276693,0.4069 0.169271,0.15625 0.400391,0.23438 0.234375,0.0781 0.514323,0.0781 0.371094,0 0.745443,-0.14648 0.377604,-0.14974 0.537109,-0.29297 h 0.03255 v 0.66732 q -0.309245,0.1302 -0.631511,0.2181 -0.322266,0.0879 -0.677084,0.0879 -0.904948,0 -1.412761,-0.48829 -0.507813,-0.49153 -0.507813,-1.39323 0,-0.89192 0.485027,-1.41601 0.488281,-0.52409 1.282552,-0.52409 0.735678,0 1.132813,0.42969 0.400391,0.42968 0.400391,1.2207 z m -0.595703,-0.46875 q -0.0033,-0.48177 -0.244141,-0.74544 -0.23763,-0.26367 -0.725912,-0.26367 -0.491536,0 -0.784505,0.28971 -0.289714,0.28971 -0.328777,0.7194 z"
     id="text5"
     style="font-size:6.66667px;-inkscape-font-specification:sans-serif;text-align:center;text-anchor:middle;fill:#ffffff;stroke-width:1.002"
     aria-label="Freeze" />
  <path
     d="M 10.77234,314.64764 H 8.8582768 v -0.49479 h 0.6347659 v -3.85742 H 8.8582768 v -0.49479 H 10.77234 v 0.49479 h -0.634766 v 3.85742 h 0.634766 z m 4.088544,0 h -0.61198 v -2.07031 q 0,-0.25065 -0.0293,-0.46875 -0.0293,-0.22135 -0.107422,-0.34505 -0.08138,-0.13672 -0.234376,-0.20182 -0.152994,-0.0684 -0.397135,-0.0684 -0.250651,0 -0.524089,0.12369 -0.273438,0.1237 -0.524089,0.31576 v 2.71484 h -0.611979 v -3.63607 h 0.611979 v 0.40365 q 0.286459,-0.23763 0.592448,-0.37109 0.30599,-0.13347 0.628256,-0.13347 0.589193,0 0.898438,0.35482 0.309245,0.35482 0.309245,1.02214 z"
     id="text6"
     style="font-size:6.66667px;-inkscape-font-specification:sans-serif;text-align:center;text-anchor:middle;fill:#ffffff;stroke-width:1.002"
     aria-label="In" />
  <path
     d="m 30.54692,310.25636 q 0.296224,0.32552 0.452474,0.79752 0.159505,0.47201 0.159505,1.07097 0,0.59895 -0.16276,1.07422 -0.159505,0.472 -0.449219,0.78776 -0.299479,0.32877 -0.709636,0.49479 -0.406901,0.16601 -0.93099,0.16601 -0.511068,0 -0.93099,-0.16927 -0.416667,-0.16927 -0.709636,-0.49153 -0.292969,-0.32227 -0.452474,-0.79102 -0.15625,-0.46875 -0.15625,-1.07096 0,-0.59245 0.15625,-1.0612 0.15625,-0.47201 0.45573,-0.80729 0.286458,-0.31901 0.709635,-0.48829 0.426433,-0.16927 0.927735,-0.16927 0.520834,0 0.934245,0.17253 0.416667,0.16927 0.706381,0.48503 z m -0.05859,1.86849 q 0,-0.94401 -0.423177,-1.45508 -0.423177,-0.51433 -1.1556,-0.51433 -0.738932,0 -1.16211,0.51433 -0.419922,0.51107 -0.419922,1.45508 0,0.95377 0.429688,1.46159 0.429688,0.50455 1.152344,0.50455 0.722657,0 1.149089,-0.50455 0.429688,-0.50782 0.429688,-1.46159 z m 4.658206,2.42187 h -0.61198 v -0.40364 q -0.309245,0.24414 -0.592448,0.37435 -0.283203,0.1302 -0.625,0.1302 -0.572917,0 -0.891928,-0.3483 -0.31901,-0.35157 -0.31901,-1.02865 v -2.36003 h 0.611979 v 2.07032 q 0,0.27669 0.02604,0.47526 0.02604,0.19531 0.110677,0.33528 0.08789,0.14323 0.227864,0.20834 0.139974,0.0651 0.406902,0.0651 0.23763,0 0.517578,-0.1237 0.283203,-0.12369 0.527344,-0.31575 v -2.71485 h 0.61198 z m 3.092449,-0.0326 q -0.172526,0.0456 -0.377605,0.0749 -0.201823,0.0293 -0.361328,0.0293 -0.556641,0 -0.846354,-0.29948 -0.289714,-0.29948 -0.289714,-0.96029 v -1.93359 h -0.413412 v -0.51433 h 0.413412 v -1.04492 h 0.611979 v 1.04492 h 1.263022 v 0.51433 h -1.263022 v 1.6569 q 0,0.28646 0.01302,0.44922 0.01302,0.1595 0.09115,0.29948 0.07162,0.1302 0.195313,0.19205 0.126953,0.0586 0.384114,0.0586 0.14974,0 0.312501,-0.0423 0.16276,-0.0456 0.234375,-0.0749 h 0.03255 z"
     id="text7"
     style="font-size:6.66667px;-inkscape-font-specification:sans-serif;text-align:center;text-anchor:middle;fill:#ffffff;stroke-width:1.002"
     aria-label="Out" />
  <g
     id="text8"
     style="font-size:6.66667px;-inkscape-font-specification:sans-serif;text-align:center;text-anchor:middle;fill:#ffffff;stroke-width:1.002"
     aria-label="Wet on&#10;Freeze">
    <path
       d="m 17.194007,200.25759 -1.259766,4.84701 h -0.725912 l -1.018881,-4.02344 -0.996094,4.02344 h -0.709636 l -1.282552,-4.84701 h 0.660807 l 1.018881,4.02995 1.002605,-4.02995 h 0.654297 l 1.01237,4.06901 1.01237,-4.06901 z m 3.619794,3.09245 h -2.679038 q 0,0.33529 0.100912,0.58594 0.100911,0.24739 0.276692,0.4069 0.169271,0.15625 0.400391,0.23437 0.234375,0.0781 0.514323,0.0781 0.371094,0 0.745443,-0.14648 0.377605,-0.14974 0.53711,-0.29297 h 0.03255 v 0.66731 q -0.309245,0.13021 -0.631511,0.2181 -0.322265,0.0879 -0.677083,0.0879 -0.904949,0 -1.412761,-0.48828 -0.507813,-0.49153 -0.507813,-1.39323 0,-0.89192 0.485026,-1.41601 0.488282,-0.52409 1.282553,-0.52409 0.735677,0 1.132813,0.42969 0.400391,0.42968 0.400391,1.2207 z m -0.595704,-0.46875 q -0.0033,-0.48177 -0.24414,-0.74544 -0.237631,-0.26367 -0.725912,-0.26367 -0.491537,0 -0.784506,0.28971 -0.289713,0.28971 -0.328776,0.7194 z m 3.41146,2.19076 q -0.172526,0.0456 -0.377605,0.0749 -0.201823,0.0293 -0.361328,0.0293 -0.556641,0 -0.846355,-0.29948 -0.289713,-0.29948 -0.289713,-0.96028 v -1.9336 h -0.413412 v -0.51432 h 0.413412 v -1.04492 h 0.611979 v 1.04492 h 1.263022 v 0.51432 h -1.263022 v 1.6569 q 0,0.28646 0.01302,0.44922 0.01302,0.15951 0.09115,0.29948 0.07162,0.13021 0.195313,0.19206 0.126953,0.0586 0.384114,0.0586 0.14974,0 0.3125,-0.0423 0.162761,-0.0456 0.234376,-0.0749 h 0.03255 z m 6.181644,-1.78386 q 0,0.88867 -0.45573,1.403 -0.455729,0.51432 -1.220703,0.51432 -0.771485,0 -1.227214,-0.51432 -0.452475,-0.51433 -0.452475,-1.403 0,-0.88867 0.452475,-1.40299 0.455729,-0.51758 1.227214,-0.51758 0.764974,0 1.220703,0.51758 0.45573,0.51432 0.45573,1.40299 z m -0.631511,0 q 0,-0.70638 -0.276693,-1.04818 -0.276693,-0.34505 -0.768229,-0.34505 -0.498047,0 -0.77474,0.34505 -0.273438,0.3418 -0.273438,1.04818 0,0.6836 0.276693,1.03841 0.276693,0.35157 0.771485,0.35157 0.488281,0 0.764974,-0.34831 0.279948,-0.35156 0.279948,-1.04167 z m 4.619143,1.81641 h -0.61198 v -2.07031 q 0,-0.25066 -0.0293,-0.46875 -0.0293,-0.22136 -0.107422,-0.34506 -0.08138,-0.13672 -0.234375,-0.20182 -0.152995,-0.0684 -0.397135,-0.0684 -0.250652,0 -0.524089,0.1237 -0.273438,0.1237 -0.524089,0.31575 v 2.71485 h -0.61198 v -3.63607 h 0.61198 v 0.40365 q 0.286458,-0.23763 0.592448,-0.3711 0.30599,-0.13346 0.628256,-0.13346 0.589193,0 0.898438,0.35482 0.309245,0.35481 0.309245,1.02213 z"
       id="path8" />
    <path
       d="m 15.358069,209.16385 h -2.451173 v 1.36718 h 2.106121 v 0.57292 h -2.106121 v 2.33399 h -0.644532 v -4.84701 h 3.095705 z m 2.95573,1.30533 h -0.03255 q -0.136719,-0.0325 -0.266927,-0.0456 -0.126953,-0.0163 -0.302734,-0.0163 -0.283204,0 -0.546876,0.12695 -0.263672,0.1237 -0.507812,0.32226 v 2.58139 h -0.61198 v -3.63607 h 0.61198 v 0.53711 q 0.364583,-0.29297 0.641276,-0.41342 0.279948,-0.12369 0.569662,-0.12369 0.159505,0 0.23112,0.01 0.07161,0.007 0.214843,0.0293 z m 3.619794,1.2142 h -2.679038 q 0,0.33528 0.100912,0.58594 0.100911,0.24739 0.276692,0.4069 0.169271,0.15625 0.400391,0.23437 0.234375,0.0781 0.514323,0.0781 0.371094,0 0.745443,-0.14649 0.377605,-0.14974 0.53711,-0.29297 h 0.03255 v 0.66732 q -0.309245,0.13021 -0.631511,0.2181 -0.322265,0.0879 -0.677083,0.0879 -0.904949,0 -1.412761,-0.48828 -0.507813,-0.49154 -0.507813,-1.39323 0,-0.89193 0.485026,-1.41602 0.488282,-0.52408 1.282553,-0.52408 0.735677,0 1.132813,0.42968 0.400391,0.42969 0.400391,1.22071 z m -0.595704,-0.46875 q -0.0033,-0.48177 -0.24414,-0.74545 -0.237631,-0.26367 -0.725912,-0.26367 -0.491537,0 -0.784506,0.28972 -0.289713,0.28971 -0.328776,0.7194 z m 4.56706,0.46875 h -2.679038 q 0,0.33528 0.100912,0.58594 0.100911,0.24739 0.276693,0.4069 0.169271,0.15625 0.400391,0.23437 0.234375,0.0781 0.514323,0.0781 0.371094,0 0.745443,-0.14649 0.377604,-0.14974 0.537109,-0.29297 h 0.03255 v 0.66732 q -0.309245,0.13021 -0.631511,0.2181 -0.322266,0.0879 -0.677084,0.0879 -0.904948,0 -1.412761,-0.48828 -0.507813,-0.49154 -0.507813,-1.39323 0,-0.89193 0.485027,-1.41602 0.488281,-0.52408 1.282552,-0.52408 0.735678,0 1.132813,0.42968 0.400391,0.42969 0.400391,1.22071 z m -0.595703,-0.46875 q -0.0033,-0.48177 -0.244141,-0.74545 -0.23763,-0.26367 -0.725912,-0.26367 -0.491536,0 -0.784505,0.28972 -0.289714,0.28971 -0.328777,0.7194 z m 4.160158,2.22331 h -2.936199 v -0.45248 l 2.119142,-2.67253 h -2.073569 v -0.51106 h 2.835288 v 0.43619 l -2.128908,2.6823 h 2.184246 z m 3.870444,-1.75456 h -2.679037 q 0,0.33528 0.100911,0.58594 0.100912,0.24739 0.276693,0.4069 0.169271,0.15625 0.400391,0.23437 0.234375,0.0781 0.514323,0.0781 0.371094,0 0.745443,-0.14649 0.377604,-0.14974 0.53711,-0.29297 h 0.03255 v 0.66732 q -0.309245,0.13021 -0.631511,0.2181 -0.322266,0.0879 -0.677083,0.0879 -0.904949,0 -1.412762,-0.48828 -0.507812,-0.49154 -0.507812,-1.39323 0,-0.89193 0.485026,-1.41602 0.488281,-0.52408 1.282553,-0.52408 0.735677,0 1.132813,0.42968 0.40039,0.42969 0.40039,1.22071 z m -0.595703,-0.46875 q -0.0033,-0.48177 -0.244141,-0.74545 -0.23763,-0.26367 -0.725911,-0.26367 -0.491537,0 -0.784506,0.28972 -0.289714,0.28971 -0.328776,0.7194 z"
       id="path9" />
  </g>
</svg>
