<?xml version="1.0" encoding="UTF-8" standalone="no"?>
<!-- Created with Inkscape (http://www.inkscape.org/) -->

<svg
   xmlns:dc="http://purl.org/dc/elements/1.1/"
   xmlns:cc="http://creativecommons.org/ns#"
   xmlns:rdf="http://www.w3.org/1999/02/22-rdf-syntax-ns#"
   xmlns:svg="http://www.w3.org/2000/svg"
   xmlns="http://www.w3.org/2000/svg"
   xmlns:xlink="http://www.w3.org/1999/xlink"
   xmlns:sodipodi="http://sodipodi.sourceforge.net/DTD/sodipodi-0.dtd"
   xmlns:inkscape="http://www.inkscape.org/namespaces/inkscape"
   width="90"
   height="380"
   viewBox="0 0 23.8125 100.54166"
   version="1.1"
   id="svg12553"
   inkscape:version="0.92.2 5c3e80d, 2017-08-06"
   sodipodi:docname="CoolBreeze.svg">
  <defs
     id="defs12547">
    <linearGradient
       id="linearGradient5317"
       inkscape:collect="always">
      <stop
         id="stop5323"
         offset="0"
         style="stop-color:#000000;stop-opacity:1;" />
      <stop
         id="stop5325"
         offset="1"
         style="stop-color:#000000;stop-opacity:0;" />
    </linearGradient>
    <radialGradient
       inkscape:collect="always"
       xlink:href="#linearGradient5317"
       id="radialGradient5328"
       cx="38.449745"
       cy="211.65016"
       fx="38.449745"
       fy="211.65016"
       r="11.906249"
       gradientTransform="matrix(3.5873019,1.2222219,-1.359709,3.9908358,188.30153,-680.00498)"
       gradientUnits="userSpaceOnUse" />
  </defs>
  <sodipodi:namedview
     id="base"
     pagecolor="#ffffff"
     bordercolor="#666666"
     borderopacity="1.0"
     inkscape:pageopacity="0.0"
     inkscape:pageshadow="2"
     inkscape:zoom="1.4"
     inkscape:cx="129.00172"
     inkscape:cy="166.08799"
     inkscape:document-units="px"
     inkscape:current-layer="layer1"
     showgrid="true"
     fit-margin-top="0"
     fit-margin-left="0"
     fit-margin-right="0"
     fit-margin-bottom="0"
     units="px"
     inkscape:window-width="1188"
     inkscape:window-height="964"
     inkscape:window-x="277"
     inkscape:window-y="191"
     inkscape:window-maximized="0"
     inkscape:snap-global="false">
    <inkscape:grid
       type="xygrid"
       id="grid12870"
       originx="-20.372917"
       originy="84.666661" />
  </sodipodi:namedview>
  <metadata
     id="metadata12550">
    <rdf:RDF>
      <cc:Work
         rdf:about="">
        <dc:format>image/svg+xml</dc:format>
        <dc:type
           rdf:resource="http://purl.org/dc/dcmitype/StillImage" />
        <dc:title />
      </cc:Work>
    </rdf:RDF>
  </metadata>
  <g
     inkscape:label="Layer 1"
     inkscape:groupmode="layer"
     id="layer1"
     transform="translate(-26.543497,-161.30655)">
    <path
       inkscape:connector-curvature="0"
       id="path33453"
       d="m 26.543497,161.45211 h 23.812499 v 100.3961 H 26.543497 Z m 0,0"
       style="fill:url(#radialGradient5328);fill-opacity:1;fill-rule:nonzero;stroke:none;stroke-width:0.14416076" />
    <path
       inkscape:connector-curvature="0"
       id="path911"
       style="font-style:normal;font-variant:normal;font-weight:normal;font-stretch:normal;font-size:12.69999981px;line-height:1.25;font-family:'Lucida Bright';-inkscape-font-specification:'Lucida Bright, Normal';font-variant-ligatures:normal;font-variant-caps:normal;font-variant-numeric:normal;font-feature-settings:normal;text-align:center;letter-spacing:0px;word-spacing:0px;writing-mode:lr-tb;text-anchor:middle;fill:#1996fc;fill-opacity:1;stroke:none;stroke-width:0.20604189"
       d="m 42.43616,246.18187 q 0.719335,1.24643 0.719335,2.90214 0,2.1146 -1.296044,3.33623 -1.296045,1.21543 -3.54087,1.21543 -2.27583,0 -3.534667,-1.17202 -1.265039,-1.17202 -1.265039,-3.28662 0,-1.079 0.458886,-2.83393 h 1.754932 v 0.76274 l -0.124024,0.006 q -0.186035,0.006 -0.365869,0.0124 -0.607715,0 -0.95498,0.56431 -0.353467,0.56431 -0.353467,1.53789 0,1.39526 1.190625,2.22622 1.190625,0.83096 3.181201,0.83096 1.996777,0 3.11919,-0.97359 1.11621,-0.97358 1.11621,-2.70991 0,-1.13481 -0.700732,-2.41845 z" />
    <path
       inkscape:connector-curvature="0"
       id="path913"
       style="font-style:normal;font-variant:normal;font-weight:normal;font-stretch:normal;font-size:12.69999981px;line-height:1.25;font-family:'Lucida Bright';-inkscape-font-specification:'Lucida Bright, Normal';font-variant-ligatures:normal;font-variant-caps:normal;font-variant-numeric:normal;font-feature-settings:normal;text-align:center;letter-spacing:0px;word-spacing:0px;writing-mode:lr-tb;text-anchor:middle;fill:#ff9709;fill-opacity:1;stroke:none;stroke-width:0.20604189"
       d="m 43.155495,240.5202 q 0,1.99057 -1.289843,3.13779 -1.289844,1.14722 -3.528467,1.14722 -2.238623,0 -3.528467,-1.14722 -1.289843,-1.14722 -1.289843,-3.13779 0,-1.99058 1.289843,-3.1378 1.289844,-1.14721 3.528467,-1.14721 2.238623,0 3.528467,1.14721 1.289843,1.14722 1.289843,3.1378 z m -0.421679,0 q 0,-1.36426 -1.165821,-2.13321 -1.16582,-0.77514 -3.23081,-0.77514 -2.06499,0 -3.230811,0.77514 -1.172021,0.76895 -1.172021,2.13321 0,1.36425 1.172021,2.1394 1.165821,0.76895 3.230811,0.76895 2.06499,0 3.23081,-0.76895 1.165821,-0.77515 1.165821,-2.1394 z" />
    <path
       inkscape:connector-curvature="0"
       id="path915"
       style="font-style:normal;font-variant:normal;font-weight:normal;font-stretch:normal;font-size:12.69999981px;line-height:1.25;font-family:'Lucida Bright';-inkscape-font-specification:'Lucida Bright, Normal';font-variant-ligatures:normal;font-variant-caps:normal;font-variant-numeric:normal;font-feature-settings:normal;text-align:center;letter-spacing:0px;word-spacing:0px;writing-mode:lr-tb;text-anchor:middle;fill:#fff309;fill-opacity:1;stroke:none;stroke-width:0.20604189"
       d="m 43.155495,230.64793 q 0,1.99058 -1.289843,3.13779 -1.289844,1.14722 -3.528467,1.14722 -2.238623,0 -3.528467,-1.14722 -1.289843,-1.14721 -1.289843,-3.13779 0,-1.99058 1.289843,-3.13779 1.289844,-1.14722 3.528467,-1.14722 2.238623,0 3.528467,1.14722 1.289843,1.14721 1.289843,3.13779 z m -0.421679,0 q 0,-1.36426 -1.165821,-2.1332 -1.16582,-0.77515 -3.23081,-0.77515 -2.06499,0 -3.230811,0.77515 -1.172021,0.76894 -1.172021,2.1332 0,1.36426 1.172021,2.1394 1.165821,0.76895 3.230811,0.76895 2.06499,0 3.23081,-0.76895 1.165821,-0.77514 1.165821,-2.1394 z" />
    <path
       inkscape:connector-curvature="0"
       id="path917"
       style="font-style:normal;font-variant:normal;font-weight:normal;font-stretch:normal;font-size:12.69999981px;line-height:1.25;font-family:'Lucida Bright';-inkscape-font-specification:'Lucida Bright, Normal';font-variant-ligatures:normal;font-variant-caps:normal;font-variant-numeric:normal;font-feature-settings:normal;text-align:center;letter-spacing:0px;word-spacing:0px;writing-mode:lr-tb;text-anchor:middle;fill:#901afc;fill-opacity:1;stroke:none;stroke-width:0.20604189"
       d="m 42.926052,218.8657 v 6.57945 h -0.384473 l -0.0062,-0.11783 q -0.04961,-0.75034 -0.21084,-0.88676 -0.167431,-0.14263 -1.004589,-0.14263 h -5.965528 q -0.843359,0 -1.004589,0.14263 -0.161231,0.13642 -0.21084,0.88676 l -0.0124,0.11783 h -0.378271 v -3.59668 h 0.378271 l 0.0124,0.11782 q 0.04961,0.75654 0.21084,0.89297 0.16123,0.13642 1.004589,0.13642 h 5.965528 q 0.824755,0 0.948779,-0.12402 0.124023,-0.12402 0.124023,-0.94258 v -0.93638 q 0,-1.11 -0.124023,-1.26503 -0.130225,-0.16123 -1.054199,-0.20464 l -0.124024,-0.006 v -0.65113 z" />
    <path
       inkscape:connector-curvature="0"
       id="path919"
       style="font-style:normal;font-variant:normal;font-weight:normal;font-stretch:normal;font-size:12.69999981px;line-height:1.25;font-family:'Lucida Bright';-inkscape-font-specification:'Lucida Bright, Normal';font-variant-ligatures:normal;font-variant-caps:normal;font-variant-numeric:normal;font-feature-settings:normal;text-align:center;letter-spacing:0px;word-spacing:0px;writing-mode:lr-tb;text-anchor:middle;fill:#ffffff;fill-opacity:1;stroke:none;stroke-width:0.20604189"
       d="m 38.169753,210.21507 q 0.186035,-1.14722 0.837159,-1.79834 0.651123,-0.65112 1.612304,-0.65112 1.16582,0 1.736328,0.77514 0.570508,0.77515 0.570508,2.36885 v 3.59668 h -0.384473 l -0.0062,-0.11782 q -0.04961,-0.75034 -0.21084,-0.88677 -0.167431,-0.14263 -1.004589,-0.14263 h -5.965528 q -0.843359,0 -1.004589,0.14263 -0.161231,0.13643 -0.21084,0.88677 l -0.0124,0.11782 h -0.378271 v -3.77031 q 0,-1.26504 0.520898,-1.92857 0.520899,-0.66352 1.513086,-0.66352 0.806153,0 1.407666,0.5209 0.595313,0.51469 0.979785,1.55029 z m 0.204639,1.86035 h 2.945557 q 0.948779,0 1.029394,-0.16123 0.161231,-0.30386 0.161231,-0.90537 0,-0.84336 -0.508497,-1.37046 -0.514697,-0.5271 -1.333251,-0.5271 -2.294434,0 -2.294434,2.96416 z m -0.42168,0 v -0.37827 q 0,-1.11001 -0.508496,-1.66191 -0.514697,-0.55811 -1.531689,-0.55811 -0.961182,0 -1.351856,0.5147 -0.396875,0.50849 -0.396875,1.76733 v 0.31626 z" />
    <path
       inkscape:connector-curvature="0"
       id="path921"
       style="font-style:normal;font-variant:normal;font-weight:normal;font-stretch:normal;font-size:12.69999981px;line-height:1.25;font-family:'Lucida Bright';-inkscape-font-specification:'Lucida Bright, Normal';font-variant-ligatures:normal;font-variant-caps:normal;font-variant-numeric:normal;font-feature-settings:normal;text-align:center;letter-spacing:0px;word-spacing:0px;writing-mode:lr-tb;text-anchor:middle;fill:#ffffff;fill-opacity:1;stroke:none;stroke-width:0.20604189"
       d="m 38.889089,204.33016 h 2.43086 q 0.830957,0 1.004589,-0.12403 0.167432,-0.13022 0.21084,-0.75654 l 0.0062,-0.11782 h 0.384473 v 3.43545 h -0.384473 l -0.0062,-0.11782 q -0.04961,-0.75035 -0.21084,-0.88677 Q 42.157107,205.62 41.319949,205.62 h -5.965528 q -0.843359,0 -1.004589,0.14263 -0.161231,0.13642 -0.21084,0.88677 l -0.0124,0.11782 h -0.378271 v -2.20762 l -0.03101,-1.11621 -0.0124,-0.49609 q 0,-2.84634 2.319238,-2.84634 1.928564,0 2.579687,1.89756 l 2.703711,-1.79834 q 0.855762,-0.59532 1.023194,-0.77515 0.167431,-0.17983 0.179834,-0.47129 0.0124,-0.0868 0.0248,-0.41548 l 0.0062,-0.12402 h 0.384473 v 2.33784 l -4.036963,2.50527 z m -0.421679,-0.0124 v -0.45888 q 0,-2.43086 -2.300635,-2.43086 -1.091406,0 -1.544092,0.45889 -0.458887,0.45268 -0.458887,1.55029 v 0.88056 z" />
    <path
       inkscape:connector-curvature="0"
       id="path923"
       style="font-style:normal;font-variant:normal;font-weight:normal;font-stretch:normal;font-size:12.69999981px;line-height:1.25;font-family:'Lucida Bright';-inkscape-font-specification:'Lucida Bright, Normal';font-variant-ligatures:normal;font-variant-caps:normal;font-variant-numeric:normal;font-feature-settings:normal;text-align:center;letter-spacing:0px;word-spacing:0px;writing-mode:lr-tb;text-anchor:middle;fill:#ffffff;fill-opacity:1;stroke:none;stroke-width:0.20604189"
       d="m 42.926052,191.51854 v 6.61665 h -0.384473 l -0.0062,-0.11783 q -0.04961,-0.75034 -0.21084,-0.88676 -0.167431,-0.14263 -1.004589,-0.14263 h -5.965528 q -0.843359,0 -1.004589,0.14263 -0.161231,0.13642 -0.21084,0.88676 l -0.0124,0.11783 h -0.378271 v -6.27559 h 1.606103 v 0.68833 l -0.117822,0.0124 q -0.855762,0.0496 -0.923975,0.13023 -0.06821,0.0744 -0.06821,0.99219 v 2.00297 h 3.671093 l -0.0062,-1.68051 q 0,-0.55811 -0.05581,-0.68213 -0.06201,-0.13023 -0.589112,-0.15503 l -0.111621,-0.006 v -0.4961 h 2.021582 v 0.4961 l -0.111621,0.006 q -0.471289,0.0248 -0.558105,0.15503 -0.09302,0.12402 -0.09302,0.68213 v 1.68051 h 2.90835 q 0.719336,0 0.89917,-0.16743 0.173632,-0.17363 0.173632,-0.88677 v -0.97978 q 0,-1.09141 -0.10542,-1.24023 -0.111621,-0.15503 -0.930175,-0.19844 l -0.111621,-0.006 v -0.68833 z" />
    <path
       inkscape:connector-curvature="0"
       id="path925"
       style="font-style:normal;font-variant:normal;font-weight:normal;font-stretch:normal;font-size:12.69999981px;line-height:1.25;font-family:'Lucida Bright';-inkscape-font-specification:'Lucida Bright, Normal';font-variant-ligatures:normal;font-variant-caps:normal;font-variant-numeric:normal;font-feature-settings:normal;text-align:center;letter-spacing:0px;word-spacing:0px;writing-mode:lr-tb;text-anchor:middle;fill:#ffffff;fill-opacity:1;stroke:none;stroke-width:0.20604189"
       d="m 42.926052,184.32518 v 6.61665 h -0.384473 l -0.0062,-0.11782 q -0.04961,-0.75035 -0.21084,-0.88677 -0.167431,-0.14263 -1.004589,-0.14263 h -5.965528 q -0.843359,0 -1.004589,0.14263 -0.161231,0.13642 -0.21084,0.88677 l -0.0124,0.11782 h -0.378271 v -6.27559 h 1.606103 v 0.68833 l -0.117822,0.0124 q -0.855762,0.0496 -0.923975,0.13023 -0.06821,0.0744 -0.06821,0.99219 v 2.00297 h 3.671093 l -0.0062,-1.68051 q 0,-0.55811 -0.05581,-0.68213 -0.06201,-0.13023 -0.589112,-0.15503 l -0.111621,-0.006 v -0.4961 h 2.021582 v 0.4961 l -0.111621,0.006 q -0.471289,0.0248 -0.558105,0.15503 -0.09302,0.12402 -0.09302,0.68213 v 1.68051 h 2.90835 q 0.719336,0 0.89917,-0.16743 0.173632,-0.17363 0.173632,-0.88676 v -0.97979 q 0,-1.09141 -0.10542,-1.24023 -0.111621,-0.15503 -0.930175,-0.19844 l -0.111621,-0.006 v -0.68833 z" />
    <path
       inkscape:connector-curvature="0"
       id="path927"
       style="font-style:normal;font-variant:normal;font-weight:normal;font-stretch:normal;font-size:12.69999981px;line-height:1.25;font-family:'Lucida Bright';-inkscape-font-specification:'Lucida Bright, Normal';font-variant-ligatures:normal;font-variant-caps:normal;font-variant-numeric:normal;font-feature-settings:normal;text-align:center;letter-spacing:0px;word-spacing:0px;writing-mode:lr-tb;text-anchor:middle;fill:#ffffff;fill-opacity:1;stroke:none;stroke-width:0.20604189"
       d="m 42.926052,183.30818 h -0.496094 l -8.185546,-4.92373 v 2.79053 q 0,0.81855 0.08062,1.01079 0.07441,0.19224 0.403076,0.19224 0.241846,0 0.700732,0.0186 l 0.15503,0.0124 v 0.68833 h -1.835547 v -6.17637 h 0.415478 l 8.185547,4.90513 v -2.77812 q 0,-1.15342 -0.09922,-1.28985 -0.09922,-0.14262 -0.967382,-0.17983 l -0.117823,-0.006 v -0.69453 h 1.761133 z" />
    <path
       inkscape:connector-curvature="0"
       id="path929"
       style="font-style:normal;font-variant:normal;font-weight:normal;font-stretch:normal;font-size:12.69999981px;line-height:1.25;font-family:'Lucida Bright';-inkscape-font-specification:'Lucida Bright, Normal';font-variant-ligatures:normal;font-variant-caps:normal;font-variant-numeric:normal;font-feature-settings:normal;text-align:center;letter-spacing:0px;word-spacing:0px;writing-mode:lr-tb;text-anchor:middle;fill:#ffffff;fill-opacity:1;stroke:none;stroke-width:0.20604189"
       d="m 42.926052,169.0951 0,6.61665 h -0.384473 l -0.0062,-0.11782 q -0.04961,-0.75034 -0.21084,-0.88677 -0.167431,-0.14263 -1.004589,-0.14263 h -5.965528 q -0.843359,0 -1.004589,0.14263 -0.161231,0.13643 -0.21084,0.88677 l -0.0124,0.11782 h -0.378271 l 0,-6.27558 h 1.606103 v 0.68833 l -0.117822,0.0124 q -0.855762,0.0496 -0.923975,0.13022 -0.06821,0.0744 -0.06821,0.99219 v 2.00298 h 3.671093 l -0.0062,-1.68052 q 0,-0.5581 -0.05581,-0.68213 -0.06201,-0.13022 -0.589112,-0.15503 l -0.111621,-0.006 v -0.49609 h 2.021582 v 0.49609 l -0.111621,0.006 q -0.471289,0.0248 -0.558105,0.15503 -0.09302,0.12403 -0.09302,0.68213 v 1.68052 h 2.90835 q 0.719336,0 0.89917,-0.16743 0.173632,-0.17364 0.173632,-0.88677 v -0.97979 q 0,-1.0914 -0.10542,-1.24023 -0.111621,-0.15503 -0.930175,-0.19844 l -0.111621,-0.006 v -0.68833 z" />
  </g>
</svg>
