<?xml version="1.0" encoding="UTF-8" standalone="no"?>
<!-- Created with Inkscape (http://www.inkscape.org/) -->

<svg
   xmlns:dc="http://purl.org/dc/elements/1.1/"
   xmlns:cc="http://creativecommons.org/ns#"
   xmlns:rdf="http://www.w3.org/1999/02/22-rdf-syntax-ns#"
   xmlns:svg="http://www.w3.org/2000/svg"
   xmlns="http://www.w3.org/2000/svg"
   xmlns:sodipodi="http://sodipodi.sourceforge.net/DTD/sodipodi-0.dtd"
   xmlns:inkscape="http://www.inkscape.org/namespaces/inkscape"
   width="90"
   height="380"
   viewBox="0 0 23.8125 100.54166"
   version="1.1"
   id="svg12553"
   inkscape:version="0.92.2 5c3e80d, 2017-08-06"
   sodipodi:docname="CoolBreeze.svg">
  <defs
     id="defs12547" />
  <sodipodi:namedview
     id="base"
     pagecolor="#ffffff"
     bordercolor="#666666"
     borderopacity="1.0"
     inkscape:pageopacity="0.0"
     inkscape:pageshadow="2"
     inkscape:zoom="1.4"
     inkscape:cx="-11.696429"
     inkscape:cy="126.02668"
     inkscape:document-units="px"
     inkscape:current-layer="layer1"
     showgrid="true"
     fit-margin-top="0"
     fit-margin-left="0"
     fit-margin-right="0"
     fit-margin-bottom="0"
     units="px"
     inkscape:window-width="1417"
     inkscape:window-height="962"
     inkscape:window-x="0"
     inkscape:window-y="0"
     inkscape:window-maximized="0"
     inkscape:snap-global="false">
    <inkscape:grid
       type="xygrid"
       id="grid12870"
       originx="-20.372917"
       originy="84.666661" />
  </sodipodi:namedview>
  <metadata
     id="metadata12550">
    <rdf:RDF>
      <cc:Work
         rdf:about="">
        <dc:format>image/svg+xml</dc:format>
        <dc:type
           rdf:resource="http://purl.org/dc/dcmitype/StillImage" />
        <dc:title />
      </cc:Work>
    </rdf:RDF>
  </metadata>
  <g
     inkscape:label="Layer 1"
     inkscape:groupmode="layer"
     id="layer1"
     transform="translate(-26.543497,-161.30655)">
    <path
       inkscape:connector-curvature="0"
       id="path33453"
       d="m 26.543497,161.45211 h 23.812499 v 100.3961 H 26.543497 Z m 0,0"
       style="fill:#000000;fill-opacity:1;fill-rule:nonzero;stroke:none;stroke-width:0.14416076" />
    <g
       aria-label="COOL BREEZE"
       transform="rotate(-90)"
       style="font-style:normal;font-variant:normal;font-weight:normal;font-stretch:normal;font-size:10.98890114px;line-height:1.25;font-family:'Bangla MN';-inkscape-font-specification:'Bangla MN, Normal';font-variant-ligatures:normal;font-variant-caps:normal;font-variant-numeric:normal;font-feature-settings:normal;text-align:center;letter-spacing:0px;word-spacing:0px;writing-mode:lr-tb;text-anchor:middle;fill:#ffffff;fill-opacity:1;stroke:none;stroke-width:0.20604189"
       id="text888">
      <path
         d="m -246.18187,42.43616 q -1.24643,0.719335 -2.90214,0.719335 -2.1146,0 -3.33623,-1.296044 -1.21543,-1.296045 -1.21543,-3.54087 0,-2.27583 1.17202,-3.534667 1.17202,-1.265039 3.28662,-1.265039 1.079,0 2.83393,0.458886 v 1.754932 h -0.76274 l -0.006,-0.124024 q -0.006,-0.186035 -0.0124,-0.365869 0,-0.607715 -0.56431,-0.95498 -0.56431,-0.353467 -1.53789,-0.353467 -1.39526,0 -2.22622,1.190625 -0.83096,1.190625 -0.83096,3.181201 0,1.996777 0.97359,3.11919 0.97358,1.11621 2.70991,1.11621 1.13481,0 2.41845,-0.700732 z"
         style="font-style:normal;font-variant:normal;font-weight:normal;font-stretch:normal;font-size:12.69999981px;font-family:'Lucida Bright';-inkscape-font-specification:'Lucida Bright, Normal';font-variant-ligatures:normal;font-variant-caps:normal;font-variant-numeric:normal;font-feature-settings:normal;text-align:center;writing-mode:lr-tb;text-anchor:middle;fill:#ffffff;fill-opacity:1;stroke-width:0.20604189"
         id="path911" />
      <path
         d="m -240.5202,43.155495 q -1.99057,0 -3.13779,-1.289843 -1.14722,-1.289844 -1.14722,-3.528467 0,-2.238623 1.14722,-3.528467 1.14722,-1.289843 3.13779,-1.289843 1.99058,0 3.1378,1.289843 1.14721,1.289844 1.14721,3.528467 0,2.238623 -1.14721,3.528467 -1.14722,1.289843 -3.1378,1.289843 z m 0,-0.421679 q 1.36426,0 2.13321,-1.165821 0.77514,-1.16582 0.77514,-3.23081 0,-2.06499 -0.77514,-3.230811 -0.76895,-1.172021 -2.13321,-1.172021 -1.36425,0 -2.1394,1.172021 -0.76895,1.165821 -0.76895,3.230811 0,2.06499 0.76895,3.23081 0.77515,1.165821 2.1394,1.165821 z"
         style="font-style:normal;font-variant:normal;font-weight:normal;font-stretch:normal;font-size:12.69999981px;font-family:'Lucida Bright';-inkscape-font-specification:'Lucida Bright, Normal';font-variant-ligatures:normal;font-variant-caps:normal;font-variant-numeric:normal;font-feature-settings:normal;text-align:center;writing-mode:lr-tb;text-anchor:middle;fill:#ffffff;fill-opacity:1;stroke-width:0.20604189"
         id="path913" />
      <path
         d="m -230.64793,43.155495 q -1.99058,0 -3.13779,-1.289843 -1.14722,-1.289844 -1.14722,-3.528467 0,-2.238623 1.14722,-3.528467 1.14721,-1.289843 3.13779,-1.289843 1.99058,0 3.13779,1.289843 1.14722,1.289844 1.14722,3.528467 0,2.238623 -1.14722,3.528467 -1.14721,1.289843 -3.13779,1.289843 z m 0,-0.421679 q 1.36426,0 2.1332,-1.165821 0.77515,-1.16582 0.77515,-3.23081 0,-2.06499 -0.77515,-3.230811 -0.76894,-1.172021 -2.1332,-1.172021 -1.36426,0 -2.1394,1.172021 -0.76895,1.165821 -0.76895,3.230811 0,2.06499 0.76895,3.23081 0.77514,1.165821 2.1394,1.165821 z"
         style="font-style:normal;font-variant:normal;font-weight:normal;font-stretch:normal;font-size:12.69999981px;font-family:'Lucida Bright';-inkscape-font-specification:'Lucida Bright, Normal';font-variant-ligatures:normal;font-variant-caps:normal;font-variant-numeric:normal;font-feature-settings:normal;text-align:center;writing-mode:lr-tb;text-anchor:middle;fill:#ffffff;fill-opacity:1;stroke-width:0.20604189"
         id="path915" />
      <path
         d="m -218.8657,42.926052 h -6.57945 v -0.384473 l 0.11783,-0.0062 q 0.75034,-0.04961 0.88676,-0.21084 0.14263,-0.167431 0.14263,-1.004589 v -5.965528 q 0,-0.843359 -0.14263,-1.004589 -0.13642,-0.161231 -0.88676,-0.21084 l -0.11783,-0.0124 v -0.378271 h 3.59668 v 0.378271 l -0.11782,0.0124 q -0.75654,0.04961 -0.89297,0.21084 -0.13642,0.16123 -0.13642,1.004589 v 5.965528 q 0,0.824755 0.12402,0.948779 0.12402,0.124023 0.94258,0.124023 h 0.93638 q 1.11,0 1.26503,-0.124023 0.16123,-0.130225 0.20464,-1.054199 l 0.006,-0.124024 h 0.65113 z"
         style="font-style:normal;font-variant:normal;font-weight:normal;font-stretch:normal;font-size:12.69999981px;font-family:'Lucida Bright';-inkscape-font-specification:'Lucida Bright, Normal';font-variant-ligatures:normal;font-variant-caps:normal;font-variant-numeric:normal;font-feature-settings:normal;text-align:center;writing-mode:lr-tb;text-anchor:middle;fill:#ffffff;fill-opacity:1;stroke-width:0.20604189"
         id="path917" />
      <path
         d="m -210.21507,38.169753 q 1.14722,0.186035 1.79834,0.837159 0.65112,0.651123 0.65112,1.612304 0,1.16582 -0.77514,1.736328 -0.77515,0.570508 -2.36885,0.570508 h -3.59668 v -0.384473 l 0.11782,-0.0062 q 0.75034,-0.04961 0.88677,-0.21084 0.14263,-0.167431 0.14263,-1.004589 v -5.965528 q 0,-0.843359 -0.14263,-1.004589 -0.13643,-0.161231 -0.88677,-0.21084 l -0.11782,-0.0124 v -0.378271 h 3.77031 q 1.26504,0 1.92857,0.520898 0.66352,0.520899 0.66352,1.513086 0,0.806153 -0.5209,1.407666 -0.51469,0.595313 -1.55029,0.979785 z m -1.86035,0.204639 v 2.945557 q 0,0.948779 0.16123,1.029394 0.30386,0.161231 0.90537,0.161231 0.84336,0 1.37046,-0.508497 0.5271,-0.514697 0.5271,-1.333251 0,-2.294434 -2.96416,-2.294434 z m 0,-0.42168 h 0.37827 q 1.11001,0 1.66191,-0.508496 0.55811,-0.514697 0.55811,-1.531689 0,-0.961182 -0.5147,-1.351856 -0.50849,-0.396875 -1.76733,-0.396875 h -0.31626 z"
         style="font-style:normal;font-variant:normal;font-weight:normal;font-stretch:normal;font-size:12.69999981px;font-family:'Lucida Bright';-inkscape-font-specification:'Lucida Bright, Normal';font-variant-ligatures:normal;font-variant-caps:normal;font-variant-numeric:normal;font-feature-settings:normal;text-align:center;writing-mode:lr-tb;text-anchor:middle;fill:#ffffff;fill-opacity:1;stroke-width:0.20604189"
         id="path919" />
      <path
         d="m -204.33016,38.889089 v 2.43086 q 0,0.830957 0.12403,1.004589 0.13022,0.167432 0.75654,0.21084 l 0.11782,0.0062 v 0.384473 h -3.43545 v -0.384473 l 0.11782,-0.0062 q 0.75035,-0.04961 0.88677,-0.21084 0.14263,-0.167431 0.14263,-1.004589 v -5.965528 q 0,-0.843359 -0.14263,-1.004589 -0.13642,-0.161231 -0.88677,-0.21084 l -0.11782,-0.0124 v -0.378271 h 2.20762 l 1.11621,-0.03101 0.49609,-0.0124 q 2.84634,0 2.84634,2.319238 0,1.928564 -1.89756,2.579687 l 1.79834,2.703711 q 0.59532,0.855762 0.77515,1.023194 0.17983,0.167431 0.47129,0.179834 0.0868,0.0124 0.41548,0.0248 l 0.12402,0.0062 v 0.384473 h -2.33784 l -2.50527,-4.036963 z m 0.0124,-0.421679 h 0.45888 q 2.43086,0 2.43086,-2.300635 0,-1.091406 -0.45889,-1.544092 -0.45268,-0.458887 -1.55029,-0.458887 h -0.88056 z"
         style="font-style:normal;font-variant:normal;font-weight:normal;font-stretch:normal;font-size:12.69999981px;font-family:'Lucida Bright';-inkscape-font-specification:'Lucida Bright, Normal';font-variant-ligatures:normal;font-variant-caps:normal;font-variant-numeric:normal;font-feature-settings:normal;text-align:center;writing-mode:lr-tb;text-anchor:middle;fill:#ffffff;fill-opacity:1;stroke-width:0.20604189"
         id="path921" />
      <path
         d="m -191.51854,42.926052 h -6.61665 v -0.384473 l 0.11783,-0.0062 q 0.75034,-0.04961 0.88676,-0.21084 0.14263,-0.167431 0.14263,-1.004589 v -5.965528 q 0,-0.843359 -0.14263,-1.004589 -0.13642,-0.161231 -0.88676,-0.21084 l -0.11783,-0.0124 v -0.378271 h 6.27559 v 1.606103 h -0.68833 l -0.0124,-0.117822 q -0.0496,-0.855762 -0.13023,-0.923975 -0.0744,-0.06821 -0.99219,-0.06821 h -2.00297 v 3.671093 l 1.68051,-0.0062 q 0.55811,0 0.68213,-0.05581 0.13023,-0.06201 0.15503,-0.589112 l 0.006,-0.111621 h 0.4961 v 2.021582 h -0.4961 l -0.006,-0.111621 q -0.0248,-0.471289 -0.15503,-0.558105 -0.12402,-0.09302 -0.68213,-0.09302 h -1.68051 v 2.90835 q 0,0.719336 0.16743,0.89917 0.17363,0.173632 0.88677,0.173632 h 0.97978 q 1.09141,0 1.24023,-0.10542 0.15503,-0.111621 0.19844,-0.930175 l 0.006,-0.111621 h 0.68833 z"
         style="font-style:normal;font-variant:normal;font-weight:normal;font-stretch:normal;font-size:12.69999981px;font-family:'Lucida Bright';-inkscape-font-specification:'Lucida Bright, Normal';font-variant-ligatures:normal;font-variant-caps:normal;font-variant-numeric:normal;font-feature-settings:normal;text-align:center;writing-mode:lr-tb;text-anchor:middle;fill:#ffffff;fill-opacity:1;stroke-width:0.20604189"
         id="path923" />
      <path
         d="m -184.32518,42.926052 h -6.61665 v -0.384473 l 0.11782,-0.0062 q 0.75035,-0.04961 0.88677,-0.21084 0.14263,-0.167431 0.14263,-1.004589 v -5.965528 q 0,-0.843359 -0.14263,-1.004589 -0.13642,-0.161231 -0.88677,-0.21084 l -0.11782,-0.0124 v -0.378271 h 6.27559 v 1.606103 h -0.68833 l -0.0124,-0.117822 q -0.0496,-0.855762 -0.13023,-0.923975 -0.0744,-0.06821 -0.99219,-0.06821 h -2.00297 v 3.671093 l 1.68051,-0.0062 q 0.55811,0 0.68213,-0.05581 0.13023,-0.06201 0.15503,-0.589112 l 0.006,-0.111621 h 0.4961 v 2.021582 h -0.4961 l -0.006,-0.111621 q -0.0248,-0.471289 -0.15503,-0.558105 -0.12402,-0.09302 -0.68213,-0.09302 h -1.68051 v 2.90835 q 0,0.719336 0.16743,0.89917 0.17363,0.173632 0.88676,0.173632 h 0.97979 q 1.09141,0 1.24023,-0.10542 0.15503,-0.111621 0.19844,-0.930175 l 0.006,-0.111621 h 0.68833 z"
         style="font-style:normal;font-variant:normal;font-weight:normal;font-stretch:normal;font-size:12.69999981px;font-family:'Lucida Bright';-inkscape-font-specification:'Lucida Bright, Normal';font-variant-ligatures:normal;font-variant-caps:normal;font-variant-numeric:normal;font-feature-settings:normal;text-align:center;writing-mode:lr-tb;text-anchor:middle;fill:#ffffff;fill-opacity:1;stroke-width:0.20604189"
         id="path925" />
      <path
         d="m -183.30818,42.926052 v -0.496094 l 4.92373,-8.185546 h -2.79053 q -0.81855,0 -1.01079,0.08062 -0.19224,0.07441 -0.19224,0.403076 0,0.241846 -0.0186,0.700732 l -0.0124,0.15503 h -0.68833 v -1.835547 h 6.17637 v 0.415478 l -4.90513,8.185547 h 2.77812 q 1.15342,0 1.28985,-0.09922 0.14262,-0.09922 0.17983,-0.967382 l 0.006,-0.117823 h 0.69453 v 1.761133 z"
         style="font-style:normal;font-variant:normal;font-weight:normal;font-stretch:normal;font-size:12.69999981px;font-family:'Lucida Bright';-inkscape-font-specification:'Lucida Bright, Normal';font-variant-ligatures:normal;font-variant-caps:normal;font-variant-numeric:normal;font-feature-settings:normal;text-align:center;writing-mode:lr-tb;text-anchor:middle;fill:#ffffff;fill-opacity:1;stroke-width:0.20604189"
         id="path927" />
      <path
         d="m -169.0951,42.926052 h -6.61665 v -0.384473 l 0.11782,-0.0062 q 0.75034,-0.04961 0.88677,-0.21084 0.14263,-0.167431 0.14263,-1.004589 v -5.965528 q 0,-0.843359 -0.14263,-1.004589 -0.13643,-0.161231 -0.88677,-0.21084 l -0.11782,-0.0124 v -0.378271 h 6.27558 v 1.606103 h -0.68833 l -0.0124,-0.117822 q -0.0496,-0.855762 -0.13022,-0.923975 -0.0744,-0.06821 -0.99219,-0.06821 h -2.00298 v 3.671093 l 1.68052,-0.0062 q 0.5581,0 0.68213,-0.05581 0.13022,-0.06201 0.15503,-0.589112 l 0.006,-0.111621 h 0.49609 v 2.021582 h -0.49609 l -0.006,-0.111621 q -0.0248,-0.471289 -0.15503,-0.558105 -0.12403,-0.09302 -0.68213,-0.09302 h -1.68052 v 2.90835 q 0,0.719336 0.16743,0.89917 0.17364,0.173632 0.88677,0.173632 h 0.97979 q 1.0914,0 1.24023,-0.10542 0.15503,-0.111621 0.19844,-0.930175 l 0.006,-0.111621 h 0.68833 z"
         style="font-style:normal;font-variant:normal;font-weight:normal;font-stretch:normal;font-size:12.69999981px;font-family:'Lucida Bright';-inkscape-font-specification:'Lucida Bright, Normal';font-variant-ligatures:normal;font-variant-caps:normal;font-variant-numeric:normal;font-feature-settings:normal;text-align:center;writing-mode:lr-tb;text-anchor:middle;fill:#ffffff;fill-opacity:1;stroke-width:0.20604189"
         id="path929" />
    </g>
  </g>
</svg>
