<?xml version="1.0" encoding="UTF-8" standalone="no"?>
<!-- Created with Inkscape (http://www.inkscape.org/) -->

<svg
   xmlns:dc="http://purl.org/dc/elements/1.1/"
   xmlns:cc="http://creativecommons.org/ns#"
   xmlns:rdf="http://www.w3.org/1999/02/22-rdf-syntax-ns#"
   xmlns:svg="http://www.w3.org/2000/svg"
   xmlns="http://www.w3.org/2000/svg"
   xmlns:sodipodi="http://sodipodi.sourceforge.net/DTD/sodipodi-0.dtd"
   xmlns:inkscape="http://www.inkscape.org/namespaces/inkscape"
   width="90"
   height="380"
   viewBox="0 0 23.8125 100.54166"
   version="1.1"
   id="svg12553"
   inkscape:version="0.92.2 5c3e80d, 2017-08-06"
   sodipodi:docname="BlankPanelMedium.svg">
  <defs
     id="defs12547" />
  <sodipodi:namedview
     id="base"
     pagecolor="#ffffff"
     bordercolor="#666666"
     borderopacity="1.0"
     inkscape:pageopacity="0.0"
     inkscape:pageshadow="2"
     inkscape:zoom="1.4"
     inkscape:cx="-11.696429"
     inkscape:cy="126.02668"
     inkscape:document-units="px"
     inkscape:current-layer="layer1"
     showgrid="true"
     fit-margin-top="0"
     fit-margin-left="0"
     fit-margin-right="0"
     fit-margin-bottom="0"
     units="px"
     inkscape:window-width="1417"
     inkscape:window-height="962"
     inkscape:window-x="0"
     inkscape:window-y="0"
     inkscape:window-maximized="0"
     inkscape:snap-global="false">
    <inkscape:grid
       type="xygrid"
       id="grid12870"
       originx="-20.372917"
       originy="84.666661" />
  </sodipodi:namedview>
  <metadata
     id="metadata12550">
    <rdf:RDF>
      <cc:Work
         rdf:about="">
        <dc:format>image/svg+xml</dc:format>
        <dc:type
           rdf:resource="http://purl.org/dc/dcmitype/StillImage" />
        <dc:title />
      </cc:Work>
    </rdf:RDF>
  </metadata>
  <g
     inkscape:label="Layer 1"
     inkscape:groupmode="layer"
     id="layer1"
     transform="translate(-26.543497,-161.30655)">
    <path
       inkscape:connector-curvature="0"
       id="path33453"
       d="m 26.543497,161.45211 h 23.812499 v 100.3961 H 26.543497 Z m 0,0"
       style="fill:#e6e6e6;fill-opacity:1;fill-rule:nonzero;stroke:none;stroke-width:0.14416076" />
    <g
       aria-label="COOL BREEZE"
       transform="rotate(-90)"
       style="font-style:normal;font-weight:normal;font-size:12.23206902px;line-height:1.25;font-family:sans-serif;letter-spacing:0px;word-spacing:0px;fill:#000000;fill-opacity:1;stroke:none;stroke-width:0.26458332"
       id="text388">
      <path
         d="m -243.6363,41.832283 q -0.006,0.05376 -0.0358,0.304611 -0.0239,0.244883 -0.0478,0.537548 -0.0478,0 -0.10751,0 -0.0538,0 -0.10153,0 -1.45736,0 -2.59218,-0.364338 -1.13483,-0.370311 -1.8635,-1.069124 -0.50769,-0.483794 -0.80633,-1.158716 -0.29266,-0.674922 -0.29266,-1.540973 0,-0.776459 0.29266,-1.415544 0.29267,-0.645058 0.76452,-1.122879 0.68687,-0.692841 1.84558,-1.098989 1.15872,-0.406147 2.4787,-0.406147 0.0657,0 0.14932,0 0.0836,0 0.11945,0 0.006,0.107509 0.0239,0.34642 0.0179,0.232938 0.0418,0.507685 -0.0597,0 -0.10154,0 -0.0418,0 -0.10153,0 -0.7466,0 -1.54695,0.167237 -0.80035,0.161264 -1.37971,0.489766 -0.75256,0.430039 -1.15871,1.104961 -0.40615,0.66895 -0.40615,1.445409 0,0.806322 0.36434,1.469299 0.36434,0.657004 1.15274,1.104961 0.64506,0.370311 1.43944,0.537548 0.80035,0.167238 1.58875,0.167238 0.0358,0 0.11349,0 0.0776,0 0.16723,-0.006 z"
         style="font-style:normal;font-variant:normal;font-weight:normal;font-stretch:normal;font-size:12.23221588px;font-family:Skia;-inkscape-font-specification:'Skia, Normal';font-variant-ligatures:normal;font-variant-caps:normal;font-variant-numeric:normal;font-feature-settings:normal;text-align:start;writing-mode:lr-tb;text-anchor:start;stroke-width:0.26458332"
         id="path390" />
      <path
         d="m -234.77869,38.571155 q 0,0.967588 -0.33448,1.779883 -0.3285,0.806323 -0.86007,1.331926 -0.59131,0.585331 -1.25428,0.854105 -0.66298,0.262801 -1.42152,0.262801 -0.74062,0 -1.39763,-0.250856 -0.657,-0.256828 -1.1826,-0.75854 -0.57936,-0.543522 -0.93773,-1.367763 -0.35239,-0.830214 -0.35239,-1.863501 0,-0.919806 0.28072,-1.672374 0.28072,-0.75854 0.84216,-1.361789 0.51963,-0.56144 1.23636,-0.866051 0.71673,-0.310583 1.51111,-0.310583 0.80632,0 1.49319,0.292665 0.68687,0.286693 1.18858,0.80035 0.58533,0.597276 0.88397,1.409572 0.30461,0.806323 0.30461,1.720155 z m -1.02134,0.09556 q 0,-0.776459 -0.26281,-1.523054 -0.25682,-0.752568 -0.7884,-1.260253 -0.35837,-0.34642 -0.80632,-0.537548 -0.44199,-0.191129 -0.99148,-0.191129 -0.53755,0 -1.00343,0.197102 -0.4599,0.191128 -0.83618,0.567412 -0.47782,0.477821 -0.7466,1.182607 -0.2628,0.704786 -0.2628,1.469299 0,0.860078 0.26878,1.540973 0.27474,0.680894 0.77048,1.152743 0.34045,0.328502 0.80632,0.531575 0.46588,0.197102 0.99746,0.197102 0.53157,0 0.99147,-0.191129 0.46588,-0.197101 0.84216,-0.561439 0.44796,-0.430039 0.73465,-1.093016 0.2867,-0.668949 0.2867,-1.481245 z"
         style="font-style:normal;font-variant:normal;font-weight:normal;font-stretch:normal;font-size:12.23221588px;font-family:Skia;-inkscape-font-specification:'Skia, Normal';font-variant-ligatures:normal;font-variant-caps:normal;font-variant-numeric:normal;font-feature-settings:normal;text-align:start;writing-mode:lr-tb;text-anchor:start;stroke-width:0.26458332"
         id="path392" />
      <path
         d="m -225.53286,38.571155 q 0,0.967588 -0.33447,1.779883 -0.3285,0.806323 -0.86008,1.331926 -0.5913,0.585331 -1.25428,0.854105 -0.66298,0.262801 -1.42152,0.262801 -0.74062,0 -1.39762,-0.250856 -0.65701,-0.256828 -1.18261,-0.75854 -0.57936,-0.543522 -0.93772,-1.367763 -0.3524,-0.830214 -0.3524,-1.863501 0,-0.919806 0.28072,-1.672374 0.28072,-0.75854 0.84216,-1.361789 0.51963,-0.56144 1.23637,-0.866051 0.71673,-0.310583 1.5111,-0.310583 0.80633,0 1.49319,0.292665 0.68687,0.286693 1.18858,0.80035 0.58533,0.597276 0.88397,1.409572 0.30461,0.806323 0.30461,1.720155 z m -1.02134,0.09556 q 0,-0.776459 -0.2628,-1.523054 -0.25683,-0.752568 -0.7884,-1.260253 -0.35837,-0.34642 -0.80633,-0.537548 -0.44198,-0.191129 -0.99148,-0.191129 -0.53754,0 -1.00342,0.197102 -0.4599,0.191128 -0.83619,0.567412 -0.47782,0.477821 -0.74659,1.182607 -0.2628,0.704786 -0.2628,1.469299 0,0.860078 0.26877,1.540973 0.27475,0.680894 0.77049,1.152743 0.34044,0.328502 0.80632,0.531575 0.46588,0.197102 0.99745,0.197102 0.53158,0 0.99148,-0.191129 0.46587,-0.197101 0.84216,-0.561439 0.44796,-0.430039 0.73465,-1.093016 0.28669,-0.668949 0.28669,-1.481245 z"
         style="font-style:normal;font-variant:normal;font-weight:normal;font-stretch:normal;font-size:12.23221588px;font-family:Skia;-inkscape-font-specification:'Skia, Normal';font-variant-ligatures:normal;font-variant-caps:normal;font-variant-numeric:normal;font-feature-settings:normal;text-align:start;writing-mode:lr-tb;text-anchor:start;stroke-width:0.26458332"
         id="path394" />
      <path
         d="m -218.47305,42.554987 q -0.0717,0 -0.75854,-0.006 -0.6809,-0.006 -1.74405,-0.006 -0.69881,0 -1.33193,0.006 -0.62714,0.006 -1.06315,0.006 0.012,-1.027315 0.0179,-2.078521 0.012,-1.057179 0.012,-2.072548 0,-1.696265 -0.012,-2.586206 -0.0119,-0.889941 -0.0179,-1.248307 h 0.98551 q -0.012,0.770486 -0.0179,1.779883 -0.006,1.009397 -0.006,1.654455 0,1.570836 0.006,2.622042 0.006,1.051206 0.006,1.110934 0.24489,0 0.59131,0.006 0.34642,0 0.62714,0 1.06912,0 1.85752,-0.006 0.79438,-0.01195 0.84814,-0.01195 z"
         style="font-style:normal;font-variant:normal;font-weight:normal;font-stretch:normal;font-size:12.23221588px;font-family:Skia;-inkscape-font-specification:'Skia, Normal';font-variant-ligatures:normal;font-variant-caps:normal;font-variant-numeric:normal;font-feature-settings:normal;text-align:start;writing-mode:lr-tb;text-anchor:start;stroke-width:0.26458332"
         id="path396" />
      <path
         d="m -208.04461,40.213665 q 0,0.597276 -0.31058,1.075097 -0.30461,0.477821 -0.88994,0.782431 -0.51963,0.268775 -1.1408,0.394203 -0.62117,0.119455 -1.42152,0.119455 -0.5913,0 -1.21844,-0.01792 -0.62117,-0.02389 -0.69284,-0.02986 0.0179,-1.14677 0.0239,-2.16214 0.006,-1.021342 0.006,-1.94712 0,-1.755992 -0.0179,-2.777334 -0.0119,-1.027315 -0.0119,-1.069125 0.0836,-0.006 0.657,-0.02986 0.57936,-0.02389 1.12288,-0.02389 0.61519,0 1.13483,0.08362 0.51963,0.07765 0.87799,0.220992 0.54352,0.21502 0.85411,0.621168 0.31058,0.400175 0.31058,0.985505 0,0.615195 -0.3942,1.093016 -0.38823,0.471848 -0.88994,0.645058 v 0.05973 q 0.41212,0.03584 0.80035,0.197102 0.38823,0.155291 0.68089,0.447957 0.25683,0.256828 0.38823,0.567412 0.1314,0.310584 0.1314,0.764514 z m -1.02134,0.02986 q 0,-0.30461 -0.10751,-0.543521 -0.10751,-0.244883 -0.32253,-0.465875 -0.20307,-0.203074 -0.56144,-0.328502 -0.35239,-0.125428 -0.77049,-0.125428 -0.33447,0 -0.54352,0.006 -0.20307,0.006 -0.26877,0.006 l -0.0956,-0.716731 q 0.44199,-0.01195 0.77646,-0.101537 0.34045,-0.09556 0.60325,-0.28072 0.25086,-0.179183 0.41212,-0.45393 0.16127,-0.28072 0.16127,-0.62714 0,-0.364338 -0.17919,-0.62714 -0.17918,-0.268774 -0.48976,-0.424066 -0.2628,-0.125428 -0.64506,-0.185155 -0.38226,-0.0657 -0.81827,-0.0657 -0.28072,0 -0.51963,0.01195 -0.23294,0.006 -0.29864,0.006 -0.0179,0.872023 -0.0239,1.851556 0,0.979533 0,1.421517 0,1.027315 0.006,2.066575 0.0119,1.033288 0.0119,1.104961 0.11946,0.006 0.31656,0.01792 0.20307,0.006 0.38823,0.006 0.68686,0 1.27219,-0.07167 0.59131,-0.07167 0.99746,-0.298638 0.33447,-0.185155 0.51365,-0.483793 0.18516,-0.298639 0.18516,-0.698814 z"
         style="font-style:normal;font-variant:normal;font-weight:normal;font-stretch:normal;font-size:12.23221588px;font-family:Skia;-inkscape-font-specification:'Skia, Normal';font-variant-ligatures:normal;font-variant-caps:normal;font-variant-numeric:normal;font-feature-settings:normal;text-align:start;writing-mode:lr-tb;text-anchor:start;stroke-width:0.26458332"
         id="path398" />
      <path
         d="m -199.7365,42.089112 -0.74659,0.615194 q -0.13141,-0.137373 -0.93176,-1.033288 -0.80035,-0.901887 -2.46675,-2.807198 l 0.006,-0.05375 q 0.22696,-0.05973 0.60325,-0.256829 0.37628,-0.203074 0.63311,-0.436012 0.22099,-0.203074 0.38226,-0.501712 0.16723,-0.298638 0.16723,-0.80035 0,-0.459902 -0.24488,-0.788404 -0.23891,-0.334475 -0.66298,-0.489767 -0.34642,-0.131401 -0.72867,-0.155292 -0.38226,-0.02986 -0.70479,-0.02986 -0.21502,0 -0.3285,0.006 -0.11348,0 -0.16724,0 -0.0119,1.134825 -0.0179,2.000876 0,0.86605 0,1.224416 0,0.818268 0.006,2.221867 0.0119,1.403599 0.0179,1.761965 h -0.9855 q 0.006,-0.358366 0.0179,-1.385681 0.0119,-1.033288 0.0119,-2.568288 0,-0.298638 0,-1.10496 0,-0.806323 -0.0299,-2.938599 0.0597,0 0.59727,-0.01195 0.53755,-0.01195 0.99148,-0.01195 0.51963,0 1.0094,0.05973 0.48977,0.05973 0.95564,0.256829 0.5913,0.250856 0.93772,0.740623 0.34642,0.483793 0.34642,1.140797 0,0.848132 -0.5256,1.415545 -0.51963,0.561439 -0.9855,0.836186 v 0.02986 q 0.81826,0.955642 1.79182,1.971011 0.97954,1.01537 1.05121,1.093016 z"
         style="font-style:normal;font-variant:normal;font-weight:normal;font-stretch:normal;font-size:12.23221588px;font-family:Skia;-inkscape-font-specification:'Skia, Normal';font-variant-ligatures:normal;font-variant-caps:normal;font-variant-numeric:normal;font-feature-settings:normal;text-align:start;writing-mode:lr-tb;text-anchor:start;stroke-width:0.26458332"
         id="path400" />
      <path
         d="m -193.05895,42.554987 q -0.0538,0 -0.79438,-0.006 -0.74062,-0.006 -1.83364,-0.006 -0.75854,0 -1.39165,0.006 -0.62714,0.006 -1.06315,0.006 0.0119,-0.34642 0.0179,-1.499163 0.0119,-1.152743 0.0119,-2.383132 0,-0.674922 -0.006,-1.785856 -0.006,-1.110933 -0.0239,-2.299513 0.42407,0 1.05718,0.006 0.63908,0.006 1.31401,0.006 1.14079,0 1.85752,-0.006 0.71674,-0.006 0.77646,-0.006 v 0.830214 q -0.0597,0 -0.75256,-0.006 -0.68687,-0.01194 -1.71419,-0.01194 -0.44795,0 -0.87799,0.006 -0.43004,0 -0.6809,0 0,0.674923 -0.0119,1.349845 -0.0119,0.668949 -0.0119,1.266225 0.26878,0 0.63311,0.006 0.37031,0 0.65701,0 1.0512,0 1.87544,-0.006 0.83022,-0.01195 0.88397,-0.01195 v 0.824241 q -0.0478,0 -0.9855,-0.006 -0.93773,-0.01195 -1.71418,-0.01195 -0.2867,0 -0.68687,0.006 -0.3942,0 -0.66298,0 0,1.128852 0.006,1.791829 0.006,0.662976 0.012,1.110933 0.35239,0.006 0.8541,0.01195 0.50172,0 1.08107,0 0.88995,0 1.49319,-0.006 0.60923,-0.006 0.6809,-0.006 z"
         style="font-style:normal;font-variant:normal;font-weight:normal;font-stretch:normal;font-size:12.23221588px;font-family:Skia;-inkscape-font-specification:'Skia, Normal';font-variant-ligatures:normal;font-variant-caps:normal;font-variant-numeric:normal;font-feature-settings:normal;text-align:start;writing-mode:lr-tb;text-anchor:start;stroke-width:0.26458332"
         id="path402" />
      <path
         d="m -185.67662,42.554987 q -0.0537,0 -0.79438,-0.006 -0.74062,-0.006 -1.83363,-0.006 -0.75854,0 -1.39166,0.006 -0.62714,0.006 -1.06315,0.006 0.012,-0.34642 0.0179,-1.499163 0.0119,-1.152743 0.0119,-2.383132 0,-0.674922 -0.006,-1.785856 -0.006,-1.110933 -0.0239,-2.299513 0.42407,0 1.05718,0.006 0.63909,0.006 1.31401,0.006 1.14079,0 1.85753,-0.006 0.71673,-0.006 0.77646,-0.006 v 0.830214 q -0.0597,0 -0.75257,-0.006 -0.68687,-0.01194 -1.71419,-0.01194 -0.44795,0 -0.87799,0.006 -0.43004,0 -0.6809,0 0,0.674923 -0.0119,1.349845 -0.0119,0.668949 -0.0119,1.266225 0.26878,0 0.63312,0.006 0.37031,0 0.657,0 1.05121,0 1.87545,-0.006 0.83021,-0.01195 0.88397,-0.01195 v 0.824241 q -0.0478,0 -0.98551,-0.006 -0.93772,-0.01195 -1.71418,-0.01195 -0.2867,0 -0.68687,0.006 -0.3942,0 -0.66298,0 0,1.128852 0.006,1.791829 0.006,0.662976 0.0119,1.110933 0.35239,0.006 0.85411,0.01195 0.50171,0 1.08107,0 0.88994,0 1.49319,-0.006 0.60922,-0.006 0.68089,-0.006 z"
         style="font-style:normal;font-variant:normal;font-weight:normal;font-stretch:normal;font-size:12.23221588px;font-family:Skia;-inkscape-font-specification:'Skia, Normal';font-variant-ligatures:normal;font-variant-caps:normal;font-variant-numeric:normal;font-feature-settings:normal;text-align:start;writing-mode:lr-tb;text-anchor:start;stroke-width:0.26458332"
         id="path404" />
      <path
         d="m -177.75674,42.554987 q -1.03329,-0.006 -1.77988,-0.006 -0.7466,-0.006 -1.35582,-0.006 -1.34387,0 -2.2577,0.006 -0.90786,0.006 -1.0094,0.006 l -0.26877,-0.621167 q 0.86605,-1.057179 2.29354,-2.85498 1.43346,-1.803774 2.849,-3.661303 l -0.006,-0.01195 q -0.56144,-0.006 -1.00342,-0.006 -0.44199,0 -0.74062,0 -1.1408,0 -2.0188,0.01194 -0.87202,0.006 -0.99148,0.006 v -0.830214 q 0.47782,0 1.17066,0.006 0.69285,0.006 1.51111,0.006 1.25428,0 2.14422,-0.006 0.88995,-0.006 0.99746,-0.006 l 0.29266,0.621167 q -0.38823,0.477821 -1.7978,2.245759 -1.4036,1.761964 -3.3328,4.216769 l 0.006,0.01195 q 0.37629,0.006 0.89592,0.01195 0.51963,0.006 1.17066,0.006 1.28414,0 2.22784,-0.01194 0.94369,-0.01792 1.00342,-0.01792 z"
         style="font-style:normal;font-variant:normal;font-weight:normal;font-stretch:normal;font-size:12.23221588px;font-family:Skia;-inkscape-font-specification:'Skia, Normal';font-variant-ligatures:normal;font-variant-caps:normal;font-variant-numeric:normal;font-feature-settings:normal;text-align:start;writing-mode:lr-tb;text-anchor:start;stroke-width:0.26458332"
         id="path406" />
      <path
         d="m -170.98363,42.554987 q -0.0538,0 -0.79437,-0.006 -0.74063,-0.006 -1.83364,-0.006 -0.75854,0 -1.39165,0.006 -0.62714,0.006 -1.06316,0.006 0.012,-0.34642 0.0179,-1.499163 0.012,-1.152743 0.012,-2.383132 0,-0.674922 -0.006,-1.785856 -0.006,-1.110933 -0.0239,-2.299513 0.42407,0 1.05718,0.006 0.63909,0.006 1.31401,0.006 1.1408,0 1.85753,-0.006 0.71673,-0.006 0.77646,-0.006 v 0.830214 q -0.0597,0 -0.75257,-0.006 -0.68687,-0.01194 -1.71418,-0.01194 -0.44796,0 -0.878,0.006 -0.43004,0 -0.68089,0 0,0.674923 -0.012,1.349845 -0.0119,0.668949 -0.0119,1.266225 0.26877,0 0.63311,0.006 0.37031,0 0.657,0 1.05121,0 1.87545,-0.006 0.83021,-0.01195 0.88397,-0.01195 v 0.824241 q -0.0478,0 -0.98551,-0.006 -0.93772,-0.01195 -1.71418,-0.01195 -0.28669,0 -0.68687,0.006 -0.3942,0 -0.66297,0 0,1.128852 0.006,1.791829 0.006,0.662976 0.0119,1.110933 0.3524,0.006 0.85411,0.01195 0.50171,0 1.08107,0 0.88994,0 1.49319,-0.006 0.60922,-0.006 0.68089,-0.006 z"
         style="font-style:normal;font-variant:normal;font-weight:normal;font-stretch:normal;font-size:12.23221588px;font-family:Skia;-inkscape-font-specification:'Skia, Normal';font-variant-ligatures:normal;font-variant-caps:normal;font-variant-numeric:normal;font-feature-settings:normal;text-align:start;writing-mode:lr-tb;text-anchor:start;stroke-width:0.26458332"
         id="path408" />
    </g>
  </g>
</svg>
