<?xml version="1.0" encoding="UTF-8" standalone="no"?>
<!-- Created with Inkscape (http://www.inkscape.org/) -->

<svg
   xmlns:dc="http://purl.org/dc/elements/1.1/"
   xmlns:cc="http://creativecommons.org/ns#"
   xmlns:rdf="http://www.w3.org/1999/02/22-rdf-syntax-ns#"
   xmlns:svg="http://www.w3.org/2000/svg"
   xmlns="http://www.w3.org/2000/svg"
   xmlns:sodipodi="http://sodipodi.sourceforge.net/DTD/sodipodi-0.dtd"
   xmlns:inkscape="http://www.inkscape.org/namespaces/inkscape"
   width="90"
   height="380"
   viewBox="0 0 23.8125 100.54166"
   version="1.1"
   id="svg12553"
   inkscape:version="0.92.2 5c3e80d, 2017-08-06"
   sodipodi:docname="CoolBreeze.svg">
  <defs
     id="defs12547" />
  <sodipodi:namedview
     id="base"
     pagecolor="#ffffff"
     bordercolor="#666666"
     borderopacity="1.0"
     inkscape:pageopacity="0.0"
     inkscape:pageshadow="2"
     inkscape:zoom="1.4"
     inkscape:cx="-11.696429"
     inkscape:cy="126.02668"
     inkscape:document-units="px"
     inkscape:current-layer="layer1"
     showgrid="true"
     fit-margin-top="0"
     fit-margin-left="0"
     fit-margin-right="0"
     fit-margin-bottom="0"
     units="px"
     inkscape:window-width="1417"
     inkscape:window-height="962"
     inkscape:window-x="0"
     inkscape:window-y="0"
     inkscape:window-maximized="0"
     inkscape:snap-global="false">
    <inkscape:grid
       type="xygrid"
       id="grid12870"
       originx="-20.372917"
       originy="84.666661" />
  </sodipodi:namedview>
  <metadata
     id="metadata12550">
    <rdf:RDF>
      <cc:Work
         rdf:about="">
        <dc:format>image/svg+xml</dc:format>
        <dc:type
           rdf:resource="http://purl.org/dc/dcmitype/StillImage" />
        <dc:title></dc:title>
      </cc:Work>
    </rdf:RDF>
  </metadata>
  <g
     inkscape:label="Layer 1"
     inkscape:groupmode="layer"
     id="layer1"
     transform="translate(-26.543497,-161.30655)">
    <path
       inkscape:connector-curvature="0"
       id="path33453"
       d="m 26.543497,161.45211 h 23.812499 v 100.3961 H 26.543497 Z m 0,0"
       style="fill:#e6e6e6;fill-opacity:1;fill-rule:nonzero;stroke:none;stroke-width:0.14416076" />
    <g
       aria-label="COOL BREEZE"
       transform="matrix(0,-1.0154085,0.98482532,0,0,0)"
       style="font-style:normal;font-variant:normal;font-weight:500;font-stretch:normal;font-size:19.57565308px;line-height:1.25;font-family:'A little sunshine';-inkscape-font-specification:'A little sunshine, Medium';font-variant-ligatures:normal;font-variant-caps:normal;font-variant-numeric:normal;font-feature-settings:normal;text-align:start;letter-spacing:0px;word-spacing:0px;writing-mode:lr-tb;text-anchor:start;fill:#000000;fill-opacity:1;stroke:none;stroke-width:0.26458329"
       id="text388">
      <path
         d="m -246.57947,35.206579 q -0.0587,-0.802602 -0.39152,-1.35072 -0.33278,-0.548118 -0.8026,-0.724299 -0.45024,-0.195757 -1.01793,0.01958 -0.54812,0.215332 -1.11582,0.90048 -0.84175,1.057085 -1.21369,3.073377 -0.54811,2.955924 -0.21533,5.363729 0.19576,1.429023 0.7243,2.349078 0.52854,0.90048 1.21369,1.135388 0.66557,0.234908 1.46818,-0.234908 0.8026,-0.489391 1.58562,-1.879262 0.66558,-1.135388 1.11582,-2.623138 0.0391,-0.137029 0.1566,-0.195756 0.13703,-0.0783 0.27406,-0.03915 0.13703,0.03915 0.19576,0.176181 0.0783,0.117454 0.0392,0.254484 -0.46982,1.566052 -1.15497,2.779743 -0.8809,1.5269 -1.91841,2.153321 -1.01793,0.626421 -2.01629,0.27406 -0.92006,-0.332787 -1.54648,-1.409447 -0.62642,-1.096237 -0.84175,-2.662289 -0.33279,-2.505684 0.21533,-5.559486 0.41109,-2.212049 1.3703,-3.386588 0.68514,-0.841753 1.44859,-1.135388 0.78303,-0.31321 1.50733,-0.01957 0.68515,0.274059 1.11581,0.998358 0.43067,0.724299 0.50897,1.703082 0.0196,0.137029 -0.0783,0.254483 -0.0979,0.09788 -0.25449,0.117454 -0.13703,0.01958 -0.25448,-0.0783 -0.0979,-0.09788 -0.11745,-0.254484 z"
         style="font-style:normal;font-variant:normal;font-weight:500;font-stretch:normal;font-size:19.57565308px;font-family:'A little sunshine';-inkscape-font-specification:'A little sunshine, Medium';font-variant-ligatures:normal;font-variant-caps:normal;font-variant-numeric:normal;font-feature-settings:normal;text-align:start;writing-mode:lr-tb;text-anchor:start;stroke-width:0.26458329"
         id="path411" />
      <path
         d="m -239.64847,32.446412 q 0.13703,-0.09788 0.29364,-0.03915 1.82053,0.567694 2.81889,3.034226 0.8809,2.192473 0.78303,4.913489 -0.0979,2.779743 -1.15497,4.5024 -1.25284,2.055444 -3.36701,1.742233 -0.88091,-0.137029 -1.54648,-0.567694 -0.66557,-0.430664 -1.07666,-1.096236 -0.39151,-0.665572 -0.60684,-1.409447 -0.21534,-0.743875 -0.27406,-1.62478 -0.13703,-1.566052 0.1566,-3.249558 0.31321,-1.703082 0.8026,-2.877621 0.58727,-1.35072 1.03751,-2.035868 0.93964,-1.370296 2.0163,-1.311569 0.0587,0 0.11745,0.01958 z m -0.1566,0.685148 q -0.68515,-0.03915 -1.38988,1.017934 -0.41109,0.606845 -0.9592,1.898838 -0.46982,1.096237 -0.74388,2.721016 -0.29363,1.585628 -0.17618,3.073378 0.27406,3.660647 2.91677,4.05216 1.64436,0.254483 2.64272,-1.409447 0.9592,-1.546477 1.05708,-4.150039 0.0979,-2.583986 -0.7243,-4.619854 -0.8809,-2.172897 -2.36865,-2.642713 h -0.0392 q -0.0979,0.05873 -0.21533,0.05873 z"
         style="font-style:normal;font-variant:normal;font-weight:500;font-stretch:normal;font-size:19.57565308px;font-family:'A little sunshine';-inkscape-font-specification:'A little sunshine, Medium';font-variant-ligatures:normal;font-variant-caps:normal;font-variant-numeric:normal;font-feature-settings:normal;text-align:start;writing-mode:lr-tb;text-anchor:start;stroke-width:0.26458329"
         id="path413" />
      <path
         d="m -230.62532,32.446412 q 0.13703,-0.09788 0.29364,-0.03915 1.82053,0.567694 2.81889,3.034226 0.88091,2.192473 0.78303,4.913489 -0.0979,2.779743 -1.15497,4.5024 -1.25284,2.055444 -3.36701,1.742233 -0.8809,-0.137029 -1.54647,-0.567694 -0.66558,-0.430664 -1.07667,-1.096236 -0.39151,-0.665572 -0.60684,-1.409447 -0.21533,-0.743875 -0.27406,-1.62478 -0.13703,-1.566052 0.15661,-3.249558 0.31321,-1.703082 0.8026,-2.877621 0.58727,-1.35072 1.03751,-2.035868 0.93963,-1.370296 2.01629,-1.311569 0.0587,0 0.11745,0.01958 z m -0.1566,0.685148 q -0.68515,-0.03915 -1.38987,1.017934 -0.41109,0.606845 -0.95921,1.898838 -0.46982,1.096237 -0.74388,2.721016 -0.29363,1.585628 -0.17618,3.073378 0.27406,3.660647 2.91678,4.05216 1.64435,0.254483 2.64271,-1.409447 0.95921,-1.546477 1.05708,-4.150039 0.0979,-2.583986 -0.7243,-4.619854 -0.8809,-2.172897 -2.36865,-2.642713 h -0.0391 q -0.0979,0.05873 -0.21533,0.05873 z"
         style="font-style:normal;font-variant:normal;font-weight:500;font-stretch:normal;font-size:19.57565308px;font-family:'A little sunshine';-inkscape-font-specification:'A little sunshine, Medium';font-variant-ligatures:normal;font-variant-caps:normal;font-variant-numeric:normal;font-feature-settings:normal;text-align:start;writing-mode:lr-tb;text-anchor:start;stroke-width:0.26458329"
         id="path415" />
      <path
         d="m -224.98875,32.759622 q -0.19576,3.347437 -0.0587,9.220133 v 0.391513 0.743875 0.920056 q 0,0.822177 0.0196,1.291993 v 0.411088 q 0.0587,0.01958 0.13703,0.03915 0.23491,0.03915 0.60685,0.05873 0.70472,0.03915 1.85969,-0.03915 0.50896,-0.03915 3.22998,-0.31321 0.1566,-0.01958 0.25448,0.0783 0.11746,0.09788 0.13703,0.254483 0.0196,0.13703 -0.0783,0.254484 -0.0979,0.09788 -0.23491,0.117454 -2.74059,0.274059 -3.26913,0.31321 -1.19412,0.0783 -1.91842,0.03915 -0.45024,-0.01958 -0.74387,-0.0783 -0.39151,-0.0783 -0.54812,-0.274059 -0.0587,-0.05873 -0.0979,-0.156606 0,-0.03915 -0.0196,-0.0783 v -0.156606 q -0.0196,-0.17618 -0.0196,-0.45024 -0.0196,-0.489391 -0.0196,-1.311568 v -0.920056 -0.743875 -0.391513 q -0.13703,-5.872696 0.0587,-9.259284 0,-0.156605 0.11746,-0.234908 0.11745,-0.09788 0.25448,-0.09788 0.15661,0 0.23491,0.117454 0.0979,0.117454 0.0979,0.254483 z"
         style="font-style:normal;font-variant:normal;font-weight:500;font-stretch:normal;font-size:19.57565308px;font-family:'A little sunshine';-inkscape-font-specification:'A little sunshine, Medium';font-variant-ligatures:normal;font-variant-caps:normal;font-variant-numeric:normal;font-feature-settings:normal;text-align:start;writing-mode:lr-tb;text-anchor:start;stroke-width:0.26458329"
         id="path417" />
      <path
         d="m -212.08626,39.219588 q 1.50733,-0.626421 2.74059,-1.66393 1.23327,-1.03751 1.54648,-2.212049 0.21533,-0.939632 -0.17618,-1.448599 -0.35236,-0.45024 -1.15496,-0.548118 -0.76345,-0.0783 -1.60521,0.215332 -0.84175,0.293635 -1.31157,0.822178 -0.0392,4.071736 -0.0392,4.835186 z m 0.0196,0.822177 q 0.0783,3.308286 0.50897,5.755242 1.35072,-0.156605 2.68186,-0.920055 1.95757,-1.135388 2.46653,-2.407806 0.41109,-1.037509 -0.27406,-1.859687 -0.45024,-0.548118 -1.23326,-0.841753 -0.78303,-0.293634 -1.89884,-0.254483 -1.11581,0.03915 -2.2512,0.528542 z m 2.2512,-1.233266 q 1.17454,-0.05873 2.13374,0.313211 0.97879,0.352362 1.54648,1.037509 0.93963,1.154964 0.37194,2.583987 -0.58727,1.487749 -2.76017,2.760167 -1.46817,0.841753 -2.9755,0.998358 -0.0979,0.13703 -0.23491,0.176181 -0.2349,0.03915 -0.37193,-0.156605 -0.23491,-0.05873 -0.25449,-0.313211 0,-0.176181 0.11746,-0.274059 -0.27406,-1.526901 -0.41109,-3.386588 -0.11746,-1.859687 -0.13703,-3.073377 0,-1.233267 0.0196,-3.523618 0.0392,-2.309927 0.0392,-3.15168 0,-0.13703 0.0979,-0.234908 0.11746,-0.117454 0.25449,-0.117454 0.13703,0 0.23491,0.117454 0.11745,0.09788 0.11745,0.234908 v 0.626421 q 0.62642,-0.430665 1.42902,-0.645997 0.8026,-0.215332 1.54648,-0.137029 1.09624,0.137029 1.62478,0.802601 0.62642,0.783026 0.29363,2.055444 -0.43066,1.80096 -2.68186,3.308285 z"
         style="font-style:normal;font-variant:normal;font-weight:500;font-stretch:normal;font-size:19.57565308px;font-family:'A little sunshine';-inkscape-font-specification:'A little sunshine, Medium';font-variant-ligatures:normal;font-variant-caps:normal;font-variant-numeric:normal;font-feature-settings:normal;text-align:start;writing-mode:lr-tb;text-anchor:start;stroke-width:0.26458329"
         id="path419" />
      <path
         d="m -203.12489,40.217946 q 2.01629,2.642713 5.2267,5.67694 0.11745,0.09788 0.11745,0.254483 0,0.13703 -0.0979,0.234908 -0.0979,0.117454 -0.25448,0.117454 -0.13703,0 -0.23491,-0.09788 -3.24956,-3.053802 -5.305,-5.755242 0.0196,3.092953 0.25448,5.40288 0.0196,0.156605 -0.0783,0.274059 -0.0979,0.09788 -0.25448,0.117454 -0.13703,0.01958 -0.25449,-0.0783 -0.0979,-0.09788 -0.11745,-0.234907 -0.25448,-2.662289 -0.25448,-6.479542 0,-1.017934 0.0196,-2.681864 -0.0783,-0.13703 -0.0392,-0.274059 l 0.0392,-0.195757 q 0.0392,-2.231624 0.0392,-3.327861 0,-0.137029 0.0979,-0.234908 0.11746,-0.117454 0.25449,-0.117454 0.13703,0 0.2349,0.117454 0.11746,0.09788 0.11746,0.234908 0,0.841753 -0.0196,1.996717 0.60685,-0.861329 1.3703,-1.546477 0.8809,-0.783026 1.70308,-1.057085 1.03751,-0.332786 1.80096,0.215332 0.68515,0.489391 0.68515,1.663931 0,1.879262 -1.80096,3.699798 -1.48775,1.48775 -3.24956,2.075019 z m -0.46982,-0.606845 q 1.70309,-0.45024 3.21041,-1.957565 1.6052,-1.624779 1.6052,-3.210407 0,-0.802602 -0.37193,-1.076661 -0.48939,-0.352362 -1.19412,-0.117454 -0.68515,0.215332 -1.4486,0.90048 -0.62642,0.567694 -1.13538,1.252842 -0.50897,0.685148 -0.7243,1.21369 -0.0196,1.93799 -0.0196,2.955924 z"
         style="font-style:normal;font-variant:normal;font-weight:500;font-stretch:normal;font-size:19.57565308px;font-family:'A little sunshine';-inkscape-font-specification:'A little sunshine, Medium';font-variant-ligatures:normal;font-variant-caps:normal;font-variant-numeric:normal;font-feature-settings:normal;text-align:start;writing-mode:lr-tb;text-anchor:start;stroke-width:0.26458329"
         id="path421" />
      <path
         d="m -196.14556,32.877076 0.76345,-0.09788 q 0.58727,-0.0783 0.82218,-0.117454 0.23491,-0.03915 0.74388,-0.09788 0.52854,-0.05873 0.84175,-0.0783 0.33279,-0.03915 0.76345,-0.05873 0.43066,-0.01958 0.82218,-0.01958 0.13703,0 0.23491,0.117454 0.11745,0.09788 0.11745,0.234907 0,0.13703 -0.11745,0.254484 -0.0979,0.09788 -0.23491,0.09788 -1.27242,0 -4.58071,0.45024 0,0.783026 -0.0392,2.603562 -0.0196,1.80096 -0.0196,2.760167 2.27077,0 4.34579,-0.254483 0.13703,-0.01958 0.25449,0.0783 0.11745,0.0783 0.13703,0.234908 0.0196,0.13703 -0.0783,0.254484 -0.0783,0.117454 -0.2349,0.137029 -2.11418,0.254484 -4.4241,0.254484 0.0392,3.738949 0.56769,6.381663 2.9755,0.195756 5.36373,-0.469816 0.13703,-0.03915 0.25448,0.03915 0.13703,0.05873 0.17618,0.195757 0.0392,0.137029 -0.0392,0.274059 -0.0587,0.117454 -0.19575,0.156605 -2.58399,0.743875 -5.75524,0.489391 -0.0587,0 -0.0979,-0.01958 -0.29364,0 -0.35236,-0.274059 -0.31322,-1.526901 -0.46982,-3.406164 -0.13703,-1.879263 -0.15661,-3.092953 0,-1.233266 0.0196,-3.562769 0.0391,-2.329503 0.0391,-3.15168 0,-0.13703 0.0979,-0.234908 0.11745,-0.117454 0.25448,-0.117454 0.0979,0 0.17618,0.03915 z"
         style="font-style:normal;font-variant:normal;font-weight:500;font-stretch:normal;font-size:19.57565308px;font-family:'A little sunshine';-inkscape-font-specification:'A little sunshine, Medium';font-variant-ligatures:normal;font-variant-caps:normal;font-variant-numeric:normal;font-feature-settings:normal;text-align:start;writing-mode:lr-tb;text-anchor:start;stroke-width:0.26458329"
         id="path423" />
      <path
         d="m -187.96355,32.877076 0.76345,-0.09788 q 0.58727,-0.0783 0.82218,-0.117454 0.23491,-0.03915 0.74388,-0.09788 0.52854,-0.05873 0.84175,-0.0783 0.33279,-0.03915 0.76345,-0.05873 0.43067,-0.01958 0.82218,-0.01958 0.13703,0 0.23491,0.117454 0.11745,0.09788 0.11745,0.234907 0,0.13703 -0.11745,0.254484 -0.0979,0.09788 -0.23491,0.09788 -1.27242,0 -4.5807,0.45024 0,0.783026 -0.0392,2.603562 -0.0196,1.80096 -0.0196,2.760167 2.27077,0 4.34579,-0.254483 0.13703,-0.01958 0.25449,0.0783 0.11745,0.0783 0.13703,0.234908 0.0196,0.13703 -0.0783,0.254484 -0.0783,0.117454 -0.2349,0.137029 -2.11417,0.254484 -4.4241,0.254484 0.0392,3.738949 0.56769,6.381663 2.9755,0.195756 5.36373,-0.469816 0.13703,-0.03915 0.25448,0.03915 0.13703,0.05873 0.17619,0.195757 0.0392,0.137029 -0.0392,0.274059 -0.0587,0.117454 -0.19575,0.156605 -2.58399,0.743875 -5.75524,0.489391 -0.0587,0 -0.0979,-0.01958 -0.29364,0 -0.35236,-0.274059 -0.31321,-1.526901 -0.46982,-3.406164 -0.13703,-1.879263 -0.15661,-3.092953 0,-1.233266 0.0196,-3.562769 0.0392,-2.329503 0.0392,-3.15168 0,-0.13703 0.0979,-0.234908 0.11745,-0.117454 0.25448,-0.117454 0.0979,0 0.17618,0.03915 z"
         style="font-style:normal;font-variant:normal;font-weight:500;font-stretch:normal;font-size:19.57565308px;font-family:'A little sunshine';-inkscape-font-specification:'A little sunshine, Medium';font-variant-ligatures:normal;font-variant-caps:normal;font-variant-numeric:normal;font-feature-settings:normal;text-align:start;writing-mode:lr-tb;text-anchor:start;stroke-width:0.26458329"
         id="path425" />
      <path
         d="m -178.8419,32.759622 q 0.76345,-0.05873 3.36701,-0.01958 1.19411,0.01958 2.05544,0.05873 0.46982,0.01957 0.70473,0.05873 0.1566,0.01958 0.25448,0.03915 0.0587,0.01958 0.11745,0.05873 0.11746,0.03915 0.17618,0.13703 0.11746,0.17618 0.0587,0.45024 -0.0392,0.137029 -0.13703,0.31321 -0.13703,0.293635 -0.45024,0.704724 -0.37194,0.508967 -0.90048,1.154963 -0.90048,1.03751 -1.72266,2.212049 1.17454,-0.05873 2.05545,0.117454 0.13703,0.03915 0.21533,0.156605 0.0783,0.117454 0.0391,0.274059 -0.0196,0.13703 -0.13703,0.215332 -0.11745,0.0783 -0.27406,0.05873 -0.9592,-0.215332 -2.42738,-0.0783 -0.93963,1.429022 -1.95756,3.249558 -0.45024,0.783026 -0.95921,1.996717 -0.33279,0.76345 -0.46982,1.233266 -0.0587,0.254483 -0.0783,0.391513 v 0.01958 q 0.0979,0.01957 0.23491,0.05873 0.29363,0.03915 0.8026,0.0783 0.78303,0.03915 2.30993,0 0.33278,0 0.97878,0 0.66557,-0.01957 1.05709,-0.01957 0.39151,-0.01958 0.86132,-0.01958 0.4894,0 0.82218,0.01958 0.33279,0.01957 0.54812,0.03915 0.13703,0.01958 0.21533,0.137029 0.0979,0.117454 0.0783,0.27406 -0.0196,0.137029 -0.13702,0.215332 -0.11746,0.09788 -0.27406,0.0783 -0.43067,-0.0783 -4.13047,-0.01958 -1.72265,0.01958 -2.36865,-0.01958 -0.54812,-0.01958 -0.88091,-0.0783 -0.45024,-0.0783 -0.62642,-0.254483 -0.19575,-0.176181 -0.19575,-0.528543 0.0196,-0.234908 0.11745,-0.567694 0.13703,-0.508967 0.48939,-1.331144 0.52855,-1.233266 0.97879,-2.055444 0.8809,-1.546476 1.6835,-2.799318 -0.95921,0.117454 -1.40945,0.156605 -0.13703,0.01958 -0.25448,-0.0783 -0.0979,-0.09788 -0.11745,-0.234908 -0.0196,-0.156605 0.0783,-0.254484 0.0979,-0.117454 0.25448,-0.137029 0.35236,-0.01958 1.05709,-0.09788 0.7243,-0.09788 0.90048,-0.117453 1.01793,-1.48775 2.09459,-2.760168 0.52855,-0.606845 0.88091,-1.096236 0.27406,-0.371938 0.39151,-0.606845 -0.21533,-0.01958 -0.58727,-0.03915 -0.76345,-0.03915 -2.03587,-0.05873 -2.56441,-0.03915 -3.30828,0.01958 -0.13703,0 -0.25449,-0.0783 -0.0979,-0.09788 -0.11745,-0.234907 0,-0.156606 0.0783,-0.254484 0.0979,-0.117454 0.25449,-0.13703 z"
         style="font-style:normal;font-variant:normal;font-weight:500;font-stretch:normal;font-size:19.57565308px;font-family:'A little sunshine';-inkscape-font-specification:'A little sunshine, Medium';font-variant-ligatures:normal;font-variant-caps:normal;font-variant-numeric:normal;font-feature-settings:normal;text-align:start;writing-mode:lr-tb;text-anchor:start;stroke-width:0.26458329"
         id="path427" />
      <path
         d="m -169.99371,32.877076 0.76345,-0.09788 q 0.58727,-0.0783 0.82218,-0.117454 0.23491,-0.03915 0.74387,-0.09788 0.52855,-0.05873 0.84176,-0.0783 0.33278,-0.03915 0.76345,-0.05873 0.43066,-0.01958 0.82218,-0.01958 0.13702,0 0.2349,0.117454 0.11746,0.09788 0.11746,0.234907 0,0.13703 -0.11746,0.254484 -0.0979,0.09788 -0.2349,0.09788 -1.27242,0 -4.58071,0.45024 0,0.783026 -0.0392,2.603562 -0.0196,1.80096 -0.0196,2.760167 2.27077,0 4.34579,-0.254483 0.13703,-0.01958 0.25448,0.0783 0.11746,0.0783 0.13703,0.234908 0.0196,0.13703 -0.0783,0.254484 -0.0783,0.117454 -0.23491,0.137029 -2.11417,0.254484 -4.42409,0.254484 0.0392,3.738949 0.56769,6.381663 2.9755,0.195756 5.36373,-0.469816 0.13703,-0.03915 0.25448,0.03915 0.13703,0.05873 0.17618,0.195757 0.0392,0.137029 -0.0392,0.274059 -0.0587,0.117454 -0.19576,0.156605 -2.58398,0.743875 -5.75524,0.489391 -0.0587,0 -0.0979,-0.01958 -0.29363,0 -0.35236,-0.274059 -0.31321,-1.526901 -0.46981,-3.406164 -0.13703,-1.879263 -0.15661,-3.092953 0,-1.233266 0.0196,-3.562769 0.0391,-2.329503 0.0391,-3.15168 0,-0.13703 0.0979,-0.234908 0.11745,-0.117454 0.25448,-0.117454 0.0979,0 0.17618,0.03915 z"
         style="font-style:normal;font-variant:normal;font-weight:500;font-stretch:normal;font-size:19.57565308px;font-family:'A little sunshine';-inkscape-font-specification:'A little sunshine, Medium';font-variant-ligatures:normal;font-variant-caps:normal;font-variant-numeric:normal;font-feature-settings:normal;text-align:start;writing-mode:lr-tb;text-anchor:start;stroke-width:0.26458329"
         id="path429" />
    </g>
  </g>
</svg>
