<?xml version="1.0" encoding="UTF-8" standalone="no"?>
<svg
   xmlns:dc="http://purl.org/dc/elements/1.1/"
   xmlns:cc="http://creativecommons.org/ns#"
   xmlns:rdf="http://www.w3.org/1999/02/22-rdf-syntax-ns#"
   xmlns:svg="http://www.w3.org/2000/svg"
   xmlns="http://www.w3.org/2000/svg"
   xmlns:sodipodi="http://sodipodi.sourceforge.net/DTD/sodipodi-0.dtd"
   xmlns:inkscape="http://www.inkscape.org/namespaces/inkscape"
   width="300"
   height="380"
   viewBox="0 0 79.375 100.54166"
   version="1.1"
   id="svg12553"
   inkscape:version="1.0.2 (e86c8708, 2021-01-15)"
   sodipodi:docname="EightSeq.svg">
  <defs
     id="defs12547" />
  <sodipodi:namedview
     id="base"
     pagecolor="#ffffff"
     bordercolor="#666666"
     borderopacity="1.0"
     inkscape:pageopacity="0.0"
     inkscape:pageshadow="2"
     inkscape:zoom="3.9163541"
     inkscape:cx="91.337001"
     inkscape:cy="90.515317"
     inkscape:document-units="px"
     inkscape:current-layer="layer1"
     showgrid="true"
     fit-margin-top="0"
     fit-margin-left="0"
     fit-margin-right="0"
     fit-margin-bottom="0"
     units="px"
     inkscape:window-width="1696"
     inkscape:window-height="935"
     inkscape:window-x="161"
     inkscape:window-y="63"
     inkscape:window-maximized="0"
     inkscape:snap-grids="false"
     showguides="false"
     inkscape:snap-others="false"
     inkscape:snap-nodes="false"
     inkscape:snap-global="false"
     inkscape:document-rotation="0">
    <inkscape:grid
       type="xygrid"
       id="grid12870"
       originx="-20.372917"
       originy="84.666661" />
  </sodipodi:namedview>
  <metadata
     id="metadata12550">
    <rdf:RDF>
      <cc:Work
         rdf:about="">
        <dc:format>image/svg+xml</dc:format>
        <dc:type
           rdf:resource="http://purl.org/dc/dcmitype/StillImage" />
        <dc:title />
      </cc:Work>
    </rdf:RDF>
  </metadata>
  <g
     inkscape:label="Layer 1"
     inkscape:groupmode="layer"
     id="layer1"
     transform="translate(-26.543497,-161.30655)">
    <g
       aria-label="V"
       id="text430"
       style="font-style:normal;font-variant:normal;font-weight:normal;font-stretch:normal;font-size:4.93889px;line-height:1.25;font-family:sans-serif;-inkscape-font-specification:'sans-serif, Normal';font-variant-ligatures:normal;font-variant-caps:normal;font-variant-numeric:normal;font-variant-east-asian:normal;fill:#1996fc;fill-opacity:1;stroke:none;stroke-width:0.264583">
      <path
         d="m 177.8904,176.41375 -1.30707,3.59083 h -0.63666 l -1.30706,-3.59083 h 0.51125 l 1.1262,3.15916 1.1262,-3.15916 z"
         style="font-style:normal;font-variant:normal;font-weight:normal;font-stretch:normal;font-size:4.93889px;font-family:sans-serif;-inkscape-font-specification:'sans-serif, Normal';font-variant-ligatures:normal;font-variant-caps:normal;font-variant-numeric:normal;font-variant-east-asian:normal;fill:#1996fc;fill-opacity:1;stroke-width:0.264583"
         id="path444" />
    </g>
    <path
       inkscape:connector-curvature="0"
       id="path33453"
       d="m 26.543497,161.45211 h 79.374993 v 100.3961 H 26.543497 Z m 0,0"
       style="fill:#e6e6e6;fill-opacity:1;fill-rule:nonzero;stroke:none;stroke-width:0.263201" />
    <path
       id="rect1298"
       style="fill:#bed7ea;fill-opacity:1;stroke:none;stroke-width:0.321024;stroke-miterlimit:4;stroke-dasharray:none;stroke-dashoffset:0;stroke-opacity:1"
       d="m 34.492711,183.08938 h 14.548767 v 17.12098 H 34.492711 Z" />
    <path
       id="rect1358"
       style="fill:#bed7ea;fill-opacity:1;stroke:none;stroke-width:0.321024;stroke-miterlimit:4;stroke-dasharray:none;stroke-dashoffset:0;stroke-opacity:1"
       d="m 50.801982,183.08938 h 14.548765 v 17.12098 H 50.801982 Z" />
    <path
       id="rect1440"
       style="fill:#bed7ea;fill-opacity:1;stroke:none;stroke-width:0.321024;stroke-miterlimit:4;stroke-dasharray:none;stroke-dashoffset:0;stroke-opacity:1"
       d="m 67.111251,183.08938 h 14.548767 v 17.12098 H 67.111251 Z" />
    <path
       id="rect1442"
       style="fill:#bed7ea;fill-opacity:1;stroke:none;stroke-width:0.321024;stroke-miterlimit:4;stroke-dasharray:none;stroke-dashoffset:0;stroke-opacity:1"
       d="m 83.420527,183.08938 h 14.548748 v 17.12098 H 83.420527 Z" />
    <g
       transform="matrix(0.7749842,0,0,0.86070935,11.316047,29.22561)"
       id="layer1-7"
       inkscape:label="Layer 1">
      <rect
         y="256.12662"
         x="29.52006"
         height="1.6536458"
         width="7.2760415"
         id="rect823"
         style="fill:#ffffff;fill-opacity:1;stroke:none;stroke-width:0.710598;stroke-miterlimit:4;stroke-dasharray:none;stroke-opacity:1" />
      <rect
         y="256.57309"
         x="28.643627"
         height="0.51248246"
         width="9.0803432"
         id="rect821"
         style="fill:#ffffff;fill-opacity:1;stroke:none;stroke-width:0.176948;stroke-miterlimit:4;stroke-dasharray:none;stroke-opacity:1" />
      <ellipse
         ry="5.8699069"
         rx="6.1973119"
         cy="250.78661"
         cx="33.068214"
         id="path817"
         style="fill:#ffffff;fill-opacity:1;stroke:none;stroke-width:0.294763;stroke-miterlimit:4;stroke-dasharray:none;stroke-opacity:1" />
      <rect
         y="257.08557"
         x="28.265131"
         height="4.3030396"
         width="9.541522"
         id="rect819"
         style="fill:#ffffff;fill-opacity:1;stroke:none;stroke-width:0.236954;stroke-miterlimit:4;stroke-dasharray:none;stroke-opacity:1" />
      <path
         style="fill:#54b6fc;stroke-width:0.434238"
         d="m 28.040353,261.67777 c -0.05624,-0.1049 -0.09132,-1.05343 -0.09132,-2.46939 0,-2.62823 -0.06483,-2.41007 0.868669,-2.92327 0.298327,-0.16393 0.542417,-0.32331 0.542417,-0.35402 0,-0.0309 -0.162318,-0.16826 -0.360716,-0.30583 -1.028016,-0.71241 -2.013971,-2.17766 -2.338877,-3.47584 -0.201325,-0.80442 -0.134174,-2.39054 0.13451,-3.17721 1.033244,-3.02511 4.386038,-4.85502 7.661927,-4.18175 2.136444,0.4391 3.832748,1.7715 4.690824,3.6846 0.361925,0.8069 0.484002,1.41362 0.481552,2.39329 -0.0043,1.76252 -0.804317,3.40089 -2.221636,4.55038 -0.254647,0.20641 -0.463011,0.4065 -0.463011,0.44439 0,0.038 0.188503,0.17638 0.418915,0.30774 0.88078,0.5022 0.815782,0.26078 0.815782,3.02947 0,1.77735 -0.02862,2.465 -0.105831,2.54221 -0.07977,0.0796 -1.316324,0.10568 -5.023888,0.10568 -4.772077,0 -4.920765,-0.006 -5.009351,-0.17069 z m 4.778272,-1.34136 c 0.02029,-0.72066 0.0537,-0.91258 0.172084,-0.98706 0.106484,-0.067 0.185415,-0.0605 0.286623,0.0243 0.110188,0.0915 0.139673,0.2998 0.139673,0.98705 v 0.87111 h 2.031202 c 1.725502,0 2.038854,-0.0189 2.082046,-0.13248 0.118689,-0.30933 -0.0843,-0.54865 -1.048716,-1.23644 -0.806681,-0.57531 -0.992,-0.74828 -0.992,-0.92603 0,-0.17285 0.05069,-0.22425 0.242529,-0.24644 l 0.242526,-0.0279 v -0.72694 c 0,-0.82266 0.11329,-1.0851 0.425635,-0.98597 0.182308,0.0579 0.191777,0.11143 0.193075,1.09112 6.9e-4,0.56673 0.03051,1.07216 0.06615,1.12322 0.107317,0.15365 0.691445,0.5686 0.80071,0.5686 0.07253,0 0.101903,-0.37768 0.101903,-1.30922 0,-1.48548 0.04525,-1.38286 -0.823095,-1.86798 l -0.514419,-0.28745 -0.896236,0.29918 c -0.869904,0.29041 -0.937695,0.2992 -2.307746,0.29891 -1.355532,-2.1e-4 -1.441911,-0.0113 -2.177833,-0.27426 l -0.766317,-0.27401 -0.710913,0.40097 -0.710915,0.40096 v 1.35053 c 0,0.7428 0.02272,1.35058 0.05046,1.35058 0.02775,0 0.226187,-0.10309 0.440962,-0.22887 l 0.390524,-0.22887 0.0014,-0.89557 c 0.0016,-1.14751 0.206306,-1.60144 0.561721,-1.24599 0.108544,0.1085 0.142513,0.31853 0.142513,0.88028 v 0.7378 l 0.290718,-0.0471 c 0.315025,-0.0511 0.543194,0.11558 0.458905,0.33517 -0.02597,0.0676 -0.562393,0.43193 -1.192126,0.80964 -1.113533,0.66789 -1.144968,0.69508 -1.144968,0.9907 v 0.30396 h 2.069441 2.069444 z m 2.265337,-4.35748 c 1.820054,-0.60937 3.301106,-2.14018 3.754405,-3.88051 0.141672,-0.5439 0.182494,-2.03256 0.06101,-2.22398 -0.0547,-0.0862 -0.514454,-0.10647 -1.993182,-0.0881 l -1.922097,0.0243 -0.285943,0.79373 c -0.250451,0.69526 -0.311823,0.79372 -0.494567,0.79372 -0.193669,0 -0.219614,-0.0593 -0.361764,-0.82692 -0.233437,-1.26061 -0.264438,-1.24093 -0.550459,0.34982 -0.250913,1.39568 -0.282965,1.49134 -0.499452,1.49134 -0.208819,0 -0.19843,0.0455 -0.591264,-2.59459 -0.179846,-1.20877 -0.366691,-2.21079 -0.415197,-2.22673 -0.04851,-0.0164 -0.346157,0.47702 -0.661443,1.09535 l -0.573255,1.12428 -1.649981,0.0244 -1.649981,0.0243 -0.05961,0.3176 c -0.100912,0.53789 0.02055,1.63287 0.25608,2.31038 0.480987,1.38307 1.462121,2.47313 2.838905,3.15409 1.070426,0.52942 1.68831,0.6568 2.998555,0.61816 0.870867,-0.027 1.189545,-0.0752 1.799239,-0.27931 z m -2.582339,-0.34598 c -0.501349,-0.14204 -0.612279,-0.23104 -0.568647,-0.45582 0.02803,-0.14447 0.130451,-0.16555 0.868148,-0.17909 0.460004,-0.008 0.975273,-0.0281 1.145044,-0.0441 0.276178,-0.0243 0.311494,-0.006 0.335474,0.20237 0.023,0.19722 -0.02543,0.25187 -0.329357,0.37355 -0.522805,0.20913 -0.965587,0.24078 -1.450662,0.1031 z m -1.6422,-2.07469 c -0.09701,-0.0972 -0.176384,-0.25567 -0.176384,-0.35282 0,-0.24453 0.308426,-0.52913 0.573253,-0.52913 0.264818,0 0.573252,0.28468 0.573252,0.52913 0,0.24455 -0.308429,0.52918 -0.573252,0.52918 -0.121275,0 -0.299857,-0.0793 -0.396869,-0.17636 z m 3.439517,-0.0882 c -0.232761,-0.23267 -0.222508,-0.40285 0.0401,-0.66546 0.243582,-0.24345 0.329798,-0.25996 0.605107,-0.11502 0.242042,0.12748 0.321863,0.24591 0.323575,0.48022 0.0031,0.43406 -0.63668,0.63239 -0.968767,0.30029 z m -1.151475,-4.27736 c 0.296559,-1.78581 0.575578,-1.83207 0.874871,-0.14501 0.09772,0.55084 0.197295,1.02113 0.221263,1.04511 0.08271,0.0828 0.212362,-0.0613 0.273139,-0.30344 0.117052,-0.46642 0.107419,-0.46436 2.176972,-0.46436 2.188984,0 2.146871,0.0162 1.845872,-0.66529 -0.655344,-1.4815 -2.160669,-2.71162 -3.887876,-3.17706 -0.773684,-0.20858 -2.314597,-0.21425 -3.086746,-0.0113 -1.862761,0.48917 -3.433992,1.84034 -4.06194,3.49292 l -0.172218,0.45328 1.47768,-0.0243 1.477684,-0.0244 0.705541,-1.38465 c 0.388047,-0.76156 0.755433,-1.43456 0.816413,-1.4955 0.244962,-0.24482 0.364055,0.12518 0.643002,1.99713 0.151683,1.01798 0.296644,1.88465 0.322123,1.92588 0.102882,0.16637 0.192723,-0.12627 0.374219,-1.21922 z"
         id="path4012-8"
         inkscape:connector-curvature="0" />
      <path
         style="fill:#a0a0a0;stroke-width:0.434238"
         d="m 28.040353,261.67777 c -0.05624,-0.1049 -0.09132,-1.05343 -0.09132,-2.46939 0,-2.62823 -0.06483,-2.41007 0.868669,-2.92327 0.298327,-0.16393 0.542417,-0.32331 0.542417,-0.35402 0,-0.0309 -0.162318,-0.16826 -0.360716,-0.30583 -1.028016,-0.71241 -2.013971,-2.17766 -2.338877,-3.47584 -0.201325,-0.80442 -0.134174,-2.39054 0.13451,-3.17721 1.033244,-3.02511 4.386038,-4.85502 7.661927,-4.18175 2.136444,0.4391 3.832748,1.7715 4.690824,3.6846 0.361925,0.8069 0.484002,1.41362 0.481552,2.39329 -0.0043,1.76252 -0.804317,3.40089 -2.221636,4.55038 -0.254647,0.20641 -0.463011,0.4065 -0.463011,0.44439 0,0.038 0.188503,0.17638 0.418915,0.30774 0.88078,0.5022 0.815782,0.26078 0.815782,3.02947 0,1.77735 -0.02862,2.465 -0.105831,2.54221 -0.07977,0.0796 -1.316324,0.10568 -5.023888,0.10568 -4.772077,0 -4.920765,-0.006 -5.009351,-0.17069 z m 4.778272,-1.34136 c 0.02029,-0.72066 0.0537,-0.91258 0.172084,-0.98706 0.106484,-0.067 0.185415,-0.0605 0.286623,0.0243 0.110188,0.0915 0.139673,0.2998 0.139673,0.98705 v 0.87111 h 2.031202 c 1.725502,0 2.038854,-0.0189 2.082046,-0.13248 0.118689,-0.30933 -0.0843,-0.54865 -1.048716,-1.23644 -0.806681,-0.57531 -0.992,-0.74828 -0.992,-0.92603 0,-0.17285 0.05069,-0.22425 0.242529,-0.24644 l 0.242526,-0.0279 v -0.72694 c 0,-0.82266 0.11329,-1.0851 0.425635,-0.98597 0.182308,0.0579 0.191777,0.11143 0.193075,1.09112 6.9e-4,0.56673 0.03051,1.07216 0.06615,1.12322 0.107317,0.15365 0.691445,0.5686 0.80071,0.5686 0.07253,0 0.101903,-0.37768 0.101903,-1.30922 0,-1.48548 0.04525,-1.38286 -0.823095,-1.86798 l -0.514419,-0.28745 -0.896236,0.29918 c -0.869904,0.29041 -0.937695,0.2992 -2.307746,0.29891 -1.355532,-2.1e-4 -1.441911,-0.0113 -2.177833,-0.27426 l -0.766317,-0.27401 -0.710913,0.40097 -0.710915,0.40096 v 1.35053 c 0,0.7428 0.02272,1.35058 0.05046,1.35058 0.02775,0 0.226187,-0.10309 0.440962,-0.22887 l 0.390524,-0.22887 0.0014,-0.89557 c 0.0016,-1.14751 0.206306,-1.60144 0.561721,-1.24599 0.108544,0.1085 0.142513,0.31853 0.142513,0.88028 v 0.7378 l 0.290718,-0.0471 c 0.315025,-0.0511 0.543194,0.11558 0.458905,0.33517 -0.02597,0.0676 -0.562393,0.43193 -1.192126,0.80964 -1.113533,0.66789 -1.144968,0.69508 -1.144968,0.9907 v 0.30396 h 2.069441 2.069444 z m 2.265337,-4.35748 c 1.403562,-0.46993 2.640938,-1.50058 3.294283,-2.74387 0.429067,-0.81653 0.595175,-1.49004 0.593708,-2.40729 -0.002,-1.2675 0.205601,-1.15 -2.032309,-1.15 -1.442955,0 -1.942613,0.0275 -1.996101,0.11041 -0.03924,0.0606 -0.191398,0.42737 -0.338104,0.81498 -0.382438,1.0104 -0.497129,0.9789 -0.708436,-0.1945 -0.249425,-1.38497 -0.369803,-1.31205 -0.674781,0.40874 -0.236279,1.33315 -0.338408,1.62908 -0.50309,1.45776 -0.04428,-0.0461 -0.22394,-1.07598 -0.399194,-2.28859 -0.378048,-2.61568 -0.375281,-2.60172 -0.515638,-2.60172 -0.06054,0 -0.377093,0.53579 -0.703448,1.19062 l -0.593372,1.1906 h -1.626578 -1.626579 l -0.06131,0.40891 c -0.234007,1.5605 0.483321,3.42764 1.761718,4.58559 0.632883,0.57328 1.868907,1.21483 2.698432,1.40062 0.933964,0.20911 2.512332,0.12546 3.430809,-0.18205 z m -2.582339,-0.34598 c -0.501349,-0.14204 -0.612279,-0.23104 -0.568647,-0.45582 0.02803,-0.14447 0.130451,-0.16555 0.868148,-0.17909 0.460004,-0.008 0.975273,-0.0281 1.145044,-0.0441 0.276178,-0.0243 0.311494,-0.006 0.335474,0.20237 0.023,0.19722 -0.02543,0.25187 -0.329357,0.37355 -0.522805,0.20913 -0.965587,0.24078 -1.450662,0.1031 z m -1.6422,-2.07469 c -0.09701,-0.0972 -0.176384,-0.25567 -0.176384,-0.35282 0,-0.24453 0.308426,-0.52913 0.573253,-0.52913 0.264818,0 0.573252,0.28468 0.573252,0.52913 0,0.24455 -0.308429,0.52918 -0.573252,0.52918 -0.121275,0 -0.299857,-0.0793 -0.396869,-0.17636 z m 3.439517,-0.0882 c -0.232761,-0.23267 -0.222508,-0.40285 0.0401,-0.66546 0.243582,-0.24345 0.329798,-0.25996 0.605107,-0.11502 0.242042,0.12748 0.321863,0.24591 0.323575,0.48022 0.0031,0.43406 -0.63668,0.63239 -0.968767,0.30029 z m -1.097809,-4.10189 c 0.211607,-1.21013 0.333943,-1.55258 0.494567,-1.38443 0.03281,0.0344 0.152225,0.57839 0.265306,1.20896 0.232869,1.29834 0.343523,1.42064 0.618496,0.68352 l 0.172705,-0.46302 h 1.972971 c 1.085132,0 1.99242,-0.0315 2.016195,-0.0698 0.08023,-0.12991 -0.357483,-1.05886 -0.773608,-1.642 -0.728041,-1.02028 -1.981677,-1.859 -3.316077,-2.21859 -0.773686,-0.20857 -2.314601,-0.21426 -3.086747,-0.0113 -1.084749,0.28486 -1.999152,0.80872 -2.786328,1.59624 -0.677355,0.67767 -1.19903,1.50881 -1.403089,2.23545 l -0.05574,0.19856 1.439077,-9.8e-4 c 0.791494,-6.2e-4 1.483847,-0.0306 1.538565,-0.0662 0.05473,-0.0355 0.422055,-0.70973 0.816304,-1.49793 0.672478,-1.34451 0.811339,-1.54707 0.929474,-1.35595 0.02624,0.0426 0.169945,0.92549 0.319337,1.9623 0.278277,1.93132 0.382411,2.3719 0.526552,2.22775 0.04457,-0.0447 0.184959,-0.67541 0.312001,-1.40192 z"
         id="path4010-0"
         inkscape:connector-curvature="0" />
      <path
         style="fill:#179cfd;stroke-width:0.434238"
         d="m 28.084301,261.62139 c -0.09334,-0.2432 -0.06068,-4.53422 0.03585,-4.71459 0.04932,-0.0922 0.366818,-0.32942 0.705541,-0.52725 0.338727,-0.19778 0.615865,-0.39635 0.615865,-0.44114 0,-0.0449 -0.225402,-0.25131 -0.5009,-0.45914 -1.007366,-0.75955 -1.863496,-2.05429 -2.182561,-3.30077 -0.176274,-0.68859 -0.179006,-2.04001 -0.0054,-2.72476 0.07324,-0.28909 0.298305,-0.86296 0.500144,-1.27526 0.293281,-0.59912 0.51896,-0.90166 1.123813,-1.50667 0.628099,-0.62825 0.899287,-0.82698 1.594434,-1.16847 1.206772,-0.59277 1.759323,-0.7188 3.130615,-0.71416 0.806735,0.002 1.311968,0.0495 1.704825,0.15746 3.200698,0.88036 5.194794,3.81447 4.65392,6.84772 -0.248316,1.39251 -1.241594,2.98286 -2.337264,3.74216 -0.198811,0.13767 -0.36148,0.28303 -0.36148,0.3228 0,0.0398 0.277437,0.23428 0.616524,0.43238 0.393273,0.22968 0.633784,0.4307 0.664178,0.55509 0.02625,0.10714 0.03649,1.24673 0.02299,2.53213 l -0.02488,2.33712 -4.951132,0.0216 c -4.457619,0.0215 -4.956494,0.008 -5.004941,-0.11734 z m 4.796794,-1.27231 c 0.04062,-0.85254 0.0581,-0.92604 0.220478,-0.92604 0.162399,0 0.179874,0.0735 0.22048,0.92604 l 0.0441,0.92602 h 2.11542 c 1.979416,0 2.117418,-0.0113 2.146485,-0.16124 0.07415,-0.38501 -0.08786,-0.58193 -1.039039,-1.26279 -0.5321,-0.38086 -0.988888,-0.74572 -1.015085,-0.81071 -0.07133,-0.17694 0.02596,-0.27867 0.266821,-0.27867 0.212067,0 0.215285,-0.0113 0.215285,-0.78294 0,-0.57789 0.03363,-0.81084 0.12842,-0.88952 0.247505,-0.20531 0.312538,-0.006 0.312538,0.96492 0,0.5267 0.02407,1.0201 0.05321,1.09639 0.07569,0.19722 0.895628,0.78122 1.003392,0.71461 0.137026,-0.0848 0.118488,-2.70962 -0.02028,-2.88339 -0.06062,-0.0761 -0.366131,-0.28527 -0.678882,-0.46529 -0.638192,-0.36731 -0.664782,-0.36715 -1.680277,0.0113 -0.620191,0.23022 -0.749452,0.24593 -2.072528,0.24835 -1.367516,0.002 -1.436372,-0.006 -2.229991,-0.28332 l -0.818897,-0.286 -0.707163,0.41086 c -0.388942,0.22589 -0.744718,0.48108 -0.790616,0.56686 -0.04592,0.0857 -0.08344,0.71537 -0.08344,1.39919 0,0.99797 0.02488,1.25279 0.126404,1.29174 0.157447,0.0603 0.905595,-0.36921 1.022127,-0.58694 0.04739,-0.0885 0.0862,-0.57804 0.0862,-1.08767 0,-0.95796 0.0901,-1.20675 0.322052,-0.88956 0.07719,0.10547 0.118894,0.4201 0.118894,0.89644 v 0.73386 l 0.360543,-0.0576 c 0.341277,-0.0546 0.358954,-0.0466 0.330725,0.14961 -0.02299,0.16068 -0.280994,0.35508 -1.148549,0.86561 -1.145685,0.67416 -1.30229,0.84178 -1.171412,1.25421 0.05178,0.16311 0.145382,0.16933 2.186334,0.14688 l 2.132238,-0.0243 z m 2.160723,-4.26226 c 1.769875,-0.57963 3.167996,-1.90262 3.76078,-3.55863 0.192048,-0.53652 0.328288,-2.18171 0.217288,-2.62393 l -0.05685,-0.22641 h -1.977453 c -1.485114,0 -1.995217,0.0273 -2.0488,0.11041 -0.03924,0.0605 -0.191399,0.42736 -0.338105,0.81497 -0.382437,1.0104 -0.497129,0.97892 -0.708437,-0.1945 -0.249424,-1.38497 -0.369803,-1.31205 -0.674782,0.40873 -0.236276,1.33315 -0.338406,1.62909 -0.503087,1.45777 -0.04428,-0.046 -0.223941,-1.07597 -0.399196,-2.28861 -0.378048,-2.61567 -0.375282,-2.6017 -0.515636,-2.6017 -0.06054,0 -0.377094,0.53578 -0.703448,1.19062 l -0.593373,1.19063 h -1.628884 c -1.902339,0 -1.81147,-0.0499 -1.81147,0.99426 0,0.80431 0.255081,1.83651 0.632916,2.56111 0.424332,0.81377 1.610253,1.95985 2.460638,2.37796 1.097382,0.53952 1.794389,0.68665 3.07994,0.64999 0.892825,-0.0244 1.23655,-0.0755 1.807954,-0.26241 z m -2.425303,-0.51429 c -0.478805,-0.10703 -0.703657,-0.2876 -0.549872,-0.44139 0.07642,-0.0766 0.231706,-0.0808 0.585546,-0.0162 0.356597,0.0647 0.599579,0.0571 0.936494,-0.0291 0.48231,-0.12329 0.615302,-0.0987 0.615302,0.11422 0,0.28859 -0.958357,0.51378 -1.58747,0.37302 z m -1.706091,-2.08738 c -0.189693,-0.20965 -0.184796,-0.3936 0.01543,-0.57471 0.232894,-0.21073 0.518062,-0.17963 0.684657,0.0743 0.133834,0.20423 0.133834,0.23669 0,0.44096 -0.171756,0.26213 -0.491832,0.2892 -0.699982,0.0593 z m 3.421615,-0.14148 c -0.271481,-0.41435 0.198702,-0.82027 0.625904,-0.54036 0.247452,0.16205 0.279238,0.41467 0.07757,0.61634 -0.207737,0.20776 -0.541169,0.17179 -0.703478,-0.0761 z m -1.137669,-3.97553 c 0.211606,-1.21013 0.333942,-1.55259 0.494569,-1.38441 0.03282,0.0344 0.152224,0.57837 0.265305,1.20895 0.23276,1.29772 0.34355,1.42057 0.617887,0.68512 l 0.172107,-0.46134 2.000835,-0.0243 c 2.352706,-0.0279 2.281076,0.0162 1.723959,-1.05794 -0.429635,-0.82824 -1.435244,-1.8525 -2.279603,-2.32184 -3.036046,-1.6875 -6.967182,-0.61741 -8.490501,2.31125 -0.205682,0.39548 -0.373989,0.82207 -0.373989,0.94808 v 0.22911 l 1.433135,-9.7e-4 c 0.788221,-6e-4 1.477901,-0.0306 1.53262,-0.0663 0.05473,-0.0355 0.422054,-0.7097 0.816303,-1.49792 0.672479,-1.34449 0.811342,-1.54706 0.929474,-1.35594 0.02625,0.0425 0.169945,0.9255 0.319337,1.96229 0.278278,1.93132 0.382411,2.37191 0.526555,2.22776 0.04455,-0.0447 0.184956,-0.67543 0.311999,-1.40192 z"
         id="path4008-4"
         inkscape:connector-curvature="0" />
      <path
         style="fill:#050505;fill-opacity:1;stroke-width:0.434238"
         d="m 28.084301,261.62139 c -0.09334,-0.2432 -0.06068,-4.53422 0.03585,-4.71459 0.04932,-0.0922 0.366818,-0.32942 0.705541,-0.52725 0.338727,-0.19778 0.615865,-0.39635 0.615865,-0.44114 0,-0.0449 -0.225402,-0.25131 -0.5009,-0.45914 -1.007366,-0.75955 -1.863496,-2.05429 -2.182561,-3.30077 -0.176274,-0.68859 -0.179006,-2.04001 -0.0054,-2.72476 0.07324,-0.28909 0.298305,-0.86296 0.500144,-1.27526 0.293281,-0.59912 0.51896,-0.90166 1.123813,-1.50667 0.628099,-0.62825 0.899287,-0.82698 1.594434,-1.16847 1.206772,-0.59277 1.759323,-0.7188 3.130615,-0.71416 0.806735,0.002 1.311968,0.0495 1.704825,0.15746 3.200698,0.88036 5.194794,3.81447 4.65392,6.84772 -0.248316,1.39251 -1.241594,2.98286 -2.337264,3.74216 -0.198811,0.13767 -0.36148,0.28303 -0.36148,0.3228 0,0.0398 0.277437,0.23428 0.616524,0.43238 0.393273,0.22968 0.633784,0.4307 0.664178,0.55509 0.02625,0.10714 0.03649,1.24673 0.02299,2.53213 l -0.02488,2.33712 -4.951132,0.0216 c -4.457619,0.0215 -4.956494,0.008 -5.004941,-0.11734 z m 4.796794,-1.27231 c 0.04062,-0.85254 0.0581,-0.92604 0.220478,-0.92604 0.162399,0 0.179874,0.0735 0.22048,0.92604 l 0.0441,0.92602 h 2.11542 c 1.979416,0 2.117418,-0.0113 2.146485,-0.16124 0.07415,-0.38501 -0.08786,-0.58193 -1.039039,-1.26279 -0.5321,-0.38086 -0.988888,-0.74572 -1.015085,-0.81071 -0.07133,-0.17694 0.02596,-0.27867 0.266821,-0.27867 0.212067,0 0.215285,-0.0113 0.215285,-0.78294 0,-0.57789 0.03363,-0.81084 0.12842,-0.88952 0.247505,-0.20531 0.312538,-0.006 0.312538,0.96492 0,0.5267 0.02407,1.0201 0.05321,1.09639 0.07569,0.19722 0.895628,0.78122 1.003392,0.71461 0.137026,-0.0848 0.118488,-2.70962 -0.02028,-2.88339 -0.06062,-0.0761 -0.366131,-0.28527 -0.678882,-0.46529 -0.638192,-0.36731 -0.664782,-0.36715 -1.680277,0.0113 -0.620191,0.23022 -0.749452,0.24593 -2.072528,0.24835 -1.367516,0.002 -1.436372,-0.006 -2.229991,-0.28332 l -0.818897,-0.286 -0.707163,0.41086 c -0.388942,0.22589 -0.744718,0.48108 -0.790616,0.56686 -0.04592,0.0857 -0.08344,0.71537 -0.08344,1.39919 0,0.99797 0.02488,1.25279 0.126404,1.29174 0.157447,0.0603 0.905595,-0.36921 1.022127,-0.58694 0.04739,-0.0885 0.0862,-0.57804 0.0862,-1.08767 0,-0.95796 0.0901,-1.20675 0.322052,-0.88956 0.07719,0.10547 0.118894,0.4201 0.118894,0.89644 v 0.73386 l 0.360543,-0.0576 c 0.341277,-0.0546 0.358954,-0.0466 0.330725,0.14961 -0.02299,0.16068 -0.280994,0.35508 -1.148549,0.86561 -1.145685,0.67416 -1.30229,0.84178 -1.171412,1.25421 0.05178,0.16311 0.145382,0.16933 2.186334,0.14688 l 2.132238,-0.0243 z m 2.160723,-4.26226 c 1.798336,-0.58895 3.232202,-1.974 3.804655,-3.6751 0.213148,-0.63339 0.221914,-2.36663 0.01569,-3.09953 -0.356769,-1.26779 -1.453375,-2.62144 -2.672695,-3.2992 -2.477562,-1.37709 -5.596645,-0.9588 -7.541693,1.01144 -1.633552,1.65471 -2.027872,4.11443 -0.994473,6.2034 0.44418,0.89788 1.576714,2.0172 2.500652,2.47147 1.097382,0.53953 1.794387,0.68664 3.079941,0.64999 0.892823,-0.0243 1.236549,-0.0756 1.807951,-0.26241 z m -2.425303,-0.51429 c -0.478805,-0.10703 -0.703657,-0.2876 -0.549872,-0.44139 0.07642,-0.0766 0.231706,-0.0808 0.585546,-0.0162 0.356597,0.0647 0.599579,0.0571 0.936494,-0.0291 0.48231,-0.12329 0.615302,-0.0987 0.615302,0.11422 0,0.28859 -0.958357,0.51378 -1.58747,0.37302 z m -1.706091,-2.08738 c -0.189693,-0.20965 -0.184796,-0.3936 0.01543,-0.57471 0.232894,-0.21073 0.518062,-0.17963 0.684657,0.0743 0.133834,0.20423 0.133834,0.23669 0,0.44096 -0.171756,0.26213 -0.491832,0.2892 -0.699982,0.0593 z m 3.421615,-0.14148 c -0.271481,-0.41435 0.198702,-0.82027 0.625904,-0.54036 0.247452,0.16205 0.279238,0.41467 0.07757,0.61634 -0.207737,0.20776 -0.541169,0.17179 -0.703478,-0.0761 z"
         id="path4006-5"
         inkscape:connector-curvature="0" />
    </g>
    <g
       aria-label="ROOT"
       style="font-style:normal;font-variant:normal;font-weight:bold;font-stretch:normal;font-size:2.11667px;line-height:1.25;font-family:monospace;-inkscape-font-specification:'monospace, Bold';font-variant-ligatures:normal;font-variant-caps:normal;font-variant-numeric:normal;font-feature-settings:normal;text-align:start;letter-spacing:0px;word-spacing:0px;writing-mode:lr-tb;text-anchor:start;fill:#1996fc;fill-opacity:1;stroke:none;stroke-width:0.264583"
       id="text920"
       transform="translate(1.0583333,-1.0583333)">
      <path
         d="m 46.162965,243.65707 q 0.04548,0.009 0.07855,0.0434 0.03411,0.0331 0.08268,0.13023 l 0.279053,0.555 h -0.334863 l -0.186036,-0.38964 q -0.0083,-0.0165 -0.0217,-0.0455 -0.08165,-0.17467 -0.192236,-0.17467 h -0.09715 v 0.60978 h -0.304891 v -1.54306 h 0.440283 q 0.297657,0 0.426848,0.10542 0.130224,0.10542 0.130224,0.34313 0,0.15917 -0.07751,0.25322 -0.07751,0.0941 -0.223242,0.11265 z m -0.391708,-0.5581 v 0.42064 h 0.143661 q 0.125057,0 0.1788,-0.0486 0.05478,-0.0496 0.05478,-0.16227 0,-0.11265 -0.05374,-0.16123 -0.05374,-0.0486 -0.179834,-0.0486 z"
         style="font-style:normal;font-variant:normal;font-weight:bold;font-stretch:normal;font-size:2.11667px;font-family:monospace;-inkscape-font-specification:'monospace, Bold';font-variant-ligatures:normal;font-variant-caps:normal;font-variant-numeric:normal;font-feature-settings:normal;text-align:start;writing-mode:lr-tb;text-anchor:start;fill:#1996fc;fill-opacity:1;stroke-width:0.264583"
         id="path1002"
         inkscape:connector-curvature="0" />
      <path
         d="m 47.238868,243.08863 q -0.116789,0 -0.170532,0.12506 -0.05374,0.12402 -0.05374,0.40204 0,0.27699 0.05374,0.40205 0.05374,0.12402 0.170532,0.12402 0.117822,0 0.171566,-0.12402 0.05374,-0.12506 0.05374,-0.40205 0,-0.27802 -0.05374,-0.40204 -0.05374,-0.12506 -0.171566,-0.12506 z m -0.541569,0.5271 q 0,-0.39584 0.136426,-0.59841 0.137459,-0.20257 0.405143,-0.20257 0.268717,0 0.405143,0.20257 0.137459,0.20257 0.137459,0.59841 0,0.39481 -0.137459,0.59738 -0.136426,0.20257 -0.405143,0.20257 -0.267684,0 -0.405143,-0.20257 -0.136426,-0.20257 -0.136426,-0.59738 z"
         style="font-style:normal;font-variant:normal;font-weight:bold;font-stretch:normal;font-size:2.11667px;font-family:monospace;-inkscape-font-specification:'monospace, Bold';font-variant-ligatures:normal;font-variant-caps:normal;font-variant-numeric:normal;font-feature-settings:normal;text-align:start;writing-mode:lr-tb;text-anchor:start;fill:#1996fc;fill-opacity:1;stroke-width:0.264583"
         id="path1004"
         inkscape:connector-curvature="0" />
      <path
         d="m 48.512175,243.08863 q -0.116789,0 -0.170532,0.12506 -0.05374,0.12402 -0.05374,0.40204 0,0.27699 0.05374,0.40205 0.05374,0.12402 0.170532,0.12402 0.117822,0 0.171566,-0.12402 0.05374,-0.12506 0.05374,-0.40205 0,-0.27802 -0.05374,-0.40204 -0.05374,-0.12506 -0.171566,-0.12506 z m -0.541569,0.5271 q 0,-0.39584 0.136426,-0.59841 0.137459,-0.20257 0.405143,-0.20257 0.268717,0 0.405143,0.20257 0.13746,0.20257 0.13746,0.59841 0,0.39481 -0.13746,0.59738 -0.136426,0.20257 -0.405143,0.20257 -0.267684,0 -0.405143,-0.20257 -0.136426,-0.20257 -0.136426,-0.59738 z"
         style="font-style:normal;font-variant:normal;font-weight:bold;font-stretch:normal;font-size:2.11667px;font-family:monospace;-inkscape-font-specification:'monospace, Bold';font-variant-ligatures:normal;font-variant-caps:normal;font-variant-numeric:normal;font-feature-settings:normal;text-align:start;writing-mode:lr-tb;text-anchor:start;fill:#1996fc;fill-opacity:1;stroke-width:0.264583"
         id="path1006"
         inkscape:connector-curvature="0" />
      <path
         d="m 49.938444,244.38571 h -0.304891 v -1.27641 h -0.391707 v -0.26665 h 1.088306 v 0.26665 h -0.391708 z"
         style="font-style:normal;font-variant:normal;font-weight:bold;font-stretch:normal;font-size:2.11667px;font-family:monospace;-inkscape-font-specification:'monospace, Bold';font-variant-ligatures:normal;font-variant-caps:normal;font-variant-numeric:normal;font-feature-settings:normal;text-align:start;writing-mode:lr-tb;text-anchor:start;fill:#1996fc;fill-opacity:1;stroke-width:0.264583"
         id="path1008"
         inkscape:connector-curvature="0" />
    </g>
    <g
       aria-label="SCALE"
       style="font-style:normal;font-variant:normal;font-weight:bold;font-stretch:normal;font-size:2.11667px;line-height:1.25;font-family:monospace;-inkscape-font-specification:'monospace, Bold';font-variant-ligatures:normal;font-variant-caps:normal;font-variant-numeric:normal;font-feature-settings:normal;text-align:start;letter-spacing:0px;word-spacing:0px;writing-mode:lr-tb;text-anchor:start;fill:#1996fc;fill-opacity:1;stroke:none;stroke-width:0.264583"
       id="text924"
       transform="translate(13.229168,-1.0583233)">
      <path
         d="m 54.05809,243.70875 q -0.230477,-0.0879 -0.312125,-0.18397 -0.08165,-0.0971 -0.08165,-0.26045 0,-0.2098 0.134359,-0.32969 0.134358,-0.11989 0.368969,-0.11989 0.106454,0 0.212907,0.0248 0.106454,0.0238 0.21084,0.0713 v 0.29765 q -0.09819,-0.0692 -0.199471,-0.10542 -0.101286,-0.0362 -0.200505,-0.0362 -0.110587,0 -0.169498,0.0444 -0.05891,0.0444 -0.05891,0.12712 0,0.0641 0.04237,0.10646 0.04341,0.0413 0.179834,0.092 l 0.131258,0.0496 q 0.186035,0.0682 0.273885,0.18087 0.08785,0.11265 0.08785,0.28422 0,0.23358 -0.138492,0.34933 -0.13746,0.11472 -0.416513,0.11472 -0.114721,0 -0.230476,-0.0279 -0.114722,-0.0269 -0.222209,-0.0806 v -0.31522 q 0.121956,0.0868 0.235644,0.12919 0.114722,0.0424 0.226343,0.0424 0.112655,0 0.174667,-0.0506 0.06201,-0.0517 0.06201,-0.14366 0,-0.0693 -0.04134,-0.12092 -0.04134,-0.0527 -0.119889,-0.0827 z"
         id="path991"
         inkscape:connector-curvature="0" />
      <path
         d="m 55.921542,244.34127 q -0.07235,0.0372 -0.151928,0.0558 -0.07958,0.0186 -0.167432,0.0186 -0.312126,0 -0.476457,-0.20567 -0.164331,-0.20567 -0.164331,-0.59428 0,-0.38964 0.164331,-0.59531 0.164331,-0.20567 0.476457,-0.20567 0.08785,0 0.168465,0.0186 0.08062,0.0186 0.150895,0.0558 v 0.339 q -0.07855,-0.0724 -0.152962,-0.10542 -0.07338,-0.0341 -0.151929,-0.0341 -0.167431,0 -0.253214,0.13333 -0.08475,0.13229 -0.08475,0.39377 0,0.26045 0.08475,0.39378 0.08578,0.13229 0.253214,0.13229 0.07855,0 0.151929,-0.0331 0.07441,-0.0341 0.152962,-0.10646 z"
         id="path993"
         inkscape:connector-curvature="0" />
      <path
         d="m 56.714259,243.12171 -0.143661,0.63148 h 0.288355 z m -0.186036,-0.27906 h 0.373104 l 0.416512,1.54306 h -0.304891 l -0.09508,-0.38137 H 56.50962 l -0.09302,0.38137 h -0.304891 z"
         id="path995"
         inkscape:connector-curvature="0" />
      <path
         d="m 57.583456,244.38571 v -1.54306 h 0.304891 v 1.27434 h 0.652157 v 0.26872 z"
         id="path997"
         inkscape:connector-curvature="0" />
      <path
         d="m 59.759034,244.38571 h -0.961182 v -1.54306 h 0.961182 v 0.26872 h -0.656291 v 0.3328 h 0.594279 v 0.26871 h -0.594279 v 0.40411 h 0.656291 z"
         id="path999"
         inkscape:connector-curvature="0" />
    </g>
    <g
       aria-label="RANGE"
       style="font-style:normal;font-variant:normal;font-weight:bold;font-stretch:normal;font-size:2.11667px;line-height:1.25;font-family:monospace;-inkscape-font-specification:'monospace, Bold';font-variant-ligatures:normal;font-variant-caps:normal;font-variant-numeric:normal;font-feature-settings:normal;text-align:start;letter-spacing:0px;word-spacing:0px;writing-mode:lr-tb;text-anchor:start;fill:#1996fc;fill-opacity:1;stroke:none;stroke-width:0.264583"
       id="text928"
       transform="translate(13.819781,-1.0582933)">
      <path
         d="m 63.89005,243.65707 q 0.04547,0.009 0.07855,0.0434 0.03411,0.0331 0.08268,0.13023 l 0.279053,0.555 H 63.99547 l -0.186036,-0.38964 q -0.0083,-0.0165 -0.0217,-0.0455 -0.08165,-0.17467 -0.192236,-0.17467 h -0.09715 v 0.60978 h -0.304891 v -1.54306 h 0.440284 q 0.297656,0 0.426847,0.10542 0.130225,0.10542 0.130225,0.34313 0,0.15917 -0.07752,0.25322 -0.07752,0.0941 -0.223242,0.11265 z m -0.391708,-0.5581 v 0.42064 h 0.143661 q 0.125057,0 0.1788,-0.0486 0.05478,-0.0496 0.05478,-0.16227 0,-0.11265 -0.05374,-0.16123 -0.05374,-0.0486 -0.179834,-0.0486 z"
         id="path980"
         inkscape:connector-curvature="0" />
      <path
         d="m 64.965953,243.12171 -0.143661,0.63148 h 0.288355 z m -0.186035,-0.27906 h 0.373104 l 0.416512,1.54306 h -0.304891 l -0.09509,-0.38137 h -0.408244 l -0.09302,0.38137 h -0.304891 z"
         id="path982"
         inkscape:connector-curvature="0" />
      <path
         d="m 65.725596,242.84265 h 0.327629 l 0.429948,1.12138 v -1.12138 h 0.268717 v 1.54306 h -0.325561 l -0.432015,-1.12138 v 1.12138 h -0.268718 z"
         id="path984"
         inkscape:connector-curvature="0" />
      <path
         d="m 67.777151,244.10666 v -0.29456 h -0.208773 v -0.25631 h 0.475423 v 0.70693 q -0.08785,0.0754 -0.194303,0.11472 -0.10542,0.0382 -0.226343,0.0382 -0.299723,0 -0.463021,-0.20774 -0.163298,-0.20877 -0.163298,-0.59221 0,-0.38964 0.164332,-0.59531 0.165364,-0.20567 0.476456,-0.20567 0.09302,0 0.182935,0.0269 0.08992,0.0258 0.168465,0.0754 v 0.33796 q -0.06408,-0.0827 -0.147795,-0.12402 -0.08268,-0.0424 -0.181901,-0.0424 -0.173633,0 -0.259415,0.13126 -0.08578,0.13023 -0.08578,0.39584 0,0.25735 0.08268,0.39171 0.08268,0.13436 0.240812,0.13436 0.04754,0 0.08268,-0.008 0.03514,-0.009 0.05685,-0.0269 z"
         id="path986"
         inkscape:connector-curvature="0" />
      <path
         d="m 69.284035,244.38571 h -0.961181 v -1.54306 h 0.961181 v 0.26872 h -0.65629 v 0.3328 h 0.594279 v 0.26871 h -0.594279 v 0.40411 h 0.65629 z"
         id="path988"
         inkscape:connector-curvature="0" />
    </g>
    <g
       aria-label="OCTAVE"
       style="font-style:normal;font-variant:normal;font-weight:bold;font-stretch:normal;font-size:2.11667px;line-height:1.25;font-family:monospace;-inkscape-font-specification:'monospace, Bold';font-variant-ligatures:normal;font-variant-caps:normal;font-variant-numeric:normal;font-feature-settings:normal;text-align:start;letter-spacing:0px;word-spacing:0px;writing-mode:lr-tb;text-anchor:start;fill:#1996fc;fill-opacity:1;stroke:none;stroke-width:0.264583"
       id="text2362">
      <path
         d="m 55.927608,242.12289 q -0.116789,0 -0.170532,0.12506 -0.05374,0.12402 -0.05374,0.40204 0,0.27698 0.05374,0.40204 0.05374,0.12402 0.170532,0.12402 0.117822,0 0.171566,-0.12402 0.05374,-0.12506 0.05374,-0.40204 0,-0.27802 -0.05374,-0.40204 -0.05374,-0.12506 -0.171566,-0.12506 z m -0.541569,0.5271 q 0,-0.39584 0.136426,-0.59841 0.137459,-0.20258 0.405143,-0.20258 0.268718,0 0.405143,0.20258 0.13746,0.20257 0.13746,0.59841 0,0.39481 -0.13746,0.59738 -0.136425,0.20257 -0.405143,0.20257 -0.267684,0 -0.405143,-0.20257 -0.136426,-0.20257 -0.136426,-0.59738 z"
         style="font-style:normal;font-variant:normal;font-weight:bold;font-stretch:normal;font-size:2.11667px;font-family:monospace;-inkscape-font-specification:'monospace, Bold';font-variant-ligatures:normal;font-variant-caps:normal;font-variant-numeric:normal;font-feature-settings:normal;text-align:start;writing-mode:lr-tb;text-anchor:start;fill:#1996fc;fill-opacity:1;stroke-width:0.264583"
         id="path2494" />
      <path
         d="m 57.681506,243.37553 q -0.07235,0.0372 -0.151929,0.0558 -0.07958,0.0186 -0.167431,0.0186 -0.312126,0 -0.476457,-0.20567 -0.164331,-0.20567 -0.164331,-0.59428 0,-0.38964 0.164331,-0.59531 0.164331,-0.20568 0.476457,-0.20568 0.08785,0 0.168465,0.0186 0.08062,0.0186 0.150895,0.0558 v 0.339 q -0.07855,-0.0724 -0.152962,-0.10542 -0.07338,-0.0341 -0.151929,-0.0341 -0.167431,0 -0.253214,0.13332 -0.08475,0.1323 -0.08475,0.39378 0,0.26045 0.08475,0.39377 0.08578,0.13229 0.253214,0.13229 0.07855,0 0.151929,-0.0331 0.07441,-0.0341 0.152962,-0.10645 z"
         style="font-style:normal;font-variant:normal;font-weight:bold;font-stretch:normal;font-size:2.11667px;font-family:monospace;-inkscape-font-specification:'monospace, Bold';font-variant-ligatures:normal;font-variant-caps:normal;font-variant-numeric:normal;font-feature-settings:normal;text-align:start;writing-mode:lr-tb;text-anchor:start;fill:#1996fc;fill-opacity:1;stroke-width:0.264583"
         id="path2496" />
      <path
         d="m 58.627185,243.41997 h -0.304891 v -1.27641 h -0.391707 v -0.26665 h 1.088305 v 0.26665 h -0.391707 z"
         style="font-style:normal;font-variant:normal;font-weight:bold;font-stretch:normal;font-size:2.11667px;font-family:monospace;-inkscape-font-specification:'monospace, Bold';font-variant-ligatures:normal;font-variant-caps:normal;font-variant-numeric:normal;font-feature-settings:normal;text-align:start;writing-mode:lr-tb;text-anchor:start;fill:#1996fc;fill-opacity:1;stroke-width:0.264583"
         id="path2498" />
      <path
         d="m 59.74753,242.15596 -0.143661,0.63149 h 0.288355 z m -0.186035,-0.27905 h 0.373103 l 0.416512,1.54306 h -0.304891 l -0.09508,-0.38137 h -0.408244 l -0.09302,0.38137 h -0.30489 z"
         style="font-style:normal;font-variant:normal;font-weight:bold;font-stretch:normal;font-size:2.11667px;font-family:monospace;-inkscape-font-specification:'monospace, Bold';font-variant-ligatures:normal;font-variant-caps:normal;font-variant-numeric:normal;font-feature-settings:normal;text-align:start;writing-mode:lr-tb;text-anchor:start;fill:#1996fc;fill-opacity:1;stroke-width:0.264583"
         id="path2500" />
      <path
         d="m 61.020837,243.16572 0.271818,-1.28881 h 0.306958 l -0.366903,1.54306 h -0.422713 l -0.366902,-1.54306 h 0.306958 z"
         style="font-style:normal;font-variant:normal;font-weight:bold;font-stretch:normal;font-size:2.11667px;font-family:monospace;-inkscape-font-specification:'monospace, Bold';font-variant-ligatures:normal;font-variant-caps:normal;font-variant-numeric:normal;font-feature-settings:normal;text-align:start;writing-mode:lr-tb;text-anchor:start;fill:#1996fc;fill-opacity:1;stroke-width:0.264583"
         id="path2502" />
      <path
         d="m 62.792305,243.41997 h -0.961181 v -1.54306 h 0.961181 v 0.26872 h -0.656291 v 0.33279 h 0.594279 v 0.26872 h -0.594279 v 0.40411 h 0.656291 z"
         style="font-style:normal;font-variant:normal;font-weight:bold;font-stretch:normal;font-size:2.11667px;font-family:monospace;-inkscape-font-specification:'monospace, Bold';font-variant-ligatures:normal;font-variant-caps:normal;font-variant-numeric:normal;font-feature-settings:normal;text-align:start;writing-mode:lr-tb;text-anchor:start;fill:#1996fc;fill-opacity:1;stroke-width:0.264583"
         id="path2504" />
    </g>
    <g
       aria-label="RANDOM"
       style="font-style:normal;font-variant:normal;font-weight:bold;font-stretch:normal;font-size:2.11667px;line-height:1.25;font-family:monospace;-inkscape-font-specification:'monospace, Bold';font-variant-ligatures:normal;font-variant-caps:normal;font-variant-numeric:normal;font-feature-settings:normal;text-align:start;letter-spacing:0px;word-spacing:0px;writing-mode:lr-tb;text-anchor:start;fill:#1996fc;fill-opacity:1;stroke:none;stroke-width:0.264583"
       id="text8551">
      <path
         d="m 92.388097,242.59874 q 0.04547,0.009 0.07855,0.0434 0.03411,0.0331 0.08268,0.13022 l 0.279053,0.55501 h -0.334864 l -0.186035,-0.38964 q -0.0083,-0.0165 -0.0217,-0.0455 -0.08165,-0.17466 -0.192236,-0.17466 h -0.09715 v 0.60978 h -0.304891 v -1.54306 h 0.440283 q 0.297657,0 0.426848,0.10542 0.130224,0.10542 0.130224,0.34313 0,0.15916 -0.07751,0.25322 -0.07752,0.0941 -0.223242,0.11265 z m -0.391708,-0.55811 v 0.42065 h 0.143661 q 0.125057,0 0.1788,-0.0486 0.05478,-0.0496 0.05478,-0.16226 0,-0.11265 -0.05374,-0.16123 -0.05374,-0.0486 -0.179834,-0.0486 z"
         style="font-style:normal;font-variant:normal;font-weight:bold;font-stretch:normal;font-size:2.11667px;font-family:monospace;-inkscape-font-specification:'monospace, Bold';font-variant-ligatures:normal;font-variant-caps:normal;font-variant-numeric:normal;font-feature-settings:normal;text-align:start;writing-mode:lr-tb;text-anchor:start;fill:#1996fc;fill-opacity:1;stroke-width:0.264583"
         id="path8592" />
      <path
         d="m 93.464,242.06337 -0.143661,0.63149 h 0.288355 z m -0.186035,-0.27905 h 0.373103 l 0.416513,1.54306 H 93.76269 l -0.09509,-0.38137 h -0.408244 l -0.09302,0.38137 h -0.304891 z"
         style="font-style:normal;font-variant:normal;font-weight:bold;font-stretch:normal;font-size:2.11667px;font-family:monospace;-inkscape-font-specification:'monospace, Bold';font-variant-ligatures:normal;font-variant-caps:normal;font-variant-numeric:normal;font-feature-settings:normal;text-align:start;writing-mode:lr-tb;text-anchor:start;fill:#1996fc;fill-opacity:1;stroke-width:0.264583"
         id="path8594" />
      <path
         d="m 94.223643,241.78432 h 0.327629 l 0.429948,1.12138 v -1.12138 h 0.268717 v 1.54306 H 94.924376 L 94.492361,242.206 v 1.12138 h -0.268718 z"
         style="font-style:normal;font-variant:normal;font-weight:bold;font-stretch:normal;font-size:2.11667px;font-family:monospace;-inkscape-font-specification:'monospace, Bold';font-variant-ligatures:normal;font-variant-caps:normal;font-variant-numeric:normal;font-feature-settings:normal;text-align:start;writing-mode:lr-tb;text-anchor:start;fill:#1996fc;fill-opacity:1;stroke-width:0.264583"
         id="path8596" />
      <path
         d="m 95.820445,242.05924 v 0.99322 h 0.08268 q 0.179834,0 0.256315,-0.11266 0.07648,-0.11368 0.07648,-0.3855 0,-0.26975 -0.07648,-0.38241 -0.07648,-0.11265 -0.256315,-0.11265 z m -0.304891,-0.27492 h 0.326595 q 0.378271,0 0.54467,0.18087 0.166398,0.17983 0.166398,0.58911 0,0.41031 -0.166398,0.59221 -0.166399,0.18087 -0.54467,0.18087 h -0.326595 z"
         style="font-style:normal;font-variant:normal;font-weight:bold;font-stretch:normal;font-size:2.11667px;font-family:monospace;-inkscape-font-specification:'monospace, Bold';font-variant-ligatures:normal;font-variant-caps:normal;font-variant-numeric:normal;font-feature-settings:normal;text-align:start;writing-mode:lr-tb;text-anchor:start;fill:#1996fc;fill-opacity:1;stroke-width:0.264583"
         id="path8598" />
      <path
         d="m 97.283921,242.0303 q -0.116788,0 -0.170532,0.12506 -0.05374,0.12402 -0.05374,0.40204 0,0.27698 0.05374,0.40204 0.05374,0.12402 0.170532,0.12402 0.117823,0 0.171566,-0.12402 0.05374,-0.12506 0.05374,-0.40204 0,-0.27802 -0.05374,-0.40204 -0.05374,-0.12506 -0.171566,-0.12506 z m -0.541569,0.5271 q 0,-0.39584 0.136426,-0.59841 0.13746,-0.20258 0.405143,-0.20258 0.268718,0 0.405144,0.20258 0.137459,0.20257 0.137459,0.59841 0,0.39481 -0.137459,0.59738 -0.136426,0.20257 -0.405144,0.20257 -0.267683,0 -0.405143,-0.20257 -0.136426,-0.20257 -0.136426,-0.59738 z"
         style="font-style:normal;font-variant:normal;font-weight:bold;font-stretch:normal;font-size:2.11667px;font-family:monospace;-inkscape-font-specification:'monospace, Bold';font-variant-ligatures:normal;font-variant-caps:normal;font-variant-numeric:normal;font-feature-settings:normal;text-align:start;writing-mode:lr-tb;text-anchor:start;fill:#1996fc;fill-opacity:1;stroke-width:0.264583"
         id="path8600" />
      <path
         d="m 98.009459,241.78432 h 0.363802 l 0.183968,0.67696 0.182934,-0.67696 h 0.365869 v 1.54306 h -0.262516 v -1.2361 l -0.163297,0.67489 h -0.24288 l -0.165364,-0.67489 v 1.2361 h -0.262516 z"
         style="font-style:normal;font-variant:normal;font-weight:bold;font-stretch:normal;font-size:2.11667px;font-family:monospace;-inkscape-font-specification:'monospace, Bold';font-variant-ligatures:normal;font-variant-caps:normal;font-variant-numeric:normal;font-feature-settings:normal;text-align:start;writing-mode:lr-tb;text-anchor:start;fill:#1996fc;fill-opacity:1;stroke-width:0.264583"
         id="path8602" />
    </g>
    <g
       aria-label="PROB"
       style="font-style:normal;font-variant:normal;font-weight:bold;font-stretch:normal;font-size:2.11667px;line-height:1.25;font-family:monospace;-inkscape-font-specification:'monospace, Bold';font-variant-ligatures:normal;font-variant-caps:normal;font-variant-numeric:normal;font-feature-settings:normal;text-align:start;letter-spacing:0px;word-spacing:0px;writing-mode:lr-tb;text-anchor:start;fill:#1996fc;fill-opacity:1;stroke:none;stroke-width:0.264583"
       id="text8555"
       transform="translate(-6.3020252)">
      <path
         d="m 99.825411,244.28474 v 0.45269 h 0.125057 q 0.149862,0 0.209802,-0.0506 0.061,-0.0506 0.061,-0.1757 0,-0.12506 -0.061,-0.1757 -0.0599,-0.0506 -0.209802,-0.0506 z m -0.304891,-0.25631 h 0.418579 q 0.319361,0 0.458891,0.11369 0.14056,0.11369 0.14056,0.36897 0,0.25528 -0.14056,0.36897 -0.13953,0.11368 -0.458891,0.11368 h -0.113688 v 0.57775 H 99.52052 Z"
         style="font-style:normal;font-variant:normal;font-weight:bold;font-stretch:normal;font-size:2.11667px;font-family:monospace;-inkscape-font-specification:'monospace, Bold';font-variant-ligatures:normal;font-variant-caps:normal;font-variant-numeric:normal;font-feature-settings:normal;text-align:start;writing-mode:lr-tb;text-anchor:start;fill:#1996fc;fill-opacity:1;stroke-width:0.264583"
         id="path8583"
         inkscape:connector-curvature="0" />
      <path
         d="m 101.46045,244.84285 q 0.0455,0.009 0.0786,0.0434 0.0341,0.0331 0.0827,0.13022 l 0.27906,0.55501 h -0.33487 l -0.18603,-0.38964 q -0.008,-0.0165 -0.0217,-0.0455 -0.0816,-0.17466 -0.19223,-0.17466 h -0.0971 v 0.60978 h -0.3049 v -1.54306 h 0.44029 q 0.29765,0 0.42685,0.10542 0.13022,0.10542 0.13022,0.34313 0,0.15916 -0.0775,0.25322 -0.0775,0.0941 -0.22325,0.11265 z m -0.3917,-0.55811 v 0.42065 h 0.14366 q 0.12505,0 0.1788,-0.0486 0.0548,-0.0496 0.0548,-0.16226 0,-0.11265 -0.0537,-0.16123 -0.0537,-0.0486 -0.17983,-0.0486 z"
         style="font-style:normal;font-variant:normal;font-weight:bold;font-stretch:normal;font-size:2.11667px;font-family:monospace;-inkscape-font-specification:'monospace, Bold';font-variant-ligatures:normal;font-variant-caps:normal;font-variant-numeric:normal;font-feature-settings:normal;text-align:start;writing-mode:lr-tb;text-anchor:start;fill:#1996fc;fill-opacity:1;stroke-width:0.264583"
         id="path8585"
         inkscape:connector-curvature="0" />
      <path
         d="m 102.53636,244.27441 q -0.11679,0 -0.17054,0.12506 -0.0537,0.12402 -0.0537,0.40204 0,0.27698 0.0537,0.40204 0.0537,0.12402 0.17054,0.12402 0.11782,0 0.17156,-0.12402 0.0537,-0.12506 0.0537,-0.40204 0,-0.27802 -0.0537,-0.40204 -0.0537,-0.12506 -0.17156,-0.12506 z m -0.54157,0.5271 q 0,-0.39584 0.13642,-0.59841 0.13746,-0.20258 0.40515,-0.20258 0.26871,0 0.40514,0.20258 0.13746,0.20257 0.13746,0.59841 0,0.39481 -0.13746,0.59738 -0.13643,0.20257 -0.40514,0.20257 -0.26769,0 -0.40515,-0.20257 -0.13642,-0.20257 -0.13642,-0.59738 z"
         style="font-style:normal;font-variant:normal;font-weight:bold;font-stretch:normal;font-size:2.11667px;font-family:monospace;-inkscape-font-specification:'monospace, Bold';font-variant-ligatures:normal;font-variant-caps:normal;font-variant-numeric:normal;font-feature-settings:normal;text-align:start;writing-mode:lr-tb;text-anchor:start;fill:#1996fc;fill-opacity:1;stroke-width:0.264583"
         id="path8587"
         inkscape:connector-curvature="0" />
      <path
         d="m 103.59676,244.87076 v 0.45681 h 0.20257 q 0.14573,0 0.2036,-0.0496 0.0589,-0.0496 0.0589,-0.1726 0,-0.12506 -0.061,-0.17984 -0.061,-0.0548 -0.20154,-0.0548 z m 0,-0.60152 v 0.35864 h 0.20257 q 0.11575,0 0.16433,-0.0413 0.0496,-0.0413 0.0496,-0.13642 0,-0.0951 -0.0506,-0.13746 -0.0496,-0.0434 -0.1633,-0.0434 z m -0.29456,-0.24288 h 0.49713 q 0.25735,0 0.38654,0.0982 0.13022,0.0971 0.13022,0.29145 0,0.14883 -0.0765,0.23255 -0.0765,0.0837 -0.22427,0.0971 0.17673,0.0176 0.26561,0.11885 0.0899,0.10129 0.0899,0.28319 0,0.22324 -0.13436,0.3235 -0.13436,0.10025 -0.43718,0.10025 h -0.49713 z"
         style="font-style:normal;font-variant:normal;font-weight:bold;font-stretch:normal;font-size:2.11667px;font-family:monospace;-inkscape-font-specification:'monospace, Bold';font-variant-ligatures:normal;font-variant-caps:normal;font-variant-numeric:normal;font-feature-settings:normal;text-align:start;writing-mode:lr-tb;text-anchor:start;fill:#1996fc;fill-opacity:1;stroke-width:0.264583"
         id="path8589"
         inkscape:connector-curvature="0" />
    </g>
    <g
       aria-label="NOTE"
       style="font-style:normal;font-variant:normal;font-weight:bold;font-stretch:normal;font-size:2.11667px;line-height:1.25;font-family:monospace;-inkscape-font-specification:'monospace, Bold';font-variant-ligatures:normal;font-variant-caps:normal;font-variant-numeric:normal;font-feature-settings:normal;text-align:start;letter-spacing:0px;word-spacing:0px;writing-mode:lr-tb;text-anchor:start;fill:#1996fc;fill-opacity:1;stroke:none;stroke-width:0.264583"
       id="text8559"
       transform="translate(6.3499996)">
      <path
         d="m 93.218495,244.02843 h 0.327628 l 0.429948,1.12138 v -1.12138 h 0.268718 v 1.54306 h -0.325562 l -0.432015,-1.12138 v 1.12138 h -0.268717 z"
         style="font-style:normal;font-variant:normal;font-weight:bold;font-stretch:normal;font-size:2.11667px;font-family:monospace;-inkscape-font-specification:'monospace, Bold';font-variant-ligatures:normal;font-variant-caps:normal;font-variant-numeric:normal;font-feature-settings:normal;text-align:start;writing-mode:lr-tb;text-anchor:start;fill:#1996fc;fill-opacity:1;stroke-width:0.264583"
         id="path8574"
         inkscape:connector-curvature="0" />
      <path
         d="m 95.005466,244.27441 q -0.116789,0 -0.170533,0.12506 -0.05374,0.12402 -0.05374,0.40204 0,0.27698 0.05374,0.40204 0.05374,0.12402 0.170533,0.12402 0.117822,0 0.171565,-0.12402 0.05374,-0.12506 0.05374,-0.40204 0,-0.27802 -0.05374,-0.40204 -0.05374,-0.12506 -0.171565,-0.12506 z m -0.541569,0.5271 q 0,-0.39584 0.136425,-0.59841 0.13746,-0.20258 0.405144,-0.20258 0.268717,0 0.405143,0.20258 0.137459,0.20257 0.137459,0.59841 0,0.39481 -0.137459,0.59738 -0.136426,0.20257 -0.405143,0.20257 -0.267684,0 -0.405144,-0.20257 -0.136425,-0.20257 -0.136425,-0.59738 z"
         style="font-style:normal;font-variant:normal;font-weight:bold;font-stretch:normal;font-size:2.11667px;font-family:monospace;-inkscape-font-specification:'monospace, Bold';font-variant-ligatures:normal;font-variant-caps:normal;font-variant-numeric:normal;font-feature-settings:normal;text-align:start;writing-mode:lr-tb;text-anchor:start;fill:#1996fc;fill-opacity:1;stroke-width:0.264583"
         id="path8576"
         inkscape:connector-curvature="0" />
      <path
         d="m 96.431735,245.57149 h -0.304891 v -1.27641 h -0.391707 v -0.26665 h 1.088305 v 0.26665 h -0.391707 z"
         style="font-style:normal;font-variant:normal;font-weight:bold;font-stretch:normal;font-size:2.11667px;font-family:monospace;-inkscape-font-specification:'monospace, Bold';font-variant-ligatures:normal;font-variant-caps:normal;font-variant-numeric:normal;font-feature-settings:normal;text-align:start;writing-mode:lr-tb;text-anchor:start;fill:#1996fc;fill-opacity:1;stroke-width:0.264583"
         id="path8578"
         inkscape:connector-curvature="0" />
      <path
         d="m 98.050241,245.57149 h -0.961182 v -1.54306 h 0.961182 v 0.26872 H 97.39395 v 0.33279 h 0.594279 v 0.26872 H 97.39395 v 0.40411 h 0.656291 z"
         style="font-style:normal;font-variant:normal;font-weight:bold;font-stretch:normal;font-size:2.11667px;font-family:monospace;-inkscape-font-specification:'monospace, Bold';font-variant-ligatures:normal;font-variant-caps:normal;font-variant-numeric:normal;font-feature-settings:normal;text-align:start;writing-mode:lr-tb;text-anchor:start;fill:#1996fc;fill-opacity:1;stroke-width:0.264583"
         id="path8580"
         inkscape:connector-curvature="0" />
    </g>
    <g
       aria-label="GATE"
       style="font-style:normal;font-variant:normal;font-weight:bold;font-stretch:normal;font-size:2.11667px;line-height:1.25;font-family:monospace;-inkscape-font-specification:'monospace, Bold';font-variant-ligatures:normal;font-variant-caps:normal;font-variant-numeric:normal;font-feature-settings:normal;text-align:start;letter-spacing:0px;word-spacing:0px;writing-mode:lr-tb;text-anchor:start;fill:#1996fc;fill-opacity:1;stroke:none;stroke-width:0.264583"
       id="text8563">
      <path
         d="m 87.438751,245.29243 v -0.29455 h -0.208773 v -0.25632 h 0.475423 v 0.70694 q -0.08785,0.0755 -0.194303,0.11472 -0.10542,0.0382 -0.226343,0.0382 -0.299723,0 -0.463021,-0.20774 -0.163297,-0.20877 -0.163297,-0.59221 0,-0.38964 0.164331,-0.59531 0.165364,-0.20568 0.476456,-0.20568 0.09302,0 0.182935,0.0269 0.08992,0.0258 0.168465,0.0754 v 0.33797 q -0.06408,-0.0827 -0.147795,-0.12403 -0.08268,-0.0424 -0.181901,-0.0424 -0.173632,0 -0.259415,0.13126 -0.08578,0.13022 -0.08578,0.39584 0,0.25735 0.08268,0.39171 0.08268,0.13435 0.240812,0.13435 0.04754,0 0.08268,-0.008 0.03514,-0.009 0.05684,-0.0269 z"
         style="font-style:normal;font-variant:normal;font-weight:bold;font-stretch:normal;font-size:2.11667px;font-family:monospace;-inkscape-font-specification:'monospace, Bold';font-variant-ligatures:normal;font-variant-caps:normal;font-variant-numeric:normal;font-feature-settings:normal;text-align:start;writing-mode:lr-tb;text-anchor:start;fill:#1996fc;fill-opacity:1;stroke-width:0.264583"
         id="path8565" />
      <path
         d="m 88.447475,244.30748 -0.143661,0.63149 h 0.288355 z m -0.186036,-0.27905 h 0.373104 l 0.416512,1.54306 h -0.304891 l -0.09508,-0.38137 H 88.24284 l -0.09302,0.38137 h -0.304891 z"
         style="font-style:normal;font-variant:normal;font-weight:bold;font-stretch:normal;font-size:2.11667px;font-family:monospace;-inkscape-font-specification:'monospace, Bold';font-variant-ligatures:normal;font-variant-caps:normal;font-variant-numeric:normal;font-feature-settings:normal;text-align:start;writing-mode:lr-tb;text-anchor:start;fill:#1996fc;fill-opacity:1;stroke-width:0.264583"
         id="path8567" />
      <path
         d="m 89.873744,245.57149 h -0.304891 v -1.27641 h -0.391707 v -0.26665 h 1.088305 v 0.26665 h -0.391707 z"
         style="font-style:normal;font-variant:normal;font-weight:bold;font-stretch:normal;font-size:2.11667px;font-family:monospace;-inkscape-font-specification:'monospace, Bold';font-variant-ligatures:normal;font-variant-caps:normal;font-variant-numeric:normal;font-feature-settings:normal;text-align:start;writing-mode:lr-tb;text-anchor:start;fill:#1996fc;fill-opacity:1;stroke-width:0.264583"
         id="path8569" />
      <path
         d="m 91.49225,245.57149 h -0.961182 v -1.54306 h 0.961182 v 0.26872 h -0.656291 v 0.33279 h 0.594279 v 0.26872 h -0.594279 v 0.40411 h 0.656291 z"
         style="font-style:normal;font-variant:normal;font-weight:bold;font-stretch:normal;font-size:2.11667px;font-family:monospace;-inkscape-font-specification:'monospace, Bold';font-variant-ligatures:normal;font-variant-caps:normal;font-variant-numeric:normal;font-feature-settings:normal;text-align:start;writing-mode:lr-tb;text-anchor:start;fill:#1996fc;fill-opacity:1;stroke-width:0.264583"
         id="path8571" />
    </g>
    <g
       aria-label="CLOCK"
       id="text481"
       style="font-style:normal;font-variant:normal;font-weight:bold;font-stretch:normal;font-size:2.82222px;line-height:1.25;font-family:sans-serif;-inkscape-font-specification:'sans-serif, Bold';font-variant-ligatures:normal;font-variant-caps:normal;font-variant-numeric:normal;font-variant-east-asian:normal;fill:#1996fc;fill-opacity:1;stroke:none;stroke-width:0.264583"
       transform="translate(10.669497,-5.0138312)">
      <path
         d="m 34.761638,177.09625 q -0.228755,0 -0.423058,-0.0675 -0.192925,-0.0675 -0.332107,-0.20119 -0.139182,-0.13367 -0.216352,-0.33349 -0.07579,-0.19981 -0.07579,-0.46164 0,-0.24391 0.07304,-0.44235 0.07304,-0.19844 0.212218,-0.34038 0.13367,-0.13642 0.330729,-0.21084 0.198437,-0.0744 0.432704,-0.0744 0.129535,0 0.232888,0.0152 0.104731,0.0138 0.192925,0.0372 0.09233,0.0262 0.166743,0.0593 0.07579,0.0317 0.132291,0.0593 v 0.49747 h -0.06063 q -0.03859,-0.0331 -0.09784,-0.0786 -0.05788,-0.0455 -0.132292,-0.0896 -0.07579,-0.0441 -0.163986,-0.0744 -0.08819,-0.0303 -0.188791,-0.0303 -0.111621,0 -0.212218,0.0358 -0.100597,0.0345 -0.186035,0.11576 -0.0813,0.0786 -0.132292,0.20808 -0.04961,0.12954 -0.04961,0.3142 0,0.19292 0.05374,0.32246 0.05512,0.12953 0.137803,0.20395 0.08406,0.0758 0.187413,0.10886 0.103353,0.0317 0.20395,0.0317 0.09646,0 0.190169,-0.0289 0.09509,-0.0289 0.175011,-0.0786 0.06752,-0.04 0.125401,-0.0854 0.05788,-0.0455 0.09508,-0.0786 h 0.05512 v 0.49058 q -0.07717,0.0344 -0.14745,0.0648 -0.07028,0.0303 -0.14745,0.0524 -0.100597,0.0289 -0.188791,0.0441 -0.08819,0.0152 -0.242534,0.0152 z"
         style="font-style:normal;font-variant:normal;font-weight:bold;font-stretch:normal;font-size:2.82222px;font-family:sans-serif;-inkscape-font-specification:'sans-serif, Bold';font-variant-ligatures:normal;font-variant-caps:normal;font-variant-numeric:normal;font-variant-east-asian:normal;fill:#1996fc;fill-opacity:1;stroke-width:0.264583"
         id="path522" />
      <path
         d="m 37.359238,177.05629 h -1.480012 v -2.0519 h 0.529166 v 1.65502 h 0.950846 z"
         style="font-style:normal;font-variant:normal;font-weight:bold;font-stretch:normal;font-size:2.82222px;font-family:sans-serif;-inkscape-font-specification:'sans-serif, Bold';font-variant-ligatures:normal;font-variant-caps:normal;font-variant-numeric:normal;font-variant-east-asian:normal;fill:#1996fc;fill-opacity:1;stroke-width:0.264583"
         id="path524" />
      <path
         d="m 39.671584,176.03103 q 0,0.49058 -0.28112,0.77997 -0.281119,0.28801 -0.777213,0.28801 -0.494715,0 -0.775835,-0.28801 -0.281119,-0.28939 -0.281119,-0.77997 0,-0.49472 0.281119,-0.78135 0.28112,-0.28801 0.775835,-0.28801 0.493338,0 0.775835,0.28801 0.282498,0.28663 0.282498,0.78135 z m -0.701421,0.51952 q 0.07717,-0.0937 0.114377,-0.22049 0.03721,-0.12815 0.03721,-0.30041 0,-0.18465 -0.04272,-0.31419 -0.04272,-0.12954 -0.111621,-0.20946 -0.07028,-0.0827 -0.162608,-0.11989 -0.09095,-0.0372 -0.19017,-0.0372 -0.100596,0 -0.190169,0.0358 -0.08819,0.0358 -0.162608,0.11851 -0.0689,0.0772 -0.112999,0.2136 -0.04272,0.13505 -0.04272,0.31419 0,0.18328 0.04134,0.31281 0.04272,0.12816 0.111621,0.20947 0.0689,0.0813 0.16123,0.11989 0.09233,0.0386 0.194303,0.0386 0.101975,0 0.194304,-0.0386 0.09233,-0.04 0.16123,-0.12265 z"
         style="font-style:normal;font-variant:normal;font-weight:bold;font-stretch:normal;font-size:2.82222px;font-family:sans-serif;-inkscape-font-specification:'sans-serif, Bold';font-variant-ligatures:normal;font-variant-caps:normal;font-variant-numeric:normal;font-variant-east-asian:normal;fill:#1996fc;fill-opacity:1;stroke-width:0.264583"
         id="path526" />
      <path
         d="m 41.00139,177.09625 q -0.228754,0 -0.423058,-0.0675 -0.192925,-0.0675 -0.332106,-0.20119 -0.139182,-0.13367 -0.216352,-0.33349 -0.07579,-0.19981 -0.07579,-0.46164 0,-0.24391 0.07304,-0.44235 0.07304,-0.19844 0.212217,-0.34038 0.13367,-0.13642 0.330729,-0.21084 0.198438,-0.0744 0.432704,-0.0744 0.129535,0 0.232888,0.0152 0.104731,0.0138 0.192925,0.0372 0.09233,0.0262 0.166743,0.0593 0.07579,0.0317 0.132291,0.0593 v 0.49747 h -0.06063 q -0.03858,-0.0331 -0.09784,-0.0786 -0.05788,-0.0455 -0.132291,-0.0896 -0.07579,-0.0441 -0.163987,-0.0744 -0.08819,-0.0303 -0.188791,-0.0303 -0.111621,0 -0.212218,0.0358 -0.100596,0.0345 -0.186035,0.11576 -0.0813,0.0786 -0.132291,0.20808 -0.04961,0.12954 -0.04961,0.3142 0,0.19292 0.05374,0.32246 0.05512,0.12953 0.137804,0.20395 0.08406,0.0758 0.187413,0.10886 0.103352,0.0317 0.203949,0.0317 0.09646,0 0.190169,-0.0289 0.09508,-0.0289 0.175011,-0.0786 0.06752,-0.04 0.125401,-0.0854 0.05788,-0.0455 0.09508,-0.0786 h 0.05512 v 0.49058 q -0.07717,0.0344 -0.14745,0.0648 -0.07028,0.0303 -0.14745,0.0524 -0.100596,0.0289 -0.188791,0.0441 -0.08819,0.0152 -0.242534,0.0152 z"
         style="font-style:normal;font-variant:normal;font-weight:bold;font-stretch:normal;font-size:2.82222px;font-family:sans-serif;-inkscape-font-specification:'sans-serif, Bold';font-variant-ligatures:normal;font-variant-caps:normal;font-variant-numeric:normal;font-variant-east-asian:normal;fill:#1996fc;fill-opacity:1;stroke-width:0.264583"
         id="path528" />
      <path
         d="m 44.03445,177.05629 h -0.649056 l -0.613226,-0.82131 -0.124024,0.15021 v 0.6711 h -0.529166 v -2.0519 h 0.529166 v 0.9288 l 0.733116,-0.9288 h 0.613227 l -0.802018,0.94947 z"
         style="font-style:normal;font-variant:normal;font-weight:bold;font-stretch:normal;font-size:2.82222px;font-family:sans-serif;-inkscape-font-specification:'sans-serif, Bold';font-variant-ligatures:normal;font-variant-caps:normal;font-variant-numeric:normal;font-variant-east-asian:normal;fill:#1996fc;fill-opacity:1;stroke-width:0.264583"
         id="path530" />
    </g>
    <g
       aria-label="RESET"
       id="text500"
       style="font-style:normal;font-variant:normal;font-weight:bold;font-stretch:normal;font-size:2.82222px;line-height:1.25;font-family:sans-serif;-inkscape-font-specification:'sans-serif, Bold';font-variant-ligatures:normal;font-variant-caps:normal;font-variant-numeric:normal;font-variant-east-asian:normal;fill:#1996fc;fill-opacity:1;stroke:none;stroke-width:0.264583"
       transform="translate(43.934269,-12.268231)">
      <path
         d="m 35.231671,182.88705 q 0,-0.0772 -0.03169,-0.13229 -0.03169,-0.0551 -0.108865,-0.0868 -0.05374,-0.022 -0.125402,-0.0262 -0.07166,-0.006 -0.166742,-0.006 h -0.191547 v 0.55259 h 0.162608 q 0.126779,0 0.212218,-0.0124 0.08544,-0.0124 0.143316,-0.0565 0.05512,-0.0427 0.07993,-0.0937 0.02618,-0.0524 0.02618,-0.13918 z m 0.825445,1.42351 h -0.6463 l -0.559483,-0.75241 h -0.243912 v 0.75241 H 34.08101 v -2.0519 h 0.887456 q 0.181901,0 0.312815,0.0207 0.130913,0.0207 0.24529,0.0896 0.115756,0.0689 0.183279,0.17914 0.0689,0.10887 0.0689,0.27423 0,0.22738 -0.106109,0.37069 -0.104731,0.14332 -0.300412,0.2384 z"
         style="font-style:normal;font-variant:normal;font-weight:bold;font-stretch:normal;font-size:2.82222px;font-family:sans-serif;-inkscape-font-specification:'sans-serif, Bold';font-variant-ligatures:normal;font-variant-caps:normal;font-variant-numeric:normal;font-variant-east-asian:normal;fill:#1996fc;fill-opacity:1;stroke-width:0.264583"
         id="path533" />
      <path
         d="m 37.775528,184.31056 h -1.484146 v -2.0519 h 1.484146 v 0.39688 h -0.957736 v 0.35416 h 0.888834 v 0.39687 h -0.888834 v 0.50712 h 0.957736 z"
         style="font-style:normal;font-variant:normal;font-weight:bold;font-stretch:normal;font-size:2.82222px;font-family:sans-serif;-inkscape-font-specification:'sans-serif, Bold';font-variant-ligatures:normal;font-variant-caps:normal;font-variant-numeric:normal;font-variant-east-asian:normal;fill:#1996fc;fill-opacity:1;stroke-width:0.264583"
         id="path535" />
      <path
         d="m 39.863254,183.66564 q 0,0.30317 -0.257693,0.49334 -0.256315,0.18879 -0.697286,0.18879 -0.254937,0 -0.445106,-0.0441 -0.188792,-0.0455 -0.354156,-0.11438 v -0.49195 h 0.05788 q 0.163986,0.13091 0.366557,0.20119 0.20395,0.0703 0.391363,0.0703 0.04823,0 0.126779,-0.008 0.07855,-0.008 0.128158,-0.0276 0.06063,-0.0248 0.09922,-0.062 0.03996,-0.0372 0.03996,-0.11024 0,-0.0675 -0.05788,-0.11576 -0.0565,-0.0496 -0.166742,-0.0758 -0.115756,-0.0276 -0.245291,-0.051 -0.128157,-0.0248 -0.241157,-0.062 -0.25907,-0.0841 -0.373448,-0.22738 -0.112999,-0.14469 -0.112999,-0.35829 0,-0.28663 0.256315,-0.46715 0.257693,-0.1819 0.661458,-0.1819 0.202572,0 0.399631,0.04 0.198437,0.0386 0.343131,0.0978 v 0.47267 h -0.0565 q -0.124024,-0.0992 -0.304547,-0.16537 -0.179144,-0.0675 -0.366557,-0.0675 -0.06615,0 -0.132292,0.01 -0.06477,0.008 -0.125401,0.0331 -0.05374,0.0207 -0.09233,0.0634 -0.03858,0.0413 -0.03858,0.0951 0,0.0813 0.06201,0.1254 0.06201,0.0427 0.234266,0.0785 0.112999,0.0234 0.216352,0.0455 0.104731,0.0221 0.22462,0.0606 0.235644,0.0772 0.347265,0.21084 0.112999,0.13229 0.112999,0.34451 z"
         style="font-style:normal;font-variant:normal;font-weight:bold;font-stretch:normal;font-size:2.82222px;font-family:sans-serif;-inkscape-font-specification:'sans-serif, Bold';font-variant-ligatures:normal;font-variant-caps:normal;font-variant-numeric:normal;font-variant-east-asian:normal;fill:#1996fc;fill-opacity:1;stroke-width:0.264583"
         id="path537" />
      <path
         d="m 41.711202,184.31056 h -1.484146 v -2.0519 h 1.484146 v 0.39688 h -0.957736 v 0.35416 H 41.6423 v 0.39687 h -0.888834 v 0.50712 h 0.957736 z"
         style="font-style:normal;font-variant:normal;font-weight:bold;font-stretch:normal;font-size:2.82222px;font-family:sans-serif;-inkscape-font-specification:'sans-serif, Bold';font-variant-ligatures:normal;font-variant-caps:normal;font-variant-numeric:normal;font-variant-east-asian:normal;fill:#1996fc;fill-opacity:1;stroke-width:0.264583"
         id="path539" />
      <path
         d="m 43.761721,182.65554 h -0.640787 v 1.65502 h -0.529166 v -1.65502 H 41.95098 v -0.39688 h 1.810741 z"
         style="font-style:normal;font-variant:normal;font-weight:bold;font-stretch:normal;font-size:2.82222px;font-family:sans-serif;-inkscape-font-specification:'sans-serif, Bold';font-variant-ligatures:normal;font-variant-caps:normal;font-variant-numeric:normal;font-variant-east-asian:normal;fill:#1996fc;fill-opacity:1;stroke-width:0.264583"
         id="path541" />
    </g>
    <g
       aria-label="GATE"
       id="text504"
       style="font-style:normal;font-variant:normal;font-weight:bold;font-stretch:normal;font-size:2.82222px;line-height:1.25;font-family:sans-serif;-inkscape-font-specification:'sans-serif, Bold';font-variant-ligatures:normal;font-variant-caps:normal;font-variant-numeric:normal;font-variant-east-asian:normal;fill:#1996fc;fill-opacity:1;stroke:none;stroke-width:0.264583"
       transform="translate(-125.92874,48.874432)">
      <path
         d="m 166.32638,177.35395 q -0.1378,0.0537 -0.36518,0.10749 -0.22737,0.0524 -0.45337,0.0524 -0.52366,0 -0.81993,-0.28387 -0.29628,-0.28526 -0.29628,-0.78686 0,-0.47818 0.29903,-0.77032 0.29904,-0.29353 0.83371,-0.29353 0.20258,0 0.38585,0.0372 0.18328,0.0358 0.4079,0.1447 v 0.48093 h -0.0592 q -0.0386,-0.0289 -0.113,-0.0813 -0.0744,-0.0537 -0.14332,-0.0909 -0.0799,-0.0441 -0.18741,-0.0758 -0.10611,-0.0317 -0.226,-0.0317 -0.14056,0 -0.25494,0.0413 -0.11437,0.0413 -0.20532,0.12678 -0.0868,0.0827 -0.13781,0.21084 -0.0496,0.12678 -0.0496,0.29352 0,0.34038 0.18053,0.5209 0.18052,0.18052 0.5333,0.18052 0.0303,0 0.0661,-10e-4 0.0372,-0.001 0.0675,-0.004 v -0.40239 h -0.40928 v -0.38723 h 0.94671 z"
         style="font-style:normal;font-variant:normal;font-weight:bold;font-stretch:normal;font-size:2.82222px;font-family:sans-serif;-inkscape-font-specification:'sans-serif, Bold';font-variant-ligatures:normal;font-variant-caps:normal;font-variant-numeric:normal;font-variant-east-asian:normal;fill:#1996fc;fill-opacity:1;stroke-width:0.264583"
         id="path544" />
      <path
         d="m 168.69523,177.47108 h -0.54708 l -0.14194,-0.41478 h -0.76068 l -0.14194,0.41478 h -0.5333 l 0.75792,-2.05189 h 0.6091 z m -0.81718,-0.79099 -0.25218,-0.73587 -0.25218,0.73587 z"
         style="font-style:normal;font-variant:normal;font-weight:bold;font-stretch:normal;font-size:2.82222px;font-family:sans-serif;-inkscape-font-specification:'sans-serif, Bold';font-variant-ligatures:normal;font-variant-caps:normal;font-variant-numeric:normal;font-variant-east-asian:normal;fill:#1996fc;fill-opacity:1;stroke-width:0.264583"
         id="path546" />
      <path
         d="m 170.5983,175.81606 h -0.64079 v 1.65502 h -0.52917 v -1.65502 h -0.64078 v -0.39687 h 1.81074 z"
         style="font-style:normal;font-variant:normal;font-weight:bold;font-stretch:normal;font-size:2.82222px;font-family:sans-serif;-inkscape-font-specification:'sans-serif, Bold';font-variant-ligatures:normal;font-variant-caps:normal;font-variant-numeric:normal;font-variant-east-asian:normal;fill:#1996fc;fill-opacity:1;stroke-width:0.264583"
         id="path548" />
      <path
         d="m 172.40077,177.47108 h -1.48415 v -2.05189 h 1.48415 v 0.39687 h -0.95774 v 0.35416 h 0.88884 v 0.39687 h -0.88884 v 0.50712 h 0.95774 z"
         style="font-style:normal;font-variant:normal;font-weight:bold;font-stretch:normal;font-size:2.82222px;font-family:sans-serif;-inkscape-font-specification:'sans-serif, Bold';font-variant-ligatures:normal;font-variant-caps:normal;font-variant-numeric:normal;font-variant-east-asian:normal;fill:#1996fc;fill-opacity:1;stroke-width:0.264583"
         id="path550" />
    </g>
    <g
       aria-label="EOC"
       id="text512"
       style="font-style:normal;font-variant:normal;font-weight:bold;font-stretch:normal;font-size:2.82222px;line-height:1.25;font-family:sans-serif;-inkscape-font-specification:'sans-serif, Bold';font-variant-ligatures:normal;font-variant-caps:normal;font-variant-numeric:normal;font-variant-east-asian:normal;fill:#1996fc;fill-opacity:1;stroke:none;stroke-width:0.264583"
       transform="translate(-100.45822,41.660532)">
      <path
         d="m 171.86861,184.6864 h -1.48415 v -2.0519 h 1.48415 v 0.39688 h -0.95774 v 0.35415 h 0.88884 v 0.39688 h -0.88884 v 0.50712 h 0.95774 z"
         style="font-style:normal;font-variant:normal;font-weight:bold;font-stretch:normal;font-size:2.82222px;font-family:sans-serif;-inkscape-font-specification:'sans-serif, Bold';font-variant-ligatures:normal;font-variant-caps:normal;font-variant-numeric:normal;font-variant-east-asian:normal;fill:#1996fc;fill-opacity:1;stroke-width:0.264583"
         id="path562" />
      <path
         d="m 174.30911,183.66114 q 0,0.49058 -0.28112,0.77997 -0.28112,0.28801 -0.77721,0.28801 -0.49472,0 -0.77584,-0.28801 -0.28112,-0.28939 -0.28112,-0.77997 0,-0.49471 0.28112,-0.78135 0.28112,-0.28801 0.77584,-0.28801 0.49334,0 0.77583,0.28801 0.2825,0.28664 0.2825,0.78135 z m -0.70142,0.51952 q 0.0772,-0.0937 0.11438,-0.22048 0.0372,-0.12816 0.0372,-0.30042 0,-0.18465 -0.0427,-0.31419 -0.0427,-0.12953 -0.11163,-0.20946 -0.0703,-0.0827 -0.1626,-0.11989 -0.0909,-0.0372 -0.19017,-0.0372 -0.1006,0 -0.19017,0.0358 -0.0882,0.0358 -0.16261,0.11851 -0.0689,0.0772 -0.113,0.2136 -0.0427,0.13505 -0.0427,0.31419 0,0.18328 0.0413,0.31282 0.0427,0.12815 0.11162,0.20946 0.0689,0.0813 0.16123,0.11989 0.0923,0.0386 0.19431,0.0386 0.10197,0 0.1943,-0.0386 0.0923,-0.04 0.16123,-0.12265 z"
         style="font-style:normal;font-variant:normal;font-weight:bold;font-stretch:normal;font-size:2.82222px;font-family:sans-serif;-inkscape-font-specification:'sans-serif, Bold';font-variant-ligatures:normal;font-variant-caps:normal;font-variant-numeric:normal;font-variant-east-asian:normal;fill:#1996fc;fill-opacity:1;stroke-width:0.264583"
         id="path564" />
      <path
         d="m 175.63892,184.72636 q -0.22876,0 -0.42306,-0.0675 -0.19292,-0.0675 -0.33211,-0.20119 -0.13918,-0.13367 -0.21635,-0.33349 -0.0758,-0.19981 -0.0758,-0.46164 0,-0.24391 0.073,-0.44235 0.073,-0.19844 0.21221,-0.34038 0.13367,-0.13642 0.33073,-0.21084 0.19844,-0.0744 0.43271,-0.0744 0.12953,0 0.23288,0.0152 0.10473,0.0138 0.19293,0.0372 0.0923,0.0262 0.16674,0.0593 0.0758,0.0317 0.13229,0.0593 v 0.49747 h -0.0606 q -0.0386,-0.0331 -0.0978,-0.0786 -0.0579,-0.0455 -0.13229,-0.0896 -0.0758,-0.0441 -0.16399,-0.0744 -0.0882,-0.0303 -0.18879,-0.0303 -0.11162,0 -0.21222,0.0358 -0.10059,0.0344 -0.18603,0.11575 -0.0813,0.0786 -0.13229,0.20809 -0.0496,0.12953 -0.0496,0.31419 0,0.19292 0.0537,0.32246 0.0551,0.12953 0.1378,0.20395 0.0841,0.0758 0.18742,0.10886 0.10335,0.0317 0.20395,0.0317 0.0965,0 0.19017,-0.0289 0.0951,-0.0289 0.17501,-0.0786 0.0675,-0.04 0.1254,-0.0854 0.0579,-0.0455 0.0951,-0.0785 h 0.0551 v 0.49059 q -0.0772,0.0344 -0.14745,0.0648 -0.0703,0.0303 -0.14745,0.0524 -0.10059,0.0289 -0.18879,0.0441 -0.0882,0.0152 -0.24253,0.0152 z"
         style="font-style:normal;font-variant:normal;font-weight:bold;font-stretch:normal;font-size:2.82222px;font-family:sans-serif;-inkscape-font-specification:'sans-serif, Bold';font-variant-ligatures:normal;font-variant-caps:normal;font-variant-numeric:normal;font-variant-east-asian:normal;fill:#1996fc;fill-opacity:1;stroke-width:0.264583"
         id="path566" />
    </g>
    <g
       aria-label="V/OCT"
       id="text571"
       style="font-style:normal;font-weight:normal;font-size:10.5833px;line-height:1.25;font-family:sans-serif;fill:#2a9cfa;fill-opacity:1;stroke:none;stroke-width:0.264583"
       transform="translate(-7.9374991,-0.529133)">
      <path
         d="m 63.153587,224.64709 -0.748274,2.0519 h -0.592556 l -0.748274,-2.0519 h 0.555349 l 0.496093,1.44143 0.496094,-1.44143 z"
         style="font-style:normal;font-variant:normal;font-weight:bold;font-stretch:normal;font-size:2.82222px;font-family:sans-serif;-inkscape-font-specification:'sans-serif, Bold';font-variant-ligatures:normal;font-variant-caps:normal;font-variant-numeric:normal;font-variant-east-asian:normal;fill:#2a9cfa;fill-opacity:1;stroke-width:0.264583"
         id="path573" />
      <path
         d="m 64.872,224.55476 -1.092784,2.59071 h -0.423057 l 1.088649,-2.59071 z"
         style="font-style:normal;font-variant:normal;font-weight:bold;font-stretch:normal;font-size:2.82222px;font-family:sans-serif;-inkscape-font-specification:'sans-serif, Bold';font-variant-ligatures:normal;font-variant-caps:normal;font-variant-numeric:normal;font-variant-east-asian:normal;fill:#2a9cfa;fill-opacity:1;stroke-width:0.264583"
         id="path575" />
      <path
         d="m 67.389674,225.67373 q 0,0.49058 -0.28112,0.77997 -0.28112,0.28801 -0.777213,0.28801 -0.494715,0 -0.775835,-0.28801 -0.28112,-0.28939 -0.28112,-0.77997 0,-0.49472 0.28112,-0.78135 0.28112,-0.28801 0.775835,-0.28801 0.493337,0 0.775835,0.28801 0.282498,0.28663 0.282498,0.78135 z m -0.701421,0.51952 q 0.07717,-0.0937 0.114377,-0.22049 0.03721,-0.12815 0.03721,-0.30041 0,-0.18465 -0.04272,-0.31419 -0.04272,-0.12954 -0.111621,-0.20946 -0.07028,-0.0827 -0.162609,-0.11989 -0.09095,-0.0372 -0.190169,-0.0372 -0.100597,0 -0.190169,0.0358 -0.08819,0.0358 -0.162608,0.11851 -0.0689,0.0772 -0.113,0.2136 -0.04272,0.13505 -0.04272,0.31419 0,0.18328 0.04134,0.31281 0.04272,0.12816 0.111621,0.20947 0.0689,0.0813 0.161231,0.11989 0.09233,0.0386 0.194303,0.0386 0.101975,0 0.194303,-0.0386 0.09233,-0.04 0.161231,-0.12265 z"
         style="font-style:normal;font-variant:normal;font-weight:bold;font-stretch:normal;font-size:2.82222px;font-family:sans-serif;-inkscape-font-specification:'sans-serif, Bold';font-variant-ligatures:normal;font-variant-caps:normal;font-variant-numeric:normal;font-variant-east-asian:normal;fill:#2a9cfa;fill-opacity:1;stroke-width:0.264583"
         id="path577" />
      <path
         d="m 68.719479,226.73895 q -0.228754,0 -0.423057,-0.0675 -0.192925,-0.0675 -0.332107,-0.20119 -0.139182,-0.13367 -0.216352,-0.33349 -0.07579,-0.19981 -0.07579,-0.46164 0,-0.24391 0.07304,-0.44235 0.07304,-0.19844 0.212218,-0.34038 0.13367,-0.13642 0.330729,-0.21084 0.198437,-0.0744 0.432703,-0.0744 0.129536,0 0.232889,0.0152 0.104731,0.0138 0.192925,0.0372 0.09233,0.0262 0.166742,0.0593 0.07579,0.0317 0.132292,0.0593 v 0.49747 h -0.06063 q -0.03858,-0.0331 -0.09784,-0.0785 -0.05788,-0.0455 -0.132292,-0.0896 -0.07579,-0.0441 -0.163986,-0.0744 -0.08819,-0.0303 -0.188791,-0.0303 -0.111621,0 -0.212218,0.0358 -0.100597,0.0345 -0.186035,0.11575 -0.0813,0.0786 -0.132292,0.20808 -0.04961,0.12954 -0.04961,0.3142 0,0.19292 0.05374,0.32246 0.05512,0.12953 0.137804,0.20395 0.08406,0.0758 0.187413,0.10886 0.103353,0.0317 0.20395,0.0317 0.09646,0 0.190169,-0.0289 0.09508,-0.0289 0.175011,-0.0785 0.06752,-0.04 0.125401,-0.0854 0.05788,-0.0455 0.09508,-0.0786 h 0.05512 v 0.49058 q -0.07717,0.0345 -0.14745,0.0648 -0.07028,0.0303 -0.14745,0.0524 -0.100597,0.0289 -0.188791,0.0441 -0.08819,0.0152 -0.242535,0.0152 z"
         style="font-style:normal;font-variant:normal;font-weight:bold;font-stretch:normal;font-size:2.82222px;font-family:sans-serif;-inkscape-font-specification:'sans-serif, Bold';font-variant-ligatures:normal;font-variant-caps:normal;font-variant-numeric:normal;font-variant-east-asian:normal;fill:#2a9cfa;fill-opacity:1;stroke-width:0.264583"
         id="path579" />
      <path
         d="m 71.442481,225.04397 h -0.640787 v 1.65502 h -0.529166 v -1.65502 h -0.640787 v -0.39688 h 1.81074 z"
         style="font-style:normal;font-variant:normal;font-weight:bold;font-stretch:normal;font-size:2.82222px;font-family:sans-serif;-inkscape-font-specification:'sans-serif, Bold';font-variant-ligatures:normal;font-variant-caps:normal;font-variant-numeric:normal;font-variant-east-asian:normal;fill:#2a9cfa;fill-opacity:1;stroke-width:0.264583"
         id="path581" />
    </g>
    <g
       id="g618"
       transform="translate(0.7650685,19.464565)">
      <path
         id="path610"
         style="fill:#bed7ea;fill-opacity:1;stroke:none;stroke-width:0.321024;stroke-miterlimit:4;stroke-dasharray:none;stroke-dashoffset:0;stroke-opacity:1"
         d="M 33.727643,183.08938 H 48.27641 v 17.12098 H 33.727643 Z" />
      <path
         id="path612"
         style="fill:#bed7ea;fill-opacity:1;stroke:none;stroke-width:0.321024;stroke-miterlimit:4;stroke-dasharray:none;stroke-dashoffset:0;stroke-opacity:1"
         d="m 50.036914,183.08938 h 14.548765 v 17.12098 H 50.036914 Z" />
      <path
         id="path614"
         style="fill:#bed7ea;fill-opacity:1;stroke:none;stroke-width:0.321024;stroke-miterlimit:4;stroke-dasharray:none;stroke-dashoffset:0;stroke-opacity:1"
         d="M 66.346183,183.08938 H 80.89495 v 17.12098 H 66.346183 Z" />
      <path
         id="path616"
         style="fill:#bed7ea;fill-opacity:1;stroke:none;stroke-width:0.321024;stroke-miterlimit:4;stroke-dasharray:none;stroke-dashoffset:0;stroke-opacity:1"
         d="m 82.655459,183.08938 h 14.548748 v 17.12098 H 82.655459 Z" />
    </g>
    <g
       aria-label="8Seq"
       id="text358"
       style="font-style:normal;font-weight:normal;font-size:10.5833px;line-height:1.25;font-family:sans-serif;fill:#40a5f7;fill-opacity:1;stroke:none;stroke-width:0.264583"
       transform="matrix(1.4796477,0,0,1.4796477,14.68809,-79.841137)">
      <path
         d="m 32.320518,166.03588 q 0,0.34106 -0.291111,0.5581 -0.289388,0.21704 -0.795818,0.21704 -0.28422,0 -0.487481,-0.0586 -0.203261,-0.0586 -0.335897,-0.16192 -0.130914,-0.10163 -0.194648,-0.23771 -0.06201,-0.13609 -0.06201,-0.29284 0,-0.19292 0.111966,-0.34106 0.113688,-0.14986 0.391018,-0.26183 v -0.0103 q -0.223931,-0.10335 -0.329006,-0.2601 -0.105076,-0.15675 -0.105076,-0.36346 0,-0.30489 0.282498,-0.49954 0.282498,-0.19465 0.735529,-0.19465 0.475423,0 0.744141,0.17743 0.27044,0.1757 0.27044,0.47025 0,0.18259 -0.113688,0.32556 -0.113689,0.14298 -0.347955,0.24288 v 0.0103 q 0.268717,0.10163 0.397909,0.27388 0.129191,0.17226 0.129191,0.40653 z m -0.711413,-1.18512 q 0,-0.13091 -0.10163,-0.20843 -0.09991,-0.0775 -0.266995,-0.0775 -0.06201,0 -0.127469,0.0155 -0.06373,0.0155 -0.117133,0.0448 -0.04995,0.0293 -0.08268,0.0775 -0.03273,0.0465 -0.03273,0.1068 0,0.10163 0.05684,0.15848 0.05857,0.0568 0.18948,0.11368 0.04823,0.0207 0.130914,0.0517 0.08441,0.0293 0.203261,0.0672 0.07924,-0.093 0.113688,-0.16709 0.03445,-0.0741 0.03445,-0.18259 z m 0.0534,1.2144 q 0,-0.12402 -0.06201,-0.18776 -0.06201,-0.0637 -0.254937,-0.14641 -0.05684,-0.0258 -0.165365,-0.0637 -0.10852,-0.0379 -0.18259,-0.0655 -0.07407,0.0672 -0.134359,0.16365 -0.05857,0.0947 -0.05857,0.21359 0,0.17915 0.127468,0.28595 0.129191,0.10507 0.335897,0.10507 0.05512,0 0.129191,-0.0155 0.07407,-0.0172 0.127469,-0.0517 0.06201,-0.0396 0.09991,-0.093 0.0379,-0.0534 0.0379,-0.14469 z"
         style="font-style:normal;font-variant:normal;font-weight:bold;font-stretch:normal;font-size:3.52778px;font-family:sans-serif;-inkscape-font-specification:'sans-serif, Bold';font-variant-ligatures:normal;font-variant-caps:normal;font-variant-numeric:normal;font-variant-east-asian:normal;fill:#40a5f7;fill-opacity:1;stroke-width:0.264583"
         id="path360" />
      <path
         d="m 34.871613,165.9463 q 0,0.37896 -0.322117,0.61668 -0.320394,0.23599 -0.87161,0.23599 -0.318671,0 -0.556383,-0.0551 -0.235989,-0.0568 -0.442695,-0.14297 v -0.61495 h 0.07235 q 0.204983,0.16364 0.458198,0.25149 0.254937,0.0878 0.489204,0.0878 0.06029,0 0.158474,-0.0103 0.09819,-0.0103 0.160197,-0.0344 0.07579,-0.031 0.124024,-0.0775 0.04995,-0.0465 0.04995,-0.1378 0,-0.0844 -0.07235,-0.14469 -0.07062,-0.062 -0.208429,-0.0947 -0.144694,-0.0345 -0.306613,-0.0637 -0.160197,-0.031 -0.301446,-0.0775 -0.32384,-0.10508 -0.466811,-0.28422 -0.141249,-0.18087 -0.141249,-0.44787 0,-0.35829 0.320394,-0.58394 0.322116,-0.22738 0.826823,-0.22738 0.253215,0 0.499539,0.05 0.248048,0.0482 0.428915,0.1223 v 0.59083 h -0.07062 q -0.15503,-0.12402 -0.380684,-0.2067 -0.223931,-0.0844 -0.458198,-0.0844 -0.08268,0 -0.165364,0.0121 -0.08096,0.0103 -0.156752,0.0413 -0.06718,0.0258 -0.115411,0.0792 -0.04823,0.0517 -0.04823,0.11885 0,0.10163 0.07751,0.15676 0.07751,0.0534 0.292834,0.0982 0.141249,0.0293 0.27044,0.0568 0.130913,0.0276 0.280775,0.0758 0.294556,0.0965 0.434083,0.26355 0.141249,0.16536 0.141249,0.43063 z"
         style="font-style:normal;font-variant:normal;font-weight:bold;font-stretch:normal;font-size:3.52778px;font-family:sans-serif;-inkscape-font-specification:'sans-serif, Bold';font-variant-ligatures:normal;font-variant-caps:normal;font-variant-numeric:normal;font-variant-east-asian:normal;fill:#40a5f7;fill-opacity:1;stroke-width:0.264583"
         id="path362" />
      <path
         d="m 37.197053,165.89979 h -1.41938 q 0.01378,0.22738 0.172255,0.34796 0.160197,0.12058 0.470256,0.12058 0.196371,0 0.380683,-0.0706 0.184313,-0.0706 0.291111,-0.15158 h 0.0689 v 0.49782 q -0.210151,0.0844 -0.396186,0.1223 -0.186036,0.0379 -0.411689,0.0379 -0.582222,0 -0.892281,-0.26182 -0.310059,-0.26183 -0.310059,-0.74587 0,-0.47887 0.292834,-0.75792 0.294556,-0.28077 0.806153,-0.28077 0.471978,0 0.70969,0.23943 0.237711,0.23771 0.237711,0.68557 z m -0.616672,-0.36345 q -0.0052,-0.19465 -0.09646,-0.29284 -0.0913,-0.0982 -0.28422,-0.0982 -0.179145,0 -0.294556,0.093 -0.115411,0.093 -0.129191,0.298 z"
         style="font-style:normal;font-variant:normal;font-weight:bold;font-stretch:normal;font-size:3.52778px;font-family:sans-serif;-inkscape-font-specification:'sans-serif, Bold';font-variant-ligatures:normal;font-variant-caps:normal;font-variant-numeric:normal;font-variant-east-asian:normal;fill:#40a5f7;fill-opacity:1;stroke-width:0.264583"
         id="path364" />
      <path
         d="m 39.515604,167.46215 h -0.620118 v -0.89917 q -0.151584,0.1223 -0.296278,0.18259 -0.144694,0.0603 -0.325562,0.0603 -0.354845,0 -0.566718,-0.27217 -0.210151,-0.27216 -0.210151,-0.7338 0,-0.24633 0.07062,-0.43581 0.07235,-0.1912 0.196371,-0.32728 0.117133,-0.12919 0.28422,-0.19982 0.167088,-0.0723 0.334175,-0.0723 0.163642,0 0.273885,0.0379 0.111966,0.0362 0.235989,0.10163 l 0.02239,-0.0861 h 0.60117 z m -0.620118,-1.24368 v -0.94913 q -0.06546,-0.0276 -0.137804,-0.0396 -0.07235,-0.012 -0.132636,-0.012 -0.244602,0 -0.366903,0.1533 -0.122301,0.15159 -0.122301,0.42203 0,0.28422 0.09819,0.41341 0.09819,0.12747 0.315226,0.12747 0.08441,0 0.179145,-0.031 0.09474,-0.0327 0.167087,-0.0844 z"
         style="font-style:normal;font-variant:normal;font-weight:bold;font-stretch:normal;font-size:3.52778px;font-family:sans-serif;-inkscape-font-specification:'sans-serif, Bold';font-variant-ligatures:normal;font-variant-caps:normal;font-variant-numeric:normal;font-variant-east-asian:normal;fill:#40a5f7;fill-opacity:1;stroke-width:0.264583"
         id="path366" />
    </g>
    <g
       aria-label="PROB"
       id="text371"
       style="font-style:normal;font-weight:normal;font-size:10.5833px;line-height:1.25;font-family:sans-serif;fill:#1996fc;fill-opacity:1;stroke:none;stroke-width:0.264583">
      <path
         d="m 84.295614,224.9427 q 0,0.13781 -0.04823,0.2701 -0.04823,0.13091 -0.137804,0.22049 -0.122645,0.12126 -0.274229,0.18327 -0.150206,0.062 -0.374826,0.062 h -0.329351 v 0.66834 h -0.529166 v -2.05189 h 0.870919 q 0.195681,0 0.329351,0.0344 0.135048,0.0331 0.2384,0.10059 0.124024,0.0813 0.188791,0.20809 0.06615,0.12678 0.06615,0.30454 z m -0.547081,0.0124 q 0,-0.0868 -0.04685,-0.14883 -0.04685,-0.0634 -0.108865,-0.0882 -0.08268,-0.0331 -0.16123,-0.0358 -0.07855,-0.004 -0.209462,-0.004 h -0.09095 v 0.61461 h 0.151584 q 0.135047,0 0.221864,-0.0165 0.08819,-0.0165 0.14745,-0.0662 0.05099,-0.0441 0.07304,-0.10473 0.02343,-0.062 0.02343,-0.1502 z"
         style="font-style:normal;font-variant:normal;font-weight:bold;font-stretch:normal;font-size:2.82222px;font-family:sans-serif;-inkscape-font-specification:'sans-serif, Bold';font-variant-ligatures:normal;font-variant-caps:normal;font-variant-numeric:normal;font-variant-east-asian:normal;fill:#1996fc;fill-opacity:1;stroke-width:0.264583"
         id="path373" />
      <path
         d="m 85.819723,224.92341 q 0,-0.0772 -0.03169,-0.13229 -0.03169,-0.0551 -0.108865,-0.0868 -0.05374,-0.022 -0.125401,-0.0262 -0.07166,-0.006 -0.166742,-0.006 h -0.191548 v 0.55259 h 0.162609 q 0.126779,0 0.212218,-0.0124 0.08544,-0.0124 0.143315,-0.0565 0.05512,-0.0427 0.07993,-0.0937 0.02618,-0.0524 0.02618,-0.13918 z m 0.825444,1.42351 h -0.646299 l -0.559483,-0.7524 h -0.243913 v 0.7524 h -0.52641 v -2.05189 h 0.887456 q 0.181901,0 0.312815,0.0207 0.130913,0.0207 0.24529,0.0896 0.115755,0.0689 0.183279,0.17914 0.0689,0.10887 0.0689,0.27423 0,0.22738 -0.106109,0.3707 -0.104731,0.14331 -0.300412,0.2384 z"
         style="font-style:normal;font-variant:normal;font-weight:bold;font-stretch:normal;font-size:2.82222px;font-family:sans-serif;-inkscape-font-specification:'sans-serif, Bold';font-variant-ligatures:normal;font-variant-caps:normal;font-variant-numeric:normal;font-variant-east-asian:normal;fill:#1996fc;fill-opacity:1;stroke-width:0.264583"
         id="path375" />
      <path
         d="m 88.874831,225.32166 q 0,0.49059 -0.281119,0.77997 -0.28112,0.28801 -0.777213,0.28801 -0.494715,0 -0.775835,-0.28801 -0.28112,-0.28938 -0.28112,-0.77997 0,-0.49471 0.28112,-0.78134 0.28112,-0.28801 0.775835,-0.28801 0.493337,0 0.775835,0.28801 0.282497,0.28663 0.282497,0.78134 z m -0.70142,0.51952 q 0.07717,-0.0937 0.114377,-0.22048 0.03721,-0.12816 0.03721,-0.30041 0,-0.18466 -0.04272,-0.3142 -0.04272,-0.12953 -0.111621,-0.20946 -0.07028,-0.0827 -0.162609,-0.11989 -0.09095,-0.0372 -0.190169,-0.0372 -0.100597,0 -0.190169,0.0358 -0.08819,0.0358 -0.162609,0.11852 -0.0689,0.0772 -0.112999,0.21359 -0.04272,0.13505 -0.04272,0.31419 0,0.18328 0.04134,0.31282 0.04272,0.12816 0.111621,0.20946 0.0689,0.0813 0.161231,0.11989 0.09233,0.0386 0.194303,0.0386 0.101975,0 0.194303,-0.0386 0.09233,-0.04 0.161231,-0.12265 z"
         style="font-style:normal;font-variant:normal;font-weight:bold;font-stretch:normal;font-size:2.82222px;font-family:sans-serif;-inkscape-font-specification:'sans-serif, Bold';font-variant-ligatures:normal;font-variant-caps:normal;font-variant-numeric:normal;font-variant-east-asian:normal;fill:#1996fc;fill-opacity:1;stroke-width:0.264583"
         id="path377" />
      <path
         d="m 91.032838,225.71854 q 0,0.14883 -0.06063,0.26596 -0.05926,0.11713 -0.163986,0.1943 -0.121268,0.0909 -0.26734,0.12954 -0.144693,0.0386 -0.367935,0.0386 h -0.895725 v -2.05189 h 0.796506 q 0.248047,0 0.362424,0.0165 0.115755,0.0165 0.228754,0.073 0.117133,0.0592 0.173633,0.15985 0.05788,0.0992 0.05788,0.22738 0,0.14883 -0.07855,0.2632 -0.07855,0.113 -0.221864,0.17639 v 0.011 q 0.201193,0.04 0.318327,0.16536 0.118511,0.1254 0.118511,0.33073 z m -0.677995,-0.84336 q 0,-0.051 -0.02618,-0.10197 -0.02481,-0.051 -0.08957,-0.0758 -0.05788,-0.022 -0.144694,-0.0234 -0.08544,-0.003 -0.241156,-0.003 h -0.04961 v 0.43408 h 0.08268 q 0.125401,0 0.213596,-0.004 0.08819,-0.004 0.139181,-0.0276 0.07166,-0.0317 0.09371,-0.0813 0.02205,-0.051 0.02205,-0.11713 z m 0.129536,0.83509 q 0,-0.0978 -0.03858,-0.15021 -0.03721,-0.0537 -0.128158,-0.0799 -0.06201,-0.0179 -0.170876,-0.0193 -0.108865,-0.001 -0.227376,-0.001 h -0.115755 v 0.51125 h 0.03858 q 0.223242,0 0.319704,-0.001 0.09646,-0.001 0.177767,-0.0358 0.08268,-0.0345 0.112999,-0.091 0.03169,-0.0579 0.03169,-0.13229 z"
         style="font-style:normal;font-variant:normal;font-weight:bold;font-stretch:normal;font-size:2.82222px;font-family:sans-serif;-inkscape-font-specification:'sans-serif, Bold';font-variant-ligatures:normal;font-variant-caps:normal;font-variant-numeric:normal;font-variant-east-asian:normal;fill:#1996fc;fill-opacity:1;stroke-width:0.264583"
         id="path379" />
    </g>
    <g
       aria-label="LENGTH"
       id="text384"
       style="font-style:normal;font-weight:normal;font-size:10.5833px;line-height:1.25;font-family:sans-serif;fill:#1996fc;fill-opacity:1;stroke:none;stroke-width:0.264583">
      <path
         d="m 61.595049,172.04108 h -1.480011 v -2.0519 h 0.529166 v 1.65502 h 0.950845 z"
         style="font-style:normal;font-variant:normal;font-weight:bold;font-stretch:normal;font-size:2.82222px;font-family:sans-serif;-inkscape-font-specification:'sans-serif, Bold';font-variant-ligatures:normal;font-variant-caps:normal;font-variant-numeric:normal;font-variant-east-asian:normal;fill:#1996fc;fill-opacity:1;stroke-width:0.264583"
         id="path386" />
      <path
         d="m 63.396144,172.04108 h -1.484146 v -2.0519 h 1.484146 v 0.39687 h -0.957736 v 0.35416 h 0.888834 v 0.39687 h -0.888834 v 0.50712 h 0.957736 z"
         style="font-style:normal;font-variant:normal;font-weight:bold;font-stretch:normal;font-size:2.82222px;font-family:sans-serif;-inkscape-font-specification:'sans-serif, Bold';font-variant-ligatures:normal;font-variant-caps:normal;font-variant-numeric:normal;font-variant-east-asian:normal;fill:#1996fc;fill-opacity:1;stroke-width:0.264583"
         id="path388" />
      <path
         d="m 65.707112,172.04108 h -0.509873 l -0.87092,-1.40836 v 1.40836 H 63.84125 v -2.0519 h 0.632519 l 0.748274,1.17547 v -1.17547 h 0.485069 z"
         style="font-style:normal;font-variant:normal;font-weight:bold;font-stretch:normal;font-size:2.82222px;font-family:sans-serif;-inkscape-font-specification:'sans-serif, Bold';font-variant-ligatures:normal;font-variant-caps:normal;font-variant-numeric:normal;font-variant-east-asian:normal;fill:#1996fc;fill-opacity:1;stroke-width:0.264583"
         id="path390" />
      <path
         d="m 68.048397,171.92394 q -0.137803,0.0538 -0.365179,0.10749 -0.227377,0.0524 -0.453375,0.0524 -0.523654,0 -0.819932,-0.28388 -0.296278,-0.28525 -0.296278,-0.78686 0,-0.47818 0.299034,-0.77032 0.299034,-0.29352 0.833713,-0.29352 0.202571,0 0.38585,0.0372 0.183279,0.0358 0.407899,0.1447 v 0.48093 h -0.05925 q -0.03858,-0.0289 -0.112999,-0.0813 -0.07441,-0.0538 -0.143316,-0.091 -0.07993,-0.0441 -0.187413,-0.0758 -0.106109,-0.0317 -0.225998,-0.0317 -0.14056,0 -0.254937,0.0413 -0.114377,0.0413 -0.205328,0.12678 -0.08682,0.0827 -0.137804,0.21084 -0.04961,0.12678 -0.04961,0.29352 0,0.34038 0.180523,0.5209 0.180523,0.18052 0.5333,0.18052 0.03032,0 0.06615,-0.001 0.03721,-0.001 0.06752,-0.004 v -0.40239 h -0.409277 v -0.38722 h 0.946711 z"
         style="font-style:normal;font-variant:normal;font-weight:bold;font-stretch:normal;font-size:2.82222px;font-family:sans-serif;-inkscape-font-specification:'sans-serif, Bold';font-variant-ligatures:normal;font-variant-caps:normal;font-variant-numeric:normal;font-variant-east-asian:normal;fill:#1996fc;fill-opacity:1;stroke-width:0.264583"
         id="path392" />
      <path
         d="M 70.126478,170.38605 H 69.48569 v 1.65503 h -0.529166 v -1.65503 h -0.640787 v -0.39687 h 1.810741 z"
         style="font-style:normal;font-variant:normal;font-weight:bold;font-stretch:normal;font-size:2.82222px;font-family:sans-serif;-inkscape-font-specification:'sans-serif, Bold';font-variant-ligatures:normal;font-variant-caps:normal;font-variant-numeric:normal;font-variant-east-asian:normal;fill:#1996fc;fill-opacity:1;stroke-width:0.264583"
         id="path394" />
      <path
         d="m 72.284483,172.04108 h -0.529166 v -0.904 H 70.97397 v 0.904 h -0.529166 v -2.0519 h 0.529166 v 0.75103 h 0.781347 v -0.75103 h 0.529166 z"
         style="font-style:normal;font-variant:normal;font-weight:bold;font-stretch:normal;font-size:2.82222px;font-family:sans-serif;-inkscape-font-specification:'sans-serif, Bold';font-variant-ligatures:normal;font-variant-caps:normal;font-variant-numeric:normal;font-variant-east-asian:normal;fill:#1996fc;fill-opacity:1;stroke-width:0.264583"
         id="path396" />
    </g>
  </g>
</svg>
