<?xml version="1.0" encoding="UTF-8" standalone="no"?>
<svg
   width="540"
   height="380"
   viewBox="0 0 540 380"
   version="1.1"
   id="svg52"
   sodipodi:docname="FM16Seq.svg"
   inkscape:version="1.3.2 (091e20e, 2023-11-25)"
   xmlns:inkscape="http://www.inkscape.org/namespaces/inkscape"
   xmlns:sodipodi="http://sodipodi.sourceforge.net/DTD/sodipodi-0.dtd"
   xmlns="http://www.w3.org/2000/svg"
   xmlns:svg="http://www.w3.org/2000/svg">
  <sodipodi:namedview
     id="namedview1"
     pagecolor="#ffffff"
     bordercolor="#000000"
     borderopacity="0.25"
     inkscape:showpageshadow="2"
     inkscape:pageopacity="0.0"
     inkscape:pagecheckerboard="0"
     inkscape:deskcolor="#d1d1d1"
     inkscape:zoom="2.5481481"
     inkscape:cx="301.39535"
     inkscape:cy="207.79797"
     inkscape:window-width="1616"
     inkscape:window-height="1126"
     inkscape:window-x="1744"
     inkscape:window-y="680"
     inkscape:window-maximized="0"
     inkscape:current-layer="svg52" />
  <defs
     id="defs2">
    <linearGradient
       id="bg"
       x1="0"
       y1="0"
       x2="0"
       y2="1">
      <stop
         offset="0%"
         stop-color="#252c33"
         id="stop1" />
      <stop
         offset="100%"
         stop-color="#14191e"
         id="stop2" />
    </linearGradient>
  </defs>
  <path
     id="path33453"
     d="M 0,0 H 540 V 380 H 0 Z m 0,0"
     style="fill:#333333;fill-opacity:1;fill-rule:nonzero;stroke:none;stroke-width:1.33559" />
  <path
     id="rect1298"
     style="fill:#2d5f86;fill-opacity:1;stroke:none;stroke-width:4.58657;stroke-miterlimit:4;stroke-dasharray:none;stroke-dashoffset:0;stroke-opacity:1"
     d="M 39.531203,108.25017 H 293.76246 v 200 H 39.531203 Z" />
  <path
     id="rect1298-9"
     style="fill:#2d5f86;fill-opacity:1;stroke:none;stroke-width:3.27978;stroke-miterlimit:4;stroke-dasharray:none;stroke-dashoffset:0;stroke-opacity:1"
     d="m 311.65357,108.25017 h 130 v 200 h -130 z" />
  <g
     id="g58"
     transform="translate(11.156982,-2)">
    <path
       d="m 21.37915,55 h -2.536132 v -0.48877 h 1.021972 v -3.746093 l -0.963867,0.481933 v -0.560547 l 1.042481,-0.536621 h 0.481933 v 4.361328 h 0.953613 z"
       id="text1"
       style="font-size:7px;font-family:monospace;text-anchor:middle;fill:#ffffff"
       aria-label="1" />
    <path
       d="m 53.252686,55 h -2.652344 v -0.406738 q 1.008301,-1.124512 1.309082,-1.507325 0.300781,-0.382812 0.488769,-0.803222 0.187989,-0.42041 0.187989,-0.837403 0,-0.40332 -0.246094,-0.635742 -0.242676,-0.232422 -0.683594,-0.232422 -0.338379,0 -0.90918,0.208497 l -0.07861,-0.481934 q 0.516113,-0.21875 1.080078,-0.21875 0.645996,0 1.039063,0.365723 0.396484,0.362304 0.396484,0.970703 0,0.434082 -0.205078,0.861328 -0.20166,0.427246 -0.519531,0.820312 -0.317871,0.393067 -1.237305,1.408203 h 2.030274 z"
       id="text2"
       style="font-size:7px;font-family:monospace;text-anchor:middle;fill:#ffffff"
       aria-label="2" />
    <path
       d="m 84.299072,52.40918 q 0.440918,0.123047 0.70752,0.451172 0.266601,0.324707 0.266601,0.731445 0,0.635742 -0.495605,1.069824 -0.495606,0.430664 -1.168945,0.430664 -0.574219,0 -1.028809,-0.25293 l 0.109375,-0.461425 q 0.475098,0.222168 0.939941,0.222168 0.4375,0 0.745118,-0.27002 0.311035,-0.273437 0.311035,-0.700683 0,-0.420411 -0.331543,-0.683594 -0.331543,-0.263184 -0.878418,-0.263184 h -0.146973 v -0.461426 h 0.04102 q 0.526367,0 0.868164,-0.246093 0.341797,-0.249512 0.341797,-0.669922 0,-0.341797 -0.246094,-0.533203 -0.246094,-0.194825 -0.676758,-0.194825 -0.372558,0 -0.833984,0.201661 l -0.0752,-0.481934 q 0.464844,-0.211914 0.936524,-0.211914 0.645996,0 1.062988,0.341797 0.42041,0.338379 0.42041,0.871582 0,0.36914 -0.256347,0.69043 -0.25293,0.317871 -0.611817,0.399902 z"
       id="text3"
       style="font-size:7px;font-family:monospace;text-anchor:middle;fill:#ffffff"
       aria-label="3" />
    <path
       d="m 117.56714,53.885742 h -0.59473 V 55 h -0.56054 v -1.114258 h -2.09864 v -0.427246 l 1.90381,-3.28125 h 0.75537 v 3.219727 h 0.59473 z m -1.15527,-0.488769 v -2.666016 l -1.53125,2.666016 z"
       id="text4"
       style="font-size:7px;font-family:monospace;text-anchor:middle;fill:#ffffff"
       aria-label="4" />
    <path
       d="m 147.38306,52.12207 q 0.23242,-0.06152 0.45459,-0.06152 0.68359,0 1.08007,0.42041 0.39649,0.416992 0.39649,1.04248 0,0.65625 -0.46143,1.114258 -0.46142,0.45459 -1.12451,0.45459 -0.63232,0 -1.05957,-0.211914 l 0.11279,-0.475098 q 0.46485,0.194825 0.96045,0.194825 0.44092,0 0.71094,-0.283692 0.27344,-0.283691 0.27344,-0.792969 0,-0.481933 -0.25635,-0.741699 -0.25635,-0.259765 -0.65967,-0.259765 -0.29394,0 -0.58105,0.112793 l -0.33496,-0.153809 v -2.303711 h 2.20459 v 0.48877 h -1.71582 z"
       id="text5"
       style="font-size:7px;font-family:monospace;text-anchor:middle;fill:#ffffff"
       aria-label="5" />
    <path
       d="m 179.13696,52.487793 q 0.45117,-0.365723 0.98096,-0.365723 0.61182,0 1.01855,0.393067 0.41016,0.389648 0.41016,1.0083 0,0.680176 -0.3623,1.124512 -0.36231,0.444336 -0.96729,0.444336 -0.77246,0 -1.22363,-0.707519 -0.45117,-0.710938 -0.45117,-1.736329 0,-1.09375 0.46826,-1.828613 0.47168,-0.734863 1.28857,-0.734863 0.56397,0 0.97412,0.16748 l -0.0889,0.499024 q -0.4751,-0.174317 -0.86817,-0.174317 -0.55713,0 -0.86816,0.533204 -0.31104,0.533203 -0.31104,1.377441 z m 0.0171,0.481934 q 0,0.618652 0.29053,1.124511 0.29053,0.50586 0.73145,0.50586 0.37255,0 0.57421,-0.273438 0.20166,-0.273437 0.20166,-0.755371 0,-0.444336 -0.22216,-0.700684 -0.22217,-0.256347 -0.62549,-0.256347 -0.52295,0 -0.9502,0.355469 z"
       id="text6"
       style="font-size:7px;font-family:monospace;text-anchor:middle;fill:#ffffff"
       aria-label="6" />
    <path
       d="M 213.44067,50.577148 211.53003,55 h -0.57422 l 1.8833,-4.333984 h -2.25928 v -0.48877 h 2.86084 z"
       id="text7"
       style="font-size:7px;font-family:monospace;text-anchor:middle;fill:#ffffff"
       aria-label="7" />
    <path
       d="m 244.48364,52.354492 q 0.49219,0.143555 0.76221,0.48877 0.27344,0.345215 0.27344,0.80664 0,0.663086 -0.44092,1.052735 -0.4375,0.389648 -1.08008,0.389648 -0.67334,0 -1.10742,-0.393066 -0.43066,-0.393067 -0.43066,-1.042481 0,-0.458008 0.28027,-0.80664 0.28027,-0.348633 0.78271,-0.495606 -0.3999,-0.102539 -0.64257,-0.393066 -0.23926,-0.293946 -0.23926,-0.65625 0,-0.464844 0.36914,-0.840821 0.36914,-0.379394 0.97412,-0.379394 0.59814,0 0.98779,0.375976 0.39307,0.375977 0.39307,0.844239 0,0.352051 -0.2461,0.649414 -0.24609,0.293945 -0.63574,0.399902 z m -0.49902,-0.232422 q 0.0171,0 0.16406,-0.04102 0.14697,-0.04102 0.24951,-0.09912 0.10596,-0.06152 0.19483,-0.153809 0.0889,-0.09229 0.14355,-0.215332 0.0547,-0.126465 0.0547,-0.280273 0,-0.328125 -0.23584,-0.543458 -0.23584,-0.21875 -0.5708,-0.21875 -0.32471,0 -0.55713,0.222168 -0.23242,0.222168 -0.23242,0.54004 0,0.20166 0.082,0.35205 0.0855,0.150391 0.2085,0.242676 0.12646,0.09229 0.28711,0.143555 0.16406,0.05127 0.21191,0.05127 z m 0,0.478516 q -0.93652,0.273437 -0.93652,1.028809 0,0.440917 0.28369,0.707519 0.28369,0.263184 0.6665,0.263184 0.39649,0 0.6665,-0.259766 0.27344,-0.263184 0.27344,-0.710937 0,-0.338379 -0.18799,-0.604981 -0.18798,-0.270019 -0.76562,-0.423828 z"
       id="text8"
       style="font-size:7px;font-family:monospace;text-anchor:middle;fill:#ffffff"
       aria-label="8" />
    <path
       d="m 276.91772,52.682617 q -0.41699,0.365723 -0.98095,0.365723 -0.61182,0 -1.02198,-0.389649 -0.40673,-0.393066 -0.40673,-1.011718 0,-0.663086 0.38965,-1.114258 0.39306,-0.45459 1.01171,-0.45459 0.75537,0 1.1792,0.69043 0.42383,0.690429 0.42383,1.753418 0,1.062988 -0.49902,1.814941 -0.49561,0.748535 -1.32959,0.748535 -0.56055,0 -0.97071,-0.170898 l 0.0889,-0.495606 q 0.47168,0.174317 0.86817,0.174317 0.56738,0 0.90576,-0.550293 0.34179,-0.550293 0.34179,-1.360352 z m -0.0137,-0.481933 q 0,-0.649414 -0.26318,-1.138184 -0.26318,-0.492188 -0.69043,-0.492188 -0.38623,0 -0.61865,0.28711 -0.22901,0.283691 -0.22901,0.741699 0,0.42041 0.23243,0.69043 0.23583,0.266601 0.61523,0.266601 0.52295,0 0.90918,-0.321289 z"
       id="text9"
       style="font-size:7px;font-family:monospace;text-anchor:middle;fill:#ffffff"
       aria-label="9" />
    <path
       d="m 307.27881,55 h -2.53613 v -0.48877 h 1.02197 v -3.746093 l -0.96387,0.481933 v -0.560547 l 1.04248,-0.536621 h 0.48194 v 4.361328 h 0.95361 z m 2.81299,-4.915039 q 0.76562,0 1.17578,0.659668 0.41357,0.65625 0.41357,1.845703 0,1.151855 -0.3999,1.828613 -0.3999,0.67334 -1.18945,0.67334 -0.76221,0 -1.17578,-0.65625 -0.41358,-0.65625 -0.41358,-1.845703 0,-1.155273 0.3999,-1.828613 0.40332,-0.676758 1.18946,-0.676758 z m 0,4.515137 q 0.50586,0 0.74853,-0.478516 0.2461,-0.481934 0.2461,-1.53125 0,-1.052734 -0.2461,-1.527832 -0.24267,-0.478516 -0.74853,-0.478516 -0.49903,0 -0.74512,0.48877 -0.24609,0.488769 -0.24609,1.517578 0,1.04248 0.24267,1.527832 0.2461,0.481934 0.74854,0.481934 z m -0.0137,-2.522461 q 0.21534,0 0.36231,0.15039 0.15039,0.146973 0.15039,0.362305 0,0.222168 -0.15039,0.382813 -0.15039,0.157226 -0.36231,0.157226 -0.20849,0 -0.35888,-0.157226 -0.14697,-0.160645 -0.14697,-0.382813 0,-0.21875 0.14355,-0.365723 0.14697,-0.146972 0.3623,-0.146972 z"
       id="text10"
       style="font-size:7px;font-family:monospace;text-anchor:middle;fill:#ffffff"
       aria-label="10" />
    <path
       d="m 339.27881,55 h -2.53613 v -0.48877 h 1.02197 v -3.746093 l -0.96387,0.481933 v -0.560547 l 1.04248,-0.536621 h 0.48194 v 4.361328 h 0.95361 z m 4.20068,0 h -2.53613 v -0.48877 h 1.02197 v -3.746093 l -0.96387,0.481933 v -0.560547 l 1.04249,-0.536621 h 0.48193 v 4.361328 h 0.95361 z"
       id="text11"
       style="font-size:7px;font-family:monospace;text-anchor:middle;fill:#ffffff"
       aria-label="11" />
    <path
       d="m 371.27881,55 h -2.53613 v -0.48877 h 1.02197 v -3.746093 l -0.96387,0.481933 v -0.560547 l 1.04248,-0.536621 h 0.48194 v 4.361328 h 0.95361 z m 4.07422,0 h -2.65235 v -0.406738 q 1.0083,-1.124512 1.30909,-1.507325 0.30078,-0.382812 0.48877,-0.803222 0.18798,-0.42041 0.18798,-0.837403 0,-0.40332 -0.24609,-0.635742 -0.24268,-0.232422 -0.68359,-0.232422 -0.33838,0 -0.90918,0.208497 l -0.0786,-0.481934 q 0.51612,-0.21875 1.08008,-0.21875 0.646,0 1.03906,0.365723 0.39649,0.362304 0.39649,0.970703 0,0.434082 -0.20508,0.861328 -0.20166,0.427246 -0.51953,0.820312 -0.31787,0.393067 -1.23731,1.408203 h 2.03028 z"
       id="text12"
       style="font-size:7px;font-family:monospace;text-anchor:middle;fill:#ffffff"
       aria-label="12" />
    <path
       d="m 403.27881,55 h -2.53613 v -0.48877 h 1.02197 v -3.746093 l -0.96387,0.481933 v -0.560547 l 1.04248,-0.536621 h 0.48194 v 4.361328 h 0.95361 z m 3.1206,-2.59082 q 0.44092,0.123047 0.70752,0.451172 0.26661,0.324707 0.26661,0.731445 0,0.635742 -0.49561,1.069824 -0.49561,0.430664 -1.16895,0.430664 -0.57421,0 -1.0288,-0.25293 l 0.10937,-0.461425 q 0.4751,0.222168 0.93994,0.222168 0.4375,0 0.74512,-0.27002 0.31103,-0.273437 0.31103,-0.700683 0,-0.420411 -0.33154,-0.683594 -0.33154,-0.263184 -0.87842,-0.263184 h -0.14697 v -0.461426 h 0.041 q 0.52636,0 0.86816,-0.246093 0.3418,-0.249512 0.3418,-0.669922 0,-0.341797 -0.2461,-0.533203 -0.24609,-0.194825 -0.67675,-0.194825 -0.37256,0 -0.83399,0.201661 l -0.0752,-0.481934 q 0.46484,-0.211914 0.93652,-0.211914 0.646,0 1.06299,0.341797 0.42041,0.338379 0.42041,0.871582 0,0.36914 -0.25635,0.69043 -0.25293,0.317871 -0.61182,0.399902 z"
       id="text13"
       style="font-size:7px;font-family:monospace;text-anchor:middle;fill:#ffffff"
       aria-label="13" />
    <path
       d="m 435.27881,55 h -2.53613 v -0.48877 h 1.02197 v -3.746093 l -0.96387,0.481933 v -0.560547 l 1.04248,-0.536621 h 0.48194 v 4.361328 h 0.95361 z m 4.38867,-1.114258 h -0.59473 V 55 h -0.56054 v -1.114258 h -2.09864 v -0.427246 l 1.90381,-3.28125 h 0.75537 v 3.219727 h 0.59473 z m -1.15527,-0.488769 v -2.666016 l -1.53125,2.666016 z"
       id="text14"
       style="font-size:7px;font-family:monospace;text-anchor:middle;fill:#ffffff"
       aria-label="14" />
    <path
       d="m 467.27881,55 h -2.53613 v -0.48877 h 1.02197 v -3.746093 l -0.96387,0.481933 v -0.560547 l 1.04248,-0.536621 h 0.48194 v 4.361328 h 0.95361 z m 2.20459,-2.87793 q 0.23242,-0.06152 0.45459,-0.06152 0.68359,0 1.08008,0.42041 0.39648,0.416992 0.39648,1.04248 0,0.65625 -0.46143,1.114258 -0.46142,0.45459 -1.12451,0.45459 -0.63232,0 -1.05957,-0.211914 l 0.1128,-0.475098 q 0.46484,0.194825 0.96045,0.194825 0.44091,0 0.71093,-0.283692 0.27344,-0.283691 0.27344,-0.792969 0,-0.481933 -0.25635,-0.741699 -0.25635,-0.259765 -0.65967,-0.259765 -0.29394,0 -0.58105,0.112793 l -0.33496,-0.153809 v -2.303711 h 2.20459 v 0.48877 h -1.71582 z"
       id="text15"
       style="font-size:7px;font-family:monospace;text-anchor:middle;fill:#ffffff"
       aria-label="15" />
    <path
       d="m 499.27881,55 h -2.53613 v -0.48877 h 1.02197 v -3.746093 l -0.96387,0.481933 v -0.560547 l 1.04248,-0.536621 h 0.48194 v 4.361328 h 0.95361 z m 1.95849,-2.512207 q 0.45118,-0.365723 0.98096,-0.365723 0.61182,0 1.01856,0.393067 0.41015,0.389648 0.41015,1.0083 0,0.680176 -0.3623,1.124512 -0.36231,0.444336 -0.96729,0.444336 -0.77246,0 -1.22363,-0.707519 -0.45117,-0.710938 -0.45117,-1.736329 0,-1.09375 0.46826,-1.828613 0.47168,-0.734863 1.28857,-0.734863 0.56397,0 0.97413,0.16748 l -0.0889,0.499024 q -0.4751,-0.174317 -0.86817,-0.174317 -0.55713,0 -0.86816,0.533204 -0.31104,0.533203 -0.31104,1.377441 z m 0.0171,0.481934 q 0,0.618652 0.29053,1.124511 0.29053,0.50586 0.73145,0.50586 0.37256,0 0.57422,-0.273438 0.20166,-0.273437 0.20166,-0.755371 0,-0.444336 -0.22217,-0.700684 -0.22217,-0.256347 -0.62549,-0.256347 -0.52295,0 -0.9502,0.355469 z"
       id="text16"
       style="font-size:7px;font-family:monospace;text-anchor:middle;fill:#ffffff"
       aria-label="16" />
  </g>
  <path
     d="m 65.615234,119.48828 h 1.085938 q 1.082031,0 1.734375,0.73828 0.652344,0.73438 0.652344,2.01953 0,1.3125 -0.664063,2.03516 Q 67.763672,125 66.728516,125 h -1.113282 z m 0.640625,4.95313 h 0.453125 q 0.785157,0 1.242188,-0.58203 0.457031,-0.58204 0.457031,-1.61329 0,-1.02343 -0.460937,-1.60937 -0.457032,-0.58984 -1.238282,-0.58984 h -0.453125 z m 6.007813,-5.05078 q 0.171875,0 0.292969,0.125 0.121093,0.12109 0.121093,0.29296 0,0.17969 -0.121093,0.30079 -0.117188,0.12109 -0.292969,0.12109 -0.160156,0 -0.285156,-0.125 -0.121094,-0.12891 -0.121094,-0.29688 0,-0.16796 0.121094,-0.29296 0.125,-0.125 0.285156,-0.125 z M 72.560547,125 h -0.609375 v -3.54297 h -1.199219 v -0.52734 h 1.808594 z m 6,-4.07031 L 77.017578,125 h -0.554687 l -1.535157,-4.07031 h 0.664063 l 1.152344,3.23828 1.152343,-3.23828 z"
     id="text17"
     style="font-size:8px;font-family:monospace;text-anchor:middle;fill:#ffffff"
     aria-label="Div" />
  <path
     d="m 122.99805,119.48828 h 1.39843 q 0.79297,0 1.26954,0.39844 0.47656,0.39844 0.47656,1.09766 0,0.70312 -0.47656,1.125 -0.47266,0.41796 -1.24219,0.41796 h -0.78516 V 125 h -0.64062 z m 0.64062,2.48047 h 0.69531 q 1.12891,0 1.12891,-0.94531 0,-0.4375 -0.30859,-0.70703 -0.30469,-0.26953 -0.78907,-0.26953 h -0.72656 z m 5.82422,-2.57812 q 0.17188,0 0.29297,0.125 0.12109,0.12109 0.12109,0.29296 0,0.17969 -0.12109,0.30079 -0.11719,0.12109 -0.29297,0.12109 -0.16016,0 -0.28516,-0.125 -0.12109,-0.12891 -0.12109,-0.29688 0,-0.16796 0.12109,-0.29296 0.125,-0.125 0.28516,-0.125 z M 129.75977,125 h -0.60938 v -3.54297 h -1.19922 v -0.52734 h 1.8086 z m 5.85546,-0.18359 q -0.61328,0.28125 -1.20703,0.28125 -1.08984,0 -1.08984,-1.15235 v -2.48828 h -0.78125 v -0.52734 h 0.78125 v -1.11328 h 0.59375 v 1.11328 h 1.38281 v 0.52734 h -1.38281 v 2.32813 q 0,0.37109 0.16406,0.57812 0.16406,0.20313 0.44531,0.20313 0.5,0 0.98829,-0.22266 z m 4.7461,0.0469 q -0.53125,0.24219 -1.16797,0.24219 -0.96094,0 -1.53516,-0.58203 -0.57031,-0.58594 -0.57031,-1.55469 0,-0.96875 0.57422,-1.55078 0.57812,-0.58594 1.51562,-0.58594 0.61329,0 1.16797,0.21485 l -0.16015,0.5039 q -0.55469,-0.1914 -1,-0.1914 -0.67188,0 -1.06641,0.43359 -0.39062,0.43359 -0.39062,1.17578 0,0.67969 0.40625,1.14453 0.40625,0.46094 1.05859,0.46094 0.51562,0 1.0625,-0.19922 z M 145.17773,125 h -0.60937 v -2.60937 q 0,-0.54297 -0.17578,-0.78516 -0.17188,-0.24609 -0.54297,-0.24609 -0.55859,0 -1.19922,0.69531 V 125 h -0.60937 v -5.51172 h 0.60937 v 2.03906 q 0.65625,-0.69531 1.38281,-0.69531 1.14453,0 1.14453,1.38281 z"
     id="text18"
     style="font-size:8px;font-family:monospace;text-anchor:middle;fill:#ffffff"
     aria-label="Pitch" />
  <path
     d="m 185.51953,120.04688 h -2.28125 v 1.80078 h 2.07813 v 0.55859 h -2.07813 V 125 h -0.64062 v -5.51172 h 2.92187 z M 190.57422,125 h -0.61719 v -4.72656 l -0.83203,2.26172 h -0.60547 l -0.83203,-2.26172 V 125 h -0.61719 v -5.51172 h 0.83203 l 0.92188,2.51172 0.91797,-2.51172 h 0.83203 z m 9.05078,0 h -2.50391 v -0.55859 h 0.94922 v -4.39453 h -0.94922 v -0.5586 h 2.50391 v 0.5586 h -0.91406 v 4.39453 h 0.91406 z m 5.13672,0 h -0.60938 v -0.58594 q -0.1875,0.30078 -0.53906,0.4961 -0.34766,0.19531 -0.73437,0.19531 -0.69922,0 -1.10547,-0.62109 -0.40625,-0.625 -0.40625,-1.58204 0,-0.89453 0.42187,-1.48046 0.42578,-0.58985 1.125,-0.58985 0.76953,0 1.23828,0.625 v -1.96875 h 0.60938 z m -0.60938,-1.24609 v -1.69141 q -0.4375,-0.70312 -1.05468,-0.70312 -0.50391,0 -0.79688,0.44921 -0.29297,0.44532 -0.29297,1.12891 0,0.70313 0.27344,1.16406 0.27734,0.45703 0.75781,0.45703 0.23047,0 0.46485,-0.125 0.23437,-0.125 0.4414,-0.375 0.20703,-0.25 0.20703,-0.30468 z M 209.72266,125 h -0.6875 l -1.08985,-1.59375 -1.1289,1.59375 h -0.64844 l 1.44922,-2.03906 -1.44922,-2.03125 h 0.69922 l 1.09375,1.58203 1.11328,-1.58203 h 0.64844 l -1.44141,2.00781 z"
     id="text19"
     style="font-size:8px;font-family:monospace;text-anchor:middle;fill:#ffffff"
     aria-label="FM Idx" />
  <path
     d="m 249.99805,125 h -3 v -5.51172 h 0.64062 v 4.95313 h 2.35938 z m 4.89843,-2.01562 h -2.79296 q 0,0.6914 0.39843,1.14062 0.40235,0.44922 0.98438,0.44922 0.55469,0 1.14453,-0.19922 l 0.10547,0.48828 q -0.53906,0.24219 -1.25781,0.24219 -0.90625,0 -1.46094,-0.58203 -0.55469,-0.58203 -0.55469,-1.57031 0,-0.96875 0.49609,-1.54297 0.5,-0.57813 1.28907,-0.57813 0.70312,0 1.17578,0.53516 0.47265,0.53515 0.47265,1.42578 z m -0.66406,-0.4961 q 0,-0.47656 -0.29687,-0.80078 -0.29688,-0.32812 -0.66407,-0.32812 -0.47265,0 -0.78515,0.3125 -0.3086,0.3125 -0.34375,0.8164 z m 5.52735,-1.55859 L 258.2168,125 h -0.55469 l -1.53516,-4.07031 h 0.66407 l 1.15234,3.23828 1.15234,-3.23828 z m 4.73828,2.05469 h -2.79297 q 0,0.6914 0.39844,1.14062 0.40234,0.44922 0.98437,0.44922 0.55469,0 1.14453,-0.19922 l 0.10547,0.48828 q -0.53906,0.24219 -1.25781,0.24219 -0.90625,0 -1.46094,-0.58203 -0.55469,-0.58203 -0.55469,-1.57031 0,-0.96875 0.4961,-1.54297 0.5,-0.57813 1.28906,-0.57813 0.70312,0 1.17578,0.53516 0.47266,0.53515 0.47266,1.42578 z m -0.66407,-0.4961 q 0,-0.47656 -0.29687,-0.80078 -0.29688,-0.32812 -0.66406,-0.32812 -0.47266,0 -0.78516,0.3125 -0.30859,0.3125 -0.34375,0.8164 z M 268.88086,125 h -1.66406 v -4.98437 h -1.0625 v -0.52735 h 1.67187 v 4.98438 h 1.05469 z"
     id="text20"
     style="font-size:8px;font-family:monospace;text-anchor:middle;fill:#ffffff"
     aria-label="Level" />
  <path
     d="m 69.203125,178.65625 q -0.648439,0.44922 -1.5039,0.44922 -1.070319,0 -1.62891,-0.73438 -0.55469,-0.73437 -0.55469,-2.125 0,-1.34375 0.539061,-2.10156 0.539069,-0.76172 1.64454,-0.76172 0.39843,0 0.78906,0.10156 0.39062,0.10157 0.6289,0.26954 l -0.21093,0.5039 q -0.55078,-0.3125 -1.20703,-0.3125 -0.76172,0 -1.13282,0.55469 -0.37109,0.55078 -0.37109,1.74609 0,2.29688 1.50391,2.29688 0.63671,0 1.30468,-0.39063 z M 73.898435,179 h -0.60546 q -0.0742,-0.24609 -0.0742,-0.65625 -0.51953,0.76172 -1.41407,0.76172 -0.45312,0 -0.80078,-0.32031 -0.34375,-0.32422 -0.34375,-0.83204 0,-0.30078 0.1211,-0.53125 0.12109,-0.23046 0.35547,-0.38671 0.23437,-0.16016 0.57031,-0.25 0.33594,-0.0937 0.79687,-0.12891 l 0.6836,-0.0547 v -0.19531 q 0,-1.04688 -0.97657,-1.04688 -0.230459,0 -0.58593,0.10157 -0.35157,0.0977 -0.60547,0.23437 l -0.16016,-0.4375 q 0.83203,-0.42578 1.54688,-0.42578 1.39062,0 1.39062,1.47266 v 1.75 q 0,0.53125 0.10156,0.94531 z m -0.71093,-1.20703 v -0.73828 q -0.82422,0.0742 -1.13282,0.14062 -0.30468,0.0625 -0.53125,0.23828 -0.22265,0.17578 -0.22265,0.47657 0,0.27343 0.1914,0.4414 0.19141,0.16797 0.48829,0.16797 0.32421,0 0.64453,-0.19141 0.320311,-0.19531 0.5625,-0.53515 z m 5.47265,-2.75391 -0.24609,0.58594 q -0.40234,-0.17578 -0.69531,-0.17578 -0.26953,0 -0.52735,0.15625 -0.25781,0.15234 -0.47656,0.4414 -0.21484,0.28516 -0.21484,0.32032 V 179 h -0.60547 v -4.07031 h 0.60547 v 0.82422 q 0.48828,-0.92188 1.26562,-0.92188 0.46094,0 0.89453,0.20703 z"
     id="text21"
     style="font-size:8px;font-family:monospace;text-anchor:middle;fill:#ffffff"
     aria-label="Car" />
  <path
     d="m 131.14649,179 h -0.61719 v -4.72656 l -0.83203,2.26172 h -0.60547 l -0.83203,-2.26172 V 179 h -0.61719 v -5.51172 h 0.83203 l 0.92188,2.51172 0.91796,-2.51172 h 0.83204 z m 3.02343,-4.16797 q 0.83985,0 1.33593,0.58594 0.4961,0.58594 0.4961,1.54297 0,0.96484 -0.4961,1.55468 -0.49609,0.58985 -1.33593,0.58985 -0.84375,0 -1.33985,-0.58594 -0.49218,-0.58984 -0.49218,-1.55859 0,-0.96094 0.4961,-1.54297 0.49609,-0.58594 1.33593,-0.58594 z m 0,3.74219 q 0.55468,0 0.875,-0.46875 0.32032,-0.46875 0.32032,-1.13672 0,-0.70313 -0.31641,-1.15625 -0.3164,-0.45313 -0.8789,-0.45313 -0.56641,0 -0.87891,0.44922 -0.3125,0.44532 -0.3125,1.16016 0,0.67969 0.31641,1.14453 0.3164,0.46094 0.87499,0.46094 z M 140.5332,179 h -0.60937 v -0.58594 q -0.1875,0.30078 -0.53906,0.4961 -0.34766,0.19531 -0.73438,0.19531 -0.69922,0 -1.10547,-0.6211 -0.40625,-0.625 -0.40625,-1.58203 0,-0.89453 0.42188,-1.48047 0.42578,-0.58984 1.125,-0.58984 0.76953,0 1.23828,0.625 v -1.96875 h 0.60937 z m -0.60937,-1.24609 v -1.69141 q -0.4375,-0.70313 -1.05468,-0.70313 -0.50391,0 -0.79688,0.44922 -0.29297,0.44532 -0.29297,1.12891 0,0.70312 0.27344,1.16406 0.27734,0.45703 0.75781,0.45703 0.23047,0 0.46485,-0.125 0.23437,-0.125 0.4414,-0.375 0.20703,-0.25 0.20703,-0.30468 z"
     id="text22"
     style="font-size:8px;font-family:monospace;text-anchor:middle;fill:#ffffff"
     aria-label="Mod" />
  <path
     d="m 190.19336,174.04687 h -2.28125 v 1.80079 h 2.07813 v 0.55859 h -2.07813 V 179 h -0.64062 v -5.51172 h 2.92187 z M 195.03321,179 h -0.60938 v -0.58594 q -0.1875,0.30078 -0.53906,0.4961 -0.34766,0.19531 -0.73438,0.19531 -0.69922,0 -1.10547,-0.6211 -0.40625,-0.625 -0.40625,-1.58203 0,-0.89453 0.42188,-1.48047 0.42578,-0.58984 1.125,-0.58984 0.76953,0 1.23828,0.625 v -1.96875 h 0.60938 z m -0.60938,-1.24609 v -1.69141 q -0.4375,-0.70313 -1.05469,-0.70313 -0.5039,0 -0.79687,0.44922 -0.29297,0.44532 -0.29297,1.12891 0,0.70312 0.27344,1.16406 0.27734,0.45703 0.75781,0.45703 0.23047,0 0.46484,-0.125 0.23438,-0.125 0.44141,-0.375 0.20703,-0.25 0.20703,-0.30468 z m 2.89844,-2.29688 q 0.20312,-0.28125 0.54687,-0.45312 0.34766,-0.17188 0.73047,-0.17188 0.71094,0 1.10547,0.57031 0.39844,0.57032 0.39844,1.5 0,0.94141 -0.42188,1.57422 -0.42187,0.62891 -1.1289,0.62891 -0.37891,0 -0.71094,-0.1875 -0.32813,-0.19141 -0.51953,-0.50391 V 179 h -0.60938 v -5.51172 h 0.60938 z m 0,0.60547 v 1.69141 q 0.17187,0.34375 0.46484,0.57421 0.29297,0.23047 0.60547,0.23047 0.49219,0 0.78125,-0.46875 0.29297,-0.46875 0.29297,-1.15234 0,-0.70313 -0.27734,-1.14063 -0.27735,-0.4375 -0.77344,-0.4375 -0.64453,0 -1.09375,0.70313 z M 205.04883,179 h -0.80078 l -1.72656,-2.02344 -0.39844,0.34375 V 179 h -0.60938 v -5.51172 h 0.60938 v 3.16016 l 1.91016,-1.71875 h 0.77734 l -1.85547,1.66406 z"
     id="text23"
     style="font-size:8px;font-family:monospace;text-anchor:middle;fill:#ffffff"
     aria-label="Fdbk" />
  <path
     d="m 38.982422,328.65625 q -0.648438,0.44922 -1.503906,0.44922 -1.070313,0 -1.628907,-0.73438 -0.554687,-0.73437 -0.554687,-2.125 0,-1.34375 0.539062,-2.10156 0.539063,-0.76172 1.644532,-0.76172 0.398437,0 0.789062,0.10156 0.390625,0.10157 0.628906,0.26954 l -0.210937,0.5039 q -0.550781,-0.3125 -1.207031,-0.3125 -0.761719,0 -1.132813,0.55469 -0.371094,0.55078 -0.371094,1.74609 0,2.29688 1.503907,2.29688 0.636718,0 1.304687,-0.39063 z M 43.279297,329 h -1.664063 v -4.98438 h -1.0625 v -0.52734 h 1.671875 v 4.98438 h 1.054688 z m 5.496094,0 h -0.800782 l -1.726562,-2.02344 -0.398438,0.34375 V 329 h -0.609375 v -5.51172 h 0.609375 v 3.16016 l 1.910157,-1.71875 h 0.777343 l -1.855468,1.66406 z"
     id="text32"
     style="font-size:8px;font-family:monospace;text-anchor:middle;fill:#ffffff"
     aria-label="Clk" />
  <path
     d="m 89.384766,329 h -0.800782 l -1.617187,-2.50391 H 86.255859 V 329 h -0.640625 v -5.51172 h 1.558594 q 0.785156,0 1.238281,0.38281 0.457032,0.37891 0.457032,1.0586 0,0.5039 -0.332032,0.89843 -0.332031,0.39063 -0.914062,0.53125 z m -3.128907,-3.0625 h 0.808594 q 0.507813,0 0.824219,-0.27344 0.316406,-0.27734 0.316406,-0.69531 0,-0.92188 -1.125,-0.92188 h -0.824219 z m 6.894532,-0.42578 q -0.511719,-0.16797 -0.964844,-0.16797 -0.496094,0 -0.785156,0.16797 -0.289063,0.16406 -0.289063,0.4414 0,0.17579 0.132813,0.3086 0.132812,0.1289 0.53125,0.24219 l 0.582031,0.16796 q 0.402344,0.11329 0.65625,0.27344 0.253906,0.15625 0.378906,0.38281 0.128906,0.22266 0.128906,0.51954 0,0.58203 -0.488281,0.92187 -0.488281,0.33594 -1.242187,0.33594 -0.75,0 -1.238282,-0.22656 l 0.117188,-0.52735 q 0.511719,0.24219 1.097656,0.24219 0.507813,0 0.824219,-0.1875 0.320312,-0.19141 0.320312,-0.50391 0,-0.21093 -0.160156,-0.375 -0.15625,-0.16797 -0.742187,-0.34765 -0.472657,-0.14453 -0.695313,-0.21485 -0.222656,-0.0742 -0.414062,-0.21484 -0.191407,-0.14063 -0.292969,-0.33594 -0.09766,-0.19531 -0.09766,-0.4375 0,-0.52734 0.460937,-0.83594 0.460938,-0.30859 1.222656,-0.30859 0.492188,0 1.09375,0.16797 z m 5.265625,3.30469 q -0.613282,0.28125 -1.207032,0.28125 -1.089843,0 -1.089843,-1.15235 v -2.48828 h -0.78125 v -0.52734 h 0.78125 v -1.11328 h 0.59375 v 1.11328 h 1.382812 v 0.52734 h -1.382812 v 2.32813 q 0,0.37109 0.164062,0.57812 0.164063,0.20313 0.445313,0.20313 0.5,0 0.988281,-0.22266 z"
     id="text33"
     style="font-size:8px;font-family:monospace;text-anchor:middle;fill:#ffffff"
     aria-label="Rst" />
  <path
     d="m 130.99805,323.48828 h 1.39843 q 0.79297,0 1.26954,0.39844 0.47656,0.39844 0.47656,1.09765 0,0.70313 -0.47656,1.125 -0.47266,0.41797 -1.24219,0.41797 h -0.78516 V 329 h -0.64062 z m 0.64062,2.48047 h 0.69531 q 1.12891,0 1.12891,-0.94531 0,-0.4375 -0.30859,-0.70703 -0.30469,-0.26954 -0.78907,-0.26954 h -0.72656 z m 5.82422,-2.57813 q 0.17188,0 0.29297,0.125 0.12109,0.1211 0.12109,0.29297 0,0.17969 -0.12109,0.30078 -0.11719,0.1211 -0.29297,0.1211 -0.16016,0 -0.28516,-0.125 -0.12109,-0.12891 -0.12109,-0.29688 0,-0.16797 0.12109,-0.29297 0.125,-0.125 0.28516,-0.125 z M 137.75977,329 h -0.60938 v -3.54297 h -1.19922 v -0.52734 h 1.8086 z m 5.85546,-0.18359 q -0.61328,0.28125 -1.20703,0.28125 -1.08984,0 -1.08984,-1.15235 v -2.48828 h -0.78125 v -0.52734 h 0.78125 v -1.11328 h 0.59375 v 1.11328 h 1.38281 v 0.52734 h -1.38281 v 2.32813 q 0,0.37109 0.16406,0.57812 0.16406,0.20313 0.44531,0.20313 0.5,0 0.98829,-0.22266 z m 4.7461,0.0469 q -0.53125,0.24219 -1.16797,0.24219 -0.96094,0 -1.53516,-0.58203 -0.57031,-0.58594 -0.57031,-1.55469 0,-0.96875 0.57422,-1.55078 0.57812,-0.58594 1.51562,-0.58594 0.61329,0 1.16797,0.21484 l -0.16015,0.50391 q -0.55469,-0.19141 -1,-0.19141 -0.67188,0 -1.06641,0.4336 -0.39062,0.43359 -0.39062,1.17578 0,0.67969 0.40625,1.14453 0.40625,0.46094 1.05859,0.46094 0.51562,0 1.0625,-0.19922 z M 153.17773,329 h -0.60937 v -2.60938 q 0,-0.54296 -0.17578,-0.78515 -0.17188,-0.2461 -0.54297,-0.2461 -0.55859,0 -1.19922,0.69532 V 329 h -0.60937 v -5.51172 h 0.60937 v 2.03906 q 0.65625,-0.69531 1.38281,-0.69531 1.14453,0 1.14453,1.38281 z"
     id="text34"
     style="font-size:8px;font-family:monospace;text-anchor:middle;fill:#ffffff"
     aria-label="Pitch" />
  <path
     d="m 188.42383,329 h -2.50391 v -0.55859 h 0.94922 v -4.39454 h -0.94922 v -0.55859 h 2.50391 v 0.55859 h -0.91406 v 4.39454 h 0.91406 z m 5.13672,0 h -0.60938 v -0.58594 q -0.1875,0.30078 -0.53906,0.4961 -0.34766,0.19531 -0.73438,0.19531 -0.69921,0 -1.10546,-0.6211 -0.40625,-0.625 -0.40625,-1.58203 0,-0.89453 0.42187,-1.48047 0.42578,-0.58984 1.125,-0.58984 0.76953,0 1.23828,0.625 v -1.96875 h 0.60938 z m -0.60938,-1.24609 v -1.69141 q -0.4375,-0.70313 -1.05469,-0.70313 -0.5039,0 -0.79687,0.44922 -0.29297,0.44532 -0.29297,1.12891 0,0.70312 0.27344,1.16406 0.27734,0.45703 0.75781,0.45703 0.23047,0 0.46484,-0.125 0.23438,-0.125 0.44141,-0.375 0.20703,-0.25 0.20703,-0.30468 z M 198.52148,329 h -0.6875 L 196.74414,327.40625 195.61523,329 h -0.64843 l 1.44922,-2.03906 -1.44922,-2.03125 h 0.69922 l 1.09375,1.58203 1.11328,-1.58203 h 0.64843 l -1.4414,2.00781 z"
     id="text35"
     style="font-size:8px;font-family:monospace;text-anchor:middle;fill:#ffffff"
     aria-label="Idx" />
  <path
     d="m 236.57422,329 h -0.61719 v -4.72656 l -0.83203,2.26172 h -0.60547 l -0.83203,-2.26172 V 329 h -0.61719 v -5.51172 h 0.83203 l 0.92188,2.51172 0.91797,-2.51172 h 0.83203 z m 3.02344,-4.16797 q 0.83984,0 1.33593,0.58594 0.4961,0.58594 0.4961,1.54297 0,0.96484 -0.4961,1.55468 -0.49609,0.58985 -1.33593,0.58985 -0.84375,0 -1.33985,-0.58594 -0.49219,-0.58984 -0.49219,-1.55859 0,-0.96094 0.4961,-1.54297 0.49609,-0.58594 1.33594,-0.58594 z m 0,3.74219 q 0.55468,0 0.875,-0.46875 0.32031,-0.46875 0.32031,-1.13672 0,-0.70313 -0.31641,-1.15625 -0.3164,-0.45313 -0.8789,-0.45313 -0.56641,0 -0.87891,0.44922 -0.3125,0.44532 -0.3125,1.16016 0,0.67969 0.31641,1.14453 0.3164,0.46094 0.875,0.46094 z M 245.96094,329 h -0.60938 v -0.58594 q -0.1875,0.30078 -0.53906,0.4961 -0.34766,0.19531 -0.73438,0.19531 -0.69921,0 -1.10546,-0.6211 -0.40625,-0.625 -0.40625,-1.58203 0,-0.89453 0.42187,-1.48047 0.42578,-0.58984 1.125,-0.58984 0.76953,0 1.23828,0.625 v -1.96875 h 0.60938 z m -0.60938,-1.24609 v -1.69141 q -0.4375,-0.70313 -1.05469,-0.70313 -0.5039,0 -0.79687,0.44922 -0.29297,0.44532 -0.29297,1.12891 0,0.70312 0.27344,1.16406 0.27734,0.45703 0.75781,0.45703 0.23047,0 0.46484,-0.125 0.23438,-0.125 0.44141,-0.375 0.20703,-0.25 0.20703,-0.30468 z M 251.38672,329 h -0.80078 l -1.61719,-2.50391 h -0.71094 V 329 h -0.64062 v -5.51172 h 1.55859 q 0.78516,0 1.23828,0.38281 0.45703,0.37891 0.45703,1.0586 0,0.5039 -0.33203,0.89843 -0.33203,0.39063 -0.91406,0.53125 z m -3.12891,-3.0625 h 0.8086 q 0.50781,0 0.82421,-0.27344 0.31641,-0.27734 0.31641,-0.69531 0,-0.92188 -1.125,-0.92188 h -0.82422 z"
     id="text36"
     style="font-size:8px;font-family:monospace;text-anchor:middle;fill:#ffffff"
     aria-label="ModR" />
  <path
     d="m 286.58203,328.65625 q -0.64844,0.44922 -1.50391,0.44922 -1.07031,0 -1.6289,-0.73438 -0.55469,-0.73437 -0.55469,-2.125 0,-1.34375 0.53906,-2.10156 0.53907,-0.76172 1.64453,-0.76172 0.39844,0 0.78907,0.10156 0.39062,0.10157 0.6289,0.26954 l -0.21093,0.5039 q -0.55079,-0.3125 -1.20704,-0.3125 -0.76171,0 -1.13281,0.55469 -0.37109,0.55078 -0.37109,1.74609 0,2.29688 1.5039,2.29688 0.63672,0 1.30469,-0.39063 z M 291.27734,329 h -0.60547 q -0.0742,-0.24609 -0.0742,-0.65625 -0.51954,0.76172 -1.41407,0.76172 -0.45312,0 -0.80078,-0.32031 -0.34375,-0.32422 -0.34375,-0.83204 0,-0.30078 0.1211,-0.53125 0.12109,-0.23046 0.35546,-0.38671 0.23438,-0.16016 0.57032,-0.25 0.33593,-0.0937 0.79687,-0.12891 l 0.6836,-0.0547 v -0.19531 q 0,-1.04688 -0.97657,-1.04688 -0.23047,0 -0.58593,0.10157 -0.35157,0.0976 -0.60547,0.23437 l -0.16016,-0.4375 q 0.83203,-0.42578 1.54688,-0.42578 1.39062,0 1.39062,1.47266 v 1.75 q 0,0.53125 0.10156,0.94531 z m -0.71093,-1.20703 v -0.73828 q -0.82422,0.0742 -1.13282,0.14062 -0.30468,0.0625 -0.53125,0.23828 -0.22265,0.17578 -0.22265,0.47657 0,0.27343 0.1914,0.4414 0.19141,0.16797 0.48828,0.16797 0.32422,0 0.64454,-0.19141 0.32031,-0.19531 0.5625,-0.53515 z m 5.47265,-2.75391 -0.24609,0.58594 q -0.40235,-0.17578 -0.69531,-0.17578 -0.26954,0 -0.52735,0.15625 -0.25781,0.15234 -0.47656,0.4414 -0.21484,0.28516 -0.21484,0.32032 V 329 h -0.60547 v -4.07031 h 0.60547 v 0.82422 q 0.48828,-0.92188 1.26562,-0.92188 0.46094,0 0.89453,0.20703 z M 301.38672,329 h -0.80078 l -1.61719,-2.50391 h -0.71094 V 329 h -0.64062 v -5.51172 h 1.55859 q 0.78516,0 1.23828,0.38281 0.45703,0.37891 0.45703,1.0586 0,0.5039 -0.33203,0.89843 -0.33203,0.39063 -0.91406,0.53125 z m -3.12891,-3.0625 h 0.8086 q 0.50781,0 0.82421,-0.27344 0.31641,-0.27734 0.31641,-0.69531 0,-0.92188 -1.125,-0.92188 h -0.82422 z"
     id="text37"
     style="font-size:8px;font-family:monospace;text-anchor:middle;fill:#ffffff"
     aria-label="CarR" />
  <path
     d="m 480.65039,205.51172 h -3 V 200 h 0.64063 v 4.95313 h 2.35937 z m 4.89844,-2.01563 h -2.79297 q 0,0.69141 0.39843,1.14063 0.40235,0.44922 0.98438,0.44922 0.55469,0 1.14453,-0.19922 l 0.10547,0.48828 q -0.53906,0.24219 -1.25781,0.24219 -0.90625,0 -1.46094,-0.58203 -0.55469,-0.58203 -0.55469,-1.57032 0,-0.96875 0.4961,-1.54296 0.5,-0.57813 1.28906,-0.57813 0.70313,0 1.17578,0.53516 0.47266,0.53515 0.47266,1.42578 z M 484.88477,203 q 0,-0.47656 -0.29688,-0.80078 -0.29687,-0.32813 -0.66406,-0.32813 -0.47266,0 -0.78516,0.3125 -0.30859,0.3125 -0.34375,0.81641 z m 5.34375,2.51172 h -0.60938 v -2.60938 q 0,-0.54296 -0.17577,-0.78515 -0.17188,-0.2461 -0.54298,-0.2461 -0.5586,0 -1.19922,0.69532 v 2.94531 h -0.60938 v -4.07031 h 0.60938 v 0.59765 q 0.65625,-0.69531 1.38281,-0.69531 1.14453,0 1.14453,1.38281 z"
     id="text38"
     style="font-size:8px;font-family:monospace;text-anchor:middle;fill:#ffffff"
     aria-label="Len" />
  <path
     d="m 480.79883,329 h -3 v -5.51172 h 0.64062 v 4.95313 h 2.35938 z m 4.96094,-4.07031 L 484.2168,329 h -0.55469 l -1.53516,-4.07031 h 0.66407 l 1.15234,3.23828 1.15234,-3.23828 z M 490.08008,329 h -1.66406 v -4.98438 h -1.0625 v -0.52734 h 1.67187 v 4.98438 h 1.05469 z"
     id="text39"
     style="font-size:8px;font-family:monospace;text-anchor:middle;fill:#ffffff"
     aria-label="Lvl" />
  <path
     d="m 515.18945,323.38281 q 0.92578,0 1.41016,0.73438 0.48828,0.73047 0.48828,2.1289 0,1.39063 -0.48437,2.125 -0.48438,0.73438 -1.41407,0.73438 -0.92187,0 -1.41015,-0.73047 -0.48438,-0.73438 -0.48438,-2.12891 0,-1.39453 0.48438,-2.1289 0.48437,-0.73438 1.41015,-0.73438 z m 0,5.16016 q 1.21875,0 1.21875,-2.29688 0,-2.30078 -1.21875,-2.30078 -0.59375,0 -0.90625,0.59766 -0.30859,0.59375 -0.30859,1.70312 0,1.1211 0.30859,1.71094 0.3086,0.58594 0.90625,0.58594 z M 521.56836,329 h -0.60938 v -0.60156 q -0.65625,0.69922 -1.38281,0.69922 -1.14453,0 -1.14453,-1.38672 v -2.78125 h 0.60938 v 2.60547 q 0,0.51953 0.16406,0.77734 0.16406,0.25391 0.55469,0.25391 0.55859,0 1.19921,-0.69532 v -2.9414 h 0.60938 z m 4.84766,-0.18359 q -0.61329,0.28125 -1.20704,0.28125 -1.08984,0 -1.08984,-1.15235 v -2.48828 h -0.78125 v -0.52734 h 0.78125 v -1.11328 h 0.59375 v 1.11328 h 1.38281 v 0.52734 h -1.38281 v 2.32813 q 0,0.37109 0.16406,0.57812 0.16407,0.20313 0.44532,0.20313 0.5,0 0.98828,-0.22266 z"
     id="text42"
     style="font-size:8px;font-family:monospace;text-anchor:middle;fill:#ffffff"
     aria-label="Out" />
  <path
     d="m 362.29834,119 h -0.70068 l -1.41504,-2.19092 h -0.62207 V 119 H 359 v -4.82275 h 1.36377 q 0.68701,0 1.0835,0.33496 0.3999,0.33154 0.3999,0.92627 0,0.44091 -0.29053,0.78613 -0.29053,0.3418 -0.7998,0.46484 z m -2.73779,-2.67969 h 0.70752 q 0.44433,0 0.72119,-0.23926 0.27685,-0.24267 0.27685,-0.60839 0,-0.80664 -0.98437,-0.80664 h -0.72119 z M 366.04102,119 h -0.62207 l -1.7295,-3.80762 V 119 h -0.56054 v -4.82275 h 0.62548 l 1.73633,3.77343 v -3.77343 h 0.5503 z m 1.36035,-4.82275 h 0.95019 q 0.94678,0 1.51758,0.64599 0.5708,0.64258 0.5708,1.76709 0,1.14844 -0.58105,1.78076 Q 369.28125,119 368.37549,119 h -0.97412 z m 0.56054,4.33398 h 0.39649 q 0.68701,0 1.08691,-0.50928 0.3999,-0.50927 0.3999,-1.41162 0,-0.89551 -0.40332,-1.4082 -0.3999,-0.51611 -1.08349,-0.51611 h -0.39649 z"
     id="text43"
     style="font-size:7px;font-family:monospace;text-anchor:middle;fill:#ffffff"
     aria-label="RND" />
  <path
     d="m 330.87085,118.91455 h -2.19092 v -0.48877 h 0.83057 v -3.84521 h -0.83057 v -0.48877 h 2.19092 v 0.48877 h -0.79981 v 3.84521 h 0.79981 z m 4.5083,0 h -0.5332 v -2.2832 q 0,-0.4751 -0.15381,-0.68701 -0.15039,-0.21534 -0.4751,-0.21534 -0.48877,0 -1.04932,0.6084 v 2.57715 h -0.5332 v -3.56152 h 0.5332 v 0.52295 q 0.57422,-0.6084 1.20997,-0.6084 1.00146,0 1.00146,1.20996 z m 4.23486,-0.16064 Q 339.07739,119 338.55786,119 q -0.95361,0 -0.95361,-1.0083 v -2.17725 h -0.6836 v -0.46142 h 0.6836 v -0.97412 h 0.51953 v 0.97412 h 1.20996 v 0.46142 h -1.20996 v 2.03711 q 0,0.32471 0.14355,0.50586 0.14356,0.17774 0.38965,0.17774 0.4375,0 0.86475,-0.19483 z"
     id="text50"
     style="font-size:7px;font-family:monospace;text-anchor:middle;fill:#ffffff"
     aria-label="Int" />
  <path
     d="m 405.04801,119 h -2.19092 v -0.48877 h 0.83057 v -3.84521 h -0.83057 v -0.48877 h 2.19092 v 0.48877 h -0.79981 v 3.84521 h 0.79981 z m 4.58349,0 h -0.62207 l -1.72949,-3.80762 V 119 h -0.56055 v -4.82275 h 0.62549 l 1.73633,3.77343 v -3.77343 h 0.55029 z m 3.81787,0 h -2.19091 v -0.48877 h 0.83056 v -3.84521 h -0.83056 v -0.48877 h 2.19091 v 0.48877 h -0.7998 v 3.84521 h 0.7998 z m 4.90137,-4.36816 h -1.48681 V 119 h -0.55713 v -4.36816 h -1.49366 v -0.45459 h 3.5376 z"
     id="text51"
     style="font-size:7px;font-family:monospace;text-anchor:middle;fill:#ffffff"
     aria-label="INIT" />
  <path
     style="font-weight:bold;font-size:18.6667px;font-family:Sans;-inkscape-font-specification:'Sans Bold';text-align:center;text-anchor:middle;fill:#ffffff;stroke-width:1.002"
     d="m 37.04398,26.238138 h -6.2435 v 2.524744 h 5.78777 v 2.625005 h -5.78777 v 5.796885 H 27.3187 V 23.613133 h 9.72528 z m 16.64326,10.946634 h -3.48178 v -9.087255 l -2.51563,5.897146 h -2.41537 l -2.51563,-5.897146 v 9.087255 H 39.45935 V 23.613133 h 4.06511 l 3.05339,6.808606 3.04427,-6.808606 h 4.06512 z m 13.21617,0 h -9.05992 v -2.369795 h 2.86199 v -7.17319 h -2.86199 v -2.214848 q 0.65625,0 1.25782,-0.07292 0.60156,-0.08203 1.0026,-0.273438 0.47396,-0.227865 0.71094,-0.592449 0.23698,-0.364584 0.27344,-0.91146 h 3.01693 v 11.238302 h 2.79819 z m 14.1094,-4.621102 q 0,1.048179 -0.38281,1.968754 -0.38282,0.920575 -1.07553,1.549482 -0.73828,0.67448 -1.71354,1.02995 -0.96615,0.355469 -2.26954,0.355469 -1.22135,0 -2.23308,-0.328126 -1.0026,-0.33724 -1.72265,-1.020835 -0.82943,-0.783855 -1.26693,-2.023441 -0.4375,-1.239585 -0.4375,-2.962245 0,-1.786461 0.41015,-3.17188 0.41016,-1.38542 1.33985,-2.451828 0.89323,-1.020835 2.31511,-1.58594 1.43099,-0.565105 3.39974,-0.565105 0.66537,0 1.45834,0.09115 0.79297,0.09115 1.02995,0.136719 v 2.670577 H 79.51801 Q 79.27192,26.137882 78.67947,25.992048 78.09614,25.8371 77.34874,25.8371 q -1.75,0 -2.72527,0.856772 -0.97526,0.856773 -1.17578,2.388025 0.70183,-0.419271 1.47657,-0.67448 0.78385,-0.264323 1.6862,-0.264323 0.79297,0 1.46745,0.182291 0.68359,0.182292 1.26693,0.583335 0.75651,0.528647 1.21224,1.421877 0.45573,0.893231 0.45573,2.233077 z m -4.14714,2.050785 q 0.28255,-0.309896 0.44661,-0.729168 0.17318,-0.428386 0.17318,-1.157554 0,-0.665366 -0.19141,-1.084637 -0.1914,-0.428386 -0.52864,-0.683595 -0.32813,-0.255209 -0.77475,-0.346355 -0.44661,-0.100261 -0.92057,-0.100261 -0.40104,0 -0.83854,0.09115 -0.4375,0.09115 -0.80209,0.227865 0,0.09115 -0.009,0.300782 -0.009,0.209636 -0.009,0.528647 0,1.121096 0.21875,1.850264 0.22787,0.720053 0.60156,1.102866 0.25521,0.282553 0.60157,0.419272 0.34635,0.127604 0.7474,0.127604 0.30078,0 0.66536,-0.136719 0.36458,-0.136719 0.61979,-0.410157 z M 94.5571,32.91914 q 0,2.005212 -1.70443,3.263027 -1.69531,1.2487 -4.61199,1.2487 -1.6862,0 -2.94401,-0.291668 -1.2487,-0.300781 -2.34245,-0.756511 v -3.253912 h 0.38281 q 1.08464,0.865887 2.42448,1.330731 1.34896,0.464845 2.58855,0.464845 0.31901,0 0.83854,-0.05469 0.51953,-0.05469 0.84766,-0.182292 0.40104,-0.164063 0.65625,-0.410157 0.26432,-0.246094 0.26432,-0.729168 0,-0.446615 -0.38281,-0.765626 -0.3737,-0.328126 -1.10287,-0.501303 -0.76562,-0.182292 -1.62239,-0.33724 -0.84766,-0.164063 -1.59506,-0.410157 -1.71354,-0.555991 -2.47006,-1.503909 -0.74739,-0.957033 -0.74739,-2.369796 0,-1.895837 1.69531,-3.08985 1.70443,-1.203127 4.37501,-1.203127 1.33985,0 2.64323,0.264324 1.31251,0.255208 2.26954,0.647136 v 3.126308 h -0.3737 q -0.82031,-0.656251 -2.01432,-1.093752 -1.1849,-0.446615 -2.42449,-0.446615 -0.4375,0 -0.875,0.0638 -0.42839,0.05469 -0.82943,0.21875 -0.35547,0.136719 -0.61068,0.419272 -0.25521,0.273438 -0.25521,0.628907 0,0.537762 0.41016,0.829429 0.41016,0.282552 1.54948,0.519532 0.7474,0.154948 1.431,0.300782 0.69271,0.145833 1.48568,0.401042 1.55859,0.510418 2.29687,1.394534 0.7474,0.875001 0.7474,2.27865 z m 12.21357,4.265632 H 96.95424 V 23.613133 h 9.81643 v 2.625005 h -6.33465 v 2.342452 h 5.87892 v 2.625005 h -5.87892 v 3.354173 h 6.33465 z m 11.4935,-3.345058 q 0.51042,-0.619792 0.75651,-1.458336 0.2461,-0.847657 0.2461,-1.986982 0,-1.221357 -0.28255,-2.078129 -0.28256,-0.856772 -0.73829,-1.385419 -0.46484,-0.546876 -1.07552,-0.79297 -0.60156,-0.246095 -1.25781,-0.246095 -0.66537,0 -1.25782,0.23698 -0.58333,0.23698 -1.07552,0.783856 -0.45573,0.510417 -0.7474,1.412762 -0.28255,0.893231 -0.28255,2.078129 0,1.212242 0.27344,2.069014 0.28255,0.847658 0.73828,1.38542 0.45573,0.537761 1.06641,0.79297 0.61068,0.255209 1.28516,0.255209 0.67448,0 1.28515,-0.255209 0.61068,-0.264324 1.06641,-0.8112 z m 0.3737,3.180996 q 0.0365,0.902345 0.49219,1.294273 0.45573,0.391928 1.5586,0.391928 0.37369,0 0.88411,-0.127605 0.51042,-0.127604 0.71094,-0.227865 h 0.34636 v 2.406255 q -0.51042,0.118489 -1.11199,0.209635 -0.59244,0.09115 -1.82292,0.09115 -1.08463,0 -1.89583,-0.273438 -0.80209,-0.264323 -1.33985,-0.756511 -0.52864,-0.483074 -0.79297,-1.139325 -0.26432,-0.656252 -0.30989,-1.458336 -3.04428,-0.173178 -4.74871,-2.032556 -1.69532,-1.868493 -1.69532,-4.994801 0,-3.272141 1.85938,-5.167978 1.85938,-1.904951 5.13152,-1.904951 3.26303,0 5.13152,1.904951 1.86849,1.895837 1.86849,5.167978 0,2.415369 -1.09375,4.174487 -1.09375,1.750003 -3.17188,2.442713 z"
     id="text58"
     aria-label="FM16SEQ" />
  <g
     transform="matrix(1.6722989,0,0,1.6988345,437.54894,-401.02245)"
     id="layer1-7"
     inkscape:label="Layer 1">
    <rect
       y="256.12662"
       x="29.52006"
       height="1.6536458"
       width="7.2760415"
       id="rect823"
       style="fill:#ffffff;fill-opacity:1;stroke:none;stroke-width:0.710598;stroke-miterlimit:4;stroke-dasharray:none;stroke-opacity:1" />
    <rect
       y="256.57309"
       x="28.643627"
       height="0.51248246"
       width="9.0803432"
       id="rect821"
       style="fill:#ffffff;fill-opacity:1;stroke:none;stroke-width:0.176948;stroke-miterlimit:4;stroke-dasharray:none;stroke-opacity:1" />
    <ellipse
       ry="5.8699069"
       rx="6.1973119"
       cy="250.78661"
       cx="33.068214"
       id="path817"
       style="fill:#ffffff;fill-opacity:1;stroke:none;stroke-width:0.294763;stroke-miterlimit:4;stroke-dasharray:none;stroke-opacity:1" />
    <rect
       y="257.08557"
       x="28.265131"
       height="4.3030396"
       width="9.541522"
       id="rect819"
       style="fill:#ffffff;fill-opacity:1;stroke:none;stroke-width:0.236954;stroke-miterlimit:4;stroke-dasharray:none;stroke-opacity:1" />
    <path
       style="fill:#54b6fc;stroke-width:0.434238"
       d="m 28.040353,261.67777 c -0.05624,-0.1049 -0.09132,-1.05343 -0.09132,-2.46939 0,-2.62823 -0.06483,-2.41007 0.868669,-2.92327 0.298327,-0.16393 0.542417,-0.32331 0.542417,-0.35402 0,-0.0309 -0.162318,-0.16826 -0.360716,-0.30583 -1.028016,-0.71241 -2.013971,-2.17766 -2.338877,-3.47584 -0.201325,-0.80442 -0.134174,-2.39054 0.13451,-3.17721 1.033244,-3.02511 4.386038,-4.85502 7.661927,-4.18175 2.136444,0.4391 3.832748,1.7715 4.690824,3.6846 0.361925,0.8069 0.484002,1.41362 0.481552,2.39329 -0.0043,1.76252 -0.804317,3.40089 -2.221636,4.55038 -0.254647,0.20641 -0.463011,0.4065 -0.463011,0.44439 0,0.038 0.188503,0.17638 0.418915,0.30774 0.88078,0.5022 0.815782,0.26078 0.815782,3.02947 0,1.77735 -0.02862,2.465 -0.105831,2.54221 -0.07977,0.0796 -1.316324,0.10568 -5.023888,0.10568 -4.772077,0 -4.920765,-0.006 -5.009351,-0.17069 z m 4.778272,-1.34136 c 0.02029,-0.72066 0.0537,-0.91258 0.172084,-0.98706 0.106484,-0.067 0.185415,-0.0605 0.286623,0.0243 0.110188,0.0915 0.139673,0.2998 0.139673,0.98705 v 0.87111 h 2.031202 c 1.725502,0 2.038854,-0.0189 2.082046,-0.13248 0.118689,-0.30933 -0.0843,-0.54865 -1.048716,-1.23644 -0.806681,-0.57531 -0.992,-0.74828 -0.992,-0.92603 0,-0.17285 0.05069,-0.22425 0.242529,-0.24644 l 0.242526,-0.0279 v -0.72694 c 0,-0.82266 0.11329,-1.0851 0.425635,-0.98597 0.182308,0.0579 0.191777,0.11143 0.193075,1.09112 6.9e-4,0.56673 0.03051,1.07216 0.06615,1.12322 0.107317,0.15365 0.691445,0.5686 0.80071,0.5686 0.07253,0 0.101903,-0.37768 0.101903,-1.30922 0,-1.48548 0.04525,-1.38286 -0.823095,-1.86798 l -0.514419,-0.28745 -0.896236,0.29918 c -0.869904,0.29041 -0.937695,0.2992 -2.307746,0.29891 -1.355532,-2.1e-4 -1.441911,-0.0113 -2.177833,-0.27426 l -0.766317,-0.27401 -0.710913,0.40097 -0.710915,0.40096 v 1.35053 c 0,0.7428 0.02272,1.35058 0.05046,1.35058 0.02775,0 0.226187,-0.10309 0.440962,-0.22887 l 0.390524,-0.22887 0.0014,-0.89557 c 0.0016,-1.14751 0.206306,-1.60144 0.561721,-1.24599 0.108544,0.1085 0.142513,0.31853 0.142513,0.88028 v 0.7378 l 0.290718,-0.0471 c 0.315025,-0.0511 0.543194,0.11558 0.458905,0.33517 -0.02597,0.0676 -0.562393,0.43193 -1.192126,0.80964 -1.113533,0.66789 -1.144968,0.69508 -1.144968,0.9907 v 0.30396 h 2.069441 2.069444 z m 2.265337,-4.35748 c 1.820054,-0.60937 3.301106,-2.14018 3.754405,-3.88051 0.141672,-0.5439 0.182494,-2.03256 0.06101,-2.22398 -0.0547,-0.0862 -0.514454,-0.10647 -1.993182,-0.0881 l -1.922097,0.0243 -0.285943,0.79373 c -0.250451,0.69526 -0.311823,0.79372 -0.494567,0.79372 -0.193669,0 -0.219614,-0.0593 -0.361764,-0.82692 -0.233437,-1.26061 -0.264438,-1.24093 -0.550459,0.34982 -0.250913,1.39568 -0.282965,1.49134 -0.499452,1.49134 -0.208819,0 -0.19843,0.0455 -0.591264,-2.59459 -0.179846,-1.20877 -0.366691,-2.21079 -0.415197,-2.22673 -0.04851,-0.0164 -0.346157,0.47702 -0.661443,1.09535 l -0.573255,1.12428 -1.649981,0.0244 -1.649981,0.0243 -0.05961,0.3176 c -0.100912,0.53789 0.02055,1.63287 0.25608,2.31038 0.480987,1.38307 1.462121,2.47313 2.838905,3.15409 1.070426,0.52942 1.68831,0.6568 2.998555,0.61816 0.870867,-0.027 1.189545,-0.0752 1.799239,-0.27931 z m -2.582339,-0.34598 c -0.501349,-0.14204 -0.612279,-0.23104 -0.568647,-0.45582 0.02803,-0.14447 0.130451,-0.16555 0.868148,-0.17909 0.460004,-0.008 0.975273,-0.0281 1.145044,-0.0441 0.276178,-0.0243 0.311494,-0.006 0.335474,0.20237 0.023,0.19722 -0.02543,0.25187 -0.329357,0.37355 -0.522805,0.20913 -0.965587,0.24078 -1.450662,0.1031 z m -1.6422,-2.07469 c -0.09701,-0.0972 -0.176384,-0.25567 -0.176384,-0.35282 0,-0.24453 0.308426,-0.52913 0.573253,-0.52913 0.264818,0 0.573252,0.28468 0.573252,0.52913 0,0.24455 -0.308429,0.52918 -0.573252,0.52918 -0.121275,0 -0.299857,-0.0793 -0.396869,-0.17636 z m 3.439517,-0.0882 c -0.232761,-0.23267 -0.222508,-0.40285 0.0401,-0.66546 0.243582,-0.24345 0.329798,-0.25996 0.605107,-0.11502 0.242042,0.12748 0.321863,0.24591 0.323575,0.48022 0.0031,0.43406 -0.63668,0.63239 -0.968767,0.30029 z m -1.151475,-4.27736 c 0.296559,-1.78581 0.575578,-1.83207 0.874871,-0.14501 0.09772,0.55084 0.197295,1.02113 0.221263,1.04511 0.08271,0.0828 0.212362,-0.0613 0.273139,-0.30344 0.117052,-0.46642 0.107419,-0.46436 2.176972,-0.46436 2.188984,0 2.146871,0.0162 1.845872,-0.66529 -0.655344,-1.4815 -2.160669,-2.71162 -3.887876,-3.17706 -0.773684,-0.20858 -2.314597,-0.21425 -3.086746,-0.0113 -1.862761,0.48917 -3.433992,1.84034 -4.06194,3.49292 l -0.172218,0.45328 1.47768,-0.0243 1.477684,-0.0244 0.705541,-1.38465 c 0.388047,-0.76156 0.755433,-1.43456 0.816413,-1.4955 0.244962,-0.24482 0.364055,0.12518 0.643002,1.99713 0.151683,1.01798 0.296644,1.88465 0.322123,1.92588 0.102882,0.16637 0.192723,-0.12627 0.374219,-1.21922 z"
       id="path4012-8"
       inkscape:connector-curvature="0" />
    <path
       style="fill:#a0a0a0;stroke-width:0.434238"
       d="m 28.040353,261.67777 c -0.05624,-0.1049 -0.09132,-1.05343 -0.09132,-2.46939 0,-2.62823 -0.06483,-2.41007 0.868669,-2.92327 0.298327,-0.16393 0.542417,-0.32331 0.542417,-0.35402 0,-0.0309 -0.162318,-0.16826 -0.360716,-0.30583 -1.028016,-0.71241 -2.013971,-2.17766 -2.338877,-3.47584 -0.201325,-0.80442 -0.134174,-2.39054 0.13451,-3.17721 1.033244,-3.02511 4.386038,-4.85502 7.661927,-4.18175 2.136444,0.4391 3.832748,1.7715 4.690824,3.6846 0.361925,0.8069 0.484002,1.41362 0.481552,2.39329 -0.0043,1.76252 -0.804317,3.40089 -2.221636,4.55038 -0.254647,0.20641 -0.463011,0.4065 -0.463011,0.44439 0,0.038 0.188503,0.17638 0.418915,0.30774 0.88078,0.5022 0.815782,0.26078 0.815782,3.02947 0,1.77735 -0.02862,2.465 -0.105831,2.54221 -0.07977,0.0796 -1.316324,0.10568 -5.023888,0.10568 -4.772077,0 -4.920765,-0.006 -5.009351,-0.17069 z m 4.778272,-1.34136 c 0.02029,-0.72066 0.0537,-0.91258 0.172084,-0.98706 0.106484,-0.067 0.185415,-0.0605 0.286623,0.0243 0.110188,0.0915 0.139673,0.2998 0.139673,0.98705 v 0.87111 h 2.031202 c 1.725502,0 2.038854,-0.0189 2.082046,-0.13248 0.118689,-0.30933 -0.0843,-0.54865 -1.048716,-1.23644 -0.806681,-0.57531 -0.992,-0.74828 -0.992,-0.92603 0,-0.17285 0.05069,-0.22425 0.242529,-0.24644 l 0.242526,-0.0279 v -0.72694 c 0,-0.82266 0.11329,-1.0851 0.425635,-0.98597 0.182308,0.0579 0.191777,0.11143 0.193075,1.09112 6.9e-4,0.56673 0.03051,1.07216 0.06615,1.12322 0.107317,0.15365 0.691445,0.5686 0.80071,0.5686 0.07253,0 0.101903,-0.37768 0.101903,-1.30922 0,-1.48548 0.04525,-1.38286 -0.823095,-1.86798 l -0.514419,-0.28745 -0.896236,0.29918 c -0.869904,0.29041 -0.937695,0.2992 -2.307746,0.29891 -1.355532,-2.1e-4 -1.441911,-0.0113 -2.177833,-0.27426 l -0.766317,-0.27401 -0.710913,0.40097 -0.710915,0.40096 v 1.35053 c 0,0.7428 0.02272,1.35058 0.05046,1.35058 0.02775,0 0.226187,-0.10309 0.440962,-0.22887 l 0.390524,-0.22887 0.0014,-0.89557 c 0.0016,-1.14751 0.206306,-1.60144 0.561721,-1.24599 0.108544,0.1085 0.142513,0.31853 0.142513,0.88028 v 0.7378 l 0.290718,-0.0471 c 0.315025,-0.0511 0.543194,0.11558 0.458905,0.33517 -0.02597,0.0676 -0.562393,0.43193 -1.192126,0.80964 -1.113533,0.66789 -1.144968,0.69508 -1.144968,0.9907 v 0.30396 h 2.069441 2.069444 z m 2.265337,-4.35748 c 1.403562,-0.46993 2.640938,-1.50058 3.294283,-2.74387 0.429067,-0.81653 0.595175,-1.49004 0.593708,-2.40729 -0.002,-1.2675 0.205601,-1.15 -2.032309,-1.15 -1.442955,0 -1.942613,0.0275 -1.996101,0.11041 -0.03924,0.0606 -0.191398,0.42737 -0.338104,0.81498 -0.382438,1.0104 -0.497129,0.9789 -0.708436,-0.1945 -0.249425,-1.38497 -0.369803,-1.31205 -0.674781,0.40874 -0.236279,1.33315 -0.338408,1.62908 -0.50309,1.45776 -0.04428,-0.0461 -0.22394,-1.07598 -0.399194,-2.28859 -0.378048,-2.61568 -0.375281,-2.60172 -0.515638,-2.60172 -0.06054,0 -0.377093,0.53579 -0.703448,1.19062 l -0.593372,1.1906 h -1.626578 -1.626579 l -0.06131,0.40891 c -0.234007,1.5605 0.483321,3.42764 1.761718,4.58559 0.632883,0.57328 1.868907,1.21483 2.698432,1.40062 0.933964,0.20911 2.512332,0.12546 3.430809,-0.18205 z m -2.582339,-0.34598 c -0.501349,-0.14204 -0.612279,-0.23104 -0.568647,-0.45582 0.02803,-0.14447 0.130451,-0.16555 0.868148,-0.17909 0.460004,-0.008 0.975273,-0.0281 1.145044,-0.0441 0.276178,-0.0243 0.311494,-0.006 0.335474,0.20237 0.023,0.19722 -0.02543,0.25187 -0.329357,0.37355 -0.522805,0.20913 -0.965587,0.24078 -1.450662,0.1031 z m -1.6422,-2.07469 c -0.09701,-0.0972 -0.176384,-0.25567 -0.176384,-0.35282 0,-0.24453 0.308426,-0.52913 0.573253,-0.52913 0.264818,0 0.573252,0.28468 0.573252,0.52913 0,0.24455 -0.308429,0.52918 -0.573252,0.52918 -0.121275,0 -0.299857,-0.0793 -0.396869,-0.17636 z m 3.439517,-0.0882 c -0.232761,-0.23267 -0.222508,-0.40285 0.0401,-0.66546 0.243582,-0.24345 0.329798,-0.25996 0.605107,-0.11502 0.242042,0.12748 0.321863,0.24591 0.323575,0.48022 0.0031,0.43406 -0.63668,0.63239 -0.968767,0.30029 z m -1.097809,-4.10189 c 0.211607,-1.21013 0.333943,-1.55258 0.494567,-1.38443 0.03281,0.0344 0.152225,0.57839 0.265306,1.20896 0.232869,1.29834 0.343523,1.42064 0.618496,0.68352 l 0.172705,-0.46302 h 1.972971 c 1.085132,0 1.99242,-0.0315 2.016195,-0.0698 0.08023,-0.12991 -0.357483,-1.05886 -0.773608,-1.642 -0.728041,-1.02028 -1.981677,-1.859 -3.316077,-2.21859 -0.773686,-0.20857 -2.314601,-0.21426 -3.086747,-0.0113 -1.084749,0.28486 -1.999152,0.80872 -2.786328,1.59624 -0.677355,0.67767 -1.19903,1.50881 -1.403089,2.23545 l -0.05574,0.19856 1.439077,-9.8e-4 c 0.791494,-6.2e-4 1.483847,-0.0306 1.538565,-0.0662 0.05473,-0.0355 0.422055,-0.70973 0.816304,-1.49793 0.672478,-1.34451 0.811339,-1.54707 0.929474,-1.35595 0.02624,0.0426 0.169945,0.92549 0.319337,1.9623 0.278277,1.93132 0.382411,2.3719 0.526552,2.22775 0.04457,-0.0447 0.184959,-0.67541 0.312001,-1.40192 z"
       id="path4010-0"
       inkscape:connector-curvature="0" />
    <path
       style="fill:#179cfd;stroke-width:0.434238"
       d="m 28.084301,261.62139 c -0.09334,-0.2432 -0.06068,-4.53422 0.03585,-4.71459 0.04932,-0.0922 0.366818,-0.32942 0.705541,-0.52725 0.338727,-0.19778 0.615865,-0.39635 0.615865,-0.44114 0,-0.0449 -0.225402,-0.25131 -0.5009,-0.45914 -1.007366,-0.75955 -1.863496,-2.05429 -2.182561,-3.30077 -0.176274,-0.68859 -0.179006,-2.04001 -0.0054,-2.72476 0.07324,-0.28909 0.298305,-0.86296 0.500144,-1.27526 0.293281,-0.59912 0.51896,-0.90166 1.123813,-1.50667 0.628099,-0.62825 0.899287,-0.82698 1.594434,-1.16847 1.206772,-0.59277 1.759323,-0.7188 3.130615,-0.71416 0.806735,0.002 1.311968,0.0495 1.704825,0.15746 3.200698,0.88036 5.194794,3.81447 4.65392,6.84772 -0.248316,1.39251 -1.241594,2.98286 -2.337264,3.74216 -0.198811,0.13767 -0.36148,0.28303 -0.36148,0.3228 0,0.0398 0.277437,0.23428 0.616524,0.43238 0.393273,0.22968 0.633784,0.4307 0.664178,0.55509 0.02625,0.10714 0.03649,1.24673 0.02299,2.53213 l -0.02488,2.33712 -4.951132,0.0216 c -4.457619,0.0215 -4.956494,0.008 -5.004941,-0.11734 z m 4.796794,-1.27231 c 0.04062,-0.85254 0.0581,-0.92604 0.220478,-0.92604 0.162399,0 0.179874,0.0735 0.22048,0.92604 l 0.0441,0.92602 h 2.11542 c 1.979416,0 2.117418,-0.0113 2.146485,-0.16124 0.07415,-0.38501 -0.08786,-0.58193 -1.039039,-1.26279 -0.5321,-0.38086 -0.988888,-0.74572 -1.015085,-0.81071 -0.07133,-0.17694 0.02596,-0.27867 0.266821,-0.27867 0.212067,0 0.215285,-0.0113 0.215285,-0.78294 0,-0.57789 0.03363,-0.81084 0.12842,-0.88952 0.247505,-0.20531 0.312538,-0.006 0.312538,0.96492 0,0.5267 0.02407,1.0201 0.05321,1.09639 0.07569,0.19722 0.895628,0.78122 1.003392,0.71461 0.137026,-0.0848 0.118488,-2.70962 -0.02028,-2.88339 -0.06062,-0.0761 -0.366131,-0.28527 -0.678882,-0.46529 -0.638192,-0.36731 -0.664782,-0.36715 -1.680277,0.0113 -0.620191,0.23022 -0.749452,0.24593 -2.072528,0.24835 -1.367516,0.002 -1.436372,-0.006 -2.229991,-0.28332 l -0.818897,-0.286 -0.707163,0.41086 c -0.388942,0.22589 -0.744718,0.48108 -0.790616,0.56686 -0.04592,0.0857 -0.08344,0.71537 -0.08344,1.39919 0,0.99797 0.02488,1.25279 0.126404,1.29174 0.157447,0.0603 0.905595,-0.36921 1.022127,-0.58694 0.04739,-0.0885 0.0862,-0.57804 0.0862,-1.08767 0,-0.95796 0.0901,-1.20675 0.322052,-0.88956 0.07719,0.10547 0.118894,0.4201 0.118894,0.89644 v 0.73386 l 0.360543,-0.0576 c 0.341277,-0.0546 0.358954,-0.0466 0.330725,0.14961 -0.02299,0.16068 -0.280994,0.35508 -1.148549,0.86561 -1.145685,0.67416 -1.30229,0.84178 -1.171412,1.25421 0.05178,0.16311 0.145382,0.16933 2.186334,0.14688 l 2.132238,-0.0243 z m 2.160723,-4.26226 c 1.769875,-0.57963 3.167996,-1.90262 3.76078,-3.55863 0.192048,-0.53652 0.328288,-2.18171 0.217288,-2.62393 l -0.05685,-0.22641 h -1.977453 c -1.485114,0 -1.995217,0.0273 -2.0488,0.11041 -0.03924,0.0605 -0.191399,0.42736 -0.338105,0.81497 -0.382437,1.0104 -0.497129,0.97892 -0.708437,-0.1945 -0.249424,-1.38497 -0.369803,-1.31205 -0.674782,0.40873 -0.236276,1.33315 -0.338406,1.62909 -0.503087,1.45777 -0.04428,-0.046 -0.223941,-1.07597 -0.399196,-2.28861 -0.378048,-2.61567 -0.375282,-2.6017 -0.515636,-2.6017 -0.06054,0 -0.377094,0.53578 -0.703448,1.19062 l -0.593373,1.19063 h -1.628884 c -1.902339,0 -1.81147,-0.0499 -1.81147,0.99426 0,0.80431 0.255081,1.83651 0.632916,2.56111 0.424332,0.81377 1.610253,1.95985 2.460638,2.37796 1.097382,0.53952 1.794389,0.68665 3.07994,0.64999 0.892825,-0.0244 1.23655,-0.0755 1.807954,-0.26241 z m -2.425303,-0.51429 c -0.478805,-0.10703 -0.703657,-0.2876 -0.549872,-0.44139 0.07642,-0.0766 0.231706,-0.0808 0.585546,-0.0162 0.356597,0.0647 0.599579,0.0571 0.936494,-0.0291 0.48231,-0.12329 0.615302,-0.0987 0.615302,0.11422 0,0.28859 -0.958357,0.51378 -1.58747,0.37302 z m -1.706091,-2.08738 c -0.189693,-0.20965 -0.184796,-0.3936 0.01543,-0.57471 0.232894,-0.21073 0.518062,-0.17963 0.684657,0.0743 0.133834,0.20423 0.133834,0.23669 0,0.44096 -0.171756,0.26213 -0.491832,0.2892 -0.699982,0.0593 z m 3.421615,-0.14148 c -0.271481,-0.41435 0.198702,-0.82027 0.625904,-0.54036 0.247452,0.16205 0.279238,0.41467 0.07757,0.61634 -0.207737,0.20776 -0.541169,0.17179 -0.703478,-0.0761 z m -1.137669,-3.97553 c 0.211606,-1.21013 0.333942,-1.55259 0.494569,-1.38441 0.03282,0.0344 0.152224,0.57837 0.265305,1.20895 0.23276,1.29772 0.34355,1.42057 0.617887,0.68512 l 0.172107,-0.46134 2.000835,-0.0243 c 2.352706,-0.0279 2.281076,0.0162 1.723959,-1.05794 -0.429635,-0.82824 -1.435244,-1.8525 -2.279603,-2.32184 -3.036046,-1.6875 -6.967182,-0.61741 -8.490501,2.31125 -0.205682,0.39548 -0.373989,0.82207 -0.373989,0.94808 v 0.22911 l 1.433135,-9.7e-4 c 0.788221,-6e-4 1.477901,-0.0306 1.53262,-0.0663 0.05473,-0.0355 0.422054,-0.7097 0.816303,-1.49792 0.672479,-1.34449 0.811342,-1.54706 0.929474,-1.35594 0.02625,0.0425 0.169945,0.9255 0.319337,1.96229 0.278278,1.93132 0.382411,2.37191 0.526555,2.22776 0.04455,-0.0447 0.184956,-0.67543 0.311999,-1.40192 z"
       id="path4008-4"
       inkscape:connector-curvature="0" />
    <path
       style="fill:#050505;fill-opacity:1;stroke-width:0.434238"
       d="m 28.084301,261.62139 c -0.09334,-0.2432 -0.06068,-4.53422 0.03585,-4.71459 0.04932,-0.0922 0.366818,-0.32942 0.705541,-0.52725 0.338727,-0.19778 0.615865,-0.39635 0.615865,-0.44114 0,-0.0449 -0.225402,-0.25131 -0.5009,-0.45914 -1.007366,-0.75955 -1.863496,-2.05429 -2.182561,-3.30077 -0.176274,-0.68859 -0.179006,-2.04001 -0.0054,-2.72476 0.07324,-0.28909 0.298305,-0.86296 0.500144,-1.27526 0.293281,-0.59912 0.51896,-0.90166 1.123813,-1.50667 0.628099,-0.62825 0.899287,-0.82698 1.594434,-1.16847 1.206772,-0.59277 1.759323,-0.7188 3.130615,-0.71416 0.806735,0.002 1.311968,0.0495 1.704825,0.15746 3.200698,0.88036 5.194794,3.81447 4.65392,6.84772 -0.248316,1.39251 -1.241594,2.98286 -2.337264,3.74216 -0.198811,0.13767 -0.36148,0.28303 -0.36148,0.3228 0,0.0398 0.277437,0.23428 0.616524,0.43238 0.393273,0.22968 0.633784,0.4307 0.664178,0.55509 0.02625,0.10714 0.03649,1.24673 0.02299,2.53213 l -0.02488,2.33712 -4.951132,0.0216 c -4.457619,0.0215 -4.956494,0.008 -5.004941,-0.11734 z m 4.796794,-1.27231 c 0.04062,-0.85254 0.0581,-0.92604 0.220478,-0.92604 0.162399,0 0.179874,0.0735 0.22048,0.92604 l 0.0441,0.92602 h 2.11542 c 1.979416,0 2.117418,-0.0113 2.146485,-0.16124 0.07415,-0.38501 -0.08786,-0.58193 -1.039039,-1.26279 -0.5321,-0.38086 -0.988888,-0.74572 -1.015085,-0.81071 -0.07133,-0.17694 0.02596,-0.27867 0.266821,-0.27867 0.212067,0 0.215285,-0.0113 0.215285,-0.78294 0,-0.57789 0.03363,-0.81084 0.12842,-0.88952 0.247505,-0.20531 0.312538,-0.006 0.312538,0.96492 0,0.5267 0.02407,1.0201 0.05321,1.09639 0.07569,0.19722 0.895628,0.78122 1.003392,0.71461 0.137026,-0.0848 0.118488,-2.70962 -0.02028,-2.88339 -0.06062,-0.0761 -0.366131,-0.28527 -0.678882,-0.46529 -0.638192,-0.36731 -0.664782,-0.36715 -1.680277,0.0113 -0.620191,0.23022 -0.749452,0.24593 -2.072528,0.24835 -1.367516,0.002 -1.436372,-0.006 -2.229991,-0.28332 l -0.818897,-0.286 -0.707163,0.41086 c -0.388942,0.22589 -0.744718,0.48108 -0.790616,0.56686 -0.04592,0.0857 -0.08344,0.71537 -0.08344,1.39919 0,0.99797 0.02488,1.25279 0.126404,1.29174 0.157447,0.0603 0.905595,-0.36921 1.022127,-0.58694 0.04739,-0.0885 0.0862,-0.57804 0.0862,-1.08767 0,-0.95796 0.0901,-1.20675 0.322052,-0.88956 0.07719,0.10547 0.118894,0.4201 0.118894,0.89644 v 0.73386 l 0.360543,-0.0576 c 0.341277,-0.0546 0.358954,-0.0466 0.330725,0.14961 -0.02299,0.16068 -0.280994,0.35508 -1.148549,0.86561 -1.145685,0.67416 -1.30229,0.84178 -1.171412,1.25421 0.05178,0.16311 0.145382,0.16933 2.186334,0.14688 l 2.132238,-0.0243 z m 2.160723,-4.26226 c 1.798336,-0.58895 3.232202,-1.974 3.804655,-3.6751 0.213148,-0.63339 0.221914,-2.36663 0.01569,-3.09953 -0.356769,-1.26779 -1.453375,-2.62144 -2.672695,-3.2992 -2.477562,-1.37709 -5.596645,-0.9588 -7.541693,1.01144 -1.633552,1.65471 -2.027872,4.11443 -0.994473,6.2034 0.44418,0.89788 1.576714,2.0172 2.500652,2.47147 1.097382,0.53953 1.794387,0.68664 3.079941,0.64999 0.892823,-0.0243 1.236549,-0.0756 1.807951,-0.26241 z m -2.425303,-0.51429 c -0.478805,-0.10703 -0.703657,-0.2876 -0.549872,-0.44139 0.07642,-0.0766 0.231706,-0.0808 0.585546,-0.0162 0.356597,0.0647 0.599579,0.0571 0.936494,-0.0291 0.48231,-0.12329 0.615302,-0.0987 0.615302,0.11422 0,0.28859 -0.958357,0.51378 -1.58747,0.37302 z m -1.706091,-2.08738 c -0.189693,-0.20965 -0.184796,-0.3936 0.01543,-0.57471 0.232894,-0.21073 0.518062,-0.17963 0.684657,0.0743 0.133834,0.20423 0.133834,0.23669 0,0.44096 -0.171756,0.26213 -0.491832,0.2892 -0.699982,0.0593 z m 3.421615,-0.14148 c -0.271481,-0.41435 0.198702,-0.82027 0.625904,-0.54036 0.247452,0.16205 0.279238,0.41467 0.07757,0.61634 -0.207737,0.20776 -0.541169,0.17179 -0.703478,-0.0761 z"
       id="path4006-5"
       inkscape:connector-curvature="0" />
  </g>
  <path
     style="font-size:6.66667px;font-family:Sans;-inkscape-font-specification:Sans;text-align:center;text-anchor:middle;fill:#ffffff;stroke-width:1.002"
     d="m 479.84928,118.10441 h -0.64452 v -4.17643 l -1.34766,2.84179 h -0.38412 l -1.3379,-2.84179 v 4.17643 h -0.60221 v -4.84701 h 0.87891 l 1.29231,2.69857 1.25001,-2.69857 h 0.89518 z m 4.35222,-1.81641 q 0,0.88868 -0.45574,1.403 -0.45573,0.51432 -1.2207,0.51432 -0.77148,0 -1.22721,-0.51432 -0.45248,-0.51432 -0.45248,-1.403 0,-0.88867 0.45248,-1.40299 0.45573,-0.51758 1.22721,-0.51758 0.76497,0 1.2207,0.51758 0.45574,0.51432 0.45574,1.40299 z m -0.63151,0 q 0,-0.70638 -0.27669,-1.04817 -0.27669,-0.34506 -0.76823,-0.34506 -0.49805,0 -0.77474,0.34506 -0.27344,0.34179 -0.27344,1.04817 0,0.6836 0.2767,1.03841 0.27669,0.35157 0.77148,0.35157 0.48828,0 0.76497,-0.34831 0.27995,-0.35156 0.27995,-1.04167 z m 4.528,1.81641 h -0.61198 v -0.38086 q -0.26367,0.22787 -0.55014,0.35482 -0.28645,0.12695 -0.62173,0.12695 -0.65105,0 -1.03517,-0.5013 -0.38085,-0.5013 -0.38085,-1.38998 0,-0.46224 0.1302,-0.82356 0.13346,-0.36133 0.35807,-0.61524 0.22135,-0.24739 0.51432,-0.3776 0.29623,-0.13021 0.61198,-0.13021 0.28646,0 0.50782,0.0618 0.22135,0.0586 0.46549,0.18555 v -1.57553 h 0.61198 z m -0.61198,-0.89518 v -2.08659 q -0.24741,-0.11068 -0.44271,-0.153 -0.19531,-0.0423 -0.42643,-0.0423 -0.51432,0 -0.80078,0.35807 -0.28646,0.35807 -0.28646,1.01562 0,0.64779 0.22135,0.98633 0.22136,0.33529 0.70964,0.33529 0.26042,0 0.52734,-0.11393 0.26693,-0.11719 0.49805,-0.29948 z m 4.86003,-0.85938 H 489.667 q 0,0.33529 0.10091,0.58594 0.10091,0.2474 0.2767,0.4069 0.16927,0.15625 0.40039,0.23438 0.23437,0.0781 0.51432,0.0781 0.37109,0 0.74544,-0.14648 0.37761,-0.14974 0.53711,-0.29297 h 0.0325 v 0.66732 q -0.30924,0.1302 -0.63151,0.21809 -0.32226,0.0879 -0.67708,0.0879 -0.90495,0 -1.41276,-0.48829 -0.50781,-0.49153 -0.50781,-1.39323 0,-0.89192 0.48502,-1.41601 0.48828,-0.52409 1.28255,-0.52409 0.73568,0 1.13282,0.42969 0.40039,0.42968 0.40039,1.2207 z m -0.59571,-0.46875 q -0.003,-0.48177 -0.24414,-0.74544 -0.23764,-0.26367 -0.72591,-0.26367 -0.49154,0 -0.7845,0.28971 -0.28972,0.28971 -0.32878,0.7194 z"
     id="text59"
     aria-label="Mode" />
  <path
     d="m 384.84968,133 h -0.83659 l -1.62109,-1.92708 h -0.9082 V 133 h -0.64454 v -4.847 h 1.35743 q 0.43945,0 0.73242,0.0586 0.29297,0.0553 0.52734,0.20182 0.26368,0.16602 0.41016,0.41992 0.14974,0.25066 0.14974,0.63803 0,0.52408 -0.26367,0.8789 -0.26367,0.35156 -0.72591,0.5306 z m -1.50716,-3.48307 q 0,-0.20834 -0.0749,-0.36784 -0.0716,-0.16276 -0.24088,-0.27344 -0.13998,-0.0944 -0.33204,-0.13021 -0.19205,-0.0391 -0.45247,-0.0391 h -0.75846 v 1.82943 h 0.65104 q 0.30599,0 0.53385,-0.0521 0.22787,-0.0553 0.38737,-0.20183 0.14649,-0.13672 0.21485,-0.3125 0.0716,-0.17903 0.0716,-0.45247 z M 389.2963,133 h -0.68685 l -0.47526,-1.35091 h -2.09636 L 385.56257,133 h -0.65429 l 1.76432,-4.847 h 0.85938 z m -1.36068,-1.9043 -0.84961,-2.37955 -0.85286,2.37955 z m 5.16277,-2.36979 h -1.73178 V 133 h -0.64453 v -4.27409 h -1.73177 V 128.153 h 4.10808 z"
     id="text60"
     style="font-size:6.66667px;font-family:Sans;-inkscape-font-specification:Sans;text-align:center;text-anchor:middle;fill:#ffffff;stroke-width:1.002"
     aria-label="RAT" />
  <path
     d="m 385.18171,251.34903 q 0,0.66081 -0.28971,1.19792 -0.28646,0.53711 -0.76497,0.83333 -0.33204,0.20508 -0.74219,0.29623 -0.4069,0.0911 -1.07422,0.0911 h -1.22396 v -4.847 h 1.21094 q 0.70963,0 1.1263,0.10416 0.41992,0.10091 0.70964,0.27995 0.49479,0.30925 0.77148,0.82357 0.27669,0.51432 0.27669,1.2207 z m -0.67383,-0.01 q 0,-0.56966 -0.19856,-0.96029 -0.19857,-0.39062 -0.59245,-0.61523 -0.28646,-0.16276 -0.60873,-0.22461 -0.32226,-0.0651 -0.77148,-0.0651 h -0.60547 v 3.74024 h 0.60547 q 0.46549,0 0.81055,-0.0684 0.3483,-0.0684 0.63802,-0.25391 0.36133,-0.23112 0.54036,-0.60872 0.18229,-0.37761 0.18229,-0.94401 z m 3.42449,2.42838 h -1.91407 v -0.49479 h 0.63477 v -3.85742 h -0.63477 v -0.49479 h 1.91407 v 0.49479 h -0.63477 v 3.85742 h 0.63477 z m 4.91862,-4.847 -1.76433,4.847 h -0.85937 l -1.76433,-4.847 h 0.69011 l 1.52018,4.26432 1.52019,-4.26432 z"
     id="text61"
     style="font-size:6.66667px;font-family:Sans;-inkscape-font-specification:Sans;text-align:center;text-anchor:middle;fill:#ffffff;stroke-width:1.002"
     aria-label="DIV" />
  <path
     d="m 383.65014,229.61401 h -3.19336 v -4.847 h 3.19336 v 0.57291 h -2.54883 v 1.32813 h 2.54883 v 0.57291 h -2.54883 v 1.80014 h 2.54883 z m 4.72006,0 h -0.79753 l -2.29818,-4.33594 v 4.33594 h -0.60221 v -4.847 h 0.99934 l 2.09635,3.95833 v -3.95833 h 0.60222 z m 5.11068,-4.847 -1.76433,4.847 h -0.85937 l -1.76433,-4.847 h 0.69011 l 1.52018,4.26432 1.52018,-4.26432 z"
     id="text62"
     style="font-size:6.66667px;font-family:Sans;-inkscape-font-specification:Sans;text-align:center;text-anchor:middle;fill:#ffffff;stroke-width:1.002"
     aria-label="ENV" />
  <path
     d="m 383.94799,202.07829 q 0,0.32226 -0.11393,0.59895 -0.11068,0.27344 -0.3125,0.47526 -0.25065,0.25066 -0.59244,0.37761 -0.3418,0.1237 -0.86264,0.1237 h -0.64452 v 1.80664 h -0.64454 v -4.84701 h 1.31511 q 0.43619,0 0.73892,0.0749 0.30275,0.0716 0.53711,0.22787 0.27669,0.18554 0.42643,0.46224 0.153,0.27669 0.153,0.69987 z m -0.67057,0.0163 q 0,-0.25065 -0.0879,-0.4362 -0.0879,-0.18554 -0.26693,-0.30273 -0.15625,-0.10091 -0.35807,-0.14323 -0.19856,-0.0456 -0.50455,-0.0456 h -0.63802 v 1.93685 h 0.54362 q 0.39062,0 0.63476,-0.0684 0.24414,-0.0716 0.39714,-0.22461 0.15299,-0.15625 0.21484,-0.32878 0.0651,-0.17252 0.0651,-0.38737 z m 5.26368,3.01433 q -0.17904,0.0781 -0.32552,0.14648 -0.14323,0.0684 -0.37761,0.14323 -0.19856,0.0618 -0.43294,0.10417 -0.23112,0.0456 -0.51107,0.0456 -0.52734,0 -0.96028,-0.14649 -0.42969,-0.14973 -0.7487,-0.46549 -0.3125,-0.30925 -0.48828,-0.78451 -0.17579,-0.47851 -0.17579,-1.11002 0,-0.59896 0.16928,-1.07097 0.16927,-0.472 0.48828,-0.79752 0.30924,-0.31576 0.74544,-0.48177 0.43945,-0.16602 0.97331,-0.16602 0.39062,0 0.77799,0.0944 0.39063,0.0944 0.86589,0.33203 v 0.76498 h -0.0488 q -0.4004,-0.33529 -0.79427,-0.48828 -0.39389,-0.153 -0.8431,-0.153 -0.36784,0 -0.66406,0.12044 -0.29298,0.11719 -0.52409,0.36784 -0.22461,0.24414 -0.35156,0.61849 -0.1237,0.3711 -0.1237,0.85938 0,0.51107 0.13672,0.8789 0.13997,0.36784 0.35807,0.59896 0.22786,0.24089 0.5306,0.35808 0.30599,0.11393 0.64453,0.11393 0.4655,0 0.8724,-0.15951 0.4069,-0.1595 0.76172,-0.47851 h 0.0456 z m 4.61914,0.35156 h -0.64453 v -2.37305 h -2.41862 v 2.37305 h -0.64453 v -4.84701 h 0.64453 v 1.90104 h 2.41862 v -1.90104 h 0.64453 z"
     id="text63"
     style="font-size:6.66667px;font-family:Sans;-inkscape-font-specification:Sans;text-align:center;text-anchor:middle;fill:#ffffff;stroke-width:1.002"
     aria-label="PCH" />
  <path
     d="m 382.97631,157.15362 h -1.91406 v -0.49479 h 0.63477 v -3.85742 h -0.63477 v -0.4948 h 1.91406 v 0.4948 h -0.63477 v 3.85742 h 0.63477 z m 5.19207,-2.41862 q 0,0.66081 -0.28972,1.19792 -0.28646,0.53711 -0.76497,0.83333 -0.33203,0.20508 -0.74219,0.29623 -0.4069,0.0911 -1.07422,0.0911 h -1.22396 v -4.84701 h 1.21094 q 0.70963,0 1.1263,0.10417 0.41993,0.10091 0.70964,0.27995 0.49479,0.30924 0.77148,0.82357 0.2767,0.51432 0.2767,1.2207 z m -0.67383,-0.01 q 0,-0.56966 -0.19858,-0.96028 -0.19857,-0.39063 -0.59244,-0.61524 -0.28646,-0.16276 -0.60873,-0.22461 -0.32227,-0.0651 -0.77149,-0.0651 h -0.60547 v 3.74024 h 0.60547 q 0.4655,0 0.81055,-0.0684 0.34831,-0.0684 0.63802,-0.25391 0.36133,-0.23112 0.54037,-0.60872 0.18229,-0.37761 0.18229,-0.94402 z m 5.38085,-2.41862 -1.67318,2.39584 1.66994,2.45117 h -0.74545 l -1.32162,-1.99544 -1.35417,1.99544 h -0.70313 l 1.68946,-2.42187 -1.65039,-2.42514 h 0.74218 l 1.30534,1.96941 1.33464,-1.96941 z"
     id="text64"
     style="font-size:6.66667px;font-family:Sans;-inkscape-font-specification:Sans;text-align:center;text-anchor:middle;fill:#ffffff;stroke-width:1.002"
     aria-label="IDX" />
  <path
     d="m 384.1612,277.92102 h -3.0664 v -4.84701 h 0.64453 v 4.27409 h 2.42187 z m 3.8379,0 h -3.19337 v -4.84701 h 3.19337 v 0.57292 h -2.54883 v 1.32812 h 2.54883 v 0.57292 h -2.54883 v 1.80013 h 2.54883 z m 4.84375,-4.84701 -1.76433,4.84701 h -0.85937 l -1.76432,-4.84701 h 0.6901 l 1.52018,4.26432 1.52019,-4.26432 z"
     id="text65"
     style="font-size:6.66667px;font-family:Sans;-inkscape-font-specification:Sans;text-align:center;text-anchor:middle;fill:#ffffff;stroke-width:1.002"
     aria-label="LEV" />
  <path
     d="m 383.75268,177.03299 h -2.45118 v 1.36718 h 2.10612 v 0.57292 h -2.10612 v 2.33399 h -0.64453 v -4.84701 h 3.09571 z m 4.83073,1.85546 q 0,0.66081 -0.28972,1.19792 -0.28645,0.53711 -0.76497,0.83334 -0.33203,0.20507 -0.74219,0.29622 -0.4069,0.0912 -1.07422,0.0912 h -1.22396 v -4.84701 h 1.21094 q 0.70964,0 1.12631,0.10416 0.41992,0.10092 0.70963,0.27995 0.49479,0.30925 0.77149,0.82357 0.27669,0.51432 0.27669,1.2207 z m -0.67383,-0.01 q 0,-0.56966 -0.19857,-0.96029 -0.19857,-0.39062 -0.59245,-0.61523 -0.28645,-0.16276 -0.60872,-0.22461 -0.32227,-0.0651 -0.77149,-0.0651 h -0.60546 v 3.74024 h 0.60546 q 0.4655,0 0.81055,-0.0684 0.34831,-0.0684 0.63802,-0.25391 0.36133,-0.23112 0.54037,-0.60872 0.18229,-0.3776 0.18229,-0.94401 z m 5.3711,0.9375 q 0,0.36133 -0.13672,0.63802 -0.13672,0.27669 -0.36784,0.45573 -0.27344,0.21484 -0.60221,0.30599 -0.32553,0.0912 -0.83008,0.0912 h -1.71875 v -4.84701 h 1.43554 q 0.5306,0 0.79427,0.0391 0.26368,0.0391 0.50456,0.16276 0.26693,0.13998 0.38737,0.36133 0.12044,0.2181 0.12044,0.52409 0,0.34505 -0.17578,0.58919 -0.17578,0.24089 -0.46875,0.38737 v 0.026 q 0.49154,0.10091 0.77474,0.43295 0.28321,0.32877 0.28321,0.83333 z m -1.08399,-2.18425 q 0,-0.17578 -0.0586,-0.29622 -0.0586,-0.12044 -0.1888,-0.19531 -0.153,-0.0879 -0.3711,-0.10742 -0.2181,-0.0228 -0.54036,-0.0228 h -0.76823 v 1.39974 h 0.83333 q 0.30274,0 0.48177,-0.0293 0.17904,-0.0326 0.33203,-0.13021 0.153,-0.0977 0.21485,-0.25065 0.0651,-0.15625 0.0651,-0.36784 z m 0.41341,2.21029 q 0,-0.29297 -0.0879,-0.46549 -0.0879,-0.17253 -0.31901,-0.29297 -0.15625,-0.0814 -0.38086,-0.10417 -0.22135,-0.026 -0.54036,-0.026 h -1.01237 v 1.80339 h 0.85286 q 0.42318,0 0.69336,-0.0423 0.27018,-0.0456 0.44271,-0.16276 0.18229,-0.12696 0.26693,-0.28972 0.0846,-0.16276 0.0846,-0.41992 z"
     id="text66"
     style="font-size:6.66667px;font-family:Sans;-inkscape-font-specification:Sans;text-align:center;text-anchor:middle;fill:#ffffff;stroke-width:1.002"
     aria-label="FDB" />
  <path
     d="m 84.333507,235.98859 h -0.686849 l -0.475261,-1.35092 h -2.096355 l -0.47526,1.35092 h -0.654298 l 1.764324,-4.84701 h 0.859376 z m -1.360677,-1.9043 -0.84961,-2.37956 -0.852865,2.37956 z"
     id="text67"
     style="font-size:6.66667px;font-family:Sans;-inkscape-font-specification:Sans;text-align:center;text-anchor:middle;fill:#ffffff;stroke-width:1.002"
     aria-label="A " />
  <path
     d="m 126.39824,233.57001 q 0,0.66081 -0.28971,1.19792 -0.28646,0.53711 -0.76498,0.83334 -0.33203,0.20507 -0.74218,0.29622 -0.4069,0.0911 -1.07422,0.0911 h -1.22396 v -4.84701 h 1.21094 q 0.70963,0 1.1263,0.10417 0.41992,0.10091 0.70964,0.27994 0.49479,0.30925 0.77148,0.82357 0.27669,0.51432 0.27669,1.2207 z m -0.67383,-0.01 q 0,-0.56966 -0.19856,-0.96029 -0.19857,-0.39062 -0.59245,-0.61523 -0.28646,-0.16276 -0.60873,-0.22461 -0.32226,-0.0651 -0.77148,-0.0651 h -0.60547 v 3.74024 h 0.60547 q 0.46549,0 0.81055,-0.0684 0.3483,-0.0684 0.63802,-0.25391 0.36133,-0.23112 0.54036,-0.60872 0.18229,-0.3776 0.18229,-0.94401 z"
     id="text68"
     style="font-size:6.66667px;font-family:Sans;-inkscape-font-specification:Sans;text-align:center;text-anchor:middle;fill:#ffffff;stroke-width:1.002"
     aria-label="D" />
  <path
     d="m 166.10492,234.51724 q 0,0.2832 -0.13347,0.55989 -0.13021,0.27669 -0.36784,0.46875 -0.26041,0.20834 -0.60872,0.32552 -0.34505,0.11719 -0.83334,0.11719 -0.52408,0 -0.94401,-0.0977 -0.41666,-0.0976 -0.84961,-0.28971 v -0.80729 h 0.0456 q 0.36784,0.30599 0.84961,0.472 0.48177,0.16602 0.90495,0.16602 0.59895,0 0.93099,-0.22461 0.33528,-0.22461 0.33528,-0.59896 0,-0.32226 -0.1595,-0.47526 -0.15625,-0.15299 -0.47852,-0.23763 -0.24414,-0.0651 -0.5306,-0.10742 -0.2832,-0.0423 -0.60221,-0.10742 -0.64453,-0.13672 -0.95703,-0.4655 -0.30925,-0.33203 -0.30925,-0.86263 0,-0.60872 0.51432,-0.99609 0.51433,-0.39063 1.30534,-0.39063 0.51107,0 0.9375,0.0977 0.42644,0.0977 0.75521,0.24088 v 0.76172 h -0.0456 q -0.27669,-0.23437 -0.72917,-0.38737 -0.44922,-0.15625 -0.92122,-0.15625 -0.51758,0 -0.83334,0.21485 -0.3125,0.21484 -0.3125,0.55338 0,0.30274 0.15625,0.47526 0.15625,0.17253 0.55013,0.26367 0.20834,0.0456 0.59245,0.11068 0.38412,0.0651 0.65105,0.13347 0.54036,0.14322 0.8138,0.43294 0.27344,0.28971 0.27344,0.81055 z"
     id="text69"
     style="font-size:6.66667px;font-family:Sans;-inkscape-font-specification:Sans;text-align:center;text-anchor:middle;fill:#ffffff;stroke-width:1.002"
     aria-label="S" />
  <path
     d="m 206.08502,235.98859 h -0.83659 l -1.62109,-1.92708 h -0.9082 v 1.92708 h -0.64454 v -4.84701 h 1.35743 q 0.43945,0 0.73242,0.0586 0.29297,0.0553 0.52734,0.20182 0.26368,0.16602 0.41016,0.41992 0.14974,0.25065 0.14974,0.63802 0,0.52409 -0.26367,0.87891 -0.26367,0.35156 -0.72591,0.5306 z m -1.50716,-3.48307 q 0,-0.20834 -0.0749,-0.36784 -0.0716,-0.16276 -0.24088,-0.27344 -0.13998,-0.0944 -0.33204,-0.13021 -0.19205,-0.0391 -0.45247,-0.0391 h -0.75846 v 1.82943 h 0.65104 q 0.30599,0 0.53385,-0.0521 0.22787,-0.0553 0.38737,-0.20182 0.14649,-0.13672 0.21485,-0.3125 0.0716,-0.17904 0.0716,-0.45247 z"
     id="text70"
     style="font-size:6.66667px;font-family:Sans;-inkscape-font-specification:Sans;text-align:center;text-anchor:middle;fill:#ffffff;stroke-width:1.002"
     aria-label="R" />
  <path
     d="m 84.778367,276.43262 h -0.68685 l -0.47526,-1.35092 h -2.09635 l -0.47526,1.35092 h -0.6543 l 1.76432,-4.84701 h 0.85938 z m -1.36067,-1.9043 -0.84961,-2.37956 -0.85287,2.37956 z"
     id="text67-9"
     style="font-size:6.66667px;font-family:Sans;-inkscape-font-specification:Sans;text-align:center;text-anchor:middle;fill:#ffffff;stroke-width:1.002"
     aria-label="A " />
  <path
     d="m 126.84311,274.01404 q 0,0.66081 -0.28971,1.19792 -0.28646,0.53711 -0.76498,0.83334 -0.33203,0.20507 -0.74218,0.29622 -0.4069,0.0911 -1.07422,0.0911 h -1.22396 v -4.84701 h 1.21094 q 0.70963,0 1.1263,0.10417 0.41992,0.10091 0.70964,0.27994 0.49479,0.30925 0.77148,0.82357 0.27669,0.51432 0.27669,1.2207 z m -0.67383,-0.01 q 0,-0.56966 -0.19856,-0.96029 -0.19857,-0.39062 -0.59245,-0.61523 -0.28646,-0.16276 -0.60873,-0.22461 -0.32226,-0.0651 -0.77148,-0.0651 h -0.60547 v 3.74024 h 0.60547 q 0.46549,0 0.81055,-0.0684 0.3483,-0.0684 0.63802,-0.25391 0.36133,-0.23112 0.54036,-0.60872 0.18229,-0.3776 0.18229,-0.94401 z"
     id="text68-8"
     style="font-size:6.66667px;font-family:Sans;-inkscape-font-specification:Sans;text-align:center;text-anchor:middle;fill:#ffffff;stroke-width:1.002"
     aria-label="D" />
  <path
     d="m 166.54979,274.96127 q 0,0.2832 -0.13347,0.55989 -0.13021,0.27669 -0.36784,0.46875 -0.26041,0.20834 -0.60872,0.32552 -0.34505,0.11719 -0.83334,0.11719 -0.52408,0 -0.94401,-0.0977 -0.41666,-0.0976 -0.84961,-0.28971 v -0.80729 h 0.0456 q 0.36784,0.30599 0.84961,0.472 0.48177,0.16602 0.90495,0.16602 0.59895,0 0.93099,-0.22461 0.33528,-0.22461 0.33528,-0.59896 0,-0.32226 -0.1595,-0.47526 -0.15625,-0.15299 -0.47852,-0.23763 -0.24414,-0.0651 -0.5306,-0.10742 -0.2832,-0.0423 -0.60221,-0.10742 -0.64453,-0.13672 -0.95703,-0.4655 -0.30925,-0.33203 -0.30925,-0.86263 0,-0.60872 0.51432,-0.99609 0.51433,-0.39063 1.30534,-0.39063 0.51107,0 0.9375,0.0977 0.42644,0.0977 0.75521,0.24088 v 0.76172 h -0.0456 q -0.27669,-0.23437 -0.72917,-0.38737 -0.44922,-0.15625 -0.92122,-0.15625 -0.51758,0 -0.83334,0.21485 -0.3125,0.21484 -0.3125,0.55338 0,0.30274 0.15625,0.47526 0.15625,0.17253 0.55013,0.26367 0.20834,0.0456 0.59245,0.11068 0.38412,0.0651 0.65105,0.13347 0.54036,0.14322 0.8138,0.43294 0.27344,0.28971 0.27344,0.81055 z"
     id="text69-1"
     style="font-size:6.66667px;font-family:Sans;-inkscape-font-specification:Sans;text-align:center;text-anchor:middle;fill:#ffffff;stroke-width:1.002"
     aria-label="S" />
  <path
     d="m 206.52989,276.43262 h -0.83659 l -1.62109,-1.92708 h -0.9082 v 1.92708 h -0.64454 v -4.84701 h 1.35743 q 0.43945,0 0.73242,0.0586 0.29297,0.0553 0.52734,0.20182 0.26368,0.16602 0.41016,0.41992 0.14974,0.25065 0.14974,0.63802 0,0.52409 -0.26367,0.87891 -0.26367,0.35156 -0.72591,0.5306 z m -1.50716,-3.48307 q 0,-0.20834 -0.0749,-0.36784 -0.0716,-0.16276 -0.24088,-0.27344 -0.13998,-0.0944 -0.33204,-0.13021 -0.19205,-0.0391 -0.45247,-0.0391 h -0.75846 v 1.82943 h 0.65104 q 0.30599,0 0.53385,-0.0521 0.22787,-0.0553 0.38737,-0.20182 0.14649,-0.13672 0.21485,-0.3125 0.0716,-0.17904 0.0716,-0.45247 z"
     id="text70-1"
     style="font-size:6.66667px;font-family:Sans;-inkscape-font-specification:Sans;text-align:center;text-anchor:middle;fill:#ffffff;stroke-width:1.002"
     aria-label="R" />
  <path
     d="m 57.194721,252.72688 q -0.179037,0.0781 -0.325521,0.14649 -0.14323,0.0684 -0.377605,0.14323 -0.198568,0.0618 -0.432943,0.10416 -0.23112,0.0456 -0.511068,0.0456 -0.527344,0 -0.960287,-0.14649 -0.429687,-0.14974 -0.748698,-0.46549 -0.3125,-0.30925 -0.488281,-0.78451 -0.175782,-0.47851 -0.175782,-1.11003 0,-0.59895 0.169271,-1.07096 0.169271,-0.472 0.488282,-0.79753 0.309245,-0.31575 0.745443,-0.48177 0.439453,-0.16601 0.973308,-0.16601 0.390625,0 0.777995,0.0944 0.390625,0.0944 0.865886,0.33203 v 0.76497 h -0.04883 q -0.40039,-0.33528 -0.794271,-0.48828 -0.39388,-0.15299 -0.843099,-0.15299 -0.367839,0 -0.664063,0.12044 -0.292969,0.11719 -0.524089,0.36784 -0.224609,0.24414 -0.351562,0.61849 -0.123698,0.37109 -0.123698,0.85937 0,0.51107 0.136718,0.87891 0.139974,0.36784 0.358074,0.59896 0.227864,0.24089 0.530599,0.35807 0.305989,0.11394 0.644531,0.11394 0.465495,0 0.872397,-0.15951 0.406901,-0.15951 0.761719,-0.47852 h 0.04557 z m 3.688152,0.35157 h -0.608724 v -0.38737 q -0.08138,0.0553 -0.221354,0.15625 -0.136719,0.0976 -0.266927,0.15625 -0.152995,0.0749 -0.351563,0.12369 -0.198568,0.0521 -0.465495,0.0521 -0.491537,0 -0.833334,-0.32552 -0.341797,-0.32553 -0.341797,-0.83008 0,-0.41341 0.175782,-0.66732 0.179036,-0.25716 0.507812,-0.40365 0.332032,-0.14648 0.797527,-0.19856 0.465495,-0.0521 0.999349,-0.0781 v -0.0944 q 0,-0.20833 -0.07487,-0.34505 -0.07161,-0.13672 -0.208333,-0.21485 -0.130209,-0.0749 -0.3125,-0.10091 -0.182292,-0.026 -0.38086,-0.026 -0.240885,0 -0.537109,0.0651 -0.296225,0.0619 -0.61198,0.1823 h -0.03255 v -0.62175 q 0.179037,-0.0488 0.517578,-0.10742 0.338542,-0.0586 0.667318,-0.0586 0.384115,0 0.667318,0.0651 0.286459,0.0618 0.494792,0.21484 0.205079,0.14974 0.3125,0.38737 0.107422,0.23763 0.107422,0.5892 z m -0.608724,-0.89519 v -1.01237 q -0.279948,0.0163 -0.660807,0.0488 -0.377605,0.0326 -0.598959,0.0944 -0.263672,0.0749 -0.426433,0.23438 -0.16276,0.15625 -0.16276,0.43294 0,0.3125 0.188802,0.47201 0.188802,0.15625 0.576172,0.15625 0.322266,0 0.589193,-0.1237 0.266927,-0.12696 0.494792,-0.30274 z m 4.055992,-2.07357 h -0.03255 q -0.136719,-0.0325 -0.266928,-0.0456 -0.126953,-0.0163 -0.302734,-0.0163 -0.283203,0 -0.546875,0.12695 -0.263672,0.1237 -0.507813,0.32226 v 2.58139 h -0.61198 v -3.63607 h 0.61198 v 0.53711 q 0.364583,-0.29297 0.641276,-0.41342 0.279948,-0.12369 0.569662,-0.12369 0.159505,0 0.23112,0.01 0.07161,0.007 0.214844,0.0293 z"
     id="text71"
     style="font-size:6.66667px;font-family:Sans;-inkscape-font-specification:Sans;text-align:center;text-anchor:middle;fill:#ffffff;stroke-width:1.002"
     aria-label="Car" />
  <path
     d="m 56.055414,289.70822 h -0.644532 v -4.17643 l -1.347657,2.8418 h -0.384114 l -1.337892,-2.8418 v 4.17643 h -0.602213 v -4.84701 h 0.878906 l 1.292319,2.69857 1.25,-2.69857 h 0.895183 z m 4.352215,-1.81641 q 0,0.88868 -0.455729,1.403 -0.455729,0.51432 -1.220704,0.51432 -0.771484,0 -1.227214,-0.51432 -0.452474,-0.51432 -0.452474,-1.403 0,-0.88867 0.452474,-1.40299 0.45573,-0.51758 1.227214,-0.51758 0.764975,0 1.220704,0.51758 0.455729,0.51432 0.455729,1.40299 z m -0.63151,0 q 0,-0.70638 -0.276693,-1.04817 -0.276693,-0.34506 -0.76823,-0.34506 -0.498047,0 -0.77474,0.34506 -0.273437,0.34179 -0.273437,1.04817 0,0.6836 0.276693,1.03842 0.276692,0.35156 0.771484,0.35156 0.488282,0 0.764975,-0.34831 0.279948,-0.35156 0.279948,-1.04167 z m 4.527997,1.81641 h -0.611979 v -0.38086 q -0.263672,0.22787 -0.550131,0.35482 -0.286458,0.12695 -0.621745,0.12695 -0.651042,0 -1.035157,-0.5013 -0.380859,-0.5013 -0.380859,-1.38997 0,-0.46224 0.130208,-0.82357 0.133464,-0.36133 0.358073,-0.61524 0.221355,-0.24739 0.514324,-0.3776 0.296224,-0.13021 0.611979,-0.13021 0.286458,0 0.507813,0.0618 0.221354,0.0586 0.465495,0.18555 v -1.57553 h 0.611979 z m -0.611979,-0.89518 v -2.08659 q -0.247396,-0.11068 -0.442709,-0.153 -0.195312,-0.0423 -0.426432,-0.0423 -0.514323,0 -0.800782,0.35807 -0.286458,0.35807 -0.286458,1.01563 0,0.64778 0.221354,0.98632 0.221354,0.33529 0.709636,0.33529 0.260416,0 0.527344,-0.11393 0.266927,-0.11719 0.498047,-0.29948 z"
     id="text72"
     style="font-size:6.66667px;font-family:Sans;-inkscape-font-specification:Sans;text-align:center;text-anchor:middle;fill:#ffffff;stroke-width:1.002"
     aria-label="Mod" />
  <rect
     style="fill:#4d4d4d;stroke-width:1.002;stroke:#4d4d4d;stroke-opacity:1;fill-opacity:1"
     id="rect72"
     width="1.6649898"
     height="24.974848"
     x="142.07913"
     y="55.335011" />
  <rect
     style="fill:#4d4d4d;stroke-width:1.002;stroke:#4d4d4d;stroke-opacity:1;fill-opacity:1"
     id="rect72-4"
     width="1.6649898"
     height="24.974848"
     x="269.8692"
     y="55.335011" />
  <rect
     style="fill:#4d4d4d;stroke-width:1.002;stroke:#4d4d4d;stroke-opacity:1;fill-opacity:1"
     id="rect72-4-0"
     width="1.6649898"
     height="24.974848"
     x="397.53922"
     y="55.335011" />
  <rect
     style="fill:none;stroke:#4d4d4d;stroke-width:1.00916;stroke-opacity:1"
     id="rect73"
     width="508.92471"
     height="218.10651"
     x="16.653475"
     y="98.237976" />
  <path
     d="m 240.57413,231.62009 h -1.73177 v 4.27409 h -0.64454 v -4.27409 h -1.73177 v -0.57291 h 4.10808 z m 4.66146,4.27409 H 244.399 l -1.6211,-1.92708 h -0.9082 v 1.92708 h -0.64453 v -4.847 h 1.35742 q 0.43945,0 0.73242,0.0586 0.29297,0.0553 0.52735,0.20182 0.26367,0.16602 0.41015,0.41993 0.14974,0.25065 0.14974,0.63802 0,0.52409 -0.26367,0.8789 -0.26367,0.35157 -0.72591,0.5306 z m -1.50716,-3.48307 q 0,-0.20833 -0.0749,-0.36784 -0.0716,-0.16276 -0.24089,-0.27344 -0.13997,-0.0944 -0.33203,-0.1302 -0.19206,-0.0391 -0.45248,-0.0391 h -0.75846 v 1.82943 h 0.65104 q 0.30599,0 0.53386,-0.0521 0.22786,-0.0553 0.38737,-0.20183 0.14648,-0.13671 0.21484,-0.3125 0.0716,-0.17903 0.0716,-0.45247 z m 3.84114,3.48307 h -1.91406 v -0.49479 h 0.63477 v -3.85742 h -0.63477 v -0.49479 h 1.91406 v 0.49479 h -0.63476 v 3.85742 h 0.63476 z m 5.13998,-0.35807 q -0.39714,0.18229 -0.86914,0.31901 -0.46875,0.13347 -0.90821,0.13347 -0.5664,0 -1.03841,-0.15625 -0.472,-0.15625 -0.80403,-0.46875 -0.33529,-0.31576 -0.51758,-0.78777 -0.18229,-0.47526 -0.18229,-1.11002 0,-1.16211 0.67708,-1.83269 0.68034,-0.67382 1.86523,-0.67382 0.41342,0 0.8431,0.10091 0.43295,0.0977 0.93099,0.33528 v 0.76498 h -0.0586 q -0.10091,-0.0781 -0.29297,-0.20508 -0.19206,-0.12695 -0.3776,-0.21159 -0.22461,-0.10091 -0.51107,-0.16601 -0.2832,-0.0684 -0.64453,-0.0684 -0.81381,0 -1.28907,0.52409 -0.472,0.52083 -0.472,1.41276 0,0.94075 0.49479,1.46484 0.49479,0.52083 1.34766,0.52083 0.3125,0 0.62174,-0.0618 0.3125,-0.0618 0.54688,-0.15951 v -1.18815 h -1.29883 v -0.56641 h 1.93685 z m 5.16927,0 q -0.39713,0.18229 -0.86914,0.31901 -0.46875,0.13347 -0.9082,0.13347 -0.56641,0 -1.03841,-0.15625 -0.47201,-0.15625 -0.80404,-0.46875 -0.33529,-0.31576 -0.51758,-0.78777 -0.18229,-0.47526 -0.18229,-1.11002 0,-1.16211 0.67708,-1.83269 0.68034,-0.67382 1.86524,-0.67382 0.41341,0 0.8431,0.10091 0.43294,0.0977 0.93099,0.33528 v 0.76498 h -0.0586 q -0.10091,-0.0781 -0.29297,-0.20508 -0.19205,-0.12695 -0.3776,-0.21159 -0.22461,-0.10091 -0.51107,-0.16601 -0.2832,-0.0684 -0.64453,-0.0684 -0.8138,0 -1.28906,0.52409 -0.47201,0.52083 -0.47201,1.41276 0,0.94075 0.49479,1.46484 0.4948,0.52083 1.34766,0.52083 0.3125,0 0.62175,-0.0618 0.3125,-0.0618 0.54687,-0.15951 v -1.18815 h -1.29883 v -0.56641 h 1.93685 z m 4.31967,0.35807 h -3.19336 v -4.847 h 3.19336 v 0.57291 h -2.54883 v 1.32813 h 2.54883 v 0.57292 h -2.54883 v 1.80013 h 2.54883 z m 5.03255,0 h -0.83659 l -1.62109,-1.92708 h -0.90821 v 1.92708 h -0.64453 v -4.847 h 1.35743 q 0.43945,0 0.73242,0.0586 0.29297,0.0553 0.52734,0.20182 0.26367,0.16602 0.41016,0.41993 0.14974,0.25065 0.14974,0.63802 0,0.52409 -0.26367,0.8789 -0.26368,0.35157 -0.72592,0.5306 z m -1.50716,-3.48307 q 0,-0.20833 -0.0749,-0.36784 -0.0716,-0.16276 -0.24089,-0.27344 -0.13997,-0.0944 -0.33203,-0.1302 -0.19205,-0.0391 -0.45247,-0.0391 h -0.75847 v 1.82943 h 0.65105 q 0.30599,0 0.53385,-0.0521 0.22787,-0.0553 0.38737,-0.20183 0.14649,-0.13671 0.21484,-0.3125 0.0716,-0.17903 0.0716,-0.45247 z"
     id="text73"
     style="font-size:6.66667px;font-family:Sans;-inkscape-font-specification:Sans;text-align:center;text-anchor:middle;fill:#ffffff;stroke-width:1.002"
     aria-label="TRIGGER" />
  <path
     d="m 322.66911,190.89244 h -0.83659 l -1.62109,-1.92708 h -0.9082 v 1.92708 h -0.64454 v -4.84701 h 1.35743 q 0.43945,0 0.73242,0.0586 0.29297,0.0553 0.52734,0.20182 0.26368,0.16602 0.41016,0.41992 0.14974,0.25065 0.14974,0.63802 0,0.52409 -0.26367,0.87891 -0.26367,0.35156 -0.72591,0.5306 z m -1.50716,-3.48307 q 0,-0.20834 -0.0749,-0.36784 -0.0716,-0.16276 -0.24088,-0.27344 -0.13998,-0.0944 -0.33204,-0.13021 -0.19205,-0.0391 -0.45247,-0.0391 h -0.75846 v 1.82943 h 0.65104 q 0.30599,0 0.53385,-0.0521 0.22787,-0.0553 0.38737,-0.20182 0.14649,-0.13672 0.21485,-0.3125 0.0716,-0.17904 0.0716,-0.45247 z m 5.83008,3.48307 h -0.79752 l -2.29818,-4.33594 v 4.33594 h -0.60222 v -4.84701 h 0.99935 l 2.09636,3.95834 v -3.95834 h 0.60221 z m 5.38412,-2.41862 q 0,0.66081 -0.28972,1.19792 -0.28645,0.53711 -0.76497,0.83333 -0.33203,0.20508 -0.74219,0.29622 -0.4069,0.0911 -1.07422,0.0911 h -1.22396 v -4.84701 h 1.21094 q 0.70964,0 1.12631,0.10417 0.41992,0.10091 0.70963,0.27995 0.49479,0.30924 0.77149,0.82357 0.27669,0.51432 0.27669,1.2207 z m -0.67383,-0.01 q 0,-0.56966 -0.19857,-0.96028 -0.19857,-0.39063 -0.59245,-0.61524 -0.28645,-0.16276 -0.60872,-0.22461 -0.32227,-0.0651 -0.77148,-0.0651 h -0.60547 v 3.74024 h 0.60547 q 0.46549,0 0.81054,-0.0684 0.34831,-0.0684 0.63802,-0.25391 0.36133,-0.23112 0.54037,-0.60872 0.18229,-0.37761 0.18229,-0.94402 z m 8.37566,2.42839 h -0.64454 v -4.17643 l -1.34765,2.84179 h -0.38412 l -1.33789,-2.84179 v 4.17643 h -0.60221 v -4.84701 h 0.8789 l 1.29232,2.69857 1.25,-2.69857 h 0.89519 z m 5.1237,0 h -0.68685 l -0.47526,-1.35091 h -2.09636 l -0.47526,1.35091 h -0.6543 l 1.76433,-4.84701 h 0.85937 z m -1.36068,-1.9043 -0.84961,-2.37956 -0.85287,2.37956 z m 5.79427,-2.94271 -1.67318,2.39584 1.66993,2.45117 h -0.74545 l -1.32161,-1.99544 -1.35417,1.99544 h -0.70313 l 1.68946,-2.42188 -1.65039,-2.42513 h 0.74218 l 1.30534,1.96941 1.33464,-1.96941 z"
     id="text26"
     style="font-size:6.66667px;font-family:Sans;-inkscape-font-specification:Sans;text-align:center;text-anchor:middle;fill:#ffffff;stroke-width:1.002"
     aria-label="RND MAX" />
</svg>
