<?xml version="1.0" encoding="UTF-8" standalone="no"?>
<svg
   width="540"
   height="380"
   viewBox="0 0 540 380"
   version="1.1"
   id="svg52"
   xmlns="http://www.w3.org/2000/svg"
   xmlns:svg="http://www.w3.org/2000/svg">
  <defs
     id="defs2">
    <linearGradient
       id="bg"
       x1="0"
       y1="0"
       x2="0"
       y2="1">
      <stop
         offset="0%"
         stop-color="#252c33"
         id="stop1" />
      <stop
         offset="100%"
         stop-color="#14191e"
         id="stop2" />
    </linearGradient>
  </defs>
  <path
     id="rect2"
     style="fill:url(#bg)"
     d="M 0,0 H 540 V 380 H 0 Z" />
  <path
     id="rect3"
     style="fill:none;stroke:#4d5963;stroke-width:1.4"
     d="M 8,8 H 532 V 372 H 8 Z" />
  <path
     d="m 32.824219,16.855469 h -5.132813 v 4.051758 h 4.675781 v 1.256835 H 27.691406 V 28 H 26.25 V 15.598633 h 6.574219 z M 44.197266,28 H 42.808594 V 17.365234 l -1.872071,5.088868 H 39.574219 L 37.702148,17.365234 V 28 H 36.313477 V 15.598633 h 1.87207 L 40.259766,21.25 42.325195,15.598633 h 1.872071 z m 10.353515,0 h -6.521484 v -1.256836 h 2.62793 v -9.632812 l -2.478516,1.239257 v -1.441406 l 2.680664,-1.379883 h 1.239258 v 11.214844 h 2.452148 z m 5.036133,-6.459961 q 1.160156,-0.94043 2.522461,-0.94043 1.573242,0 2.619141,1.010743 1.054687,1.001953 1.054687,2.592773 0,1.749023 -0.931641,2.891602 -0.93164,1.142578 -2.487304,1.142578 -1.986328,0 -3.146485,-1.819336 -1.160156,-1.828125 -1.160156,-4.464844 0,-2.8125 1.204102,-4.702148 1.21289,-1.889649 3.313476,-1.889649 1.450196,0 2.504883,0.430664 l -0.228516,1.283203 q -1.221679,-0.448242 -2.232421,-0.448242 -1.432618,0 -2.232422,1.371094 -0.799805,1.371094 -0.799805,3.541992 z m 0.04395,1.239258 q 0,1.59082 0.747071,2.891601 0.74707,1.300782 1.880859,1.300782 0.958008,0 1.476563,-0.703125 0.518554,-0.703125 0.518554,-1.942383 0,-1.142578 -0.571289,-1.801758 -0.571289,-0.65918 -1.608398,-0.65918 -1.344727,0 -2.44336,0.914063 z m 15.618164,-5.80957 q -1.107421,-0.37793 -2.100586,-0.37793 -1.125,0 -1.836914,0.518555 -0.703125,0.509765 -0.703125,1.458984 0,1.125 1.854493,1.977539 1.371093,0.632812 1.810546,0.878906 0.448243,0.246094 0.905274,0.676758 0.457031,0.430664 0.729492,1.019531 0.28125,0.580078 0.28125,1.309571 0,1.810546 -1.22168,2.8125 -1.21289,0.993164 -2.865234,0.993164 -1.599609,0 -2.803711,-0.632813 l 0.298828,-1.239258 q 1.415039,0.641602 2.469727,0.641602 1.230469,0 1.96875,-0.632813 0.74707,-0.641601 0.74707,-1.757812 0,-0.826172 -0.483398,-1.397461 -0.483399,-0.580078 -1.78418,-1.177734 -1.335938,-0.615235 -1.731445,-0.834961 -0.386719,-0.228516 -0.773438,-0.624024 -0.386719,-0.395508 -0.597656,-0.887695 -0.210938,-0.492188 -0.210938,-1.072266 0,-1.538086 1.107422,-2.399414 1.107422,-0.861328 2.803711,-0.861328 1.239258,0 2.460938,0.37793 z m 11.979493,6.495117 h -6.28418 q 0,1.555664 0.896484,2.566406 0.905274,1.010742 2.214844,1.010742 1.248047,0 2.575195,-0.448242 l 0.237305,1.098633 q -1.212891,0.544922 -2.830078,0.544922 -2.039063,0 -3.287109,-1.309571 -1.248047,-1.30957 -1.248047,-3.533203 0,-2.179687 1.116211,-3.471679 1.125,-1.300782 2.90039,-1.300782 1.582031,0 2.645508,1.204102 1.063477,1.204101 1.063477,3.208008 z m -1.494141,-1.116211 q 0,-1.072266 -0.667969,-1.801758 -0.667969,-0.738281 -1.49414,-0.738281 -1.063477,0 -1.766602,0.703125 -0.694336,0.703125 -0.773437,1.836914 z m 11.988281,9.272461 h -1.371094 v -4.939453 q -0.421875,0.676757 -1.21289,1.116211 -0.782227,0.439453 -1.652344,0.439453 -1.573242,0 -2.487305,-1.379883 -0.914062,-1.379883 -0.914062,-3.515625 0,-2.047852 0.949219,-3.383789 0.949218,-1.335938 2.53125,-1.335938 1.731445,0 2.786132,1.40625 v -1.186523 h 1.371094 z m -1.371094,-6.424805 v -3.805664 q -0.984375,-1.582031 -2.373046,-1.582031 -1.133789,0 -1.792969,1.02832 -0.65918,1.02832 -0.65918,2.575195 0,1.573243 0.615235,2.583985 0.624023,1.010742 1.705078,1.010742 0.518554,0 1.045898,-0.28125 0.527344,-0.28125 0.993164,-0.84375 0.46582,-0.5625 0.46582,-0.685547 z"
     id="text3"
     style="font-weight:700;font-size:18px;font-family:'DejaVu Sans Mono', monospace;fill:#ffffff"
     aria-label="FM16Seq" />
  <path
     d="M 29.532227,39.759766 H 27.408203 V 46 h -0.795898 v -6.240234 h -2.133789 v -0.649414 h 5.053711 z M 35.098633,46 h -0.756836 q -0.09277,-0.307617 -0.09277,-0.820313 -0.649414,0.952149 -1.767578,0.952149 -0.566406,0 -1.000976,-0.400391 -0.429688,-0.405273 -0.429688,-1.040039 0,-0.375976 0.151367,-0.664062 0.151368,-0.288086 0.444336,-0.483399 0.292969,-0.200195 0.712891,-0.3125 0.419922,-0.117187 0.996094,-0.161133 l 0.854492,-0.06836 v -0.244141 q 0,-1.308593 -1.220703,-1.308593 -0.288086,0 -0.732422,0.126953 -0.439453,0.12207 -0.756836,0.292969 l -0.200195,-0.546875 q 1.040039,-0.532227 1.933593,-0.532227 1.738282,0 1.738282,1.84082 v 2.1875 q 0,0.664063 0.126953,1.181641 z m -0.888672,-1.508789 v -0.922852 q -1.030274,0.09277 -1.416016,0.175782 -0.380859,0.07813 -0.664062,0.297851 -0.278321,0.219727 -0.278321,0.595703 0,0.341797 0.239258,0.551758 0.239258,0.209961 0.610352,0.209961 0.405273,0 0.805664,-0.239258 0.400391,-0.24414 0.703125,-0.668945 z m 3.603516,-2.919922 q 0.253906,-0.351562 0.683593,-0.566406 0.434571,-0.214844 0.913086,-0.214844 0.888672,0 1.381836,0.712891 0.498047,0.71289 0.498047,1.875 0,1.176757 -0.527344,1.967773 -0.527343,0.786133 -1.411133,0.786133 -0.473632,0 -0.888671,-0.234375 -0.410157,-0.239258 -0.649414,-0.629883 V 46 h -0.761719 v -6.889648 h 0.761719 z m 0,0.756836 v 2.114258 q 0.214843,0.429687 0.581054,0.717773 0.366211,0.288086 0.756836,0.288086 0.615235,0 0.976563,-0.585937 0.366211,-0.585938 0.366211,-1.44043 0,-0.878906 -0.34668,-1.425781 -0.34668,-0.546875 -0.966797,-0.546875 -0.805664,0 -1.367187,0.878906 z m 6.000976,-0.756836 q 0.253906,-0.351562 0.683594,-0.566406 0.43457,-0.214844 0.913086,-0.214844 0.888672,0 1.381836,0.712891 0.498047,0.71289 0.498047,1.875 0,1.176757 -0.527344,1.967773 -0.527344,0.786133 -1.411133,0.786133 -0.473633,0 -0.888672,-0.234375 -0.410156,-0.239258 -0.649414,-0.629883 V 46 h -0.761719 v -6.889648 h 0.761719 z m 0,0.756836 v 2.114258 q 0.214844,0.429687 0.581055,0.717773 0.366211,0.288086 0.756836,0.288086 0.615234,0 0.976562,-0.585937 0.366211,-0.585938 0.366211,-1.44043 0,-0.878906 -0.34668,-1.425781 -0.346679,-0.546875 -0.966796,-0.546875 -0.805664,0 -1.367188,0.878906 z m 9.311524,1.152344 h -3.491211 q 0,0.864258 0.498046,1.425781 0.50293,0.561523 1.230469,0.561523 0.69336,0 1.430664,-0.249023 l 0.131836,0.610352 q -0.673828,0.302734 -1.572265,0.302734 -1.132813,0 -1.826172,-0.727539 -0.69336,-0.727539 -0.69336,-1.962891 0,-1.210937 0.620118,-1.928711 0.625,-0.722656 1.611328,-0.722656 0.878906,0 1.469726,0.668945 0.590821,0.668946 0.590821,1.782227 z m -0.830079,-0.620117 q 0,-0.595704 -0.371093,-1.000977 -0.371094,-0.410156 -0.830078,-0.410156 -0.590821,0 -0.981446,0.390625 -0.385742,0.390625 -0.429687,1.020508 z M 58.956055,46 h -0.761719 v -0.732422 q -0.234375,0.375977 -0.673828,0.620117 -0.434571,0.244141 -0.917969,0.244141 -0.874023,0 -1.381836,-0.776367 -0.507812,-0.78125 -0.507812,-1.977539 0,-1.118164 0.527343,-1.850586 0.532227,-0.737305 1.40625,-0.737305 0.961914,0 1.547852,0.78125 v -2.460937 h 0.761719 z m -0.761719,-1.557617 v -2.114258 q -0.546875,-0.878906 -1.318359,-0.878906 -0.629883,0 -0.996094,0.561523 -0.366211,0.556641 -0.366211,1.411133 0,0.878906 0.341797,1.455078 0.346679,0.571289 0.947265,0.571289 0.288086,0 0.581055,-0.15625 0.292969,-0.15625 0.551758,-0.46875 0.258789,-0.3125 0.258789,-0.380859 z m 12.250976,-2.802735 q -0.639648,-0.209961 -1.206054,-0.209961 -0.620117,0 -0.981446,0.209961 -0.361328,0.205079 -0.361328,0.551758 0,0.219727 0.166016,0.385742 0.166016,0.161133 0.664062,0.302735 l 0.72754,0.209961 q 0.502929,0.141601 0.820312,0.341797 0.317383,0.195312 0.473633,0.478515 0.161133,0.278321 0.161133,0.649414 0,0.727539 -0.610352,1.152344 -0.610351,0.419922 -1.552734,0.419922 -0.9375,0 -1.547852,-0.283203 l 0.146485,-0.65918 q 0.639648,0.302734 1.37207,0.302734 0.634765,0 1.030273,-0.234375 0.400391,-0.239257 0.400391,-0.629882 0,-0.263672 -0.200195,-0.46875 -0.195313,-0.209961 -0.927735,-0.434571 -0.59082,-0.180664 -0.86914,-0.268554 -0.278321,-0.09277 -0.517579,-0.268555 -0.239257,-0.175781 -0.36621,-0.419922 -0.122071,-0.244141 -0.122071,-0.546875 0,-0.65918 0.576172,-1.044922 0.576172,-0.385742 1.52832,-0.385742 0.615235,0 1.367188,0.209961 z m 6.582032,4.13086 q -0.766602,0.351562 -1.508789,0.351562 -1.362305,0 -1.362305,-1.440429 v -3.110352 h -0.976563 v -0.65918 h 0.976563 v -1.391601 h 0.742187 v 1.391601 h 1.728516 v 0.65918 h -1.728516 v 2.910156 q 0,0.463867 0.205079,0.722657 0.205078,0.253906 0.55664,0.253906 0.625,0 1.235352,-0.278321 z m 6.103515,-2.290039 h -3.491211 q 0,0.864258 0.498047,1.425781 0.50293,0.561523 1.230469,0.561523 0.693359,0 1.430664,-0.249023 l 0.131836,0.610352 q -0.673828,0.302734 -1.572266,0.302734 -1.132812,0 -1.826171,-0.727539 -0.69336,-0.727539 -0.69336,-1.962891 0,-1.210937 0.620117,-1.928711 0.625,-0.722656 1.611328,-0.722656 0.878907,0 1.469727,0.668945 0.59082,0.668946 0.59082,1.782227 z m -0.830078,-0.620117 q 0,-0.595704 -0.371094,-1.000977 -0.371093,-0.410156 -0.830078,-0.410156 -0.59082,0 -0.981445,0.390625 -0.385742,0.390625 -0.429687,1.020508 z m 3.520508,-1.289063 q 0.253906,-0.351562 0.683594,-0.566406 0.43457,-0.214844 0.913086,-0.214844 0.878906,0 1.376953,0.727539 0.50293,0.722656 0.50293,1.884766 0,1.171875 -0.527344,1.953125 -0.522461,0.776367 -1.411133,0.776367 -0.473633,0 -0.888672,-0.234375 -0.410156,-0.239258 -0.649414,-0.629883 v 2.744141 H 85.05957 v -7.09961 h 0.761719 z m 0,0.756836 v 2.114258 q 0.214844,0.429687 0.581055,0.717773 0.366211,0.288086 0.756836,0.288086 0.615234,0 0.976562,-0.576172 0.366211,-0.576172 0.366211,-1.430664 0,-0.878906 -0.34668,-1.435547 -0.346679,-0.55664 -0.966796,-0.55664 -0.805665,0 -1.367188,0.878906 z m 15.312501,1.152344 h -3.491212 q 0,0.864258 0.498047,1.425781 0.50293,0.561523 1.230469,0.561523 0.693356,0 1.430666,-0.249023 l 0.13183,0.610352 q -0.67382,0.302734 -1.572262,0.302734 -1.132812,0 -1.826172,-0.727539 -0.693359,-0.727539 -0.693359,-1.962891 0,-1.210937 0.620117,-1.928711 0.625,-0.722656 1.611328,-0.722656 0.878906,0 1.469728,0.668945 0.59082,0.668946 0.59082,1.782227 z m -0.83008,-0.620117 q 0,-0.595704 -0.371093,-1.000977 -0.371094,-0.410156 -0.830078,-0.410156 -0.59082,0 -0.981445,0.390625 -0.385742,0.390625 -0.429688,1.020508 z M 106.96387,46 h -0.76172 v -0.732422 q -0.23438,0.375977 -0.67383,0.620117 -0.43457,0.244141 -0.91797,0.244141 -0.87402,0 -1.38183,-0.776367 -0.50782,-0.78125 -0.50782,-1.977539 0,-1.118164 0.52735,-1.850586 0.53222,-0.737305 1.40625,-0.737305 0.96191,0 1.54785,0.78125 v -2.460937 h 0.76172 z m -0.76172,-1.557617 v -2.114258 q -0.54688,-0.878906 -1.31836,-0.878906 -0.62988,0 -0.99609,0.561523 -0.36622,0.556641 -0.36622,1.411133 0,0.878906 0.3418,1.455078 0.34668,0.571289 0.94727,0.571289 0.28808,0 0.58105,-0.15625 0.29297,-0.15625 0.55176,-0.46875 0.25879,-0.3125 0.25879,-0.380859 z m 5.1416,-5.454102 q 0.21484,0 0.36621,0.15625 0.15137,0.151367 0.15137,0.366211 0,0.22461 -0.15137,0.375977 -0.14648,0.151367 -0.36621,0.151367 -0.2002,0 -0.35645,-0.15625 -0.15136,-0.161133 -0.15136,-0.371094 0,-0.209961 0.15136,-0.366211 0.15625,-0.15625 0.35645,-0.15625 z M 111.71484,46 h -0.76171 v -4.428711 h -1.49903 v -0.65918 h 2.26074 z m 7.31934,-0.229492 q -0.7666,0.351562 -1.50879,0.351562 -1.3623,0 -1.3623,-1.440429 v -3.110352 h -0.97657 v -0.65918 h 0.97657 v -1.391601 h 0.74218 v 1.391601 h 1.72852 v 0.65918 h -1.72852 v 2.910156 q 0,0.463867 0.20508,0.722657 0.20508,0.253906 0.55664,0.253906 0.625,0 1.23535,-0.278321 z m 3.97949,-4.980469 q 1.04981,0 1.66992,0.732422 0.62012,0.732422 0.62012,1.928711 0,1.206055 -0.62012,1.943359 -0.62011,0.737305 -1.66992,0.737305 -1.05469,0 -1.6748,-0.732422 -0.61524,-0.737305 -0.61524,-1.948242 0,-1.201172 0.62012,-1.928711 0.62012,-0.732422 1.66992,-0.732422 z m 0,4.677734 q 0.69336,0 1.09375,-0.585937 0.40039,-0.585938 0.40039,-1.420899 0,-0.878906 -0.39551,-1.445312 -0.3955,-0.566406 -1.09863,-0.566406 -0.70801,0 -1.09863,0.561523 -0.39063,0.556641 -0.39063,1.450195 0,0.84961 0.39551,1.430665 0.39551,0.576171 1.09375,0.576171 z m 8.05176,-4.418945 -0.30762,0.732422 q -0.50293,-0.219727 -0.86914,-0.219727 -0.33691,0 -0.65918,0.195313 -0.32226,0.19043 -0.5957,0.551758 -0.26856,0.356445 -0.26856,0.40039 V 46 h -0.75683 v -5.087891 h 0.75683 v 1.030274 q 0.61036,-1.152344 1.58204,-1.152344 0.57617,0 1.11816,0.258789 z m 11.97266,-1.860351 -0.2002,0.620117 q -0.54199,-0.15625 -0.97168,-0.15625 -0.41016,0 -0.56641,0.234375 -0.15136,0.229492 -0.15136,0.932617 v 0.09277 h 1.70898 v 0.65918 h -1.70898 V 46 h -0.76172 v -4.428711 h -1.2793 v -0.65918 h 1.2793 v -0.170898 q 0,-0.97168 0.33203,-1.362305 0.33203,-0.390625 1.14746,-0.390625 0.52734,0 1.17188,0.200196 z m 3.97949,1.601562 q 1.0498,0 1.66992,0.732422 0.62012,0.732422 0.62012,1.928711 0,1.206055 -0.62012,1.943359 -0.62012,0.737305 -1.66992,0.737305 -1.05469,0 -1.67481,-0.732422 -0.61523,-0.737305 -0.61523,-1.948242 0,-1.201172 0.62012,-1.928711 0.62011,-0.732422 1.66992,-0.732422 z m 0,4.677734 q 0.69336,0 1.09375,-0.585937 0.40039,-0.585938 0.40039,-1.420899 0,-0.878906 -0.39551,-1.445312 -0.39551,-0.566406 -1.09863,-0.566406 -0.70801,0 -1.09863,0.561523 -0.39063,0.556641 -0.39063,1.450195 0,0.84961 0.39551,1.430665 0.39551,0.576171 1.09375,0.576171 z m 8.05176,-4.418945 -0.30762,0.732422 q -0.50293,-0.219727 -0.86914,-0.219727 -0.33692,0 -0.65918,0.195313 -0.32227,0.19043 -0.5957,0.551758 -0.26856,0.356445 -0.26856,0.40039 V 46 h -0.75684 v -5.087891 h 0.75684 v 1.030274 q 0.61035,-1.152344 1.58203,-1.152344 0.57617,0 1.11817,0.258789 z M 166.8125,46 h -3.78906 v -0.581055 q 1.44043,-1.606445 1.87011,-2.15332 0.42969,-0.546875 0.69825,-1.147461 0.26855,-0.600586 0.26855,-1.196289 0,-0.576172 -0.35156,-0.908203 -0.34668,-0.332031 -0.97656,-0.332031 -0.4834,0 -1.29883,0.297851 l -0.11231,-0.688476 q 0.73731,-0.3125 1.54297,-0.3125 0.92285,0 1.48438,0.522461 0.5664,0.517578 0.5664,1.386718 0,0.620117 -0.29297,1.230469 -0.28808,0.610352 -0.74218,1.171875 -0.4541,0.561523 -1.76758,2.011719 h 2.90039 z m 5.61035,-2.37793 h -2.90039 v -0.742187 h 2.90039 z m 4.59961,-2.832031 q 1.04981,0 1.66992,0.732422 0.62012,0.732422 0.62012,1.928711 0,1.206055 -0.62012,1.943359 -0.62011,0.737305 -1.66992,0.737305 -1.05469,0 -1.6748,-0.732422 -0.61524,-0.737305 -0.61524,-1.948242 0,-1.201172 0.62012,-1.928711 0.62012,-0.732422 1.66992,-0.732422 z m 0,4.677734 q 0.69336,0 1.09375,-0.585937 0.40039,-0.585938 0.40039,-1.420899 0,-0.878906 -0.39551,-1.445312 -0.3955,-0.566406 -1.09863,-0.566406 -0.70801,0 -1.09863,0.561523 -0.39063,0.556641 -0.39063,1.450195 0,0.84961 0.39551,1.430665 0.39551,0.576171 1.09375,0.576171 z m 4.81445,-3.896484 q 0.25391,-0.351562 0.6836,-0.566406 0.43457,-0.214844 0.91308,-0.214844 0.87891,0 1.37696,0.727539 0.50293,0.722656 0.50293,1.884766 0,1.171875 -0.52735,1.953125 -0.52246,0.776367 -1.41113,0.776367 -0.47363,0 -0.88867,-0.234375 -0.41016,-0.239258 -0.64942,-0.629883 v 2.744141 h -0.76171 v -7.09961 h 0.76171 z m 0,0.756836 v 2.114258 q 0.21485,0.429687 0.58106,0.717773 0.36621,0.288086 0.75683,0.288086 0.61524,0 0.97657,-0.576172 0.36621,-0.576172 0.36621,-1.430664 0,-0.878906 -0.34668,-1.435547 -0.34668,-0.55664 -0.9668,-0.55664 -0.80566,0 -1.36719,0.878906 z m 15.09278,-2.519531 h -2.85157 v 2.250976 h 2.59766 v 0.698242 h -2.59766 V 46 h -0.80078 v -6.889648 h 3.65235 z M 203.24805,46 h -0.77149 v -5.908203 l -1.04004,2.827148 h -0.75683 l -1.04004,-2.827148 V 46 h -0.77149 v -6.889648 h 1.04004 l 1.15235,3.139648 1.14746,-3.139648 h 1.04004 z"
     id="text4"
     style="font-size:10px;font-family:'DejaVu Sans Mono', monospace;fill:#87d3ff"
     aria-label="Tabbed step editor for 2-op FM" />
  <path
     id="rect4"
     style="fill:#1d2329;stroke:#3f4a53"
     d="m 26,60 h 488 c 3.324,0 6,2.676 6,6 v 30 c 0,3.324 -2.676,6 -6,6 H 26 c -3.324,0 -6,-2.676 -6,-6 V 66 c 0,-3.324 2.676,-6 6,-6 z" />
  <path
     d="m 32.020996,68.484863 q -0.553711,-0.188965 -1.050293,-0.188965 -0.5625,0 -0.918457,0.259278 -0.351562,0.254883 -0.351562,0.729492 0,0.5625 0.927246,0.988769 0.685547,0.316407 0.905273,0.439454 0.224121,0.123046 0.452637,0.338379 0.228515,0.215332 0.364746,0.509765 0.140625,0.290039 0.140625,0.654785 0,0.905274 -0.61084,1.40625 -0.606445,0.496582 -1.432617,0.496582 -0.799805,0 -1.401856,-0.316406 l 0.149414,-0.619629 q 0.70752,0.320801 1.234864,0.320801 0.615234,0 0.984375,-0.316406 0.373535,-0.320801 0.373535,-0.878907 0,-0.413085 -0.241699,-0.69873 -0.2417,-0.290039 -0.89209,-0.588867 -0.667969,-0.307617 -0.865723,-0.417481 -0.193359,-0.114257 -0.386719,-0.312011 -0.193359,-0.197754 -0.298828,-0.443848 -0.105468,-0.246094 -0.105468,-0.536133 0,-0.769043 0.553711,-1.199707 0.55371,-0.430664 1.401855,-0.430664 0.619629,0 1.230469,0.188965 z m 6.358887,-0.101074 H 36.468262 V 74 h -0.716309 v -5.616211 h -1.92041 v -0.584473 h 4.54834 z M 43.165527,74 h -3.238769 v -6.200684 h 3.212402 v 0.628418 h -2.491699 v 1.920411 h 2.395019 v 0.628417 h -2.395019 v 2.39502 h 2.518066 z m 2.16211,-6.200684 h 1.573242 q 0.89209,0 1.428223,0.448243 0.536132,0.448242 0.536132,1.234863 0,0.791015 -0.536132,1.265625 -0.531739,0.470215 -1.397461,0.470215 H 46.04834 V 74 h -0.720703 z m 0.720703,2.790528 h 0.782226 q 1.27002,0 1.27002,-1.063477 0,-0.492187 -0.347168,-0.79541 -0.342773,-0.303223 -0.887695,-0.303223 H 46.04834 Z m 12.977051,-2.104981 q -0.553711,-0.188965 -1.050293,-0.188965 -0.5625,0 -0.918457,0.259278 -0.351563,0.254883 -0.351563,0.729492 0,0.5625 0.927246,0.988769 0.685547,0.316407 0.905274,0.439454 0.224121,0.123046 0.452636,0.338379 0.228516,0.215332 0.364746,0.509765 0.140625,0.290039 0.140625,0.654785 0,0.905274 -0.610839,1.40625 -0.606446,0.496582 -1.432618,0.496582 -0.799804,0 -1.401855,-0.316406 l 0.149414,-0.619629 q 0.70752,0.320801 1.234863,0.320801 0.615235,0 0.984375,-0.316406 0.373535,-0.320801 0.373535,-0.878907 0,-0.413085 -0.241699,-0.69873 -0.241699,-0.290039 -0.89209,-0.588867 -0.667968,-0.307617 -0.865722,-0.417481 -0.19336,-0.114257 -0.386719,-0.312011 -0.193359,-0.197754 -0.298828,-0.443848 -0.105469,-0.246094 -0.105469,-0.536133 0,-0.769043 0.553711,-1.199707 0.553711,-0.430664 1.401856,-0.430664 0.619628,0 1.230468,0.188965 z M 64.769043,74 h -3.23877 v -6.200684 h 3.212403 v 0.628418 h -2.491699 v 1.920411 h 2.395019 v 0.628417 h -2.395019 v 2.39502 h 2.518066 z m 5.537109,0 h -3.375 v -6.200684 h 0.720703 v 5.572266 h 2.654297 z m 5.264649,0 h -3.23877 v -6.200684 h 3.212403 v 0.628418 h -2.4917 v 1.920411 h 2.39502 v 0.628417 h -2.39502 v 2.39502 h 2.518067 z m 5.743652,-0.386719 q -0.729492,0.505371 -1.691894,0.505371 -1.204102,0 -1.83252,-0.826172 -0.624023,-0.826171 -0.624023,-2.390625 0,-1.511718 0.606445,-2.364257 0.606445,-0.856934 1.850098,-0.856934 0.448242,0 0.887695,0.114258 0.439453,0.114258 0.707519,0.303223 l -0.237304,0.566894 q -0.619629,-0.351562 -1.35791,-0.351562 -0.856934,0 -1.274414,0.624023 -0.417481,0.619629 -0.417481,1.964355 0,2.583985 1.691895,2.583985 0.716308,0 1.467773,-0.439453 z m 5.67334,-5.229492 H 85.076172 V 74 h -0.716309 v -5.616211 h -1.92041 v -0.584473 h 4.54834 z"
     id="text5"
     style="font-size:9px;font-family:'DejaVu Sans Mono', monospace;fill:#a8b8c4"
     aria-label="STEP SELECT" />
  <path
     d="m 31.0625,85.976562 q 0.550781,0.128907 0.863281,0.5 0.3125,0.371094 0.3125,0.882813 0,0.75 -0.546875,1.195312 Q 31.148437,89 30.382812,89 h -1.566406 v -5.511719 h 1.527344 q 0.796875,0 1.246094,0.351563 0.449218,0.347656 0.449218,0.984375 0,0.390625 -0.261718,0.695312 -0.257813,0.304688 -0.714844,0.441406 z m -1.605469,-0.296875 h 0.75 q 1.175781,0 1.175781,-0.839843 0,-0.382813 -0.289062,-0.585938 -0.289063,-0.207031 -0.847656,-0.207031 h -0.789063 z m 0,2.761719 h 0.726563 q 0.636718,0 1.007812,-0.289062 0.375,-0.289063 0.375,-0.792969 0,-0.535156 -0.367187,-0.828125 -0.367188,-0.292969 -1.0625,-0.292969 H 29.457031 Z M 36.480469,89 h -1.664063 v -4.984375 h -1.0625 v -0.527344 h 1.671875 v 4.984375 h 1.054688 z m 5.089843,0 h -0.609375 v -0.601563 q -0.65625,0.699219 -1.382812,0.699219 -1.144531,0 -1.144531,-1.386719 v -2.78125 h 0.609375 v 2.605469 q 0,0.519531 0.164062,0.777344 0.164063,0.253906 0.554688,0.253906 0.558593,0 1.199218,-0.695312 v -2.941407 h 0.609375 z M 46.5,86.984375 h -2.792969 q 0,0.691406 0.398438,1.140625 0.402343,0.449219 0.984375,0.449219 0.554687,0 1.144531,-0.199219 l 0.105469,0.488281 q -0.539063,0.242188 -1.257813,0.242188 -0.90625,0 -1.460937,-0.582032 -0.554688,-0.582031 -0.554688,-1.570312 0,-0.96875 0.496094,-1.542969 0.5,-0.578125 1.289062,-0.578125 0.703125,0 1.175782,0.535156 Q 46.5,85.902344 46.5,86.792969 Z m -0.664063,-0.496094 q 0,-0.476562 -0.296875,-0.800781 -0.296875,-0.328125 -0.664062,-0.328125 -0.472656,0 -0.785156,0.3125 -0.308594,0.3125 -0.34375,0.816406 z M 56.25,85.648437 H 52.554687 V 85.136719 H 56.25 Z m 0,1.566407 H 52.554687 V 86.703125 H 56.25 Z m 6.804687,-1.757813 q 0.203125,-0.28125 0.546875,-0.453125 0.347657,-0.171875 0.730469,-0.171875 0.703125,0 1.101563,0.582031 0.402343,0.578125 0.402343,1.507813 0,0.9375 -0.421875,1.5625 -0.417968,0.621094 -1.128906,0.621094 -0.378906,0 -0.710937,-0.1875 -0.328125,-0.191407 -0.519532,-0.503907 v 2.195313 h -0.609375 v -5.679688 h 0.609375 z m 0,0.605469 v 1.691406 q 0.171875,0.34375 0.464844,0.574219 0.292969,0.230469 0.605469,0.230469 0.492187,0 0.78125,-0.460938 0.292969,-0.460937 0.292969,-1.144531 0,-0.703125 -0.277344,-1.148438 -0.277344,-0.445312 -0.773438,-0.445312 -0.644531,0 -1.09375,0.703125 z M 70.085937,89 h -1.664062 v -4.984375 h -1.0625 v -0.527344 h 1.671875 v 4.984375 h 1.054687 z m 5.199219,0 h -0.605469 q -0.07422,-0.246094 -0.07422,-0.65625 -0.519532,0.761719 -1.414063,0.761719 -0.453125,0 -0.800781,-0.320313 -0.34375,-0.324219 -0.34375,-0.832031 0,-0.300781 0.121094,-0.53125 0.121093,-0.230469 0.355468,-0.386719 0.234375,-0.160156 0.570313,-0.25 0.335937,-0.09375 0.796875,-0.128906 l 0.683594,-0.05469 V 86.40625 q 0,-1.046875 -0.976563,-1.046875 -0.230469,0 -0.585937,0.101562 -0.351563,0.09766 -0.605469,0.234375 l -0.160156,-0.4375 q 0.832031,-0.425781 1.546875,-0.425781 1.390625,0 1.390625,1.472656 v 1.75 q 0,0.53125 0.101562,0.945313 z m -0.710937,-1.207031 v -0.738282 q -0.824219,0.07422 -1.132813,0.140625 -0.304687,0.0625 -0.53125,0.238282 -0.222656,0.175781 -0.222656,0.476562 0,0.273438 0.191406,0.441406 0.191406,0.167969 0.488281,0.167969 0.324219,0 0.644532,-0.191406 0.320312,-0.195313 0.5625,-0.535156 z M 80.167969,84.929687 78.625,89 q -0.335938,0.898437 -0.667969,1.253906 -0.328125,0.355469 -0.75,0.355469 -0.375,0 -0.742187,-0.136719 l 0.101562,-0.488281 q 0.296875,0.09375 0.53125,0.09375 0.328125,0 0.539063,-0.253906 0.210937,-0.253907 0.425781,-0.832032 l -1.527344,-4.0625 h 0.664063 l 1.152343,3.246094 1.152344,-3.246094 z M 84.785156,89 h -0.609375 v -2.609375 q 0,-0.542969 -0.175781,-0.785156 -0.171875,-0.246094 -0.542969,-0.246094 -0.558594,0 -1.199219,0.695312 V 89 h -0.609375 v -5.511719 h 0.609375 v 2.039063 q 0.65625,-0.695313 1.382813,-0.695313 1.144531,0 1.144531,1.382813 z m 4.921875,-2.015625 h -2.792969 q 0,0.691406 0.398438,1.140625 0.402344,0.449219 0.984375,0.449219 0.554687,0 1.144531,-0.199219 l 0.105469,0.488281 q -0.539063,0.242188 -1.257813,0.242188 -0.90625,0 -1.460937,-0.582032 -0.554688,-0.582031 -0.554688,-1.570312 0,-0.96875 0.496094,-1.542969 0.5,-0.578125 1.289063,-0.578125 0.703125,0 1.175781,0.535156 0.472656,0.535157 0.472656,1.425782 z m -0.664062,-0.496094 q 0,-0.476562 -0.296875,-0.800781 -0.296875,-0.328125 -0.664063,-0.328125 -0.472656,0 -0.785156,0.3125 -0.308594,0.3125 -0.34375,0.816406 z M 94.488281,89 h -0.605469 q -0.07422,-0.246094 -0.07422,-0.65625 -0.519532,0.761719 -1.414063,0.761719 -0.453125,0 -0.800781,-0.320313 Q 91.25,88.460937 91.25,87.953125 q 0,-0.300781 0.121094,-0.53125 0.121093,-0.230469 0.355468,-0.386719 0.234375,-0.160156 0.570313,-0.25 0.335937,-0.09375 0.796875,-0.128906 l 0.683594,-0.05469 V 86.40625 q 0,-1.046875 -0.976563,-1.046875 -0.230469,0 -0.585937,0.101562 -0.351563,0.09766 -0.605469,0.234375 l -0.160156,-0.4375 q 0.832031,-0.425781 1.546875,-0.425781 1.390625,0 1.390625,1.472656 v 1.75 q 0,0.53125 0.101562,0.945313 z m -0.710937,-1.207031 v -0.738282 q -0.824219,0.07422 -1.132813,0.140625 -0.304687,0.0625 -0.53125,0.238282 -0.222656,0.175781 -0.222656,0.476562 0,0.273438 0.191406,0.441406 0.191406,0.167969 0.488281,0.167969 0.324219,0 0.644532,-0.191406 0.320312,-0.195313 0.5625,-0.535156 z M 99.171875,89 H 98.5625 v -0.585938 q -0.1875,0.300782 -0.539063,0.496094 -0.347656,0.195313 -0.734375,0.195313 -0.699218,0 -1.105468,-0.621094 -0.40625,-0.625 -0.40625,-1.582031 0,-0.894532 0.421875,-1.480469 0.425781,-0.589844 1.125,-0.589844 0.769531,0 1.238281,0.625 v -1.96875 h 0.609375 z M 98.5625,87.753906 V 86.0625 q -0.4375,-0.703125 -1.054688,-0.703125 -0.503906,0 -0.796875,0.449219 -0.292968,0.445312 -0.292968,1.128906 0,0.703125 0.273437,1.164062 0.277344,0.457032 0.757813,0.457032 0.230468,0 0.464843,-0.125 0.234375,-0.125 0.441407,-0.375 0.207031,-0.25 0.207031,-0.304688 z m 3.85547,1.351563 q -0.20313,-0.02344 -0.33594,-0.167969 -0.13281,-0.144531 -0.13281,-0.328125 0,-0.199219 0.12891,-0.335938 0.1289,-0.136718 0.32421,-0.136718 0.21875,0 0.37891,0.179687 0.16016,0.175781 0.16016,0.425781 0,0.765625 -0.85157,1.195313 l -0.14843,-0.28125 q 0.47656,-0.234375 0.47656,-0.550781 z m 9.58594,-5.722657 q 0.92578,0 1.41015,0.734375 0.48828,0.730469 0.48828,2.128907 0,1.390625 -0.48437,2.125 -0.48438,0.734375 -1.41406,0.734375 -0.92188,0 -1.41016,-0.730469 -0.48437,-0.734375 -0.48437,-2.128906 0,-1.394532 0.48437,-2.128907 0.48438,-0.734375 1.41016,-0.734375 z m 0,5.160157 q 1.21875,0 1.21875,-2.296875 0,-2.300782 -1.21875,-2.300782 -0.59375,0 -0.90625,0.597657 -0.3086,0.59375 -0.3086,1.703125 0,1.121093 0.3086,1.710937 0.30859,0.585938 0.90625,0.585938 z m 6.44922,-3.503907 -0.2461,0.585938 q -0.40234,-0.175781 -0.69531,-0.175781 -0.26953,0 -0.52734,0.15625 -0.25782,0.152343 -0.47657,0.441406 -0.21484,0.285156 -0.21484,0.320312 V 89 h -0.60547 v -4.070313 h 0.60547 v 0.824219 q 0.48828,-0.921875 1.26562,-0.921875 0.46094,0 0.89454,0.207031 z M 123.29297,89 h -0.60547 q -0.0742,-0.246094 -0.0742,-0.65625 -0.51953,0.761719 -1.41406,0.761719 -0.45313,0 -0.80078,-0.320313 -0.34375,-0.324219 -0.34375,-0.832031 0,-0.300781 0.12109,-0.53125 0.1211,-0.230469 0.35547,-0.386719 0.23438,-0.160156 0.57031,-0.25 0.33594,-0.09375 0.79688,-0.128906 l 0.68359,-0.05469 V 86.40625 q 0,-1.046875 -0.97656,-1.046875 -0.23047,0 -0.58594,0.101562 -0.35156,0.09766 -0.60547,0.234375 l -0.16015,-0.4375 q 0.83203,-0.425781 1.54687,-0.425781 1.39063,0 1.39063,1.472656 v 1.75 q 0,0.53125 0.10156,0.945313 z m -0.71094,-1.207031 v -0.738282 q -0.82422,0.07422 -1.13281,0.140625 -0.30469,0.0625 -0.53125,0.238282 -0.22266,0.175781 -0.22266,0.476562 0,0.273438 0.19141,0.441406 0.19141,0.167969 0.48828,0.167969 0.32422,0 0.64453,-0.191406 0.32031,-0.195313 0.5625,-0.535156 z M 127.99219,89 h -0.60938 v -2.609375 q 0,-0.542969 -0.17578,-0.785156 -0.17187,-0.246094 -0.54297,-0.246094 -0.55859,0 -1.19922,0.695312 V 89 h -0.60937 v -4.070313 h 0.60937 v 0.597657 q 0.65625,-0.695313 1.38282,-0.695313 1.14453,0 1.14453,1.382813 z m 2.79297,-1.535156 q -0.57032,0.277343 -0.57032,0.488281 0,0.113281 0.12891,0.191406 0.13281,0.07813 0.35937,0.07813 l 1.3711,-0.03906 q 0.48828,0 0.75781,0.238281 0.27344,0.238281 0.27344,0.675781 0,0.691406 -0.61719,1.101563 -0.61719,0.410156 -1.44141,0.410156 -0.67578,0 -1.10546,-0.285156 -0.42969,-0.28125 -0.42969,-0.730469 0,-0.488281 0.66406,-0.824219 -0.55078,-0.257812 -0.55078,-0.632812 0,-0.429688 0.71094,-0.800782 -0.32813,-0.199218 -0.50391,-0.515625 -0.17578,-0.316406 -0.17578,-0.667968 0,-0.574219 0.39062,-0.941407 0.39063,-0.371093 0.97657,-0.371093 0.42187,0 0.76172,0.175781 l 1.20703,-0.183594 v 0.59375 h -0.77735 q 0.17578,0.308594 0.17578,0.726563 0,0.554687 -0.38671,0.9375 -0.38672,0.382812 -0.98047,0.382812 -0.125,0 -0.23828,-0.0078 z M 131.02344,87 q 0.33593,0 0.54687,-0.230469 0.21485,-0.234375 0.21485,-0.609375 0,-0.394531 -0.20704,-0.617187 -0.20703,-0.222657 -0.55468,-0.222657 -0.32422,0 -0.54688,0.234375 -0.21875,0.230469 -0.21875,0.605469 0,0.367188 0.21875,0.605469 Q 130.69922,87 131.02344,87 Z m 0.0234,3.136719 q 0.60157,0 1.02344,-0.269532 0.42578,-0.265625 0.42578,-0.660156 0,-0.40625 -0.60156,-0.40625 -0.19922,0 -0.6875,0.02344 -0.30859,0.01563 -0.48437,0.01563 -0.0859,0 -0.26954,0.140625 -0.17968,0.140625 -0.27734,0.28125 -0.0937,0.144531 -0.0937,0.296875 0,0.238281 0.26563,0.40625 0.26562,0.171875 0.69921,0.171875 z m 6.66797,-3.152344 h -2.79297 q 0,0.691406 0.39844,1.140625 0.40235,0.449219 0.98438,0.449219 0.55468,0 1.14453,-0.199219 l 0.10547,0.488281 q -0.53907,0.242188 -1.25782,0.242188 -0.90625,0 -1.46093,-0.582032 -0.55469,-0.582031 -0.55469,-1.570312 0,-0.96875 0.49609,-1.542969 0.5,-0.578125 1.28907,-0.578125 0.70312,0 1.17578,0.535156 0.47265,0.535157 0.47265,1.425782 z m -0.66406,-0.496094 q 0,-0.476562 -0.29687,-0.800781 -0.29688,-0.328125 -0.66407,-0.328125 -0.47265,0 -0.78515,0.3125 -0.3086,0.3125 -0.34375,0.816406 z m 10.41406,-0.839844 h -3.69531 v -0.511718 h 3.69531 z m 0,1.566407 h -3.69531 v -0.511719 h 3.69531 z m 9.45313,-0.230469 H 154.125 q 0,0.691406 0.39844,1.140625 0.40234,0.449219 0.98437,0.449219 0.55469,0 1.14453,-0.199219 l 0.10547,0.488281 q -0.53906,0.242188 -1.25781,0.242188 -0.90625,0 -1.46094,-0.582032 -0.55469,-0.582031 -0.55469,-1.570312 0,-0.96875 0.4961,-1.542969 0.5,-0.578125 1.28906,-0.578125 0.70313,0 1.17578,0.535156 0.47266,0.535157 0.47266,1.425782 z m -0.66406,-0.496094 q 0,-0.476562 -0.29688,-0.800781 -0.29687,-0.328125 -0.66406,-0.328125 -0.47266,0 -0.78516,0.3125 -0.30859,0.3125 -0.34375,0.816406 z M 161.58203,89 h -0.60937 v -0.585938 q -0.1875,0.300782 -0.53907,0.496094 -0.34765,0.195313 -0.73437,0.195313 -0.69922,0 -1.10547,-0.621094 -0.40625,-0.625 -0.40625,-1.582031 0,-0.894532 0.42187,-1.480469 0.42579,-0.589844 1.125,-0.589844 0.76954,0 1.23829,0.625 v -1.96875 h 0.60937 z m -0.60937,-1.246094 V 86.0625 q -0.4375,-0.703125 -1.05469,-0.703125 -0.50391,0 -0.79688,0.449219 -0.29297,0.445312 -0.29297,1.128906 0,0.703125 0.27344,1.164062 0.27735,0.457032 0.75781,0.457032 0.23047,0 0.46485,-0.125 0.23437,-0.125 0.4414,-0.375 0.20704,-0.25 0.20704,-0.304688 z m 4.11328,-4.363281 q 0.17187,0 0.29297,0.125 0.12109,0.121094 0.12109,0.292969 0,0.179687 -0.12109,0.300781 -0.11719,0.121094 -0.29297,0.121094 -0.16016,0 -0.28516,-0.125 -0.12109,-0.128907 -0.12109,-0.296875 0,-0.167969 0.12109,-0.292969 0.125,-0.125 0.28516,-0.125 z M 165.38281,89 h -0.60937 v -3.542969 h -1.19922 v -0.527344 h 1.80859 z m 5.85547,-0.183594 q -0.61328,0.28125 -1.20703,0.28125 -1.08984,0 -1.08984,-1.152344 v -2.488281 h -0.78125 v -0.527344 h 0.78125 v -1.113281 h 0.59375 v 1.113281 h 1.38281 v 0.527344 h -1.38281 v 2.328125 q 0,0.371094 0.16406,0.578125 0.16406,0.203125 0.44531,0.203125 0.5,0 0.98828,-0.222656 z m 9.60156,0 q -0.61328,0.28125 -1.20703,0.28125 -1.08984,0 -1.08984,-1.152344 v -2.488281 h -0.78125 v -0.527344 h 0.78125 v -1.113281 h 0.59375 v 1.113281 h 1.38281 v 0.527344 h -1.38281 v 2.328125 q 0,0.371094 0.16406,0.578125 0.16406,0.203125 0.44531,0.203125 0.5,0 0.98828,-0.222656 z M 185.70312,89 h -0.60546 q -0.0742,-0.246094 -0.0742,-0.65625 -0.51953,0.761719 -1.41407,0.761719 -0.45312,0 -0.80078,-0.320313 -0.34375,-0.324219 -0.34375,-0.832031 0,-0.300781 0.1211,-0.53125 0.12109,-0.230469 0.35547,-0.386719 0.23437,-0.160156 0.57031,-0.25 0.33594,-0.09375 0.79687,-0.128906 l 0.6836,-0.05469 V 86.40625 q 0,-1.046875 -0.97657,-1.046875 -0.23046,0 -0.58593,0.101562 -0.35157,0.09766 -0.60547,0.234375 l -0.16016,-0.4375 q 0.83203,-0.425781 1.54688,-0.425781 1.39062,0 1.39062,1.472656 v 1.75 q 0,0.53125 0.10156,0.945313 z m -0.71093,-1.207031 v -0.738282 q -0.82422,0.07422 -1.13282,0.140625 -0.30468,0.0625 -0.53125,0.238282 -0.22265,0.175781 -0.22265,0.476562 0,0.273438 0.1914,0.441406 0.19141,0.167969 0.48829,0.167969 0.32421,0 0.64453,-0.191406 0.32031,-0.195313 0.5625,-0.535156 z m 5.47265,-2.753907 -0.24609,0.585938 q -0.40234,-0.175781 -0.69531,-0.175781 -0.26953,0 -0.52735,0.15625 -0.25781,0.152343 -0.47656,0.441406 -0.21484,0.285156 -0.21484,0.320312 V 89 h -0.60547 v -4.070313 h 0.60547 v 0.824219 q 0.48828,-0.921875 1.26562,-0.921875 0.46094,0 0.89453,0.207031 z m 2.73047,2.425782 q -0.57031,0.277343 -0.57031,0.488281 0,0.113281 0.12891,0.191406 0.13281,0.07813 0.35937,0.07813 l 1.37109,-0.03906 q 0.48829,0 0.75782,0.238281 0.27343,0.238281 0.27343,0.675781 0,0.691406 -0.61718,1.101563 -0.61719,0.410156 -1.44141,0.410156 -0.67578,0 -1.10547,-0.285156 -0.42969,-0.28125 -0.42969,-0.730469 0,-0.488281 0.66407,-0.824219 -0.55078,-0.257812 -0.55078,-0.632812 0,-0.429688 0.71093,-0.800782 -0.32812,-0.199218 -0.5039,-0.515625 -0.17578,-0.316406 -0.17578,-0.667968 0,-0.574219 0.39062,-0.941407 0.39063,-0.371093 0.97656,-0.371093 0.42188,0 0.76172,0.175781 l 1.20703,-0.183594 v 0.59375 H 194.625 q 0.17578,0.308594 0.17578,0.726563 0,0.554687 -0.38672,0.9375 -0.38672,0.382812 -0.98047,0.382812 -0.125,0 -0.23828,-0.0078 z M 193.43359,87 q 0.33594,0 0.54688,-0.230469 0.21484,-0.234375 0.21484,-0.609375 0,-0.394531 -0.20703,-0.617187 -0.20703,-0.222657 -0.55469,-0.222657 -0.32422,0 -0.54687,0.234375 -0.21875,0.230469 -0.21875,0.605469 0,0.367188 0.21875,0.605469 Q 193.10937,87 193.43359,87 Z m 0.0234,3.136719 q 0.60156,0 1.02344,-0.269532 0.42578,-0.265625 0.42578,-0.660156 0,-0.40625 -0.60156,-0.40625 -0.19922,0 -0.6875,0.02344 -0.3086,0.01563 -0.48438,0.01563 -0.0859,0 -0.26953,0.140625 -0.17969,0.140625 -0.27734,0.28125 -0.0937,0.144531 -0.0937,0.296875 0,0.238281 0.26562,0.40625 0.26563,0.171875 0.69922,0.171875 z m 6.66797,-3.152344 h -2.79297 q 0,0.691406 0.39844,1.140625 0.40234,0.449219 0.98437,0.449219 0.55469,0 1.14453,-0.199219 l 0.10547,0.488281 q -0.53906,0.242188 -1.25781,0.242188 -0.90625,0 -1.46094,-0.582032 -0.55468,-0.582031 -0.55468,-1.570312 0,-0.96875 0.49609,-1.542969 0.5,-0.578125 1.28906,-0.578125 0.70313,0 1.17578,0.535156 0.47266,0.535157 0.47266,1.425782 z m -0.66406,-0.496094 q 0,-0.476562 -0.29688,-0.800781 -0.29687,-0.328125 -0.66406,-0.328125 -0.47266,0 -0.78516,0.3125 -0.30859,0.3125 -0.34375,0.816406 z m 5.38281,2.328125 q -0.61328,0.28125 -1.20703,0.28125 -1.08985,0 -1.08985,-1.152344 v -2.488281 h -0.78125 v -0.527344 h 0.78125 v -1.113281 h 0.59375 v 1.113281 h 1.38282 v 0.527344 h -1.38282 v 2.328125 q 0,0.371094 0.16407,0.578125 0.16406,0.203125 0.44531,0.203125 0.5,0 0.98828,-0.222656 z"
     id="text6"
     style="font-size:8px;font-family:'DejaVu Sans Mono', monospace;fill:#7f8d98"
     aria-label="Blue = playhead, Orange = edit target" />
  <g
     fill="#6f7c87"
     font-family="DejaVu Sans Mono, monospace"
     font-size="8"
     text-anchor="middle"
     id="g22">
    <path
       d="m 37.576172,53 h -2.898438 v -0.558594 h 1.167969 v -4.28125 l -1.101562,0.550781 v -0.640625 l 1.191406,-0.613281 h 0.550781 v 4.984375 h 1.089844 z"
       id="text7"
       aria-label="1" />
    <path
       d="m 95.431641,53 h -3.03125 V 52.535156 Q 93.552734,51.25 93.896484,50.8125 q 0.34375,-0.4375 0.558594,-0.917969 0.214844,-0.480469 0.214844,-0.957031 0,-0.460938 -0.28125,-0.726563 -0.277344,-0.265625 -0.78125,-0.265625 -0.386719,0 -1.039063,0.238282 l -0.08984,-0.550782 q 0.589843,-0.25 1.234375,-0.25 0.738281,0 1.1875,0.417969 0.453125,0.414063 0.453125,1.109375 0,0.496094 -0.234375,0.984375 -0.230469,0.488281 -0.59375,0.9375 -0.363282,0.449219 -1.414063,1.609375 h 2.320313 z"
       id="text8"
       aria-label="2" />
    <path
       d="m 152.3418,50.039062 q 0.5039,0.140625 0.80859,0.515625 0.30469,0.371094 0.30469,0.835938 0,0.726562 -0.56641,1.222656 -0.5664,0.492188 -1.33594,0.492188 -0.65625,0 -1.17578,-0.289063 l 0.125,-0.527344 q 0.54297,0.253907 1.07422,0.253907 0.5,0 0.85156,-0.308594 0.35547,-0.3125 0.35547,-0.800781 0,-0.480469 -0.3789,-0.78125 -0.37891,-0.300782 -1.00391,-0.300782 h -0.16797 v -0.527343 h 0.0469 q 0.60156,0 0.99218,-0.28125 0.39063,-0.285157 0.39063,-0.765625 0,-0.390625 -0.28125,-0.609375 -0.28125,-0.222657 -0.77344,-0.222657 -0.42578,0 -0.95312,0.230469 L 150.56836,47.625 q 0.53125,-0.242188 1.07031,-0.242188 0.73828,0 1.21485,0.390625 0.48046,0.386719 0.48046,0.996094 0,0.421875 -0.29296,0.789063 -0.28907,0.363281 -0.69922,0.457031 z"
       id="text9"
       aria-label="3" />
    <path
       d="m 211.79102,51.726562 h -0.67969 V 53 h -0.64063 v -1.273438 h -2.39843 v -0.488281 l 2.17578,-3.75 h 0.86328 v 3.679688 h 0.67969 z m -1.32032,-0.558593 v -3.046875 l -1.75,3.046875 z"
       id="text10"
       aria-label="4" />
    <path
       d="m 267.29492,49.710937 q 0.26563,-0.07031 0.51953,-0.07031 0.78125,0 1.23438,0.480469 0.45312,0.476562 0.45312,1.191406 0,0.75 -0.52734,1.273437 -0.52734,0.519532 -1.28516,0.519532 -0.72265,0 -1.21093,-0.242188 l 0.1289,-0.542969 q 0.53125,0.222657 1.09766,0.222657 0.5039,0 0.8125,-0.324219 0.3125,-0.324219 0.3125,-0.90625 0,-0.550781 -0.29297,-0.847656 -0.29297,-0.296875 -0.75391,-0.296875 -0.33593,0 -0.66406,0.128906 l -0.38281,-0.175781 v -2.632813 h 2.51953 v 0.558594 h -1.96094 z"
       id="text11"
       aria-label="5" />
    <path
       d="m 325.01367,50.128906 q 0.51563,-0.417969 1.1211,-0.417969 0.69921,0 1.16406,0.449219 0.46875,0.445313 0.46875,1.152344 0,0.777344 -0.41406,1.285156 -0.41407,0.507813 -1.10547,0.507813 -0.88282,0 -1.39844,-0.808594 -0.51563,-0.8125 -0.51563,-1.984375 0,-1.25 0.53516,-2.089844 0.53906,-0.839844 1.47266,-0.839844 0.64453,0 1.11328,0.191407 l -0.10156,0.570312 q -0.54297,-0.199219 -0.99219,-0.199219 -0.63672,0 -0.99219,0.609375 -0.35547,0.609375 -0.35547,1.574219 z m 0.0195,0.550781 q 0,0.707032 0.33203,1.285157 0.33204,0.578125 0.83594,0.578125 0.42578,0 0.65625,-0.3125 0.23047,-0.3125 0.23047,-0.863282 0,-0.507812 -0.25391,-0.800781 -0.2539,-0.292969 -0.71484,-0.292969 -0.59766,0 -1.08594,0.40625 z"
       id="text12"
       aria-label="6" />
    <path
       d="M 385.64648,47.945312 383.46289,53 h -0.65625 l 2.15234,-4.953125 h -2.58203 v -0.558594 h 3.26953 z"
       id="text13"
       aria-label="7" />
    <path
       d="m 442.55273,49.976562 q 0.5625,0.164063 0.8711,0.558594 0.3125,0.394531 0.3125,0.921875 0,0.757813 -0.50391,1.203125 -0.5,0.445313 -1.23437,0.445313 -0.76953,0 -1.26563,-0.449219 -0.49219,-0.449219 -0.49219,-1.191406 0,-0.523438 0.32032,-0.921875 0.32031,-0.398438 0.89453,-0.566407 -0.45703,-0.117187 -0.73438,-0.449218 -0.27343,-0.335938 -0.27343,-0.75 0,-0.53125 0.42187,-0.960938 0.42188,-0.433594 1.11328,-0.433594 0.6836,0 1.12891,0.429688 0.44922,0.429687 0.44922,0.964844 0,0.402343 -0.28125,0.742187 -0.28125,0.335938 -0.72657,0.457031 z m -0.57031,-0.265625 q 0.0195,0 0.1875,-0.04687 0.16797,-0.04687 0.28516,-0.113281 0.12109,-0.07031 0.22265,-0.175781 0.10157,-0.105469 0.16407,-0.246094 0.0625,-0.144531 0.0625,-0.320312 0,-0.375 -0.26953,-0.621094 -0.26954,-0.25 -0.65235,-0.25 -0.37109,0 -0.63672,0.253906 -0.26562,0.253906 -0.26562,0.617188 0,0.230468 0.0937,0.402343 0.0976,0.171875 0.23828,0.277344 0.14453,0.105469 0.32812,0.164063 0.1875,0.05859 0.24219,0.05859 z m 0,0.546875 q -1.07031,0.3125 -1.07031,1.175782 0,0.503906 0.32422,0.808593 0.32422,0.300782 0.76172,0.300782 0.45312,0 0.76172,-0.296875 0.3125,-0.300782 0.3125,-0.8125 0,-0.386719 -0.21485,-0.691407 -0.21484,-0.308593 -0.875,-0.484375 z"
       id="text14"
       aria-label="8" />
    <path
       d="m 37.048828,80.351562 q -0.476562,0.417969 -1.121094,0.417969 -0.699218,0 -1.167968,-0.445312 -0.464844,-0.449219 -0.464844,-1.15625 0,-0.757813 0.445312,-1.273438 0.449219,-0.519531 1.15625,-0.519531 0.863282,0 1.347657,0.789062 0.484375,0.789063 0.484375,2.003907 0,1.214843 -0.570313,2.074218 -0.566406,0.855469 -1.519531,0.855469 -0.640625,0 -1.109375,-0.195312 l 0.101562,-0.566407 q 0.539063,0.199219 0.992188,0.199219 0.648437,0 1.035156,-0.628906 0.390625,-0.628906 0.390625,-1.554688 z m -0.01563,-0.550781 q 0,-0.742187 -0.300781,-1.300781 -0.300781,-0.5625 -0.789063,-0.5625 -0.441406,0 -0.707031,0.328125 -0.261719,0.324219 -0.261719,0.847656 0,0.480469 0.265625,0.789063 0.269532,0.304687 0.703125,0.304687 0.597657,0 1.039063,-0.367187 z"
       id="text15"
       aria-label="9" />
    <path
       d="m 93.175781,83 h -2.898437 v -0.558594 h 1.167968 v -4.28125 l -1.101562,0.550781 v -0.640625 l 1.191406,-0.613281 h 0.550781 v 4.984375 h 1.089844 z m 3.214844,-5.617188 q 0.875,0 1.34375,0.753907 0.472656,0.75 0.472656,2.109375 0,1.316406 -0.457031,2.089843 -0.457031,0.769532 -1.359375,0.769532 -0.871094,0 -1.34375,-0.75 -0.472656,-0.75 -0.472656,-2.109375 0,-1.320313 0.457031,-2.089844 0.460937,-0.773438 1.359375,-0.773438 z m 0,5.160157 q 0.578125,0 0.855469,-0.546875 0.28125,-0.550782 0.28125,-1.75 0,-1.203125 -0.28125,-1.746094 -0.277344,-0.546875 -0.855469,-0.546875 -0.570313,0 -0.851563,0.558594 -0.28125,0.558593 -0.28125,1.734375 0,1.191406 0.277344,1.746093 0.28125,0.550782 0.855469,0.550782 z M 96.375,79.660156 q 0.246094,0 0.414062,0.171875 0.171875,0.167969 0.171875,0.414063 0,0.253906 -0.171875,0.4375 -0.171875,0.179687 -0.414062,0.179687 -0.238281,0 -0.410156,-0.179687 -0.167969,-0.183594 -0.167969,-0.4375 0,-0.25 0.164062,-0.417969 0.167969,-0.167969 0.414063,-0.167969 z"
       id="text16"
       aria-label="10" />
    <path
       d="m 151.17578,83 h -2.89844 v -0.558594 h 1.16797 v -4.28125 l -1.10156,0.550781 v -0.640625 l 1.19141,-0.613281 h 0.55078 v 4.984375 h 1.08984 z m 4.80078,0 h -2.89844 v -0.558594 h 1.16797 v -4.28125 l -1.10156,0.550781 v -0.640625 l 1.19141,-0.613281 h 0.55078 v 4.984375 h 1.08984 z"
       id="text17"
       aria-label="11" />
    <path
       d="m 209.17578,83 h -2.89844 v -0.558594 h 1.16797 v -4.28125 l -1.10156,0.550781 v -0.640625 l 1.19141,-0.613281 h 0.55078 v 4.984375 h 1.08984 z m 4.65625,0 h -3.03125 v -0.464844 q 1.15234,-1.285156 1.49609,-1.722656 0.34375,-0.4375 0.5586,-0.917969 0.21484,-0.480469 0.21484,-0.957031 0,-0.460938 -0.28125,-0.726563 -0.27734,-0.265625 -0.78125,-0.265625 -0.38672,0 -1.03906,0.238282 l -0.0898,-0.550782 q 0.58984,-0.25 1.23437,-0.25 0.73828,0 1.1875,0.417969 0.45313,0.414063 0.45313,1.109375 0,0.496094 -0.23438,0.984375 -0.23047,0.488281 -0.59375,0.9375 -0.36328,0.449219 -1.41406,1.609375 h 2.32031 z"
       id="text18"
       aria-label="12" />
    <path
       d="m 267.17578,83 h -2.89844 v -0.558594 h 1.16797 v -4.28125 l -1.10156,0.550781 v -0.640625 l 1.19141,-0.613281 h 0.55078 v 4.984375 h 1.08984 z m 3.56641,-2.960938 q 0.5039,0.140625 0.80859,0.515625 0.30469,0.371094 0.30469,0.835938 0,0.726562 -0.56641,1.222656 -0.5664,0.492188 -1.33594,0.492188 -0.65625,0 -1.17578,-0.289063 l 0.125,-0.527344 q 0.54297,0.253907 1.07422,0.253907 0.5,0 0.85156,-0.308594 0.35547,-0.3125 0.35547,-0.800781 0,-0.480469 -0.3789,-0.78125 -0.37891,-0.300782 -1.00391,-0.300782 h -0.16797 v -0.527343 h 0.0469 q 0.60156,0 0.99218,-0.28125 0.39063,-0.285157 0.39063,-0.765625 0,-0.390625 -0.28125,-0.609375 -0.28125,-0.222657 -0.77344,-0.222657 -0.42578,0 -0.95312,0.230469 L 268.96875,77.625 q 0.53125,-0.242188 1.07031,-0.242188 0.73828,0 1.21485,0.390625 0.48046,0.386719 0.48046,0.996094 0,0.421875 -0.29296,0.789063 -0.28907,0.363281 -0.69922,0.457031 z"
       id="text19"
       aria-label="13" />
    <path
       d="m 325.17578,83 h -2.89844 v -0.558594 h 1.16797 v -4.28125 l -1.10156,0.550781 v -0.640625 l 1.19141,-0.613281 h 0.55078 v 4.984375 h 1.08984 z m 5.01563,-1.273438 h -0.67969 V 83 h -0.64063 v -1.273438 h -2.39843 v -0.488281 l 2.17578,-3.75 h 0.86328 v 3.679688 h 0.67969 z m -1.32032,-0.558593 v -3.046875 l -1.75,3.046875 z"
       id="text20"
       aria-label="14" />
    <path
       d="m 383.17578,83 h -2.89844 v -0.558594 h 1.16797 v -4.28125 l -1.10156,0.550781 v -0.640625 l 1.19141,-0.613281 h 0.55078 v 4.984375 h 1.08984 z m 2.51953,-3.289063 q 0.26563,-0.07031 0.51953,-0.07031 0.78125,0 1.23438,0.480469 0.45312,0.476562 0.45312,1.191406 0,0.75 -0.52734,1.273437 -0.52734,0.519532 -1.28516,0.519532 -0.72265,0 -1.21093,-0.242188 l 0.1289,-0.542969 q 0.53125,0.222657 1.09766,0.222657 0.5039,0 0.8125,-0.324219 0.3125,-0.324219 0.3125,-0.90625 0,-0.550781 -0.29297,-0.847656 -0.29297,-0.296875 -0.75391,-0.296875 -0.33593,0 -0.66406,0.128906 l -0.38281,-0.175781 v -2.632813 h 2.51953 v 0.558594 h -1.96094 z"
       id="text21"
       aria-label="15" />
    <path
       d="m 441.17578,83 h -2.89844 v -0.558594 h 1.16797 v -4.28125 l -1.10156,0.550781 v -0.640625 l 1.19141,-0.613281 h 0.55078 v 4.984375 h 1.08984 z m 2.23828,-2.871094 q 0.51563,-0.417969 1.1211,-0.417969 0.69921,0 1.16406,0.449219 0.46875,0.445313 0.46875,1.152344 0,0.777344 -0.41406,1.285156 -0.41407,0.507813 -1.10547,0.507813 -0.88282,0 -1.39844,-0.808594 -0.51563,-0.8125 -0.51563,-1.984375 0,-1.25 0.53516,-2.089844 0.53906,-0.839844 1.47266,-0.839844 0.64453,0 1.11328,0.191407 l -0.10156,0.570312 q -0.54297,-0.199219 -0.99219,-0.199219 -0.63672,0 -0.99219,0.609375 -0.35547,0.609375 -0.35547,1.574219 z m 0.0195,0.550781 q 0,0.707032 0.33203,1.285157 0.33204,0.578125 0.83594,0.578125 0.42578,0 0.65625,-0.3125 0.23047,-0.3125 0.23047,-0.863282 0,-0.507812 -0.25391,-0.800781 -0.2539,-0.292969 -0.71484,-0.292969 -0.59766,0 -1.08594,0.40625 z"
       id="text22"
       aria-label="16" />
  </g>
  <path
     id="rect22"
     style="fill:#1b2127;stroke:#3f4a53"
     d="m 28,112 h 264 c 4.432,0 8,3.568 8,8 v 196 c 0,4.432 -3.568,8 -8,8 H 28 c -4.432,0 -8,-3.568 -8,-8 V 120 c 0,-4.432 3.568,-8 8,-8 z" />
  <path
     d="m 35.752441,129.52734 q -0.891601,0.61768 -2.067871,0.61768 -1.471679,0 -2.239746,-1.00977 -0.762695,-1.00976 -0.762695,-2.92187 0,-1.84766 0.741211,-2.88965 0.741211,-1.04736 2.26123,-1.04736 0.547852,0 1.084961,0.13965 0.53711,0.13964 0.864746,0.3706 l -0.290039,0.69287 q -0.757324,-0.42969 -1.659668,-0.42969 -1.047363,0 -1.557617,0.7627 -0.510254,0.75732 -0.510254,2.40088 0,3.1582 2.067871,3.1582 0.875489,0 1.793946,-0.53711 z m 6.327149,-1.91211 q 0,1.31592 -0.53711,1.92286 -0.531738,0.60693 -1.62207,0.60693 -2.196777,0 -2.196777,-2.5083 v -5.21533 h 0.880859 v 5.13476 q 0,1.81543 1.315918,1.81543 0.660645,0 0.966797,-0.42969 0.311523,-0.42968 0.311523,-1.39648 v -5.12402 h 0.88086 z M 49.507812,130 h -1.101074 l -2.223633,-3.44287 H 45.205566 V 130 h -0.880859 v -7.57861 h 2.143066 q 1.07959,0 1.702637,0.52636 0.628418,0.521 0.628418,1.45557 0,0.69287 -0.456543,1.23535 -0.456543,0.53711 -1.256836,0.73047 z m -4.302246,-4.21094 h 1.111817 q 0.698242,0 1.133301,-0.37597 0.435058,-0.38135 0.435058,-0.95606 0,-1.26758 -1.546875,-1.26758 H 45.205566 Z M 56.108887,130 H 55.007812 L 52.78418,126.55713 H 51.806641 V 130 h -0.88086 v -7.57861 h 2.143067 q 1.079589,0 1.702636,0.52636 0.628418,0.521 0.628418,1.45557 0,0.69287 -0.456543,1.23535 -0.456543,0.53711 -1.256836,0.73047 z m -4.302246,-4.21094 h 1.111816 q 0.698242,0 1.133301,-0.37597 0.435058,-0.38135 0.435058,-0.95606 0,-1.26758 -1.546875,-1.26758 h -1.1333 z M 61.737793,130 h -3.958496 v -7.57861 h 3.926269 v 0.76806 h -3.04541 v 2.34717 h 2.927246 v 0.76807 h -2.927246 v 2.92724 h 3.077637 z m 6.853516,0 H 67.61377 l -2.717774,-5.9834 V 130 h -0.880859 v -7.57861 h 0.98291 l 2.728515,5.92968 v -5.92968 h 0.864747 z m 7.100586,-6.86426 H 73.355469 V 130 H 72.47998 v -6.86426 h -2.347168 v -0.71435 h 5.559083 z m 12.03125,0.12354 q -0.676758,-0.23096 -1.283692,-0.23096 -0.6875,0 -1.122558,0.31689 -0.429688,0.31153 -0.429688,0.89161 0,0.6875 1.133301,1.20849 0.83789,0.38672 1.106445,0.53711 0.273926,0.15039 0.553223,0.41358 0.279297,0.26318 0.445801,0.62304 0.171875,0.3545 0.171875,0.8003 0,1.10644 -0.746582,1.71875 -0.741211,0.60693 -1.750977,0.60693 -0.977539,0 -1.713379,-0.38672 l 0.182617,-0.75732 q 0.864746,0.39209 1.509278,0.39209 0.751953,0 1.203125,-0.38672 0.456543,-0.39209 0.456543,-1.07422 0,-0.50488 -0.295411,-0.854 -0.29541,-0.3545 -1.090332,-0.71973 -0.816406,-0.37598 -1.058105,-0.51026 -0.236328,-0.13964 -0.472656,-0.38134 -0.236328,-0.2417 -0.365235,-0.54248 -0.128906,-0.30078 -0.128906,-0.65528 0,-0.93994 0.676758,-1.46631 0.676758,-0.52636 1.713379,-0.52636 0.757324,0 1.503906,0.23095 z m 7.771972,-0.12354 H 93.158691 V 130 h -0.875488 v -6.86426 h -2.347168 v -0.71435 h 5.559082 z M 101.34424,130 h -3.958498 v -7.57861 h 3.926268 v 0.76806 h -3.045408 v 2.34717 h 2.927248 v 0.76807 h -2.927248 v 2.92724 h 3.077638 z m 2.64258,-7.57861 h 1.92285 q 1.09033,0 1.7456,0.54785 0.65528,0.54785 0.65528,1.50928 0,0.96679 -0.65528,1.54687 -0.6499,0.57471 -1.708,0.57471 h -1.07959 V 130 h -0.88086 z m 0.88086,3.41064 h 0.95605 q 1.55225,0 1.55225,-1.2998 0,-0.60157 -0.42432,-0.97217 -0.41895,-0.37061 -1.08496,-0.37061 h -0.99902 z m 16.33886,-2.64258 h -3.13672 v 2.47608 h 2.85743 v 0.76806 h -2.85743 V 130 h -0.88086 v -7.57861 h 4.01758 z M 128.15674,130 h -0.84863 v -6.49902 l -1.14405,3.10986 h -0.83252 l -1.14404,-3.10986 V 130 h -0.84863 v -7.57861 h 1.14404 l 1.26758,3.45361 1.26221,-3.45361 h 1.14404 z m 8.83545,-7.57861 h 1.92285 q 1.09033,0 1.7456,0.54785 0.65528,0.54785 0.65528,1.50928 0,0.96679 -0.65528,1.54687 -0.6499,0.57471 -1.708,0.57471 h -1.07959 V 130 h -0.88086 z m 0.88086,3.41064 h 0.95605 q 1.55225,0 1.55225,-1.2998 0,-0.60157 -0.42432,-0.97217 -0.41894,-0.37061 -1.08496,-0.37061 h -0.99902 z M 148.53467,130 h -0.92383 l -0.83789,-2.65332 h -2.48682 L 143.4375,130 h -0.91309 l 2.47608,-7.57861 h 1.0581 z m -2.01416,-3.42139 -0.99365,-3.13672 -0.98829,3.13672 z M 155.125,130 h -1.10107 l -2.22364,-3.44287 h -0.97754 V 130 h -0.88086 v -7.57861 h 2.14307 q 1.07959,0 1.70264,0.52636 0.62842,0.521 0.62842,1.45557 0,0.69287 -0.45655,1.23535 -0.45654,0.53711 -1.25683,0.73047 z m -4.30225,-4.21094 h 1.11182 q 0.69824,0 1.1333,-0.37597 0.43506,-0.38135 0.43506,-0.95606 0,-1.26758 -1.54688,-1.26758 h -1.1333 z M 161.73682,130 h -0.92383 l -0.83789,-2.65332 h -2.48682 L 156.63965,130 h -0.91309 l 2.47608,-7.57861 h 1.0581 z m -2.01416,-3.42139 -0.99366,-3.13672 -0.98828,3.13672 z M 167.76318,130 h -0.84863 v -6.49902 l -1.14404,3.10986 h -0.83252 l -1.14404,-3.10986 V 130 h -0.84864 v -7.57861 h 1.14405 l 1.26757,3.45361 1.26221,-3.45361 h 1.14404 z m 5.77393,-6.74072 q -0.67676,-0.23096 -1.28369,-0.23096 -0.6875,0 -1.12256,0.31689 -0.42969,0.31153 -0.42969,0.89161 0,0.6875 1.1333,1.20849 0.83789,0.38672 1.10645,0.53711 0.27392,0.15039 0.55322,0.41358 0.2793,0.26318 0.4458,0.62304 0.17188,0.3545 0.17188,0.8003 0,1.10644 -0.74659,1.71875 -0.74121,0.60693 -1.75097,0.60693 -0.97754,0 -1.71338,-0.38672 l 0.18262,-0.75732 q 0.86474,0.39209 1.50927,0.39209 0.75196,0 1.20313,-0.38672 0.45654,-0.39209 0.45654,-1.07422 0,-0.50488 -0.29541,-0.854 -0.29541,-0.3545 -1.09033,-0.71973 -0.81641,-0.37598 -1.05811,-0.51026 -0.23632,-0.13964 -0.47265,-0.38134 -0.23633,-0.2417 -0.36524,-0.54248 -0.1289,-0.30078 -0.1289,-0.65528 0,-0.93994 0.67675,-1.46631 0.67676,-0.52636 1.71338,-0.52636 0.75733,0 1.50391,0.23095 z"
     id="text23"
     style="font-size:11px;font-family:'DejaVu Sans Mono', monospace;fill:#ffffff"
     aria-label="CURRENT STEP FM PARAMS" />
  <path
     d="m 66.689453,153.68066 q 1.041504,0 1.586426,0.82618 0.549316,0.82177 0.549316,2.39502 0,1.56445 -0.544922,2.39062 -0.544921,0.82617 -1.59082,0.82617 -1.037109,0 -1.586426,-0.82178 -0.544922,-0.82617 -0.544922,-2.39501 0,-1.56885 0.544922,-2.39502 0.544922,-0.82618 1.586426,-0.82618 z m 0,5.80518 q 1.371094,0 1.371094,-2.58398 0,-2.58838 -1.371094,-2.58838 -0.667969,0 -1.019531,0.67236 -0.347168,0.66797 -0.347168,1.91602 0,1.26123 0.347168,1.9248 0.347168,0.65918 1.019531,0.65918 z M 73.971191,160 h -0.799804 l -2.223633,-4.89551 V 160 h -0.720703 v -6.20068 h 0.804199 l 2.232422,4.85156 v -4.85156 h 0.707519 z"
     id="text24"
     style="font-size:9px;font-family:'DejaVu Sans Mono', monospace;fill:#99a8b5"
     aria-label="ON" />
  <path
     d="m 131.125,153.79932 h 1.57324 q 0.89209,0 1.42822,0.44824 0.53614,0.44824 0.53614,1.23486 0,0.79102 -0.53614,1.26563 -0.53173,0.47021 -1.39746,0.47021 h -0.8833 V 160 h -0.7207 z m 0.7207,2.79052 h 0.78223 q 1.27002,0 1.27002,-1.06347 0,-0.49219 -0.34717,-0.79541 -0.34277,-0.30323 -0.88769,-0.30323 H 131.8457 Z M 139.479,160 h -2.81689 v -0.62842 h 1.06787 v -4.94385 h -1.06787 v -0.62841 h 2.81689 v 0.62841 h -1.02832 v 4.94385 h 1.02832 z m 6.30176,-5.61621 h -1.91162 V 160 h -0.71631 v -5.61621 h -1.92041 v -0.58447 h 4.54834 z m 5.12842,5.22949 q -0.72949,0.50537 -1.69189,0.50537 -1.20411,0 -1.83252,-0.82617 -0.62403,-0.82617 -0.62403,-2.39062 0,-1.51172 0.60645,-2.36426 0.60644,-0.85694 1.8501,-0.85694 0.44824,0 0.88769,0.11426 0.43945,0.11426 0.70752,0.30322 l -0.2373,0.5669 q -0.61963,-0.35156 -1.35791,-0.35156 -0.85694,0 -1.27442,0.62402 -0.41748,0.61963 -0.41748,1.96436 0,2.58398 1.6919,2.58398 0.7163,0 1.46777,-0.43945 z M 156.08594,160 h -0.72071 v -3.07617 h -2.12255 V 160 h -0.72071 v -6.20068 h 0.72071 v 2.4917 h 2.12255 v -2.4917 h 0.72071 z"
     id="text25"
     style="font-size:9px;font-family:'DejaVu Sans Mono', monospace;fill:#99a8b5"
     aria-label="PITCH" />
  <path
     d="m 197.07812,160 h -2.81689 v -0.62842 h 1.06787 v -4.94385 h -1.06787 v -0.62841 h 2.81689 v 0.62841 h -1.02832 v 4.94385 h 1.02832 z m 5.89307,0 h -0.7998 l -2.22364,-4.89551 V 160 h -0.7207 v -6.20068 h 0.8042 l 2.23242,4.85156 v -4.85156 h 0.70752 z m 1.74902,-6.20068 h 1.22168 q 1.21729,0 1.95118,0.83056 0.73388,0.82617 0.73388,2.27198 0,1.47656 -0.74707,2.28955 Q 207.13721,160 205.97266,160 h -1.25245 z m 0.72071,5.57226 h 0.50976 q 0.8833,0 1.39746,-0.65478 0.51416,-0.65479 0.51416,-1.81494 0,-1.15137 -0.51855,-1.81055 -0.51416,-0.66358 -1.39307,-0.66358 h -0.50976 z M 213.56641,160 h -3.23877 v -6.20068 h 3.2124 v 0.62841 h -2.4917 v 1.92041 h 2.39502 v 0.62842 h -2.39502 v 2.39502 h 2.51807 z m 6.14795,0 h -0.79981 L 217.34131,157.45996 215.78125,160 h -0.7998 l 1.98193,-3.15967 -1.97315,-3.04101 h 0.82618 l 1.5249,2.45654 1.53808,-2.45654 h 0.79102 l -1.94238,3.04101 z"
     id="text26"
     style="font-size:9px;font-family:'DejaVu Sans Mono', monospace;fill:#99a8b5"
     aria-label="INDEX" />
  <path
     d="m 261.5,160 h -3.375 v -6.20068 h 0.7207 v 5.57226 H 261.5 Z m 5.26465,0 h -3.23877 v -6.20068 h 3.2124 v 0.62841 h -2.4917 v 1.92041 h 2.39502 v 0.62842 h -2.39502 v 2.39502 h 2.51807 z m 6.1831,-6.20068 L 270.92627,160 h -0.86572 l -2.02588,-6.20068 h 0.75586 l 1.70068,5.36572 1.70947,-5.36572 z M 277.56641,160 h -3.23877 v -6.20068 h 3.2124 v 0.62841 h -2.4917 v 1.92041 h 2.39502 v 0.62842 h -2.39502 v 2.39502 h 2.51807 z m 5.53711,0 h -3.375 v -6.20068 h 0.7207 v 5.57226 h 2.6543 z"
     id="text27"
     style="font-size:9px;font-family:'DejaVu Sans Mono', monospace;fill:#99a8b5"
     aria-label="LEVEL" />
  <path
     d="m 99.706543,214.61328 q -0.729492,0.50537 -1.691895,0.50537 -1.204101,0 -1.832519,-0.82617 -0.624024,-0.82617 -0.624024,-2.39062 0,-1.51172 0.606446,-2.36426 0.606445,-0.85694 1.850097,-0.85694 0.448243,0 0.887696,0.11426 0.439453,0.11426 0.707519,0.30322 l -0.237304,0.5669 q -0.619629,-0.35156 -1.357911,-0.35156 -0.856933,0 -1.274414,0.62402 -0.41748,0.61963 -0.41748,1.96436 0,2.58398 1.691894,2.58398 0.716309,0 1.467774,-0.43945 z M 105.56885,215 h -0.75586 l -0.68555,-2.1709 h -2.03467 L 101.39844,215 h -0.74707 l 2.02588,-6.20068 h 0.86572 z m -1.64795,-2.79932 -0.81299,-2.5664 -0.80859,2.5664 z M 110.96094,215 h -0.90088 l -1.81934,-2.81689 h -0.7998 V 215 h -0.72071 v -6.20068 h 1.75342 q 0.8833,0 1.39307,0.43066 0.51416,0.42627 0.51416,1.19092 0,0.56689 -0.37354,1.01074 -0.37353,0.43945 -1.02832,0.59766 z m -3.52002,-3.44531 h 0.90967 q 0.57129,0 0.92724,-0.30762 0.35596,-0.31201 0.35596,-0.78223 0,-1.03711 -1.26563,-1.03711 h -0.92724 z M 116.36182,215 h -0.90088 l -1.81934,-2.81689 h -0.7998 V 215 h -0.72071 v -6.20068 h 1.75342 q 0.8833,0 1.39307,0.43066 0.51416,0.42627 0.51416,1.19092 0,0.56689 -0.37354,1.01074 -0.37353,0.43945 -1.02832,0.59766 z m -3.52002,-3.44531 h 0.90966 q 0.57129,0 0.92725,-0.30762 0.35596,-0.31201 0.35596,-0.78223 0,-1.03711 -1.26563,-1.03711 H 112.8418 Z M 120.68164,215 h -2.81689 v -0.62842 h 1.06787 v -4.94385 h -1.06787 v -0.62841 h 2.81689 v 0.62841 h -1.02832 v 4.94385 h 1.02832 z m 5.68652,0 h -3.23877 v -6.20068 h 3.21241 v 0.62841 h -2.4917 v 1.92041 h 2.39502 v 0.62842 h -2.39502 v 2.39502 h 2.51806 z m 6.19629,0 h -0.90088 l -1.81933,-2.81689 h -0.79981 V 215 h -0.7207 v -6.20068 h 1.75342 q 0.8833,0 1.39306,0.43066 0.51416,0.42627 0.51416,1.19092 0,0.56689 -0.37353,1.01074 -0.37354,0.43945 -1.02832,0.59766 z m -3.52002,-3.44531 h 0.90967 q 0.57129,0 0.92725,-0.30762 0.35595,-0.31201 0.35595,-0.78223 0,-1.03711 -1.26562,-1.03711 h -0.92725 z M 143.36621,215 h -0.90088 l -1.81933,-2.81689 h -0.79981 V 215 h -0.7207 v -6.20068 h 1.75342 q 0.8833,0 1.39306,0.43066 0.51416,0.42627 0.51416,1.19092 0,0.56689 -0.37353,1.01074 -0.37354,0.43945 -1.02832,0.59766 z m -3.52002,-3.44531 h 0.90967 q 0.57129,0 0.92725,-0.30762 0.35595,-0.31201 0.35595,-0.78223 0,-1.03711 -1.26562,-1.03711 h -0.92725 z M 148.77588,215 h -0.75586 l -0.68555,-2.1709 H 145.2998 L 144.60547,215 h -0.74707 l 2.02588,-6.20068 H 146.75 Z m -1.64795,-2.79932 -0.81299,-2.5664 -0.80859,2.5664 z m 6.85986,-2.81689 h -1.91162 V 215 h -0.71631 v -5.61621 h -1.92041 v -0.58447 h 4.54834 z m 4.5,5.61621 h -2.81689 v -0.62842 h 1.06787 v -4.94385 h -1.06787 v -0.62841 h 2.81689 v 0.62841 h -1.02832 v 4.94385 h 1.02832 z M 162.5,208.68066 q 1.0415,0 1.58643,0.82618 0.54931,0.82177 0.54931,2.39502 0,1.56445 -0.54492,2.39062 -0.54492,0.82617 -1.59082,0.82617 -1.03711,0 -1.58643,-0.82178 -0.54492,-0.82617 -0.54492,-2.39501 0,-1.56885 0.54492,-2.39502 0.54493,-0.82618 1.58643,-0.82618 z m 0,5.80518 q 1.37109,0 1.37109,-2.58398 0,-2.58838 -1.37109,-2.58838 -0.66797,0 -1.01953,0.67236 -0.34717,0.66797 -0.34717,1.91602 0,1.26123 0.34717,1.9248 0.34717,0.65918 1.01953,0.65918 z"
     id="text28"
     style="font-size:9px;font-family:'DejaVu Sans Mono', monospace;fill:#87d3ff"
     aria-label="CARRIER RATIO" />
  <path
     d="m 164.69775,215 h -0.69433 v -5.31738 l -0.93604,2.54443 h -0.68115 l -0.93603,-2.54443 V 215 h -0.69434 v -6.20068 h 0.93603 l 1.03711,2.82568 1.03272,-2.82568 h 0.93603 z m 3.39258,-6.31934 q 1.04151,0 1.58643,0.82618 0.54931,0.82177 0.54931,2.39502 0,1.56445 -0.54492,2.39062 -0.54492,0.82617 -1.59082,0.82617 -1.03711,0 -1.58642,-0.82178 -0.54493,-0.82617 -0.54493,-2.39501 0,-1.56885 0.54493,-2.39502 0.54492,-0.82618 1.58642,-0.82618 z m 0,5.80518 q 1.3711,0 1.3711,-2.58398 0,-2.58838 -1.3711,-2.58838 -0.66797,0 -1.01953,0.67236 -0.34717,0.66797 -0.34717,1.91602 0,1.26123 0.34717,1.9248 0.34717,0.65918 1.01953,0.65918 z m 3.62988,-5.68652 h 1.22168 q 1.21729,0 1.95118,0.83056 0.73388,0.82617 0.73388,2.27198 0,1.47656 -0.74707,2.28955 Q 174.13721,215 172.97266,215 h -1.25245 z m 0.72071,5.57226 h 0.50976 q 0.8833,0 1.39746,-0.65478 0.51416,-0.65479 0.51416,-1.81494 0,-1.15137 -0.51855,-1.81055 -0.51416,-0.66358 -1.39307,-0.66358 h -0.50976 z M 186.7627,215 h -0.90088 l -1.81934,-2.81689 h -0.7998 V 215 h -0.72071 v -6.20068 h 1.75342 q 0.8833,0 1.39307,0.43066 0.51416,0.42627 0.51416,1.19092 0,0.56689 -0.37354,1.01074 -0.37353,0.43945 -1.02832,0.59766 z m -3.52002,-3.44531 h 0.90966 q 0.57129,0 0.92725,-0.30762 0.35596,-0.31201 0.35596,-0.78223 0,-1.03711 -1.26563,-1.03711 h -0.92724 z M 192.17236,215 h -0.75586 l -0.68554,-2.1709 h -2.03467 L 188.00195,215 h -0.74707 l 2.02588,-6.20068 h 0.86572 z m -1.64795,-2.79932 -0.81298,-2.5664 -0.8086,2.5664 z m 6.85987,-2.81689 h -1.91162 V 215 h -0.71631 v -5.61621 h -1.92041 v -0.58447 h 4.54834 z m 4.5,5.61621 h -2.8169 v -0.62842 h 1.06787 v -4.94385 h -1.06787 v -0.62841 h 2.8169 v 0.62841 h -1.02832 v 4.94385 h 1.02832 z m 4.0122,-6.31934 q 1.04151,0 1.58643,0.82618 0.54932,0.82177 0.54932,2.39502 0,1.56445 -0.54493,2.39062 -0.54492,0.82617 -1.59082,0.82617 -1.03711,0 -1.58642,-0.82178 -0.54492,-0.82617 -0.54492,-2.39501 0,-1.56885 0.54492,-2.39502 0.54492,-0.82618 1.58642,-0.82618 z m 0,5.80518 q 1.3711,0 1.3711,-2.58398 0,-2.58838 -1.3711,-2.58838 -0.66796,0 -1.01953,0.67236 -0.34716,0.66797 -0.34716,1.91602 0,1.26123 0.34716,1.9248 0.34717,0.65918 1.01953,0.65918 z"
     id="text29"
     style="font-size:9px;font-family:'DejaVu Sans Mono', monospace;fill:#ffd08e"
     aria-label="MOD RATIO" />
  <path
     d="m 32.183594,249.65625 q -0.648438,0.44922 -1.503907,0.44922 -1.070312,0 -1.628906,-0.73438 -0.554687,-0.73437 -0.554687,-2.125 0,-1.34375 0.539062,-2.10156 0.539063,-0.76172 1.644531,-0.76172 0.398438,0 0.789063,0.10156 0.390625,0.10157 0.628906,0.26954 l -0.210937,0.5039 q -0.550782,-0.3125 -1.207032,-0.3125 -0.761718,0 -1.132812,0.55469 -0.371094,0.55078 -0.371094,1.74609 0,2.29688 1.503906,2.29688 0.636719,0 1.304688,-0.39063 z M 37.394531,250 h -0.671875 l -0.609375,-1.92969 H 34.304687 L 33.6875,250 h -0.664063 l 1.800782,-5.51172 h 0.769531 z m -1.464844,-2.48828 -0.722656,-2.28125 -0.71875,2.28125 z M 42.1875,250 h -0.800781 l -1.617188,-2.50391 H 39.058594 V 250 h -0.640625 v -5.51172 h 1.558593 q 0.785157,0 1.238282,0.38281 0.457031,0.37891 0.457031,1.0586 0,0.5039 -0.332031,0.89843 -0.332032,0.39063 -0.914063,0.53125 z m -3.128906,-3.0625 h 0.808593 q 0.507813,0 0.824219,-0.27344 0.316406,-0.27734 0.316406,-0.69531 0,-0.92188 -1.125,-0.92188 H 39.058594 Z M 51.796875,250 H 51.125 l -0.609375,-1.92969 H 48.707031 L 48.089844,250 h -0.664063 l 1.800781,-5.51172 h 0.769532 z m -1.464844,-2.48828 -0.722656,-2.28125 -0.71875,2.28125 z m 2.488281,-3.02344 h 1.085938 q 1.082031,0 1.734375,0.73828 0.652344,0.73438 0.652344,2.01953 0,1.3125 -0.664063,2.03516 Q 54.96875,250 53.933594,250 h -1.113282 z m 0.640625,4.95313 h 0.453125 q 0.785157,0 1.242188,-0.58204 0.457031,-0.58203 0.457031,-1.61328 0,-1.02343 -0.460937,-1.60937 -0.457032,-0.58985 -1.238282,-0.58985 h -0.453125 z m 6.917969,-4.34375 q -0.492187,-0.16797 -0.933594,-0.16797 -0.5,0 -0.816406,0.23047 -0.3125,0.22656 -0.3125,0.64843 0,0.5 0.824219,0.87891 0.609375,0.28125 0.804687,0.39062 0.199219,0.10938 0.402344,0.30079 0.203125,0.1914 0.324219,0.45312 0.125,0.25781 0.125,0.58203 0,0.80469 -0.542969,1.25 -0.539062,0.44141 -1.273437,0.44141 -0.710938,0 -1.246094,-0.28125 l 0.132812,-0.55078 q 0.628907,0.28515 1.097657,0.28515 0.546875,0 0.875,-0.28125 0.332031,-0.28515 0.332031,-0.78125 0,-0.36718 -0.214844,-0.62109 -0.214844,-0.25781 -0.792969,-0.52344 -0.59375,-0.27344 -0.769531,-0.37109 -0.171875,-0.10156 -0.34375,-0.27735 -0.171875,-0.17578 -0.265625,-0.39453 -0.09375,-0.21875 -0.09375,-0.47656 0,-0.68359 0.492188,-1.06641 0.492187,-0.38281 1.246093,-0.38281 0.550782,0 1.09375,0.16797 z M 66.191406,250 h -0.800781 l -1.617188,-2.50391 H 63.0625 V 250 h -0.640625 v -5.51172 h 1.558594 q 0.785156,0 1.238281,0.38281 0.457031,0.37891 0.457031,1.0586 0,0.5039 -0.332031,0.89843 -0.332031,0.39063 -0.914063,0.53125 z M 63.0625,246.9375 h 0.808594 q 0.507812,0 0.824218,-0.27344 0.316407,-0.27734 0.316407,-0.69531 0,-0.92188 -1.125,-0.92188 H 63.0625 Z"
     id="text30"
     style="font-size:8px;font-family:'DejaVu Sans Mono', monospace;fill:#87d3ff"
     aria-label="CAR ADSR" />
  <path
     d="m 32.175781,291 h -0.617187 v -4.72656 l -0.832032,2.26172 h -0.605468 l -0.832032,-2.26172 V 291 h -0.617187 v -5.51172 h 0.832031 L 30.425781,288 31.34375,285.48828 h 0.832031 z m 3.015625,-5.61719 q 0.925781,0 1.410156,0.73438 0.488282,0.73047 0.488282,2.1289 0,1.39063 -0.484375,2.125 -0.484375,0.73438 -1.414063,0.73438 -0.921875,0 -1.410156,-0.73047 -0.484375,-0.73438 -0.484375,-2.12891 0,-1.39453 0.484375,-2.1289 0.484375,-0.73438 1.410156,-0.73438 z m 0,5.16016 q 1.21875,0 1.21875,-2.29688 0,-2.30078 -1.21875,-2.30078 -0.59375,0 -0.90625,0.59766 -0.308594,0.59375 -0.308594,1.70312 0,1.1211 0.308594,1.71094 0.308594,0.58594 0.90625,0.58594 z m 3.226563,-5.05469 h 1.085937 q 1.082031,0 1.734375,0.73828 0.652344,0.73438 0.652344,2.01953 0,1.3125 -0.664063,2.03516 Q 40.566406,291 39.53125,291 h -1.113281 z m 0.640625,4.95313 h 0.453125 q 0.785156,0 1.242187,-0.58204 0.457031,-0.58203 0.457031,-1.61328 0,-1.02343 -0.460937,-1.60937 -0.457031,-0.58985 -1.238281,-0.58985 H 39.058594 Z M 51.796875,291 H 51.125 l -0.609375,-1.92969 H 48.707031 L 48.089844,291 h -0.664063 l 1.800781,-5.51172 h 0.769532 z m -1.464844,-2.48828 -0.722656,-2.28125 -0.71875,2.28125 z m 2.488281,-3.02344 h 1.085938 q 1.082031,0 1.734375,0.73828 0.652344,0.73438 0.652344,2.01953 0,1.3125 -0.664063,2.03516 Q 54.96875,291 53.933594,291 h -1.113282 z m 0.640625,4.95313 h 0.453125 q 0.785157,0 1.242188,-0.58204 0.457031,-0.58203 0.457031,-1.61328 0,-1.02343 -0.460937,-1.60937 -0.457032,-0.58985 -1.238282,-0.58985 h -0.453125 z m 6.917969,-4.34375 q -0.492187,-0.16797 -0.933594,-0.16797 -0.5,0 -0.816406,0.23047 -0.3125,0.22656 -0.3125,0.64843 0,0.5 0.824219,0.87891 0.609375,0.28125 0.804687,0.39062 0.199219,0.10938 0.402344,0.30079 0.203125,0.1914 0.324219,0.45312 0.125,0.25781 0.125,0.58203 0,0.80469 -0.542969,1.25 -0.539062,0.44141 -1.273437,0.44141 -0.710938,0 -1.246094,-0.28125 l 0.132812,-0.55078 q 0.628907,0.28515 1.097657,0.28515 0.546875,0 0.875,-0.28125 0.332031,-0.28515 0.332031,-0.78125 0,-0.36718 -0.214844,-0.62109 -0.214844,-0.25781 -0.792969,-0.52344 -0.59375,-0.27344 -0.769531,-0.37109 -0.171875,-0.10156 -0.34375,-0.27735 -0.171875,-0.17578 -0.265625,-0.39453 -0.09375,-0.21875 -0.09375,-0.47656 0,-0.68359 0.492188,-1.06641 0.492187,-0.38281 1.246093,-0.38281 0.550782,0 1.09375,0.16797 z M 66.191406,291 h -0.800781 l -1.617188,-2.50391 H 63.0625 V 291 h -0.640625 v -5.51172 h 1.558594 q 0.785156,0 1.238281,0.38281 0.457031,0.37891 0.457031,1.0586 0,0.5039 -0.332031,0.89843 -0.332031,0.39063 -0.914063,0.53125 z M 63.0625,287.9375 h 0.808594 q 0.507812,0 0.824218,-0.27344 0.316407,-0.27734 0.316407,-0.69531 0,-0.92188 -1.125,-0.92188 H 63.0625 Z"
     id="text31"
     style="font-size:8px;font-family:'DejaVu Sans Mono', monospace;fill:#ffd08e"
     aria-label="MOD ADSR" />
  <g
     fill="#7f8d98"
     font-family="DejaVu Sans Mono, monospace"
     font-size="7"
     text-anchor="middle"
     id="g39">
    <path
       d="m 85.919189,236 h -0.58789 l -0.533203,-1.68848 h -1.58252 L 82.675537,236 h -0.581055 l 1.575684,-4.82275 h 0.67334 z m -1.281738,-2.17725 -0.632324,-1.99609 -0.628906,1.99609 z"
       id="text32"
       aria-label="A" />
    <path
       d="m 122.61401,231.17725 h 0.9502 q 0.94678,0 1.51758,0.64599 0.5708,0.64258 0.5708,1.76709 0,1.14844 -0.58106,1.78076 Q 124.4939,236 123.58813,236 h -0.97412 z m 0.56055,4.33398 h 0.39648 q 0.68702,0 1.08692,-0.50928 0.3999,-0.50927 0.3999,-1.41162 0,-0.89551 -0.40332,-1.4082 -0.3999,-0.51611 -1.0835,-0.51611 h -0.39648 z"
       id="text33"
       aria-label="D" />
    <path
       d="m 165.0271,231.71045 q -0.43066,-0.14697 -0.81689,-0.14697 -0.4375,0 -0.71436,0.20166 -0.27344,0.19824 -0.27344,0.56738 0,0.4375 0.72119,0.76904 0.53321,0.2461 0.70411,0.3418 0.17431,0.0957 0.35205,0.26318 0.17773,0.16748 0.28369,0.39649 0.10937,0.22558 0.10937,0.50927 0,0.70411 -0.4751,1.09375 -0.47168,0.38624 -1.11425,0.38624 -0.62207,0 -1.09034,-0.2461 l 0.11622,-0.48193 q 0.55029,0.24951 0.96044,0.24951 0.47852,0 0.76563,-0.24609 0.29053,-0.24952 0.29053,-0.6836 0,-0.32129 -0.18799,-0.54346 -0.18799,-0.22558 -0.69385,-0.458 -0.51953,-0.23926 -0.67334,-0.32471 -0.15039,-0.0889 -0.30078,-0.24268 -0.15039,-0.1538 -0.23242,-0.34521 -0.082,-0.19141 -0.082,-0.41699 0,-0.59815 0.43066,-0.93311 0.43067,-0.33496 1.09033,-0.33496 0.48194,0 0.95703,0.14697 z"
       id="text34"
       aria-label="S" />
    <path
       d="m 205.91235,236 h -0.70068 l -1.41504,-2.19092 h -0.62207 V 236 h -0.56055 v -4.82275 h 1.36377 q 0.68701,0 1.0835,0.33496 0.3999,0.33154 0.3999,0.92627 0,0.44091 -0.29053,0.78613 -0.29052,0.3418 -0.7998,0.46484 z m -2.73779,-2.67969 h 0.70752 q 0.44434,0 0.72119,-0.23926 0.27686,-0.24267 0.27686,-0.60839 0,-0.80664 -0.98438,-0.80664 h -0.72119 z"
       id="text35"
       aria-label="R" />
    <path
       d="m 85.919189,276 h -0.58789 l -0.533203,-1.68848 h -1.58252 L 82.675537,276 h -0.581055 l 1.575684,-4.82275 h 0.67334 z m -1.281738,-2.17725 -0.632324,-1.99609 -0.628906,1.99609 z"
       id="text36"
       aria-label="A" />
    <path
       d="m 122.61401,271.17725 h 0.9502 q 0.94678,0 1.51758,0.64599 0.5708,0.64258 0.5708,1.76709 0,1.14844 -0.58106,1.78076 Q 124.4939,276 123.58813,276 h -0.97412 z m 0.56055,4.33398 h 0.39648 q 0.68702,0 1.08692,-0.50928 0.3999,-0.50927 0.3999,-1.41162 0,-0.89551 -0.40332,-1.4082 -0.3999,-0.51611 -1.0835,-0.51611 h -0.39648 z"
       id="text37"
       aria-label="D" />
    <path
       d="m 165.0271,271.71045 q -0.43066,-0.14697 -0.81689,-0.14697 -0.4375,0 -0.71436,0.20166 -0.27344,0.19824 -0.27344,0.56738 0,0.4375 0.72119,0.76904 0.53321,0.2461 0.70411,0.3418 0.17431,0.0957 0.35205,0.26318 0.17773,0.16748 0.28369,0.39649 0.10937,0.22558 0.10937,0.50927 0,0.70411 -0.4751,1.09375 -0.47168,0.38624 -1.11425,0.38624 -0.62207,0 -1.09034,-0.2461 l 0.11622,-0.48193 q 0.55029,0.24951 0.96044,0.24951 0.47852,0 0.76563,-0.24609 0.29053,-0.24952 0.29053,-0.6836 0,-0.32129 -0.18799,-0.54346 -0.18799,-0.22558 -0.69385,-0.458 -0.51953,-0.23926 -0.67334,-0.32471 -0.15039,-0.0889 -0.30078,-0.24268 -0.15039,-0.1538 -0.23242,-0.34521 -0.082,-0.19141 -0.082,-0.41699 0,-0.59815 0.43066,-0.93311 0.43067,-0.33496 1.09033,-0.33496 0.48194,0 0.95703,0.14697 z"
       id="text38"
       aria-label="S" />
    <path
       d="m 205.91235,276 h -0.70068 l -1.41504,-2.19092 h -0.62207 V 276 h -0.56055 v -4.82275 h 1.36377 q 0.68701,0 1.0835,0.33496 0.3999,0.33154 0.3999,0.92627 0,0.44091 -0.29053,0.78613 -0.29052,0.3418 -0.7998,0.46484 z m -2.73779,-2.67969 h 0.70752 q 0.44434,0 0.72119,-0.23926 0.27686,-0.24267 0.27686,-0.60839 0,-0.80664 -0.98438,-0.80664 h -0.72119 z"
       id="text39"
       aria-label="R" />
  </g>
  <path
     id="rect39"
     style="fill:#1b2127;stroke:#3f4a53"
     d="m 320,112 h 192 c 4.432,0 8,3.568 8,8 v 196 c 0,4.432 -3.568,8 -8,8 H 320 c -4.432,0 -8,-3.568 -8,-8 V 120 c 0,-4.432 3.568,-8 8,-8 z" />
  <path
     d="m 326.98437,130 h -3.44287 v -0.76807 h 1.30518 v -6.04248 h -1.30518 v -0.76806 h 3.44287 v 0.76806 h -1.25683 v 6.04248 h 1.25683 z m 6.85352,-7.72363 -3.29248,7.86865 h -0.78955 l 3.27637,-7.86865 z m 4.65137,0 q 1.27295,0 1.93896,1.00976 0.67139,1.0044 0.67139,2.92725 0,1.91211 -0.66602,2.92187 -0.66601,1.00977 -1.94433,1.00977 -1.26758,0 -1.93897,-1.0044 -0.66601,-1.00976 -0.66601,-2.92724 0,-1.91748 0.66601,-2.92725 0.66602,-1.00976 1.93897,-1.00976 z m 0,7.09521 q 1.67578,0 1.67578,-3.1582 0,-3.16358 -1.67578,-3.16358 -0.81641,0 -1.2461,0.82178 -0.42431,0.81641 -0.42431,2.3418 0,1.5415 0.42431,2.35254 0.42432,0.80566 1.2461,0.80566 z m 15.75342,-2.90039 h -2.1753 v 2.19678 h -0.70361 v -2.19678 h -2.20215 v -0.70361 h 2.20215 v -2.20215 h 0.70361 v 2.20215 h 2.1753 z m 13.44921,-3.33545 h -2.33642 V 130 h -0.87549 v -6.86426 h -2.34717 v -0.71435 h 5.55908 z M 374.51318,130 h -1.10107 l -2.22363,-3.44287 h -0.97754 V 130 h -0.88086 v -7.57861 h 2.14306 q 1.07959,0 1.70264,0.52636 0.62842,0.521 0.62842,1.45557 0,0.69287 -0.45654,1.23535 -0.45655,0.53711 -1.25684,0.73047 z m -4.30224,-4.21094 h 1.11181 q 0.69825,0 1.1333,-0.37597 0.43506,-0.38135 0.43506,-0.95606 0,-1.26758 -1.54687,-1.26758 h -1.1333 z M 381.125,130 h -0.92383 l -0.83789,-2.65332 h -2.48682 L 376.02783,130 h -0.91308 l 2.47607,-7.57861 h 1.05811 z m -2.01416,-3.42139 -0.99365,-3.13672 -0.98828,3.13672 z M 386.99561,130 h -0.97754 l -2.71778,-5.9834 V 130 h -0.88086 v -7.57861 h 0.98291 l 2.72852,5.92968 v -5.92968 h 0.86475 z m 5.92968,-6.74072 q -0.67675,-0.23096 -1.28369,-0.23096 -0.6875,0 -1.12256,0.31689 -0.42968,0.31153 -0.42968,0.89161 0,0.6875 1.1333,1.20849 0.83789,0.38672 1.10644,0.53711 0.27393,0.15039 0.55322,0.41358 0.2793,0.26318 0.4458,0.62304 0.17188,0.3545 0.17188,0.8003 0,1.10644 -0.74658,1.71875 -0.74121,0.60693 -1.75098,0.60693 -0.97754,0 -1.71338,-0.38672 l 0.18262,-0.75732 q 0.86475,0.39209 1.50928,0.39209 0.75195,0 1.20312,-0.38672 0.45654,-0.39209 0.45654,-1.07422 0,-0.50488 -0.29541,-0.854 -0.29541,-0.3545 -1.09033,-0.71973 -0.8164,-0.37598 -1.0581,-0.51026 -0.23633,-0.13964 -0.47266,-0.38134 -0.23633,-0.2417 -0.36523,-0.54248 -0.12891,-0.30078 -0.12891,-0.65528 0,-0.93994 0.67676,-1.46631 0.67676,-0.52636 1.71338,-0.52636 0.75732,0 1.5039,0.23095 z m 3.06153,-0.83789 h 1.92285 q 1.09033,0 1.7456,0.54785 0.65528,0.54785 0.65528,1.50928 0,0.96679 -0.65528,1.54687 -0.6499,0.57471 -1.708,0.57471 h -1.07959 V 130 h -0.88086 z m 0.88086,3.41064 h 0.95605 q 1.55225,0 1.55225,-1.2998 0,-0.60157 -0.42432,-0.97217 -0.41895,-0.37061 -1.08496,-0.37061 h -0.99902 z M 404.5,122.27637 q 1.27295,0 1.93896,1.00976 0.67139,1.0044 0.67139,2.92725 0,1.91211 -0.66601,2.92187 -0.66602,1.00977 -1.94434,1.00977 -1.26758,0 -1.93896,-1.0044 -0.66602,-1.00976 -0.66602,-2.92724 0,-1.91748 0.66602,-2.92725 0.66601,-1.00976 1.93896,-1.00976 z m 0,7.09521 q 1.67578,0 1.67578,-3.1582 0,-3.16358 -1.67578,-3.16358 -0.81641,0 -1.24609,0.82178 -0.42432,0.81641 -0.42432,2.3418 0,1.5415 0.42432,2.35254 0.42431,0.80566 1.24609,0.80566 z M 414.11963,130 h -1.10108 l -2.22363,-3.44287 h -0.97754 V 130 h -0.88086 v -7.57861 h 2.14307 q 1.07959,0 1.70264,0.52636 0.62841,0.521 0.62841,1.45557 0,0.69287 -0.45654,1.23535 -0.45654,0.53711 -1.25683,0.73047 z m -4.30225,-4.21094 h 1.11182 q 0.69824,0 1.1333,-0.37597 0.43506,-0.38135 0.43506,-0.95606 0,-1.26758 -1.54688,-1.26758 h -1.1333 z m 10.68311,-2.65332 h -2.33643 V 130 h -0.87549 v -6.86426 h -2.34716 v -0.71435 h 5.55908 z"
     id="text40"
     style="font-size:11px;font-family:'DejaVu Sans Mono', monospace;fill:#ffffff"
     aria-label="I/O + TRANSPORT" />
  <path
     d="m 34.706543,348.61328 q -0.729492,0.50537 -1.691895,0.50537 -1.204101,0 -1.832519,-0.82617 -0.624024,-0.82617 -0.624024,-2.39062 0,-1.51172 0.606446,-2.36426 0.606445,-0.85694 1.850097,-0.85694 0.448243,0 0.887696,0.11426 0.439453,0.11426 0.707519,0.30322 l -0.237304,0.5669 q -0.619629,-0.35156 -1.357911,-0.35156 -0.856933,0 -1.274414,0.62402 -0.41748,0.61963 -0.41748,1.96436 0,2.58398 1.691894,2.58398 0.716309,0 1.467774,-0.43945 z M 39.900879,349 h -3.375 v -6.20068 h 0.720703 v 5.57226 h 2.654297 z m 6.200683,0 h -0.909667 l -2.096192,-3.04102 -0.654785,0.71192 V 349 h -0.720703 v -6.20068 h 0.720703 v 2.9707 l 2.750977,-2.9707 h 0.830566 l -2.421387,2.61914 z"
     id="text41"
     style="font-size:9px;font-family:'DejaVu Sans Mono', monospace;fill:#99a8b5"
     aria-label="CLK" />
  <path
     d="m 85.15918,349 h -0.900879 l -1.819336,-2.81689 H 81.63916 V 349 h -0.720703 v -6.20068 h 1.753418 q 0.883301,0 1.393066,0.43066 0.514161,0.42627 0.514161,1.19092 0,0.56689 -0.373536,1.01074 -0.373535,0.43945 -1.02832,0.59766 z m -3.52002,-3.44531 h 0.909668 q 0.571289,0 0.927246,-0.30762 0.355957,-0.31201 0.355957,-0.78223 0,-1.03711 -1.265625,-1.03711 H 81.63916 Z m 7.782715,-2.06983 q -0.553711,-0.18896 -1.050293,-0.18896 -0.5625,0 -0.918457,0.25928 -0.351563,0.25488 -0.351563,0.72949 0,0.5625 0.927247,0.98877 0.685546,0.3164 0.905273,0.43945 0.224121,0.12305 0.452637,0.33838 0.228515,0.21533 0.364746,0.50977 0.140625,0.29003 0.140625,0.65478 0,0.90527 -0.61084,1.40625 -0.606445,0.49658 -1.432617,0.49658 -0.799805,0 -1.401856,-0.3164 l 0.149414,-0.61963 q 0.70752,0.3208 1.234864,0.3208 0.615234,0 0.984375,-0.31641 0.373535,-0.3208 0.373535,-0.8789 0,-0.41309 -0.241699,-0.69874 -0.2417,-0.29003 -0.89209,-0.58886 -0.667969,-0.30762 -0.865723,-0.41748 -0.193359,-0.11426 -0.386719,-0.31201 -0.193359,-0.19776 -0.298828,-0.44385 -0.105469,-0.2461 -0.105469,-0.53613 0,-0.76905 0.553711,-1.19971 0.553711,-0.43067 1.401856,-0.43067 0.619629,0 1.230469,0.18897 z m 6.358887,-0.10107 H 93.869141 V 349 h -0.716309 v -5.61621 h -1.92041 v -0.58447 h 4.54834 z"
     id="text42"
     style="font-size:9px;font-family:'DejaVu Sans Mono', monospace;fill:#99a8b5"
     aria-label="RST" />
  <path
     d="M 132.146,342.79932 130.12451,349 h -0.86572 l -2.02588,-6.20068 h 0.75586 l 1.70068,5.36572 1.70948,-5.36572 z m 4.53955,-0.11866 -2.69385,6.43799 h -0.646 l 2.68067,-6.43799 z m 3.80566,0 q 1.0415,0 1.58643,0.82618 0.54931,0.82177 0.54931,2.39502 0,1.56445 -0.54492,2.39062 -0.54492,0.82617 -1.59082,0.82617 -1.03711,0 -1.58642,-0.82178 -0.54493,-0.82617 -0.54493,-2.39501 0,-1.56885 0.54493,-2.39502 0.54492,-0.82618 1.58642,-0.82618 z m 0,5.80518 q 1.37109,0 1.37109,-2.58398 0,-2.58838 -1.37109,-2.58838 -0.66797,0 -1.01953,0.67236 -0.34717,0.66797 -0.34717,1.91602 0,1.26123 0.34717,1.9248 0.34717,0.65918 1.01953,0.65918 z m 7.41797,0.12744 q -0.72949,0.50537 -1.69189,0.50537 -1.20411,0 -1.83252,-0.82617 -0.62403,-0.82617 -0.62403,-2.39062 0,-1.51172 0.60645,-2.36426 0.60644,-0.85694 1.8501,-0.85694 0.44824,0 0.88769,0.11426 0.43945,0.11426 0.70752,0.30322 l -0.2373,0.5669 q -0.61963,-0.35156 -1.35791,-0.35156 -0.85694,0 -1.27442,0.62402 -0.41748,0.61963 -0.41748,1.96436 0,2.58398 1.6919,2.58398 0.7163,0 1.46777,-0.43945 z m 5.67334,-5.22949 H 151.6709 V 349 h -0.71631 v -5.61621 h -1.92041 v -0.58447 h 4.54834 z"
     id="text43"
     style="font-size:9px;font-family:'DejaVu Sans Mono', monospace;fill:#99a8b5"
     aria-label="V/OCT" />
  <path
     d="m 182.07812,349 h -2.81689 v -0.62842 h 1.06787 v -4.94385 h -1.06787 v -0.62841 h 2.81689 v 0.62841 h -1.02832 v 4.94385 h 1.02832 z m 2.24122,-6.20068 h 1.22168 q 1.21728,0 1.95117,0.83056 0.73388,0.82617 0.73388,2.27198 0,1.47656 -0.74707,2.28955 Q 186.73633,349 185.57178,349 h -1.25244 z m 0.7207,5.57226 h 0.50976 q 0.88331,0 1.39747,-0.65478 0.51416,-0.65479 0.51416,-1.81494 0,-1.15137 -0.51856,-1.81055 -0.51416,-0.66358 -1.39307,-0.66358 h -0.50976 z M 193.9126,349 h -0.79981 L 191.53955,346.45996 189.97949,349 h -0.7998 l 1.98193,-3.15967 -1.97314,-3.04101 h 0.82617 l 1.5249,2.45654 1.53809,-2.45654 h 0.79101 l -1.94238,3.04101 z m 10.39746,-0.38672 q -0.72949,0.50537 -1.6919,0.50537 -1.2041,0 -1.83252,-0.82617 -0.62402,-0.82617 -0.62402,-2.39062 0,-1.51172 0.60645,-2.36426 0.60644,-0.85694 1.85009,-0.85694 0.44825,0 0.8877,0.11426 0.43945,0.11426 0.70752,0.30322 l -0.23731,0.5669 q -0.61962,-0.35156 -1.35791,-0.35156 -0.85693,0 -1.27441,0.62402 -0.41748,0.61963 -0.41748,1.96436 0,2.58398 1.69189,2.58398 0.71631,0 1.46778,-0.43945 z m 5.84033,-5.81396 L 208.12891,349 h -0.86573 l -2.02588,-6.20068 h 0.75586 l 1.70069,5.36572 1.70947,-5.36572 z"
     id="text44"
     style="font-size:9px;font-family:'DejaVu Sans Mono', monospace;fill:#99a8b5"
     aria-label="IDX CV" />
  <path
     d="m 230.69775,349 h -0.69433 v -5.31738 l -0.93604,2.54443 h -0.68115 l -0.93603,-2.54443 V 349 h -0.69434 v -6.20068 h 0.93603 l 1.03711,2.82568 1.03272,-2.82568 h 0.93603 z m 3.39258,-6.31934 q 1.04151,0 1.58643,0.82618 0.54931,0.82177 0.54931,2.39502 0,1.56445 -0.54492,2.39062 -0.54492,0.82617 -1.59082,0.82617 -1.03711,0 -1.58642,-0.82178 -0.54493,-0.82617 -0.54493,-2.39501 0,-1.56885 0.54493,-2.39502 0.54492,-0.82618 1.58642,-0.82618 z m 0,5.80518 q 1.3711,0 1.3711,-2.58398 0,-2.58838 -1.3711,-2.58838 -0.66797,0 -1.01953,0.67236 -0.34717,0.66797 -0.34717,1.91602 0,1.26123 0.34717,1.9248 0.34717,0.65918 1.01953,0.65918 z m 3.62988,-5.68652 h 1.22168 q 1.21729,0 1.95118,0.83056 0.73388,0.82617 0.73388,2.27198 0,1.47656 -0.74707,2.28955 Q 240.13721,349 238.97266,349 h -1.25245 z m 0.72071,5.57226 h 0.50976 q 0.8833,0 1.39746,-0.65478 0.51416,-0.65479 0.51416,-1.81494 0,-1.15137 -0.51855,-1.81055 -0.51416,-0.66358 -1.39307,-0.66358 h -0.50976 z m 13.86914,0.2417 q -0.72949,0.50537 -1.6919,0.50537 -1.2041,0 -1.83252,-0.82617 -0.62402,-0.82617 -0.62402,-2.39062 0,-1.51172 0.60645,-2.36426 0.60644,-0.85694 1.85009,-0.85694 0.44825,0 0.8877,0.11426 0.43945,0.11426 0.70752,0.30322 l -0.23731,0.5669 q -0.61962,-0.35156 -1.35791,-0.35156 -0.85693,0 -1.27441,0.62402 -0.41748,0.61963 -0.41748,1.96436 0,2.58398 1.69189,2.58398 0.71631,0 1.46778,-0.43945 z m 5.84033,-5.81396 L 256.12891,349 h -0.86573 l -2.02588,-6.20068 h 0.75586 l 1.70069,5.36572 1.70947,-5.36572 z"
     id="text45"
     style="font-size:9px;font-family:'DejaVu Sans Mono', monospace;fill:#99a8b5"
     aria-label="MOD CV" />
  <path
     d="m 279.70654,348.61328 q -0.72949,0.50537 -1.69189,0.50537 -1.2041,0 -1.83252,-0.82617 -0.62402,-0.82617 -0.62402,-2.39062 0,-1.51172 0.60644,-2.36426 0.60645,-0.85694 1.8501,-0.85694 0.44824,0 0.88769,0.11426 0.43946,0.11426 0.70752,0.30322 l -0.2373,0.5669 q -0.61963,-0.35156 -1.35791,-0.35156 -0.85694,0 -1.27442,0.62402 -0.41748,0.61963 -0.41748,1.96436 0,2.58398 1.6919,2.58398 0.71631,0 1.46777,-0.43945 z M 285.56885,349 h -0.75586 l -0.68555,-2.1709 h -2.03467 L 281.39844,349 h -0.74707 l 2.02588,-6.20068 h 0.86572 z m -1.64795,-2.79932 -0.81299,-2.5664 -0.80859,2.5664 z M 290.96094,349 h -0.90088 l -1.81934,-2.81689 h -0.7998 V 349 h -0.72071 v -6.20068 h 1.75342 q 0.8833,0 1.39307,0.43066 0.51416,0.42627 0.51416,1.19092 0,0.56689 -0.37354,1.01074 -0.37353,0.43945 -1.02832,0.59766 z m -3.52002,-3.44531 h 0.90967 q 0.57128,0 0.92724,-0.30762 0.35596,-0.31201 0.35596,-0.78223 0,-1.03711 -1.26563,-1.03711 h -0.92724 z m 13.86914,3.05859 q -0.72949,0.50537 -1.6919,0.50537 -1.2041,0 -1.83252,-0.82617 -0.62402,-0.82617 -0.62402,-2.39062 0,-1.51172 0.60645,-2.36426 0.60644,-0.85694 1.85009,-0.85694 0.44825,0 0.8877,0.11426 0.43945,0.11426 0.70752,0.30322 l -0.23731,0.5669 q -0.61962,-0.35156 -1.35791,-0.35156 -0.85693,0 -1.27441,0.62402 -0.41748,0.61963 -0.41748,1.96436 0,2.58398 1.69189,2.58398 0.71631,0 1.46778,-0.43945 z m 5.84033,-5.81396 L 305.12891,349 h -0.86573 l -2.02588,-6.20068 h 0.75586 l 1.70069,5.36572 1.70947,-5.36572 z"
     id="text46"
     style="font-size:9px;font-family:'DejaVu Sans Mono', monospace;fill:#99a8b5"
     aria-label="CAR CV" />
  <path
     d="m 343.69775,349 h -0.69433 v -5.31738 l -0.93604,2.54443 h -0.68115 l -0.93603,-2.54443 V 349 h -0.69434 v -6.20068 h 0.93603 l 1.03711,2.82568 1.03272,-2.82568 h 0.93603 z m 5.8711,0 h -0.75586 l -0.68555,-2.1709 h -2.03467 L 345.39844,349 h -0.74707 l 2.02588,-6.20068 h 0.86572 z m -1.64795,-2.79932 -0.81299,-2.5664 -0.80859,2.5664 z m 5.90185,-2.71582 q -0.55371,-0.18896 -1.05029,-0.18896 -0.5625,0 -0.91846,0.25928 -0.35156,0.25488 -0.35156,0.72949 0,0.5625 0.92725,0.98877 0.68554,0.3164 0.90527,0.43945 0.22412,0.12305 0.45264,0.33838 0.22851,0.21533 0.36474,0.50977 0.14063,0.29003 0.14063,0.65478 0,0.90527 -0.61084,1.40625 -0.60645,0.49658 -1.43262,0.49658 -0.7998,0 -1.40185,-0.3164 l 0.14941,-0.61963 q 0.70752,0.3208 1.23486,0.3208 0.61524,0 0.98438,-0.31641 0.37353,-0.3208 0.37353,-0.8789 0,-0.41309 -0.2417,-0.69874 -0.24169,-0.29003 -0.89209,-0.58886 -0.66796,-0.30762 -0.86572,-0.41748 -0.19336,-0.11426 -0.38672,-0.31201 -0.19336,-0.19776 -0.29882,-0.44385 -0.10547,-0.2461 -0.10547,-0.53613 0,-0.76905 0.55371,-1.19971 0.55371,-0.43067 1.40185,-0.43067 0.61963,0 1.23047,0.18897 z m 6.35889,-0.10107 h -1.91162 V 349 h -0.71631 v -5.61621 h -1.92041 v -0.58447 h 4.54834 z M 364.96729,349 h -3.23877 v -6.20068 h 3.2124 v 0.62841 h -2.4917 v 1.92041 h 2.39502 v 0.62842 h -2.39502 v 2.39502 h 2.51807 z m 6.19628,0 h -0.90087 l -1.81934,-2.81689 h -0.79981 V 349 h -0.7207 v -6.20068 h 1.75342 q 0.8833,0 1.39307,0.43066 0.51416,0.42627 0.51416,1.19092 0,0.56689 -0.37354,1.01074 -0.37353,0.43945 -1.02832,0.59766 z m -3.52002,-3.44531 h 0.90967 q 0.57129,0 0.92725,-0.30762 0.35596,-0.31201 0.35596,-0.78223 0,-1.03711 -1.26563,-1.03711 h -0.92725 z"
     id="text47"
     style="font-size:9px;font-family:'DejaVu Sans Mono', monospace;fill:#99a8b5"
     aria-label="MASTER" />
  <path
     d="m 394.15918,349 h -0.90088 l -1.81934,-2.81689 h -0.7998 V 349 h -0.7207 v -6.20068 h 1.75341 q 0.88331,0 1.39307,0.43066 0.51416,0.42627 0.51416,1.19092 0,0.56689 -0.37353,1.01074 -0.37354,0.43945 -1.02832,0.59766 z m -3.52002,-3.44531 h 0.90967 q 0.57129,0 0.92724,-0.30762 0.35596,-0.31201 0.35596,-0.78223 0,-1.03711 -1.26562,-1.03711 h -0.92725 z M 398.76465,349 h -3.23877 v -6.20068 h 3.2124 v 0.62841 h -2.4917 v 1.92041 h 2.39502 v 0.62842 h -2.39502 v 2.39502 h 2.51807 z m 5.0581,-5.51514 q -0.55371,-0.18896 -1.05029,-0.18896 -0.5625,0 -0.91846,0.25928 -0.35156,0.25488 -0.35156,0.72949 0,0.5625 0.92725,0.98877 0.68554,0.3164 0.90527,0.43945 0.22412,0.12305 0.45264,0.33838 0.22851,0.21533 0.36474,0.50977 0.14063,0.29003 0.14063,0.65478 0,0.90527 -0.61084,1.40625 -0.60645,0.49658 -1.43262,0.49658 -0.7998,0 -1.40185,-0.3164 l 0.14941,-0.61963 q 0.70752,0.3208 1.23486,0.3208 0.61524,0 0.98438,-0.31641 0.37353,-0.3208 0.37353,-0.8789 0,-0.41309 -0.2417,-0.69874 -0.24169,-0.29003 -0.89209,-0.58886 -0.66796,-0.30762 -0.86572,-0.41748 -0.19336,-0.11426 -0.38672,-0.31201 -0.19336,-0.19776 -0.29882,-0.44385 -0.10547,-0.2461 -0.10547,-0.53613 0,-0.76905 0.55371,-1.19971 0.55371,-0.43067 1.40185,-0.43067 0.61963,0 1.23047,0.18897 z M 409.56641,349 h -3.23877 v -6.20068 h 3.2124 v 0.62841 h -2.4917 v 1.92041 h 2.39502 v 0.62842 h -2.39502 v 2.39502 h 2.51807 z m 6.01611,-5.61621 H 413.6709 V 349 h -0.71631 v -5.61621 h -1.92041 v -0.58447 h 4.54834 z"
     id="text48"
     style="font-size:9px;font-family:'DejaVu Sans Mono', monospace;fill:#99a8b5"
     aria-label="RESET" />
  <path
     d="m 445.70654,348.61328 q -0.72949,0.50537 -1.69189,0.50537 -1.2041,0 -1.83252,-0.82617 -0.62402,-0.82617 -0.62402,-2.39062 0,-1.51172 0.60644,-2.36426 0.60645,-0.85694 1.8501,-0.85694 0.44824,0 0.88769,0.11426 0.43946,0.11426 0.70752,0.30322 l -0.2373,0.5669 q -0.61963,-0.35156 -1.35791,-0.35156 -0.85694,0 -1.27442,0.62402 -0.41748,0.61963 -0.41748,1.96436 0,2.58398 1.6919,2.58398 0.71631,0 1.46777,-0.43945 z M 450.90088,349 h -3.375 v -6.20068 h 0.7207 v 5.57226 h 2.6543 z m 3.59033,-6.31934 q 1.0415,0 1.58643,0.82618 0.54931,0.82177 0.54931,2.39502 0,1.56445 -0.54492,2.39062 -0.54492,0.82617 -1.59082,0.82617 -1.03711,0 -1.58642,-0.82178 -0.54493,-0.82617 -0.54493,-2.39501 0,-1.56885 0.54493,-2.39502 0.54492,-0.82618 1.58642,-0.82618 z m 0,5.80518 q 1.37109,0 1.37109,-2.58398 0,-2.58838 -1.37109,-2.58838 -0.66797,0 -1.01953,0.67236 -0.34717,0.66797 -0.34717,1.91602 0,1.26123 0.34717,1.9248 0.34717,0.65918 1.01953,0.65918 z m 7.41797,0.12744 q -0.72949,0.50537 -1.69189,0.50537 -1.20411,0 -1.83252,-0.82617 -0.62403,-0.82617 -0.62403,-2.39062 0,-1.51172 0.60645,-2.36426 0.60644,-0.85694 1.8501,-0.85694 0.44824,0 0.88769,0.11426 0.43945,0.11426 0.70752,0.30322 l -0.2373,0.5669 q -0.61963,-0.35156 -1.35791,-0.35156 -0.85694,0 -1.27442,0.62402 -0.41748,0.61963 -0.41748,1.96436 0,2.58398 1.6919,2.58398 0.7163,0 1.46777,-0.43945 z M 467.90332,349 h -0.90967 l -2.09619,-3.04102 -0.65478,0.71192 V 349 h -0.72071 v -6.20068 h 0.72071 v 2.9707 l 2.75097,-2.9707 h 0.83057 l -2.42139,2.61914 z"
     id="text49"
     style="font-size:9px;font-family:'DejaVu Sans Mono', monospace;fill:#99a8b5"
     aria-label="CLOCK" />
  <path
     d="m 452.68945,326.68066 q 1.04151,0 1.58643,0.82618 0.54932,0.82177 0.54932,2.39502 0,1.56445 -0.54493,2.39062 -0.54492,0.82617 -1.59082,0.82617 -1.03711,0 -1.58642,-0.82178 -0.54492,-0.82617 -0.54492,-2.39501 0,-1.56885 0.54492,-2.39502 0.54492,-0.82618 1.58642,-0.82618 z m 0,5.80518 q 1.3711,0 1.3711,-2.58398 0,-2.58838 -1.3711,-2.58838 -0.66797,0 -1.01953,0.67236 -0.34717,0.66797 -0.34717,1.91602 0,1.26123 0.34717,1.9248 0.34717,0.65918 1.01953,0.65918 z m 7.19385,-1.43701 q 0,1.07666 -0.43945,1.57324 -0.43506,0.49658 -1.32715,0.49658 -1.79736,0 -1.79736,-2.05224 v -4.26709 h 0.7207 v 4.20117 q 0,1.48535 1.07666,1.48535 0.54053,0 0.79101,-0.35156 0.25489,-0.35157 0.25489,-1.14258 v -4.19238 h 0.7207 z m 5.89746,-3.66504 h -1.91162 V 333 h -0.71631 v -5.61621 h -1.92041 v -0.58447 h 4.54834 z"
     id="text50"
     style="font-size:9px;font-family:'DejaVu Sans Mono', monospace;fill:#87d3ff"
     aria-label="OUT" />
  <path
     d="m 487.69775,332.56055 q -0.76025,0.5581 -1.6831,0.5581 -1.2085,0 -1.83252,-0.81738 -0.62402,-0.82178 -0.62402,-2.39941 0,-1.52491 0.60205,-2.37305 0.60644,-0.84815 1.85449,-0.84815 0.44824,0 0.88769,0.11426 0.43946,0.11426 0.70752,0.30322 l -0.2373,0.5669 q -0.61963,-0.35156 -1.35791,-0.35156 -0.85254,0 -1.27442,0.62402 -0.41748,0.62402 -0.41748,1.96436 0,2.58398 1.6919,2.58398 0.63721,0 0.9624,-0.26807 v -1.52929 h -1.11621 v -0.62403 h 1.83691 z M 493.56885,333 h -0.75586 l -0.68555,-2.1709 h -2.03467 L 489.39844,333 h -0.74707 l 2.02588,-6.20068 h 0.86572 z m -1.64795,-2.79932 -0.81299,-2.5664 -0.80859,2.5664 z m 6.85986,-2.81689 h -1.91162 V 333 h -0.71631 v -5.61621 h -1.92041 v -0.58447 h 4.54834 z M 503.56641,333 h -3.23877 v -6.20068 h 3.2124 v 0.62841 h -2.4917 v 1.92041 h 2.39502 v 0.62842 h -2.39502 v 2.39502 h 2.51807 z"
     id="text51"
     style="font-size:9px;font-family:'DejaVu Sans Mono', monospace;fill:#ffd08e"
     aria-label="GATE" />
  <path
     d="m 518.021,327.48486 q -0.55371,-0.18896 -1.0503,-0.18896 -0.5625,0 -0.91845,0.25928 -0.35157,0.25488 -0.35157,0.72949 0,0.5625 0.92725,0.98877 0.68555,0.3164 0.90527,0.43945 0.22412,0.12305 0.45264,0.33838 0.22852,0.21533 0.36475,0.50977 0.14062,0.29003 0.14062,0.65478 0,0.90527 -0.61084,1.40625 -0.60644,0.49658 -1.43262,0.49658 -0.7998,0 -1.40185,-0.3164 l 0.14941,-0.61963 q 0.70752,0.3208 1.23487,0.3208 0.61523,0 0.98437,-0.31641 0.37354,-0.3208 0.37354,-0.8789 0,-0.41309 -0.2417,-0.69874 -0.2417,-0.29003 -0.89209,-0.58886 -0.66797,-0.30762 -0.86573,-0.41748 -0.19336,-0.11426 -0.38671,-0.31201 -0.19336,-0.19776 -0.29883,-0.44385 -0.10547,-0.2461 -0.10547,-0.53613 0,-0.76905 0.55371,-1.19971 0.55371,-0.43067 1.40185,-0.43067 0.61963,0 1.23047,0.18897 z m 6.35888,-0.10107 h -1.91162 V 333 h -0.71631 v -5.61621 h -1.92041 v -0.58447 h 4.54834 z M 529.16553,333 h -3.23877 v -6.20068 h 3.2124 v 0.62841 h -2.4917 v 1.92041 h 2.39502 v 0.62842 h -2.39502 v 2.39502 h 2.51807 z m 2.16211,-6.20068 h 1.57324 q 0.89209,0 1.42822,0.44824 0.53613,0.44824 0.53613,1.23486 0,0.79102 -0.53613,1.26563 -0.53174,0.47021 -1.39746,0.47021 h -0.8833 V 333 h -0.7207 z m 0.7207,2.79052 h 0.78223 q 1.27002,0 1.27002,-1.06347 0,-0.49219 -0.34717,-0.79541 -0.34278,-0.30323 -0.8877,-0.30323 h -0.81738 z"
     id="text52"
     style="font-size:9px;font-family:'DejaVu Sans Mono', monospace;fill:#c6f09f"
     aria-label="STEP" />
  <g
     id="actionLabels">
    <path
       id="actionLabelPanel"
       style="fill:#1a2026;stroke:#3f4a53;stroke-width:1"
       d="m 304,120 h 144 c 3.324,0 6,2.676 6,6 v 164 c 0,3.324 -2.676,6 -6,6 H 304 c -3.324,0 -6,-2.676 -6,-6 V 126 c 0,-3.324 2.676,-6 6,-6 z" />
    <text
       x="334"
       y="130"
       style="font-size:8px;font-family:'DejaVu Sans Mono', monospace;fill:#8dd0ff;text-anchor:middle"
       aria-label="RND">RND</text>
    <text
       x="394"
       y="130"
       style="font-size:8px;font-family:'DejaVu Sans Mono', monospace;fill:#ffd08e;text-anchor:middle"
       aria-label="INIT">INIT</text>
    <text
       x="315"
       y="139"
       style="font-size:7px;font-family:'DejaVu Sans Mono', monospace;fill:#a8b8c4">Ratios</text>
    <text
       x="315"
       y="163"
       style="font-size:7px;font-family:'DejaVu Sans Mono', monospace;fill:#a8b8c4">Divisions</text>
    <text
       x="315"
       y="187"
       style="font-size:7px;font-family:'DejaVu Sans Mono', monospace;fill:#a8b8c4">Envelopes</text>
    <text
       x="315"
       y="211"
       style="font-size:7px;font-family:'DejaVu Sans Mono', monospace;fill:#a8b8c4">Pitches</text>
    <text
       x="315"
       y="235"
       style="font-size:7px;font-family:'DejaVu Sans Mono', monospace;fill:#a8b8c4">Indexes</text>
    <text
       x="315"
       y="259"
       style="font-size:7px;font-family:'DejaVu Sans Mono', monospace;fill:#a8b8c4">Levels</text>
  </g>
</svg>
