<?xml version="1.0" encoding="UTF-8" standalone="no"?>
<svg
   width="540"
   height="380"
   viewBox="0 0 540 380"
   version="1.1"
   id="svg52"
   xmlns="http://www.w3.org/2000/svg"
   xmlns:svg="http://www.w3.org/2000/svg">
  <defs
     id="defs2">
    <linearGradient
       id="bg"
       x1="0"
       y1="0"
       x2="0"
       y2="1">
      <stop
         offset="0%"
         stop-color="#252c33"
         id="stop1" />
      <stop
         offset="100%"
         stop-color="#14191e"
         id="stop2" />
    </linearGradient>
  </defs>
  <path
     id="path33453"
     d="M 0,0 H 540 V 380 H 0 Z m 0,0"
     style="fill:#333333;fill-opacity:1;fill-rule:nonzero;stroke:none;stroke-width:1.33559" />
  <path
     id="rect1298"
     style="fill:#2d5f86;fill-opacity:1;stroke:none;stroke-width:4.58657;stroke-miterlimit:4;stroke-dasharray:none;stroke-dashoffset:0;stroke-opacity:1"
     d="M 45.531203,112.25017 H 299.76246 v 200 H 45.531203 Z" />
  <path
     id="rect1298-9"
     style="fill:#2d5f86;fill-opacity:1;stroke:none;stroke-width:3.72458;stroke-miterlimit:4;stroke-dasharray:none;stroke-dashoffset:0;stroke-opacity:1"
     d="m 317.65357,112.25017 h 167.65178 v 200 H 317.65357 Z" />
  <g
     id="labels"
     style="font-family:monospace;font-size:9px;fill:#ffffff;text-anchor:middle">
    <!-- Step buttons (1-16) -->
    <path
       d="m 21.37915,35 h -2.536132 v -0.48877 h 1.021972 v -3.746093 l -0.963867,0.481933 v -0.560547 l 1.042481,-0.536621 h 0.481933 v 4.361328 h 0.953613 z"
       id="text1"
       style="font-size:7px"
       aria-label="1" />
    <path
       d="m 53.252686,35 h -2.652344 v -0.406738 q 1.008301,-1.124512 1.309082,-1.507325 0.300781,-0.382812 0.488769,-0.803222 0.187989,-0.42041 0.187989,-0.837403 0,-0.40332 -0.246094,-0.635742 -0.242676,-0.232422 -0.683594,-0.232422 -0.338379,0 -0.90918,0.208497 l -0.07861,-0.481934 q 0.516113,-0.21875 1.080078,-0.21875 0.645996,0 1.039063,0.365723 0.396484,0.362304 0.396484,0.970703 0,0.434082 -0.205078,0.861328 -0.20166,0.427246 -0.519531,0.820312 -0.317871,0.393067 -1.237305,1.408203 h 2.030274 z"
       id="text2"
       style="font-size:7px"
       aria-label="2" />
    <path
       d="m 84.299072,32.40918 q 0.440918,0.123047 0.70752,0.451172 0.266601,0.324707 0.266601,0.731445 0,0.635742 -0.495605,1.069824 -0.495606,0.430664 -1.168945,0.430664 -0.574219,0 -1.028809,-0.25293 l 0.109375,-0.461425 q 0.475098,0.222168 0.939941,0.222168 0.4375,0 0.745118,-0.27002 0.311035,-0.273437 0.311035,-0.700683 0,-0.420411 -0.331543,-0.683594 -0.331543,-0.263184 -0.878418,-0.263184 h -0.146973 v -0.461426 h 0.04102 q 0.526367,0 0.868164,-0.246093 0.341797,-0.249512 0.341797,-0.669922 0,-0.341797 -0.246094,-0.533203 -0.246094,-0.194825 -0.676758,-0.194825 -0.372558,0 -0.833984,0.201661 l -0.0752,-0.481934 q 0.464844,-0.211914 0.936524,-0.211914 0.645996,0 1.062988,0.341797 0.42041,0.338379 0.42041,0.871582 0,0.36914 -0.256347,0.69043 -0.25293,0.317871 -0.611817,0.399902 z"
       id="text3"
       style="font-size:7px"
       aria-label="3" />
    <path
       d="m 117.56714,33.885742 h -0.59473 V 35 h -0.56054 v -1.114258 h -2.09864 v -0.427246 l 1.90381,-3.28125 h 0.75537 v 3.219727 h 0.59473 z m -1.15527,-0.488769 v -2.666016 l -1.53125,2.666016 z"
       id="text4"
       style="font-size:7px"
       aria-label="4" />
    <path
       d="m 147.38306,32.12207 q 0.23242,-0.06152 0.45459,-0.06152 0.68359,0 1.08007,0.42041 0.39649,0.416992 0.39649,1.04248 0,0.65625 -0.46143,1.114258 -0.46142,0.45459 -1.12451,0.45459 -0.63232,0 -1.05957,-0.211914 l 0.11279,-0.475098 q 0.46485,0.194825 0.96045,0.194825 0.44092,0 0.71094,-0.283692 0.27344,-0.283691 0.27344,-0.792969 0,-0.481933 -0.25635,-0.741699 -0.25635,-0.259765 -0.65967,-0.259765 -0.29394,0 -0.58105,0.112793 l -0.33496,-0.153809 v -2.303711 h 2.20459 v 0.48877 h -1.71582 z"
       id="text5"
       style="font-size:7px"
       aria-label="5" />
    <path
       d="m 179.13696,32.487793 q 0.45117,-0.365723 0.98096,-0.365723 0.61182,0 1.01855,0.393067 0.41016,0.389648 0.41016,1.0083 0,0.680176 -0.3623,1.124512 -0.36231,0.444336 -0.96729,0.444336 -0.77246,0 -1.22363,-0.707519 -0.45117,-0.710938 -0.45117,-1.736329 0,-1.09375 0.46826,-1.828613 0.47168,-0.734863 1.28857,-0.734863 0.56397,0 0.97412,0.16748 l -0.0889,0.499024 q -0.4751,-0.174317 -0.86817,-0.174317 -0.55713,0 -0.86816,0.533204 -0.31104,0.533203 -0.31104,1.377441 z m 0.0171,0.481934 q 0,0.618652 0.29053,1.124511 0.29053,0.50586 0.73145,0.50586 0.37255,0 0.57421,-0.273438 0.20166,-0.273437 0.20166,-0.755371 0,-0.444336 -0.22216,-0.700684 -0.22217,-0.256347 -0.62549,-0.256347 -0.52295,0 -0.9502,0.355469 z"
       id="text6"
       style="font-size:7px"
       aria-label="6" />
    <path
       d="M 213.44067,30.577148 211.53003,35 h -0.57422 l 1.8833,-4.333984 h -2.25928 v -0.48877 h 2.86084 z"
       id="text7"
       style="font-size:7px"
       aria-label="7" />
    <path
       d="m 244.48364,32.354492 q 0.49219,0.143555 0.76221,0.48877 0.27344,0.345215 0.27344,0.80664 0,0.663086 -0.44092,1.052735 -0.4375,0.389648 -1.08008,0.389648 -0.67334,0 -1.10742,-0.393066 -0.43066,-0.393067 -0.43066,-1.042481 0,-0.458008 0.28027,-0.80664 0.28027,-0.348633 0.78271,-0.495606 -0.3999,-0.102539 -0.64257,-0.393066 -0.23926,-0.293946 -0.23926,-0.65625 0,-0.464844 0.36914,-0.840821 0.36914,-0.379394 0.97412,-0.379394 0.59814,0 0.98779,0.375976 0.39307,0.375977 0.39307,0.844239 0,0.352051 -0.2461,0.649414 -0.24609,0.293945 -0.63574,0.399902 z m -0.49902,-0.232422 q 0.0171,0 0.16406,-0.04102 0.14697,-0.04102 0.24951,-0.09912 0.10596,-0.06152 0.19483,-0.153809 0.0889,-0.09229 0.14355,-0.215332 0.0547,-0.126465 0.0547,-0.280273 0,-0.328125 -0.23584,-0.543458 -0.23584,-0.21875 -0.5708,-0.21875 -0.32471,0 -0.55713,0.222168 -0.23242,0.222168 -0.23242,0.54004 0,0.20166 0.082,0.35205 0.0855,0.150391 0.2085,0.242676 0.12646,0.09229 0.28711,0.143555 0.16406,0.05127 0.21191,0.05127 z m 0,0.478516 q -0.93652,0.273437 -0.93652,1.028809 0,0.440917 0.28369,0.707519 0.28369,0.263184 0.6665,0.263184 0.39649,0 0.6665,-0.259766 0.27344,-0.263184 0.27344,-0.710937 0,-0.338379 -0.18799,-0.604981 -0.18798,-0.270019 -0.76562,-0.423828 z"
       id="text8"
       style="font-size:7px"
       aria-label="8" />
    <path
       d="m 276.91772,32.682617 q -0.41699,0.365723 -0.98095,0.365723 -0.61182,0 -1.02198,-0.389649 -0.40673,-0.393066 -0.40673,-1.011718 0,-0.663086 0.38965,-1.114258 0.39306,-0.45459 1.01171,-0.45459 0.75537,0 1.1792,0.69043 0.42383,0.690429 0.42383,1.753418 0,1.062988 -0.49902,1.814941 -0.49561,0.748535 -1.32959,0.748535 -0.56055,0 -0.97071,-0.170898 l 0.0889,-0.495606 q 0.47168,0.174317 0.86817,0.174317 0.56738,0 0.90576,-0.550293 0.34179,-0.550293 0.34179,-1.360352 z m -0.0137,-0.481933 q 0,-0.649414 -0.26318,-1.138184 -0.26318,-0.492188 -0.69043,-0.492188 -0.38623,0 -0.61865,0.28711 -0.22901,0.283691 -0.22901,0.741699 0,0.42041 0.23243,0.69043 0.23583,0.266601 0.61523,0.266601 0.52295,0 0.90918,-0.321289 z"
       id="text9"
       style="font-size:7px"
       aria-label="9" />
    <path
       d="m 307.27881,35 h -2.53613 v -0.48877 h 1.02197 v -3.746093 l -0.96387,0.481933 v -0.560547 l 1.04248,-0.536621 h 0.48194 v 4.361328 h 0.95361 z m 2.81299,-4.915039 q 0.76562,0 1.17578,0.659668 0.41357,0.65625 0.41357,1.845703 0,1.151855 -0.3999,1.828613 -0.3999,0.67334 -1.18945,0.67334 -0.76221,0 -1.17578,-0.65625 -0.41358,-0.65625 -0.41358,-1.845703 0,-1.155273 0.3999,-1.828613 0.40332,-0.676758 1.18946,-0.676758 z m 0,4.515137 q 0.50586,0 0.74853,-0.478516 0.2461,-0.481934 0.2461,-1.53125 0,-1.052734 -0.2461,-1.527832 -0.24267,-0.478516 -0.74853,-0.478516 -0.49903,0 -0.74512,0.48877 -0.24609,0.488769 -0.24609,1.517578 0,1.04248 0.24267,1.527832 0.2461,0.481934 0.74854,0.481934 z m -0.0137,-2.522461 q 0.21534,0 0.36231,0.15039 0.15039,0.146973 0.15039,0.362305 0,0.222168 -0.15039,0.382813 -0.15039,0.157226 -0.36231,0.157226 -0.20849,0 -0.35888,-0.157226 -0.14697,-0.160645 -0.14697,-0.382813 0,-0.21875 0.14355,-0.365723 0.14697,-0.146972 0.3623,-0.146972 z"
       id="text10"
       style="font-size:7px"
       aria-label="10" />
    <path
       d="m 339.27881,35 h -2.53613 v -0.48877 h 1.02197 v -3.746093 l -0.96387,0.481933 v -0.560547 l 1.04248,-0.536621 h 0.48194 v 4.361328 h 0.95361 z m 4.20068,0 h -2.53613 v -0.48877 h 1.02197 v -3.746093 l -0.96387,0.481933 v -0.560547 l 1.04249,-0.536621 h 0.48193 v 4.361328 h 0.95361 z"
       id="text11"
       style="font-size:7px"
       aria-label="11" />
    <path
       d="m 371.27881,35 h -2.53613 v -0.48877 h 1.02197 v -3.746093 l -0.96387,0.481933 v -0.560547 l 1.04248,-0.536621 h 0.48194 v 4.361328 h 0.95361 z m 4.07422,0 h -2.65235 v -0.406738 q 1.0083,-1.124512 1.30909,-1.507325 0.30078,-0.382812 0.48877,-0.803222 0.18798,-0.42041 0.18798,-0.837403 0,-0.40332 -0.24609,-0.635742 -0.24268,-0.232422 -0.68359,-0.232422 -0.33838,0 -0.90918,0.208497 l -0.0786,-0.481934 q 0.51612,-0.21875 1.08008,-0.21875 0.646,0 1.03906,0.365723 0.39649,0.362304 0.39649,0.970703 0,0.434082 -0.20508,0.861328 -0.20166,0.427246 -0.51953,0.820312 -0.31787,0.393067 -1.23731,1.408203 h 2.03028 z"
       id="text12"
       style="font-size:7px"
       aria-label="12" />
    <path
       d="m 403.27881,35 h -2.53613 v -0.48877 h 1.02197 v -3.746093 l -0.96387,0.481933 v -0.560547 l 1.04248,-0.536621 h 0.48194 v 4.361328 h 0.95361 z m 3.1206,-2.59082 q 0.44092,0.123047 0.70752,0.451172 0.26661,0.324707 0.26661,0.731445 0,0.635742 -0.49561,1.069824 -0.49561,0.430664 -1.16895,0.430664 -0.57421,0 -1.0288,-0.25293 l 0.10937,-0.461425 q 0.4751,0.222168 0.93994,0.222168 0.4375,0 0.74512,-0.27002 0.31103,-0.273437 0.31103,-0.700683 0,-0.420411 -0.33154,-0.683594 -0.33154,-0.263184 -0.87842,-0.263184 h -0.14697 v -0.461426 h 0.041 q 0.52636,0 0.86816,-0.246093 0.3418,-0.249512 0.3418,-0.669922 0,-0.341797 -0.2461,-0.533203 -0.24609,-0.194825 -0.67675,-0.194825 -0.37256,0 -0.83399,0.201661 l -0.0752,-0.481934 q 0.46484,-0.211914 0.93652,-0.211914 0.646,0 1.06299,0.341797 0.42041,0.338379 0.42041,0.871582 0,0.36914 -0.25635,0.69043 -0.25293,0.317871 -0.61182,0.399902 z"
       id="text13"
       style="font-size:7px"
       aria-label="13" />
    <path
       d="m 435.27881,35 h -2.53613 v -0.48877 h 1.02197 v -3.746093 l -0.96387,0.481933 v -0.560547 l 1.04248,-0.536621 h 0.48194 v 4.361328 h 0.95361 z m 4.38867,-1.114258 h -0.59473 V 35 h -0.56054 v -1.114258 h -2.09864 v -0.427246 l 1.90381,-3.28125 h 0.75537 v 3.219727 h 0.59473 z m -1.15527,-0.488769 v -2.666016 l -1.53125,2.666016 z"
       id="text14"
       style="font-size:7px"
       aria-label="14" />
    <path
       d="m 467.27881,35 h -2.53613 v -0.48877 h 1.02197 v -3.746093 l -0.96387,0.481933 v -0.560547 l 1.04248,-0.536621 h 0.48194 v 4.361328 h 0.95361 z m 2.20459,-2.87793 q 0.23242,-0.06152 0.45459,-0.06152 0.68359,0 1.08008,0.42041 0.39648,0.416992 0.39648,1.04248 0,0.65625 -0.46143,1.114258 -0.46142,0.45459 -1.12451,0.45459 -0.63232,0 -1.05957,-0.211914 l 0.1128,-0.475098 q 0.46484,0.194825 0.96045,0.194825 0.44091,0 0.71093,-0.283692 0.27344,-0.283691 0.27344,-0.792969 0,-0.481933 -0.25635,-0.741699 -0.25635,-0.259765 -0.65967,-0.259765 -0.29394,0 -0.58105,0.112793 l -0.33496,-0.153809 v -2.303711 h 2.20459 v 0.48877 h -1.71582 z"
       id="text15"
       style="font-size:7px"
       aria-label="15" />
    <path
       d="m 499.27881,35 h -2.53613 v -0.48877 h 1.02197 v -3.746093 l -0.96387,0.481933 v -0.560547 l 1.04248,-0.536621 h 0.48194 v 4.361328 h 0.95361 z m 1.95849,-2.512207 q 0.45118,-0.365723 0.98096,-0.365723 0.61182,0 1.01856,0.393067 0.41015,0.389648 0.41015,1.0083 0,0.680176 -0.3623,1.124512 -0.36231,0.444336 -0.96729,0.444336 -0.77246,0 -1.22363,-0.707519 -0.45117,-0.710938 -0.45117,-1.736329 0,-1.09375 0.46826,-1.828613 0.47168,-0.734863 1.28857,-0.734863 0.56397,0 0.97413,0.16748 l -0.0889,0.499024 q -0.4751,-0.174317 -0.86817,-0.174317 -0.55713,0 -0.86816,0.533204 -0.31104,0.533203 -0.31104,1.377441 z m 0.0171,0.481934 q 0,0.618652 0.29053,1.124511 0.29053,0.50586 0.73145,0.50586 0.37256,0 0.57422,-0.273438 0.20166,-0.273437 0.20166,-0.755371 0,-0.444336 -0.22217,-0.700684 -0.22217,-0.256347 -0.62549,-0.256347 -0.52295,0 -0.9502,0.355469 z"
       id="text16"
       style="font-size:7px"
       aria-label="16" />
    <!-- Editor knobs row 1 -->
    <path
       d="m 77.615234,119.48828 h 1.085938 q 1.082031,0 1.734375,0.73828 0.652344,0.73438 0.652344,2.01953 0,1.3125 -0.664063,2.03516 Q 79.763672,125 78.728516,125 h -1.113282 z m 0.640625,4.95313 h 0.453125 q 0.785157,0 1.242188,-0.58203 0.457031,-0.58204 0.457031,-1.61329 0,-1.02343 -0.460937,-1.60937 -0.457032,-0.58984 -1.238282,-0.58984 h -0.453125 z m 6.007813,-5.05078 q 0.171875,0 0.292969,0.125 0.121093,0.12109 0.121093,0.29296 0,0.17969 -0.121093,0.30079 -0.117188,0.12109 -0.292969,0.12109 -0.160156,0 -0.285156,-0.125 -0.121094,-0.12891 -0.121094,-0.29688 0,-0.16796 0.121094,-0.29296 0.125,-0.125 0.285156,-0.125 z M 84.560547,125 h -0.609375 v -3.54297 h -1.199219 v -0.52734 h 1.808594 z m 6,-4.07031 L 89.017578,125 h -0.554687 l -1.535157,-4.07031 h 0.664063 l 1.152344,3.23828 1.152343,-3.23828 z"
       id="text17"
       style="font-size:8px"
       aria-label="Div" />
    <path
       d="m 134.99805,119.48828 h 1.39843 q 0.79297,0 1.26954,0.39844 0.47656,0.39844 0.47656,1.09766 0,0.70312 -0.47656,1.125 -0.47266,0.41796 -1.24219,0.41796 h -0.78516 V 125 h -0.64062 z m 0.64062,2.48047 h 0.69531 q 1.12891,0 1.12891,-0.94531 0,-0.4375 -0.30859,-0.70703 -0.30469,-0.26953 -0.78907,-0.26953 h -0.72656 z m 5.82422,-2.57812 q 0.17188,0 0.29297,0.125 0.12109,0.12109 0.12109,0.29296 0,0.17969 -0.12109,0.30079 -0.11719,0.12109 -0.29297,0.12109 -0.16016,0 -0.28516,-0.125 -0.12109,-0.12891 -0.12109,-0.29688 0,-0.16796 0.12109,-0.29296 0.125,-0.125 0.28516,-0.125 z M 141.75977,125 h -0.60938 v -3.54297 h -1.19922 v -0.52734 h 1.8086 z m 5.85546,-0.18359 q -0.61328,0.28125 -1.20703,0.28125 -1.08984,0 -1.08984,-1.15235 v -2.48828 h -0.78125 v -0.52734 h 0.78125 v -1.11328 h 0.59375 v 1.11328 h 1.38281 v 0.52734 h -1.38281 v 2.32813 q 0,0.37109 0.16406,0.57812 0.16406,0.20313 0.44531,0.20313 0.5,0 0.98829,-0.22266 z m 4.7461,0.0469 q -0.53125,0.24219 -1.16797,0.24219 -0.96094,0 -1.53516,-0.58203 -0.57031,-0.58594 -0.57031,-1.55469 0,-0.96875 0.57422,-1.55078 0.57812,-0.58594 1.51562,-0.58594 0.61329,0 1.16797,0.21485 l -0.16015,0.5039 q -0.55469,-0.1914 -1,-0.1914 -0.67188,0 -1.06641,0.43359 -0.39062,0.43359 -0.39062,1.17578 0,0.67969 0.40625,1.14453 0.40625,0.46094 1.05859,0.46094 0.51562,0 1.0625,-0.19922 z M 157.17773,125 h -0.60937 v -2.60937 q 0,-0.54297 -0.17578,-0.78516 -0.17188,-0.24609 -0.54297,-0.24609 -0.55859,0 -1.19922,0.69531 V 125 h -0.60937 v -5.51172 h 0.60937 v 2.03906 q 0.65625,-0.69531 1.38281,-0.69531 1.14453,0 1.14453,1.38281 z"
       id="text18"
       style="font-size:8px"
       aria-label="Pitch" />
    <path
       d="m 197.51953,120.04688 h -2.28125 v 1.80078 h 2.07813 v 0.55859 h -2.07813 V 125 h -0.64062 v -5.51172 h 2.92187 z M 202.57422,125 h -0.61719 v -4.72656 l -0.83203,2.26172 h -0.60547 l -0.83203,-2.26172 V 125 h -0.61719 v -5.51172 h 0.83203 l 0.92188,2.51172 0.91797,-2.51172 h 0.83203 z m 9.05078,0 h -2.50391 v -0.55859 h 0.94922 v -4.39453 h -0.94922 v -0.5586 h 2.50391 v 0.5586 h -0.91406 v 4.39453 h 0.91406 z m 5.13672,0 h -0.60938 v -0.58594 q -0.1875,0.30078 -0.53906,0.4961 -0.34766,0.19531 -0.73437,0.19531 -0.69922,0 -1.10547,-0.62109 -0.40625,-0.625 -0.40625,-1.58204 0,-0.89453 0.42187,-1.48046 0.42578,-0.58985 1.125,-0.58985 0.76953,0 1.23828,0.625 v -1.96875 h 0.60938 z m -0.60938,-1.24609 v -1.69141 q -0.4375,-0.70312 -1.05468,-0.70312 -0.50391,0 -0.79688,0.44921 -0.29297,0.44532 -0.29297,1.12891 0,0.70313 0.27344,1.16406 0.27734,0.45703 0.75781,0.45703 0.23047,0 0.46485,-0.125 0.23437,-0.125 0.4414,-0.375 0.20703,-0.25 0.20703,-0.30468 z M 221.72266,125 h -0.6875 l -1.08985,-1.59375 -1.1289,1.59375 h -0.64844 l 1.44922,-2.03906 -1.44922,-2.03125 h 0.69922 l 1.09375,1.58203 1.11328,-1.58203 h 0.64844 l -1.44141,2.00781 z"
       id="text19"
       style="font-size:8px"
       aria-label="FM Idx" />
    <path
       d="m 261.99805,125 h -3 v -5.51172 h 0.64062 v 4.95313 h 2.35938 z m 4.89843,-2.01562 h -2.79296 q 0,0.6914 0.39843,1.14062 0.40235,0.44922 0.98438,0.44922 0.55469,0 1.14453,-0.19922 l 0.10547,0.48828 q -0.53906,0.24219 -1.25781,0.24219 -0.90625,0 -1.46094,-0.58203 -0.55469,-0.58203 -0.55469,-1.57031 0,-0.96875 0.49609,-1.54297 0.5,-0.57813 1.28907,-0.57813 0.70312,0 1.17578,0.53516 0.47265,0.53515 0.47265,1.42578 z m -0.66406,-0.4961 q 0,-0.47656 -0.29687,-0.80078 -0.29688,-0.32812 -0.66407,-0.32812 -0.47265,0 -0.78515,0.3125 -0.3086,0.3125 -0.34375,0.8164 z m 5.52735,-1.55859 L 270.2168,125 h -0.55469 l -1.53516,-4.07031 h 0.66407 l 1.15234,3.23828 1.15234,-3.23828 z m 4.73828,2.05469 h -2.79297 q 0,0.6914 0.39844,1.14062 0.40234,0.44922 0.98437,0.44922 0.55469,0 1.14453,-0.19922 l 0.10547,0.48828 q -0.53906,0.24219 -1.25781,0.24219 -0.90625,0 -1.46094,-0.58203 -0.55469,-0.58203 -0.55469,-1.57031 0,-0.96875 0.4961,-1.54297 0.5,-0.57813 1.28906,-0.57813 0.70312,0 1.17578,0.53516 0.47266,0.53515 0.47266,1.42578 z m -0.66407,-0.4961 q 0,-0.47656 -0.29687,-0.80078 -0.29688,-0.32812 -0.66406,-0.32812 -0.47266,0 -0.78516,0.3125 -0.30859,0.3125 -0.34375,0.8164 z M 280.88086,125 h -1.66406 v -4.98437 h -1.0625 v -0.52735 h 1.67187 v 4.98438 h 1.05469 z"
       id="text20"
       style="font-size:8px"
       aria-label="Level" />
    <!-- Editor knobs row 2 -->
    <path
       d="m 108.98242,178.65625 q -0.64844,0.44922 -1.5039,0.44922 -1.07032,0 -1.62891,-0.73438 -0.55469,-0.73437 -0.55469,-2.125 0,-1.34375 0.53906,-2.10156 0.53907,-0.76172 1.64454,-0.76172 0.39843,0 0.78906,0.10156 0.39062,0.10157 0.6289,0.26954 l -0.21093,0.5039 q -0.55078,-0.3125 -1.20703,-0.3125 -0.76172,0 -1.13282,0.55469 -0.37109,0.55078 -0.37109,1.74609 0,2.29688 1.50391,2.29688 0.63671,0 1.30468,-0.39063 z M 113.67773,179 h -0.60546 q -0.0742,-0.24609 -0.0742,-0.65625 -0.51953,0.76172 -1.41407,0.76172 -0.45312,0 -0.80078,-0.32031 -0.34375,-0.32422 -0.34375,-0.83204 0,-0.30078 0.1211,-0.53125 0.12109,-0.23046 0.35547,-0.38671 0.23437,-0.16016 0.57031,-0.25 0.33594,-0.0937 0.79687,-0.12891 l 0.6836,-0.0547 v -0.19531 q 0,-1.04688 -0.97657,-1.04688 -0.23046,0 -0.58593,0.10157 -0.35157,0.0977 -0.60547,0.23437 l -0.16016,-0.4375 q 0.83203,-0.42578 1.54688,-0.42578 1.39062,0 1.39062,1.47266 v 1.75 q 0,0.53125 0.10156,0.94531 z m -0.71093,-1.20703 v -0.73828 q -0.82422,0.0742 -1.13282,0.14062 -0.30468,0.0625 -0.53125,0.23828 -0.22265,0.17578 -0.22265,0.47657 0,0.27343 0.1914,0.4414 0.19141,0.16797 0.48829,0.16797 0.32421,0 0.64453,-0.19141 0.32031,-0.19531 0.5625,-0.53515 z m 5.47265,-2.75391 -0.24609,0.58594 q -0.40234,-0.17578 -0.69531,-0.17578 -0.26953,0 -0.52735,0.15625 -0.25781,0.15234 -0.47656,0.4414 -0.21484,0.28516 -0.21484,0.32032 V 179 h -0.60547 v -4.07031 h 0.60547 v 0.82422 q 0.48828,-0.92188 1.26562,-0.92188 0.46094,0 0.89453,0.20703 z"
       id="text21"
       style="font-size:8px"
       aria-label="Car" />
    <path
       d="m 170.97461,179 h -0.61719 v -4.72656 l -0.83203,2.26172 h -0.60547 l -0.83203,-2.26172 V 179 h -0.61719 v -5.51172 h 0.83203 l 0.92188,2.51172 0.91797,-2.51172 h 0.83203 z m 3.02344,-4.16797 q 0.83984,0 1.33593,0.58594 0.4961,0.58594 0.4961,1.54297 0,0.96484 -0.4961,1.55468 -0.49609,0.58985 -1.33593,0.58985 -0.84375,0 -1.33985,-0.58594 -0.49218,-0.58984 -0.49218,-1.55859 0,-0.96094 0.49609,-1.54297 0.49609,-0.58594 1.33594,-0.58594 z m 0,3.74219 q 0.55468,0 0.875,-0.46875 0.32031,-0.46875 0.32031,-1.13672 0,-0.70313 -0.31641,-1.15625 -0.3164,-0.45313 -0.8789,-0.45313 -0.56641,0 -0.87891,0.44922 -0.3125,0.44532 -0.3125,1.16016 0,0.67969 0.31641,1.14453 0.3164,0.46094 0.875,0.46094 z M 180.36133,179 h -0.60938 v -0.58594 q -0.1875,0.30078 -0.53906,0.4961 -0.34766,0.19531 -0.73437,0.19531 -0.69922,0 -1.10547,-0.6211 -0.40625,-0.625 -0.40625,-1.58203 0,-0.89453 0.42187,-1.48047 0.42578,-0.58984 1.125,-0.58984 0.76953,0 1.23828,0.625 v -1.96875 h 0.60938 z m -0.60938,-1.24609 v -1.69141 q -0.4375,-0.70313 -1.05468,-0.70313 -0.50391,0 -0.79688,0.44922 -0.29297,0.44532 -0.29297,1.12891 0,0.70312 0.27344,1.16406 0.27734,0.45703 0.75781,0.45703 0.23047,0 0.46485,-0.125 0.23437,-0.125 0.4414,-0.375 0.20703,-0.25 0.20703,-0.30468 z"
       id="text22"
       style="font-size:8px"
       aria-label="Mod" />
    <path
       d="m 230.32031,174.04687 h -2.28125 v 1.80079 h 2.07813 v 0.55859 h -2.07813 V 179 h -0.64062 v -5.51172 h 2.92187 z M 235.16016,179 h -0.60938 v -0.58594 q -0.1875,0.30078 -0.53906,0.4961 -0.34766,0.19531 -0.73438,0.19531 -0.69922,0 -1.10547,-0.6211 -0.40625,-0.625 -0.40625,-1.58203 0,-0.89453 0.42188,-1.48047 0.42578,-0.58984 1.125,-0.58984 0.76953,0 1.23828,0.625 v -1.96875 h 0.60938 z m -0.60938,-1.24609 v -1.69141 q -0.4375,-0.70313 -1.05469,-0.70313 -0.5039,0 -0.79687,0.44922 -0.29297,0.44532 -0.29297,1.12891 0,0.70312 0.27344,1.16406 0.27734,0.45703 0.75781,0.45703 0.23047,0 0.46484,-0.125 0.23438,-0.125 0.44141,-0.375 0.20703,-0.25 0.20703,-0.30468 z m 2.89844,-2.29688 q 0.20312,-0.28125 0.54687,-0.45312 0.34766,-0.17188 0.73047,-0.17188 0.71094,0 1.10547,0.57031 0.39844,0.57032 0.39844,1.5 0,0.94141 -0.42188,1.57422 -0.42187,0.62891 -1.1289,0.62891 -0.37891,0 -0.71094,-0.1875 -0.32813,-0.19141 -0.51953,-0.50391 V 179 h -0.60938 v -5.51172 h 0.60938 z m 0,0.60547 v 1.69141 q 0.17187,0.34375 0.46484,0.57421 0.29297,0.23047 0.60547,0.23047 0.49219,0 0.78125,-0.46875 0.29297,-0.46875 0.29297,-1.15234 0,-0.70313 -0.27734,-1.14063 -0.27735,-0.4375 -0.77344,-0.4375 -0.64453,0 -1.09375,0.70313 z M 245.17578,179 H 244.375 l -1.72656,-2.02344 -0.39844,0.34375 V 179 h -0.60938 v -5.51172 H 242.25 v 3.16016 l 1.91016,-1.71875 h 0.77734 l -1.85547,1.66406 z"
       id="text23"
       style="font-size:8px"
       aria-label="Fdbk" />
    <!-- Carrier envelope -->
    <path
       d="m 83.459961,232.69922 q -0.567383,0.39307 -1.315918,0.39307 -0.936523,0 -1.425293,-0.64258 -0.485352,-0.64258 -0.485352,-1.85938 0,-1.17578 0.47168,-1.83887 0.47168,-0.6665 1.438965,-0.6665 0.348633,0 0.69043,0.0889 0.341797,0.0889 0.550293,0.23584 l -0.184571,0.44092 q -0.481933,-0.27344 -1.056152,-0.27344 -0.666504,0 -0.991211,0.48535 -0.324707,0.48193 -0.324707,1.52783 0,2.00977 1.315918,2.00977 0.557129,0 1.141602,-0.3418 z M 88.019531,233 h -0.58789 l -0.533204,-1.68848 H 85.315918 L 84.775879,233 h -0.581055 l 1.575684,-4.82275 h 0.67334 z m -1.281738,-2.17725 -0.632324,-1.99609 -0.628907,1.99609 z"
       id="text24"
       style="font-size:7px"
       aria-label="CA" />
    <path
       d="m 123.45996,232.69922 q -0.56738,0.39307 -1.31592,0.39307 -0.93652,0 -1.42529,-0.64258 -0.48535,-0.64258 -0.48535,-1.85938 0,-1.17578 0.47168,-1.83887 0.47168,-0.6665 1.43896,-0.6665 0.34864,0 0.69043,0.0889 0.3418,0.0889 0.5503,0.23584 l -0.18457,0.44092 q -0.48194,-0.27344 -1.05616,-0.27344 -0.6665,0 -0.99121,0.48535 -0.3247,0.48193 -0.3247,1.52783 0,2.00977 1.31591,2.00977 0.55713,0 1.1416,-0.3418 z m 1.2544,-4.52197 h 0.95019 q 0.94678,0 1.51758,0.64599 0.5708,0.64258 0.5708,1.76709 0,1.14844 -0.58105,1.78076 Q 126.59424,233 125.68848,233 h -0.97412 z m 0.56054,4.33398 h 0.39649 q 0.68701,0 1.08691,-0.50928 0.3999,-0.50927 0.3999,-1.41162 0,-0.89551 -0.40332,-1.4082 -0.3999,-0.51611 -1.08349,-0.51611 h -0.39649 z"
       id="text25"
       style="font-size:7px"
       aria-label="CD" />
    <path
       d="m 163.45996,232.69922 q -0.56738,0.39307 -1.31592,0.39307 -0.93652,0 -1.42529,-0.64258 -0.48535,-0.64258 -0.48535,-1.85938 0,-1.17578 0.47168,-1.83887 0.47168,-0.6665 1.43896,-0.6665 0.34864,0 0.69043,0.0889 0.3418,0.0889 0.5503,0.23584 l -0.18457,0.44092 q -0.48194,-0.27344 -1.05616,-0.27344 -0.6665,0 -0.99121,0.48535 -0.32471,0.48193 -0.32471,1.52783 0,2.00977 1.31592,2.00977 0.55713,0 1.1416,-0.3418 z m 3.66748,-3.98877 q -0.43066,-0.14697 -0.81689,-0.14697 -0.4375,0 -0.71436,0.20166 -0.27344,0.19824 -0.27344,0.56738 0,0.4375 0.7212,0.76904 0.5332,0.2461 0.7041,0.3418 0.17431,0.0957 0.35205,0.26318 0.17773,0.16748 0.28369,0.39649 0.10937,0.22558 0.10937,0.50927 0,0.70411 -0.47509,1.09375 -0.47168,0.38624 -1.11426,0.38624 -0.62207,0 -1.09033,-0.2461 l 0.11621,-0.48193 q 0.55029,0.24951 0.96045,0.24951 0.47851,0 0.76562,-0.24609 0.29053,-0.24952 0.29053,-0.6836 0,-0.32129 -0.18799,-0.54346 -0.18799,-0.22558 -0.69385,-0.458 -0.51953,-0.23926 -0.67334,-0.32471 -0.15039,-0.0889 -0.30078,-0.24268 -0.15039,-0.1538 -0.23242,-0.34521 -0.082,-0.19141 -0.082,-0.41699 0,-0.59815 0.43066,-0.93311 0.43067,-0.33496 1.09033,-0.33496 0.48194,0 0.95704,0.14697 z"
       id="text26"
       style="font-size:7px"
       aria-label="CS" />
    <path
       d="m 203.45996,232.69922 q -0.56738,0.39307 -1.31592,0.39307 -0.93652,0 -1.42529,-0.64258 -0.48535,-0.64258 -0.48535,-1.85938 0,-1.17578 0.47168,-1.83887 0.47168,-0.6665 1.43896,-0.6665 0.34864,0 0.69043,0.0889 0.3418,0.0889 0.5503,0.23584 l -0.18457,0.44092 q -0.48194,-0.27344 -1.05616,-0.27344 -0.6665,0 -0.99121,0.48535 -0.32471,0.48193 -0.32471,1.52783 0,2.00977 1.31592,2.00977 0.55713,0 1.1416,-0.3418 z M 208.0127,233 h -0.70069 l -1.41504,-2.19092 H 205.2749 V 233 h -0.56054 v -4.82275 h 1.36376 q 0.68702,0 1.0835,0.33496 0.3999,0.33154 0.3999,0.92627 0,0.44091 -0.29052,0.78613 -0.29053,0.3418 -0.79981,0.46484 z m -2.7378,-2.67969 h 0.70752 q 0.44434,0 0.72119,-0.23926 0.27686,-0.24267 0.27686,-0.60839 0,-0.80664 -0.98438,-0.80664 h -0.72119 z"
       id="text27"
       style="font-size:7px"
       aria-label="CR" />
    <!-- Modulator envelope -->
    <path
       d="m 83.453125,273 h -0.540039 v -4.13574 l -0.728027,1.979 h -0.529786 l -0.728027,-1.979 V 273 h -0.540039 v -4.82275 h 0.728027 l 0.806641,2.19775 0.803223,-2.19775 h 0.728027 z m 4.566406,0 h -0.58789 l -0.533204,-1.68848 H 85.315918 L 84.775879,273 h -0.581055 l 1.575684,-4.82275 h 0.67334 z m -1.281738,-2.17725 -0.632324,-1.99609 -0.628907,1.99609 z"
       id="text28"
       style="font-size:7px"
       aria-label="MA" />
    <path
       d="m 123.45313,273 h -0.54004 v -4.13574 l -0.72803,1.979 h -0.52979 l -0.72802,-1.979 V 273 h -0.54004 v -4.82275 h 0.72802 l 0.80665,2.19775 0.80322,-2.19775 h 0.72803 z m 1.26123,-4.82275 h 0.95019 q 0.94678,0 1.51758,0.64599 0.5708,0.64258 0.5708,1.76709 0,1.14844 -0.58105,1.78076 Q 126.59424,273 125.68848,273 h -0.97412 z m 0.56054,4.33398 h 0.39649 q 0.68701,0 1.08691,-0.50928 0.3999,-0.50927 0.3999,-1.41162 0,-0.89551 -0.40332,-1.4082 -0.3999,-0.51611 -1.08349,-0.51611 h -0.39649 z"
       id="text29"
       style="font-size:7px"
       aria-label="MD" />
    <path
       d="m 163.45312,273 h -0.54003 v -4.13574 l -0.72803,1.979 h -0.52979 l -0.72802,-1.979 V 273 h -0.54004 v -4.82275 h 0.72802 l 0.80664,2.19775 0.80323,-2.19775 h 0.72802 z m 3.67432,-4.28955 q -0.43066,-0.14697 -0.81689,-0.14697 -0.4375,0 -0.71436,0.20166 -0.27344,0.19824 -0.27344,0.56738 0,0.4375 0.7212,0.76904 0.5332,0.2461 0.7041,0.3418 0.17431,0.0957 0.35205,0.26318 0.17773,0.16748 0.28369,0.39649 0.10937,0.22558 0.10937,0.50927 0,0.70411 -0.47509,1.09375 -0.47168,0.38624 -1.11426,0.38624 -0.62207,0 -1.09033,-0.2461 l 0.11621,-0.48193 q 0.55029,0.24951 0.96045,0.24951 0.47851,0 0.76562,-0.24609 0.29053,-0.24952 0.29053,-0.6836 0,-0.32129 -0.18799,-0.54346 -0.18799,-0.22558 -0.69385,-0.458 -0.51953,-0.23926 -0.67334,-0.32471 -0.15039,-0.0889 -0.30078,-0.24268 -0.15039,-0.1538 -0.23242,-0.34521 -0.082,-0.19141 -0.082,-0.41699 0,-0.59815 0.43066,-0.93311 0.43067,-0.33496 1.09033,-0.33496 0.48194,0 0.95704,0.14697 z"
       id="text30"
       style="font-size:7px"
       aria-label="MS" />
    <path
       d="m 203.45312,273 h -0.54003 v -4.13574 l -0.72803,1.979 h -0.52979 l -0.72802,-1.979 V 273 h -0.54004 v -4.82275 h 0.72802 l 0.80664,2.19775 0.80323,-2.19775 h 0.72802 z m 4.55958,0 h -0.70069 l -1.41504,-2.19092 H 205.2749 V 273 h -0.56054 v -4.82275 h 1.36376 q 0.68702,0 1.0835,0.33496 0.3999,0.33154 0.3999,0.92627 0,0.44091 -0.29052,0.78613 -0.29053,0.3418 -0.79981,0.46484 z m -2.7378,-2.67969 h 0.70752 q 0.44434,0 0.72119,-0.23926 0.27686,-0.24267 0.27686,-0.60839 0,-0.80664 -0.98438,-0.80664 h -0.72119 z"
       id="text31"
       style="font-size:7px"
       aria-label="MR" />
    <!-- Bottom inputs/outputs -->
    <path
       d="m 38.982422,328.65625 q -0.648438,0.44922 -1.503906,0.44922 -1.070313,0 -1.628907,-0.73438 -0.554687,-0.73437 -0.554687,-2.125 0,-1.34375 0.539062,-2.10156 0.539063,-0.76172 1.644532,-0.76172 0.398437,0 0.789062,0.10156 0.390625,0.10157 0.628906,0.26954 l -0.210937,0.5039 q -0.550781,-0.3125 -1.207031,-0.3125 -0.761719,0 -1.132813,0.55469 -0.371094,0.55078 -0.371094,1.74609 0,2.29688 1.503907,2.29688 0.636718,0 1.304687,-0.39063 z M 43.279297,329 h -1.664063 v -4.98438 h -1.0625 v -0.52734 h 1.671875 v 4.98438 h 1.054688 z m 5.496094,0 h -0.800782 l -1.726562,-2.02344 -0.398438,0.34375 V 329 h -0.609375 v -5.51172 h 0.609375 v 3.16016 l 1.910157,-1.71875 h 0.777343 l -1.855468,1.66406 z"
       id="text32"
       style="font-size:8px"
       aria-label="Clk" />
    <path
       d="m 89.384766,329 h -0.800782 l -1.617187,-2.50391 H 86.255859 V 329 h -0.640625 v -5.51172 h 1.558594 q 0.785156,0 1.238281,0.38281 0.457032,0.37891 0.457032,1.0586 0,0.5039 -0.332032,0.89843 -0.332031,0.39063 -0.914062,0.53125 z m -3.128907,-3.0625 h 0.808594 q 0.507813,0 0.824219,-0.27344 0.316406,-0.27734 0.316406,-0.69531 0,-0.92188 -1.125,-0.92188 h -0.824219 z m 6.894532,-0.42578 q -0.511719,-0.16797 -0.964844,-0.16797 -0.496094,0 -0.785156,0.16797 -0.289063,0.16406 -0.289063,0.4414 0,0.17579 0.132813,0.3086 0.132812,0.1289 0.53125,0.24219 l 0.582031,0.16796 q 0.402344,0.11329 0.65625,0.27344 0.253906,0.15625 0.378906,0.38281 0.128906,0.22266 0.128906,0.51954 0,0.58203 -0.488281,0.92187 -0.488281,0.33594 -1.242187,0.33594 -0.75,0 -1.238282,-0.22656 l 0.117188,-0.52735 q 0.511719,0.24219 1.097656,0.24219 0.507813,0 0.824219,-0.1875 0.320312,-0.19141 0.320312,-0.50391 0,-0.21093 -0.160156,-0.375 -0.15625,-0.16797 -0.742187,-0.34765 -0.472657,-0.14453 -0.695313,-0.21485 -0.222656,-0.0742 -0.414062,-0.21484 -0.191407,-0.14063 -0.292969,-0.33594 -0.09766,-0.19531 -0.09766,-0.4375 0,-0.52734 0.460937,-0.83594 0.460938,-0.30859 1.222656,-0.30859 0.492188,0 1.09375,0.16797 z m 5.265625,3.30469 q -0.613282,0.28125 -1.207032,0.28125 -1.089843,0 -1.089843,-1.15235 v -2.48828 h -0.78125 v -0.52734 h 0.78125 v -1.11328 h 0.59375 v 1.11328 h 1.382812 v 0.52734 h -1.382812 v 2.32813 q 0,0.37109 0.164062,0.57812 0.164063,0.20313 0.445313,0.20313 0.5,0 0.988281,-0.22266 z"
       id="text33"
       style="font-size:8px"
       aria-label="Rst" />
    <path
       d="m 130.99805,323.48828 h 1.39843 q 0.79297,0 1.26954,0.39844 0.47656,0.39844 0.47656,1.09765 0,0.70313 -0.47656,1.125 -0.47266,0.41797 -1.24219,0.41797 h -0.78516 V 329 h -0.64062 z m 0.64062,2.48047 h 0.69531 q 1.12891,0 1.12891,-0.94531 0,-0.4375 -0.30859,-0.70703 -0.30469,-0.26954 -0.78907,-0.26954 h -0.72656 z m 5.82422,-2.57813 q 0.17188,0 0.29297,0.125 0.12109,0.1211 0.12109,0.29297 0,0.17969 -0.12109,0.30078 -0.11719,0.1211 -0.29297,0.1211 -0.16016,0 -0.28516,-0.125 -0.12109,-0.12891 -0.12109,-0.29688 0,-0.16797 0.12109,-0.29297 0.125,-0.125 0.28516,-0.125 z M 137.75977,329 h -0.60938 v -3.54297 h -1.19922 v -0.52734 h 1.8086 z m 5.85546,-0.18359 q -0.61328,0.28125 -1.20703,0.28125 -1.08984,0 -1.08984,-1.15235 v -2.48828 h -0.78125 v -0.52734 h 0.78125 v -1.11328 h 0.59375 v 1.11328 h 1.38281 v 0.52734 h -1.38281 v 2.32813 q 0,0.37109 0.16406,0.57812 0.16406,0.20313 0.44531,0.20313 0.5,0 0.98829,-0.22266 z m 4.7461,0.0469 q -0.53125,0.24219 -1.16797,0.24219 -0.96094,0 -1.53516,-0.58203 -0.57031,-0.58594 -0.57031,-1.55469 0,-0.96875 0.57422,-1.55078 0.57812,-0.58594 1.51562,-0.58594 0.61329,0 1.16797,0.21484 l -0.16015,0.50391 q -0.55469,-0.19141 -1,-0.19141 -0.67188,0 -1.06641,0.4336 -0.39062,0.43359 -0.39062,1.17578 0,0.67969 0.40625,1.14453 0.40625,0.46094 1.05859,0.46094 0.51562,0 1.0625,-0.19922 z M 153.17773,329 h -0.60937 v -2.60938 q 0,-0.54296 -0.17578,-0.78515 -0.17188,-0.2461 -0.54297,-0.2461 -0.55859,0 -1.19922,0.69532 V 329 h -0.60937 v -5.51172 h 0.60937 v 2.03906 q 0.65625,-0.69531 1.38281,-0.69531 1.14453,0 1.14453,1.38281 z"
       id="text34"
       style="font-size:8px"
       aria-label="Pitch" />
    <path
       d="m 188.42383,329 h -2.50391 v -0.55859 h 0.94922 v -4.39454 h -0.94922 v -0.55859 h 2.50391 v 0.55859 h -0.91406 v 4.39454 h 0.91406 z m 5.13672,0 h -0.60938 v -0.58594 q -0.1875,0.30078 -0.53906,0.4961 -0.34766,0.19531 -0.73438,0.19531 -0.69921,0 -1.10546,-0.6211 -0.40625,-0.625 -0.40625,-1.58203 0,-0.89453 0.42187,-1.48047 0.42578,-0.58984 1.125,-0.58984 0.76953,0 1.23828,0.625 v -1.96875 h 0.60938 z m -0.60938,-1.24609 v -1.69141 q -0.4375,-0.70313 -1.05469,-0.70313 -0.5039,0 -0.79687,0.44922 -0.29297,0.44532 -0.29297,1.12891 0,0.70312 0.27344,1.16406 0.27734,0.45703 0.75781,0.45703 0.23047,0 0.46484,-0.125 0.23438,-0.125 0.44141,-0.375 0.20703,-0.25 0.20703,-0.30468 z M 198.52148,329 h -0.6875 L 196.74414,327.40625 195.61523,329 h -0.64843 l 1.44922,-2.03906 -1.44922,-2.03125 h 0.69922 l 1.09375,1.58203 1.11328,-1.58203 h 0.64843 l -1.4414,2.00781 z"
       id="text35"
       style="font-size:8px"
       aria-label="Idx" />
    <path
       d="m 236.57422,329 h -0.61719 v -4.72656 l -0.83203,2.26172 h -0.60547 l -0.83203,-2.26172 V 329 h -0.61719 v -5.51172 h 0.83203 l 0.92188,2.51172 0.91797,-2.51172 h 0.83203 z m 3.02344,-4.16797 q 0.83984,0 1.33593,0.58594 0.4961,0.58594 0.4961,1.54297 0,0.96484 -0.4961,1.55468 -0.49609,0.58985 -1.33593,0.58985 -0.84375,0 -1.33985,-0.58594 -0.49219,-0.58984 -0.49219,-1.55859 0,-0.96094 0.4961,-1.54297 0.49609,-0.58594 1.33594,-0.58594 z m 0,3.74219 q 0.55468,0 0.875,-0.46875 0.32031,-0.46875 0.32031,-1.13672 0,-0.70313 -0.31641,-1.15625 -0.3164,-0.45313 -0.8789,-0.45313 -0.56641,0 -0.87891,0.44922 -0.3125,0.44532 -0.3125,1.16016 0,0.67969 0.31641,1.14453 0.3164,0.46094 0.875,0.46094 z M 245.96094,329 h -0.60938 v -0.58594 q -0.1875,0.30078 -0.53906,0.4961 -0.34766,0.19531 -0.73438,0.19531 -0.69921,0 -1.10546,-0.6211 -0.40625,-0.625 -0.40625,-1.58203 0,-0.89453 0.42187,-1.48047 0.42578,-0.58984 1.125,-0.58984 0.76953,0 1.23828,0.625 v -1.96875 h 0.60938 z m -0.60938,-1.24609 v -1.69141 q -0.4375,-0.70313 -1.05469,-0.70313 -0.5039,0 -0.79687,0.44922 -0.29297,0.44532 -0.29297,1.12891 0,0.70312 0.27344,1.16406 0.27734,0.45703 0.75781,0.45703 0.23047,0 0.46484,-0.125 0.23438,-0.125 0.44141,-0.375 0.20703,-0.25 0.20703,-0.30468 z M 251.38672,329 h -0.80078 l -1.61719,-2.50391 h -0.71094 V 329 h -0.64062 v -5.51172 h 1.55859 q 0.78516,0 1.23828,0.38281 0.45703,0.37891 0.45703,1.0586 0,0.5039 -0.33203,0.89843 -0.33203,0.39063 -0.91406,0.53125 z m -3.12891,-3.0625 h 0.8086 q 0.50781,0 0.82421,-0.27344 0.31641,-0.27734 0.31641,-0.69531 0,-0.92188 -1.125,-0.92188 h -0.82422 z"
       id="text36"
       style="font-size:8px"
       aria-label="ModR" />
    <path
       d="m 286.58203,328.65625 q -0.64844,0.44922 -1.50391,0.44922 -1.07031,0 -1.6289,-0.73438 -0.55469,-0.73437 -0.55469,-2.125 0,-1.34375 0.53906,-2.10156 0.53907,-0.76172 1.64453,-0.76172 0.39844,0 0.78907,0.10156 0.39062,0.10157 0.6289,0.26954 l -0.21093,0.5039 q -0.55079,-0.3125 -1.20704,-0.3125 -0.76171,0 -1.13281,0.55469 -0.37109,0.55078 -0.37109,1.74609 0,2.29688 1.5039,2.29688 0.63672,0 1.30469,-0.39063 z M 291.27734,329 h -0.60547 q -0.0742,-0.24609 -0.0742,-0.65625 -0.51954,0.76172 -1.41407,0.76172 -0.45312,0 -0.80078,-0.32031 -0.34375,-0.32422 -0.34375,-0.83204 0,-0.30078 0.1211,-0.53125 0.12109,-0.23046 0.35546,-0.38671 0.23438,-0.16016 0.57032,-0.25 0.33593,-0.0937 0.79687,-0.12891 l 0.6836,-0.0547 v -0.19531 q 0,-1.04688 -0.97657,-1.04688 -0.23047,0 -0.58593,0.10157 -0.35157,0.0976 -0.60547,0.23437 l -0.16016,-0.4375 q 0.83203,-0.42578 1.54688,-0.42578 1.39062,0 1.39062,1.47266 v 1.75 q 0,0.53125 0.10156,0.94531 z m -0.71093,-1.20703 v -0.73828 q -0.82422,0.0742 -1.13282,0.14062 -0.30468,0.0625 -0.53125,0.23828 -0.22265,0.17578 -0.22265,0.47657 0,0.27343 0.1914,0.4414 0.19141,0.16797 0.48828,0.16797 0.32422,0 0.64454,-0.19141 0.32031,-0.19531 0.5625,-0.53515 z m 5.47265,-2.75391 -0.24609,0.58594 q -0.40235,-0.17578 -0.69531,-0.17578 -0.26954,0 -0.52735,0.15625 -0.25781,0.15234 -0.47656,0.4414 -0.21484,0.28516 -0.21484,0.32032 V 329 h -0.60547 v -4.07031 h 0.60547 v 0.82422 q 0.48828,-0.92188 1.26562,-0.92188 0.46094,0 0.89453,0.20703 z M 301.38672,329 h -0.80078 l -1.61719,-2.50391 h -0.71094 V 329 h -0.64062 v -5.51172 h 1.55859 q 0.78516,0 1.23828,0.38281 0.45703,0.37891 0.45703,1.0586 0,0.5039 -0.33203,0.89843 -0.33203,0.39063 -0.91406,0.53125 z m -3.12891,-3.0625 h 0.8086 q 0.50781,0 0.82421,-0.27344 0.31641,-0.27734 0.31641,-0.69531 0,-0.92188 -1.125,-0.92188 h -0.82422 z"
       id="text37"
       style="font-size:8px"
       aria-label="CarR" />
    <path
       d="m 306.79883,329 h -3 v -5.51172 h 0.64062 v 4.95313 h 2.35938 z m 4.89844,-2.01563 h -2.79297 q 0,0.69141 0.39843,1.14063 0.40235,0.44922 0.98438,0.44922 0.55469,0 1.14453,-0.19922 l 0.10547,0.48828 q -0.53906,0.24219 -1.25781,0.24219 -0.90625,0 -1.46094,-0.58203 -0.55469,-0.58203 -0.55469,-1.57032 0,-0.96875 0.4961,-1.54296 0.5,-0.57813 1.28906,-0.57813 0.70312,0 1.17578,0.53516 0.47266,0.53515 0.47266,1.42578 z m -0.66407,-0.49609 q 0,-0.47656 -0.29687,-0.80078 -0.29688,-0.32813 -0.66406,-0.32813 -0.47266,0 -0.78516,0.3125 -0.30859,0.3125 -0.34375,0.81641 z M 316.37695,329 h -0.60937 v -2.60938 q 0,-0.54296 -0.17578,-0.78515 -0.17188,-0.2461 -0.54297,-0.2461 -0.5586,0 -1.19922,0.69532 V 329 h -0.60938 v -4.07031 h 0.60938 v 0.59765 q 0.65625,-0.69531 1.38281,-0.69531 1.14453,0 1.14453,1.38281 z"
       id="text38"
       style="font-size:8px"
       aria-label="Len" />
    <path
       d="m 344.79883,329 h -3 v -5.51172 h 0.64062 v 4.95313 h 2.35938 z m 4.96094,-4.07031 L 348.2168,329 h -0.55469 l -1.53516,-4.07031 h 0.66407 l 1.15234,3.23828 1.15234,-3.23828 z M 354.08008,329 h -1.66406 v -4.98438 h -1.0625 v -0.52734 h 1.67187 v 4.98438 h 1.05469 z"
       id="text39"
       style="font-size:8px"
       aria-label="Lvl" />
    <path
       d="m 397.38477,329 h -0.80079 l -1.61718,-2.50391 h -0.71094 V 329 h -0.64063 v -5.51172 h 1.5586 q 0.78515,0 1.23828,0.38281 0.45703,0.37891 0.45703,1.0586 0,0.5039 -0.33203,0.89843 -0.33203,0.39063 -0.91406,0.53125 z m -3.12891,-3.0625 h 0.80859 q 0.50782,0 0.82422,-0.27344 0.31641,-0.27734 0.31641,-0.69531 0,-0.92188 -1.125,-0.92188 h -0.82422 z m 6.91797,-1.83984 q -0.49219,-0.16797 -0.9336,-0.16797 -0.5,0 -0.8164,0.23047 -0.3125,0.22656 -0.3125,0.64843 0,0.5 0.82422,0.87891 0.60937,0.28125 0.80468,0.39062 0.19922,0.10938 0.40235,0.30079 0.20312,0.1914 0.32422,0.45312 0.125,0.25781 0.125,0.58203 0,0.80469 -0.54297,1.25 -0.53906,0.44141 -1.27344,0.44141 -0.71094,0 -1.24609,-0.28125 l 0.13281,-0.55078 q 0.62891,0.28515 1.09766,0.28515 0.54687,0 0.875,-0.28125 0.33203,-0.28515 0.33203,-0.78125 0,-0.36718 -0.21485,-0.62109 -0.21484,-0.25781 -0.79297,-0.52344 -0.59375,-0.27344 -0.76953,-0.37109 -0.17187,-0.10156 -0.34375,-0.27735 -0.17187,-0.17578 -0.26562,-0.39453 -0.0937,-0.21875 -0.0937,-0.47656 0,-0.68359 0.49219,-1.06641 0.49218,-0.38281 1.24609,-0.38281 0.55078,0 1.09375,0.16797 z m 5.65234,-0.0899 h -1.69922 V 329 h -0.63672 v -4.99219 h -1.70703 v -0.51953 h 4.04297 z"
       id="text40"
       style="font-size:8px"
       aria-label="RST" />
    <path
       d="m 451.99805,329 h -3 v -5.51172 h 0.64062 v 4.95313 h 2.35938 z m 4.89843,-2.01563 h -2.79296 q 0,0.69141 0.39843,1.14063 0.40235,0.44922 0.98438,0.44922 0.55469,0 1.14453,-0.19922 l 0.10547,0.48828 q -0.53906,0.24219 -1.25781,0.24219 -0.90625,0 -1.46094,-0.58203 -0.55469,-0.58203 -0.55469,-1.57032 0,-0.96875 0.49609,-1.54296 0.5,-0.57813 1.28907,-0.57813 0.70312,0 1.17578,0.53516 0.47265,0.53515 0.47265,1.42578 z m -0.66406,-0.49609 q 0,-0.47656 -0.29687,-0.80078 -0.29688,-0.32813 -0.66407,-0.32813 -0.47265,0 -0.78515,0.3125 -0.3086,0.3125 -0.34375,0.81641 z M 461.57617,329 h -0.60937 v -2.60938 q 0,-0.54296 -0.17578,-0.78515 -0.17188,-0.2461 -0.54297,-0.2461 -0.5586,0 -1.19922,0.69532 V 329 h -0.60938 v -4.07031 h 0.60938 v 0.59765 q 0.65625,-0.69531 1.38281,-0.69531 1.14453,0 1.14453,1.38281 z m 5.00781,-0.34375 q -0.64843,0.44922 -1.5039,0.44922 -1.07031,0 -1.62891,-0.73438 -0.55469,-0.73437 -0.55469,-2.125 0,-1.34375 0.53907,-2.10156 0.53906,-0.76172 1.64453,-0.76172 0.39844,0 0.78906,0.10156 0.39063,0.10157 0.62891,0.26954 l -0.21094,0.5039 q -0.55078,-0.3125 -1.20703,-0.3125 -0.76172,0 -1.13281,0.55469 -0.3711,0.55078 -0.3711,1.74609 0,2.29688 1.50391,2.29688 0.63672,0 1.30469,-0.39063 z m 5.19141,-5.16797 L 469.97852,329 h -0.76954 l -1.80078,-5.51172 h 0.67188 l 1.51172,4.76953 1.51953,-4.76953 z"
       id="text41"
       style="font-size:8px"
       aria-label="LenCV" />
    <path
       d="m 515.18945,323.38281 q 0.92578,0 1.41016,0.73438 0.48828,0.73047 0.48828,2.1289 0,1.39063 -0.48437,2.125 -0.48438,0.73438 -1.41407,0.73438 -0.92187,0 -1.41015,-0.73047 -0.48438,-0.73438 -0.48438,-2.12891 0,-1.39453 0.48438,-2.1289 0.48437,-0.73438 1.41015,-0.73438 z m 0,5.16016 q 1.21875,0 1.21875,-2.29688 0,-2.30078 -1.21875,-2.30078 -0.59375,0 -0.90625,0.59766 -0.30859,0.59375 -0.30859,1.70312 0,1.1211 0.30859,1.71094 0.3086,0.58594 0.90625,0.58594 z M 521.56836,329 h -0.60938 v -0.60156 q -0.65625,0.69922 -1.38281,0.69922 -1.14453,0 -1.14453,-1.38672 v -2.78125 h 0.60938 v 2.60547 q 0,0.51953 0.16406,0.77734 0.16406,0.25391 0.55469,0.25391 0.55859,0 1.19921,-0.69532 v -2.9414 h 0.60938 z m 4.84766,-0.18359 q -0.61329,0.28125 -1.20704,0.28125 -1.08984,0 -1.08984,-1.15235 v -2.48828 h -0.78125 v -0.52734 h 0.78125 v -1.11328 h 0.59375 v 1.11328 h 1.38281 v 0.52734 h -1.38281 v 2.32813 q 0,0.37109 0.16406,0.57812 0.16407,0.20313 0.44532,0.20313 0.5,0 0.98828,-0.22266 z"
       id="text42"
       style="font-size:8px"
       aria-label="Out" />
    <!-- Action buttons -->
    <path
       d="m 331.71167,121 h -0.70068 l -1.41504,-2.19092 h -0.62207 V 121 h -0.56055 v -4.82275 h 1.36377 q 0.68701,0 1.0835,0.33496 0.3999,0.33154 0.3999,0.92627 0,0.44091 -0.29053,0.78613 -0.29053,0.3418 -0.7998,0.46484 z m -2.73779,-2.67969 h 0.70752 q 0.44433,0 0.72119,-0.23926 0.27685,-0.24267 0.27685,-0.60839 0,-0.80664 -0.98437,-0.80664 h -0.72119 z M 335.45435,121 h -0.62207 l -1.7295,-3.80762 V 121 h -0.56054 v -4.82275 h 0.62548 l 1.73633,3.77343 v -3.77343 h 0.5503 z m 1.36035,-4.82275 h 0.95019 q 0.94678,0 1.51758,0.64599 0.5708,0.64258 0.5708,1.76709 0,1.14844 -0.58105,1.78076 Q 338.69458,121 337.78882,121 h -0.97412 z m 0.56054,4.33398 h 0.39649 q 0.68701,0 1.08691,-0.50928 0.3999,-0.50927 0.3999,-1.41162 0,-0.89551 -0.40332,-1.4082 -0.3999,-0.51611 -1.08349,-0.51611 h -0.39649 z"
       id="text43"
       style="font-size:7px"
       aria-label="RND" />
    <path
       d="m 331.71167,145 h -0.70068 l -1.41504,-2.19092 h -0.62207 V 145 h -0.56055 v -4.82275 h 1.36377 q 0.68701,0 1.0835,0.33496 0.3999,0.33154 0.3999,0.92627 0,0.44091 -0.29053,0.78613 -0.29053,0.3418 -0.7998,0.46484 z m -2.73779,-2.67969 h 0.70752 q 0.44433,0 0.72119,-0.23926 0.27685,-0.24267 0.27685,-0.60839 0,-0.80664 -0.98437,-0.80664 h -0.72119 z M 335.45435,145 h -0.62207 l -1.7295,-3.80762 V 145 h -0.56054 v -4.82275 h 0.62548 l 1.73633,3.77343 v -3.77343 h 0.5503 z m 1.36035,-4.82275 h 0.95019 q 0.94678,0 1.51758,0.64599 0.5708,0.64258 0.5708,1.76709 0,1.14844 -0.58105,1.78076 Q 338.69458,145 337.78882,145 h -0.97412 z m 0.56054,4.33398 h 0.39649 q 0.68701,0 1.08691,-0.50928 0.3999,-0.50927 0.3999,-1.41162 0,-0.89551 -0.40332,-1.4082 -0.3999,-0.51611 -1.08349,-0.51611 h -0.39649 z"
       id="text44"
       style="font-size:7px"
       aria-label="RND" />
    <path
       d="m 331.71167,169 h -0.70068 l -1.41504,-2.19092 h -0.62207 V 169 h -0.56055 v -4.82275 h 1.36377 q 0.68701,0 1.0835,0.33496 0.3999,0.33154 0.3999,0.92627 0,0.44091 -0.29053,0.78613 -0.29053,0.3418 -0.7998,0.46484 z m -2.73779,-2.67969 h 0.70752 q 0.44433,0 0.72119,-0.23926 0.27685,-0.24267 0.27685,-0.60839 0,-0.80664 -0.98437,-0.80664 h -0.72119 z M 335.45435,169 h -0.62207 l -1.7295,-3.80762 V 169 h -0.56054 v -4.82275 h 0.62548 l 1.73633,3.77343 v -3.77343 h 0.5503 z m 1.36035,-4.82275 h 0.95019 q 0.94678,0 1.51758,0.64599 0.5708,0.64258 0.5708,1.76709 0,1.14844 -0.58105,1.78076 Q 338.69458,169 337.78882,169 h -0.97412 z m 0.56054,4.33398 h 0.39649 q 0.68701,0 1.08691,-0.50928 0.3999,-0.50927 0.3999,-1.41162 0,-0.89551 -0.40332,-1.4082 -0.3999,-0.51611 -1.08349,-0.51611 h -0.39649 z"
       id="text45"
       style="font-size:7px"
       aria-label="RND" />
    <path
       d="m 331.71167,193 h -0.70068 l -1.41504,-2.19092 h -0.62207 V 193 h -0.56055 v -4.82275 h 1.36377 q 0.68701,0 1.0835,0.33496 0.3999,0.33154 0.3999,0.92627 0,0.44091 -0.29053,0.78613 -0.29053,0.3418 -0.7998,0.46484 z m -2.73779,-2.67969 h 0.70752 q 0.44433,0 0.72119,-0.23926 0.27685,-0.24267 0.27685,-0.60839 0,-0.80664 -0.98437,-0.80664 h -0.72119 z M 335.45435,193 h -0.62207 l -1.7295,-3.80762 V 193 h -0.56054 v -4.82275 h 0.62548 l 1.73633,3.77343 v -3.77343 h 0.5503 z m 1.36035,-4.82275 h 0.95019 q 0.94678,0 1.51758,0.64599 0.5708,0.64258 0.5708,1.76709 0,1.14844 -0.58105,1.78076 Q 338.69458,193 337.78882,193 h -0.97412 z m 0.56054,4.33398 h 0.39649 q 0.68701,0 1.08691,-0.50928 0.3999,-0.50927 0.3999,-1.41162 0,-0.89551 -0.40332,-1.4082 -0.3999,-0.51611 -1.08349,-0.51611 h -0.39649 z"
       id="text46"
       style="font-size:7px"
       aria-label="RND" />
    <path
       d="m 331.71167,217 h -0.70068 l -1.41504,-2.19092 h -0.62207 V 217 h -0.56055 v -4.82275 h 1.36377 q 0.68701,0 1.0835,0.33496 0.3999,0.33154 0.3999,0.92627 0,0.44091 -0.29053,0.78613 -0.29053,0.3418 -0.7998,0.46484 z m -2.73779,-2.67969 h 0.70752 q 0.44433,0 0.72119,-0.23926 0.27685,-0.24267 0.27685,-0.60839 0,-0.80664 -0.98437,-0.80664 h -0.72119 z M 335.45435,217 h -0.62207 l -1.7295,-3.80762 V 217 h -0.56054 v -4.82275 h 0.62548 l 1.73633,3.77343 v -3.77343 h 0.5503 z m 1.36035,-4.82275 h 0.95019 q 0.94678,0 1.51758,0.64599 0.5708,0.64258 0.5708,1.76709 0,1.14844 -0.58105,1.78076 Q 338.69458,217 337.78882,217 h -0.97412 z m 0.56054,4.33398 h 0.39649 q 0.68701,0 1.08691,-0.50928 0.3999,-0.50927 0.3999,-1.41162 0,-0.89551 -0.40332,-1.4082 -0.3999,-0.51611 -1.08349,-0.51611 h -0.39649 z"
       id="text47"
       style="font-size:7px"
       aria-label="RND" />
    <path
       d="m 331.71167,241 h -0.70068 l -1.41504,-2.19092 h -0.62207 V 241 h -0.56055 v -4.82275 h 1.36377 q 0.68701,0 1.0835,0.33496 0.3999,0.33154 0.3999,0.92627 0,0.44091 -0.29053,0.78613 -0.29053,0.3418 -0.7998,0.46484 z m -2.73779,-2.67969 h 0.70752 q 0.44433,0 0.72119,-0.23926 0.27685,-0.24267 0.27685,-0.60839 0,-0.80664 -0.98437,-0.80664 h -0.72119 z M 335.45435,241 h -0.62207 l -1.7295,-3.80762 V 241 h -0.56054 v -4.82275 h 0.62548 l 1.73633,3.77343 v -3.77343 h 0.5503 z m 1.36035,-4.82275 h 0.95019 q 0.94678,0 1.51758,0.64599 0.5708,0.64258 0.5708,1.76709 0,1.14844 -0.58105,1.78076 Q 338.69458,241 337.78882,241 h -0.97412 z m 0.56054,4.33398 h 0.39649 q 0.68701,0 1.08691,-0.50928 0.3999,-0.50927 0.3999,-1.41162 0,-0.89551 -0.40332,-1.4082 -0.3999,-0.51611 -1.08349,-0.51611 h -0.39649 z"
       id="text48"
       style="font-size:7px"
       aria-label="RND" />
    <path
       d="m 331.71167,265 h -0.70068 l -1.41504,-2.19092 h -0.62207 V 265 h -0.56055 v -4.82275 h 1.36377 q 0.68701,0 1.0835,0.33496 0.3999,0.33154 0.3999,0.92627 0,0.44091 -0.29053,0.78613 -0.29053,0.3418 -0.7998,0.46484 z m -2.73779,-2.67969 h 0.70752 q 0.44433,0 0.72119,-0.23926 0.27685,-0.24267 0.27685,-0.60839 0,-0.80664 -0.98437,-0.80664 h -0.72119 z M 335.45435,265 h -0.62207 l -1.7295,-3.80762 V 265 h -0.56054 v -4.82275 h 0.62548 l 1.73633,3.77343 v -3.77343 h 0.5503 z m 1.36035,-4.82275 h 0.95019 q 0.94678,0 1.51758,0.64599 0.5708,0.64258 0.5708,1.76709 0,1.14844 -0.58105,1.78076 Q 338.69458,265 337.78882,265 h -0.97412 z m 0.56054,4.33398 h 0.39649 q 0.68701,0 1.08691,-0.50928 0.3999,-0.50927 0.3999,-1.41162 0,-0.89551 -0.40332,-1.4082 -0.3999,-0.51611 -1.08349,-0.51611 h -0.39649 z"
       id="text49"
       style="font-size:7px"
       aria-label="RND" />
    <!-- Integer ratios switch -->
    <path
       d="m 350.87085,121 h -2.19092 v -0.48877 h 0.83057 v -3.84521 h -0.83057 v -0.48877 h 2.19092 v 0.48877 h -0.79981 v 3.84521 h 0.79981 z m 4.5083,0 h -0.5332 v -2.2832 q 0,-0.4751 -0.15381,-0.68701 -0.15039,-0.21534 -0.4751,-0.21534 -0.48877,0 -1.04932,0.6084 V 121 h -0.5332 v -3.56152 h 0.5332 v 0.52295 q 0.57422,-0.6084 1.20997,-0.6084 1.00146,0 1.00146,1.20996 z m 4.23486,-0.16064 q -0.53662,0.24609 -1.05615,0.24609 -0.95361,0 -0.95361,-1.0083 v -2.17725 h -0.6836 v -0.46142 h 0.6836 v -0.97412 h 0.51953 v 0.97412 h 1.20996 v 0.46142 h -1.20996 v 2.03711 q 0,0.32471 0.14355,0.50586 0.14356,0.17774 0.38965,0.17774 0.4375,0 0.86475,-0.19483 z"
       id="text50"
       style="font-size:7px"
       aria-label="Int" />
    <!-- Initialize buttons -->
    <path
       d="m 388.77051,121 h -2.19092 v -0.48877 h 0.83057 v -3.84521 h -0.83057 v -0.48877 h 2.19092 v 0.48877 h -0.79981 v 3.84521 h 0.79981 z m 4.58349,0 h -0.62207 l -1.72949,-3.80762 V 121 h -0.56055 v -4.82275 h 0.62549 l 1.73633,3.77343 v -3.77343 h 0.55029 z m 3.81787,0 h -2.19091 v -0.48877 h 0.83056 v -3.84521 h -0.83056 v -0.48877 h 2.19091 v 0.48877 h -0.7998 v 3.84521 h 0.7998 z m 4.90137,-4.36816 h -1.48681 V 121 h -0.55713 v -4.36816 h -1.49366 v -0.45459 h 3.5376 z"
       id="text51"
       style="font-size:7px"
       aria-label="INIT" />
    <path
       d="m 388.77051,145 h -2.19092 v -0.48877 h 0.83057 v -3.84521 h -0.83057 v -0.48877 h 2.19092 v 0.48877 h -0.79981 v 3.84521 h 0.79981 z m 4.58349,0 h -0.62207 l -1.72949,-3.80762 V 145 h -0.56055 v -4.82275 h 0.62549 l 1.73633,3.77343 v -3.77343 h 0.55029 z m 3.81787,0 h -2.19091 v -0.48877 h 0.83056 v -3.84521 h -0.83056 v -0.48877 h 2.19091 v 0.48877 h -0.7998 v 3.84521 h 0.7998 z m 4.90137,-4.36816 h -1.48681 V 145 h -0.55713 v -4.36816 h -1.49366 v -0.45459 h 3.5376 z"
       id="text52"
       style="font-size:7px"
       aria-label="INIT" />
    <path
       d="m 388.77051,169 h -2.19092 v -0.48877 h 0.83057 v -3.84521 h -0.83057 v -0.48877 h 2.19092 v 0.48877 h -0.79981 v 3.84521 h 0.79981 z m 4.58349,0 h -0.62207 l -1.72949,-3.80762 V 169 h -0.56055 v -4.82275 h 0.62549 l 1.73633,3.77343 v -3.77343 h 0.55029 z m 3.81787,0 h -2.19091 v -0.48877 h 0.83056 v -3.84521 h -0.83056 v -0.48877 h 2.19091 v 0.48877 h -0.7998 v 3.84521 h 0.7998 z m 4.90137,-4.36816 h -1.48681 V 169 h -0.55713 v -4.36816 h -1.49366 v -0.45459 h 3.5376 z"
       id="text53"
       style="font-size:7px"
       aria-label="INIT" />
    <path
       d="m 388.77051,193 h -2.19092 v -0.48877 h 0.83057 v -3.84521 h -0.83057 v -0.48877 h 2.19092 v 0.48877 h -0.79981 v 3.84521 h 0.79981 z m 4.58349,0 h -0.62207 l -1.72949,-3.80762 V 193 h -0.56055 v -4.82275 h 0.62549 l 1.73633,3.77343 v -3.77343 h 0.55029 z m 3.81787,0 h -2.19091 v -0.48877 h 0.83056 v -3.84521 h -0.83056 v -0.48877 h 2.19091 v 0.48877 h -0.7998 v 3.84521 h 0.7998 z m 4.90137,-4.36816 h -1.48681 V 193 h -0.55713 v -4.36816 h -1.49366 v -0.45459 h 3.5376 z"
       id="text54"
       style="font-size:7px"
       aria-label="INIT" />
    <path
       d="m 388.77051,217 h -2.19092 v -0.48877 h 0.83057 v -3.84521 h -0.83057 v -0.48877 h 2.19092 v 0.48877 h -0.79981 v 3.84521 h 0.79981 z m 4.58349,0 h -0.62207 l -1.72949,-3.80762 V 217 h -0.56055 v -4.82275 h 0.62549 l 1.73633,3.77343 v -3.77343 h 0.55029 z m 3.81787,0 h -2.19091 v -0.48877 h 0.83056 v -3.84521 h -0.83056 v -0.48877 h 2.19091 v 0.48877 h -0.7998 v 3.84521 h 0.7998 z m 4.90137,-4.36816 h -1.48681 V 217 h -0.55713 v -4.36816 h -1.49366 v -0.45459 h 3.5376 z"
       id="text55"
       style="font-size:7px"
       aria-label="INIT" />
    <path
       d="m 388.77051,241 h -2.19092 v -0.48877 h 0.83057 v -3.84521 h -0.83057 v -0.48877 h 2.19092 v 0.48877 h -0.79981 v 3.84521 h 0.79981 z m 4.58349,0 h -0.62207 l -1.72949,-3.80762 V 241 h -0.56055 v -4.82275 h 0.62549 l 1.73633,3.77343 v -3.77343 h 0.55029 z m 3.81787,0 h -2.19091 v -0.48877 h 0.83056 v -3.84521 h -0.83056 v -0.48877 h 2.19091 v 0.48877 h -0.7998 v 3.84521 h 0.7998 z m 4.90137,-4.36816 h -1.48681 V 241 h -0.55713 v -4.36816 h -1.49366 v -0.45459 h 3.5376 z"
       id="text56"
       style="font-size:7px"
       aria-label="INIT" />
    <path
       d="m 388.77051,265 h -2.19092 v -0.48877 h 0.83057 v -3.84521 h -0.83057 v -0.48877 h 2.19092 v 0.48877 h -0.79981 v 3.84521 h 0.79981 z m 4.58349,0 h -0.62207 l -1.72949,-3.80762 V 265 h -0.56055 v -4.82275 h 0.62549 l 1.73633,3.77343 v -3.77343 h 0.55029 z m 3.81787,0 h -2.19091 v -0.48877 h 0.83056 v -3.84521 h -0.83056 v -0.48877 h 2.19091 v 0.48877 h -0.7998 v 3.84521 h 0.7998 z m 4.90137,-4.36816 h -1.48681 V 265 h -0.55713 v -4.36816 h -1.49366 v -0.45459 h 3.5376 z"
       id="text57"
       style="font-size:7px"
       aria-label="INIT" />
  </g>
</svg>
