<?xml version="1.0" encoding="UTF-8" standalone="no"?>
<svg
   width="45"
   height="380"
   viewBox="0 0 45 380"
   version="1.1"
   id="svg10"
   sodipodi:docname="FM4Dice.svg"
   inkscape:version="1.3.2 (091e20e, 2023-11-25)"
   xmlns:inkscape="http://www.inkscape.org/namespaces/inkscape"
   xmlns:sodipodi="http://sodipodi.sourceforge.net/DTD/sodipodi-0.dtd"
   xmlns="http://www.w3.org/2000/svg"
   xmlns:svg="http://www.w3.org/2000/svg">
  <sodipodi:namedview
     id="namedview10"
     pagecolor="#ffffff"
     bordercolor="#000000"
     borderopacity="0.25"
     inkscape:showpageshadow="2"
     inkscape:pageopacity="0.0"
     inkscape:pagecheckerboard="0"
     inkscape:deskcolor="#d1d1d1"
     inkscape:zoom="2.7394737"
     inkscape:cx="44.899135"
     inkscape:cy="190"
     inkscape:window-width="1392"
     inkscape:window-height="1212"
     inkscape:window-x="1355"
     inkscape:window-y="650"
     inkscape:window-maximized="0"
     inkscape:current-layer="svg10" />
  <defs
     id="defs2">
    <linearGradient
       id="bg"
       x1="0"
       y1="0"
       x2="0"
       y2="1">
      <stop
         offset="0"
         stop-color="#2e3440"
         id="stop1"
         style="stop-color:#323232;stop-opacity:1;" />
      <stop
         offset="100%"
         stop-color="#1b1f27"
         id="stop2" />
    </linearGradient>
  </defs>
  <path
     style="isolation:isolate;fill:#323232;fill-opacity:1;stroke-width:0.505244"
     inkscape:connector-curvature="0"
     id="path7"
     d="M 0,0 H 45 V 380 H 0 Z" />
  <path
     d="M 10.640625,84 H 6.9609376 v -5.816406 h 0.773438 V 83.3125 h 2.9062494 z m 4.605469,0 h -3.832032 v -5.816406 h 3.832032 v 0.6875 H 12.1875 v 1.59375 h 3.058594 v 0.6875 H 12.1875 V 83.3125 h 3.058594 z m 5.664062,0 H 19.953125 L 17.195312,78.796875 V 84 h -0.722656 v -5.816406 h 1.199219 l 2.515625,4.75 v -4.75 h 0.722656 z m 6.398438,-0.429688 q -0.476563,0.21875 -1.042969,0.382813 -0.5625,0.160156 -1.089844,0.160156 -0.679687,0 -1.246094,-0.1875 -0.566406,-0.1875 -0.964843,-0.5625 Q 22.5625,82.984375 22.34375,82.417969 22.125,81.847656 22.125,81.085937 q 0,-1.394531 0.8125,-2.199218 0.816406,-0.808594 2.238281,-0.808594 0.496094,0 1.011719,0.121094 0.519531,0.117187 1.117187,0.402343 v 0.917969 h -0.07031 q -0.121094,-0.09375 -0.351563,-0.246094 -0.230468,-0.152343 -0.453125,-0.253906 -0.269531,-0.121094 -0.613281,-0.199219 -0.339844,-0.08203 -0.773437,-0.08203 -0.976563,0 -1.546875,0.628906 -0.566407,0.625 -0.566407,1.695313 0,1.128906 0.59375,1.757812 0.59375,0.625 1.617188,0.625 0.375,0 0.746094,-0.07422 0.375,-0.07422 0.65625,-0.191407 v -1.425781 h -1.558594 v -0.679687 h 2.324219 z m 5.5,-4.699218 H 30.730469 V 84 h -0.773438 v -5.128906 h -2.078125 v -0.6875 h 4.929688 z M 38.039062,84 H 37.265625 V 81.152344 H 34.363281 V 84 h -0.773437 v -5.816406 h 0.773437 v 2.28125 h 2.902344 v -2.28125 h 0.773437 z"
     id="text5"
     style="font-size:8px;font-family:'DejaVu Sans', sans-serif;text-anchor:middle;fill:#d6dee8"
     aria-label="LENGTH" />
  <path
     d="m 19.082031,162.0951 h -1.003906 l -1.945313,-2.3125 h -1.089843 v 2.3125 h -0.773438 v -5.81641 h 1.628906 q 0.527344,0 0.878907,0.0703 0.351562,0.0664 0.632812,0.24218 0.316406,0.19922 0.492188,0.50391 0.179687,0.30078 0.179687,0.76562 0,0.62891 -0.316406,1.05469 -0.316406,0.42188 -0.871094,0.63672 z m -1.808594,-4.17969 q 0,-0.25 -0.08984,-0.4414 -0.08594,-0.19532 -0.289063,-0.32813 -0.167969,-0.11328 -0.398437,-0.15625 -0.230469,-0.0469 -0.542969,-0.0469 h -0.910156 v 2.19531 h 0.78125 q 0.367187,0 0.640625,-0.0625 0.273437,-0.0664 0.464843,-0.24219 0.175782,-0.16406 0.257813,-0.375 0.08594,-0.21484 0.08594,-0.54297 z m 6.996094,4.17969 H 23.3125 l -2.757813,-5.20313 v 5.20313 h -0.722656 v -5.81641 h 1.199219 l 2.515625,4.75 v -4.75 h 0.722656 z m 6.460938,-2.90234 q 0,0.79296 -0.347657,1.4375 -0.34375,0.64453 -0.917968,1 -0.398438,0.24609 -0.890625,0.35546 -0.488282,0.10938 -1.289063,0.10938 h -1.46875 v -5.81641 h 1.453125 q 0.851563,0 1.351563,0.125 0.503906,0.1211 0.851562,0.33594 0.59375,0.37109 0.925781,0.98828 0.332032,0.61719 0.332032,1.46485 z m -0.808594,-0.0117 q 0,-0.6836 -0.238281,-1.15235 -0.238282,-0.46875 -0.710938,-0.73828 -0.34375,-0.19531 -0.730469,-0.26953 -0.386718,-0.0781 -0.925781,-0.0781 h -0.726562 v 4.48828 h 0.726562 q 0.558594,0 0.972656,-0.082 0.417969,-0.082 0.765625,-0.30469 0.433594,-0.27735 0.648438,-0.73047 0.21875,-0.45313 0.21875,-1.13281 z"
     id="text6"
     style="font-size:8px;font-family:'DejaVu Sans', sans-serif;text-anchor:middle;fill:#d6dee8"
     aria-label="RND" />
  <path
     d="m 17.683592,269.49357 h -2.078124 v 5.12891 h -0.773437 v -5.12891 h -2.078125 v -0.6875 h 4.929686 z m 5.59375,5.12891 h -1.003906 l -1.945312,-2.3125 H 19.23828 v 2.3125 h -0.773438 v -5.81641 h 1.628908 q 0.527342,0 0.878906,0.0703 0.351562,0.0664 0.632812,0.24218 0.316407,0.19922 0.492188,0.50391 0.179687,0.30078 0.179687,0.76562 0,0.62891 -0.316406,1.05469 -0.316406,0.42188 -0.871094,0.63672 z m -1.808592,-4.17969 q 0,-0.25 -0.08984,-0.4414 -0.08594,-0.19532 -0.289063,-0.32813 -0.167968,-0.11328 -0.398437,-0.15625 -0.230469,-0.0469 -0.542969,-0.0469 h -0.910156 v 2.19531 h 0.78125 q 0.367187,0 0.640625,-0.0625 0.273437,-0.0664 0.464844,-0.24219 0.175781,-0.16406 0.257812,-0.375 0.08594,-0.21484 0.08594,-0.54297 z m 4.609375,4.17969 H 23.78125 v -0.59375 h 0.761717 v -4.62891 H 23.78125 v -0.59375 h 2.296875 v 0.59375 h -0.761719 v 4.62891 h 0.761719 z m 6.167968,-0.42969 q -0.476562,0.21875 -1.042968,0.38281 -0.5625,0.16016 -1.089844,0.16016 -0.679688,0 -1.246094,-0.1875 -0.566406,-0.1875 -0.964844,-0.5625 -0.402343,-0.37891 -0.621093,-0.94531 -0.21875,-0.57031 -0.21875,-1.33203 0,-1.39453 0.8125,-2.19922 0.816406,-0.8086 2.238281,-0.8086 0.496094,0 1.011719,0.1211 0.519531,0.11719 1.117187,0.40234 v 0.91797 h -0.07031 q -0.121094,-0.0937 -0.351563,-0.24609 -0.230469,-0.15235 -0.453125,-0.25391 -0.269531,-0.12109 -0.613281,-0.19922 -0.339844,-0.082 -0.773438,-0.082 -0.976562,0 -1.546875,0.62891 -0.566406,0.625 -0.566406,1.69531 0,1.12891 0.59375,1.75781 0.59375,0.625 1.617188,0.625 0.375,0 0.746093,-0.0742 0.375,-0.0742 0.65625,-0.1914 v -1.42578 h -1.558594 v -0.67969 h 2.324218 z"
     id="text8"
     style="font-size:8px;font-family:'DejaVu Sans', sans-serif;text-anchor:middle;fill:#d6dee8"
     aria-label="TRIG" />
  <path
     d="m 18.851561,314.37318 q 0.355469,0.39063 0.542969,0.95703 0.191406,0.56641 0.191406,1.28516 0,0.71875 -0.195313,1.28906 -0.191406,0.56641 -0.539062,0.94531 -0.359375,0.39454 -0.851563,0.59375 -0.488281,0.19922 -1.117187,0.19922 -0.613281,0 -1.117188,-0.20312 -0.5,-0.20313 -0.851562,-0.58985 -0.351563,-0.38671 -0.542969,-0.94921 -0.1875,-0.5625 -0.1875,-1.28516 0,-0.71094 0.1875,-1.27344 0.1875,-0.5664 0.546875,-0.96875 0.34375,-0.38281 0.851563,-0.58594 0.511718,-0.20312 1.113281,-0.20312 0.625,0 1.121094,0.20703 0.5,0.20313 0.847656,0.58203 z m -0.07031,2.24219 q 0,-1.13281 -0.507812,-1.74609 -0.507813,-0.61719 -1.386719,-0.61719 -0.886719,0 -1.394531,0.61719 -0.503906,0.61328 -0.503906,1.74609 0,1.14453 0.515625,1.75391 0.515625,0.60546 1.382812,0.60546 0.867188,0 1.378906,-0.60546 0.515625,-0.60938 0.515625,-1.75391 z m 6.410157,0.57031 q 0,0.63281 -0.140625,1.10547 -0.136719,0.46875 -0.453125,0.78125 -0.300782,0.29688 -0.703125,0.43359 -0.402344,0.13672 -0.9375,0.13672 -0.546875,0 -0.953125,-0.14453 -0.40625,-0.14453 -0.683594,-0.42578 -0.316406,-0.32031 -0.457031,-0.77344 -0.136719,-0.45312 -0.136719,-1.11328 v -3.48047 h 0.773437 v 3.51953 q 0,0.47266 0.0625,0.7461 0.06641,0.27344 0.21875,0.49609 0.171875,0.25391 0.464844,0.38281 0.296875,0.12891 0.710938,0.12891 0.417968,0 0.710937,-0.125 0.292969,-0.12891 0.46875,-0.38672 0.152344,-0.22265 0.214844,-0.50781 0.06641,-0.28906 0.06641,-0.71484 v -3.53907 h 0.773438 z m 5.625,-2.79297 H 28.73828 v 5.12891 h -0.773438 v -5.12891 h -2.078125 v -0.6875 h 4.929688 z"
     id="text9"
     style="font-size:8px;font-family:'DejaVu Sans', sans-serif;text-anchor:middle;fill:#d6dee8"
     aria-label="OUT" />
  <g
     id="text1"
     style="font-size:12px;font-family:Arial;-inkscape-font-specification:Arial;text-align:center;text-anchor:middle;fill:#ffffff;stroke-width:2"
     aria-label="FM4&#10;DICE">
    <path
       d="m 11.34375,24.457253 v -8.589844 h 5.794922 v 1.013672 h -4.658203 v 2.660156 h 4.03125 v 1.013672 h -4.03125 v 3.902344 z m 7.236328,0 v -8.589844 h 1.710938 l 2.033203,6.082031 q 0.28125,0.849609 0.410156,1.271484 0.146484,-0.46875 0.457031,-1.376953 l 2.056641,-5.976562 h 1.529297 v 8.589844 h -1.095703 v -7.189454 l -2.496094,7.189454 h -1.025391 l -2.484375,-7.3125 v 7.3125 z m 12.984375,0 v -2.056641 h -3.726562 v -0.966797 l 3.919921,-5.566406 h 0.861329 v 5.566406 h 1.160156 v 0.966797 h -1.160156 v 2.056641 z m 0,-3.023438 V 17.560768 L 28.875,21.433815 Z"
       id="path3" />
    <path
       d="M 8.9501953,39.457253 V 30.867409 H 11.90918 q 1.001953,0 1.529297,0.123047 0.738281,0.169922 1.259765,0.615234 0.679688,0.574219 1.013672,1.470703 0.339844,0.890625 0.339844,2.039063 0,0.978515 -0.228516,1.734375 -0.228515,0.755859 -0.585937,1.253906 -0.357422,0.492187 -0.785157,0.779297 -0.421875,0.28125 -1.02539,0.427734 -0.597656,0.146485 -1.376953,0.146485 z m 1.1367187,-1.013672 h 1.833984 q 0.84961,0 1.330079,-0.158203 0.486328,-0.158204 0.773437,-0.445313 0.404297,-0.404297 0.626953,-1.083984 0.228516,-0.685547 0.228516,-1.658203 0,-1.347657 -0.445313,-2.06836 -0.439453,-0.726562 -1.072265,-0.972656 -0.457032,-0.175781 -1.470703,-0.175781 h -1.804688 z m 7.722656,1.013672 v -8.589844 h 1.136719 v 8.589844 z m 9.269532,-3.011719 1.136718,0.287109 q -0.357422,1.400391 -1.289062,2.138672 -0.925781,0.732422 -2.267578,0.732422 -1.388672,0 -2.261719,-0.5625 -0.867188,-0.568359 -1.324219,-1.640625 -0.451172,-1.072266 -0.451172,-2.302734 0,-1.341797 0.509766,-2.337891 0.515625,-1.001953 1.458984,-1.517578 0.949219,-0.521485 2.085938,-0.521485 1.289062,0 2.167969,0.65625 0.878906,0.65625 1.224609,1.845704 l -1.119141,0.263671 q -0.298828,-0.9375 -0.867187,-1.365234 -0.56836,-0.427734 -1.429688,-0.427734 -0.990234,0 -1.658203,0.474609 -0.662109,0.474609 -0.93164,1.277344 -0.269532,0.796875 -0.269532,1.646484 0,1.095703 0.316407,1.916016 0.322265,0.814453 0.996093,1.21875 0.673828,0.404297 1.458985,0.404297 0.955078,0 1.617187,-0.550782 0.66211,-0.550781 0.896485,-1.634765 z m 2.560546,3.011719 v -8.589844 h 6.210938 v 1.013672 h -5.074219 v 2.630859 h 4.751953 v 1.007813 h -4.751953 v 2.923828 h 5.273438 v 1.013672 z"
       id="path4" />
  </g>
</svg>
