<?xml version="1.0" encoding="UTF-8" standalone="no"?>
<svg
   width="45"
   height="380"
   viewBox="0 0 45 380"
   version="1.1"
   id="svg10"
   sodipodi:docname="FM4Dice.svg"
   inkscape:version="1.3.2 (091e20e, 2023-11-25)"
   xmlns:inkscape="http://www.inkscape.org/namespaces/inkscape"
   xmlns:sodipodi="http://sodipodi.sourceforge.net/DTD/sodipodi-0.dtd"
   xmlns="http://www.w3.org/2000/svg"
   xmlns:svg="http://www.w3.org/2000/svg">
  <sodipodi:namedview
     id="namedview10"
     pagecolor="#ffffff"
     bordercolor="#000000"
     borderopacity="0.25"
     inkscape:showpageshadow="2"
     inkscape:pageopacity="0.0"
     inkscape:pagecheckerboard="0"
     inkscape:deskcolor="#d1d1d1"
     inkscape:zoom="2.7394737"
     inkscape:cx="44.716618"
     inkscape:cy="190"
     inkscape:window-width="1040"
     inkscape:window-height="1212"
     inkscape:window-x="2156"
     inkscape:window-y="577"
     inkscape:window-maximized="0"
     inkscape:current-layer="svg10" />
  <defs
     id="defs2">
    <linearGradient
       id="bg"
       x1="0"
       y1="0"
       x2="0"
       y2="1">
      <stop
         offset="0"
         stop-color="#2e3440"
         id="stop1"
         style="stop-color:#323232;stop-opacity:1;" />
      <stop
         offset="100%"
         stop-color="#1b1f27"
         id="stop2" />
    </linearGradient>
  </defs>
  <path
     style="isolation:isolate;fill:#323232;fill-opacity:1;stroke-width:0.505244"
     inkscape:connector-curvature="0"
     id="path7"
     d="M 0,0 H 45 V 380 H 0 Z" />
  <path
     d="M 10.640625,70.411143 H 6.960938 v -5.816406 h 0.773438 v 5.128906 h 2.906249 z m 4.605469,0 h -3.832032 v -5.816406 h 3.832032 v 0.6875 H 12.1875 v 1.59375 h 3.058594 v 0.6875 H 12.1875 v 2.160156 h 3.058594 z m 5.664062,0 h -0.957031 l -2.757813,-5.203125 v 5.203125 h -0.722656 v -5.816406 h 1.199219 l 2.515625,4.75 v -4.75 h 0.722656 z m 6.398438,-0.429688 q -0.476563,0.21875 -1.042969,0.382813 -0.5625,0.160156 -1.089844,0.160156 -0.679687,0 -1.246094,-0.1875 -0.566406,-0.1875 -0.964843,-0.5625 Q 22.5625,69.395518 22.34375,68.829112 22.125,68.258799 22.125,67.49708 q 0,-1.394531 0.8125,-2.199218 0.816406,-0.808594 2.238281,-0.808594 0.496094,0 1.011719,0.121094 0.519531,0.117187 1.117187,0.402343 v 0.917969 h -0.07031 q -0.121094,-0.09375 -0.351563,-0.246094 -0.230468,-0.152343 -0.453125,-0.253906 -0.269531,-0.121094 -0.613281,-0.199219 -0.339844,-0.08203 -0.773437,-0.08203 -0.976563,0 -1.546875,0.628906 -0.566407,0.625 -0.566407,1.695313 0,1.128906 0.59375,1.757812 0.59375,0.625 1.617188,0.625 0.375,0 0.746094,-0.07422 0.375,-0.07422 0.65625,-0.191407 v -1.425781 h -1.558594 v -0.679687 h 2.324219 z m 5.5,-4.699218 h -2.078125 v 5.128906 h -0.773438 v -5.128906 h -2.078125 v -0.6875 h 4.929688 z m 5.230468,5.128906 h -0.773437 v -2.847656 h -2.902344 v 2.847656 h -0.773437 v -5.816406 h 0.773437 v 2.28125 h 2.902344 v -2.28125 h 0.773437 z"
     id="text5"
     style="font-size:8px;font-family:'DejaVu Sans', sans-serif;text-anchor:middle;fill:#fffffe;fill-opacity:1"
     aria-label="LENGTH" />
  <path
     d="m 19.082031,134.0951 h -1.003906 l -1.945313,-2.3125 h -1.089843 v 2.3125 h -0.773438 v -5.81641 h 1.628906 q 0.527344,0 0.878907,0.0703 0.351562,0.0664 0.632812,0.24218 0.316406,0.19922 0.492188,0.50391 0.179687,0.30078 0.179687,0.76562 0,0.62891 -0.316406,1.05469 -0.316406,0.42188 -0.871094,0.63672 z m -1.808594,-4.17969 q 0,-0.25 -0.08984,-0.4414 -0.08594,-0.19532 -0.289063,-0.32813 -0.167969,-0.11328 -0.398437,-0.15625 -0.230469,-0.0469 -0.542969,-0.0469 h -0.910156 v 2.19531 h 0.78125 q 0.367187,0 0.640625,-0.0625 0.273437,-0.0664 0.464843,-0.24219 0.175782,-0.16406 0.257813,-0.375 0.08594,-0.21484 0.08594,-0.54297 z m 6.996094,4.17969 H 23.3125 l -2.757813,-5.20313 v 5.20313 h -0.722656 v -5.81641 h 1.199219 l 2.515625,4.75 v -4.75 h 0.722656 z m 6.460938,-2.90234 q 0,0.79296 -0.347657,1.4375 -0.34375,0.64453 -0.917968,1 -0.398438,0.24609 -0.890625,0.35546 -0.488282,0.10938 -1.289063,0.10938 h -1.46875 v -5.81641 h 1.453125 q 0.851563,0 1.351563,0.125 0.503906,0.1211 0.851562,0.33594 0.59375,0.37109 0.925781,0.98828 0.332032,0.61719 0.332032,1.46485 z m -0.808594,-0.0117 q 0,-0.6836 -0.238281,-1.15235 -0.238282,-0.46875 -0.710938,-0.73828 -0.34375,-0.19531 -0.730469,-0.26953 -0.386718,-0.0781 -0.925781,-0.0781 h -0.726562 v 4.48828 h 0.726562 q 0.558594,0 0.972656,-0.082 0.417969,-0.082 0.765625,-0.30469 0.433594,-0.27735 0.648438,-0.73047 0.21875,-0.45313 0.21875,-1.13281 z"
     id="text6"
     style="font-size:8px;font-family:'DejaVu Sans', sans-serif;text-anchor:middle;fill:#fffffe;fill-opacity:1"
     aria-label="RND" />
  <path
     d="m 17.683592,269.49357 h -2.078124 v 5.12891 h -0.773437 v -5.12891 h -2.078125 v -0.6875 h 4.929686 z m 5.59375,5.12891 h -1.003906 l -1.945312,-2.3125 H 19.23828 v 2.3125 h -0.773438 v -5.81641 h 1.628908 q 0.527342,0 0.878906,0.0703 0.351562,0.0664 0.632812,0.24218 0.316407,0.19922 0.492188,0.50391 0.179687,0.30078 0.179687,0.76562 0,0.62891 -0.316406,1.05469 -0.316406,0.42188 -0.871094,0.63672 z m -1.808592,-4.17969 q 0,-0.25 -0.08984,-0.4414 -0.08594,-0.19532 -0.289063,-0.32813 -0.167968,-0.11328 -0.398437,-0.15625 -0.230469,-0.0469 -0.542969,-0.0469 h -0.910156 v 2.19531 h 0.78125 q 0.367187,0 0.640625,-0.0625 0.273437,-0.0664 0.464844,-0.24219 0.175781,-0.16406 0.257812,-0.375 0.08594,-0.21484 0.08594,-0.54297 z m 4.609375,4.17969 H 23.78125 v -0.59375 h 0.761717 v -4.62891 H 23.78125 v -0.59375 h 2.296875 v 0.59375 h -0.761719 v 4.62891 h 0.761719 z m 6.167968,-0.42969 q -0.476562,0.21875 -1.042968,0.38281 -0.5625,0.16016 -1.089844,0.16016 -0.679688,0 -1.246094,-0.1875 -0.566406,-0.1875 -0.964844,-0.5625 -0.402343,-0.37891 -0.621093,-0.94531 -0.21875,-0.57031 -0.21875,-1.33203 0,-1.39453 0.8125,-2.19922 0.816406,-0.8086 2.238281,-0.8086 0.496094,0 1.011719,0.1211 0.519531,0.11719 1.117187,0.40234 v 0.91797 h -0.07031 q -0.121094,-0.0937 -0.351563,-0.24609 -0.230469,-0.15235 -0.453125,-0.25391 -0.269531,-0.12109 -0.613281,-0.19922 -0.339844,-0.082 -0.773438,-0.082 -0.976562,0 -1.546875,0.62891 -0.566406,0.625 -0.566406,1.69531 0,1.12891 0.59375,1.75781 0.59375,0.625 1.617188,0.625 0.375,0 0.746093,-0.0742 0.375,-0.0742 0.65625,-0.1914 v -1.42578 h -1.558594 v -0.67969 h 2.324218 z"
     id="text8"
     style="font-size:8px;font-family:'DejaVu Sans', sans-serif;text-anchor:middle;fill:#fffffe;fill-opacity:1"
     aria-label="TRIG" />
  <path
     d="m 18.851561,314.37318 q 0.355469,0.39063 0.542969,0.95703 0.191406,0.56641 0.191406,1.28516 0,0.71875 -0.195313,1.28906 -0.191406,0.56641 -0.539062,0.94531 -0.359375,0.39454 -0.851563,0.59375 -0.488281,0.19922 -1.117187,0.19922 -0.613281,0 -1.117188,-0.20312 -0.5,-0.20313 -0.851562,-0.58985 -0.351563,-0.38671 -0.542969,-0.94921 -0.1875,-0.5625 -0.1875,-1.28516 0,-0.71094 0.1875,-1.27344 0.1875,-0.5664 0.546875,-0.96875 0.34375,-0.38281 0.851563,-0.58594 0.511718,-0.20312 1.113281,-0.20312 0.625,0 1.121094,0.20703 0.5,0.20313 0.847656,0.58203 z m -0.07031,2.24219 q 0,-1.13281 -0.507812,-1.74609 -0.507813,-0.61719 -1.386719,-0.61719 -0.886719,0 -1.394531,0.61719 -0.503906,0.61328 -0.503906,1.74609 0,1.14453 0.515625,1.75391 0.515625,0.60546 1.382812,0.60546 0.867188,0 1.378906,-0.60546 0.515625,-0.60938 0.515625,-1.75391 z m 6.410157,0.57031 q 0,0.63281 -0.140625,1.10547 -0.136719,0.46875 -0.453125,0.78125 -0.300782,0.29688 -0.703125,0.43359 -0.402344,0.13672 -0.9375,0.13672 -0.546875,0 -0.953125,-0.14453 -0.40625,-0.14453 -0.683594,-0.42578 -0.316406,-0.32031 -0.457031,-0.77344 -0.136719,-0.45312 -0.136719,-1.11328 v -3.48047 h 0.773437 v 3.51953 q 0,0.47266 0.0625,0.7461 0.06641,0.27344 0.21875,0.49609 0.171875,0.25391 0.464844,0.38281 0.296875,0.12891 0.710938,0.12891 0.417968,0 0.710937,-0.125 0.292969,-0.12891 0.46875,-0.38672 0.152344,-0.22265 0.214844,-0.50781 0.06641,-0.28906 0.06641,-0.71484 v -3.53907 h 0.773438 z m 5.625,-2.79297 H 28.73828 v 5.12891 h -0.773438 v -5.12891 h -2.078125 v -0.6875 h 4.929688 z"
     id="text9"
     style="font-size:8px;font-family:'DejaVu Sans', sans-serif;text-anchor:middle;fill:#fffffe;fill-opacity:1"
     aria-label="OUT" />
  <g
     id="text1"
     style="font-size:12px;font-family:Arial;-inkscape-font-specification:Arial;text-align:center;text-anchor:middle;fill:#fffffe;fill-opacity:1;stroke-width:2"
     aria-label="FM4&#10;DICE">
    <path
       d="m 11.34375,24.457253 v -8.589844 h 5.794922 v 1.013672 h -4.658203 v 2.660156 h 4.03125 v 1.013672 h -4.03125 v 3.902344 z m 7.236328,0 v -8.589844 h 1.710938 l 2.033203,6.082031 q 0.28125,0.849609 0.410156,1.271484 0.146484,-0.46875 0.457031,-1.376953 l 2.056641,-5.976562 h 1.529297 v 8.589844 h -1.095703 v -7.189454 l -2.496094,7.189454 h -1.025391 l -2.484375,-7.3125 v 7.3125 z m 12.984375,0 v -2.056641 h -3.726562 v -0.966797 l 3.919921,-5.566406 h 0.861329 v 5.566406 h 1.160156 v 0.966797 h -1.160156 v 2.056641 z m 0,-3.023438 V 17.560768 L 28.875,21.433815 Z"
       id="path3"
       style="fill:#fffffe;fill-opacity:1" />
    <path
       d="M 8.9501953,39.457253 V 30.867409 H 11.90918 q 1.001953,0 1.529297,0.123047 0.738281,0.169922 1.259765,0.615234 0.679688,0.574219 1.013672,1.470703 0.339844,0.890625 0.339844,2.039063 0,0.978515 -0.228516,1.734375 -0.228515,0.755859 -0.585937,1.253906 -0.357422,0.492187 -0.785157,0.779297 -0.421875,0.28125 -1.02539,0.427734 -0.597656,0.146485 -1.376953,0.146485 z m 1.1367187,-1.013672 h 1.833984 q 0.84961,0 1.330079,-0.158203 0.486328,-0.158204 0.773437,-0.445313 0.404297,-0.404297 0.626953,-1.083984 0.228516,-0.685547 0.228516,-1.658203 0,-1.347657 -0.445313,-2.06836 -0.439453,-0.726562 -1.072265,-0.972656 -0.457032,-0.175781 -1.470703,-0.175781 h -1.804688 z m 7.722656,1.013672 v -8.589844 h 1.136719 v 8.589844 z m 9.269532,-3.011719 1.136718,0.287109 q -0.357422,1.400391 -1.289062,2.138672 -0.925781,0.732422 -2.267578,0.732422 -1.388672,0 -2.261719,-0.5625 -0.867188,-0.568359 -1.324219,-1.640625 -0.451172,-1.072266 -0.451172,-2.302734 0,-1.341797 0.509766,-2.337891 0.515625,-1.001953 1.458984,-1.517578 0.949219,-0.521485 2.085938,-0.521485 1.289062,0 2.167969,0.65625 0.878906,0.65625 1.224609,1.845704 l -1.119141,0.263671 q -0.298828,-0.9375 -0.867187,-1.365234 -0.56836,-0.427734 -1.429688,-0.427734 -0.990234,0 -1.658203,0.474609 -0.662109,0.474609 -0.93164,1.277344 -0.269532,0.796875 -0.269532,1.646484 0,1.095703 0.316407,1.916016 0.322265,0.814453 0.996093,1.21875 0.673828,0.404297 1.458985,0.404297 0.955078,0 1.617187,-0.550782 0.66211,-0.550781 0.896485,-1.634765 z m 2.560546,3.011719 v -8.589844 h 6.210938 v 1.013672 h -5.074219 v 2.630859 h 4.751953 v 1.007813 h -4.751953 v 2.923828 h 5.273438 v 1.013672 z"
       id="path4"
       style="fill:#fffffe;fill-opacity:1" />
  </g>
  <path
     d="m 9.3554688,229.22574 v -5.72656 h 1.9726562 q 0.667969,0 1.019531,0.082 0.492188,0.11328 0.839844,0.41015 0.453125,0.38282 0.675781,0.98047 0.226563,0.59375 0.226563,1.35938 0,0.65234 -0.152344,1.15625 -0.152344,0.5039 -0.390625,0.83593 -0.238281,0.32813 -0.523437,0.51954 -0.28125,0.1875 -0.683594,0.28515 -0.398438,0.0977 -0.917969,0.0977 z m 0.7578122,-0.67578 h 1.222657 q 0.566406,0 0.886718,-0.10547 0.324219,-0.10547 0.515625,-0.29688 0.269532,-0.26953 0.417969,-0.72265 0.152344,-0.45703 0.152344,-1.10547 0,-0.89844 -0.296875,-1.37891 -0.292969,-0.48437 -0.714844,-0.64844 -0.304687,-0.11718 -0.980469,-0.11718 h -1.203125 z m 5.035157,0.67578 v -5.72656 h 4.140624 v 0.67578 H 15.90625 v 1.7539 h 3.167969 v 0.67188 H 15.90625 v 1.94922 h 3.515625 v 0.67578 z m 9.406249,-2.00781 0.757813,0.1914 q -0.238281,0.9336 -0.859375,1.42578 -0.617188,0.48828 -1.511719,0.48828 -0.925781,0 -1.507812,-0.375 -0.578125,-0.3789 -0.882813,-1.09375 Q 20.25,227.1398 20.25,226.31949 q 0,-0.89453 0.339844,-1.5586 0.34375,-0.66796 0.972656,-1.01171 0.632812,-0.34766 1.390625,-0.34766 0.859375,0 1.445312,0.4375 0.585938,0.4375 0.816407,1.23047 l -0.746094,0.17578 q -0.199219,-0.625 -0.578125,-0.91016 -0.378906,-0.28515 -0.953125,-0.28515 -0.660156,0 -1.105469,0.3164 -0.441406,0.31641 -0.621094,0.85157 -0.179687,0.53125 -0.179687,1.09765 0,0.73047 0.210937,1.27735 0.214844,0.54296 0.664063,0.8125 0.449219,0.26953 0.972656,0.26953 0.636719,0 1.078125,-0.36719 0.441406,-0.36719 0.597656,-1.08984 z m 1.0625,2.00781 2.199219,-5.72656 h 0.816406 l 2.34375,5.72656 h -0.863281 l -0.667969,-1.73438 h -2.394531 l -0.628906,1.73438 z m 1.652344,-2.35156 h 1.941406 l -0.597656,-1.58594 q -0.273437,-0.72266 -0.40625,-1.1875 -0.109375,0.55078 -0.308594,1.09375 z m 5.332031,2.35156 v -2.42578 l -2.207031,-3.30078 h 0.921875 l 1.128906,1.72656 q 0.3125,0.48437 0.582032,0.96875 0.257812,-0.44922 0.625,-1.01172 l 1.109375,-1.68359 h 0.882812 l -2.285156,3.30078 v 2.42578 z"
     id="text4"
     style="font-size:8px;font-family:Arial;-inkscape-font-specification:Arial;text-align:center;text-anchor:middle;fill:#fffffe;stroke-width:2"
     aria-label="DECAY" />
  <path
     d="m 14.378906,57.578026 0.714844,-0.0625 q 0.05078,0.429687 0.234375,0.707031 0.1875,0.273438 0.578125,0.445313 0.390625,0.167968 0.878906,0.167968 0.433594,0 0.765625,-0.128906 0.332031,-0.128906 0.492188,-0.351562 0.164062,-0.226563 0.164062,-0.492188 0,-0.269531 -0.15625,-0.46875 -0.15625,-0.203125 -0.515625,-0.339844 -0.230469,-0.08984 -1.019531,-0.277343 Q 15.726563,56.585838 15.410156,56.41787 15,56.203026 14.796875,55.88662 q -0.199219,-0.320313 -0.199219,-0.714844 0,-0.433594 0.246094,-0.808594 0.246094,-0.378906 0.71875,-0.574219 0.472656,-0.195312 1.050781,-0.195312 0.636719,0 1.121094,0.207031 0.488281,0.203125 0.75,0.601563 0.261719,0.398437 0.28125,0.902343 l -0.726563,0.05469 q -0.05859,-0.542969 -0.398437,-0.820313 -0.335938,-0.277343 -0.996094,-0.277343 -0.6875,0 -1.003906,0.253906 -0.3125,0.25 -0.3125,0.605469 0,0.308593 0.222656,0.507812 0.21875,0.199219 1.140625,0.410156 0.925781,0.207032 1.269531,0.363282 0.5,0.230468 0.738282,0.585937 0.238281,0.351563 0.238281,0.8125 0,0.457031 -0.261719,0.863281 -0.261719,0.402344 -0.753906,0.628907 -0.488281,0.222656 -1.101563,0.222656 -0.777343,0 -1.304687,-0.226563 -0.523437,-0.226562 -0.824219,-0.679687 -0.296875,-0.457031 -0.3125,-1.03125 z m 5.609375,1.839844 v -5.726563 h 4.140625 v 0.675781 h -3.382812 v 1.753907 h 3.167968 v 0.671875 h -3.167968 v 1.949218 h 3.515625 v 0.675782 z m 9.660156,-0.613282 q 0.527344,0.363282 0.972657,0.53125 l -0.222657,0.527344 q -0.617187,-0.222656 -1.230468,-0.703125 -0.636719,0.355469 -1.40625,0.355469 -0.777344,0 -1.410157,-0.375 -0.632812,-0.375 -0.976562,-1.054688 -0.339844,-0.679687 -0.339844,-1.53125 0,-0.847656 0.34375,-1.542968 0.34375,-0.695313 0.976563,-1.058594 0.636718,-0.363281 1.421875,-0.363281 0.792968,0 1.429687,0.378906 0.636719,0.375 0.96875,1.054687 0.335938,0.675782 0.335938,1.527344 0,0.707031 -0.214844,1.273438 -0.214844,0.5625 -0.648438,0.980468 z m -1.667968,-0.96875 q 0.65625,0.183594 1.082031,0.546875 0.667969,-0.609375 0.667969,-1.832031 0,-0.695312 -0.238282,-1.214844 -0.234375,-0.519531 -0.691406,-0.804687 -0.453125,-0.289063 -1.019531,-0.289063 -0.847656,0 -1.40625,0.582032 -0.558594,0.578125 -0.558594,1.730468 0,1.117188 0.550781,1.714844 0.554688,0.597656 1.414063,0.597656 0.40625,0 0.765625,-0.152343 -0.355469,-0.230469 -0.75,-0.328125 z"
     id="text7"
     style="font-size:8px;font-family:Arial;-inkscape-font-specification:Arial;text-align:center;text-anchor:middle;fill:#fffffe;stroke-width:2"
     aria-label="SEQ" />
  <path
     d="m 11.733849,190.86716 0.714843,-0.0625 q 0.05078,0.42968 0.234375,0.70703 0.1875,0.27344 0.578125,0.44531 0.390625,0.16797 0.878907,0.16797 0.433593,0 0.765625,-0.12891 0.332031,-0.1289 0.492187,-0.35156 0.164063,-0.22656 0.164063,-0.49219 0,-0.26953 -0.15625,-0.46875 -0.15625,-0.20312 -0.515625,-0.33984 -0.230469,-0.0898 -1.019532,-0.27734 -0.789062,-0.19141 -1.105468,-0.35938 -0.410157,-0.21484 -0.613282,-0.53125 -0.199218,-0.32031 -0.199218,-0.71484 0,-0.4336 0.246093,-0.8086 0.246094,-0.3789 0.71875,-0.57422 0.472657,-0.19531 1.050782,-0.19531 0.636718,0 1.121093,0.20703 0.488282,0.20313 0.75,0.60157 0.261719,0.39843 0.28125,0.90234 l -0.726562,0.0547 q -0.05859,-0.54297 -0.398438,-0.82032 -0.335937,-0.27734 -0.996093,-0.27734 -0.6875,0 -1.003907,0.25391 -0.3125,0.25 -0.3125,0.60547 0,0.30859 0.222657,0.50781 0.21875,0.19922 1.140625,0.41015 0.925781,0.20704 1.269531,0.36329 0.5,0.23046 0.738281,0.58593 0.238281,0.35157 0.238281,0.8125 0,0.45703 -0.261718,0.86328 -0.261719,0.40235 -0.753907,0.62891 -0.488281,0.22266 -1.101562,0.22266 -0.777344,0 -1.304688,-0.22657 -0.523437,-0.22656 -0.824218,-0.67968 -0.296875,-0.45703 -0.3125,-1.03125 z m 5.609375,1.83984 v -5.72656 h 4.140625 v 0.67578 h -3.382813 v 1.75391 h 3.167969 v 0.67187 h -3.167969 v 1.94922 h 3.515625 v 0.67578 z m 5.335937,0 v -5.72656 h 4.140625 v 0.67578 h -3.382812 v 1.75391 h 3.167968 v 0.67187 h -3.167968 v 1.94922 h 3.515625 v 0.67578 z m 5.320313,0 v -5.72656 h 1.972656 q 0.667969,0 1.019531,0.082 0.492188,0.11328 0.839844,0.41016 0.453125,0.38281 0.675781,0.98046 0.226563,0.59375 0.226563,1.35938 0,0.65234 -0.152344,1.15625 -0.152344,0.50391 -0.390625,0.83594 -0.238281,0.32812 -0.523438,0.51953 -0.28125,0.1875 -0.683593,0.28515 -0.398438,0.0977 -0.917969,0.0977 z m 0.757812,-0.67578 h 1.222656 q 0.566407,0 0.886719,-0.10547 0.324219,-0.10547 0.515625,-0.29687 0.269531,-0.26954 0.417969,-0.72266 0.152344,-0.45703 0.152344,-1.10547 0,-0.89844 -0.296875,-1.37891 -0.292969,-0.48437 -0.714844,-0.64843 -0.304688,-0.11719 -0.980469,-0.11719 h -1.203125 z"
     id="text2"
     style="font-size:8px;font-family:Arial;-inkscape-font-specification:Arial;text-align:center;text-anchor:middle;fill:#fffffe;stroke-width:2"
     aria-label="SEED" />
</svg>
