<?xml version="1.0" encoding="UTF-8" standalone="no"?>
<svg
   width="160"
   height="380"
   viewBox="0 0 160 380"
   version="1.1"
   id="svg38"
   sodipodi:docname="GlitchThing.svg"
   xmlns:inkscape="http://www.inkscape.org/namespaces/inkscape"
   xmlns:sodipodi="http://sodipodi.sourceforge.net/DTD/sodipodi-0.dtd"
   xmlns="http://www.w3.org/2000/svg"
   xmlns:svg="http://www.w3.org/2000/svg">
  <sodipodi:namedview
     id="namedview38"
     pagecolor="#ffffff"
     bordercolor="#000000"
     borderopacity="0.25"
     inkscape:showpageshadow="2"
     inkscape:pageopacity="0.0"
     inkscape:pagecheckerboard="0"
     inkscape:deskcolor="#d1d1d1" />
  <defs
     id="defs5">
    <linearGradient
       id="bg"
       x1="0"
       y1="0"
       x2="0"
       y2="1">
      <stop
         offset="0%"
         stop-color="#242424"
         id="stop1" />
      <stop
         offset="100%"
         stop-color="#181818"
         id="stop2" />
    </linearGradient>
    <linearGradient
       id="stripe"
       x1="0"
       y1="0"
       x2="1"
       y2="0">
      <stop
         offset="0%"
         stop-color="#4fc3f7"
         stop-opacity="0.0"
         id="stop3" />
      <stop
         offset="50%"
         stop-color="#4fc3f7"
         stop-opacity="0.35"
         id="stop4" />
      <stop
         offset="100%"
         stop-color="#4fc3f7"
         stop-opacity="0.0"
         id="stop5" />
    </linearGradient>
    <style
       id="style5">
      .title { font-family: &quot;DejaVu Sans Mono&quot;, monospace; font-size: 16px; font-weight: 700; letter-spacing: 2px; fill: #f0f0f0; text-anchor: middle; }
      .subtitle { font-family: &quot;DejaVu Sans Mono&quot;, monospace; font-size: 8px; fill: #8bc9dd; text-anchor: middle; letter-spacing: 1px; }
      .label { font-family: &quot;DejaVu Sans Mono&quot;, monospace; font-size: 8px; fill: #cfcfcf; text-anchor: middle; }
      .micro { font-family: &quot;DejaVu Sans Mono&quot;, monospace; font-size: 6.5px; fill: #9ea4a8; text-anchor: middle; letter-spacing: 0.5px; }
      .ring { fill: none; stroke: #5a5a5a; stroke-width: 0.8; }
      .tinyring { fill: none; stroke: #666666; stroke-width: 0.6; }
      .groupbox { fill: none; stroke: #3a3a3a; stroke-width: 0.8; }
    </style>
  </defs>
  <rect
     x="0"
     y="0"
     width="160"
     height="380"
     fill="url(#bg)"
     id="rect5" />
  <rect
     x="0"
     y="0"
     width="160"
     height="2"
     fill="#4fc3f7"
     id="rect6" />
  <rect
     x="0"
     y="378"
     width="160"
     height="2"
     fill="#4fc3f7"
     id="rect7" />
  <rect
     x="0"
     y="30"
     width="160"
     height="18"
     fill="url(#stripe)"
     id="rect8" />
  <path
     d="m 25.542969,23.21875 q -1.351563,0.992187 -2.992188,0.992187 -2.148437,0 -3.257812,-1.453125 -1.109375,-1.460937 -1.109375,-4.265625 0,-2.710937 1.070312,-4.218749 1.078125,-1.507813 3.296875,-1.507813 0.796875,0 1.578125,0.203125 0.78125,0.203125 1.257813,0.539063 l -0.421875,1.007812 q -1.101563,-0.625 -2.414063,-0.625 -1.515625,0 -2.265625,1.109375 -0.742187,1.109375 -0.742187,3.492187 0,4.59375 3.007812,4.59375 1.132813,0 1.710938,-0.476562 v -2.71875 H 22.277344 V 18.78125 h 3.265625 z M 36.792969,24 h -6 V 12.976563 h 1.28125 v 9.906249 h 4.71875 z m 10.851562,0 h -5.007812 v -1.117188 h 1.898437 V 14.09375 h -1.898437 v -1.117187 h 5.007812 v 1.117187 h -1.828125 v 8.789062 h 1.828125 z M 60.847656,14.015625 H 57.449219 V 24 h -1.273438 v -9.984375 h -3.414062 v -1.039062 h 8.085937 z M 71.964844,23.3125 q -1.296875,0.898437 -3.007813,0.898437 -2.140625,0 -3.257812,-1.46875 -1.109375,-1.46875 -1.109375,-4.25 0,-2.687499 1.078125,-4.203124 1.078125,-1.523438 3.289062,-1.523438 0.796875,0 1.578125,0.203125 0.78125,0.203125 1.257813,0.539063 l -0.421875,1.007812 q -1.101563,-0.625 -2.414063,-0.625 -1.523437,0 -2.265625,1.109375 -0.742187,1.101562 -0.742187,3.492187 0,4.59375 3.007812,4.59375 1.273438,0 2.609375,-0.78125 z M 83.167969,24 h -1.28125 V 18.53125 H 78.113281 V 24 h -1.28125 V 12.976563 h 1.28125 v 4.429687 h 3.773438 v -4.429687 h 1.28125 z M 95.652344,14.015625 H 92.253906 V 24 h -1.273437 v -9.984375 h -3.414063 v -1.039062 h 8.085938 z M 106.37109,24 h -1.28125 v -5.46875 h -3.77343 V 24 h -1.28125 V 12.976563 h 1.28125 v 4.429687 h 3.77343 v -4.429687 h 1.28125 z m 10.88282,0 h -5.00782 v -1.117188 h 1.89844 V 14.09375 h -1.89844 v -1.117187 h 5.00782 v 1.117187 h -1.82813 v 8.789062 h 1.82813 z m 12.47656,0 h -1.42188 l -3.95312,-8.703125 V 24 h -1.28125 V 12.976563 h 1.42969 l 3.96875,8.624999 v -8.624999 h 1.25781 z m 11.82812,-0.78125 q -1.35156,0.992187 -2.99218,0.992187 -2.14844,0 -3.25782,-1.453125 -1.10937,-1.460937 -1.10937,-4.265625 0,-2.710937 1.07031,-4.218749 1.07813,-1.507813 3.29688,-1.507813 0.79687,0 1.57812,0.203125 0.78125,0.203125 1.25781,0.539063 l -0.42187,1.007812 q -1.10156,-0.625 -2.41406,-0.625 -1.51563,0 -2.26563,1.109375 -0.74219,1.109375 -0.74219,3.492187 0,4.59375 3.00782,4.59375 1.13281,0 1.71093,-0.476562 v -2.71875 h -1.98437 V 18.78125 h 3.26562 z"
     id="text8"
     class="title"
     style="font-weight:700;font-size:16px;font-family:'DejaVu Sans Mono', monospace;letter-spacing:2px;text-anchor:middle;fill:#f0f0f0"
     aria-label="GLITCHTHING" />
  <path
     d="m 12.166016,42.609375 q -0.675782,0.496094 -1.496094,0.496094 -1.0742189,0 -1.6289064,-0.726563 -0.5546875,-0.730469 -0.5546875,-2.132812 0,-1.355469 0.5351563,-2.109375 0.5390625,-0.753907 1.6484376,-0.753907 0.398437,0 0.789062,0.101563 0.390625,0.101562 0.628907,0.269531 l -0.210938,0.503906 q -0.550781,-0.3125 -1.207031,-0.3125 -0.7578126,0 -1.1328126,0.554688 -0.3710938,0.554687 -0.3710938,1.746094 0,2.296875 1.5039064,2.296875 0.566406,0 0.855469,-0.238282 v -1.359375 h -0.992188 v -0.554687 h 1.632813 z M 17.791016,43 h -3 v -5.511719 h 0.640625 v 4.953125 h 2.359375 z m 5.425781,0 h -2.503906 v -0.558594 h 0.949218 v -4.394531 h -0.949218 v -0.558594 h 2.503906 v 0.558594 h -0.914063 v 4.394531 h 0.914063 z m 6.601562,-4.992188 H 28.119141 V 43 h -0.636719 v -4.992188 h -1.707031 v -0.519531 h 4.042968 z m 5.558594,4.648438 q -0.648437,0.449219 -1.503906,0.449219 -1.070313,0 -1.628906,-0.734375 -0.554688,-0.734375 -0.554688,-2.125 0,-1.34375 0.539063,-2.101563 0.539062,-0.761719 1.644531,-0.761719 0.398437,0 0.789062,0.101563 0.390625,0.101562 0.628907,0.269531 l -0.210938,0.503906 q -0.550781,-0.3125 -1.207031,-0.3125 -0.761719,0 -1.132813,0.554688 -0.371093,0.550781 -0.371093,1.746094 0,2.296875 1.503906,2.296875 0.636719,0 1.304687,-0.390625 z M 40.978516,43 H 40.337891 V 40.265625 H 38.451172 V 43 h -0.640625 v -5.511719 h 0.640625 v 2.214844 h 1.886719 v -2.214844 h 0.640625 z m 8.433593,-5.511719 h 1.085938 q 1.082031,0 1.734375,0.738281 0.652344,0.734375 0.652344,2.019532 0,1.3125 -0.664063,2.035156 Q 51.560547,43 50.525391,43 h -1.113282 z m 0.640625,4.953125 h 0.453125 q 0.785157,0 1.242188,-0.582031 0.457031,-0.582031 0.457031,-1.613281 0,-1.023438 -0.460937,-1.609375 -0.457032,-0.589844 -1.238282,-0.589844 H 50.052734 Z M 58.021484,43 h -2.503906 v -0.558594 h 0.949219 v -4.394531 h -0.949219 v -0.558594 h 2.503906 v 0.558594 h -0.914062 v 4.394531 h 0.914062 z m 5.75,-4.902344 q -0.492187,-0.167969 -0.933593,-0.167969 -0.5,0 -0.816407,0.230469 -0.3125,0.226563 -0.3125,0.648438 0,0.5 0.824219,0.878906 0.609375,0.28125 0.804688,0.390625 0.199218,0.109375 0.402343,0.300781 0.203125,0.191406 0.324219,0.453125 0.125,0.257813 0.125,0.582031 0,0.804688 -0.542969,1.25 -0.539062,0.441407 -1.273437,0.441407 -0.710938,0 -1.246094,-0.28125 l 0.132813,-0.550782 q 0.628906,0.285157 1.097656,0.285157 0.546875,0 0.875,-0.28125 0.332031,-0.285157 0.332031,-0.78125 0,-0.367188 -0.214844,-0.621094 -0.214843,-0.257813 -0.792968,-0.523438 -0.59375,-0.273437 -0.769532,-0.371093 -0.171875,-0.101563 -0.34375,-0.277344 -0.171875,-0.175781 -0.265625,-0.394531 -0.09375,-0.21875 -0.09375,-0.476563 0,-0.683594 0.492188,-1.066406 0.492187,-0.382813 1.246094,-0.382813 0.550781,0 1.09375,0.167969 z m 5.800782,0 q -0.492188,-0.167969 -0.933594,-0.167969 -0.5,0 -0.816406,0.230469 -0.3125,0.226563 -0.3125,0.648438 0,0.5 0.824218,0.878906 0.609375,0.28125 0.804688,0.390625 0.199219,0.109375 0.402344,0.300781 0.203125,0.191406 0.324218,0.453125 0.125,0.257813 0.125,0.582031 0,0.804688 -0.542968,1.25 -0.539063,0.441407 -1.273438,0.441407 -0.710937,0 -1.246094,-0.28125 l 0.132813,-0.550782 q 0.628906,0.285157 1.097656,0.285157 0.546875,0 0.875,-0.28125 0.332031,-0.285157 0.332031,-0.78125 0,-0.367188 -0.214843,-0.621094 -0.214844,-0.257813 -0.792969,-0.523438 -0.59375,-0.273437 -0.769531,-0.371093 -0.171875,-0.101563 -0.34375,-0.277344 -0.171875,-0.175781 -0.265625,-0.394531 -0.09375,-0.21875 -0.09375,-0.476563 0,-0.683594 0.492187,-1.066406 0.492188,-0.382813 1.246094,-0.382813 0.550781,0 1.09375,0.167969 z m 4.617187,-0.714844 q 0.925781,0 1.410156,0.734375 0.488282,0.730469 0.488282,2.128907 0,1.390625 -0.484375,2.125 -0.484375,0.734375 -1.414063,0.734375 -0.921875,0 -1.410156,-0.730469 -0.484375,-0.734375 -0.484375,-2.128906 0,-1.394532 0.484375,-2.128907 0.484375,-0.734375 1.410156,-0.734375 z m 0,5.160157 q 1.21875,0 1.21875,-2.296875 0,-2.300782 -1.21875,-2.300782 -0.59375,0 -0.90625,0.597657 -0.308594,0.59375 -0.308594,1.703125 0,1.121093 0.308594,1.710937 0.308594,0.585938 0.90625,0.585938 z M 81.599609,43 h -3 v -5.511719 h 0.640625 v 4.953125 h 2.359375 z m 6.375,-5.511719 L 86.177734,43 h -0.769531 l -1.800781,-5.511719 h 0.671875 l 1.511719,4.769531 1.519531,-4.769531 z M 93.080078,43 h -2.878906 v -5.511719 h 2.855469 v 0.558594 h -2.214844 v 1.707031 h 2.128906 V 40.3125 h -2.128906 v 2.128906 h 2.238281 z m 11.898442,0 h -0.61719 v -4.726563 l -0.83203,2.261719 h -0.60547 L 102.0918,38.273437 V 43 h -0.61719 v -5.511719 h 0.83203 L 103.22852,40 l 0.91796,-2.511719 h 0.83204 z m 4.01562,-5.617188 q 0.92578,0 1.41016,0.734375 0.48828,0.730469 0.48828,2.128907 0,1.390625 -0.48438,2.125 -0.48437,0.734375 -1.41406,0.734375 -0.92187,0 -1.41016,-0.730469 -0.48437,-0.734375 -0.48437,-2.128906 0,-1.394532 0.48437,-2.128907 0.48438,-0.734375 1.41016,-0.734375 z m 0,5.160157 q 1.21875,0 1.21875,-2.296875 0,-2.300782 -1.21875,-2.300782 -0.59375,0 -0.90625,0.597657 -0.30859,0.59375 -0.30859,1.703125 0,1.121093 0.30859,1.710937 0.30859,0.585938 0.90625,0.585938 z m 4.22656,-5.054688 h 1.08594 q 1.08203,0 1.73438,0.738281 0.65234,0.734375 0.65234,2.019532 0,1.3125 -0.66406,2.035156 Q 115.36914,43 114.33398,43 h -1.11328 z m 0.64063,4.953125 h 0.45312 q 0.78516,0 1.24219,-0.582031 0.45703,-0.582031 0.45703,-1.613281 0,-1.023438 -0.46094,-1.609375 -0.45703,-0.589844 -1.23828,-0.589844 h -0.45312 z m 8.32812,-1.175781 q 0,0.957031 -0.39062,1.398437 -0.38672,0.441407 -1.17969,0.441407 -1.59766,0 -1.59766,-1.824219 v -3.792969 h 0.64063 v 3.734375 q 0,1.320313 0.95703,1.320313 0.48047,0 0.70313,-0.3125 0.22656,-0.3125 0.22656,-1.015625 v -3.726563 h 0.64062 z M 128.00586,43 h -3 v -5.511719 h 0.64062 v 4.953125 h 2.35938 z m 6.39453,0 h -0.67187 l -0.60938,-1.929688 h -1.80859 L 130.69336,43 h -0.66406 l 1.80078,-5.511719 h 0.76953 z m -1.46484,-2.488281 -0.72266,-2.28125 -0.71875,2.28125 z m 7.09765,-2.503907 h -1.69922 V 43 h -0.63671 v -4.992188 h -1.70704 v -0.519531 h 4.04297 z m 3.76563,-0.625 q 0.92578,0 1.41015,0.734375 0.48829,0.730469 0.48829,2.128907 0,1.390625 -0.48438,2.125 -0.48437,0.734375 -1.41406,0.734375 -0.92188,0 -1.41016,-0.730469 -0.48437,-0.734375 -0.48437,-2.128906 0,-1.394532 0.48437,-2.128907 0.48438,-0.734375 1.41016,-0.734375 z m 0,5.160157 q 1.21875,0 1.21875,-2.296875 0,-2.300782 -1.21875,-2.300782 -0.59375,0 -0.90625,0.597657 -0.3086,0.59375 -0.3086,1.703125 0,1.121093 0.3086,1.710937 0.30859,0.585938 0.90625,0.585938 z M 151.79492,43 h -0.80078 l -1.61719,-2.503906 h -0.71093 V 43 h -0.64063 v -5.511719 h 1.55859 q 0.78516,0 1.23829,0.382813 0.45703,0.378906 0.45703,1.058593 0,0.503907 -0.33203,0.898438 -0.33204,0.390625 -0.91407,0.53125 z m -3.1289,-3.0625 h 0.80859 q 0.50781,0 0.82422,-0.273438 0.3164,-0.277343 0.3164,-0.695312 0,-0.921875 -1.125,-0.921875 h -0.82421 z"
     id="text9"
     class="subtitle"
     style="font-size:8px;font-family:'DejaVu Sans Mono', monospace;letter-spacing:1px;text-anchor:middle;fill:#8bc9dd"
     aria-label="GLITCH DISSOLVE MODULATOR" />
  <!-- Main parameter section -->
  <rect
     class="groupbox"
     x="8"
     y="50"
     width="144"
     height="128"
     rx="4"
     id="rect9" />
  <!-- Row 1: RATE, GLITCH, DISSOLVE -->
  <circle
     class="ring"
     cx="32"
     cy="68"
     r="14"
     id="circle9" />
  <path
     d="M 26.984375,50 H 26.183594 L 24.566406,47.496094 H 23.855469 V 50 h -0.640625 v -5.511719 h 1.558593 q 0.785157,0 1.238282,0.382813 0.457031,0.378906 0.457031,1.058593 0,0.503907 -0.332031,0.898438 -0.332032,0.390625 -0.914063,0.53125 z m -3.128906,-3.0625 h 0.808593 q 0.507813,0 0.824219,-0.273438 0.316406,-0.277343 0.316406,-0.695312 0,-0.921875 -1.125,-0.921875 H 23.855469 Z M 31.792969,50 H 31.121094 L 30.511719,48.070312 H 28.703125 L 28.085937,50 h -0.664062 l 1.800781,-5.511719 h 0.769531 z m -1.464844,-2.488281 -0.722656,-2.28125 -0.71875,2.28125 z m 6.097656,-2.503907 H 34.726562 V 50 h -0.636718 v -4.992188 h -1.707032 v -0.519531 h 4.042969 z M 40.679687,50 h -2.878906 v -5.511719 h 2.855469 v 0.558594 h -2.214844 v 1.707031 h 2.128906 V 47.3125 h -2.128906 v 2.128906 h 2.238281 z"
     id="text10"
     class="label"
     style="font-size:8px;font-family:'DejaVu Sans Mono', monospace;text-anchor:middle;fill:#cfcfcf"
     aria-label="RATE" />
  <circle
     class="tinyring"
     cx="32"
     cy="96"
     r="6"
     id="circle10" />
  <path
     d="m 31.248535,107.7207 q -0.526855,0.36499 -1.221924,0.36499 -0.869629,0 -1.323486,-0.59668 -0.450684,-0.59668 -0.450684,-1.72656 0,-1.0918 0.437989,-1.70752 0.437988,-0.61889 1.336181,-0.61889 0.323731,0 0.641114,0.0825 0.317382,0.0825 0.510986,0.219 l -0.171387,0.40942 q -0.44751,-0.2539 -0.980713,-0.2539 -0.618896,0 -0.92041,0.45068 -0.301514,0.44751 -0.301514,1.4187 0,1.86621 1.221924,1.86621 0.517334,0 1.060059,-0.31738 z M 35.966553,103.52173 34.506592,108 h -0.625244 l -1.463135,-4.47827 h 0.545898 l 1.228272,3.87524 1.234619,-3.87524 z"
     id="text11"
     class="micro"
     style="font-size:6.5px;font-family:'DejaVu Sans Mono', monospace;letter-spacing:0.5px;text-anchor:middle;fill:#9ea4a8"
     aria-label="CV" />
  <circle
     class="ring"
     cx="80"
     cy="68"
     r="14"
     id="circle11" />
  <path
     d="m 69.773437,49.609375 q -0.675781,0.496094 -1.496093,0.496094 -1.074219,0 -1.628907,-0.726563 -0.554687,-0.730469 -0.554687,-2.132812 0,-1.355469 0.535156,-2.109375 0.539063,-0.753907 1.648438,-0.753907 0.398437,0 0.789062,0.101563 0.390625,0.101562 0.628906,0.269531 l -0.210937,0.503906 q -0.550781,-0.3125 -1.207031,-0.3125 -0.757813,0 -1.132813,0.554688 -0.371094,0.554687 -0.371094,1.746094 0,2.296875 1.503907,2.296875 0.566406,0 0.855468,-0.238282 v -1.359375 h -0.992187 v -0.554687 h 1.632812 z M 74.398437,50 h -3 v -5.511719 h 0.640625 v 4.953125 h 2.359375 z m 4.425782,0 h -2.503907 v -0.558594 h 0.949219 v -4.394531 h -0.949219 v -0.558594 h 2.503907 v 0.558594 h -0.914063 v 4.394531 h 0.914063 z m 5.601562,-4.992188 H 82.726562 V 50 h -0.636718 v -4.992188 h -1.707032 v -0.519531 h 4.042969 z m 4.558594,4.648438 q -0.648438,0.449219 -1.503906,0.449219 -1.070313,0 -1.628907,-0.734375 -0.554687,-0.734375 -0.554687,-2.125 0,-1.34375 0.539062,-2.101563 0.539063,-0.761719 1.644532,-0.761719 0.398437,0 0.789062,0.101563 0.390625,0.101562 0.628906,0.269531 L 88.6875,45.257812 q -0.550781,-0.3125 -1.207031,-0.3125 -0.761719,0 -1.132813,0.554688 -0.371094,0.550781 -0.371094,1.746094 0,2.296875 1.503907,2.296875 0.636718,0 1.304687,-0.390625 z M 93.585937,50 H 92.945312 V 47.265625 H 91.058594 V 50 h -0.640625 v -5.511719 h 0.640625 v 2.214844 h 1.886718 v -2.214844 h 0.640625 z"
     id="text12"
     class="label"
     style="font-size:8px;font-family:'DejaVu Sans Mono', monospace;text-anchor:middle;fill:#cfcfcf"
     aria-label="GLITCH" />
  <circle
     class="tinyring"
     cx="80"
     cy="96"
     r="6"
     id="circle12" />
  <path
     d="m 79.248535,107.7207 q -0.526855,0.36499 -1.221924,0.36499 -0.869629,0 -1.323486,-0.59668 -0.450684,-0.59668 -0.450684,-1.72656 0,-1.0918 0.437989,-1.70752 0.437988,-0.61889 1.336181,-0.61889 0.323731,0 0.641114,0.0825 0.317382,0.0825 0.510986,0.219 l -0.171387,0.40942 q -0.44751,-0.2539 -0.980713,-0.2539 -0.618896,0 -0.92041,0.45068 -0.301514,0.44751 -0.301514,1.4187 0,1.86621 1.221924,1.86621 0.517334,0 1.060059,-0.31738 z M 83.966553,103.52173 82.506592,108 h -0.625244 l -1.463135,-4.47827 h 0.545898 l 1.228272,3.87524 1.234619,-3.87524 z"
     id="text13"
     class="micro"
     style="font-size:6.5px;font-family:'DejaVu Sans Mono', monospace;letter-spacing:0.5px;text-anchor:middle;fill:#9ea4a8"
     aria-label="CV" />
  <circle
     class="ring"
     cx="128"
     cy="68"
     r="14"
     id="circle13" />
  <path
     d="m 109.61328,44.488281 h 1.08594 q 1.08203,0 1.73437,0.738281 0.65235,0.734375 0.65235,2.019532 0,1.3125 -0.66406,2.035156 Q 111.76172,50 110.72656,50 h -1.11328 z m 0.64063,4.953125 h 0.45312 q 0.78516,0 1.24219,-0.582031 0.45703,-0.582031 0.45703,-1.613281 0,-1.023438 -0.46094,-1.609375 -0.45703,-0.589844 -1.23828,-0.589844 h -0.45312 z M 117.22266,50 h -2.50391 v -0.558594 h 0.94922 v -4.394531 h -0.94922 v -0.558594 h 2.50391 v 0.558594 h -0.91407 v 4.394531 h 0.91407 z m 4.75,-4.902344 q -0.49219,-0.167969 -0.9336,-0.167969 -0.5,0 -0.8164,0.230469 -0.3125,0.226563 -0.3125,0.648438 0,0.5 0.82422,0.878906 0.60937,0.28125 0.80468,0.390625 0.19922,0.109375 0.40235,0.300781 0.20312,0.191406 0.32422,0.453125 0.125,0.257813 0.125,0.582031 0,0.804688 -0.54297,1.25 -0.53907,0.441407 -1.27344,0.441407 -0.71094,0 -1.24609,-0.28125 l 0.13281,-0.550782 q 0.6289,0.285157 1.09765,0.285157 0.54688,0 0.875,-0.28125 0.33204,-0.285157 0.33204,-0.78125 0,-0.367188 -0.21485,-0.621094 -0.21484,-0.257813 -0.79297,-0.523438 -0.59375,-0.273437 -0.76953,-0.371093 -0.17187,-0.101563 -0.34375,-0.277344 -0.17187,-0.175781 -0.26562,-0.394531 -0.0937,-0.21875 -0.0937,-0.476563 0,-0.683594 0.49218,-1.066406 0.49219,-0.382813 1.2461,-0.382813 0.55078,0 1.09375,0.167969 z m 4.80078,0 q -0.49219,-0.167969 -0.9336,-0.167969 -0.5,0 -0.8164,0.230469 -0.3125,0.226563 -0.3125,0.648438 0,0.5 0.82422,0.878906 0.60937,0.28125 0.80468,0.390625 0.19922,0.109375 0.40235,0.300781 0.20312,0.191406 0.32422,0.453125 0.125,0.257813 0.125,0.582031 0,0.804688 -0.54297,1.25 -0.53906,0.441407 -1.27344,0.441407 -0.71094,0 -1.24609,-0.28125 l 0.13281,-0.550782 q 0.62891,0.285157 1.09766,0.285157 0.54687,0 0.875,-0.28125 0.33203,-0.285157 0.33203,-0.78125 0,-0.367188 -0.21485,-0.621094 -0.21484,-0.257813 -0.79297,-0.523438 -0.59375,-0.273437 -0.76953,-0.371093 -0.17187,-0.101563 -0.34375,-0.277344 -0.17187,-0.175781 -0.26562,-0.394531 -0.0937,-0.21875 -0.0937,-0.476563 0,-0.683594 0.49219,-1.066406 0.49218,-0.382813 1.24609,-0.382813 0.55078,0 1.09375,0.167969 z m 3.61718,-0.714844 q 0.92579,0 1.41016,0.734375 0.48828,0.730469 0.48828,2.128907 0,1.390625 -0.48437,2.125 -0.48438,0.734375 -1.41407,0.734375 -0.92187,0 -1.41015,-0.730469 -0.48438,-0.734375 -0.48438,-2.128906 0,-1.394532 0.48438,-2.128907 0.48437,-0.734375 1.41015,-0.734375 z m 0,5.160157 q 1.21875,0 1.21875,-2.296875 0,-2.300782 -1.21875,-2.300782 -0.59375,0 -0.90625,0.597657 -0.30859,0.59375 -0.30859,1.703125 0,1.121093 0.30859,1.710937 0.3086,0.585938 0.90625,0.585938 z M 136.80078,50 h -3 v -5.511719 h 0.64063 v 4.953125 h 2.35937 z m 5.375,-5.511719 L 140.37891,50 h -0.76954 l -1.80078,-5.511719 h 0.67188 l 1.51172,4.769531 1.51953,-4.769531 z M 146.28125,50 h -2.87891 v -5.511719 h 2.85547 v 0.558594 h -2.21484 v 1.707031 h 2.1289 V 47.3125 h -2.1289 v 2.128906 h 2.23828 z"
     id="text14"
     class="label"
     style="font-size:8px;font-family:'DejaVu Sans Mono', monospace;text-anchor:middle;fill:#cfcfcf"
     aria-label="DISSOLVE" />
  <circle
     class="tinyring"
     cx="128"
     cy="96"
     r="6"
     id="circle14" />
  <path
     d="m 127.24854,107.7207 q -0.52686,0.36499 -1.22193,0.36499 -0.86963,0 -1.32348,-0.59668 -0.45069,-0.59668 -0.45069,-1.72656 0,-1.0918 0.43799,-1.70752 0.43799,-0.61889 1.33618,-0.61889 0.32373,0 0.64111,0.0825 0.31739,0.0825 0.51099,0.219 l -0.17139,0.40942 q -0.44751,-0.2539 -0.98071,-0.2539 -0.6189,0 -0.92041,0.45068 -0.30151,0.44751 -0.30151,1.4187 0,1.86621 1.22192,1.86621 0.51734,0 1.06006,-0.31738 z m 4.71801,-4.19897 L 130.50659,108 h -0.62524 l -1.46314,-4.47827 h 0.5459 l 1.22827,3.87524 1.23462,-3.87524 z"
     id="text15"
     class="micro"
     style="font-size:6.5px;font-family:'DejaVu Sans Mono', monospace;letter-spacing:0.5px;text-anchor:middle;fill:#9ea4a8"
     aria-label="CV" />
  <!-- Row 2: DEPTH, CHANCE, SMEAR -->
  <circle
     class="ring"
     cx="32"
     cy="135"
     r="14"
     id="circle15" />
  <path
     d="m 20.814453,111.48828 h 1.085938 q 1.082031,0 1.734375,0.73828 0.652343,0.73438 0.652343,2.01953 0,1.3125 -0.664062,2.03516 Q 22.962891,117 21.927734,117 h -1.113281 z m 0.640625,4.95313 h 0.453125 q 0.785156,0 1.242188,-0.58203 0.457031,-0.58204 0.457031,-1.61329 0,-1.02343 -0.460938,-1.60937 -0.457031,-0.58984 -1.238281,-0.58984 H 21.455078 Z M 28.677734,117 h -2.878906 v -5.51172 h 2.855469 v 0.5586 h -2.214844 v 1.70703 h 2.128906 v 0.55859 h -2.128906 v 2.12891 h 2.238281 z m 1.921875,-5.51172 h 1.398438 q 0.792969,0 1.269531,0.39844 0.476563,0.39844 0.476563,1.09766 0,0.70312 -0.476563,1.125 -0.472656,0.41796 -1.242187,0.41796 H 31.240234 V 117 h -0.640625 z m 0.640625,2.48047 h 0.695313 q 1.128906,0 1.128906,-0.94531 0,-0.4375 -0.308594,-0.70703 -0.304687,-0.26953 -0.789062,-0.26953 h -0.726563 z m 7.585938,-1.96094 H 37.126953 V 117 h -0.636719 v -4.99219 h -1.707031 v -0.51953 h 4.042969 z M 43.185547,117 h -0.640625 v -2.73437 H 40.658203 V 117 h -0.640625 v -5.51172 h 0.640625 v 2.21485 h 1.886719 v -2.21485 h 0.640625 z"
     id="text16"
     class="label"
     style="font-size:8px;font-family:'DejaVu Sans Mono', monospace;text-anchor:middle;fill:#cfcfcf"
     aria-label="DEPTH" />
  <circle
     class="tinyring"
     cx="32"
     cy="163"
     r="6"
     id="circle16" />
  <path
     d="m 31.248535,174.7207 q -0.526855,0.36499 -1.221924,0.36499 -0.869629,0 -1.323486,-0.59668 -0.450684,-0.59668 -0.450684,-1.72656 0,-1.0918 0.437989,-1.70752 0.437988,-0.61889 1.336181,-0.61889 0.323731,0 0.641114,0.0825 0.317382,0.0825 0.510986,0.219 l -0.171387,0.40942 q -0.44751,-0.2539 -0.980713,-0.2539 -0.618896,0 -0.92041,0.45068 -0.301514,0.44751 -0.301514,1.4187 0,1.86621 1.221924,1.86621 0.517334,0 1.060059,-0.31738 z M 35.966553,170.52173 34.506592,175 h -0.625244 l -1.463135,-4.47827 h 0.545898 l 1.228272,3.87524 1.234619,-3.87524 z"
     id="text17"
     class="micro"
     style="font-size:6.5px;font-family:'DejaVu Sans Mono', monospace;letter-spacing:0.5px;text-anchor:middle;fill:#9ea4a8"
     aria-label="CV" />
  <circle
     class="ring"
     cx="80"
     cy="135"
     r="14"
     id="circle17" />
  <path
     d="m 69.78125,116.65625 q -0.648438,0.44922 -1.503906,0.44922 -1.070313,0 -1.628907,-0.73438 -0.554687,-0.73437 -0.554687,-2.125 0,-1.34375 0.539062,-2.10156 0.539063,-0.76172 1.644532,-0.76172 0.398437,0 0.789062,0.10157 0.390625,0.10156 0.628906,0.26953 l -0.210937,0.5039 q -0.550781,-0.3125 -1.207031,-0.3125 -0.761719,0 -1.132813,0.55469 -0.371094,0.55078 -0.371094,1.74609 0,2.29688 1.503907,2.29688 0.636718,0 1.304687,-0.39063 z M 74.382812,117 h -0.640625 v -2.73437 H 71.855469 V 117 h -0.640625 v -5.51172 h 0.640625 v 2.21485 h 1.886718 v -2.21485 h 0.640625 z m 5.410157,0 h -0.671875 l -0.609375,-1.92969 H 76.703125 L 76.085937,117 h -0.664062 l 1.800781,-5.51172 h 0.769531 z m -1.464844,-2.48828 -0.722656,-2.28125 -0.71875,2.28125 z M 84.0625,117 H 83.351562 L 81.375,112.64844 V 117 h -0.640625 v -5.51172 h 0.714844 l 1.984375,4.3125 v -4.3125 H 84.0625 Z m 4.921875,-0.34375 q -0.648438,0.44922 -1.503906,0.44922 -1.070313,0 -1.628907,-0.73438 -0.554687,-0.73437 -0.554687,-2.125 0,-1.34375 0.539062,-2.10156 0.539063,-0.76172 1.644532,-0.76172 0.398437,0 0.789062,0.10157 0.390625,0.10156 0.628906,0.26953 l -0.210937,0.5039 q -0.550781,-0.3125 -1.207031,-0.3125 -0.761719,0 -1.132813,0.55469 -0.371094,0.55078 -0.371094,1.74609 0,2.29688 1.503907,2.29688 0.636718,0 1.304687,-0.39063 z M 93.480469,117 h -2.878907 v -5.51172 h 2.855469 v 0.5586 h -2.214844 v 1.70703 h 2.128907 v 0.55859 h -2.128907 v 2.12891 h 2.238282 z"
     id="text18"
     class="label"
     style="font-size:8px;font-family:'DejaVu Sans Mono', monospace;text-anchor:middle;fill:#cfcfcf"
     aria-label="CHANCE" />
  <circle
     class="tinyring"
     cx="80"
     cy="163"
     r="6"
     id="circle18" />
  <path
     d="m 79.248535,174.7207 q -0.526855,0.36499 -1.221924,0.36499 -0.869629,0 -1.323486,-0.59668 -0.450684,-0.59668 -0.450684,-1.72656 0,-1.0918 0.437989,-1.70752 0.437988,-0.61889 1.336181,-0.61889 0.323731,0 0.641114,0.0825 0.317382,0.0825 0.510986,0.219 l -0.171387,0.40942 q -0.44751,-0.2539 -0.980713,-0.2539 -0.618896,0 -0.92041,0.45068 -0.301514,0.44751 -0.301514,1.4187 0,1.86621 1.221924,1.86621 0.517334,0 1.060059,-0.31738 z M 83.966553,170.52173 82.506592,175 h -0.625244 l -1.463135,-4.47827 h 0.545898 l 1.228272,3.87524 1.234619,-3.87524 z"
     id="text19"
     class="micro"
     style="font-size:6.5px;font-family:'DejaVu Sans Mono', monospace;letter-spacing:0.5px;text-anchor:middle;fill:#9ea4a8"
     aria-label="CV" />
  <circle
     class="ring"
     cx="128"
     cy="135"
     r="14"
     id="circle19" />
  <path
     d="m 119.57227,112.09766 q -0.49219,-0.16797 -0.9336,-0.16797 -0.5,0 -0.8164,0.23047 -0.3125,0.22656 -0.3125,0.64843 0,0.5 0.82421,0.87891 0.60938,0.28125 0.80469,0.39063 0.19922,0.10937 0.40235,0.30078 0.20312,0.1914 0.32421,0.45312 0.125,0.25781 0.125,0.58203 0,0.80469 -0.54296,1.25 -0.53907,0.44141 -1.27344,0.44141 -0.71094,0 -1.2461,-0.28125 l 0.13282,-0.55078 q 0.6289,0.28515 1.09765,0.28515 0.54688,0 0.875,-0.28125 0.33203,-0.28515 0.33203,-0.78125 0,-0.36718 -0.21484,-0.62109 -0.21484,-0.25781 -0.79297,-0.52344 -0.59375,-0.27343 -0.76953,-0.37109 -0.17187,-0.10156 -0.34375,-0.27734 -0.17187,-0.17579 -0.26562,-0.39454 -0.0937,-0.21875 -0.0937,-0.47656 0,-0.68359 0.49218,-1.0664 0.49219,-0.38282 1.2461,-0.38282 0.55078,0 1.09375,0.16797 z M 124.97461,117 h -0.61719 v -4.72656 l -0.83203,2.26172 h -0.60547 l -0.83203,-2.26172 V 117 h -0.61719 v -5.51172 h 0.83203 l 0.92188,2.51172 0.91797,-2.51172 h 0.83203 z m 4.50391,0 h -2.87891 v -5.51172 h 2.85547 v 0.5586 h -2.21485 v 1.70703 h 2.12891 v 0.55859 h -2.12891 v 2.12891 h 2.23829 z m 5.51562,0 h -0.67187 l -0.60938,-1.92969 H 131.9043 L 131.28711,117 h -0.66406 l 1.80078,-5.51172 h 0.76953 z m -1.46484,-2.48828 -0.72266,-2.28125 -0.71875,2.28125 z M 139.78711,117 h -0.80078 l -1.61719,-2.50391 H 136.6582 V 117 h -0.64062 v -5.51172 h 1.55859 q 0.78516,0 1.23828,0.38281 0.45703,0.37891 0.45703,1.0586 0,0.5039 -0.33203,0.89844 -0.33203,0.39062 -0.91406,0.53125 z m -3.12891,-3.0625 h 0.8086 q 0.50781,0 0.82422,-0.27344 0.3164,-0.27734 0.3164,-0.69531 0,-0.92187 -1.125,-0.92187 h -0.82422 z"
     id="text20"
     class="label"
     style="font-size:8px;font-family:'DejaVu Sans Mono', monospace;text-anchor:middle;fill:#cfcfcf"
     aria-label="SMEAR" />
  <circle
     class="tinyring"
     cx="128"
     cy="163"
     r="6"
     id="circle20" />
  <path
     d="m 127.24854,174.7207 q -0.52686,0.36499 -1.22193,0.36499 -0.86963,0 -1.32348,-0.59668 -0.45069,-0.59668 -0.45069,-1.72656 0,-1.0918 0.43799,-1.70752 0.43799,-0.61889 1.33618,-0.61889 0.32373,0 0.64111,0.0825 0.31739,0.0825 0.51099,0.219 l -0.17139,0.40942 q -0.44751,-0.2539 -0.98071,-0.2539 -0.6189,0 -0.92041,0.45068 -0.30151,0.44751 -0.30151,1.4187 0,1.86621 1.22192,1.86621 0.51734,0 1.06006,-0.31738 z m 4.71801,-4.19897 L 130.50659,175 h -0.62524 l -1.46314,-4.47827 h 0.5459 l 1.22827,3.87524 1.23462,-3.87524 z"
     id="text21"
     class="micro"
     style="font-size:6.5px;font-family:'DejaVu Sans Mono', monospace;letter-spacing:0.5px;text-anchor:middle;fill:#9ea4a8"
     aria-label="CV" />
  <!-- Bottom small controls -->
  <rect
     class="groupbox"
     x="8"
     y="186"
     width="144"
     height="56"
     rx="4"
     id="rect21" />
  <path
     d="m 44.037109,197 h -0.501464 v -3.84033 l -0.676026,1.83764 H 42.367676 L 41.69165,193.15967 V 197 h -0.501464 v -4.47827 h 0.676025 l 0.749023,2.04077 0.74585,-2.04077 h 0.676025 z m 3.953125,0 h -2.034423 v -0.45386 h 0.77124 v -3.57055 h -0.77124 v -0.45386 h 2.034423 v 0.45386 h -0.742675 v 3.57055 h 0.742675 z m 5.146485,0 H 52.559082 L 51.422852,195.16553 50.296143,197 h -0.577637 l 1.431396,-2.28198 -1.425048,-2.19629 h 0.596679 l 1.101319,1.77417 1.110839,-1.77417 h 0.571289 l -1.402832,2.19629 z m 8.20459,-4.56396 -1.945557,4.64965 h -0.466553 l 1.936035,-4.64965 z m 8.89331,0.53955 h -1.853515 v 1.46313 h 1.688476 v 0.45386 H 68.381104 V 197 h -0.520508 v -4.47827 h 2.374023 z M 74.394043,197 h -2.034424 v -0.45386 h 0.77124 v -3.57055 h -0.77124 v -0.45386 h 2.034424 v 0.45386 h -0.742676 v 3.57055 h 0.742676 z m 4.705322,0 h -2.4375 v -4.47827 h 0.520508 v 4.02441 h 1.916992 z m 4.746582,-4.05615 H 82.465332 V 197 h -0.517334 v -4.05615 h -1.386963 v -0.42212 h 3.284912 z M 87.802246,197 h -2.339111 v -4.47827 h 2.320068 v 0.45386 h -1.79956 v 1.38696 h 1.729736 v 0.45386 h -1.729736 v 1.72973 h 1.818603 z m 4.975098,0 h -0.650635 l -1.313965,-2.03442 H 90.235107 V 197 H 89.7146 v -4.47827 h 1.266357 q 0.637939,0 1.006104,0.31103 0.371337,0.30786 0.371337,0.86011 0,0.40942 -0.269775,0.72998 -0.269775,0.31738 -0.742676,0.43164 z m -2.542237,-2.48828 h 0.656983 q 0.412597,0 0.669678,-0.22217 0.25708,-0.22534 0.25708,-0.56494 0,-0.74902 -0.914063,-0.74902 h -0.669678 z m 10.711913,-2.07568 -1.945555,4.64965 h -0.466553 l 1.936038,-4.64965 z M 110.04663,197 h -0.50146 v -3.84033 l -0.67603,1.83764 h -0.49194 l -0.67603,-1.83764 V 197 h -0.50146 v -4.47827 h 0.67602 l 0.74903,2.04077 0.74585,-2.04077 h 0.67602 z m 2.9502,-4.56396 q 0.75219,0 1.14575,0.59667 0.39673,0.59351 0.39673,1.72974 0,1.12988 -0.39356,1.72656 -0.39355,0.59668 -1.14892,0.59668 -0.74903,0 -1.14576,-0.5935 -0.39355,-0.59668 -0.39355,-1.72974 0,-1.13306 0.39355,-1.72974 0.39356,-0.59667 1.14576,-0.59667 z m 0,4.19262 q 0.99023,0 0.99023,-1.86621 0,-1.86938 -0.99023,-1.86938 -0.48243,0 -0.73633,0.48559 -0.25073,0.48242 -0.25073,1.38379 0,0.91089 0.25073,1.39014 0.25073,0.47607 0.73633,0.47607 z m 3.12158,-4.10693 h 0.88232 q 0.87915,0 1.40918,0.59985 0.53003,0.59668 0.53003,1.64087 0,1.06641 -0.53955,1.65357 Q 117.86401,197 117.02295,197 h -0.90454 z m 0.52051,4.02441 h 0.36816 q 0.63794,0 1.00928,-0.4729 0.37134,-0.4729 0.37134,-1.31079 0,-0.83154 -0.37452,-1.30762 -0.37133,-0.47924 -1.0061,-0.47924 h -0.36816 z"
     id="text22"
     class="micro"
     style="font-size:6.5px;font-family:'DejaVu Sans Mono', monospace;letter-spacing:0.5px;text-anchor:middle;fill:#9ea4a8"
     aria-label="MIX / FILTER / MOD" />
  <circle
     class="tinyring"
     cx="32"
     cy="209"
     r="7"
     id="circle22" />
  <path
     d="m 29.04187,198 h -0.501465 v -3.84033 l -0.676025,1.83764 h -0.491943 l -0.676026,-1.83764 V 198 h -0.501465 v -4.47827 h 0.676026 l 0.749023,2.04077 0.74585,-2.04077 h 0.676025 z m 3.953125,0 h -2.034424 v -0.45386 h 0.771241 v -3.57055 h -0.771241 v -0.45386 h 2.034424 v 0.45386 h -0.742676 v 3.57055 h 0.742676 z m 5.146484,0 H 37.563843 L 36.427612,196.16553 35.300903,198 h -0.577636 l 1.431396,-2.28198 -1.425049,-2.19629 h 0.59668 l 1.101318,1.77417 1.11084,-1.77417 h 0.571289 l -1.402832,2.19629 z"
     id="text23"
     class="micro"
     style="font-size:6.5px;font-family:'DejaVu Sans Mono', monospace;letter-spacing:0.5px;text-anchor:middle;fill:#9ea4a8"
     aria-label="MIX" />
  <circle
     class="tinyring"
     cx="32"
     cy="232"
     r="6"
     id="circle23" />
  <path
     d="m 31.248535,243.7207 q -0.526855,0.36499 -1.221924,0.36499 -0.869629,0 -1.323486,-0.59668 -0.450684,-0.59668 -0.450684,-1.72656 0,-1.0918 0.437989,-1.70752 0.437988,-0.61889 1.336181,-0.61889 0.323731,0 0.641114,0.0825 0.317382,0.0825 0.510986,0.219 l -0.171387,0.40942 q -0.44751,-0.2539 -0.980713,-0.2539 -0.618896,0 -0.92041,0.45068 -0.301514,0.44751 -0.301514,1.4187 0,1.86621 1.221924,1.86621 0.517334,0 1.060059,-0.31738 z M 35.966553,239.52173 34.506592,244 h -0.625244 l -1.463135,-4.47827 h 0.545898 l 1.228272,3.87524 1.234619,-3.87524 z"
     id="text24"
     class="micro"
     style="font-size:6.5px;font-family:'DejaVu Sans Mono', monospace;letter-spacing:0.5px;text-anchor:middle;fill:#9ea4a8"
     aria-label="CV" />
  <circle
     class="tinyring"
     cx="64"
     cy="209"
     r="7"
     id="circle24" />
  <path
     d="m 54.234619,193.97559 h -1.853515 v 1.46313 h 1.688476 v 0.45386 H 52.381104 V 198 h -0.520508 v -4.47827 h 2.374023 z M 58.394043,198 h -2.034424 v -0.45386 h 0.77124 v -3.57055 h -0.77124 v -0.45386 h 2.034424 v 0.45386 h -0.742676 v 3.57055 h 0.742676 z m 4.705322,0 h -2.4375 v -4.47827 h 0.520508 v 4.02441 h 1.916992 z m 4.746582,-4.05615 H 66.465332 V 198 h -0.517334 v -4.05615 h -1.386963 v -0.42212 h 3.284912 z M 71.802246,198 h -2.339111 v -4.47827 h 2.320068 v 0.45386 h -1.79956 v 1.38696 h 1.729736 v 0.45386 h -1.729736 v 1.72973 h 1.818603 z m 4.975098,0 h -0.650635 l -1.313965,-2.03442 H 74.235107 V 198 H 73.7146 v -4.47827 h 1.266357 q 0.637939,0 1.006104,0.31103 0.371337,0.30786 0.371337,0.86011 0,0.40942 -0.269775,0.72998 -0.269775,0.31738 -0.742676,0.43164 z m -2.542237,-2.48828 h 0.656983 q 0.412597,0 0.669678,-0.22217 0.25708,-0.22534 0.25708,-0.56494 0,-0.74902 -0.914063,-0.74902 h -0.669678 z"
     id="text25"
     class="micro"
     style="font-size:6.5px;font-family:'DejaVu Sans Mono', monospace;letter-spacing:0.5px;text-anchor:middle;fill:#9ea4a8"
     aria-label="FILTER" />
  <circle
     class="tinyring"
     cx="64"
     cy="232"
     r="6"
     id="circle25" />
  <path
     d="m 63.248535,243.7207 q -0.526855,0.36499 -1.221924,0.36499 -0.869629,0 -1.323486,-0.59668 -0.450684,-0.59668 -0.450684,-1.72656 0,-1.0918 0.437989,-1.70752 0.437988,-0.61889 1.336181,-0.61889 0.323731,0 0.641114,0.0825 0.317382,0.0825 0.510986,0.219 l -0.171387,0.40942 q -0.44751,-0.2539 -0.980713,-0.2539 -0.618896,0 -0.92041,0.45068 -0.301514,0.44751 -0.301514,1.4187 0,1.86621 1.221924,1.86621 0.517334,0 1.060059,-0.31738 z M 67.966553,239.52173 66.506592,244 h -0.625244 l -1.463135,-4.47827 h 0.545898 l 1.228272,3.87524 1.234619,-3.87524 z"
     id="text26"
     class="micro"
     style="font-size:6.5px;font-family:'DejaVu Sans Mono', monospace;letter-spacing:0.5px;text-anchor:middle;fill:#9ea4a8"
     aria-label="CV" />
  <circle
     class="tinyring"
     cx="96"
     cy="209"
     r="7"
     id="circle26" />
  <path
     d="m 88.152466,194.01685 q -0.399903,-0.13648 -0.758545,-0.13648 -0.40625,0 -0.66333,0.18726 -0.253906,0.18408 -0.253906,0.52685 0,0.40625 0.669677,0.71411 0.495117,0.22852 0.653809,0.31739 0.161865,0.0889 0.326904,0.24438 0.165039,0.15552 0.263428,0.36817 0.101562,0.20947 0.101562,0.4729 0,0.6538 -0.441162,1.01562 -0.437988,0.35864 -1.034668,0.35864 -0.577636,0 -1.012451,-0.22851 l 0.10791,-0.44751 q 0.510987,0.23169 0.891846,0.23169 0.444336,0 0.710938,-0.22852 0.269775,-0.23169 0.269775,-0.63476 0,-0.29834 -0.174561,-0.50464 -0.17456,-0.20948 -0.644287,-0.4253 -0.482422,-0.22216 -0.625244,-0.30151 -0.139648,-0.0825 -0.279297,-0.22534 -0.139648,-0.14282 -0.21582,-0.32056 -0.07617,-0.17773 -0.07617,-0.3872 0,-0.55542 0.399902,-0.86646 0.399903,-0.31103 1.012452,-0.31103 0.447509,0 0.888671,0.13647 z M 92.886353,198 h -0.520508 v -2.22168 H 90.832886 V 198 h -0.520508 v -4.47827 h 0.520508 v 1.79956 h 1.532959 v -1.79956 h 0.520508 z m 4.895751,0 h -0.545898 l -0.495117,-1.56787 H 95.271606 L 94.770142,198 h -0.539551 l 1.463135,-4.47827 h 0.625244 z m -1.190185,-2.02173 -0.587158,-1.85351 -0.583985,1.85351 z m 2.670898,-2.45654 h 1.136233 q 0.64428,0 1.03149,0.32373 0.38721,0.32373 0.38721,0.89184 0,0.57129 -0.38721,0.91407 -0.38403,0.3396 -1.00928,0.3396 H 99.783325 V 198 h -0.520508 z m 0.520508,2.01538 h 0.564945 q 0.91723,0 0.91723,-0.76807 0,-0.35547 -0.25073,-0.57446 -0.24756,-0.21899 -0.64111,-0.21899 H 99.783325 Z M 106.00256,198 h -2.33911 v -4.47827 h 2.32007 v 0.45386 h -1.79956 v 1.38696 h 1.72974 v 0.45386 h -1.72974 v 1.72973 h 1.8186 z"
     id="text27"
     class="micro"
     style="font-size:6.5px;font-family:'DejaVu Sans Mono', monospace;letter-spacing:0.5px;text-anchor:middle;fill:#9ea4a8"
     aria-label="SHAPE" />
  <circle
     class="tinyring"
     cx="128"
     cy="209"
     r="7"
     id="circle27" />
  <path
     d="m 122.84155,198 h -0.50146 v -3.84033 l -0.67603,1.83764 h -0.49194 l -0.67603,-1.83764 V 198 h -0.50146 v -4.47827 h 0.67602 l 0.74903,2.04077 0.74585,-2.04077 h 0.67602 z m 2.9502,-4.56396 q 0.7522,0 1.14575,0.59667 0.39673,0.59351 0.39673,1.72974 0,1.12988 -0.39356,1.72656 -0.39355,0.59668 -1.14892,0.59668 -0.74903,0 -1.14575,-0.5935 -0.39356,-0.59668 -0.39356,-1.72974 0,-1.13306 0.39356,-1.72974 0.39355,-0.59667 1.14575,-0.59667 z m 0,4.19262 q 0.99023,0 0.99023,-1.86621 0,-1.86938 -0.99023,-1.86938 -0.48242,0 -0.73633,0.48559 -0.25073,0.48242 -0.25073,1.38379 0,0.91089 0.25073,1.39014 0.25073,0.47607 0.73633,0.47607 z m 3.12158,-4.10693 h 0.88232 q 0.87915,0 1.40918,0.59985 0.53003,0.59668 0.53003,1.64087 0,1.06641 -0.53955,1.65357 Q 130.65894,198 129.81787,198 h -0.90454 z m 0.52051,4.02441 h 0.36816 q 0.63794,0 1.00928,-0.4729 0.37134,-0.4729 0.37134,-1.31079 0,-0.83154 -0.37451,-1.30762 -0.37134,-0.47924 -1.00611,-0.47924 h -0.36816 z M 135.80225,198 h -2.33912 v -4.47827 h 2.32007 v 0.45386 h -1.79956 v 1.38696 h 1.72974 v 0.45386 h -1.72974 v 1.72973 h 1.81861 z"
     id="text28"
     class="micro"
     style="font-size:6.5px;font-family:'DejaVu Sans Mono', monospace;letter-spacing:0.5px;text-anchor:middle;fill:#9ea4a8"
     aria-label="MODE" />
  <!-- Aux / filter mode -->
  <rect
     class="groupbox"
     x="8"
     y="248"
     width="144"
     height="44"
     rx="4"
     id="rect28" />
  <path
     d="m 77.38147,259 h -0.545899 l -0.495117,-1.56787 H 74.870972 L 74.369507,259 h -0.539551 l 1.463135,-4.47827 h 0.625244 z m -1.190186,-2.02173 -0.587158,-1.85351 -0.583984,1.85351 z m 5.095703,0.61255 q 0,0.77759 -0.317383,1.13623 -0.314208,0.35864 -0.958496,0.35864 -1.298095,0 -1.298095,-1.48217 v -3.08179 h 0.520508 v 3.03418 q 0,1.07275 0.777587,1.07275 0.390381,0 0.571289,-0.2539 0.184082,-0.25391 0.184082,-0.8252 v -3.02783 h 0.520508 z M 86.141479,259 H 85.563843 L 84.427612,257.16553 83.300903,259 h -0.577636 l 1.431396,-2.28198 -1.425049,-2.19629 h 0.59668 l 1.101318,1.77417 1.11084,-1.77417 h 0.571289 l -1.402832,2.19629 z"
     id="text29"
     class="micro"
     style="font-size:6.5px;font-family:'DejaVu Sans Mono', monospace;letter-spacing:0.5px;text-anchor:middle;fill:#9ea4a8"
     aria-label="AUX" />
  <path
     d="m 90.686035,272 h -0.520508 v -2.22168 H 88.632568 V 272 h -0.520507 v -4.47827 h 0.520507 v 1.79956 h 1.532959 v -1.79956 h 0.520508 z m 3.105713,-4.56396 q 0.752197,0 1.145752,0.59667 0.396729,0.59351 0.396729,1.72974 0,1.12988 -0.393555,1.72656 -0.393555,0.59668 -1.148926,0.59668 -0.749023,0 -1.145752,-0.5935 -0.393555,-0.59668 -0.393555,-1.72974 0,-1.13306 0.393555,-1.72974 0.393555,-0.59667 1.145752,-0.59667 z m 0,4.19262 q 0.990234,0 0.990234,-1.86621 0,-1.86938 -0.990234,-1.86938 -0.482422,0 -0.736328,0.48559 -0.250733,0.48242 -0.250733,1.38379 0,0.91089 0.250733,1.39014 0.250732,0.47607 0.736328,0.47607 z M 99.5,272 h -2.4375 v -4.47827 h 0.520508 v 4.02441 H 99.5 Z m 1.81396,-4.47827 h 0.88233 q 0.87915,0 1.40918,0.59985 0.53003,0.59668 0.53003,1.64087 0,1.06641 -0.53955,1.65357 Q 103.05957,272 102.21851,272 h -0.90455 z m 0.52051,4.02441 h 0.36817 q 0.63794,0 1.00927,-0.4729 0.37134,-0.4729 0.37134,-1.31079 0,-0.83154 -0.37451,-1.30762 -0.37134,-0.47924 -1.0061,-0.47924 h -0.36817 z"
     id="text30"
     class="micro"
     style="font-size:6.5px;font-family:'DejaVu Sans Mono', monospace;letter-spacing:0.5px;text-anchor:middle;fill:#9ea4a8"
     aria-label="HOLD" />
  <path
     d="m 120.48572,272 h -0.52051 v -2.22168 h -1.53296 V 272 h -0.52051 v -4.47827 h 0.52051 v 1.79956 h 1.53296 v -1.79956 h 0.52051 z m 1.97583,-4.47827 h 1.13623 q 0.64429,0 1.03149,0.32373 0.38721,0.32373 0.38721,0.89184 0,0.57129 -0.38721,0.91407 -0.38403,0.3396 -1.00927,0.3396 h -0.63794 V 272 h -0.52051 z m 0.52051,2.01538 h 0.56494 q 0.91723,0 0.91723,-0.76807 0,-0.35547 -0.25073,-0.57446 -0.24756,-0.21899 -0.64111,-0.21899 h -0.59033 z m 6.16211,-2.10107 -1.94556,4.64965 h -0.46655 l 1.93603,-4.64965 z M 133.70032,272 h -2.4375 v -4.47827 h 0.52051 v 4.02441 h 1.91699 z m 1.96313,-4.47827 h 1.13623 q 0.64429,0 1.0315,0.32373 0.3872,0.32373 0.3872,0.89184 0,0.57129 -0.3872,0.91407 -0.38404,0.3396 -1.00928,0.3396 h -0.63794 V 272 h -0.52051 z m 0.52051,2.01538 h 0.56494 q 0.91724,0 0.91724,-0.76807 0,-0.35547 -0.25073,-0.57446 -0.24756,-0.21899 -0.64112,-0.21899 h -0.59033 z"
     id="text31"
     class="micro"
     style="font-size:6.5px;font-family:'DejaVu Sans Mono', monospace;letter-spacing:0.5px;text-anchor:middle;fill:#9ea4a8"
     aria-label="HP/LP" />
  <!-- Audio I/O section -->
  <rect
     class="groupbox"
     x="8"
     y="301"
     width="144"
     height="67"
     rx="4"
     id="rect31" />
  <path
     d="M 53.177979,312 H 52.63208 l -0.495117,-1.56787 H 50.66748 L 50.166016,312 h -0.539551 l 1.463135,-4.47827 h 0.625244 z m -1.190186,-2.02173 -0.587158,-1.85351 -0.583985,1.85351 z m 5.095703,0.61255 q 0,0.77759 -0.317383,1.13623 -0.314209,0.35864 -0.958496,0.35864 -1.298096,0 -1.298096,-1.48217 v -3.08179 h 0.520508 v 3.03418 q 0,1.07275 0.777588,1.07275 0.390381,0 0.571289,-0.2539 0.184082,-0.25391 0.184082,-0.8252 v -3.02783 h 0.520508 z m 1.82666,-3.06909 h 0.882324 q 0.879151,0 1.40918,0.59985 0.530029,0.59668 0.530029,1.64087 0,1.06641 -0.53955,1.65357 Q 60.655762,312 59.814697,312 h -0.904541 z m 0.520508,4.02441 h 0.368164 q 0.63794,0 1.009277,-0.4729 0.371338,-0.4729 0.371338,-1.31079 0,-0.83154 -0.374511,-1.30762 -0.371338,-0.47924 -1.006104,-0.47924 H 59.430664 Z M 65.592773,312 H 63.55835 v -0.45386 h 0.77124 v -3.57055 h -0.77124 v -0.45386 h 2.034423 v 0.45386 h -0.742675 v 3.57055 h 0.742675 z m 3.397706,-4.56396 q 0.752197,0 1.145751,0.59667 0.396729,0.59351 0.396729,1.72974 0,1.12988 -0.393555,1.72656 -0.393554,0.59668 -1.148925,0.59668 -0.749024,0 -1.145752,-0.5935 -0.393555,-0.59668 -0.393555,-1.72974 0,-1.13306 0.393555,-1.72974 0.393554,-0.59667 1.145752,-0.59667 z m 0,4.19262 q 0.990234,0 0.990234,-1.86621 0,-1.86938 -0.990234,-1.86938 -0.482422,0 -0.736329,0.48559 -0.250732,0.48242 -0.250732,1.38379 0,0.91089 0.250732,1.39014 0.250733,0.47607 0.736329,0.47607 z M 78.794678,312 h -2.034424 v -0.45386 h 0.77124 v -3.57055 h -0.77124 v -0.45386 h 2.034424 v 0.45386 h -0.742676 v 3.57055 h 0.742676 z m 4.756103,0 h -0.577636 l -1.605958,-3.53564 V 312 H 80.84668 v -4.47827 h 0.58081 l 1.612305,3.5039 v -3.5039 h 0.510986 z m 8.594971,-4.56396 -1.945557,4.64965 h -0.466552 l 1.936035,-4.64965 z m 7.64917,0 q 0.752198,0 1.145748,0.59667 0.39673,0.59351 0.39673,1.72974 0,1.12988 -0.39355,1.72656 -0.39356,0.59668 -1.148928,0.59668 -0.749024,0 -1.145752,-0.5935 -0.393555,-0.59668 -0.393555,-1.72974 0,-1.13306 0.393555,-1.72974 0.393555,-0.59667 1.145752,-0.59667 z m 0,4.19262 q 0.990238,0 0.990238,-1.86621 0,-1.86938 -0.990238,-1.86938 -0.482422,0 -0.736328,0.48559 -0.250733,0.48242 -0.250733,1.38379 0,0.91089 0.250733,1.39014 0.250732,0.47607 0.736328,0.47607 z m 5.695558,-1.03784 q 0,0.77759 -0.31738,1.13623 -0.31421,0.35864 -0.9585,0.35864 -1.2981,0 -1.2981,-1.48217 v -3.08179 h 0.52051 v 3.03418 q 0,1.07275 0.77759,1.07275 0.39038,0 0.57129,-0.2539 0.18408,-0.25391 0.18408,-0.8252 v -3.02783 h 0.52051 z m 4.75928,-2.64697 h -1.38062 V 312 h -0.51733 v -4.05615 h -1.38697 v -0.42212 h 3.28492 z"
     id="text32"
     class="micro"
     style="font-size:6.5px;font-family:'DejaVu Sans Mono', monospace;letter-spacing:0.5px;text-anchor:middle;fill:#9ea4a8"
     aria-label="AUDIO IN / OUT" />
  <path
     d="m 26.69873,331 h -2.4375 v -4.47827 h 0.520508 v 4.02441 h 1.916992 z m 8.496582,0 h -2.034423 v -0.45386 h 0.77124 v -3.57055 h -0.77124 v -0.45386 h 2.034423 v 0.45386 h -0.742675 v 3.57055 h 0.742675 z m 4.756104,0 h -0.577637 l -1.605957,-3.53564 V 331 h -0.520508 v -4.47827 h 0.580811 l 1.612305,3.5039 v -3.5039 h 0.510986 z"
     id="text33"
     class="micro"
     style="font-size:6.5px;font-family:'DejaVu Sans Mono', monospace;letter-spacing:0.5px;text-anchor:middle;fill:#9ea4a8"
     aria-label="L IN" />
  <path
     d="M 75.174805,331 H 74.52417 l -1.313965,-2.03442 H 72.632568 V 331 h -0.520507 v -4.47827 h 1.266357 q 0.637939,0 1.006103,0.31103 0.371338,0.30786 0.371338,0.86011 0,0.40942 -0.269775,0.72998 -0.269775,0.31738 -0.742676,0.43164 z m -2.542237,-2.48828 h 0.656983 q 0.412597,0 0.669678,-0.22217 0.25708,-0.22534 0.25708,-0.56494 0,-0.74902 -0.914063,-0.74902 H 72.632568 Z M 83.195312,331 h -2.034423 v -0.45386 h 0.77124 v -3.57055 h -0.77124 v -0.45386 h 2.034423 v 0.45386 h -0.742675 v 3.57055 h 0.742675 z m 4.756104,0 h -0.577637 l -1.605957,-3.53564 V 331 h -0.520508 v -4.47827 h 0.580811 l 1.612305,3.5039 v -3.5039 h 0.510986 z"
     id="text34"
     class="micro"
     style="font-size:6.5px;font-family:'DejaVu Sans Mono', monospace;letter-spacing:0.5px;text-anchor:middle;fill:#9ea4a8"
     aria-label="R IN" />
  <path
     d="m 125.38147,331 h -0.5459 l -0.49512,-1.56787 h -1.46948 L 122.36951,331 h -0.53955 l 1.46313,-4.47827 h 0.62524 z m -1.19019,-2.02173 -0.58715,-1.85351 -0.58399,1.85351 z m 5.09571,0.61255 q 0,0.77759 -0.31739,1.13623 -0.3142,0.35864 -0.95849,0.35864 -1.2981,0 -1.2981,-1.48217 v -3.08179 h 0.52051 v 3.03418 q 0,1.07275 0.77759,1.07275 0.39038,0 0.57129,-0.2539 0.18408,-0.25391 0.18408,-0.8252 v -3.02783 h 0.52051 z M 134.14148,331 h -0.57764 L 132.42761,329.16553 131.3009,331 h -0.57763 l 1.43139,-2.28198 -1.42505,-2.19629 h 0.59668 l 1.10132,1.77417 1.11084,-1.77417 h 0.57129 l -1.40283,2.19629 z"
     id="text35"
     class="micro"
     style="font-size:6.5px;font-family:'DejaVu Sans Mono', monospace;letter-spacing:0.5px;text-anchor:middle;fill:#9ea4a8"
     aria-label="AUX" />
  <path
     d="m 24.498413,362 h -2.4375 v -4.47827 h 0.520508 v 4.02441 h 1.916992 z m 7.493652,-4.56396 q 0.752198,0 1.145752,0.59667 0.396729,0.59351 0.396729,1.72974 0,1.12988 -0.393555,1.72656 -0.393554,0.59668 -1.148926,0.59668 -0.749023,0 -1.145752,-0.5935 -0.393554,-0.59668 -0.393554,-1.72974 0,-1.13306 0.393554,-1.72974 0.393555,-0.59667 1.145752,-0.59667 z m 0,4.19262 q 0.990235,0 0.990235,-1.86621 0,-1.86938 -0.990235,-1.86938 -0.482421,0 -0.736328,0.48559 -0.250732,0.48242 -0.250732,1.38379 0,0.91089 0.250732,1.39014 0.250733,0.47607 0.736328,0.47607 z m 5.695557,-1.03784 q 0,0.77759 -0.317383,1.13623 -0.314209,0.35864 -0.958496,0.35864 -1.298096,0 -1.298096,-1.48217 v -3.08179 h 0.520508 v 3.03418 q 0,1.07275 0.777588,1.07275 0.390381,0 0.571289,-0.2539 0.184082,-0.25391 0.184082,-0.8252 v -3.02783 h 0.520508 z m 4.759277,-2.64697 H 41.066284 V 362 H 40.54895 v -4.05615 h -1.386963 v -0.42212 h 3.284912 z"
     id="text36"
     class="micro"
     style="font-size:6.5px;font-family:'DejaVu Sans Mono', monospace;letter-spacing:0.5px;text-anchor:middle;fill:#9ea4a8"
     aria-label="L OUT" />
  <path
     d="m 72.974487,362 h -0.650634 l -1.313965,-2.03442 H 70.432251 V 362 h -0.520508 v -4.47827 h 1.266358 q 0.637939,0 1.006103,0.31103 0.371338,0.30786 0.371338,0.86011 0,0.40942 -0.269775,0.72998 -0.269776,0.31738 -0.742676,0.43164 z m -2.542236,-2.48828 h 0.656982 q 0.412598,0 0.669678,-0.22217 0.25708,-0.22534 0.25708,-0.56494 0,-0.74902 -0.914062,-0.74902 h -0.669678 z m 9.559814,-2.07568 q 0.752198,0 1.145752,0.59667 0.396729,0.59351 0.396729,1.72974 0,1.12988 -0.393555,1.72656 -0.393554,0.59668 -1.148926,0.59668 -0.749023,0 -1.145752,-0.5935 -0.393554,-0.59668 -0.393554,-1.72974 0,-1.13306 0.393554,-1.72974 0.393555,-0.59667 1.145752,-0.59667 z m 0,4.19262 q 0.990235,0 0.990235,-1.86621 0,-1.86938 -0.990235,-1.86938 -0.482421,0 -0.736328,0.48559 -0.250732,0.48242 -0.250732,1.38379 0,0.91089 0.250732,1.39014 0.250733,0.47607 0.736328,0.47607 z m 5.695557,-1.03784 q 0,0.77759 -0.317383,1.13623 -0.314209,0.35864 -0.958496,0.35864 -1.298096,0 -1.298096,-1.48217 v -3.08179 h 0.520508 v 3.03418 q 0,1.07275 0.777588,1.07275 0.390381,0 0.571289,-0.2539 0.184082,-0.25391 0.184082,-0.8252 v -3.02783 h 0.520508 z m 4.759277,-2.64697 H 89.066284 V 362 H 88.54895 v -4.05615 h -1.386963 v -0.42212 h 3.284912 z"
     id="text37"
     class="micro"
     style="font-size:6.5px;font-family:'DejaVu Sans Mono', monospace;letter-spacing:0.5px;text-anchor:middle;fill:#9ea4a8"
     aria-label="R OUT" />
  <path
     d="m 124.80066,362 h -2.33911 v -4.47827 h 2.32007 v 0.45386 h -1.79956 v 1.38696 h 1.72973 v 0.45386 h -1.72973 v 1.72973 h 1.8186 z m 4.5498,0 h -0.57763 l -1.60596,-3.53564 V 362 h -0.52051 v -4.47827 h 0.58081 l 1.61231,3.5039 v -3.5039 h 0.51098 z m 4.81641,-4.47827 L 132.70691,362 h -0.62524 l -1.46314,-4.47827 h 0.5459 l 1.22827,3.87524 1.23462,-3.87524 z"
     id="text38"
     class="micro"
     style="font-size:6.5px;font-family:'DejaVu Sans Mono', monospace;letter-spacing:0.5px;text-anchor:middle;fill:#9ea4a8"
     aria-label="ENV" />
</svg>
