<?xml version="1.0" encoding="UTF-8" standalone="no"?>
<svg
   width="600"
   height="380"
   viewBox="0 0 158.75 100.54166"
   version="1.1"
   id="svg12553"
   inkscape:version="1.3.2 (091e20e, 2023-11-25)"
   sodipodi:docname="Grains.svg"
   xmlns:inkscape="http://www.inkscape.org/namespaces/inkscape"
   xmlns:sodipodi="http://sodipodi.sourceforge.net/DTD/sodipodi-0.dtd"
   xmlns="http://www.w3.org/2000/svg"
   xmlns:svg="http://www.w3.org/2000/svg"
   xmlns:rdf="http://www.w3.org/1999/02/22-rdf-syntax-ns#"
   xmlns:cc="http://creativecommons.org/ns#"
   xmlns:dc="http://purl.org/dc/elements/1.1/">
  <defs
     id="defs12547" />
  <sodipodi:namedview
     id="base"
     pagecolor="#ffffff"
     bordercolor="#666666"
     borderopacity="1.0"
     inkscape:pageopacity="0.0"
     inkscape:pageshadow="2"
     inkscape:zoom="1.6068408"
     inkscape:cx="279.74147"
     inkscape:cy="166.16457"
     inkscape:document-units="px"
     inkscape:current-layer="layer1"
     showgrid="true"
     fit-margin-top="0"
     fit-margin-left="0"
     fit-margin-right="0"
     fit-margin-bottom="0"
     units="px"
     inkscape:window-width="1328"
     inkscape:window-height="1057"
     inkscape:window-x="1346"
     inkscape:window-y="133"
     inkscape:window-maximized="0"
     inkscape:snap-grids="false"
     showguides="false"
     inkscape:snap-others="false"
     inkscape:snap-nodes="false"
     inkscape:snap-global="false"
     inkscape:document-rotation="0"
     inkscape:showpageshadow="2"
     inkscape:pagecheckerboard="0"
     inkscape:deskcolor="#d1d1d1">
    <inkscape:grid
       type="xygrid"
       id="grid12870"
       originx="-20.372917"
       originy="84.666664"
       spacingy="1"
       spacingx="1"
       units="px"
       visible="true" />
  </sodipodi:namedview>
  <metadata
     id="metadata12550">
    <rdf:RDF>
      <cc:Work
         rdf:about="">
        <dc:format>image/svg+xml</dc:format>
        <dc:type
           rdf:resource="http://purl.org/dc/dcmitype/StillImage" />
      </cc:Work>
    </rdf:RDF>
  </metadata>
  <g
     inkscape:label="Layer 1"
     inkscape:groupmode="layer"
     id="layer1"
     transform="translate(-26.543497,-161.30655)">
    <path
       inkscape:connector-curvature="0"
       id="path33453"
       d="M 26.543497,161.45211 H 185.29349 v 100.3961 H 26.543497 Z m 0,0"
       style="fill:#333333;fill-opacity:1;fill-rule:nonzero;stroke:none;stroke-width:0.372222" />
    <g
       transform="matrix(0.45799998,0,0,0.46525853,110.27334,48.71372)"
       id="layer1-7"
       inkscape:label="Layer 1">
      <rect
         y="256.12662"
         x="29.52006"
         height="1.6536458"
         width="7.2760415"
         id="rect823"
         style="fill:#ffffff;fill-opacity:1;stroke:none;stroke-width:0.710598;stroke-miterlimit:4;stroke-dasharray:none;stroke-opacity:1" />
      <rect
         y="256.57309"
         x="28.643627"
         height="0.51248246"
         width="9.0803432"
         id="rect821"
         style="fill:#ffffff;fill-opacity:1;stroke:none;stroke-width:0.176948;stroke-miterlimit:4;stroke-dasharray:none;stroke-opacity:1" />
      <ellipse
         ry="5.8699069"
         rx="6.1973119"
         cy="250.78661"
         cx="33.068214"
         id="path817"
         style="fill:#ffffff;fill-opacity:1;stroke:none;stroke-width:0.294763;stroke-miterlimit:4;stroke-dasharray:none;stroke-opacity:1" />
      <rect
         y="257.08557"
         x="28.265131"
         height="4.3030396"
         width="9.541522"
         id="rect819"
         style="fill:#ffffff;fill-opacity:1;stroke:none;stroke-width:0.236954;stroke-miterlimit:4;stroke-dasharray:none;stroke-opacity:1" />
      <path
         style="fill:#54b6fc;stroke-width:0.434238"
         d="m 28.040353,261.67777 c -0.05624,-0.1049 -0.09132,-1.05343 -0.09132,-2.46939 0,-2.62823 -0.06483,-2.41007 0.868669,-2.92327 0.298327,-0.16393 0.542417,-0.32331 0.542417,-0.35402 0,-0.0309 -0.162318,-0.16826 -0.360716,-0.30583 -1.028016,-0.71241 -2.013971,-2.17766 -2.338877,-3.47584 -0.201325,-0.80442 -0.134174,-2.39054 0.13451,-3.17721 1.033244,-3.02511 4.386038,-4.85502 7.661927,-4.18175 2.136444,0.4391 3.832748,1.7715 4.690824,3.6846 0.361925,0.8069 0.484002,1.41362 0.481552,2.39329 -0.0043,1.76252 -0.804317,3.40089 -2.221636,4.55038 -0.254647,0.20641 -0.463011,0.4065 -0.463011,0.44439 0,0.038 0.188503,0.17638 0.418915,0.30774 0.88078,0.5022 0.815782,0.26078 0.815782,3.02947 0,1.77735 -0.02862,2.465 -0.105831,2.54221 -0.07977,0.0796 -1.316324,0.10568 -5.023888,0.10568 -4.772077,0 -4.920765,-0.006 -5.009351,-0.17069 z m 4.778272,-1.34136 c 0.02029,-0.72066 0.0537,-0.91258 0.172084,-0.98706 0.106484,-0.067 0.185415,-0.0605 0.286623,0.0243 0.110188,0.0915 0.139673,0.2998 0.139673,0.98705 v 0.87111 h 2.031202 c 1.725502,0 2.038854,-0.0189 2.082046,-0.13248 0.118689,-0.30933 -0.0843,-0.54865 -1.048716,-1.23644 -0.806681,-0.57531 -0.992,-0.74828 -0.992,-0.92603 0,-0.17285 0.05069,-0.22425 0.242529,-0.24644 l 0.242526,-0.0279 v -0.72694 c 0,-0.82266 0.11329,-1.0851 0.425635,-0.98597 0.182308,0.0579 0.191777,0.11143 0.193075,1.09112 6.9e-4,0.56673 0.03051,1.07216 0.06615,1.12322 0.107317,0.15365 0.691445,0.5686 0.80071,0.5686 0.07253,0 0.101903,-0.37768 0.101903,-1.30922 0,-1.48548 0.04525,-1.38286 -0.823095,-1.86798 l -0.514419,-0.28745 -0.896236,0.29918 c -0.869904,0.29041 -0.937695,0.2992 -2.307746,0.29891 -1.355532,-2.1e-4 -1.441911,-0.0113 -2.177833,-0.27426 l -0.766317,-0.27401 -0.710913,0.40097 -0.710915,0.40096 v 1.35053 c 0,0.7428 0.02272,1.35058 0.05046,1.35058 0.02775,0 0.226187,-0.10309 0.440962,-0.22887 l 0.390524,-0.22887 0.0014,-0.89557 c 0.0016,-1.14751 0.206306,-1.60144 0.561721,-1.24599 0.108544,0.1085 0.142513,0.31853 0.142513,0.88028 v 0.7378 l 0.290718,-0.0471 c 0.315025,-0.0511 0.543194,0.11558 0.458905,0.33517 -0.02597,0.0676 -0.562393,0.43193 -1.192126,0.80964 -1.113533,0.66789 -1.144968,0.69508 -1.144968,0.9907 v 0.30396 h 2.069441 2.069444 z m 2.265337,-4.35748 c 1.820054,-0.60937 3.301106,-2.14018 3.754405,-3.88051 0.141672,-0.5439 0.182494,-2.03256 0.06101,-2.22398 -0.0547,-0.0862 -0.514454,-0.10647 -1.993182,-0.0881 l -1.922097,0.0243 -0.285943,0.79373 c -0.250451,0.69526 -0.311823,0.79372 -0.494567,0.79372 -0.193669,0 -0.219614,-0.0593 -0.361764,-0.82692 -0.233437,-1.26061 -0.264438,-1.24093 -0.550459,0.34982 -0.250913,1.39568 -0.282965,1.49134 -0.499452,1.49134 -0.208819,0 -0.19843,0.0455 -0.591264,-2.59459 -0.179846,-1.20877 -0.366691,-2.21079 -0.415197,-2.22673 -0.04851,-0.0164 -0.346157,0.47702 -0.661443,1.09535 l -0.573255,1.12428 -1.649981,0.0244 -1.649981,0.0243 -0.05961,0.3176 c -0.100912,0.53789 0.02055,1.63287 0.25608,2.31038 0.480987,1.38307 1.462121,2.47313 2.838905,3.15409 1.070426,0.52942 1.68831,0.6568 2.998555,0.61816 0.870867,-0.027 1.189545,-0.0752 1.799239,-0.27931 z m -2.582339,-0.34598 c -0.501349,-0.14204 -0.612279,-0.23104 -0.568647,-0.45582 0.02803,-0.14447 0.130451,-0.16555 0.868148,-0.17909 0.460004,-0.008 0.975273,-0.0281 1.145044,-0.0441 0.276178,-0.0243 0.311494,-0.006 0.335474,0.20237 0.023,0.19722 -0.02543,0.25187 -0.329357,0.37355 -0.522805,0.20913 -0.965587,0.24078 -1.450662,0.1031 z m -1.6422,-2.07469 c -0.09701,-0.0972 -0.176384,-0.25567 -0.176384,-0.35282 0,-0.24453 0.308426,-0.52913 0.573253,-0.52913 0.264818,0 0.573252,0.28468 0.573252,0.52913 0,0.24455 -0.308429,0.52918 -0.573252,0.52918 -0.121275,0 -0.299857,-0.0793 -0.396869,-0.17636 z m 3.439517,-0.0882 c -0.232761,-0.23267 -0.222508,-0.40285 0.0401,-0.66546 0.243582,-0.24345 0.329798,-0.25996 0.605107,-0.11502 0.242042,0.12748 0.321863,0.24591 0.323575,0.48022 0.0031,0.43406 -0.63668,0.63239 -0.968767,0.30029 z m -1.151475,-4.27736 c 0.296559,-1.78581 0.575578,-1.83207 0.874871,-0.14501 0.09772,0.55084 0.197295,1.02113 0.221263,1.04511 0.08271,0.0828 0.212362,-0.0613 0.273139,-0.30344 0.117052,-0.46642 0.107419,-0.46436 2.176972,-0.46436 2.188984,0 2.146871,0.0162 1.845872,-0.66529 -0.655344,-1.4815 -2.160669,-2.71162 -3.887876,-3.17706 -0.773684,-0.20858 -2.314597,-0.21425 -3.086746,-0.0113 -1.862761,0.48917 -3.433992,1.84034 -4.06194,3.49292 l -0.172218,0.45328 1.47768,-0.0243 1.477684,-0.0244 0.705541,-1.38465 c 0.388047,-0.76156 0.755433,-1.43456 0.816413,-1.4955 0.244962,-0.24482 0.364055,0.12518 0.643002,1.99713 0.151683,1.01798 0.296644,1.88465 0.322123,1.92588 0.102882,0.16637 0.192723,-0.12627 0.374219,-1.21922 z"
         id="path4012-8"
         inkscape:connector-curvature="0" />
      <path
         style="fill:#a0a0a0;stroke-width:0.434238"
         d="m 28.040353,261.67777 c -0.05624,-0.1049 -0.09132,-1.05343 -0.09132,-2.46939 0,-2.62823 -0.06483,-2.41007 0.868669,-2.92327 0.298327,-0.16393 0.542417,-0.32331 0.542417,-0.35402 0,-0.0309 -0.162318,-0.16826 -0.360716,-0.30583 -1.028016,-0.71241 -2.013971,-2.17766 -2.338877,-3.47584 -0.201325,-0.80442 -0.134174,-2.39054 0.13451,-3.17721 1.033244,-3.02511 4.386038,-4.85502 7.661927,-4.18175 2.136444,0.4391 3.832748,1.7715 4.690824,3.6846 0.361925,0.8069 0.484002,1.41362 0.481552,2.39329 -0.0043,1.76252 -0.804317,3.40089 -2.221636,4.55038 -0.254647,0.20641 -0.463011,0.4065 -0.463011,0.44439 0,0.038 0.188503,0.17638 0.418915,0.30774 0.88078,0.5022 0.815782,0.26078 0.815782,3.02947 0,1.77735 -0.02862,2.465 -0.105831,2.54221 -0.07977,0.0796 -1.316324,0.10568 -5.023888,0.10568 -4.772077,0 -4.920765,-0.006 -5.009351,-0.17069 z m 4.778272,-1.34136 c 0.02029,-0.72066 0.0537,-0.91258 0.172084,-0.98706 0.106484,-0.067 0.185415,-0.0605 0.286623,0.0243 0.110188,0.0915 0.139673,0.2998 0.139673,0.98705 v 0.87111 h 2.031202 c 1.725502,0 2.038854,-0.0189 2.082046,-0.13248 0.118689,-0.30933 -0.0843,-0.54865 -1.048716,-1.23644 -0.806681,-0.57531 -0.992,-0.74828 -0.992,-0.92603 0,-0.17285 0.05069,-0.22425 0.242529,-0.24644 l 0.242526,-0.0279 v -0.72694 c 0,-0.82266 0.11329,-1.0851 0.425635,-0.98597 0.182308,0.0579 0.191777,0.11143 0.193075,1.09112 6.9e-4,0.56673 0.03051,1.07216 0.06615,1.12322 0.107317,0.15365 0.691445,0.5686 0.80071,0.5686 0.07253,0 0.101903,-0.37768 0.101903,-1.30922 0,-1.48548 0.04525,-1.38286 -0.823095,-1.86798 l -0.514419,-0.28745 -0.896236,0.29918 c -0.869904,0.29041 -0.937695,0.2992 -2.307746,0.29891 -1.355532,-2.1e-4 -1.441911,-0.0113 -2.177833,-0.27426 l -0.766317,-0.27401 -0.710913,0.40097 -0.710915,0.40096 v 1.35053 c 0,0.7428 0.02272,1.35058 0.05046,1.35058 0.02775,0 0.226187,-0.10309 0.440962,-0.22887 l 0.390524,-0.22887 0.0014,-0.89557 c 0.0016,-1.14751 0.206306,-1.60144 0.561721,-1.24599 0.108544,0.1085 0.142513,0.31853 0.142513,0.88028 v 0.7378 l 0.290718,-0.0471 c 0.315025,-0.0511 0.543194,0.11558 0.458905,0.33517 -0.02597,0.0676 -0.562393,0.43193 -1.192126,0.80964 -1.113533,0.66789 -1.144968,0.69508 -1.144968,0.9907 v 0.30396 h 2.069441 2.069444 z m 2.265337,-4.35748 c 1.403562,-0.46993 2.640938,-1.50058 3.294283,-2.74387 0.429067,-0.81653 0.595175,-1.49004 0.593708,-2.40729 -0.002,-1.2675 0.205601,-1.15 -2.032309,-1.15 -1.442955,0 -1.942613,0.0275 -1.996101,0.11041 -0.03924,0.0606 -0.191398,0.42737 -0.338104,0.81498 -0.382438,1.0104 -0.497129,0.9789 -0.708436,-0.1945 -0.249425,-1.38497 -0.369803,-1.31205 -0.674781,0.40874 -0.236279,1.33315 -0.338408,1.62908 -0.50309,1.45776 -0.04428,-0.0461 -0.22394,-1.07598 -0.399194,-2.28859 -0.378048,-2.61568 -0.375281,-2.60172 -0.515638,-2.60172 -0.06054,0 -0.377093,0.53579 -0.703448,1.19062 l -0.593372,1.1906 h -1.626578 -1.626579 l -0.06131,0.40891 c -0.234007,1.5605 0.483321,3.42764 1.761718,4.58559 0.632883,0.57328 1.868907,1.21483 2.698432,1.40062 0.933964,0.20911 2.512332,0.12546 3.430809,-0.18205 z m -2.582339,-0.34598 c -0.501349,-0.14204 -0.612279,-0.23104 -0.568647,-0.45582 0.02803,-0.14447 0.130451,-0.16555 0.868148,-0.17909 0.460004,-0.008 0.975273,-0.0281 1.145044,-0.0441 0.276178,-0.0243 0.311494,-0.006 0.335474,0.20237 0.023,0.19722 -0.02543,0.25187 -0.329357,0.37355 -0.522805,0.20913 -0.965587,0.24078 -1.450662,0.1031 z m -1.6422,-2.07469 c -0.09701,-0.0972 -0.176384,-0.25567 -0.176384,-0.35282 0,-0.24453 0.308426,-0.52913 0.573253,-0.52913 0.264818,0 0.573252,0.28468 0.573252,0.52913 0,0.24455 -0.308429,0.52918 -0.573252,0.52918 -0.121275,0 -0.299857,-0.0793 -0.396869,-0.17636 z m 3.439517,-0.0882 c -0.232761,-0.23267 -0.222508,-0.40285 0.0401,-0.66546 0.243582,-0.24345 0.329798,-0.25996 0.605107,-0.11502 0.242042,0.12748 0.321863,0.24591 0.323575,0.48022 0.0031,0.43406 -0.63668,0.63239 -0.968767,0.30029 z m -1.097809,-4.10189 c 0.211607,-1.21013 0.333943,-1.55258 0.494567,-1.38443 0.03281,0.0344 0.152225,0.57839 0.265306,1.20896 0.232869,1.29834 0.343523,1.42064 0.618496,0.68352 l 0.172705,-0.46302 h 1.972971 c 1.085132,0 1.99242,-0.0315 2.016195,-0.0698 0.08023,-0.12991 -0.357483,-1.05886 -0.773608,-1.642 -0.728041,-1.02028 -1.981677,-1.859 -3.316077,-2.21859 -0.773686,-0.20857 -2.314601,-0.21426 -3.086747,-0.0113 -1.084749,0.28486 -1.999152,0.80872 -2.786328,1.59624 -0.677355,0.67767 -1.19903,1.50881 -1.403089,2.23545 l -0.05574,0.19856 1.439077,-9.8e-4 c 0.791494,-6.2e-4 1.483847,-0.0306 1.538565,-0.0662 0.05473,-0.0355 0.422055,-0.70973 0.816304,-1.49793 0.672478,-1.34451 0.811339,-1.54707 0.929474,-1.35595 0.02624,0.0426 0.169945,0.92549 0.319337,1.9623 0.278277,1.93132 0.382411,2.3719 0.526552,2.22775 0.04457,-0.0447 0.184959,-0.67541 0.312001,-1.40192 z"
         id="path4010-0"
         inkscape:connector-curvature="0" />
      <path
         style="fill:#179cfd;stroke-width:0.434238"
         d="m 28.084301,261.62139 c -0.09334,-0.2432 -0.06068,-4.53422 0.03585,-4.71459 0.04932,-0.0922 0.366818,-0.32942 0.705541,-0.52725 0.338727,-0.19778 0.615865,-0.39635 0.615865,-0.44114 0,-0.0449 -0.225402,-0.25131 -0.5009,-0.45914 -1.007366,-0.75955 -1.863496,-2.05429 -2.182561,-3.30077 -0.176274,-0.68859 -0.179006,-2.04001 -0.0054,-2.72476 0.07324,-0.28909 0.298305,-0.86296 0.500144,-1.27526 0.293281,-0.59912 0.51896,-0.90166 1.123813,-1.50667 0.628099,-0.62825 0.899287,-0.82698 1.594434,-1.16847 1.206772,-0.59277 1.759323,-0.7188 3.130615,-0.71416 0.806735,0.002 1.311968,0.0495 1.704825,0.15746 3.200698,0.88036 5.194794,3.81447 4.65392,6.84772 -0.248316,1.39251 -1.241594,2.98286 -2.337264,3.74216 -0.198811,0.13767 -0.36148,0.28303 -0.36148,0.3228 0,0.0398 0.277437,0.23428 0.616524,0.43238 0.393273,0.22968 0.633784,0.4307 0.664178,0.55509 0.02625,0.10714 0.03649,1.24673 0.02299,2.53213 l -0.02488,2.33712 -4.951132,0.0216 c -4.457619,0.0215 -4.956494,0.008 -5.004941,-0.11734 z m 4.796794,-1.27231 c 0.04062,-0.85254 0.0581,-0.92604 0.220478,-0.92604 0.162399,0 0.179874,0.0735 0.22048,0.92604 l 0.0441,0.92602 h 2.11542 c 1.979416,0 2.117418,-0.0113 2.146485,-0.16124 0.07415,-0.38501 -0.08786,-0.58193 -1.039039,-1.26279 -0.5321,-0.38086 -0.988888,-0.74572 -1.015085,-0.81071 -0.07133,-0.17694 0.02596,-0.27867 0.266821,-0.27867 0.212067,0 0.215285,-0.0113 0.215285,-0.78294 0,-0.57789 0.03363,-0.81084 0.12842,-0.88952 0.247505,-0.20531 0.312538,-0.006 0.312538,0.96492 0,0.5267 0.02407,1.0201 0.05321,1.09639 0.07569,0.19722 0.895628,0.78122 1.003392,0.71461 0.137026,-0.0848 0.118488,-2.70962 -0.02028,-2.88339 -0.06062,-0.0761 -0.366131,-0.28527 -0.678882,-0.46529 -0.638192,-0.36731 -0.664782,-0.36715 -1.680277,0.0113 -0.620191,0.23022 -0.749452,0.24593 -2.072528,0.24835 -1.367516,0.002 -1.436372,-0.006 -2.229991,-0.28332 l -0.818897,-0.286 -0.707163,0.41086 c -0.388942,0.22589 -0.744718,0.48108 -0.790616,0.56686 -0.04592,0.0857 -0.08344,0.71537 -0.08344,1.39919 0,0.99797 0.02488,1.25279 0.126404,1.29174 0.157447,0.0603 0.905595,-0.36921 1.022127,-0.58694 0.04739,-0.0885 0.0862,-0.57804 0.0862,-1.08767 0,-0.95796 0.0901,-1.20675 0.322052,-0.88956 0.07719,0.10547 0.118894,0.4201 0.118894,0.89644 v 0.73386 l 0.360543,-0.0576 c 0.341277,-0.0546 0.358954,-0.0466 0.330725,0.14961 -0.02299,0.16068 -0.280994,0.35508 -1.148549,0.86561 -1.145685,0.67416 -1.30229,0.84178 -1.171412,1.25421 0.05178,0.16311 0.145382,0.16933 2.186334,0.14688 l 2.132238,-0.0243 z m 2.160723,-4.26226 c 1.769875,-0.57963 3.167996,-1.90262 3.76078,-3.55863 0.192048,-0.53652 0.328288,-2.18171 0.217288,-2.62393 l -0.05685,-0.22641 h -1.977453 c -1.485114,0 -1.995217,0.0273 -2.0488,0.11041 -0.03924,0.0605 -0.191399,0.42736 -0.338105,0.81497 -0.382437,1.0104 -0.497129,0.97892 -0.708437,-0.1945 -0.249424,-1.38497 -0.369803,-1.31205 -0.674782,0.40873 -0.236276,1.33315 -0.338406,1.62909 -0.503087,1.45777 -0.04428,-0.046 -0.223941,-1.07597 -0.399196,-2.28861 -0.378048,-2.61567 -0.375282,-2.6017 -0.515636,-2.6017 -0.06054,0 -0.377094,0.53578 -0.703448,1.19062 l -0.593373,1.19063 h -1.628884 c -1.902339,0 -1.81147,-0.0499 -1.81147,0.99426 0,0.80431 0.255081,1.83651 0.632916,2.56111 0.424332,0.81377 1.610253,1.95985 2.460638,2.37796 1.097382,0.53952 1.794389,0.68665 3.07994,0.64999 0.892825,-0.0244 1.23655,-0.0755 1.807954,-0.26241 z m -2.425303,-0.51429 c -0.478805,-0.10703 -0.703657,-0.2876 -0.549872,-0.44139 0.07642,-0.0766 0.231706,-0.0808 0.585546,-0.0162 0.356597,0.0647 0.599579,0.0571 0.936494,-0.0291 0.48231,-0.12329 0.615302,-0.0987 0.615302,0.11422 0,0.28859 -0.958357,0.51378 -1.58747,0.37302 z m -1.706091,-2.08738 c -0.189693,-0.20965 -0.184796,-0.3936 0.01543,-0.57471 0.232894,-0.21073 0.518062,-0.17963 0.684657,0.0743 0.133834,0.20423 0.133834,0.23669 0,0.44096 -0.171756,0.26213 -0.491832,0.2892 -0.699982,0.0593 z m 3.421615,-0.14148 c -0.271481,-0.41435 0.198702,-0.82027 0.625904,-0.54036 0.247452,0.16205 0.279238,0.41467 0.07757,0.61634 -0.207737,0.20776 -0.541169,0.17179 -0.703478,-0.0761 z m -1.137669,-3.97553 c 0.211606,-1.21013 0.333942,-1.55259 0.494569,-1.38441 0.03282,0.0344 0.152224,0.57837 0.265305,1.20895 0.23276,1.29772 0.34355,1.42057 0.617887,0.68512 l 0.172107,-0.46134 2.000835,-0.0243 c 2.352706,-0.0279 2.281076,0.0162 1.723959,-1.05794 -0.429635,-0.82824 -1.435244,-1.8525 -2.279603,-2.32184 -3.036046,-1.6875 -6.967182,-0.61741 -8.490501,2.31125 -0.205682,0.39548 -0.373989,0.82207 -0.373989,0.94808 v 0.22911 l 1.433135,-9.7e-4 c 0.788221,-6e-4 1.477901,-0.0306 1.53262,-0.0663 0.05473,-0.0355 0.422054,-0.7097 0.816303,-1.49792 0.672479,-1.34449 0.811342,-1.54706 0.929474,-1.35594 0.02625,0.0425 0.169945,0.9255 0.319337,1.96229 0.278278,1.93132 0.382411,2.37191 0.526555,2.22776 0.04455,-0.0447 0.184956,-0.67543 0.311999,-1.40192 z"
         id="path4008-4"
         inkscape:connector-curvature="0" />
      <path
         style="fill:#050505;fill-opacity:1;stroke-width:0.434238"
         d="m 28.084301,261.62139 c -0.09334,-0.2432 -0.06068,-4.53422 0.03585,-4.71459 0.04932,-0.0922 0.366818,-0.32942 0.705541,-0.52725 0.338727,-0.19778 0.615865,-0.39635 0.615865,-0.44114 0,-0.0449 -0.225402,-0.25131 -0.5009,-0.45914 -1.007366,-0.75955 -1.863496,-2.05429 -2.182561,-3.30077 -0.176274,-0.68859 -0.179006,-2.04001 -0.0054,-2.72476 0.07324,-0.28909 0.298305,-0.86296 0.500144,-1.27526 0.293281,-0.59912 0.51896,-0.90166 1.123813,-1.50667 0.628099,-0.62825 0.899287,-0.82698 1.594434,-1.16847 1.206772,-0.59277 1.759323,-0.7188 3.130615,-0.71416 0.806735,0.002 1.311968,0.0495 1.704825,0.15746 3.200698,0.88036 5.194794,3.81447 4.65392,6.84772 -0.248316,1.39251 -1.241594,2.98286 -2.337264,3.74216 -0.198811,0.13767 -0.36148,0.28303 -0.36148,0.3228 0,0.0398 0.277437,0.23428 0.616524,0.43238 0.393273,0.22968 0.633784,0.4307 0.664178,0.55509 0.02625,0.10714 0.03649,1.24673 0.02299,2.53213 l -0.02488,2.33712 -4.951132,0.0216 c -4.457619,0.0215 -4.956494,0.008 -5.004941,-0.11734 z m 4.796794,-1.27231 c 0.04062,-0.85254 0.0581,-0.92604 0.220478,-0.92604 0.162399,0 0.179874,0.0735 0.22048,0.92604 l 0.0441,0.92602 h 2.11542 c 1.979416,0 2.117418,-0.0113 2.146485,-0.16124 0.07415,-0.38501 -0.08786,-0.58193 -1.039039,-1.26279 -0.5321,-0.38086 -0.988888,-0.74572 -1.015085,-0.81071 -0.07133,-0.17694 0.02596,-0.27867 0.266821,-0.27867 0.212067,0 0.215285,-0.0113 0.215285,-0.78294 0,-0.57789 0.03363,-0.81084 0.12842,-0.88952 0.247505,-0.20531 0.312538,-0.006 0.312538,0.96492 0,0.5267 0.02407,1.0201 0.05321,1.09639 0.07569,0.19722 0.895628,0.78122 1.003392,0.71461 0.137026,-0.0848 0.118488,-2.70962 -0.02028,-2.88339 -0.06062,-0.0761 -0.366131,-0.28527 -0.678882,-0.46529 -0.638192,-0.36731 -0.664782,-0.36715 -1.680277,0.0113 -0.620191,0.23022 -0.749452,0.24593 -2.072528,0.24835 -1.367516,0.002 -1.436372,-0.006 -2.229991,-0.28332 l -0.818897,-0.286 -0.707163,0.41086 c -0.388942,0.22589 -0.744718,0.48108 -0.790616,0.56686 -0.04592,0.0857 -0.08344,0.71537 -0.08344,1.39919 0,0.99797 0.02488,1.25279 0.126404,1.29174 0.157447,0.0603 0.905595,-0.36921 1.022127,-0.58694 0.04739,-0.0885 0.0862,-0.57804 0.0862,-1.08767 0,-0.95796 0.0901,-1.20675 0.322052,-0.88956 0.07719,0.10547 0.118894,0.4201 0.118894,0.89644 v 0.73386 l 0.360543,-0.0576 c 0.341277,-0.0546 0.358954,-0.0466 0.330725,0.14961 -0.02299,0.16068 -0.280994,0.35508 -1.148549,0.86561 -1.145685,0.67416 -1.30229,0.84178 -1.171412,1.25421 0.05178,0.16311 0.145382,0.16933 2.186334,0.14688 l 2.132238,-0.0243 z m 2.160723,-4.26226 c 1.798336,-0.58895 3.232202,-1.974 3.804655,-3.6751 0.213148,-0.63339 0.221914,-2.36663 0.01569,-3.09953 -0.356769,-1.26779 -1.453375,-2.62144 -2.672695,-3.2992 -2.477562,-1.37709 -5.596645,-0.9588 -7.541693,1.01144 -1.633552,1.65471 -2.027872,4.11443 -0.994473,6.2034 0.44418,0.89788 1.576714,2.0172 2.500652,2.47147 1.097382,0.53953 1.794387,0.68664 3.079941,0.64999 0.892823,-0.0243 1.236549,-0.0756 1.807951,-0.26241 z m -2.425303,-0.51429 c -0.478805,-0.10703 -0.703657,-0.2876 -0.549872,-0.44139 0.07642,-0.0766 0.231706,-0.0808 0.585546,-0.0162 0.356597,0.0647 0.599579,0.0571 0.936494,-0.0291 0.48231,-0.12329 0.615302,-0.0987 0.615302,0.11422 0,0.28859 -0.958357,0.51378 -1.58747,0.37302 z m -1.706091,-2.08738 c -0.189693,-0.20965 -0.184796,-0.3936 0.01543,-0.57471 0.232894,-0.21073 0.518062,-0.17963 0.684657,0.0743 0.133834,0.20423 0.133834,0.23669 0,0.44096 -0.171756,0.26213 -0.491832,0.2892 -0.699982,0.0593 z m 3.421615,-0.14148 c -0.271481,-0.41435 0.198702,-0.82027 0.625904,-0.54036 0.247452,0.16205 0.279238,0.41467 0.07757,0.61634 -0.207737,0.20776 -0.541169,0.17179 -0.703478,-0.0761 z"
         id="path4006-5"
         inkscape:connector-curvature="0" />
    </g>
    <path
       id="path2124-5-5-7-2-1-7"
       style="fill:#1a96fc;fill-opacity:1;stroke:none;stroke-width:0.151264;stroke-miterlimit:4;stroke-dasharray:none;stroke-dashoffset:0;stroke-opacity:1"
       d="M 163.98267,251.62941 H 174.566 v 5.22551 h -10.58333 z" />
    <path
       d="m 37.933888,249.80571 q 0,0.10232 -0.03617,0.19017 -0.03514,0.0868 -0.09922,0.15089 -0.07958,0.0796 -0.188102,0.11989 -0.108521,0.0393 -0.273886,0.0393 h -0.204639 v 0.5736 h -0.204639 v -1.53892 h 0.417546 q 0.138493,0 0.234612,0.0238 0.09612,0.0227 0.170532,0.0724 0.08785,0.0589 0.135393,0.14676 0.04858,0.0879 0.04858,0.22221 z m -0.212908,0.005 q 0,-0.0796 -0.02791,-0.13849 -0.0279,-0.0589 -0.08475,-0.0961 -0.04961,-0.032 -0.113689,-0.0455 -0.06305,-0.0145 -0.160197,-0.0145 h -0.202572 v 0.61495 h 0.1726 q 0.124023,0 0.201538,-0.0217 0.07752,-0.0227 0.126091,-0.0713 0.04858,-0.0496 0.06821,-0.10439 0.02067,-0.0548 0.02067,-0.12299 z m 1.3994,0.49196 q 0,0.28216 -0.144694,0.44546 -0.144694,0.16329 -0.387574,0.16329 -0.244946,0 -0.389641,-0.16329 -0.14366,-0.1633 -0.14366,-0.44546 0,-0.28215 0.14366,-0.44545 0.144695,-0.16433 0.389641,-0.16433 0.24288,0 0.387574,0.16433 0.144694,0.1633 0.144694,0.44545 z m -0.200505,0 q 0,-0.22427 -0.08785,-0.33279 -0.08785,-0.10956 -0.243913,-0.10956 -0.15813,0 -0.24598,0.10956 -0.08682,0.10852 -0.08682,0.33279 0,0.21705 0.08785,0.3297 0.08785,0.11162 0.244946,0.11162 0.15503,0 0.24288,-0.11059 0.08888,-0.11162 0.08888,-0.33073 z m 1.32602,0.24392 q 0,0.15813 -0.131259,0.25941 -0.130225,0.10129 -0.356568,0.10129 -0.128157,0 -0.235645,-0.03 -0.106453,-0.031 -0.1788,-0.0672 v -0.21808 h 0.01034 q 0.09198,0.0693 0.204639,0.11059 0.112655,0.0403 0.216008,0.0403 0.128158,0 0.200505,-0.0413 0.07235,-0.0413 0.07235,-0.13023 0,-0.0682 -0.03927,-0.10335 -0.03927,-0.0351 -0.150896,-0.06 -0.04134,-0.009 -0.10852,-0.0217 -0.06615,-0.0124 -0.120923,-0.0269 -0.151929,-0.0403 -0.216008,-0.11782 -0.06305,-0.0785 -0.06305,-0.19224 0,-0.0713 0.02894,-0.13436 0.02997,-0.063 0.08992,-0.11265 0.05788,-0.0486 0.146762,-0.0765 0.08992,-0.0289 0.200504,-0.0289 0.103354,0 0.208774,0.0258 0.106453,0.0248 0.176733,0.061 v 0.20774 h -0.01033 q -0.07441,-0.0548 -0.180868,-0.092 -0.106453,-0.0382 -0.208773,-0.0382 -0.106454,0 -0.179834,0.0413 -0.07338,0.0403 -0.07338,0.12092 0,0.0713 0.04444,0.10749 0.04341,0.0362 0.14056,0.0589 0.05374,0.0124 0.11989,0.0248 0.06718,0.0124 0.111621,0.0227 0.135392,0.031 0.208773,0.10646 0.07338,0.0765 0.07338,0.20257 z m 0.486793,-1.01493 h -0.219109 v -0.20154 h 0.219109 z m -0.0124,1.34772 h -0.194303 v -1.15445 h 0.194303 z m 0.983921,-0.0103 q -0.05478,0.0145 -0.11989,0.0238 -0.06408,0.009 -0.114721,0.009 -0.176734,0 -0.268718,-0.0951 -0.09198,-0.0951 -0.09198,-0.30489 v -0.61392 h -0.131259 v -0.1633 H 41.1089 v -0.33134 h 0.194296 v 0.33176 h 0.40101 v 0.1633 h -0.40101 v 0.52607 q 0,0.0909 0.0041,0.14262 0.0041,0.0506 0.02894,0.0951 0.02274,0.0413 0.06201,0.061 0.04031,0.0186 0.121957,0.0186 0.04754,0 0.09922,-0.0134 0.05168,-0.0145 0.07442,-0.0238 h 0.01033 z m 0.443384,-1.33739 h -0.219108 v -0.20154 h 0.219108 z m -0.0124,1.34772 h -0.194304 v -1.15445 h 0.194304 z m 1.368394,-0.57671 q 0,0.28217 -0.144694,0.44546 -0.144695,0.16329 -0.387574,0.16329 -0.244947,0 -0.389641,-0.16329 -0.143661,-0.16329 -0.143661,-0.44546 0,-0.28215 0.143661,-0.44544 0.144694,-0.16434 0.389641,-0.16434 0.242879,0 0.387574,0.16434 0.144694,0.16329 0.144694,0.44544 z m -0.200505,0 q 0,-0.22426 -0.08785,-0.33278 -0.08785,-0.10956 -0.243913,-0.10956 -0.15813,0 -0.24598,0.10956 -0.08682,0.10852 -0.08682,0.33278 0,0.21705 0.08785,0.32971 0.08785,0.11161 0.244947,0.11161 0.155029,0 0.242879,-0.11059 0.08888,-0.11162 0.08888,-0.33073 z m 1.46658,0.57671 h -0.194304 v -0.65732 q 0,-0.0796 -0.0093,-0.14883 -0.0093,-0.0703 -0.03411,-0.10955 -0.02584,-0.0434 -0.07441,-0.0641 -0.04858,-0.0217 -0.126091,-0.0217 -0.07958,0 -0.166398,0.0393 -0.08682,0.0393 -0.166399,0.10025 v 0.86196 h -0.194303 v -1.15445 h 0.194303 v 0.12816 q 0.09095,-0.0754 0.188103,-0.11782 0.09715,-0.0424 0.199471,-0.0424 0.187069,0 0.285254,0.11267 0.09819,0.11265 0.09819,0.32453 z"
       id="text1"
       style="font-size:2.11667px;font-family:Sans;-inkscape-font-specification:Sans;text-align:center;text-anchor:middle;fill:#ffffff;stroke-width:0.265112"
       aria-label="Position" />
    <path
       d="m 55.636525,249.8117 q 0,0.10231 -0.03617,0.19016 -0.03514,0.0868 -0.09922,0.15091 -0.07958,0.0796 -0.188103,0.11989 -0.10852,0.0393 -0.273885,0.0393 h -0.204639 v 0.57361 h -0.204641 v -1.53893 h 0.417546 q 0.138493,0 0.234611,0.0238 0.09612,0.0227 0.170533,0.0723 0.08785,0.0589 0.135392,0.14676 0.04858,0.0879 0.04858,0.22221 z m -0.212907,0.005 q 0,-0.0796 -0.02791,-0.13848 -0.02791,-0.0589 -0.08475,-0.0961 -0.04961,-0.032 -0.113688,-0.0455 -0.06305,-0.0145 -0.160197,-0.0145 h -0.202572 v 0.61496 H 55.0071 q 0.124024,0 0.201539,-0.0217 0.07751,-0.0227 0.12609,-0.0713 0.04858,-0.0496 0.06821,-0.10439 0.02067,-0.0548 0.02067,-0.12299 z m 0.675929,-0.27887 h -0.219109 v -0.20154 h 0.219109 z m -0.0124,1.34772 h -0.194303 v -1.15445 h 0.194303 z m 0.983921,-0.0103 q -0.05478,0.0145 -0.119889,0.0238 -0.06408,0.009 -0.114722,0.009 -0.176734,0 -0.268718,-0.0951 -0.09198,-0.0951 -0.09198,-0.30489 v -0.61391 H 56.3445 v -0.16329 h 0.131259 v -0.33178 h 0.194303 v 0.33178 h 0.40101 v 0.16329 h -0.40101 v 0.52606 q 0,0.091 0.0041,0.14263 0.0041,0.0506 0.02894,0.0951 0.02274,0.0413 0.06201,0.061 0.04031,0.0186 0.121957,0.0186 0.04754,0 0.09922,-0.0134 0.05168,-0.0145 0.07441,-0.0238 h 0.01033 z m 1.088308,-0.062 q -0.09715,0.0465 -0.185002,0.0724 -0.08682,0.0258 -0.185002,0.0258 -0.125057,0 -0.229444,-0.0362 -0.104386,-0.0372 -0.178801,-0.11162 -0.07545,-0.0744 -0.116789,-0.1881 -0.04134,-0.11369 -0.04134,-0.26563 0,-0.28317 0.15503,-0.44441 0.156063,-0.16122 0.411345,-0.16122 0.09922,0 0.194303,0.0279 0.09612,0.0279 0.175701,0.0682 v 0.21601 h -0.01034 q -0.08888,-0.0692 -0.183968,-0.10645 -0.09405,-0.0372 -0.183968,-0.0372 -0.165365,0 -0.261484,0.11162 -0.09508,0.11059 -0.09508,0.32556 0,0.20878 0.09302,0.32143 0.09405,0.11162 0.263551,0.11162 0.05891,0 0.119889,-0.0155 0.06098,-0.0155 0.109554,-0.0403 0.04238,-0.0217 0.07958,-0.0455 0.03721,-0.0248 0.05891,-0.0424 h 0.01034 z m 1.214398,0.0724 h -0.194307 v -0.65732 q 0,-0.0796 -0.0093,-0.14883 -0.0093,-0.0703 -0.03411,-0.10955 -0.02584,-0.0434 -0.07441,-0.0641 -0.04858,-0.0217 -0.126091,-0.0217 -0.07958,0 -0.166399,0.0393 -0.08682,0.0393 -0.166398,0.10026 v 0.86196 h -0.194304 v -1.60817 h 0.194304 v 0.58189 q 0.09095,-0.0755 0.188103,-0.11783 0.09715,-0.0424 0.199471,-0.0424 0.187069,0 0.285254,0.11265 0.09819,0.11266 0.09819,0.32453 z"
       id="text1-8"
       style="font-size:2.11667px;font-family:Sans;-inkscape-font-specification:Sans;text-align:center;text-anchor:middle;fill:#ffffff;stroke-width:0.265112"
       aria-label="Pitch" />
    <path
       d="m 166.45075,249.12343 q 0.0941,0.10335 0.14367,0.25321 0.0506,0.14987 0.0506,0.34004 0,0.19016 -0.0517,0.34106 -0.0506,0.14986 -0.14263,0.25011 -0.0951,0.10439 -0.2253,0.1571 -0.1292,0.0527 -0.29559,0.0527 -0.16227,0 -0.29559,-0.0537 -0.1323,-0.0538 -0.22531,-0.15607 -0.093,-0.10232 -0.14366,-0.25114 -0.0496,-0.14883 -0.0496,-0.34003 0,-0.18811 0.0496,-0.33694 0.0496,-0.14986 0.14469,-0.25631 0.0909,-0.10129 0.22531,-0.15503 0.13539,-0.0537 0.29456,-0.0537 0.16536,0 0.29662,0.0548 0.13229,0.0537 0.22427,0.154 z m -0.0186,0.59325 q 0,-0.29973 -0.13436,-0.46199 -0.13436,-0.16329 -0.3669,-0.16329 -0.23461,0 -0.36897,0.16329 -0.13333,0.16227 -0.13333,0.46199 0,0.30282 0.13643,0.46405 0.13643,0.1602 0.36587,0.1602 0.22944,0 0.36484,-0.1602 0.13642,-0.16123 0.13642,-0.46405 z m 1.47898,0.76894 h -0.1943 v -0.12816 q -0.0982,0.0775 -0.1881,0.11886 -0.0899,0.0413 -0.19844,0.0413 -0.1819,0 -0.28319,-0.11059 -0.10128,-0.11162 -0.10128,-0.32659 v -0.74931 h 0.1943 v 0.65732 q 0,0.0879 0.008,0.1509 0.008,0.062 0.0351,0.10645 0.0279,0.0455 0.0723,0.0661 0.0444,0.0207 0.1292,0.0207 0.0754,0 0.16433,-0.0393 0.0899,-0.0393 0.16743,-0.10026 v -0.86196 h 0.1943 z m 0.98186,-0.0103 q -0.0548,0.0145 -0.11989,0.0238 -0.0641,0.009 -0.11472,0.009 -0.17674,0 -0.26872,-0.0951 -0.092,-0.0951 -0.092,-0.30489 v -0.61391 h -0.13126 v -0.1633 h 0.13126 v -0.33176 h 0.19431 v 0.33176 h 0.40101 v 0.1633 h -0.40101 v 0.52606 q 0,0.0909 0.004,0.14263 0.004,0.0506 0.0289,0.0951 0.0227,0.0413 0.062,0.061 0.0403,0.0186 0.12196,0.0186 0.0475,0 0.0992,-0.0134 0.0517,-0.0145 0.0744,-0.0238 h 0.0103 z m 1.25057,-0.58085 q 0,0.14056 -0.0403,0.25735 -0.0403,0.11576 -0.11369,0.19637 -0.0682,0.0765 -0.16123,0.11886 -0.092,0.0413 -0.19534,0.0413 -0.0899,0 -0.16329,-0.0196 -0.0724,-0.0196 -0.1478,-0.061 v 0.4837 h -0.1943 v -1.58027 h 0.1943 v 0.12092 q 0.0775,-0.0651 0.17363,-0.10852 0.0972,-0.0444 0.20671,-0.0444 0.20877,0 0.32453,0.15813 0.11679,0.15711 0.11679,0.43719 z m -0.20051,0.005 q 0,-0.20877 -0.0713,-0.31213 -0.0713,-0.10335 -0.21911,-0.10335 -0.0837,0 -0.16846,0.0362 -0.0847,0.0362 -0.16227,0.0951 v 0.65422 q 0.0827,0.0372 0.1416,0.0506 0.0599,0.0134 0.13539,0.0134 0.16226,0 0.25321,-0.10955 0.0909,-0.10956 0.0909,-0.32453 z m 1.46038,0.58601 h -0.1943 v -0.12816 q -0.0982,0.0775 -0.1881,0.11886 -0.0899,0.0413 -0.19844,0.0413 -0.1819,0 -0.28319,-0.11059 -0.10129,-0.11162 -0.10129,-0.32659 v -0.74931 h 0.19431 v 0.65732 q 0,0.0879 0.008,0.1509 0.008,0.062 0.0351,0.10645 0.0279,0.0455 0.0723,0.0661 0.0444,0.0207 0.12919,0.0207 0.0754,0 0.16434,-0.0393 0.0899,-0.0393 0.16743,-0.10026 v -0.86196 h 0.1943 z m 0.98186,-0.0103 q -0.0548,0.0145 -0.11989,0.0238 -0.0641,0.009 -0.11473,0.009 -0.17673,0 -0.26871,-0.0951 -0.092,-0.0951 -0.092,-0.30489 v -0.61391 h -0.13126 v -0.1633 h 0.13126 v -0.33176 h 0.19431 v 0.33176 h 0.40101 v 0.1633 h -0.40101 v 0.52606 q 0,0.0909 0.004,0.14263 0.004,0.0506 0.0289,0.0951 0.0227,0.0413 0.062,0.061 0.0403,0.0186 0.12196,0.0186 0.0475,0 0.0992,-0.0134 0.0517,-0.0145 0.0744,-0.0238 h 0.0103 z m 1.05936,-0.32247 q 0,0.15814 -0.13125,0.25942 -0.13023,0.10129 -0.35657,0.10129 -0.12816,0 -0.23565,-0.03 -0.10645,-0.031 -0.1788,-0.0672 v -0.21808 h 0.0103 q 0.092,0.0693 0.20464,0.11059 0.11265,0.0403 0.216,0.0403 0.12816,0 0.20051,-0.0413 0.0724,-0.0413 0.0724,-0.13022 0,-0.0682 -0.0393,-0.10335 -0.0393,-0.0351 -0.15089,-0.06 -0.0413,-0.009 -0.10852,-0.0217 -0.0661,-0.0124 -0.12093,-0.0269 -0.15193,-0.0403 -0.216,-0.11783 -0.0631,-0.0785 -0.0631,-0.19223 0,-0.0713 0.0289,-0.13436 0.03,-0.0631 0.0899,-0.11266 0.0579,-0.0486 0.14676,-0.0765 0.0899,-0.0289 0.2005,-0.0289 0.10335,0 0.20877,0.0258 0.10646,0.0248 0.17674,0.061 v 0.20774 h -0.0103 q -0.0744,-0.0548 -0.18086,-0.092 -0.10646,-0.0383 -0.20878,-0.0383 -0.10645,0 -0.17983,0.0413 -0.0734,0.0403 -0.0734,0.12092 0,0.0713 0.0444,0.10749 0.0434,0.0362 0.14056,0.0589 0.0537,0.0124 0.11989,0.0248 0.0672,0.0124 0.11162,0.0227 0.13539,0.031 0.20877,0.10645 0.0734,0.0765 0.0734,0.20257 z"
       id="text2"
       style="font-size:2.11667px;font-family:Sans;-inkscape-font-specification:Sans;text-align:center;text-anchor:middle;fill:#ffffff;stroke-width:0.265112"
       aria-label="Outputs" />
    <path
       d="m 71.110731,250.4443 q 0,0.0899 -0.04237,0.17777 -0.04134,0.0879 -0.116789,0.14883 -0.08268,0.0661 -0.19327,0.10335 -0.109555,0.0372 -0.264584,0.0372 -0.166398,0 -0.299724,-0.031 -0.132292,-0.031 -0.269751,-0.092 v -0.25632 h 0.01447 q 0.116789,0.0972 0.269752,0.14987 0.152962,0.0527 0.287321,0.0527 0.19017,0 0.29559,-0.0713 0.106453,-0.0713 0.106453,-0.19017 0,-0.10232 -0.05064,-0.15089 -0.04961,-0.0486 -0.151929,-0.0754 -0.07751,-0.0207 -0.168465,-0.0341 -0.08992,-0.0134 -0.191203,-0.0341 -0.204639,-0.0434 -0.303858,-0.1478 -0.09819,-0.10542 -0.09819,-0.27388 0,-0.19327 0.163297,-0.31626 0.163298,-0.12403 0.414446,-0.12403 0.162264,0 0.297657,0.031 0.135392,0.031 0.239779,0.0765 v 0.24185 h -0.01447 q -0.08785,-0.0744 -0.231511,-0.12298 -0.142627,-0.0496 -0.292489,-0.0496 -0.164331,0 -0.264583,0.0682 -0.09922,0.0682 -0.09922,0.1757 0,0.0961 0.04961,0.1509 0.04961,0.0548 0.174667,0.0837 0.06615,0.0145 0.188102,0.0351 0.121957,0.0207 0.206706,0.0424 0.171566,0.0455 0.258383,0.13746 0.08682,0.092 0.08682,0.25734 z m 0.521933,-0.90847 h -0.219108 v -0.20154 h 0.219108 z m -0.0124,1.34772 H 71.42596 v -1.15445 h 0.194304 z m 1.221633,0 h -0.932245 v -0.14366 l 0.672828,-0.84852 h -0.658358 v -0.16227 h 0.900205 v 0.13849 l -0.675929,0.85163 h 0.693499 z m 1.228867,-0.55707 h -0.850597 q 0,0.10646 0.03204,0.18604 0.03204,0.0786 0.08785,0.12919 0.05374,0.0496 0.127124,0.0744 0.07441,0.0248 0.163298,0.0248 0.117823,0 0.236679,-0.0465 0.119889,-0.0475 0.170532,-0.093 h 0.01033 v 0.21187 q -0.09819,0.0413 -0.200505,0.0692 -0.102319,0.0279 -0.214974,0.0279 -0.287321,0 -0.448552,-0.15503 -0.161231,-0.15607 -0.161231,-0.44235 0,-0.28319 0.153996,-0.44959 0.15503,-0.1664 0.407211,-0.1664 0.233578,0 0.359669,0.13643 0.127124,0.13642 0.127124,0.38757 z m -0.189136,-0.14883 q -0.001,-0.15296 -0.07752,-0.23667 -0.07545,-0.0837 -0.230477,-0.0837 -0.156063,0 -0.249081,0.092 -0.09198,0.092 -0.104386,0.22841 z"
       id="text3"
       style="font-size:2.11667px;font-family:Sans;-inkscape-font-specification:Sans;text-align:center;text-anchor:middle;fill:#ffffff;stroke-width:0.265112"
       aria-label="Size" />
    <path
       d="m 85.321136,249.98851 q 0,0.20981 -0.09198,0.38034 -0.09095,0.17053 -0.242879,0.26458 -0.105421,0.0651 -0.235645,0.0941 -0.129192,0.0289 -0.341065,0.0289 h -0.388608 v -1.53893 h 0.384474 q 0.225309,0 0.357601,0.0331 0.133325,0.032 0.22531,0.0889 0.157096,0.0982 0.244946,0.26148 0.08785,0.1633 0.08785,0.38758 z m -0.21394,-0.003 q 0,-0.18087 -0.06305,-0.30489 -0.06305,-0.12403 -0.188102,-0.19534 -0.09095,-0.0517 -0.19327,-0.0713 -0.10232,-0.0207 -0.244947,-0.0207 H 84.22559 v 1.18752 h 0.192237 q 0.147795,0 0.257349,-0.0217 0.110588,-0.0217 0.202572,-0.0806 0.114722,-0.0734 0.171566,-0.19327 0.05788,-0.11989 0.05788,-0.29972 z m 1.495518,0.21394 h -0.850596 q 0,0.10645 0.03204,0.18603 0.03204,0.0786 0.08785,0.1292 0.05374,0.0496 0.127124,0.0744 0.07441,0.0248 0.163298,0.0248 0.117822,0 0.236678,-0.0465 0.11989,-0.0476 0.170533,-0.093 h 0.01033 v 0.21187 q -0.09819,0.0413 -0.200505,0.0693 -0.102319,0.0279 -0.214974,0.0279 -0.287322,0 -0.448552,-0.15503 -0.161231,-0.15606 -0.161231,-0.44235 0,-0.28318 0.153996,-0.44958 0.15503,-0.1664 0.407211,-0.1664 0.233578,0 0.359668,0.13642 0.127125,0.13643 0.127125,0.38758 z m -0.189136,-0.14883 q -0.001,-0.15296 -0.07751,-0.23668 -0.07545,-0.0837 -0.230477,-0.0837 -0.156063,0 -0.249081,0.092 -0.09198,0.092 -0.104387,0.22841 z m 1.449011,0.7059 h -0.194306 v -0.65732 q 0,-0.0796 -0.0093,-0.14883 -0.0093,-0.0703 -0.03411,-0.10956 -0.02584,-0.0434 -0.07441,-0.0641 -0.04858,-0.0217 -0.126091,-0.0217 -0.07958,0 -0.166398,0.0393 -0.08682,0.0393 -0.166398,0.10026 v 0.86196 h -0.194304 v -1.15445 h 0.194304 v 0.12816 q 0.09095,-0.0754 0.188102,-0.11783 0.09715,-0.0424 0.199471,-0.0424 0.187069,0 0.285255,0.11265 0.09821,0.11266 0.09821,0.32453 z m 1.198894,-0.3328 q 0,0.15813 -0.13126,0.25942 -0.130227,0.10129 -0.356567,0.10129 -0.12816,0 -0.235647,-0.03 -0.10645,-0.031 -0.1788,-0.0672 v -0.21807 h 0.0103 q 0.092,0.0693 0.204637,0.11059 0.11266,0.0403 0.21601,0.0403 0.12816,0 0.2005,-0.0413 0.0724,-0.0413 0.0724,-0.13022 0,-0.0682 -0.0393,-0.10335 -0.0393,-0.0351 -0.15089,-0.0599 -0.0413,-0.009 -0.10852,-0.0217 -0.0662,-0.0124 -0.12092,-0.0269 -0.151937,-0.0403 -0.216017,-0.11783 -0.0631,-0.0785 -0.0631,-0.19223 0,-0.0713 0.0289,-0.13436 0.03,-0.063 0.0899,-0.11266 0.0579,-0.0486 0.146767,-0.0765 0.0899,-0.0289 0.2005,-0.0289 0.10336,0 0.20878,0.0258 0.106447,0.0248 0.176727,0.061 v 0.20774 h -0.0103 q -0.0744,-0.0548 -0.180867,-0.092 -0.10645,-0.0382 -0.20877,-0.0382 -0.10645,0 -0.17984,0.0413 -0.0734,0.0403 -0.0734,0.12092 0,0.0713 0.0444,0.10749 0.0434,0.0362 0.14056,0.0589 0.0537,0.0124 0.11989,0.0248 0.0672,0.0124 0.11162,0.0227 0.135397,0.031 0.208777,0.10645 0.0734,0.0765 0.0734,0.20257 z m 0.486787,-1.01492 h -0.219107 v -0.20154 h 0.219107 z m -0.0124,1.34772 h -0.194297 v -1.15445 h 0.194297 z m 0.983924,-0.0103 q -0.0548,0.0145 -0.119887,0.0238 -0.0641,0.009 -0.11472,0.009 -0.17674,0 -0.26872,-0.0951 -0.092,-0.0951 -0.092,-0.30489 v -0.61391 h -0.13126 v -0.1633 h 0.13126 v -0.33176 h 0.194297 v 0.33176 h 0.40102 v 0.1633 h -0.40102 v 0.52606 q 0,0.091 0.004,0.14263 0.004,0.0506 0.0289,0.0951 0.0227,0.0413 0.062,0.061 0.0403,0.0186 0.12196,0.0186 0.0475,0 0.0992,-0.0134 0.0517,-0.0145 0.0744,-0.0238 h 0.0103 z m 1.222664,-1.14412 -0.673857,1.58027 h -0.207737 l 0.214967,-0.48163 -0.459917,-1.09864 h 0.21084 l 0.354497,0.85576 0.357607,-0.85576 z"
       id="text4"
       style="font-size:2.11667px;font-family:Sans;-inkscape-font-specification:Sans;text-align:center;text-anchor:middle;fill:#ffffff;stroke-width:0.265112"
       aria-label="Density" />
    <path
       d="m 113.54041,250.31732 q 0,0.0899 -0.0424,0.17777 -0.0413,0.0878 -0.11679,0.14883 -0.0827,0.0661 -0.19327,0.10335 -0.10956,0.0372 -0.26459,0.0372 -0.16639,0 -0.29972,-0.031 -0.13229,-0.031 -0.26975,-0.092 v -0.25632 h 0.0145 q 0.11679,0.0971 0.26975,0.14986 0.15296,0.0527 0.28732,0.0527 0.19017,0 0.29559,-0.0713 0.10646,-0.0713 0.10646,-0.19017 0,-0.10232 -0.0507,-0.1509 -0.0496,-0.0486 -0.15193,-0.0754 -0.0775,-0.0207 -0.16846,-0.0341 -0.0899,-0.0134 -0.19121,-0.0341 -0.20464,-0.0434 -0.30386,-0.14779 -0.0982,-0.10542 -0.0982,-0.27389 0,-0.19327 0.1633,-0.31626 0.1633,-0.12402 0.41445,-0.12402 0.16227,0 0.29766,0.031 0.13539,0.031 0.23978,0.0765 v 0.24184 h -0.0145 q -0.0879,-0.0744 -0.23151,-0.12299 -0.14263,-0.0496 -0.29249,-0.0496 -0.16433,0 -0.26459,0.0682 -0.0992,0.0682 -0.0992,0.1757 0,0.0961 0.0496,0.15089 0.0496,0.0548 0.17467,0.0837 0.0662,0.0145 0.18811,0.0351 0.12195,0.0207 0.2067,0.0424 0.17157,0.0455 0.25839,0.13746 0.0868,0.092 0.0868,0.25735 z m 1.32912,-0.15193 q 0,0.14056 -0.0403,0.25735 -0.0403,0.11576 -0.11368,0.19637 -0.0682,0.0765 -0.16123,0.11886 -0.092,0.0413 -0.19534,0.0413 -0.0899,0 -0.1633,-0.0196 -0.0724,-0.0196 -0.14779,-0.061 v 0.4837 h -0.19431 v -1.58027 h 0.19431 v 0.12092 q 0.0775,-0.0651 0.17363,-0.10852 0.0971,-0.0444 0.2067,-0.0444 0.20878,0 0.32453,0.15813 0.11679,0.1571 0.11679,0.43718 z m -0.2005,0.005 q 0,-0.20877 -0.0713,-0.31213 -0.0713,-0.10335 -0.2191,-0.10335 -0.0837,0 -0.16847,0.0362 -0.0847,0.0362 -0.16226,0.0951 v 0.65422 q 0.0827,0.0372 0.14159,0.0506 0.0599,0.0134 0.13539,0.0134 0.16227,0 0.25322,-0.10955 0.091,-0.10956 0.091,-0.32453 z m 1.2237,-0.35657 h -0.0103 q -0.0434,-0.0103 -0.0847,-0.0145 -0.0403,-0.005 -0.0961,-0.005 -0.0899,0 -0.17363,0.0403 -0.0837,0.0393 -0.16123,0.10232 v 0.81959 h -0.1943 v -1.15445 h 0.1943 v 0.17053 q 0.11576,-0.093 0.20361,-0.13126 0.0889,-0.0393 0.18086,-0.0393 0.0506,0 0.0734,0.003 0.0227,0.002 0.0682,0.009 z m 1.14928,0.38551 h -0.85059 q 0,0.10645 0.032,0.18603 0.032,0.0786 0.0879,0.1292 0.0537,0.0496 0.12712,0.0744 0.0744,0.0248 0.1633,0.0248 0.11782,0 0.23668,-0.0465 0.11989,-0.0476 0.17053,-0.093 h 0.0103 v 0.21187 q -0.0982,0.0413 -0.20051,0.0693 -0.10232,0.0279 -0.21497,0.0279 -0.28733,0 -0.44856,-0.15503 -0.16123,-0.15606 -0.16123,-0.44235 0,-0.28318 0.154,-0.44958 0.15503,-0.1664 0.40721,-0.1664 0.23358,0 0.35967,0.13642 0.12712,0.13643 0.12712,0.38758 z m -0.18913,-0.14883 q -0.001,-0.15296 -0.0775,-0.23668 -0.0755,-0.0837 -0.23048,-0.0837 -0.15606,0 -0.24908,0.092 -0.092,0.092 -0.10438,0.22841 z m 1.38079,0.7059 h -0.19327 v -0.12299 q -0.0258,0.0176 -0.0703,0.0496 -0.0434,0.031 -0.0847,0.0496 -0.0486,0.0238 -0.11162,0.0393 -0.063,0.0165 -0.14779,0.0165 -0.15607,0 -0.26459,-0.10335 -0.10852,-0.10336 -0.10852,-0.26355 0,-0.13126 0.0558,-0.21188 0.0568,-0.0816 0.16123,-0.12815 0.10542,-0.0465 0.25322,-0.0631 0.14779,-0.0165 0.31729,-0.0248 v -0.03 q 0,-0.0661 -0.0238,-0.10955 -0.0227,-0.0434 -0.0661,-0.0682 -0.0414,-0.0238 -0.0992,-0.032 -0.0579,-0.008 -0.12093,-0.008 -0.0765,0 -0.17053,0.0207 -0.094,0.0196 -0.1943,0.0579 h -0.0103 v -0.19741 q 0.0568,-0.0155 0.16433,-0.0341 0.10749,-0.0186 0.21188,-0.0186 0.12195,0 0.21187,0.0207 0.0909,0.0196 0.1571,0.0682 0.0651,0.0475 0.0992,0.12299 0.0341,0.0754 0.0341,0.18707 z m -0.19327,-0.28422 v -0.32143 q -0.0889,0.005 -0.2098,0.0155 -0.11989,0.0103 -0.19017,0.03 -0.0837,0.0238 -0.1354,0.0744 -0.0517,0.0496 -0.0517,0.13746 0,0.0992 0.0599,0.14986 0.06,0.0496 0.18294,0.0496 0.10232,0 0.18707,-0.0393 0.0847,-0.0403 0.15709,-0.0961 z m 1.50379,0.28422 h -0.1943 v -0.12092 q -0.0837,0.0724 -0.17467,0.11265 -0.0909,0.0403 -0.19741,0.0403 -0.2067,0 -0.32866,-0.15916 -0.12092,-0.15917 -0.12092,-0.44132 0,-0.14676 0.0413,-0.26148 0.0424,-0.11473 0.11369,-0.19534 0.0703,-0.0785 0.1633,-0.11989 0.0941,-0.0413 0.1943,-0.0413 0.091,0 0.16123,0.0196 0.0703,0.0186 0.1478,0.0589 v -0.50023 h 0.1943 z m -0.1943,-0.28422 v -0.66249 q -0.0786,-0.0351 -0.14056,-0.0486 -0.062,-0.0134 -0.1354,-0.0134 -0.16329,0 -0.25425,0.11368 -0.091,0.11369 -0.091,0.32247 0,0.20567 0.0703,0.31316 0.0703,0.10645 0.22531,0.10645 0.0827,0 0.16744,-0.0362 0.0847,-0.0372 0.15813,-0.0951 z"
       id="text5"
       style="font-size:2.11667px;font-family:Sans;-inkscape-font-specification:Sans;text-align:center;text-anchor:middle;fill:#ffffff;stroke-width:0.265112"
       aria-label="Spread" />
    <path
       d="m 178.39317,250.76575 q -0.12609,0.0579 -0.27595,0.10129 -0.14883,0.0424 -0.28836,0.0424 -0.17983,0 -0.32969,-0.0496 -0.14986,-0.0496 -0.25528,-0.14883 -0.10646,-0.10025 -0.16433,-0.25011 -0.0579,-0.1509 -0.0579,-0.35243 0,-0.36897 0.21497,-0.58188 0.21601,-0.21394 0.59221,-0.21394 0.13126,0 0.26769,0.032 0.13746,0.031 0.29559,0.10645 v 0.24288 h -0.0186 q -0.032,-0.0248 -0.093,-0.0651 -0.061,-0.0403 -0.11989,-0.0672 -0.0713,-0.032 -0.16227,-0.0527 -0.0899,-0.0217 -0.20464,-0.0217 -0.25838,0 -0.40927,0.1664 -0.14986,0.16537 -0.14986,0.44856 0,0.29869 0.15709,0.46508 0.1571,0.16537 0.42788,0.16537 0.0992,0 0.19741,-0.0196 0.0992,-0.0196 0.17363,-0.0506 v -0.37724 h -0.41238 v -0.17983 h 0.61495 z m 1.23921,0.11369 h -0.19328 v -0.12299 q -0.0258,0.0176 -0.0703,0.0496 -0.0434,0.031 -0.0847,0.0496 -0.0486,0.0238 -0.11163,0.0393 -0.063,0.0165 -0.14779,0.0165 -0.15606,0 -0.26458,-0.10335 -0.10853,-0.10336 -0.10853,-0.26355 0,-0.13126 0.0558,-0.21188 0.0568,-0.0816 0.16123,-0.12816 0.10542,-0.0465 0.25321,-0.063 0.1478,-0.0165 0.31729,-0.0248 v -0.03 q 0,-0.0661 -0.0238,-0.10955 -0.0227,-0.0434 -0.0661,-0.0682 -0.0413,-0.0238 -0.0992,-0.032 -0.0579,-0.008 -0.12092,-0.008 -0.0765,0 -0.17054,0.0207 -0.0941,0.0196 -0.1943,0.0579 h -0.0103 v -0.19741 q 0.0568,-0.0155 0.16434,-0.0341 0.10748,-0.0186 0.21187,-0.0186 0.12196,0 0.21187,0.0207 0.091,0.0196 0.1571,0.0682 0.0651,0.0476 0.0992,0.12299 0.0341,0.0755 0.0341,0.18707 z m -0.19328,-0.28422 v -0.32143 q -0.0889,0.005 -0.2098,0.0155 -0.11989,0.0103 -0.19017,0.03 -0.0837,0.0238 -0.13539,0.0744 -0.0517,0.0496 -0.0517,0.13746 0,0.0992 0.0599,0.14986 0.0599,0.0496 0.18294,0.0496 0.10232,0 0.18707,-0.0393 0.0847,-0.0403 0.15709,-0.0961 z m 0.77619,-1.0635 h -0.21911 v -0.20154 h 0.21911 z m -0.0124,1.34772 h -0.1943 v -1.15445 h 0.1943 z m 1.34979,0 h -0.1943 v -0.65733 q 0,-0.0796 -0.009,-0.14882 -0.009,-0.0703 -0.0341,-0.10956 -0.0258,-0.0434 -0.0744,-0.0641 -0.0486,-0.0217 -0.12609,-0.0217 -0.0796,0 -0.1664,0.0393 -0.0868,0.0393 -0.1664,0.10026 v 0.86196 h -0.1943 V 249.725 h 0.1943 v 0.12815 q 0.0909,-0.0754 0.1881,-0.11782 0.0972,-0.0424 0.19947,-0.0424 0.18707,0 0.28526,0.11265 0.0982,0.11266 0.0982,0.32453 z"
       id="text6"
       style="font-size:2.11667px;font-family:Sans;-inkscape-font-specification:Sans;text-align:center;text-anchor:middle;fill:#ffffff;stroke-width:0.265112"
       aria-label="Gain" />
    <path
       d="m 127.12503,249.34048 -0.39998,1.53893 h -0.23047 l -0.3235,-1.27744 -0.31626,1.27744 h -0.22531 l -0.40721,-1.53893 h 0.20981 l 0.32349,1.27951 0.31833,-1.27951 h 0.20774 l 0.32143,1.29192 0.32142,-1.29192 z m 0.49506,0.19121 h -0.21911 v -0.20154 h 0.21911 z m -0.0124,1.34772 h -0.19431 v -1.15445 h 0.19431 z m 1.34979,0 h -0.19431 v -0.65733 q 0,-0.0796 -0.009,-0.14882 -0.009,-0.0703 -0.0341,-0.10956 -0.0258,-0.0434 -0.0744,-0.0641 -0.0486,-0.0217 -0.12609,-0.0217 -0.0796,0 -0.1664,0.0393 -0.0868,0.0393 -0.1664,0.10026 v 0.86196 h -0.1943 v -1.15445 h 0.1943 v 0.12815 q 0.091,-0.0754 0.18811,-0.11782 0.0971,-0.0424 0.19947,-0.0424 0.18707,0 0.28525,0.11265 0.0982,0.11266 0.0982,0.32453 z m 1.31051,0 h -0.1943 v -0.12092 q -0.0837,0.0723 -0.17467,0.11265 -0.091,0.0403 -0.1974,0.0403 -0.20671,0 -0.32866,-0.15916 -0.12093,-0.15917 -0.12093,-0.44132 0,-0.14676 0.0413,-0.26148 0.0424,-0.11473 0.11368,-0.19534 0.0703,-0.0786 0.1633,-0.11989 0.094,-0.0413 0.19431,-0.0413 0.0909,0 0.16123,0.0196 0.0703,0.0186 0.14779,0.0589 v -0.50023 h 0.1943 z m -0.1943,-0.28422 v -0.66249 q -0.0785,-0.0351 -0.14056,-0.0486 -0.062,-0.0134 -0.13539,-0.0134 -0.1633,0 -0.25425,0.11369 -0.091,0.11369 -0.091,0.32246 0,0.20568 0.0703,0.31316 0.0703,0.10646 0.22531,0.10646 0.0827,0 0.16743,-0.0362 0.0847,-0.0372 0.15813,-0.0951 z m 1.56063,-0.29249 q 0,0.28215 -0.14469,0.44545 -0.1447,0.1633 -0.38758,0.1633 -0.24494,0 -0.38964,-0.1633 -0.14366,-0.1633 -0.14366,-0.44545 0,-0.28215 0.14366,-0.44545 0.1447,-0.16433 0.38964,-0.16433 0.24288,0 0.38758,0.16433 0.14469,0.1633 0.14469,0.44545 z m -0.2005,0 q 0,-0.22428 -0.0878,-0.3328 -0.0879,-0.10955 -0.24392,-0.10955 -0.15813,0 -0.24598,0.10955 -0.0868,0.10852 -0.0868,0.3328 0,0.21704 0.0879,0.3297 0.0879,0.11162 0.24494,0.11162 0.15503,0 0.24288,-0.11059 0.0889,-0.11162 0.0889,-0.33073 z m 1.95337,-0.57774 -0.30076,1.15445 h -0.17983 l -0.29663,-0.88987 -0.29455,0.88987 h -0.1788 l -0.30386,-1.15445 h 0.20257 l 0.21187,0.894 0.28836,-0.894 h 0.1602 l 0.29559,0.894 0.2005,-0.894 z"
       id="text7"
       style="font-size:2.11667px;font-family:Sans;-inkscape-font-specification:Sans;text-align:center;text-anchor:middle;fill:#ffffff;stroke-width:0.265112"
       aria-label="Window" />
    <path
       d="m 153.71136,250.87943 h -0.26562 l -0.5147,-0.61185 h -0.28835 v 0.61185 h -0.20464 v -1.53893 h 0.43098 q 0.13953,0 0.23254,0.0186 0.093,0.0176 0.16744,0.0641 0.0837,0.0527 0.13022,0.13332 0.0475,0.0796 0.0475,0.20257 0,0.1664 -0.0837,0.27905 -0.0837,0.11162 -0.23048,0.16847 z m -0.47853,-1.10589 q 0,-0.0661 -0.0238,-0.11679 -0.0227,-0.0517 -0.0765,-0.0868 -0.0444,-0.03 -0.10542,-0.0413 -0.061,-0.0124 -0.14366,-0.0124 h -0.24081 v 0.58085 h 0.2067 q 0.0972,0 0.1695,-0.0165 0.0724,-0.0176 0.12299,-0.0641 0.0465,-0.0434 0.0682,-0.0992 0.0227,-0.0568 0.0227,-0.14366 z m 1.62678,1.10589 h -0.1943 v -0.65733 q 0,-0.0796 -0.009,-0.14882 -0.009,-0.0703 -0.0341,-0.10956 -0.0258,-0.0434 -0.0744,-0.0641 -0.0486,-0.0217 -0.12609,-0.0217 -0.0796,0 -0.1664,0.0393 -0.0868,0.0393 -0.16639,0.10026 v 0.86196 h -0.19431 v -1.15445 h 0.19431 v 0.12815 q 0.0909,-0.0754 0.1881,-0.11782 0.0971,-0.0424 0.19947,-0.0424 0.18707,0 0.28525,0.11265 0.0982,0.11266 0.0982,0.32453 z m 1.31052,0 h -0.19431 v -0.12093 q -0.0837,0.0723 -0.17466,0.11265 -0.091,0.0403 -0.19741,0.0403 -0.2067,0 -0.32866,-0.15916 -0.12092,-0.15917 -0.12092,-0.44132 0,-0.14676 0.0413,-0.26148 0.0424,-0.11473 0.11369,-0.19533 0.0703,-0.0786 0.16329,-0.11989 0.094,-0.0413 0.19431,-0.0413 0.0909,0 0.16123,0.0196 0.0703,0.0186 0.14779,0.0589 v -0.50023 h 0.19431 z m -0.19431,-0.28422 v -0.66249 q -0.0786,-0.0351 -0.14056,-0.0486 -0.062,-0.0134 -0.13539,-0.0134 -0.1633,0 -0.25425,0.11369 -0.0909,0.11369 -0.0909,0.32246 0,0.20568 0.0703,0.31316 0.0703,0.10646 0.22531,0.10646 0.0827,0 0.16743,-0.0362 0.0847,-0.0372 0.15813,-0.0951 z m 2.34302,-0.78963 q 0,0.10232 -0.0362,0.19017 -0.0351,0.0868 -0.0992,0.1509 -0.0796,0.0796 -0.1881,0.11989 -0.10852,0.0393 -0.27389,0.0393 h -0.20463 v 0.57361 h -0.20464 v -1.53893 h 0.41754 q 0.1385,0 0.23461,0.0238 0.0961,0.0227 0.17054,0.0724 0.0879,0.0589 0.13539,0.14676 0.0486,0.0879 0.0486,0.22221 z m -0.21291,0.005 q 0,-0.0796 -0.0279,-0.13849 -0.0279,-0.0589 -0.0847,-0.0961 -0.0496,-0.032 -0.11369,-0.0455 -0.063,-0.0145 -0.16019,-0.0145 h -0.20257 v 0.61495 h 0.1726 q 0.12402,0 0.20153,-0.0217 0.0775,-0.0227 0.12609,-0.0713 0.0486,-0.0496 0.0682,-0.10439 0.0207,-0.0548 0.0207,-0.12299 z m 1.31258,1.06867 h -0.19327 v -0.12299 q -0.0258,0.0176 -0.0703,0.0496 -0.0434,0.031 -0.0848,0.0496 -0.0486,0.0238 -0.11162,0.0393 -0.063,0.0165 -0.14779,0.0165 -0.15607,0 -0.26459,-0.10335 -0.10852,-0.10336 -0.10852,-0.26355 0,-0.13126 0.0558,-0.21188 0.0568,-0.0816 0.16123,-0.12816 0.10542,-0.0465 0.25322,-0.063 0.14779,-0.0165 0.31729,-0.0248 v -0.03 q 0,-0.0661 -0.0238,-0.10955 -0.0227,-0.0434 -0.0662,-0.0682 -0.0413,-0.0238 -0.0992,-0.032 -0.0579,-0.008 -0.12093,-0.008 -0.0765,0 -0.17053,0.0207 -0.094,0.0196 -0.1943,0.0579 h -0.0103 v -0.19741 q 0.0568,-0.0155 0.16433,-0.0341 0.10749,-0.0186 0.21188,-0.0186 0.12195,0 0.21187,0.0207 0.0909,0.0196 0.1571,0.0682 0.0651,0.0476 0.0992,0.12299 0.0341,0.0755 0.0341,0.18707 z m -0.19327,-0.28422 v -0.32143 q -0.0889,0.005 -0.20981,0.0155 -0.11988,0.0103 -0.19016,0.03 -0.0837,0.0238 -0.1354,0.0744 -0.0517,0.0496 -0.0517,0.13746 0,0.0992 0.0599,0.14986 0.0599,0.0496 0.18294,0.0496 0.10232,0 0.18706,-0.0393 0.0847,-0.0403 0.1571,-0.0961 z m 1.53273,0.28422 h -0.19431 v -0.65733 q 0,-0.0796 -0.009,-0.14882 -0.009,-0.0703 -0.0341,-0.10956 -0.0258,-0.0434 -0.0744,-0.0641 -0.0486,-0.0217 -0.12609,-0.0217 -0.0796,0 -0.1664,0.0393 -0.0868,0.0393 -0.1664,0.10026 v 0.86196 h -0.1943 v -1.15445 h 0.1943 v 0.12815 q 0.091,-0.0754 0.18811,-0.11782 0.0971,-0.0424 0.19947,-0.0424 0.18707,0 0.28525,0.11265 0.0982,0.11266 0.0982,0.32453 z"
       id="text8"
       style="font-size:2.11667px;font-family:Sans;-inkscape-font-specification:Sans;text-align:center;text-anchor:middle;fill:#ffffff;stroke-width:0.265112"
       aria-label="Rnd Pan" />
    <path
       style="font-weight:bold;font-size:4.93889px;font-family:Sans;-inkscape-font-specification:'Sans Bold';text-align:center;text-anchor:middle;fill:#ffffff;stroke-width:0.265112"
       d="m 100.5636,168.13012 q -0.24116,0.0941 -0.639067,0.1881 -0.397908,0.0916 -0.793406,0.0916 -0.916395,0 -1.434882,-0.49678 -0.518487,-0.49919 -0.518487,-1.37701 0,-0.83681 0.52331,-1.34806 0.52331,-0.51367 1.458998,-0.51367 0.354501,0 0.675239,0.0651 0.320735,0.0627 0.713825,0.25321 v 0.84164 h -0.1037 q -0.0675,-0.0506 -0.19775,-0.14228 -0.13022,-0.0941 -0.2508,-0.15917 -0.139871,-0.0772 -0.327973,-0.13263 -0.185691,-0.0555 -0.395497,-0.0555 -0.24598,0 -0.44614,0.0724 -0.20016,0.0723 -0.359324,0.22186 -0.151928,0.1447 -0.241156,0.36897 -0.08682,0.22187 -0.08682,0.51367 0,0.59565 0.315916,0.91157 0.315915,0.31591 0.933276,0.31591 0.05306,0 0.115755,-0.002 0.06511,-0.002 0.118167,-0.007 v -0.70418 h -0.716235 v -0.67765 h 1.656751 z m 2.74436,-1.67604 h -0.0772 q -0.0555,-0.0193 -0.17845,-0.0289 -0.12299,-0.01 -0.20499,-0.01 -0.18569,0 -0.32797,0.0241 -0.14228,0.0241 -0.30627,0.082 v 1.81349 h -0.86816 v -2.70819 h 0.86816 v 0.39791 q 0.28698,-0.24598 0.49919,-0.32556 0.21222,-0.082 0.39068,-0.082 0.0458,0 0.1037,0.002 0.0579,0.002 0.10128,0.007 z m 2.13183,1.17443 v -0.5643 q -0.17605,0.0145 -0.38103,0.041 -0.20498,0.0241 -0.31109,0.0579 -0.13023,0.041 -0.20016,0.12058 -0.0675,0.0772 -0.0675,0.20498 0,0.0844 0.0145,0.13746 0.0145,0.0531 0.0724,0.10129 0.0555,0.0482 0.13264,0.0724 0.0772,0.0217 0.24115,0.0217 0.13023,0 0.26286,-0.0531 0.13505,-0.0531 0.23634,-0.13988 z m 0,0.41962 q -0.0699,0.0531 -0.17364,0.12781 -0.10369,0.0748 -0.19533,0.11817 -0.12782,0.0579 -0.26527,0.0844 -0.13746,0.0289 -0.30145,0.0289 -0.38585,0 -0.6463,-0.23874 -0.26045,-0.23875 -0.26045,-0.61013 0,-0.29662 0.13264,-0.48473 0.13263,-0.1881 0.3762,-0.29662 0.24116,-0.10852 0.59807,-0.15434 0.35691,-0.0458 0.74035,-0.0675 v -0.0145 q 0,-0.22428 -0.18328,-0.30868 -0.18328,-0.0868 -0.54019,-0.0868 -0.21463,0 -0.4582,0.0772 -0.24357,0.0748 -0.34967,0.11576 h -0.0796 v -0.65354 q 0.13746,-0.0362 0.44614,-0.0844 0.3111,-0.0506 0.62219,-0.0506 0.74035,0 1.06832,0.2291 0.33039,0.22669 0.33039,0.71383 v 1.84243 h -0.86093 z m 2.52732,0.28697 h -0.86816 v -2.70819 h 0.86816 z m 0.0241,-3.09404 h -0.9164 v -0.65835 h 0.9164 z m 3.51606,3.09404 h -0.87299 v -1.34324 q 0,-0.16399 -0.0169,-0.32556 -0.0169,-0.16399 -0.0579,-0.24116 -0.0482,-0.0892 -0.14228,-0.13022 -0.0916,-0.041 -0.25804,-0.041 -0.11816,0 -0.24115,0.0386 -0.12058,0.0386 -0.26286,0.12299 v 1.9196 h -0.86817 v -2.70819 h 0.86817 v 0.29904 q 0.23151,-0.18087 0.44373,-0.27733 0.21463,-0.0965 0.47507,-0.0965 0.43891,0 0.68489,0.25562 0.24839,0.25563 0.24839,0.76447 z m 3.15192,-0.85851 q 0,0.41961 -0.37621,0.67765 -0.3762,0.25562 -1.02973,0.25562 -0.36174,0 -0.65595,-0.0675 -0.29421,-0.0675 -0.47267,-0.14952 v -0.71382 h 0.0796 q 0.0651,0.0458 0.14952,0.10128 0.0868,0.0531 0.24357,0.11576 0.13505,0.0555 0.30627,0.0965 0.17122,0.0386 0.36656,0.0386 0.25562,0 0.37861,-0.0555 0.12299,-0.0579 0.12299,-0.16881 0,-0.0989 -0.0723,-0.14228 -0.0724,-0.0458 -0.27492,-0.0868 -0.0965,-0.0217 -0.26286,-0.0458 -0.16399,-0.0265 -0.29904,-0.0627 -0.36897,-0.0965 -0.54742,-0.29903 -0.17846,-0.20499 -0.17846,-0.50884 0,-0.39068 0.36897,-0.64872 0.37138,-0.26044 1.01286,-0.26044 0.30386,0 0.58119,0.0627 0.27974,0.0603 0.43649,0.13022 v 0.68489 h -0.0748 q -0.19292,-0.13264 -0.44132,-0.21463 -0.24598,-0.0844 -0.49919,-0.0844 -0.20981,0 -0.3545,0.0579 -0.14228,0.0579 -0.14228,0.16399 0,0.0965 0.0651,0.1471 0.0651,0.0506 0.30627,0.10129 0.13263,0.0265 0.28456,0.0531 0.15434,0.0241 0.30868,0.0627 0.34245,0.0892 0.50643,0.28216 0.16399,0.19051 0.16399,0.47749 z"
       id="text9"
       aria-label="Grains" />
    <g
       id="text10"
       style="font-weight:bold;font-size:2.11667px;font-family:Sans;-inkscape-font-specification:'Sans Bold';text-align:center;text-anchor:middle;fill:#ffffff;stroke-width:0.265112"
       aria-label="Random file in &#10;same directory"
       transform="translate(0,-1.5874999)">
      <path
         style="font-weight:normal;-inkscape-font-specification:Sans"
         d="m 163.68993,168.52538 h -0.26561 l -0.5147,-0.61185 h -0.28836 v 0.61185 h -0.20463 v -1.53893 h 0.43098 q 0.13952,0 0.23254,0.0186 0.093,0.0176 0.16743,0.0641 0.0837,0.0527 0.13023,0.13333 0.0475,0.0796 0.0475,0.20257 0,0.1664 -0.0837,0.27905 -0.0837,0.11162 -0.23047,0.16847 z m -0.47852,-1.10588 q 0,-0.0661 -0.0238,-0.11679 -0.0227,-0.0517 -0.0765,-0.0868 -0.0444,-0.03 -0.10542,-0.0413 -0.061,-0.0124 -0.14366,-0.0124 h -0.24082 v 0.58084 h 0.20671 q 0.0971,0 0.1695,-0.0165 0.0724,-0.0176 0.12299,-0.0641 0.0465,-0.0434 0.0682,-0.0992 0.0227,-0.0568 0.0227,-0.14366 z m 1.51722,1.10588 h -0.19327 v -0.12299 q -0.0258,0.0176 -0.0703,0.0496 -0.0434,0.031 -0.0848,0.0496 -0.0486,0.0238 -0.11162,0.0393 -0.063,0.0165 -0.14779,0.0165 -0.15607,0 -0.26459,-0.10335 -0.10852,-0.10335 -0.10852,-0.26355 0,-0.13126 0.0558,-0.21187 0.0568,-0.0817 0.16123,-0.12816 0.10542,-0.0465 0.25322,-0.0631 0.14779,-0.0165 0.31729,-0.0248 v -0.03 q 0,-0.0662 -0.0238,-0.10956 -0.0227,-0.0434 -0.0661,-0.0682 -0.0413,-0.0238 -0.0992,-0.032 -0.0579,-0.008 -0.12093,-0.008 -0.0765,0 -0.17053,0.0207 -0.094,0.0196 -0.1943,0.0579 h -0.0103 v -0.1974 q 0.0568,-0.0155 0.16433,-0.0341 0.10749,-0.0186 0.21188,-0.0186 0.12195,0 0.21187,0.0207 0.0909,0.0196 0.1571,0.0682 0.0651,0.0475 0.0992,0.12299 0.0341,0.0754 0.0341,0.18707 z m -0.19327,-0.28423 v -0.32142 q -0.0889,0.005 -0.2098,0.0155 -0.11989,0.0103 -0.19017,0.03 -0.0837,0.0238 -0.1354,0.0744 -0.0517,0.0496 -0.0517,0.13746 0,0.0992 0.0599,0.14986 0.0599,0.0496 0.18294,0.0496 0.10232,0 0.18707,-0.0393 0.0848,-0.0403 0.15709,-0.0961 z m 1.53273,0.28423 h -0.19431 v -0.65733 q 0,-0.0796 -0.009,-0.14883 -0.009,-0.0703 -0.0341,-0.10955 -0.0258,-0.0434 -0.0744,-0.0641 -0.0486,-0.0217 -0.12609,-0.0217 -0.0796,0 -0.1664,0.0393 -0.0868,0.0393 -0.1664,0.10025 v 0.86197 h -0.1943 v -1.15446 h 0.1943 v 0.12816 q 0.091,-0.0754 0.18811,-0.11782 0.0971,-0.0424 0.19947,-0.0424 0.18707,0 0.28525,0.11266 0.0982,0.11265 0.0982,0.32453 z m 1.31051,0 h -0.1943 v -0.12093 q -0.0837,0.0724 -0.17467,0.11266 -0.0909,0.0403 -0.1974,0.0403 -0.20671,0 -0.32866,-0.15916 -0.12093,-0.15916 -0.12093,-0.44132 0,-0.14676 0.0413,-0.26148 0.0424,-0.11472 0.11368,-0.19534 0.0703,-0.0785 0.1633,-0.11989 0.0941,-0.0413 0.1943,-0.0413 0.091,0 0.16124,0.0196 0.0703,0.0186 0.14779,0.0589 v -0.50023 h 0.1943 z m -0.1943,-0.28423 v -0.66249 q -0.0786,-0.0351 -0.14056,-0.0486 -0.062,-0.0134 -0.13539,-0.0134 -0.1633,0 -0.25425,0.11369 -0.0909,0.11369 -0.0909,0.32246 0,0.20567 0.0703,0.31316 0.0703,0.10645 0.22531,0.10645 0.0827,0 0.16743,-0.0362 0.0847,-0.0372 0.15813,-0.0951 z m 1.56063,-0.29248 q 0,0.28215 -0.14469,0.44545 -0.1447,0.16329 -0.38758,0.16329 -0.24494,0 -0.38964,-0.16329 -0.14366,-0.1633 -0.14366,-0.44545 0,-0.28216 0.14366,-0.44546 0.1447,-0.16433 0.38964,-0.16433 0.24288,0 0.38758,0.16433 0.14469,0.1633 0.14469,0.44546 z m -0.2005,0 q 0,-0.22428 -0.0879,-0.3328 -0.0879,-0.10956 -0.24392,-0.10956 -0.15813,0 -0.24598,0.10956 -0.0868,0.10852 -0.0868,0.3328 0,0.21704 0.0879,0.32969 0.0878,0.11162 0.24494,0.11162 0.15503,0 0.24288,-0.11058 0.0889,-0.11163 0.0889,-0.33073 z m 2.18591,0.57671 h -0.1943 v -0.65733 q 0,-0.0744 -0.007,-0.14366 -0.006,-0.0693 -0.0279,-0.11059 -0.0238,-0.0444 -0.0682,-0.0672 -0.0445,-0.0227 -0.12816,-0.0227 -0.0816,0 -0.1633,0.0414 -0.0816,0.0403 -0.1633,0.10335 0.003,0.0238 0.005,0.0558 0.002,0.031 0.002,0.062 v 0.73898 h -0.19431 v -0.65733 q 0,-0.0765 -0.007,-0.14469 -0.006,-0.0693 -0.0279,-0.11059 -0.0238,-0.0444 -0.0682,-0.0662 -0.0444,-0.0227 -0.12816,-0.0227 -0.0796,0 -0.16019,0.0393 -0.0796,0.0393 -0.15917,0.10025 v 0.86197 h -0.1943 v -1.15446 h 0.1943 v 0.12816 q 0.0909,-0.0754 0.18087,-0.11782 0.0909,-0.0424 0.19327,-0.0424 0.11782,0 0.19947,0.0496 0.0827,0.0496 0.12299,0.13746 0.11782,-0.0992 0.21498,-0.14263 0.0971,-0.0444 0.20773,-0.0444 0.19017,0 0.28009,0.11576 0.091,0.11472 0.091,0.32143 z m 1.73943,-1.42008 h -0.0103 q -0.032,-0.009 -0.0837,-0.0186 -0.0517,-0.0103 -0.0909,-0.0103 -0.12506,0 -0.1819,0.0558 -0.0558,0.0548 -0.0558,0.19947 v 0.0393 h 0.35037 v 0.1633 h -0.34417 v 0.99116 h -0.1943 v -0.99116 h -0.13126 v -0.1633 h 0.13126 v -0.0382 q 0,-0.20567 0.10232,-0.31523 0.10232,-0.11058 0.29559,-0.11058 0.0651,0 0.11678,0.006 0.0527,0.006 0.0961,0.0145 z m 0.33177,0.0724 h -0.21911 v -0.20154 h 0.21911 z m -0.0124,1.34773 h -0.1943 v -1.15446 h 0.1943 z m 0.58085,0 h -0.1943 v -1.60818 h 0.1943 z m 1.35082,-0.55708 h -0.85059 q 0,0.10646 0.032,0.18604 0.032,0.0786 0.0879,0.12919 0.0537,0.0496 0.12712,0.0744 0.0744,0.0248 0.1633,0.0248 0.11782,0 0.23668,-0.0465 0.11989,-0.0475 0.17053,-0.093 h 0.0103 v 0.21188 q -0.0982,0.0413 -0.20051,0.0692 -0.10232,0.0279 -0.21497,0.0279 -0.28733,0 -0.44856,-0.15503 -0.16123,-0.15607 -0.16123,-0.44235 0,-0.28319 0.154,-0.44959 0.15503,-0.1664 0.40721,-0.1664 0.23358,0 0.35967,0.13643 0.12712,0.13642 0.12712,0.38757 z m -0.18913,-0.14883 q -0.001,-0.15296 -0.0775,-0.23667 -0.0754,-0.0837 -0.23048,-0.0837 -0.15606,0 -0.24908,0.092 -0.092,0.092 -0.10438,0.22841 z m 1.4366,-0.64182 h -0.2191 v -0.20154 h 0.2191 z m -0.0124,1.34773 h -0.1943 v -1.15446 h 0.1943 z m 1.34979,0 h -0.1943 v -0.65733 q 0,-0.0796 -0.009,-0.14883 -0.009,-0.0703 -0.0341,-0.10955 -0.0258,-0.0434 -0.0744,-0.0641 -0.0486,-0.0217 -0.12609,-0.0217 -0.0796,0 -0.1664,0.0393 -0.0868,0.0393 -0.1664,0.10025 v 0.86197 h -0.19431 v -1.15446 h 0.19431 v 0.12816 q 0.0909,-0.0754 0.1881,-0.11782 0.0971,-0.0424 0.19947,-0.0424 0.18707,0 0.28526,0.11266 0.0982,0.11265 0.0982,0.32453 z"
         id="path10" />
      <path
         style="font-weight:normal;-inkscape-font-specification:Sans"
         d="m 163.29771,170.83842 q 0,0.15813 -0.13126,0.25941 -0.13022,0.10129 -0.35657,0.10129 -0.12815,0 -0.23564,-0.03 -0.10645,-0.031 -0.1788,-0.0672 v -0.21808 h 0.0103 q 0.092,0.0692 0.20464,0.11059 0.11266,0.0403 0.21601,0.0403 0.12816,0 0.2005,-0.0413 0.0724,-0.0413 0.0724,-0.13023 0,-0.0682 -0.0393,-0.10335 -0.0393,-0.0351 -0.1509,-0.06 -0.0413,-0.009 -0.10852,-0.0217 -0.0661,-0.0124 -0.12092,-0.0269 -0.15193,-0.0403 -0.21601,-0.11783 -0.063,-0.0785 -0.063,-0.19223 0,-0.0713 0.0289,-0.13436 0.03,-0.0631 0.0899,-0.11266 0.0579,-0.0486 0.14676,-0.0765 0.0899,-0.0289 0.20051,-0.0289 0.10335,0 0.20877,0.0258 0.10645,0.0248 0.17673,0.061 v 0.20774 h -0.0103 q -0.0744,-0.0548 -0.18087,-0.092 -0.10645,-0.0382 -0.20877,-0.0382 -0.10646,0 -0.17984,0.0413 -0.0734,0.0403 -0.0734,0.12092 0,0.0713 0.0445,0.10749 0.0434,0.0362 0.14056,0.0589 0.0537,0.0124 0.11988,0.0248 0.0672,0.0124 0.11163,0.0227 0.13539,0.031 0.20877,0.10645 0.0734,0.0765 0.0734,0.20258 z m 1.17512,0.33279 h -0.19327 v -0.12299 q -0.0258,0.0176 -0.0703,0.0496 -0.0434,0.031 -0.0848,0.0496 -0.0486,0.0238 -0.11162,0.0393 -0.063,0.0165 -0.14779,0.0165 -0.15607,0 -0.26459,-0.10335 -0.10852,-0.10335 -0.10852,-0.26355 0,-0.13126 0.0558,-0.21187 0.0568,-0.0816 0.16123,-0.12816 0.10542,-0.0465 0.25322,-0.0631 0.14779,-0.0165 0.31729,-0.0248 v -0.03 q 0,-0.0661 -0.0238,-0.10956 -0.0227,-0.0434 -0.0661,-0.0682 -0.0413,-0.0238 -0.0992,-0.032 -0.0579,-0.008 -0.12093,-0.008 -0.0765,0 -0.17053,0.0207 -0.0941,0.0196 -0.1943,0.0579 h -0.0103 v -0.19741 q 0.0568,-0.0155 0.16433,-0.0341 0.10749,-0.0186 0.21188,-0.0186 0.12195,0 0.21187,0.0207 0.0909,0.0196 0.1571,0.0682 0.0651,0.0475 0.0992,0.12299 0.0341,0.0755 0.0341,0.18707 z m -0.19327,-0.28422 v -0.32143 q -0.0889,0.005 -0.2098,0.0155 -0.11989,0.0103 -0.19017,0.03 -0.0837,0.0238 -0.1354,0.0744 -0.0517,0.0496 -0.0517,0.13746 0,0.0992 0.0599,0.14986 0.0599,0.0496 0.18294,0.0496 0.10232,0 0.18707,-0.0393 0.0848,-0.0403 0.15709,-0.0961 z m 2.25207,0.28422 h -0.19431 v -0.65732 q 0,-0.0744 -0.007,-0.14366 -0.006,-0.0692 -0.0279,-0.11059 -0.0238,-0.0444 -0.0682,-0.0672 -0.0444,-0.0227 -0.12816,-0.0227 -0.0816,0 -0.1633,0.0413 -0.0816,0.0403 -0.16329,0.10336 0.003,0.0238 0.005,0.0558 0.002,0.031 0.002,0.062 v 0.73897 h -0.1943 v -0.65732 q 0,-0.0765 -0.007,-0.1447 -0.006,-0.0692 -0.0279,-0.11058 -0.0238,-0.0445 -0.0682,-0.0661 -0.0444,-0.0227 -0.12815,-0.0227 -0.0796,0 -0.1602,0.0393 -0.0796,0.0393 -0.15916,0.10025 v 0.86196 h -0.19431 v -1.15445 h 0.19431 v 0.12816 q 0.0909,-0.0755 0.18086,-0.11783 0.0909,-0.0424 0.19327,-0.0424 0.11783,0 0.19947,0.0496 0.0827,0.0496 0.12299,0.13746 0.11783,-0.0992 0.21498,-0.14263 0.0971,-0.0444 0.20774,-0.0444 0.19017,0 0.28009,0.11576 0.091,0.11472 0.091,0.32142 z m 1.34048,-0.55707 h -0.85059 q 0,0.10645 0.032,0.18604 0.032,0.0785 0.0879,0.12919 0.0537,0.0496 0.12712,0.0744 0.0744,0.0248 0.1633,0.0248 0.11782,0 0.23668,-0.0465 0.11989,-0.0476 0.17053,-0.093 h 0.0103 v 0.21187 q -0.0982,0.0413 -0.20051,0.0692 -0.10232,0.0279 -0.21497,0.0279 -0.28732,0 -0.44855,-0.15503 -0.16124,-0.15606 -0.16124,-0.44235 0,-0.28318 0.154,-0.44958 0.15503,-0.1664 0.40721,-0.1664 0.23358,0 0.35967,0.13643 0.12712,0.13642 0.12712,0.38757 z m -0.18913,-0.14883 q -10e-4,-0.15296 -0.0775,-0.23668 -0.0754,-0.0837 -0.23047,-0.0837 -0.15607,0 -0.24908,0.092 -0.092,0.092 -0.10439,0.22841 z m 2.16421,0.7059 h -0.1943 v -0.12092 q -0.0837,0.0724 -0.17467,0.11265 -0.0909,0.0403 -0.1974,0.0403 -0.20671,0 -0.32867,-0.15916 -0.12092,-0.15917 -0.12092,-0.44132 0,-0.14676 0.0413,-0.26148 0.0424,-0.11472 0.11369,-0.19534 0.0703,-0.0786 0.1633,-0.11989 0.094,-0.0413 0.1943,-0.0413 0.0909,0 0.16123,0.0196 0.0703,0.0186 0.1478,0.0589 v -0.50023 h 0.1943 z m -0.1943,-0.28422 v -0.66249 q -0.0786,-0.0351 -0.14056,-0.0486 -0.062,-0.0134 -0.1354,-0.0134 -0.16329,0 -0.25424,0.11369 -0.0909,0.11368 -0.0909,0.32246 0,0.20567 0.0703,0.31316 0.0703,0.10645 0.2253,0.10645 0.0827,0 0.16744,-0.0362 0.0847,-0.0372 0.15813,-0.0951 z m 0.78548,-1.0635 h -0.21911 v -0.20154 h 0.21911 z m -0.0124,1.34772 h -0.19431 v -1.15445 h 0.19431 z m 1.10484,-0.94258 h -0.0103 q -0.0434,-0.0103 -0.0847,-0.0145 -0.0403,-0.005 -0.0961,-0.005 -0.0899,0 -0.17363,0.0403 -0.0837,0.0393 -0.16124,0.10232 v 0.81959 h -0.1943 v -1.15445 h 0.1943 v 0.17053 q 0.11576,-0.093 0.20361,-0.13126 0.0889,-0.0393 0.18087,-0.0393 0.0506,0 0.0734,0.003 0.0227,0.002 0.0682,0.009 z m 1.14929,0.38551 h -0.8506 q 0,0.10645 0.032,0.18604 0.032,0.0785 0.0879,0.12919 0.0537,0.0496 0.12713,0.0744 0.0744,0.0248 0.16329,0.0248 0.11783,0 0.23668,-0.0465 0.11989,-0.0476 0.17053,-0.093 h 0.0103 v 0.21187 q -0.0982,0.0413 -0.20051,0.0692 -0.10232,0.0279 -0.21497,0.0279 -0.28732,0 -0.44855,-0.15503 -0.16123,-0.15606 -0.16123,-0.44235 0,-0.28318 0.15399,-0.44958 0.15503,-0.1664 0.40721,-0.1664 0.23358,0 0.35967,0.13643 0.12713,0.13642 0.12713,0.38757 z m -0.18914,-0.14883 q -0.001,-0.15296 -0.0775,-0.23668 -0.0755,-0.0837 -0.23048,-0.0837 -0.15606,0 -0.24908,0.092 -0.092,0.092 -0.10439,0.22841 z m 1.33739,0.63356 q -0.0971,0.0465 -0.185,0.0723 -0.0868,0.0258 -0.185,0.0258 -0.12506,0 -0.22945,-0.0362 -0.10439,-0.0372 -0.1788,-0.11162 -0.0754,-0.0744 -0.11679,-0.18811 -0.0413,-0.11368 -0.0413,-0.26561 0,-0.28319 0.15503,-0.44442 0.15606,-0.16123 0.41135,-0.16123 0.0992,0 0.1943,0.0279 0.0961,0.0279 0.1757,0.0682 v 0.216 h -0.0103 q -0.0889,-0.0692 -0.18396,-0.10645 -0.0941,-0.0372 -0.18397,-0.0372 -0.16537,0 -0.26149,0.11162 -0.0951,0.11059 -0.0951,0.32557 0,0.20877 0.093,0.32142 0.094,0.11163 0.26355,0.11163 0.0589,0 0.11989,-0.0155 0.061,-0.0155 0.10955,-0.0403 0.0424,-0.0217 0.0796,-0.0455 0.0372,-0.0248 0.0589,-0.0424 h 0.0103 z m 0.84853,0.062 q -0.0548,0.0145 -0.11989,0.0238 -0.0641,0.009 -0.11472,0.009 -0.17674,0 -0.26872,-0.0951 -0.092,-0.0951 -0.092,-0.3049 v -0.61391 h -0.13125 v -0.1633 h 0.13125 V 169.685 h 0.19431 v 0.33176 h 0.40101 v 0.1633 h -0.40101 v 0.52606 q 0,0.0909 0.004,0.14263 0.004,0.0506 0.0289,0.0951 0.0227,0.0413 0.062,0.061 0.0403,0.0186 0.12196,0.0186 0.0475,0 0.0992,-0.0134 0.0517,-0.0145 0.0744,-0.0238 h 0.0103 z m 1.21853,-0.56638 q 0,0.28216 -0.1447,0.44545 -0.14469,0.1633 -0.38757,0.1633 -0.24495,0 -0.38964,-0.1633 -0.14366,-0.16329 -0.14366,-0.44545 0,-0.28215 0.14366,-0.44545 0.14469,-0.16433 0.38964,-0.16433 0.24288,0 0.38757,0.16433 0.1447,0.1633 0.1447,0.44545 z m -0.20051,0 q 0,-0.22427 -0.0879,-0.33279 -0.0878,-0.10956 -0.24391,-0.10956 -0.15813,0 -0.24598,0.10956 -0.0868,0.10852 -0.0868,0.33279 0,0.21704 0.0879,0.3297 0.0879,0.11162 0.24495,0.11162 0.15503,0 0.24288,-0.11059 0.0889,-0.11162 0.0889,-0.33073 z m 1.22164,-0.36587 h -0.0103 q -0.0434,-0.0103 -0.0848,-0.0145 -0.0403,-0.005 -0.0961,-0.005 -0.0899,0 -0.17363,0.0403 -0.0837,0.0393 -0.16123,0.10232 v 0.81959 h -0.1943 v -1.15445 h 0.1943 v 0.17053 q 0.11576,-0.093 0.20361,-0.13126 0.0889,-0.0393 0.18086,-0.0393 0.0507,0 0.0734,0.003 0.0227,0.002 0.0682,0.009 z m 1.18132,-0.21187 -0.67386,1.58027 h -0.20774 l 0.21498,-0.48163 -0.45993,-1.09864 h 0.21084 l 0.35451,0.85576 0.3576,-0.85576 z"
         id="path11" />
    </g>
    <path
       d="m 52.06595,163.97306 h -0.265617 l -0.514698,-0.61185 H 50.99728 v 0.61185 h -0.204639 v -1.53893 h 0.430982 q 0.139527,0 0.232544,0.0186 0.09302,0.0176 0.167432,0.0641 0.08372,0.0527 0.130225,0.13332 0.04754,0.0796 0.04754,0.20257 0,0.1664 -0.08372,0.27906 -0.08372,0.11162 -0.230478,0.16846 z m -0.478524,-1.10588 q 0,-0.0661 -0.02377,-0.11679 -0.02274,-0.0517 -0.07648,-0.0868 -0.04444,-0.03 -0.10542,-0.0413 -0.06098,-0.0124 -0.14366,-0.0124 h -0.240813 v 0.58085 h 0.206706 q 0.09715,0 0.169499,-0.0165 0.07235,-0.0176 0.12299,-0.0641 0.04651,-0.0434 0.06821,-0.0992 0.02274,-0.0568 0.02274,-0.14366 z m 1.576133,0.54881 h -0.850595 q 0,0.10645 0.03204,0.18603 0.03204,0.0786 0.08785,0.12919 0.05374,0.0496 0.127124,0.0744 0.07441,0.0248 0.163298,0.0248 0.117822,0 0.236678,-0.0465 0.119889,-0.0475 0.170532,-0.093 h 0.01034 v 0.21187 q -0.09819,0.0413 -0.200505,0.0693 -0.10232,0.0279 -0.214974,0.0279 -0.287322,0 -0.448553,-0.15503 -0.16123,-0.15606 -0.16123,-0.44235 0,-0.28319 0.153996,-0.44959 0.155029,-0.16639 0.407211,-0.16639 0.233577,0 0.359668,0.13642 0.127124,0.13643 0.127124,0.38758 z m -0.189136,-0.14883 q -0.001,-0.15296 -0.07751,-0.23668 -0.07545,-0.0837 -0.230478,-0.0837 -0.156063,0 -0.24908,0.092 -0.09199,0.092 -0.104387,0.22841 z m 1.337388,0.63355 q -0.09715,0.0465 -0.185002,0.0724 -0.08682,0.0258 -0.185001,0.0258 -0.125058,0 -0.229444,-0.0362 -0.104387,-0.0372 -0.178801,-0.11162 -0.07545,-0.0744 -0.116789,-0.1881 -0.04134,-0.11369 -0.04134,-0.26562 0,-0.28318 0.15503,-0.44442 0.156063,-0.16123 0.411345,-0.16123 0.09922,0 0.194303,0.0279 0.09612,0.0279 0.1757,0.0682 v 0.21601 h -0.01033 q -0.08888,-0.0693 -0.183968,-0.10645 -0.09405,-0.0372 -0.183969,-0.0372 -0.165365,0 -0.261483,0.11162 -0.09509,0.11059 -0.09509,0.32556 0,0.20878 0.09302,0.32143 0.09405,0.11162 0.26355,0.11162 0.05891,0 0.11989,-0.0155 0.06098,-0.0155 0.109554,-0.0403 0.04237,-0.0217 0.07958,-0.0455 0.03721,-0.0248 0.05891,-0.0424 h 0.01033 z m 1.233002,-0.50436 q 0,0.28215 -0.144694,0.44545 -0.144694,0.1633 -0.387574,0.1633 -0.244947,0 -0.389641,-0.1633 -0.143661,-0.1633 -0.143661,-0.44545 0,-0.28215 0.143661,-0.44545 0.144694,-0.16433 0.389641,-0.16433 0.24288,0 0.387574,0.16433 0.144694,0.1633 0.144694,0.44545 z m -0.200505,0 q 0,-0.22428 -0.08785,-0.3328 -0.08785,-0.10955 -0.243913,-0.10955 -0.15813,0 -0.24598,0.10955 -0.08682,0.10852 -0.08682,0.3328 0,0.21704 0.08785,0.3297 0.08785,0.11162 0.244947,0.11162 0.155029,0 0.24288,-0.11059 0.08888,-0.11162 0.08888,-0.33073 z m 1.221633,-0.36587 h -0.01033 q -0.04341,-0.0103 -0.08475,-0.0145 -0.04031,-0.005 -0.09612,-0.005 -0.08992,0 -0.173633,0.0403 -0.08372,0.0393 -0.161231,0.10232 v 0.81959 h -0.194304 v -1.15445 h 0.194304 v 0.17053 q 0.115755,-0.093 0.203606,-0.13126 0.08888,-0.0393 0.180867,-0.0393 0.05064,0 0.07338,0.003 0.02274,0.002 0.06821,0.009 z m 1.119313,0.94258 h -0.194303 v -0.12092 q -0.08372,0.0723 -0.174667,0.11265 -0.09095,0.0403 -0.197404,0.0403 -0.206706,0 -0.328663,-0.15917 -0.120923,-0.15916 -0.120923,-0.44131 0,-0.14676 0.04134,-0.26149 0.04237,-0.11472 0.113689,-0.19533 0.07028,-0.0785 0.163297,-0.11989 0.09405,-0.0413 0.194304,-0.0413 0.09095,0 0.161231,0.0196 0.07028,0.0186 0.147795,0.0589 v -0.50022 h 0.194303 z m -0.194303,-0.28422 v -0.66249 q -0.07855,-0.0351 -0.14056,-0.0486 -0.06201,-0.0134 -0.135393,-0.0134 -0.163298,0 -0.254248,0.11369 -0.09095,0.11369 -0.09095,0.32246 0,0.20568 0.07028,0.31316 0.07028,0.10646 0.22531,0.10646 0.08268,0 0.167432,-0.0362 0.08475,-0.0372 0.15813,-0.0951 z"
       id="text11"
       style="font-size:2.11667px;font-family:Sans;-inkscape-font-specification:Sans;text-align:center;text-anchor:middle;fill:#ffffff;stroke-width:0.265112"
       aria-label="Record" />
    <path
       d="m 38.869121,163.90381 h -0.607716 v -0.1571 h 0.201539 v -1.22473 h -0.201539 v -0.1571 h 0.607716 v 0.1571 h -0.201538 v 1.22473 h 0.201538 z m 1.298114,0 h -0.194304 v -0.65733 q 0,-0.0796 -0.0093,-0.14882 -0.0093,-0.0703 -0.03411,-0.10956 -0.02584,-0.0434 -0.07441,-0.0641 -0.04858,-0.0217 -0.126091,-0.0217 -0.07958,0 -0.166398,0.0393 -0.08682,0.0393 -0.166398,0.10025 v 0.86197 h -0.194304 v -1.15445 h 0.194304 v 0.12815 q 0.09095,-0.0754 0.188102,-0.11782 0.09715,-0.0424 0.199471,-0.0424 0.187069,0 0.285255,0.11265 0.09819,0.11266 0.09819,0.32453 z m 1.390098,-0.59118 q 0,0.14056 -0.04031,0.25735 -0.04031,0.11575 -0.113688,0.19637 -0.06821,0.0765 -0.161231,0.11886 -0.09198,0.0413 -0.195337,0.0413 -0.08992,0 -0.163298,-0.0196 -0.07235,-0.0196 -0.147794,-0.061 v 0.48369 h -0.194304 v -1.58026 h 0.194304 v 0.12092 q 0.07751,-0.0651 0.173633,-0.10852 0.09715,-0.0444 0.206706,-0.0444 0.208773,0 0.324528,0.15813 0.116789,0.15709 0.116789,0.43718 z m -0.200505,0.005 q 0,-0.20878 -0.07131,-0.31213 -0.07131,-0.10335 -0.219109,-0.10335 -0.08372,0 -0.168465,0.0362 -0.08475,0.0362 -0.162264,0.0951 v 0.65422 q 0.08268,0.0372 0.141593,0.0506 0.05994,0.0134 0.135393,0.0134 0.162264,0 0.253215,-0.10955 0.09095,-0.10956 0.09095,-0.32453 z m 1.460379,0.58601 h -0.194304 v -0.12816 q -0.09819,0.0775 -0.188103,0.11886 -0.08992,0.0413 -0.198437,0.0413 -0.181902,0 -0.283188,-0.11059 -0.101286,-0.11162 -0.101286,-0.3266 v -0.7493 h 0.194304 v 0.65732 q 0,0.0879 0.0083,0.1509 0.0083,0.062 0.03514,0.10645 0.02791,0.0455 0.07235,0.0661 0.04444,0.0207 0.129192,0.0207 0.07545,0 0.164331,-0.0393 0.08992,-0.0393 0.167432,-0.10025 v -0.86196 h 0.194304 z m 0.981853,-0.0103 q -0.05478,0.0145 -0.119889,0.0238 -0.06408,0.009 -0.114722,0.009 -0.176734,0 -0.268718,-0.0951 -0.09198,-0.0951 -0.09198,-0.30489 v -0.61392 h -0.131258 v -0.16329 h 0.131258 v -0.33177 h 0.194304 v 0.33177 h 0.401009 v 0.16329 h -0.401009 v 0.52607 q 0,0.091 0.0041,0.14263 0.0041,0.0506 0.02894,0.0951 0.02274,0.0413 0.06201,0.061 0.04031,0.0186 0.121957,0.0186 0.04754,0 0.09922,-0.0134 0.05168,-0.0145 0.07441,-0.0238 h 0.01033 z"
       id="text12"
       style="font-size:2.11667px;font-family:Sans;-inkscape-font-specification:Sans;text-align:center;text-anchor:middle;fill:#ffffff;stroke-width:0.265112"
       aria-label="Input" />
    <path
       d="m 140.83768,250.88355 h -0.26562 l -0.5147,-0.61185 h -0.28835 v 0.61185 h -0.20464 v -1.53893 h 0.43098 q 0.13953,0 0.23255,0.0186 0.093,0.0176 0.16743,0.0641 0.0837,0.0527 0.13022,0.13333 0.0475,0.0796 0.0475,0.20257 0,0.1664 -0.0837,0.27905 -0.0837,0.11162 -0.23048,0.16847 z m -0.47853,-1.10588 q 0,-0.0661 -0.0238,-0.11679 -0.0227,-0.0517 -0.0765,-0.0868 -0.0444,-0.03 -0.10542,-0.0413 -0.061,-0.0124 -0.14366,-0.0124 h -0.24081 v 0.58084 h 0.2067 q 0.0972,0 0.1695,-0.0165 0.0724,-0.0176 0.12299,-0.0641 0.0465,-0.0434 0.0682,-0.0992 0.0227,-0.0568 0.0227,-0.14366 z m 1.57614,0.5488 h -0.8506 q 0,0.10646 0.032,0.18604 0.032,0.0785 0.0879,0.12919 0.0537,0.0496 0.12713,0.0744 0.0744,0.0248 0.16329,0.0248 0.11783,0 0.23668,-0.0465 0.11989,-0.0475 0.17053,-0.093 h 0.0103 v 0.21188 q -0.0982,0.0413 -0.20051,0.0692 -0.10232,0.0279 -0.21497,0.0279 -0.28732,0 -0.44855,-0.15503 -0.16123,-0.15606 -0.16123,-0.44235 0,-0.28319 0.15399,-0.44959 0.15503,-0.1664 0.40721,-0.1664 0.23358,0 0.35967,0.13643 0.12713,0.13643 0.12713,0.38757 z m -0.18914,-0.14883 q -0.001,-0.15296 -0.0775,-0.23667 -0.0755,-0.0837 -0.23048,-0.0837 -0.15606,0 -0.24908,0.092 -0.092,0.092 -0.10439,0.22841 z m 1.48208,-0.44855 -0.46715,1.15446 h -0.19534 l -0.46405,-1.15446 h 0.21084 l 0.3576,0.91881 0.3545,-0.91881 z m 1.202,0.59738 h -0.8506 q 0,0.10646 0.032,0.18604 0.032,0.0785 0.0879,0.12919 0.0537,0.0496 0.12713,0.0744 0.0744,0.0248 0.16329,0.0248 0.11783,0 0.23668,-0.0465 0.11989,-0.0475 0.17054,-0.093 h 0.0103 v 0.21188 q -0.0982,0.0413 -0.2005,0.0692 -0.10232,0.0279 -0.21498,0.0279 -0.28732,0 -0.44855,-0.15503 -0.16123,-0.15606 -0.16123,-0.44235 0,-0.28319 0.154,-0.44959 0.15502,-0.1664 0.40721,-0.1664 0.23357,0 0.35966,0.13643 0.12713,0.13643 0.12713,0.38757 z m -0.18914,-0.14883 q -0.001,-0.15296 -0.0775,-0.23667 -0.0754,-0.0837 -0.23048,-0.0837 -0.15606,0 -0.24908,0.092 -0.092,0.092 -0.10439,0.22841 z m 1.20407,-0.23667 h -0.0103 q -0.0434,-0.0103 -0.0848,-0.0145 -0.0403,-0.005 -0.0961,-0.005 -0.0899,0 -0.17363,0.0403 -0.0837,0.0393 -0.16123,0.10232 v 0.81959 h -0.1943 v -1.15446 h 0.1943 v 0.17054 q 0.11575,-0.093 0.2036,-0.13126 0.0889,-0.0393 0.18087,-0.0393 0.0506,0 0.0734,0.003 0.0227,0.002 0.0682,0.009 z m 1.00769,0.60978 q 0,0.15813 -0.13126,0.25942 -0.13023,0.10128 -0.35657,0.10128 -0.12816,0 -0.23564,-0.03 -0.10646,-0.031 -0.1788,-0.0672 v -0.21808 h 0.0103 q 0.092,0.0692 0.20464,0.11059 0.11265,0.0403 0.21601,0.0403 0.12816,0 0.2005,-0.0413 0.0724,-0.0413 0.0724,-0.13023 0,-0.0682 -0.0393,-0.10335 -0.0393,-0.0351 -0.1509,-0.0599 -0.0413,-0.009 -0.10852,-0.0217 -0.0662,-0.0124 -0.12092,-0.0269 -0.15193,-0.0403 -0.21601,-0.11782 -0.0631,-0.0786 -0.0631,-0.19224 0,-0.0713 0.0289,-0.13436 0.03,-0.063 0.0899,-0.11265 0.0579,-0.0486 0.14676,-0.0765 0.0899,-0.0289 0.20051,-0.0289 0.10335,0 0.20877,0.0258 0.10645,0.0248 0.17673,0.061 v 0.20774 h -0.0103 q -0.0744,-0.0548 -0.18087,-0.092 -0.10645,-0.0382 -0.20877,-0.0382 -0.10646,0 -0.17984,0.0413 -0.0734,0.0403 -0.0734,0.12092 0,0.0713 0.0444,0.10749 0.0434,0.0362 0.14056,0.0589 0.0538,0.0124 0.11989,0.0248 0.0672,0.0124 0.11162,0.0227 0.1354,0.031 0.20878,0.10646 0.0734,0.0765 0.0734,0.20257 z m 1.24437,-0.22428 h -0.8506 q 0,0.10646 0.032,0.18604 0.032,0.0785 0.0879,0.12919 0.0538,0.0496 0.12713,0.0744 0.0744,0.0248 0.16329,0.0248 0.11783,0 0.23668,-0.0465 0.11989,-0.0475 0.17054,-0.093 h 0.0103 v 0.21188 q -0.0982,0.0413 -0.2005,0.0692 -0.10232,0.0279 -0.21498,0.0279 -0.28732,0 -0.44855,-0.15503 -0.16123,-0.15606 -0.16123,-0.44235 0,-0.28319 0.15399,-0.44959 0.15503,-0.1664 0.40722,-0.1664 0.23357,0 0.35966,0.13643 0.12713,0.13643 0.12713,0.38757 z m -0.18914,-0.14883 q -0.001,-0.15296 -0.0775,-0.23667 -0.0754,-0.0837 -0.23048,-0.0837 -0.15606,0 -0.24908,0.092 -0.092,0.092 -0.10439,0.22841 z"
       id="text13"
       style="font-size:2.11667px;font-family:Sans;-inkscape-font-specification:Sans;text-align:center;text-anchor:middle;fill:#ffffff;stroke-width:0.265112"
       aria-label="Reverse" />
    <path
       d="m 101.47757,250.87941 h -0.26562 l -0.5147,-0.61185 h -0.28836 v 0.61185 h -0.20464 v -1.53893 h 0.43099 q 0.13952,0 0.23254,0.0186 0.093,0.0176 0.16743,0.0641 0.0837,0.0527 0.13023,0.13332 0.0475,0.0796 0.0475,0.20257 0,0.1664 -0.0837,0.27906 -0.0837,0.11162 -0.23048,0.16846 z m -0.47853,-1.10588 q 0,-0.0661 -0.0238,-0.11679 -0.0227,-0.0517 -0.0765,-0.0868 -0.0444,-0.03 -0.10542,-0.0413 -0.061,-0.0124 -0.14366,-0.0124 h -0.24082 v 0.58085 h 0.20671 q 0.0972,0 0.1695,-0.0165 0.0724,-0.0176 0.12299,-0.0641 0.0465,-0.0434 0.0682,-0.0992 0.0227,-0.0568 0.0227,-0.14366 z m 1.51723,1.10588 H 102.323 v -0.12299 q -0.0258,0.0176 -0.0703,0.0496 -0.0434,0.031 -0.0847,0.0496 -0.0486,0.0238 -0.11162,0.0393 -0.063,0.0165 -0.1478,0.0165 -0.15606,0 -0.26458,-0.10335 -0.10853,-0.10336 -0.10853,-0.26355 0,-0.13126 0.0558,-0.21188 0.0568,-0.0816 0.16123,-0.12816 0.10542,-0.0465 0.25321,-0.063 0.1478,-0.0165 0.3173,-0.0248 v -0.03 q 0,-0.0661 -0.0238,-0.10955 -0.0227,-0.0434 -0.0662,-0.0682 -0.0413,-0.0238 -0.0992,-0.032 -0.0579,-0.008 -0.12093,-0.008 -0.0765,0 -0.17053,0.0207 -0.094,0.0196 -0.1943,0.0579 h -0.0103 v -0.19741 q 0.0568,-0.0155 0.16433,-0.0341 0.10749,-0.0186 0.21187,-0.0186 0.12196,0 0.21188,0.0207 0.0909,0.0196 0.1571,0.0682 0.0651,0.0476 0.0992,0.12299 0.0341,0.0755 0.0341,0.18707 z m -0.19327,-0.28422 v -0.32143 q -0.0889,0.005 -0.20981,0.0155 -0.11989,0.0103 -0.19017,0.03 -0.0837,0.0238 -0.13539,0.0744 -0.0517,0.0496 -0.0517,0.13746 0,0.0992 0.0599,0.14986 0.0599,0.0496 0.18294,0.0496 0.10231,0 0.18707,-0.0393 0.0847,-0.0403 0.15709,-0.0961 z m 1.16686,0.27388 q -0.0548,0.0145 -0.11989,0.0238 -0.0641,0.009 -0.11472,0.009 -0.17673,0 -0.26872,-0.0951 -0.092,-0.0951 -0.092,-0.30489 v -0.61392 h -0.13126 v -0.16329 h 0.13126 v -0.33177 h 0.1943 v 0.33177 h 0.40102 v 0.16329 h -0.401 v 0.52607 q 0,0.0909 0.004,0.14263 0.004,0.0506 0.0289,0.0951 0.0227,0.0413 0.062,0.061 0.0403,0.0186 0.12195,0.0186 0.0475,0 0.0992,-0.0134 0.0517,-0.0145 0.0744,-0.0238 h 0.0103 z m 1.20097,-0.54673 h -0.8506 q 0,0.10645 0.032,0.18603 0.032,0.0785 0.0879,0.12919 0.0537,0.0496 0.12713,0.0744 0.0744,0.0248 0.1633,0.0248 0.11782,0 0.23668,-0.0465 0.11989,-0.0475 0.17053,-0.093 h 0.0103 v 0.21187 q -0.0982,0.0413 -0.20051,0.0692 -0.10232,0.0279 -0.21497,0.0279 -0.28733,0 -0.44856,-0.15503 -0.16123,-0.15606 -0.16123,-0.44235 0,-0.28319 0.154,-0.44958 0.15503,-0.1664 0.40721,-0.1664 0.23358,0 0.35967,0.13642 0.12713,0.13643 0.12713,0.38758 z m -0.18913,-0.14883 q -0.001,-0.15296 -0.0775,-0.23668 -0.0755,-0.0837 -0.23049,-0.0837 -0.15606,0 -0.24908,0.092 -0.092,0.092 -0.10438,0.22841 z"
       id="text14"
       style="font-size:2.11667px;font-family:Sans;-inkscape-font-specification:Sans;text-align:center;text-anchor:middle;fill:#ffffff;stroke-width:0.265112"
       aria-label="Rate" />
    <path
       d="m 136.07041,163.90592 h -0.21807 l -0.1509,-0.42892 h -0.66559 l -0.1509,0.42892 h -0.20774 l 0.56018,-1.53893 h 0.27285 z m -0.43201,-0.60462 -0.26975,-0.75551 -0.27079,0.75551 z m 1.5968,0.60462 h -0.1943 v -0.12816 q -0.0982,0.0775 -0.1881,0.11886 -0.0899,0.0413 -0.19844,0.0413 -0.1819,0 -0.28319,-0.11059 -0.10129,-0.11162 -0.10129,-0.32659 v -0.74931 h 0.19431 v 0.65732 q 0,0.0879 0.008,0.1509 0.008,0.062 0.0351,0.10645 0.0279,0.0455 0.0723,0.0661 0.0445,0.0207 0.12919,0.0207 0.0755,0 0.16434,-0.0393 0.0899,-0.0393 0.16743,-0.10025 v -0.86196 h 0.1943 z m 0.98186,-0.0103 q -0.0548,0.0145 -0.11989,0.0238 -0.0641,0.009 -0.11473,0.009 -0.17673,0 -0.26871,-0.0951 -0.092,-0.0951 -0.092,-0.30489 v -0.61392 h -0.13126 v -0.16329 h 0.13126 v -0.33177 h 0.19431 v 0.33177 h 0.40101 v 0.16329 h -0.40101 v 0.52632 q 0,0.0909 0.004,0.14263 0.004,0.0506 0.0289,0.0951 0.0227,0.0413 0.062,0.061 0.0403,0.0186 0.12196,0.0186 0.0475,0 0.0992,-0.0134 0.0517,-0.0145 0.0744,-0.0238 h 0.0103 z m 1.21853,-0.56637 q 0,0.28215 -0.1447,0.44545 -0.14469,0.1633 -0.38757,0.1633 -0.24495,0 -0.38964,-0.1633 -0.14366,-0.1633 -0.14366,-0.44545 0,-0.28215 0.14366,-0.44545 0.14469,-0.16433 0.38964,-0.16433 0.24288,0 0.38757,0.16433 0.1447,0.1633 0.1447,0.44545 z m -0.20051,0 q 0,-0.22428 -0.0879,-0.3328 -0.0879,-0.10955 -0.24391,-0.10955 -0.15813,0 -0.24598,0.10955 -0.0868,0.10852 -0.0868,0.3328 0,0.21704 0.0879,0.3297 0.0879,0.11162 0.24495,0.11162 0.15503,0 0.24288,-0.11059 0.0889,-0.11162 0.0889,-0.33073 z m 1.11311,-0.003 h -0.64492 v -0.18707 h 0.64492 z m 1.52653,0.57981 h -0.21808 l -0.15089,-0.42892 h -0.66559 l -0.1509,0.42892 h -0.20774 l 0.56017,-1.53893 h 0.27286 z m -0.43202,-0.60462 -0.26975,-0.75551 -0.27078,0.75551 z m 1.58647,0.60462 h -0.1943 v -0.12092 q -0.0837,0.0723 -0.17467,0.11265 -0.0909,0.0403 -0.1974,0.0403 -0.20671,0 -0.32867,-0.15917 -0.12092,-0.15916 -0.12092,-0.44131 0,-0.14676 0.0413,-0.26149 0.0424,-0.11472 0.11369,-0.19533 0.0703,-0.0786 0.1633,-0.11989 0.0941,-0.0413 0.1943,-0.0413 0.091,0 0.16123,0.0196 0.0703,0.0186 0.1478,0.0589 v -0.50022 h 0.1943 z m -0.1943,-0.28422 v -0.66249 q -0.0786,-0.0351 -0.14056,-0.0486 -0.062,-0.0134 -0.13539,-0.0134 -0.1633,0 -0.25425,0.11369 -0.0909,0.11369 -0.0909,0.32246 0,0.20568 0.0703,0.31316 0.0703,0.10646 0.22531,0.10646 0.0827,0 0.16743,-0.0362 0.0848,-0.0372 0.15813,-0.0951 z m 1.5751,-0.87023 -0.46716,1.15445 h -0.19533 l -0.46406,-1.15445 h 0.21084 l 0.3576,0.9188 0.3545,-0.9188 z m 1.11001,1.15445 h -0.19327 v -0.12299 q -0.0258,0.0176 -0.0703,0.0496 -0.0434,0.031 -0.0847,0.0496 -0.0486,0.0238 -0.11162,0.0393 -0.0631,0.0165 -0.1478,0.0165 -0.15606,0 -0.26458,-0.10335 -0.10852,-0.10336 -0.10852,-0.26355 0,-0.13126 0.0558,-0.21188 0.0568,-0.0816 0.16123,-0.12816 0.10542,-0.0465 0.25322,-0.063 0.14779,-0.0165 0.31729,-0.0248 v -0.03 q 0,-0.0661 -0.0238,-0.10955 -0.0227,-0.0434 -0.0661,-0.0682 -0.0413,-0.0238 -0.0992,-0.032 -0.0579,-0.008 -0.12092,-0.008 -0.0765,0 -0.17053,0.0207 -0.0941,0.0196 -0.19431,0.0579 h -0.0103 v -0.1974 q 0.0568,-0.0155 0.16433,-0.0341 0.10749,-0.0186 0.21187,-0.0186 0.12196,0 0.21188,0.0207 0.091,0.0196 0.15709,0.0682 0.0651,0.0476 0.0992,0.12299 0.0341,0.0755 0.0341,0.18707 z m -0.19327,-0.28422 v -0.32143 q -0.0889,0.005 -0.20981,0.0155 -0.11989,0.0103 -0.19017,0.03 -0.0837,0.0238 -0.13539,0.0744 -0.0517,0.0496 -0.0517,0.13746 0,0.0992 0.06,0.14986 0.0599,0.0496 0.18293,0.0496 0.10232,0 0.18707,-0.0393 0.0847,-0.0403 0.1571,-0.0961 z m 1.53273,0.28422 h -0.19431 v -0.65733 q 0,-0.0796 -0.009,-0.14882 -0.009,-0.0703 -0.0341,-0.10956 -0.0258,-0.0434 -0.0744,-0.0641 -0.0486,-0.0217 -0.12609,-0.0217 -0.0796,0 -0.1664,0.0393 -0.0868,0.0393 -0.1664,0.10025 v 0.86197 h -0.1943 v -1.15445 h 0.1943 v 0.12815 q 0.0909,-0.0754 0.1881,-0.11782 0.0972,-0.0424 0.19948,-0.0424 0.18706,0 0.28525,0.11265 0.0982,0.11266 0.0982,0.32453 z m 1.22783,-0.0724 q -0.0971,0.0465 -0.185,0.0724 -0.0868,0.0258 -0.185,0.0258 -0.12506,0 -0.22945,-0.0362 -0.10438,-0.0372 -0.1788,-0.11162 -0.0755,-0.0744 -0.11679,-0.1881 -0.0413,-0.11369 -0.0413,-0.26562 0,-0.28318 0.15503,-0.44442 0.15606,-0.16123 0.41135,-0.16123 0.0992,0 0.1943,0.0279 0.0961,0.0279 0.1757,0.0682 v 0.21601 h -0.0103 q -0.0889,-0.0692 -0.18396,-0.10645 -0.0941,-0.0372 -0.18397,-0.0372 -0.16537,0 -0.26149,0.11162 -0.0951,0.11059 -0.0951,0.32556 0,0.20878 0.093,0.32143 0.0941,0.11162 0.26355,0.11162 0.0589,0 0.11989,-0.0155 0.061,-0.0155 0.10955,-0.0403 0.0424,-0.0217 0.0796,-0.0455 0.0372,-0.0248 0.0589,-0.0424 h 0.0103 z m 1.21543,-0.48472 h -0.85059 q 0,0.10645 0.032,0.18603 0.032,0.0785 0.0879,0.12919 0.0537,0.0496 0.12712,0.0744 0.0744,0.0248 0.1633,0.0248 0.11782,0 0.23668,-0.0465 0.11989,-0.0475 0.17053,-0.093 h 0.0103 v 0.21187 q -0.0982,0.0413 -0.2005,0.0692 -0.10232,0.0279 -0.21498,0.0279 -0.28732,0 -0.44855,-0.15503 -0.16123,-0.15606 -0.16123,-0.44235 0,-0.28319 0.154,-0.44959 0.15503,-0.16639 0.40721,-0.16639 0.23358,0 0.35967,0.13642 0.12712,0.13643 0.12712,0.38758 z m -0.18914,-0.14883 q -0.001,-0.15296 -0.0775,-0.23668 -0.0754,-0.0837 -0.23048,-0.0837 -0.15606,0 -0.24908,0.092 -0.092,0.092 -0.10438,0.22841 z"
       id="path15"
       style="font-size:2.11667px;font-family:Sans;-inkscape-font-specification:Sans;text-align:center;text-anchor:middle;fill:#ffffff;stroke-width:0.265112" />
    <path
       d="m 144.28338,166.11251 q 0,0.0899 -0.0424,0.17776 -0.0413,0.0879 -0.11679,0.14883 -0.0827,0.0662 -0.19327,0.10335 -0.10956,0.0372 -0.26459,0.0372 -0.16639,0 -0.29972,-0.031 -0.13229,-0.031 -0.26975,-0.092 v -0.25631 h 0.0145 q 0.11679,0.0971 0.26975,0.14986 0.15296,0.0527 0.28732,0.0527 0.19017,0 0.29559,-0.0713 0.10645,-0.0713 0.10645,-0.19017 0,-0.10231 -0.0506,-0.15089 -0.0496,-0.0486 -0.15193,-0.0755 -0.0775,-0.0207 -0.16846,-0.0341 -0.0899,-0.0134 -0.19121,-0.0341 -0.20464,-0.0434 -0.30385,-0.1478 -0.0982,-0.10542 -0.0982,-0.27388 0,-0.19327 0.1633,-0.31626 0.1633,-0.12403 0.41444,-0.12403 0.16227,0 0.29766,0.031 0.13539,0.031 0.23978,0.0765 v 0.24185 h -0.0145 q -0.0879,-0.0744 -0.23151,-0.12299 -0.14263,-0.0496 -0.29249,-0.0496 -0.16433,0 -0.26458,0.0682 -0.0992,0.0682 -0.0992,0.1757 0,0.0961 0.0496,0.1509 0.0496,0.0548 0.17466,0.0837 0.0661,0.0145 0.18811,0.0351 0.12195,0.0207 0.2067,0.0424 0.17157,0.0455 0.25838,0.13746 0.0868,0.092 0.0868,0.25735 z m 1.32912,-0.15193 q 0,0.14056 -0.0403,0.25735 -0.0403,0.11575 -0.11368,0.19637 -0.0682,0.0765 -0.16124,0.11885 -0.092,0.0413 -0.19533,0.0413 -0.0899,0 -0.1633,-0.0196 -0.0724,-0.0196 -0.1478,-0.061 v 0.48369 h -0.1943 v -1.58027 h 0.1943 v 0.12093 q 0.0775,-0.0651 0.17364,-0.10852 0.0971,-0.0445 0.2067,-0.0445 0.20878,0 0.32453,0.15813 0.11679,0.1571 0.11679,0.43719 z m -0.2005,0.005 q 0,-0.20877 -0.0713,-0.31212 -0.0713,-0.10335 -0.21911,-0.10335 -0.0837,0 -0.16846,0.0362 -0.0848,0.0362 -0.16227,0.0951 v 0.65423 q 0.0827,0.0372 0.1416,0.0506 0.0599,0.0134 0.13539,0.0134 0.16227,0 0.25322,-0.10956 0.0909,-0.10955 0.0909,-0.32453 z m 1.46968,0.0289 h -0.8506 q 0,0.10646 0.032,0.18604 0.032,0.0786 0.0879,0.12919 0.0537,0.0496 0.12712,0.0744 0.0744,0.0248 0.1633,0.0248 0.11783,0 0.23668,-0.0465 0.11989,-0.0475 0.17053,-0.093 h 0.0103 v 0.21188 q -0.0982,0.0413 -0.20051,0.0692 -0.10232,0.0279 -0.21497,0.0279 -0.28732,0 -0.44855,-0.15503 -0.16123,-0.15606 -0.16123,-0.44235 0,-0.28319 0.15399,-0.44959 0.15503,-0.1664 0.40721,-0.1664 0.23358,0 0.35967,0.13643 0.12713,0.13643 0.12713,0.38757 z m -0.18914,-0.14882 q -0.001,-0.15297 -0.0775,-0.23668 -0.0755,-0.0837 -0.23048,-0.0837 -0.15606,0 -0.24908,0.092 -0.092,0.092 -0.10439,0.22841 z m 1.45004,0.14882 h -0.85059 q 0,0.10646 0.032,0.18604 0.032,0.0786 0.0879,0.12919 0.0537,0.0496 0.12712,0.0744 0.0744,0.0248 0.1633,0.0248 0.11782,0 0.23668,-0.0465 0.11989,-0.0475 0.17053,-0.093 h 0.0103 v 0.21188 q -0.0982,0.0413 -0.20051,0.0692 -0.10232,0.0279 -0.21497,0.0279 -0.28732,0 -0.44856,-0.15503 -0.16123,-0.15606 -0.16123,-0.44235 0,-0.28319 0.154,-0.44959 0.15503,-0.1664 0.40721,-0.1664 0.23358,0 0.35967,0.13643 0.12712,0.13643 0.12712,0.38757 z m -0.18913,-0.14882 q -0.001,-0.15297 -0.0775,-0.23668 -0.0755,-0.0837 -0.23047,-0.0837 -0.15607,0 -0.24909,0.092 -0.092,0.092 -0.10438,0.22841 z m 1.42007,0.7059 h -0.19431 v -0.12073 q -0.0837,0.0724 -0.17466,0.11266 -0.0909,0.0403 -0.19741,0.0403 -0.2067,0 -0.32866,-0.15917 -0.12092,-0.15916 -0.12092,-0.44132 0,-0.14676 0.0413,-0.26148 0.0424,-0.11472 0.11369,-0.19534 0.0703,-0.0785 0.16329,-0.11989 0.0941,-0.0413 0.19431,-0.0413 0.0909,0 0.16123,0.0196 0.0703,0.0186 0.14779,0.0589 v -0.50023 h 0.19431 z m -0.19431,-0.28422 v -0.6625 q -0.0785,-0.0351 -0.14056,-0.0486 -0.062,-0.0134 -0.13539,-0.0134 -0.1633,0 -0.25425,0.11369 -0.0909,0.11369 -0.0909,0.32246 0,0.20567 0.0703,0.31316 0.0703,0.10645 0.22531,0.10645 0.0827,0 0.16743,-0.0362 0.0847,-0.0372 0.15813,-0.0951 z"
       id="path16"
       style="font-size:2.11667px;font-family:Sans;-inkscape-font-specification:Sans;text-align:center;text-anchor:middle;fill:#ffffff;stroke-width:0.265112" />
    <path
       d="m 66.865265,163.86143 q -0.05684,0.0248 -0.103353,0.0465 -0.04548,0.0217 -0.11989,0.0455 -0.06305,0.0196 -0.137459,0.0331 -0.07338,0.0145 -0.162264,0.0145 -0.167432,0 -0.304892,-0.0465 -0.136426,-0.0475 -0.237712,-0.1478 -0.09922,-0.0982 -0.155029,-0.24908 -0.05581,-0.15193 -0.05581,-0.35243 0,-0.19017 0.05374,-0.34003 0.05374,-0.14986 0.155029,-0.25322 0.09819,-0.10025 0.236679,-0.15296 0.139526,-0.0527 0.309025,-0.0527 0.124024,0 0.247014,0.03 0.124023,0.03 0.274919,0.10542 v 0.24288 h -0.0155 q -0.127124,-0.10645 -0.252181,-0.15503 -0.125058,-0.0486 -0.267685,-0.0486 -0.116789,0 -0.21084,0.0382 -0.09302,0.0372 -0.166398,0.11679 -0.07131,0.0775 -0.111622,0.19637 -0.03927,0.11782 -0.03927,0.27285 0,0.16226 0.04341,0.27905 0.04444,0.11679 0.113688,0.19017 0.07235,0.0765 0.168465,0.11369 0.09715,0.0362 0.204639,0.0362 0.147795,0 0.276986,-0.0506 0.129192,-0.0506 0.241846,-0.15193 h 0.01447 z m 0.470256,0.11162 h -0.194304 v -1.60817 h 0.194304 z m 1.368394,-0.57671 q 0,0.28216 -0.144694,0.44545 -0.144694,0.1633 -0.387574,0.1633 -0.244947,0 -0.389641,-0.1633 -0.143661,-0.16329 -0.143661,-0.44545 0,-0.28215 0.143661,-0.44545 0.144694,-0.16433 0.389641,-0.16433 0.24288,0 0.387574,0.16433 0.144694,0.1633 0.144694,0.44545 z m -0.200505,0 q 0,-0.22427 -0.08785,-0.33279 -0.08785,-0.10956 -0.243913,-0.10956 -0.15813,0 -0.24598,0.10956 -0.08682,0.10852 -0.08682,0.33279 0,0.21704 0.08785,0.3297 0.08785,0.11162 0.244947,0.11162 0.155029,0 0.24288,-0.11059 0.08888,-0.11162 0.08888,-0.33073 z m 1.354958,0.50437 q -0.09715,0.0465 -0.185001,0.0723 -0.08682,0.0258 -0.185002,0.0258 -0.125058,0 -0.229444,-0.0362 -0.104387,-0.0372 -0.178801,-0.11162 -0.07545,-0.0744 -0.116789,-0.18811 -0.04134,-0.11368 -0.04134,-0.26561 0,-0.28319 0.15503,-0.44442 0.156063,-0.16123 0.411345,-0.16123 0.09922,0 0.194303,0.0279 0.09612,0.0279 0.1757,0.0682 v 0.216 h -0.01033 q -0.08888,-0.0692 -0.183968,-0.10645 -0.09405,-0.0372 -0.183969,-0.0372 -0.165364,0 -0.261483,0.11162 -0.09508,0.11059 -0.09508,0.32557 0,0.20877 0.09302,0.32142 0.09405,0.11163 0.26355,0.11163 0.05891,0 0.11989,-0.0155 0.06098,-0.0155 0.109554,-0.0403 0.04238,-0.0217 0.07958,-0.0455 0.03721,-0.0248 0.05891,-0.0424 h 0.01033 z m 1.297081,0.0723 h -0.256316 l -0.463021,-0.50539 -0.126091,0.11989 v 0.3855 h -0.194304 v -1.60817 h 0.194304 v 1.03146 l 0.561207,-0.57774 h 0.244947 l -0.536402,0.5333 z"
       id="text16"
       style="font-size:2.11667px;font-family:Sans;-inkscape-font-specification:Sans;text-align:center;text-anchor:middle;fill:#ffffff;stroke-width:0.265112"
       aria-label="Clock" />
    <path
       d="m 78.437954,163.49247 q 0,0.0899 -0.04237,0.17776 -0.04134,0.0879 -0.116789,0.14883 -0.08268,0.0661 -0.19327,0.10336 -0.109554,0.0372 -0.264584,0.0372 -0.166398,0 -0.299724,-0.031 -0.132291,-0.031 -0.269751,-0.092 v -0.25631 h 0.01447 q 0.116788,0.0971 0.269751,0.14986 0.152962,0.0527 0.287321,0.0527 0.19017,0 0.29559,-0.0713 0.106454,-0.0713 0.106454,-0.19016 0,-0.10232 -0.05064,-0.1509 -0.04961,-0.0486 -0.151929,-0.0754 -0.07752,-0.0207 -0.168466,-0.0341 -0.08992,-0.0134 -0.191203,-0.0341 -0.204639,-0.0434 -0.303858,-0.1478 -0.09819,-0.10542 -0.09819,-0.27388 0,-0.19327 0.163298,-0.31626 0.163297,-0.12402 0.414445,-0.12402 0.162265,0 0.297657,0.031 0.135392,0.031 0.239779,0.0765 v 0.24185 h -0.01447 q -0.08785,-0.0744 -0.231511,-0.12299 -0.142627,-0.0496 -0.292489,-0.0496 -0.164332,0 -0.264584,0.0682 -0.09922,0.0682 -0.09922,0.1757 0,0.0961 0.04961,0.1509 0.04961,0.0548 0.174666,0.0837 0.06615,0.0145 0.188103,0.0351 0.121956,0.0207 0.206706,0.0424 0.171566,0.0455 0.258382,0.13746 0.08682,0.092 0.08682,0.25735 z m 1.280544,-0.71521 -0.673862,1.58027 h -0.207739 l 0.214974,-0.48162 -0.459921,-1.09865 h 0.21084 l 0.354501,0.85577 0.357601,-0.85577 z m 1.219565,1.15446 H 80.74376 v -0.65733 q 0,-0.0796 -0.0093,-0.14883 -0.0093,-0.0703 -0.03411,-0.10955 -0.02584,-0.0434 -0.07441,-0.0641 -0.04858,-0.0217 -0.12609,-0.0217 -0.07958,0 -0.166399,0.0393 -0.08682,0.0393 -0.166398,0.10025 v 0.86197 h -0.194304 v -1.15446 h 0.194304 v 0.12816 q 0.09095,-0.0754 0.188102,-0.11782 0.09715,-0.0424 0.199472,-0.0424 0.187069,0 0.285254,0.11266 0.09819,0.11265 0.09819,0.32453 z m 1.227834,-0.0724 q -0.09715,0.0465 -0.185002,0.0724 -0.08682,0.0258 -0.185002,0.0258 -0.125057,0 -0.229443,-0.0362 -0.104387,-0.0372 -0.178801,-0.11162 -0.07545,-0.0744 -0.116789,-0.1881 -0.04134,-0.11369 -0.04134,-0.26562 0,-0.28319 0.155029,-0.44442 0.156063,-0.16123 0.411345,-0.16123 0.09922,0 0.194304,0.0279 0.09612,0.0279 0.1757,0.0682 v 0.21601 h -0.01034 q -0.08888,-0.0693 -0.183969,-0.10646 -0.09405,-0.0372 -0.183968,-0.0372 -0.165365,0 -0.261483,0.11162 -0.09508,0.11059 -0.09508,0.32556 0,0.20877 0.09302,0.32143 0.09405,0.11162 0.26355,0.11162 0.05891,0 0.119889,-0.0155 0.06098,-0.0155 0.109555,-0.0403 0.04237,-0.0217 0.07958,-0.0455 0.03721,-0.0248 0.05891,-0.0424 h 0.01034 z"
       id="text17"
       style="font-size:2.11667px;font-family:Sans;-inkscape-font-specification:Sans;text-align:center;text-anchor:middle;fill:#ffffff;stroke-width:0.265112"
       aria-label="Sync" />
  </g>
</svg>
