<?xml version="1.0" encoding="UTF-8" standalone="no"?>
<!-- Created with Inkscape (http://www.inkscape.org/) -->

<svg
   xmlns:dc="http://purl.org/dc/elements/1.1/"
   xmlns:cc="http://creativecommons.org/ns#"
   xmlns:rdf="http://www.w3.org/1999/02/22-rdf-syntax-ns#"
   xmlns:svg="http://www.w3.org/2000/svg"
   xmlns="http://www.w3.org/2000/svg"
   xmlns:sodipodi="http://sodipodi.sourceforge.net/DTD/sodipodi-0.dtd"
   xmlns:inkscape="http://www.inkscape.org/namespaces/inkscape"
   width="300"
   height="380"
   viewBox="0 0 79.375 100.54166"
   version="1.1"
   id="svg12553"
   inkscape:version="0.92.2 5c3e80d, 2017-08-06"
   sodipodi:docname="GridSeq.svg">
  <defs
     id="defs12547" />
  <sodipodi:namedview
     id="base"
     pagecolor="#ffffff"
     bordercolor="#666666"
     borderopacity="1.0"
     inkscape:pageopacity="0.0"
     inkscape:pageshadow="2"
     inkscape:zoom="1.4"
     inkscape:cx="136.86202"
     inkscape:cy="174.6866"
     inkscape:document-units="px"
     inkscape:current-layer="layer1"
     showgrid="true"
     fit-margin-top="0"
     fit-margin-left="0"
     fit-margin-right="0"
     fit-margin-bottom="0"
     units="px"
     inkscape:window-width="1048"
     inkscape:window-height="958"
     inkscape:window-x="862"
     inkscape:window-y="0"
     inkscape:window-maximized="0"
     inkscape:snap-grids="false">
    <inkscape:grid
       type="xygrid"
       id="grid12870"
       originx="-20.372917"
       originy="84.666661" />
  </sodipodi:namedview>
  <metadata
     id="metadata12550">
    <rdf:RDF>
      <cc:Work
         rdf:about="">
        <dc:format>image/svg+xml</dc:format>
        <dc:type
           rdf:resource="http://purl.org/dc/dcmitype/StillImage" />
        <dc:title></dc:title>
      </cc:Work>
    </rdf:RDF>
  </metadata>
  <g
     inkscape:label="Layer 1"
     inkscape:groupmode="layer"
     id="layer1"
     transform="translate(-26.543497,-161.30655)">
    <path
       inkscape:connector-curvature="0"
       id="path33453"
       d="M 26.616839,161.37987 H 105.7673 v 100.3961 H 26.616839 Z m 0,0"
       style="fill:#e6e6e6;fill-opacity:1;fill-rule:nonzero;stroke:none;stroke-width:0.26282784" />
    <path
       inkscape:connector-curvature="0"
       id="path4012"
       d="m 34.3355,255.65159 c -0.02079,-0.0388 -0.03375,-0.3894 -0.03375,-0.91281 0,-0.97152 -0.02396,-0.89088 0.321103,-1.08058 0.110277,-0.0606 0.200504,-0.11952 0.200504,-0.13087 0,-0.0114 -0.06,-0.0622 -0.133338,-0.11305 -0.380006,-0.26334 -0.744464,-0.80497 -0.864566,-1.28484 -0.07442,-0.29736 -0.0496,-0.88366 0.04972,-1.17446 0.381938,-1.11823 1.621298,-1.79465 2.832229,-1.54578 0.789736,0.16231 1.416774,0.65484 1.733962,1.36201 0.133785,0.29827 0.178911,0.52255 0.178005,0.88468 -0.0016,0.65152 -0.297315,1.25714 -0.821227,1.68205 -0.09413,0.0763 -0.171152,0.15026 -0.171152,0.16427 0,0.014 0.06968,0.0652 0.154852,0.11375 0.32558,0.18564 0.301554,0.0964 0.301554,1.11984 0,0.657 -0.01058,0.91119 -0.03912,0.93973 -0.02949,0.0295 -0.486579,0.0391 -1.857079,0.0391 -1.763996,0 -1.818959,-0.002 -1.851705,-0.0631 z m 1.766287,-0.49583 c 0.0075,-0.2664 0.01985,-0.33734 0.06361,-0.36487 0.03936,-0.0248 0.06854,-0.0224 0.105951,0.009 0.04073,0.0338 0.05163,0.11082 0.05163,0.36486 v 0.32201 h 0.750833 c 0.637831,0 0.753662,-0.007 0.769627,-0.049 0.04387,-0.11434 -0.03116,-0.2028 -0.387657,-0.45705 -0.298189,-0.21266 -0.366692,-0.2766 -0.366692,-0.3423 0,-0.0639 0.01874,-0.0829 0.08965,-0.0911 l 0.08965,-0.0103 v -0.26872 c 0,-0.30409 0.04188,-0.4011 0.157336,-0.36446 0.06739,0.0214 0.07089,0.0412 0.07137,0.40334 2.61e-4,0.20949 0.01128,0.39632 0.02445,0.41519 0.03967,0.0568 0.255592,0.21019 0.295982,0.21019 0.02681,0 0.03767,-0.13961 0.03767,-0.48396 0,-0.5491 0.01672,-0.51117 -0.304257,-0.69049 l -0.190155,-0.10626 -0.331293,0.11059 c -0.32156,0.10735 -0.346619,0.1106 -0.853058,0.11049 -0.501072,-1e-4 -0.533002,-0.004 -0.805035,-0.10138 l -0.283269,-0.10128 -0.262789,0.14822 -0.262789,0.14821 v 0.49922 c 0,0.27458 0.0084,0.49924 0.01865,0.49924 0.01026,0 0.08361,-0.0381 0.163002,-0.0846 l 0.144357,-0.0846 4.76e-4,-0.33105 c 6.09e-4,-0.42417 0.07626,-0.59197 0.207639,-0.46058 0.04012,0.0401 0.05268,0.11775 0.05268,0.3254 v 0.27273 l 0.107464,-0.0174 c 0.116449,-0.0189 0.200791,0.0427 0.169634,0.1239 -0.0096,0.025 -0.207888,0.15966 -0.440669,0.29928 -0.411617,0.24688 -0.423237,0.25693 -0.423237,0.36621 v 0.11236 h 0.76497 0.76497 z m 0.837381,-1.61074 c 0.672782,-0.22526 1.220253,-0.79112 1.387814,-1.43443 0.05237,-0.20106 0.06746,-0.75134 0.02255,-0.8221 -0.02022,-0.0319 -0.190168,-0.0394 -0.736779,-0.0326 l -0.710503,0.009 -0.105698,0.2934 c -0.09258,0.257 -0.115266,0.2934 -0.182817,0.2934 -0.07159,0 -0.08118,-0.0219 -0.133726,-0.30567 -0.08629,-0.46599 -0.09775,-0.45871 -0.203477,0.12931 -0.09275,0.51591 -0.104598,0.55127 -0.184622,0.55127 -0.07719,0 -0.07335,0.0168 -0.218561,-0.95909 -0.06648,-0.44682 -0.135547,-0.81721 -0.153477,-0.8231 -0.01793,-0.006 -0.127957,0.17632 -0.244503,0.40489 l -0.211903,0.41559 -0.609915,0.009 -0.609915,0.009 -0.02203,0.1174 c -0.0373,0.19883 0.0076,0.60359 0.09466,0.85403 0.177796,0.51125 0.540472,0.91419 1.0494,1.16591 0.395682,0.1957 0.624083,0.24279 1.108415,0.2285 0.321915,-0.01 0.439715,-0.0278 0.665088,-0.10324 z m -0.954561,-0.1279 c -0.185323,-0.0525 -0.226329,-0.0854 -0.2102,-0.16849 0.01036,-0.0534 0.04822,-0.0612 0.320911,-0.0662 0.17004,-0.003 0.360509,-0.0104 0.423265,-0.0163 0.102089,-0.009 0.115144,-0.002 0.124008,0.0748 0.0085,0.0729 -0.0094,0.0931 -0.121747,0.13809 -0.193254,0.0773 -0.356929,0.089 -0.536237,0.0381 z m -0.607039,-0.76691 c -0.03586,-0.0359 -0.0652,-0.0945 -0.0652,-0.13041 0,-0.0904 0.11401,-0.1956 0.211903,-0.1956 0.09789,0 0.211902,0.10524 0.211902,0.1956 0,0.0904 -0.11401,0.19561 -0.211902,0.19561 -0.04483,0 -0.110842,-0.0293 -0.146703,-0.0652 z m 1.271417,-0.0326 c -0.08604,-0.086 -0.08225,-0.14891 0.01482,-0.24598 0.09004,-0.09 0.12191,-0.0961 0.223678,-0.0425 0.08947,0.0471 0.118976,0.0909 0.119609,0.17752 0.0012,0.16045 -0.235349,0.23376 -0.358105,0.111 z m -0.425642,-1.58112 c 0.109622,-0.66013 0.212762,-0.67723 0.323395,-0.0536 0.03612,0.20361 0.07293,0.37746 0.08179,0.38632 0.03058,0.0306 0.0785,-0.0227 0.100966,-0.11217 0.04327,-0.17241 0.03971,-0.17165 0.804717,-0.17165 0.809157,0 0.79359,0.006 0.682326,-0.24592 -0.242248,-0.54764 -0.798691,-1.00235 -1.437152,-1.1744 -0.285992,-0.0771 -0.855591,-0.0792 -1.141015,-0.004 -0.688569,0.18082 -1.269374,0.68028 -1.501495,1.29116 l -0.06366,0.16755 0.546224,-0.009 0.546225,-0.009 0.260803,-0.51183 c 0.143442,-0.28152 0.279246,-0.53029 0.301787,-0.55282 0.09055,-0.0905 0.134573,0.0463 0.237685,0.73824 0.05607,0.3763 0.109655,0.69666 0.119073,0.7119 0.03803,0.0615 0.07124,-0.0467 0.13833,-0.45068 z"
       style="fill:#54b6fc;stroke-width:0.03260044" />
    <path
       inkscape:connector-curvature="0"
       id="path4010"
       d="m 34.3355,255.65159 c -0.02079,-0.0388 -0.03375,-0.3894 -0.03375,-0.91281 0,-0.97152 -0.02396,-0.89088 0.321103,-1.08058 0.110277,-0.0606 0.200504,-0.11952 0.200504,-0.13087 0,-0.0114 -0.06,-0.0622 -0.133338,-0.11305 -0.380006,-0.26334 -0.744464,-0.80497 -0.864566,-1.28484 -0.07442,-0.29736 -0.0496,-0.88366 0.04972,-1.17446 0.381938,-1.11823 1.621298,-1.79465 2.832229,-1.54578 0.789736,0.16231 1.416774,0.65484 1.733962,1.36201 0.133785,0.29827 0.178911,0.52255 0.178005,0.88468 -0.0016,0.65152 -0.297315,1.25714 -0.821227,1.68205 -0.09413,0.0763 -0.171152,0.15026 -0.171152,0.16427 0,0.014 0.06968,0.0652 0.154852,0.11375 0.32558,0.18564 0.301554,0.0964 0.301554,1.11984 0,0.657 -0.01058,0.91119 -0.03912,0.93973 -0.02949,0.0295 -0.486579,0.0391 -1.857079,0.0391 -1.763996,0 -1.818959,-0.002 -1.851705,-0.0631 z m 1.766287,-0.49583 c 0.0075,-0.2664 0.01985,-0.33734 0.06361,-0.36487 0.03936,-0.0248 0.06854,-0.0224 0.105951,0.009 0.04073,0.0338 0.05163,0.11082 0.05163,0.36486 v 0.32201 h 0.750833 c 0.637831,0 0.753662,-0.007 0.769627,-0.049 0.04387,-0.11434 -0.03116,-0.2028 -0.387657,-0.45705 -0.298189,-0.21266 -0.366692,-0.2766 -0.366692,-0.3423 0,-0.0639 0.01874,-0.0829 0.08965,-0.0911 l 0.08965,-0.0103 v -0.26872 c 0,-0.30409 0.04188,-0.4011 0.157336,-0.36446 0.06739,0.0214 0.07089,0.0412 0.07137,0.40334 2.61e-4,0.20949 0.01128,0.39632 0.02445,0.41519 0.03967,0.0568 0.255592,0.21019 0.295982,0.21019 0.02681,0 0.03767,-0.13961 0.03767,-0.48396 0,-0.5491 0.01672,-0.51117 -0.304257,-0.69049 l -0.190155,-0.10626 -0.331293,0.11059 c -0.32156,0.10735 -0.346619,0.1106 -0.853058,0.11049 -0.501072,-1e-4 -0.533002,-0.004 -0.805035,-0.10138 l -0.283269,-0.10128 -0.262789,0.14822 -0.262789,0.14821 v 0.49922 c 0,0.27458 0.0084,0.49924 0.01865,0.49924 0.01026,0 0.08361,-0.0381 0.163002,-0.0846 l 0.144357,-0.0846 4.76e-4,-0.33105 c 6.09e-4,-0.42417 0.07626,-0.59197 0.207639,-0.46058 0.04012,0.0401 0.05268,0.11775 0.05268,0.3254 v 0.27273 l 0.107464,-0.0174 c 0.116449,-0.0189 0.200791,0.0427 0.169634,0.1239 -0.0096,0.025 -0.207888,0.15966 -0.440669,0.29928 -0.411617,0.24688 -0.423237,0.25693 -0.423237,0.36621 v 0.11236 h 0.76497 0.76497 z m 0.837381,-1.61074 c 0.518826,-0.17371 0.976222,-0.55469 1.217731,-1.01428 0.158604,-0.30183 0.220006,-0.55079 0.219464,-0.88985 -7.41e-4,-0.46853 0.076,-0.4251 -0.751243,-0.4251 -0.533387,0 -0.718086,0.0102 -0.737858,0.0408 -0.01451,0.0224 -0.07075,0.15798 -0.12498,0.30126 -0.141368,0.37349 -0.183763,0.36185 -0.261873,-0.0719 -0.0922,-0.51195 -0.136698,-0.485 -0.249433,0.15109 -0.08734,0.4928 -0.125092,0.60219 -0.185966,0.53886 -0.01637,-0.017 -0.08278,-0.39773 -0.147563,-0.84598 -0.139745,-0.96688 -0.138722,-0.96172 -0.190605,-0.96172 -0.02238,0 -0.139392,0.19805 -0.260029,0.44011 l -0.21934,0.44011 h -0.601264 -0.601265 l -0.02267,0.15115 c -0.0865,0.57684 0.17866,1.26703 0.651219,1.69506 0.233945,0.21191 0.690841,0.44906 0.997474,0.51774 0.34524,0.0773 0.928683,0.0464 1.268198,-0.0673 z m -0.954561,-0.1279 c -0.185323,-0.0525 -0.226329,-0.0854 -0.2102,-0.16849 0.01036,-0.0534 0.04822,-0.0612 0.320911,-0.0662 0.17004,-0.003 0.360509,-0.0104 0.423265,-0.0163 0.102089,-0.009 0.115144,-0.002 0.124008,0.0748 0.0085,0.0729 -0.0094,0.0931 -0.121747,0.13809 -0.193254,0.0773 -0.356929,0.089 -0.536237,0.0381 z m -0.607039,-0.76691 c -0.03586,-0.0359 -0.0652,-0.0945 -0.0652,-0.13041 0,-0.0904 0.11401,-0.1956 0.211903,-0.1956 0.09789,0 0.211902,0.10524 0.211902,0.1956 0,0.0904 -0.11401,0.19561 -0.211902,0.19561 -0.04483,0 -0.110842,-0.0293 -0.146703,-0.0652 z m 1.271417,-0.0326 c -0.08604,-0.086 -0.08225,-0.14891 0.01482,-0.24598 0.09004,-0.09 0.12191,-0.0961 0.223678,-0.0425 0.08947,0.0471 0.118976,0.0909 0.119609,0.17752 0.0012,0.16045 -0.235349,0.23376 -0.358105,0.111 z m -0.405805,-1.51626 c 0.07822,-0.44732 0.123442,-0.57391 0.182817,-0.51175 0.01213,0.0127 0.05627,0.2138 0.09807,0.44689 0.08608,0.47993 0.126983,0.52514 0.228627,0.25266 l 0.06384,-0.17116 h 0.729308 c 0.401119,0 0.736498,-0.0116 0.745286,-0.0258 0.02966,-0.048 -0.132143,-0.39141 -0.285964,-0.60697 -0.26912,-0.37714 -0.732526,-0.68718 -1.225787,-0.8201 -0.285992,-0.0771 -0.855591,-0.0792 -1.141015,-0.004 -0.400977,0.1053 -0.738986,0.29894 -1.029965,0.59005 -0.250384,0.2505 -0.443221,0.55773 -0.518651,0.82633 l -0.0206,0.0734 0.531954,-5.3e-4 c 0.292575,-2.7e-4 0.548503,-0.0113 0.56873,-0.0245 0.02023,-0.0132 0.156012,-0.26235 0.301746,-0.55371 0.248582,-0.49699 0.299912,-0.57187 0.34358,-0.50122 0.0097,0.0157 0.06282,0.34211 0.118043,0.72536 0.102865,0.71391 0.141358,0.87677 0.19464,0.82349 0.01647,-0.0165 0.06837,-0.24967 0.115331,-0.51822 z"
       style="fill:#a0a0a0;stroke-width:0.03260044" />
    <path
       inkscape:connector-curvature="0"
       id="path4008"
       d="m 34.351747,255.63075 c -0.0345,-0.0899 -0.02243,-1.67607 0.01326,-1.74275 0.01823,-0.0341 0.135594,-0.12177 0.260803,-0.1949 0.12521,-0.0731 0.227654,-0.14651 0.227654,-0.16306 0,-0.0166 -0.08332,-0.0929 -0.185157,-0.16972 -0.372373,-0.28077 -0.688841,-0.75937 -0.806783,-1.22013 -0.06516,-0.25454 -0.06617,-0.75409 -0.002,-1.00721 0.02707,-0.10686 0.110268,-0.31899 0.184878,-0.4714 0.108411,-0.22146 0.191833,-0.3333 0.415416,-0.55694 0.232178,-0.23223 0.332422,-0.30569 0.589383,-0.43192 0.446083,-0.21912 0.650333,-0.26571 1.157231,-0.26399 0.298209,0.001 0.484968,0.0183 0.630188,0.0582 1.183137,0.32543 1.920254,1.41002 1.72032,2.53126 -0.09179,0.51474 -0.458955,1.10261 -0.863969,1.38329 -0.07349,0.0509 -0.133621,0.10462 -0.133621,0.11932 0,0.0147 0.102555,0.0866 0.227898,0.15983 0.145373,0.0849 0.234278,0.15921 0.245513,0.20519 0.0097,0.0396 0.01349,0.46085 0.0085,0.936 l -0.0092,0.86392 -1.830184,0.008 c -1.647758,0.008 -1.832166,0.003 -1.850075,-0.0434 z m 1.773133,-0.47031 c 0.01501,-0.31514 0.02148,-0.34231 0.0815,-0.34231 0.06003,0 0.06649,0.0272 0.0815,0.34231 l 0.0163,0.3423 h 0.781964 c 0.731691,0 0.782703,-0.004 0.793448,-0.0596 0.02741,-0.14232 -0.03248,-0.21511 -0.38408,-0.46679 -0.196691,-0.14079 -0.365543,-0.27565 -0.375226,-0.29968 -0.02637,-0.0654 0.0096,-0.10301 0.09863,-0.10301 0.07839,0 0.07958,-0.004 0.07958,-0.28941 0,-0.21362 0.01243,-0.29973 0.04747,-0.32881 0.09149,-0.0759 0.11553,-0.002 0.11553,0.35668 0,0.1947 0.0089,0.37708 0.01967,0.40528 0.02798,0.0729 0.331068,0.28878 0.370903,0.26416 0.05065,-0.0313 0.0438,-1.00161 -0.0075,-1.06585 -0.02241,-0.0281 -0.13534,-0.10545 -0.250949,-0.17199 -0.235907,-0.13578 -0.245736,-0.13572 -0.621113,0.004 -0.229254,0.0851 -0.277035,0.0909 -0.76611,0.0918 -0.505502,0.001 -0.530954,-0.002 -0.824315,-0.10473 l -0.302705,-0.10572 -0.261403,0.15187 c -0.143772,0.0835 -0.275285,0.17783 -0.292251,0.20954 -0.01697,0.0317 -0.03085,0.26444 -0.03085,0.51721 0,0.3689 0.0092,0.4631 0.04672,0.47749 0.0582,0.0223 0.334753,-0.13648 0.377829,-0.21696 0.01752,-0.0327 0.03186,-0.21367 0.03186,-0.40205 0,-0.35411 0.0333,-0.44608 0.119047,-0.32883 0.02853,0.039 0.04395,0.15529 0.04395,0.33137 v 0.27127 l 0.133275,-0.0213 c 0.126153,-0.0202 0.132687,-0.0172 0.122252,0.0553 -0.0085,0.0594 -0.103869,0.13126 -0.424561,0.31998 -0.423502,0.2492 -0.481391,0.31117 -0.433012,0.46361 0.01914,0.0603 0.05374,0.0626 0.808178,0.0543 l 0.788181,-0.009 z m 0.79871,-1.57554 c 0.654234,-0.21426 1.171049,-0.7033 1.390172,-1.31545 0.07099,-0.19833 0.121351,-0.80646 0.08032,-0.96993 l -0.02102,-0.0837 h -0.730965 c -0.548972,0 -0.737531,0.0101 -0.757339,0.0408 -0.01451,0.0224 -0.07075,0.15798 -0.12498,0.30126 -0.141368,0.37349 -0.183763,0.36185 -0.261873,-0.0719 -0.0922,-0.51195 -0.136698,-0.485 -0.249433,0.15109 -0.08734,0.4928 -0.125092,0.60219 -0.185966,0.53886 -0.01637,-0.017 -0.08278,-0.39773 -0.147563,-0.84598 -0.139745,-0.96688 -0.138722,-0.96172 -0.190605,-0.96172 -0.02238,0 -0.139392,0.19805 -0.260029,0.44011 l -0.21934,0.44011 h -0.602115 c -0.703199,0 -0.669609,-0.0184 -0.669609,0.36754 0,0.29731 0.09429,0.67886 0.233957,0.94671 0.156854,0.30081 0.595229,0.72446 0.909574,0.87901 0.405647,0.19944 0.663295,0.25382 1.138499,0.24027 0.330032,-0.009 0.45709,-0.0279 0.668309,-0.097 z m -0.896512,-0.19011 c -0.17699,-0.0396 -0.260106,-0.10631 -0.20326,-0.16316 0.02825,-0.0283 0.08565,-0.0299 0.216447,-0.006 0.131816,0.0239 0.221634,0.0211 0.346175,-0.0108 0.178286,-0.0456 0.227446,-0.0365 0.227446,0.0422 0,0.10667 -0.354257,0.18992 -0.586808,0.13789 z m -0.630656,-0.7716 c -0.07012,-0.0775 -0.06831,-0.14549 0.0057,-0.21244 0.08609,-0.0779 0.191502,-0.0664 0.253084,0.0275 0.04947,0.0755 0.04947,0.0875 0,0.163 -0.06349,0.0969 -0.181806,0.10691 -0.258749,0.0219 z m 1.264799,-0.0523 c -0.100353,-0.15316 0.07345,-0.30321 0.231365,-0.19974 0.09147,0.0599 0.10322,0.15328 0.02868,0.22783 -0.07679,0.0768 -0.200043,0.0635 -0.260041,-0.0281 z m -0.420539,-1.46955 c 0.07822,-0.44732 0.123442,-0.57391 0.182817,-0.51175 0.01213,0.0127 0.05627,0.2138 0.09807,0.44689 0.08604,0.4797 0.126993,0.52511 0.228401,0.25326 l 0.06362,-0.17054 0.739608,-0.009 c 0.869677,-0.0103 0.843199,0.006 0.637261,-0.39106 -0.158814,-0.30617 -0.530537,-0.68478 -0.842654,-0.85827 -1.122274,-0.62379 -2.575417,-0.22823 -3.138512,0.85435 -0.07603,0.14618 -0.138244,0.30388 -0.138244,0.35045 v 0.0847 l 0.529757,-5.3e-4 c 0.291366,-2.6e-4 0.546306,-0.0113 0.566533,-0.0245 0.02023,-0.0132 0.156012,-0.26235 0.301746,-0.55371 0.248582,-0.49699 0.299912,-0.57187 0.34358,-0.50122 0.0097,0.0157 0.06282,0.34211 0.118043,0.72536 0.102865,0.71391 0.141358,0.87677 0.19464,0.82349 0.01647,-0.0165 0.06837,-0.24967 0.115331,-0.51822 z"
       style="fill:#179cfd;stroke-width:0.03260044" />
    <path
       inkscape:connector-curvature="0"
       id="path4006"
       d="m 34.351747,255.63075 c -0.0345,-0.0899 -0.02243,-1.67607 0.01326,-1.74275 0.01823,-0.0341 0.135594,-0.12177 0.260803,-0.1949 0.12521,-0.0731 0.227654,-0.14651 0.227654,-0.16306 0,-0.0166 -0.08332,-0.0929 -0.185157,-0.16972 -0.372373,-0.28077 -0.688841,-0.75937 -0.806783,-1.22013 -0.06516,-0.25454 -0.06617,-0.75409 -0.002,-1.00721 0.02707,-0.10686 0.110268,-0.31899 0.184878,-0.4714 0.108411,-0.22146 0.191833,-0.3333 0.415416,-0.55694 0.232178,-0.23223 0.332422,-0.30569 0.589383,-0.43192 0.446083,-0.21912 0.650333,-0.26571 1.157231,-0.26399 0.298209,0.001 0.484968,0.0183 0.630188,0.0582 1.183137,0.32543 1.920254,1.41002 1.72032,2.53126 -0.09179,0.51474 -0.458955,1.10261 -0.863969,1.38329 -0.07349,0.0509 -0.133621,0.10462 -0.133621,0.11932 0,0.0147 0.102555,0.0866 0.227898,0.15983 0.145373,0.0849 0.234278,0.15921 0.245513,0.20519 0.0097,0.0396 0.01349,0.46085 0.0085,0.936 l -0.0092,0.86392 -1.830184,0.008 c -1.647758,0.008 -1.832166,0.003 -1.850075,-0.0434 z m 1.773133,-0.47031 c 0.01501,-0.31514 0.02148,-0.34231 0.0815,-0.34231 0.06003,0 0.06649,0.0272 0.0815,0.34231 l 0.0163,0.3423 h 0.781964 c 0.731691,0 0.782703,-0.004 0.793448,-0.0596 0.02741,-0.14232 -0.03248,-0.21511 -0.38408,-0.46679 -0.196691,-0.14079 -0.365543,-0.27565 -0.375226,-0.29968 -0.02637,-0.0654 0.0096,-0.10301 0.09863,-0.10301 0.07839,0 0.07958,-0.004 0.07958,-0.28941 0,-0.21362 0.01243,-0.29973 0.04747,-0.32881 0.09149,-0.0759 0.11553,-0.002 0.11553,0.35668 0,0.1947 0.0089,0.37708 0.01967,0.40528 0.02798,0.0729 0.331068,0.28878 0.370903,0.26416 0.05065,-0.0313 0.0438,-1.00161 -0.0075,-1.06585 -0.02241,-0.0281 -0.13534,-0.10545 -0.250949,-0.17199 -0.235907,-0.13578 -0.245736,-0.13572 -0.621113,0.004 -0.229254,0.0851 -0.277035,0.0909 -0.76611,0.0918 -0.505502,0.001 -0.530954,-0.002 -0.824315,-0.10473 l -0.302705,-0.10572 -0.261403,0.15187 c -0.143772,0.0835 -0.275285,0.17783 -0.292251,0.20954 -0.01697,0.0317 -0.03085,0.26444 -0.03085,0.51721 0,0.3689 0.0092,0.4631 0.04672,0.47749 0.0582,0.0223 0.334753,-0.13648 0.377829,-0.21696 0.01752,-0.0327 0.03186,-0.21367 0.03186,-0.40205 0,-0.35411 0.0333,-0.44608 0.119047,-0.32883 0.02853,0.039 0.04395,0.15529 0.04395,0.33137 v 0.27127 l 0.133275,-0.0213 c 0.126153,-0.0202 0.132687,-0.0172 0.122252,0.0553 -0.0085,0.0594 -0.103869,0.13126 -0.424561,0.31998 -0.423502,0.2492 -0.481391,0.31117 -0.433012,0.46361 0.01914,0.0603 0.05374,0.0626 0.808178,0.0543 l 0.788181,-0.009 z m 0.79871,-1.57554 c 0.664755,-0.21771 1.194783,-0.72969 1.40639,-1.3585 0.07879,-0.23413 0.08203,-0.87483 0.0058,-1.14574 -0.13188,-0.46864 -0.53724,-0.96902 -0.987961,-1.21955 -0.91583,-0.50904 -2.068798,-0.35442 -2.787785,0.37388 -0.603842,0.61166 -0.749602,1.5209 -0.367606,2.29308 0.164191,0.3319 0.582832,0.74566 0.924365,0.91358 0.405647,0.19944 0.663295,0.25382 1.138499,0.24027 0.330032,-0.009 0.45709,-0.0279 0.668309,-0.097 z m -0.896512,-0.19011 c -0.17699,-0.0396 -0.260106,-0.10631 -0.20326,-0.16316 0.02825,-0.0283 0.08565,-0.0299 0.216447,-0.006 0.131816,0.0239 0.221634,0.0211 0.346175,-0.0108 0.178286,-0.0456 0.227446,-0.0365 0.227446,0.0422 0,0.10667 -0.354257,0.18992 -0.586808,0.13789 z m -0.630656,-0.7716 c -0.07012,-0.0775 -0.06831,-0.14549 0.0057,-0.21244 0.08609,-0.0779 0.191502,-0.0664 0.253084,0.0275 0.04947,0.0755 0.04947,0.0875 0,0.163 -0.06349,0.0969 -0.181806,0.10691 -0.258749,0.0219 z m 1.264799,-0.0523 c -0.100353,-0.15316 0.07345,-0.30321 0.231365,-0.19974 0.09147,0.0599 0.10322,0.15328 0.02868,0.22783 -0.07679,0.0768 -0.200043,0.0635 -0.260041,-0.0281 z"
       style="fill:#5d5d5d;stroke-width:0.03260044" />
    <g
       id="g1184"
       transform="rotate(93.943892,55.002237,176.69517)">
      <path
         style="fill:#1996fc;fill-opacity:1;stroke:#1996fc;stroke-width:1.22474527;stroke-linecap:butt;stroke-linejoin:miter;stroke-miterlimit:4;stroke-dasharray:none;stroke-opacity:1"
         d="m 55.588245,178.44681 -2.645838,2.95813"
         id="path1178"
         inkscape:connector-curvature="0" />
      <path
         inkscape:connector-curvature="0"
         id="path1180"
         d="m 57.764329,181.1503 -2.932042,-2.67468"
         style="fill:#1996fc;fill-opacity:1;stroke:#1996fc;stroke-width:1.22474527;stroke-linecap:butt;stroke-linejoin:miter;stroke-miterlimit:4;stroke-dasharray:none;stroke-opacity:1" />
    </g>
    <g
       transform="matrix(0.018623,0.99982658,0.99982658,-0.018623,-115.46334,124.78405)"
       id="g1196">
      <path
         inkscape:connector-curvature="0"
         id="path1192"
         d="m 55.588245,178.44681 -2.645838,2.95813"
         style="fill:#1996fc;fill-opacity:1;stroke:#1996fc;stroke-width:1.22474527;stroke-linecap:butt;stroke-linejoin:miter;stroke-miterlimit:4;stroke-dasharray:none;stroke-opacity:1" />
      <path
         style="fill:#1996fc;fill-opacity:1;stroke:#1996fc;stroke-width:1.22474527;stroke-linecap:butt;stroke-linejoin:miter;stroke-miterlimit:4;stroke-dasharray:none;stroke-opacity:1"
         d="m 57.764329,181.1503 -2.932042,-2.67468"
         id="path1194"
         inkscape:connector-curvature="0" />
    </g>
    <g
       id="g1202"
       transform="matrix(0.99774694,-0.06708988,-0.06708988,-0.99774694,37.309371,359.92291)">
      <path
         style="fill:#1996fc;fill-opacity:1;stroke:#1996fc;stroke-width:1.22474527;stroke-linecap:butt;stroke-linejoin:miter;stroke-miterlimit:4;stroke-dasharray:none;stroke-opacity:1"
         d="m 55.588245,178.44681 -2.645838,2.95813"
         id="path1198"
         inkscape:connector-curvature="0" />
      <path
         inkscape:connector-curvature="0"
         id="path1200"
         d="m 57.764329,181.1503 -2.932042,-2.67468"
         style="fill:#1996fc;fill-opacity:1;stroke:#1996fc;stroke-width:1.22474527;stroke-linecap:butt;stroke-linejoin:miter;stroke-miterlimit:4;stroke-dasharray:none;stroke-opacity:1" />
    </g>
    <g
       transform="rotate(3.8468565,122.151,775.95476)"
       id="g1214">
      <path
         inkscape:connector-curvature="0"
         id="path1210"
         d="m 55.588245,178.44681 -2.645838,2.95813"
         style="fill:#1996fc;fill-opacity:1;stroke:#1996fc;stroke-width:1.22474527;stroke-linecap:butt;stroke-linejoin:miter;stroke-miterlimit:4;stroke-dasharray:none;stroke-opacity:1" />
      <path
         style="fill:#1996fc;fill-opacity:1;stroke:#1996fc;stroke-width:1.22474527;stroke-linecap:butt;stroke-linejoin:miter;stroke-miterlimit:4;stroke-dasharray:none;stroke-opacity:1"
         d="m 57.764329,181.1503 -2.932042,-2.67468"
         id="path1212"
         inkscape:connector-curvature="0" />
    </g>
    <rect
       style="fill:#1996fc;fill-opacity:1;stroke:#1996fc;stroke-width:0.22143379;stroke-miterlimit:4;stroke-dasharray:none;stroke-opacity:1"
       id="rect1298"
       width="13.007732"
       height="13.007732"
       x="45.175045"
       y="195.8131" />
    <rect
       y="195.8131"
       x="59.727131"
       height="13.007732"
       width="13.007732"
       id="rect1358"
       style="fill:#1996fc;fill-opacity:1;stroke:#1996fc;stroke-width:0.22143379;stroke-miterlimit:4;stroke-dasharray:none;stroke-opacity:1" />
    <rect
       style="fill:#1996fc;fill-opacity:1;stroke:#1996fc;stroke-width:0.22143379;stroke-miterlimit:4;stroke-dasharray:none;stroke-opacity:1"
       id="rect1440"
       width="13.007732"
       height="13.007732"
       x="74.279205"
       y="195.8131" />
    <rect
       y="195.8131"
       x="88.831291"
       height="13.007732"
       width="13.007732"
       id="rect1442"
       style="fill:#1996fc;fill-opacity:1;stroke:#1996fc;stroke-width:0.22143379;stroke-miterlimit:4;stroke-dasharray:none;stroke-opacity:1" />
    <rect
       y="210.36519"
       x="45.175045"
       height="13.007732"
       width="13.007734"
       id="rect1444"
       style="fill:#1996fc;fill-opacity:1;stroke:#1996fc;stroke-width:0.22143379;stroke-miterlimit:4;stroke-dasharray:none;stroke-opacity:1" />
    <rect
       style="fill:#1996fc;fill-opacity:1;stroke:#1996fc;stroke-width:0.22143379;stroke-miterlimit:4;stroke-dasharray:none;stroke-opacity:1"
       id="rect1446"
       width="13.007734"
       height="13.007732"
       x="59.727131"
       y="210.36519" />
    <rect
       y="210.36519"
       x="74.279205"
       height="13.007732"
       width="13.007734"
       id="rect1448"
       style="fill:#1996fc;fill-opacity:1;stroke:#1996fc;stroke-width:0.22143379;stroke-miterlimit:4;stroke-dasharray:none;stroke-opacity:1" />
    <rect
       style="fill:#1996fc;fill-opacity:1;stroke:#1996fc;stroke-width:0.22143379;stroke-miterlimit:4;stroke-dasharray:none;stroke-opacity:1"
       id="rect1450"
       width="13.007734"
       height="13.007732"
       x="88.831291"
       y="210.36519" />
    <rect
       style="fill:#1996fc;fill-opacity:1;stroke:#1996fc;stroke-width:0.22143379;stroke-miterlimit:4;stroke-dasharray:none;stroke-opacity:1"
       id="rect1452"
       width="13.007732"
       height="13.007732"
       x="45.175045"
       y="224.91727" />
    <rect
       y="224.91727"
       x="59.727131"
       height="13.007732"
       width="13.007732"
       id="rect1454"
       style="fill:#1996fc;fill-opacity:1;stroke:#1996fc;stroke-width:0.22143379;stroke-miterlimit:4;stroke-dasharray:none;stroke-opacity:1" />
    <rect
       style="fill:#1996fc;fill-opacity:1;stroke:#1996fc;stroke-width:0.22143379;stroke-miterlimit:4;stroke-dasharray:none;stroke-opacity:1"
       id="rect1456"
       width="13.007732"
       height="13.007732"
       x="74.279205"
       y="224.91727" />
    <rect
       y="224.91727"
       x="88.831291"
       height="13.007732"
       width="13.007732"
       id="rect1458"
       style="fill:#1996fc;fill-opacity:1;stroke:#1996fc;stroke-width:0.22143379;stroke-miterlimit:4;stroke-dasharray:none;stroke-opacity:1" />
    <rect
       y="239.46935"
       x="45.175045"
       height="13.007732"
       width="13.007732"
       id="rect1460"
       style="fill:#1996fc;fill-opacity:1;stroke:#1996fc;stroke-width:0.22143379;stroke-miterlimit:4;stroke-dasharray:none;stroke-opacity:1" />
    <rect
       style="fill:#1996fc;fill-opacity:1;stroke:#1996fc;stroke-width:0.22143379;stroke-miterlimit:4;stroke-dasharray:none;stroke-opacity:1"
       id="rect1462"
       width="13.007732"
       height="13.007732"
       x="59.727131"
       y="239.46935" />
    <rect
       y="239.46935"
       x="74.279205"
       height="13.007732"
       width="13.007732"
       id="rect1464"
       style="fill:#1996fc;fill-opacity:1;stroke:#1996fc;stroke-width:0.22143379;stroke-miterlimit:4;stroke-dasharray:none;stroke-opacity:1" />
    <rect
       style="fill:#1996fc;fill-opacity:1;stroke:#1996fc;stroke-width:0.22143379;stroke-miterlimit:4;stroke-dasharray:none;stroke-opacity:1"
       id="rect1466"
       width="13.007732"
       height="13.007732"
       x="88.831291"
       y="239.46935" />
    <g
       aria-label="GRID
SEQ"
       style="font-style:normal;font-variant:normal;font-weight:bold;font-stretch:normal;font-size:6.23724794px;line-height:1.25;font-family:monospace;-inkscape-font-specification:'monospace, Bold';font-variant-ligatures:normal;font-variant-caps:normal;font-variant-numeric:normal;font-feature-settings:normal;text-align:start;letter-spacing:0px;word-spacing:0px;writing-mode:lr-tb;text-anchor:start;fill:#1996fc;fill-opacity:1;stroke:none;stroke-width:0.15593119"
       id="text1526"
       transform="matrix(0.77649961,0,0,0.77649961,5.1466715,37.982639)">
      <path
         d="m 34.965941,173.13364 v -0.86798 h -0.615197 v -0.75529 h 1.400944 v 2.08314 q -0.25887,0.22233 -0.57256,0.33806 -0.310644,0.11268 -0.666971,0.11268 -0.883204,0 -1.364398,-0.61215 -0.481194,-0.6152 -0.481194,-1.74509 0,-1.14816 0.48424,-1.75422 0.487284,-0.60606 1.403989,-0.60606 0.274098,0 0.539059,0.0792 0.264962,0.0761 0.496422,0.22232 v 0.99589 q -0.188823,-0.24364 -0.435511,-0.36546 -0.243642,-0.12487 -0.536013,-0.12487 -0.51165,0 -0.764429,0.38678 -0.252779,0.38374 -0.252779,1.16644 0,0.75834 0.243643,1.15426 0.243642,0.39592 0.709608,0.39592 0.140095,0 0.243643,-0.0244 0.103548,-0.0274 0.167504,-0.0792 z"
         style="stroke-width:0.15593119"
         id="path1532"
         inkscape:connector-curvature="0" />
      <path
         d="m 38.520076,171.80883 q 0.134003,0.0274 0.23146,0.12792 0.100503,0.0975 0.243643,0.38373 l 0.822293,1.63545 H 38.83072 l -0.548195,-1.14816 q -0.02437,-0.0487 -0.06396,-0.13401 -0.240596,-0.51469 -0.566468,-0.51469 h -0.28628 v 1.79686 h -0.898432 v -4.54698 h 1.297396 q 0.877113,0 1.257805,0.31065 0.383737,0.31064 0.383737,1.01112 0,0.46901 -0.228415,0.74615 -0.228415,0.27714 -0.657835,0.33196 z m -1.154256,-1.64458 v 1.23953 h 0.423329 q 0.368509,0 0.526876,-0.14314 0.161414,-0.14619 0.161414,-0.47815 0,-0.33196 -0.158368,-0.4751 -0.158368,-0.14314 -0.529922,-0.14314 z"
         style="stroke-width:0.15593119"
         id="path1534"
         inkscape:connector-curvature="0" />
      <path
         d="m 40.338258,170.20079 v -0.79184 h 2.707478 v 0.79184 h -0.904523 v 2.9633 h 0.904523 v 0.79184 h -2.707478 v -0.79184 h 0.904523 v -2.9633 z"
         style="stroke-width:0.15593119"
         id="path1536"
         inkscape:connector-curvature="0" />
      <path
         d="m 44.882191,170.21907 v 2.92675 h 0.243643 q 0.529922,0 0.755291,-0.33196 0.22537,-0.33501 0.22537,-1.13598 0,-0.79489 -0.22537,-1.12685 -0.225369,-0.33196 -0.755291,-0.33196 z m -0.898432,-0.81012 h 0.962388 q 1.114665,0 1.604995,0.53297 0.490331,0.52992 0.490331,1.73596 0,1.20907 -0.490331,1.74508 -0.49033,0.53297 -1.604995,0.53297 h -0.962388 z"
         style="stroke-width:0.15593119"
         id="path1538"
         inkscape:connector-curvature="0" />
      <path
         d="m 33.863459,179.75767 q -0.679154,-0.25887 -0.919751,-0.5421 -0.240597,-0.28628 -0.240597,-0.76748 0,-0.61824 0.395919,-0.97152 0.39592,-0.35328 1.087255,-0.35328 0.31369,0 0.62738,0.0731 0.313689,0.0701 0.621288,0.21014 v 0.87711 q -0.289326,-0.20405 -0.587788,-0.31064 -0.298462,-0.1066 -0.590833,-0.1066 -0.325872,0 -0.499467,0.13096 -0.173595,0.13096 -0.173595,0.3746 0,0.18883 0.124867,0.31369 0.127912,0.12182 0.529922,0.27105 l 0.386783,0.14619 q 0.548195,0.20101 0.807065,0.53297 0.258871,0.33196 0.258871,0.83752 0,0.68829 -0.408102,1.02939 -0.405055,0.33805 -1.227349,0.33805 -0.338054,0 -0.679153,-0.0822 -0.338054,-0.0792 -0.654789,-0.23755 v -0.92888 q 0.359372,0.25582 0.694381,0.38069 0.338054,0.12486 0.666971,0.12486 0.331963,0 0.514695,-0.14923 0.182732,-0.15227 0.182732,-0.42333 0,-0.20405 -0.121822,-0.35632 -0.121821,-0.15533 -0.353281,-0.24365 z"
         style="stroke-width:0.15593119"
         id="path1540"
         inkscape:connector-curvature="0" />
      <path
         d="m 39.406326,181.75249 h -2.832344 v -4.54698 h 2.832344 v 0.79184 h -1.933913 v 0.98066 h 1.751181 v 0.79184 h -1.751181 v 1.1908 h 1.933913 z"
         style="stroke-width:0.15593119"
         id="path1542"
         inkscape:connector-curvature="0" />
      <path
         d="m 41.812295,181.82254 q -0.04264,0.009 -0.07309,0.0122 -0.02741,0.006 -0.05482,0.006 -0.782701,0 -1.187757,-0.59692 -0.40201,-0.59693 -0.40201,-1.76032 0,-1.16644 0.40201,-1.76336 0.405056,-0.59692 1.193848,-0.59692 0.791838,0 1.193848,0.59692 0.405056,0.59692 0.405056,1.76336 0,0.80098 -0.191868,1.34308 -0.191869,0.53906 -0.557333,0.77052 l 0.566469,0.55429 -0.615197,0.45683 z m -0.121821,-3.89219 q -0.344145,0 -0.502513,0.36851 -0.158367,0.36546 -0.158367,1.18471 0,0.8162 0.158367,1.18471 0.158368,0.36547 0.502513,0.36547 0.347191,0 0.505558,-0.36547 0.158368,-0.36851 0.158368,-1.18471 0,-0.81925 -0.158368,-1.18471 -0.158367,-0.36851 -0.505558,-0.36851 z"
         style="stroke-width:0.15593119"
         id="path1544"
         inkscape:connector-curvature="0" />
    </g>
    <g
       aria-label="GATE
OUT"
       style="font-style:normal;font-variant:normal;font-weight:normal;font-stretch:normal;font-size:3.6230278px;line-height:1.25;font-family:sans-serif;-inkscape-font-specification:'sans-serif, Normal';font-variant-ligatures:normal;font-variant-caps:normal;font-variant-numeric:normal;font-feature-settings:normal;text-align:center;letter-spacing:0px;word-spacing:0px;writing-mode:lr-tb;text-anchor:middle;fill:#1996fc;fill-opacity:1;stroke:none;stroke-width:0.09057682"
       id="text5475"
       transform="translate(-3.0427096)">
      <path
         d="m 36.660674,201.42344 v -0.70939 h -0.583788 v -0.29367 h 0.9376 v 1.13397 q -0.20698,0.14683 -0.456417,0.2229 -0.249437,0.0743 -0.532486,0.0743 -0.61917,0 -0.969443,-0.36089 -0.348504,-0.36265 -0.348504,-1.00836 0,-0.64747 0.348504,-1.00836 0.350273,-0.36266 0.969443,-0.36266 0.258282,0 0.490029,0.0637 0.233515,0.0637 0.429881,0.18752 v 0.38034 q -0.198135,-0.16806 -0.421036,-0.25297 -0.222901,-0.0849 -0.4688,-0.0849 -0.484721,0 -0.728851,0.27067 -0.242361,0.27067 -0.242361,0.80669 0,0.53426 0.242361,0.80492 0.24413,0.27067 0.728851,0.27067 0.189289,0 0.33789,-0.0318 0.148601,-0.0336 0.267127,-0.1026 z"
         id="path5500"
         inkscape:connector-curvature="0" />
      <path
         d="m 38.551796,199.51109 -0.484722,1.31441 h 0.971212 z m -0.201673,-0.35204 h 0.405114 l 1.006594,2.6412 h -0.371502 l -0.240592,-0.67755 h -1.190575 l -0.240592,0.67755 h -0.376809 z"
         id="path5502"
         inkscape:connector-curvature="0" />
      <path
         d="m 39.496472,199.15905 h 2.234319 v 0.30074 h -0.9376 v 2.34046 h -0.359119 v -2.34046 h -0.9376 z"
         id="path5504"
         inkscape:connector-curvature="0" />
      <path
         d="m 42.077525,199.15905 h 1.66999 v 0.30074 h -1.31264 v 0.78192 h 1.257799 v 0.30074 h -1.257799 v 0.95706 h 1.344483 v 0.30074 h -1.701833 z"
         id="path5506"
         inkscape:connector-curvature="0" />
      <path
         d="m 36.826966,203.93019 q -0.389193,0 -0.61917,0.29013 -0.228208,0.29012 -0.228208,0.79076 0,0.49888 0.228208,0.789 0.229977,0.29013 0.61917,0.29013 0.389192,0 0.615631,-0.29013 0.228209,-0.29012 0.228209,-0.789 0,-0.50064 -0.228209,-0.79076 -0.226439,-0.29013 -0.615631,-0.29013 z m 0,-0.29012 q 0.555483,0 0.888066,0.37327 0.332583,0.3715 0.332583,0.99774 0,0.62448 -0.332583,0.99775 -0.332583,0.3715 -0.888066,0.3715 -0.557253,0 -0.891605,-0.3715 -0.332582,-0.3715 -0.332582,-0.99775 0,-0.62624 0.332582,-0.99774 0.334352,-0.37327 0.891605,-0.37327 z"
         id="path5508"
         inkscape:connector-curvature="0" />
      <path
         d="m 38.565948,203.68783 h 0.359119 v 1.60453 q 0,0.42458 0.153908,0.6121 0.153908,0.18575 0.498874,0.18575 0.343197,0 0.497105,-0.18575 0.153907,-0.18752 0.153907,-0.6121 v -1.60453 h 0.359119 v 1.64876 q 0,0.51657 -0.256513,0.78016 -0.254744,0.26358 -0.753618,0.26358 -0.500643,0 -0.757157,-0.26358 -0.254744,-0.26359 -0.254744,-0.78016 z"
         id="path5510"
         inkscape:connector-curvature="0" />
      <path
         d="m 40.894027,203.68783 h 2.234318 v 0.30074 h -0.9376 v 2.34046 h -0.359118 v -2.34046 h -0.9376 z"
         id="path5512"
         inkscape:connector-curvature="0" />
    </g>
    <g
       aria-label="OUT"
       style="font-style:normal;font-weight:normal;font-size:3.62307286px;line-height:1.25;font-family:sans-serif;letter-spacing:0px;word-spacing:0px;fill:#1996fc;fill-opacity:1;stroke:none;stroke-width:0.09057682"
       id="text5479"
       transform="translate(-3.0427091)">
      <path
         d="m 36.704868,230.59493 q -0.389197,0 -0.619177,0.29013 -0.228212,0.29013 -0.228212,0.79078 0,0.49888 0.228212,0.78901 0.22998,0.29013 0.619177,0.29013 0.389197,0 0.615639,-0.29013 0.228212,-0.29013 0.228212,-0.78901 0,-0.50065 -0.228212,-0.79078 -0.226442,-0.29013 -0.615639,-0.29013 z m 0,-0.29012 q 0.555491,0 0.888077,0.37327 0.332587,0.37151 0.332587,0.99776 0,0.62449 -0.332587,0.99776 -0.332586,0.37151 -0.888077,0.37151 -0.55726,0 -0.891616,-0.37151 -0.332586,-0.3715 -0.332586,-0.99776 0,-0.62625 0.332586,-0.99776 0.334356,-0.37327 0.891616,-0.37327 z"
         style="fill:#1996fc;fill-opacity:1;stroke-width:0.09057682"
         id="path5493"
         inkscape:connector-curvature="0" />
      <path
         d="m 38.443872,230.35257 h 0.359123 v 1.60455 q 0,0.42458 0.15391,0.61211 0.15391,0.18575 0.49888,0.18575 0.343201,0 0.497111,-0.18575 0.15391,-0.18753 0.15391,-0.61211 v -1.60455 h 0.359123 v 1.64878 q 0,0.51657 -0.256516,0.78017 -0.254748,0.26359 -0.753628,0.26359 -0.500649,0 -0.757165,-0.26359 -0.254748,-0.2636 -0.254748,-0.78017 z"
         style="fill:#1996fc;fill-opacity:1;stroke-width:0.09057682"
         id="path5495"
         inkscape:connector-curvature="0" />
      <path
         d="m 40.77198,230.35257 h 2.234346 v 0.30074 h -0.937612 v 2.34049 h -0.359123 v -2.34049 H 40.77198 Z"
         style="fill:#1996fc;fill-opacity:1;stroke-width:0.09057682"
         id="path5497"
         inkscape:connector-curvature="0" />
    </g>
    <path
       id="path5485"
       d="m 40.830996,212.63573 a 4.6302087,4.6302087 0 0 1 -4.630208,4.63022 4.6302087,4.6302087 0 0 1 -4.630209,-4.63022 4.6302087,4.6302087 0 0 1 4.630209,-4.6302 4.6302087,4.6302087 0 0 1 4.630208,4.6302 z"
       style="fill:#1996fc;fill-opacity:1;stroke-width:0.18520835"
       inkscape:connector-curvature="0" />
    <path
       inkscape:connector-curvature="0"
       style="fill:#1996fc;fill-opacity:1;stroke-width:0.18520835"
       d="m 40.830996,239.09406 a 4.6302087,4.6302087 0 0 1 -4.630208,4.63022 4.6302087,4.6302087 0 0 1 -4.630209,-4.63022 4.6302087,4.6302087 0 0 1 4.630209,-4.6302 4.6302087,4.6302087 0 0 1 4.630208,4.6302 z"
       id="path5519" />
    <path
       inkscape:connector-curvature="0"
       style="fill:#1996fc;fill-opacity:1;stroke-width:0.18520835"
       d="m 56.309122,188.29406 a 4.6302087,4.6302087 0 0 1 -4.630208,4.63022 4.6302087,4.6302087 0 0 1 -4.630209,-4.63022 4.6302087,4.6302087 0 0 1 4.630209,-4.6302 4.6302087,4.6302087 0 0 1 4.630208,4.6302 z"
       id="path5521" />
    <path
       id="path5523"
       d="m 70.861207,188.29406 a 4.6302087,4.6302087 0 0 1 -4.630208,4.63022 4.6302087,4.6302087 0 0 1 -4.630209,-4.63022 4.6302087,4.6302087 0 0 1 4.630209,-4.6302 4.6302087,4.6302087 0 0 1 4.630208,4.6302 z"
       style="fill:#1996fc;fill-opacity:1;stroke-width:0.18520835"
       inkscape:connector-curvature="0" />
    <path
       inkscape:connector-curvature="0"
       style="fill:#1996fc;fill-opacity:1;stroke-width:0.18520835"
       d="m 85.413286,188.29406 a 4.6302087,4.6302087 0 0 1 -4.630208,4.63022 4.6302087,4.6302087 0 0 1 -4.630209,-4.63022 4.6302087,4.6302087 0 0 1 4.630209,-4.6302 4.6302087,4.6302087 0 0 1 4.630208,4.6302 z"
       id="path5525" />
    <path
       id="path5527"
       d="m 99.965364,188.29406 a 4.6302087,4.6302087 0 0 1 -4.630204,4.63022 4.6302087,4.6302087 0 0 1 -4.630205,-4.63022 4.6302087,4.6302087 0 0 1 4.630205,-4.6302 4.6302087,4.6302087 0 0 1 4.630204,4.6302 z"
       style="fill:#1996fc;fill-opacity:1;stroke-width:0.18520835"
       inkscape:connector-curvature="0" />
  </g>
</svg>
