<?xml version="1.0" encoding="UTF-8" standalone="no"?>
<!-- Created with Inkscape (http://www.inkscape.org/) -->

<svg
   xmlns:dc="http://purl.org/dc/elements/1.1/"
   xmlns:cc="http://creativecommons.org/ns#"
   xmlns:rdf="http://www.w3.org/1999/02/22-rdf-syntax-ns#"
   xmlns:svg="http://www.w3.org/2000/svg"
   xmlns="http://www.w3.org/2000/svg"
   xmlns:sodipodi="http://sodipodi.sourceforge.net/DTD/sodipodi-0.dtd"
   xmlns:inkscape="http://www.inkscape.org/namespaces/inkscape"
   width="300"
   height="380"
   viewBox="0 0 79.375 100.54166"
   version="1.1"
   id="svg12553"
   inkscape:version="0.92.2 5c3e80d, 2017-08-06"
   sodipodi:docname="GridSeq.svg">
  <defs
     id="defs12547" />
  <sodipodi:namedview
     id="base"
     pagecolor="#ffffff"
     bordercolor="#666666"
     borderopacity="1.0"
     inkscape:pageopacity="0.0"
     inkscape:pageshadow="2"
     inkscape:zoom="2"
     inkscape:cx="132.95455"
     inkscape:cy="185.06125"
     inkscape:document-units="px"
     inkscape:current-layer="layer1"
     showgrid="true"
     fit-margin-top="0"
     fit-margin-left="0"
     fit-margin-right="0"
     fit-margin-bottom="0"
     units="px"
     inkscape:window-width="1217"
     inkscape:window-height="847"
     inkscape:window-x="270"
     inkscape:window-y="0"
     inkscape:window-maximized="0"
     inkscape:snap-grids="false"
     showguides="false">
    <inkscape:grid
       type="xygrid"
       id="grid12870"
       originx="-20.372917"
       originy="84.666661" />
  </sodipodi:namedview>
  <metadata
     id="metadata12550">
    <rdf:RDF>
      <cc:Work
         rdf:about="">
        <dc:format>image/svg+xml</dc:format>
        <dc:type
           rdf:resource="http://purl.org/dc/dcmitype/StillImage" />
        <dc:title />
      </cc:Work>
    </rdf:RDF>
  </metadata>
  <g
     inkscape:label="Layer 1"
     inkscape:groupmode="layer"
     id="layer1"
     transform="translate(-26.543497,-161.30655)">
    <path
       inkscape:connector-curvature="0"
       id="path33453"
       d="m 26.543497,161.45211 h 79.150463 v 100.3961 H 26.543497 Z m 0,0"
       style="fill:#e6e6e6;fill-opacity:1;fill-rule:nonzero;stroke:none;stroke-width:0.26282784" />
    <rect
       style="fill:#1996fc;fill-opacity:1;stroke:#1996fc;stroke-width:0.22143379;stroke-miterlimit:4;stroke-dasharray:none;stroke-opacity:1"
       id="rect1298"
       width="13.007732"
       height="13.007732"
       x="45.175045"
       y="185.22987" />
    <rect
       y="185.22987"
       x="59.727131"
       height="13.007732"
       width="13.007732"
       id="rect1358"
       style="fill:#1996fc;fill-opacity:1;stroke:#1996fc;stroke-width:0.22143379;stroke-miterlimit:4;stroke-dasharray:none;stroke-opacity:1" />
    <rect
       style="fill:#1996fc;fill-opacity:1;stroke:#1996fc;stroke-width:0.22143379;stroke-miterlimit:4;stroke-dasharray:none;stroke-opacity:1"
       id="rect1440"
       width="13.007732"
       height="13.007732"
       x="74.279205"
       y="185.22987" />
    <rect
       y="185.22987"
       x="88.831291"
       height="13.007732"
       width="13.007732"
       id="rect1442"
       style="fill:#1996fc;fill-opacity:1;stroke:#1996fc;stroke-width:0.22143379;stroke-miterlimit:4;stroke-dasharray:none;stroke-opacity:1" />
    <rect
       y="199.78197"
       x="45.175045"
       height="13.007732"
       width="13.007734"
       id="rect1444"
       style="fill:#1996fc;fill-opacity:1;stroke:#1996fc;stroke-width:0.22143379;stroke-miterlimit:4;stroke-dasharray:none;stroke-opacity:1" />
    <rect
       style="fill:#1996fc;fill-opacity:1;stroke:#1996fc;stroke-width:0.22143379;stroke-miterlimit:4;stroke-dasharray:none;stroke-opacity:1"
       id="rect1446"
       width="13.007734"
       height="13.007732"
       x="59.727131"
       y="199.78197" />
    <rect
       y="199.78197"
       x="74.279205"
       height="13.007732"
       width="13.007734"
       id="rect1448"
       style="fill:#1996fc;fill-opacity:1;stroke:#1996fc;stroke-width:0.22143379;stroke-miterlimit:4;stroke-dasharray:none;stroke-opacity:1" />
    <rect
       style="fill:#1996fc;fill-opacity:1;stroke:#1996fc;stroke-width:0.22143379;stroke-miterlimit:4;stroke-dasharray:none;stroke-opacity:1"
       id="rect1450"
       width="13.007734"
       height="13.007732"
       x="88.831291"
       y="199.78197" />
    <rect
       style="fill:#1996fc;fill-opacity:1;stroke:#1996fc;stroke-width:0.22143379;stroke-miterlimit:4;stroke-dasharray:none;stroke-opacity:1"
       id="rect1452"
       width="13.007732"
       height="13.007732"
       x="45.175045"
       y="214.33405" />
    <rect
       y="214.33405"
       x="59.727131"
       height="13.007732"
       width="13.007732"
       id="rect1454"
       style="fill:#1996fc;fill-opacity:1;stroke:#1996fc;stroke-width:0.22143379;stroke-miterlimit:4;stroke-dasharray:none;stroke-opacity:1" />
    <rect
       style="fill:#1996fc;fill-opacity:1;stroke:#1996fc;stroke-width:0.22143379;stroke-miterlimit:4;stroke-dasharray:none;stroke-opacity:1"
       id="rect1456"
       width="13.007732"
       height="13.007732"
       x="74.279205"
       y="214.33405" />
    <rect
       y="214.33405"
       x="88.831291"
       height="13.007732"
       width="13.007732"
       id="rect1458"
       style="fill:#1996fc;fill-opacity:1;stroke:#1996fc;stroke-width:0.22143379;stroke-miterlimit:4;stroke-dasharray:none;stroke-opacity:1" />
    <rect
       y="228.88612"
       x="45.175045"
       height="13.007732"
       width="13.007732"
       id="rect1460"
       style="fill:#1996fc;fill-opacity:1;stroke:#1996fc;stroke-width:0.22143379;stroke-miterlimit:4;stroke-dasharray:none;stroke-opacity:1" />
    <rect
       style="fill:#1996fc;fill-opacity:1;stroke:#1996fc;stroke-width:0.22143379;stroke-miterlimit:4;stroke-dasharray:none;stroke-opacity:1"
       id="rect1462"
       width="13.007732"
       height="13.007732"
       x="59.727131"
       y="228.88612" />
    <rect
       y="228.88612"
       x="74.279205"
       height="13.007732"
       width="13.007732"
       id="rect1464"
       style="fill:#1996fc;fill-opacity:1;stroke:#1996fc;stroke-width:0.22143379;stroke-miterlimit:4;stroke-dasharray:none;stroke-opacity:1" />
    <rect
       style="fill:#1996fc;fill-opacity:1;stroke:#1996fc;stroke-width:0.22143379;stroke-miterlimit:4;stroke-dasharray:none;stroke-opacity:1"
       id="rect1466"
       width="13.007732"
       height="13.007732"
       x="88.831291"
       y="228.88612" />
    <g
       aria-label="GRID SEQ"
       style="font-style:normal;font-variant:normal;font-weight:bold;font-stretch:normal;font-size:6.23724794px;line-height:1.25;font-family:monospace;-inkscape-font-specification:'monospace, Bold';font-variant-ligatures:normal;font-variant-caps:normal;font-variant-numeric:normal;font-feature-settings:normal;text-align:start;letter-spacing:0px;word-spacing:0px;writing-mode:lr-tb;text-anchor:start;fill:#1996fc;fill-opacity:1;stroke:none;stroke-width:0.15593119"
       id="text1526"
       transform="matrix(0.77649961,0,0,0.77649961,5.1466715,34.807637)">
      <path
         d="m 34.965941,173.13364 v -0.86798 h -0.615197 v -0.75529 h 1.400944 v 2.08314 q -0.25887,0.22233 -0.57256,0.33806 -0.310644,0.11268 -0.666971,0.11268 -0.883204,0 -1.364398,-0.61215 -0.481194,-0.6152 -0.481194,-1.74509 0,-1.14816 0.48424,-1.75422 0.487284,-0.60606 1.403989,-0.60606 0.274098,0 0.539059,0.0792 0.264962,0.0761 0.496422,0.22232 v 0.99589 q -0.188823,-0.24364 -0.435511,-0.36546 -0.243642,-0.12487 -0.536013,-0.12487 -0.51165,0 -0.764429,0.38678 -0.252779,0.38374 -0.252779,1.16644 0,0.75834 0.243643,1.15426 0.243642,0.39592 0.709608,0.39592 0.140095,0 0.243643,-0.0244 0.103548,-0.0274 0.167504,-0.0792 z"
         style="stroke-width:0.15593119"
         id="path1532"
         inkscape:connector-curvature="0" />
      <path
         d="m 38.520076,171.80883 q 0.134003,0.0274 0.23146,0.12792 0.100503,0.0975 0.243643,0.38373 l 0.822293,1.63545 H 38.83072 l -0.548195,-1.14816 q -0.02437,-0.0487 -0.06396,-0.13401 -0.240596,-0.51469 -0.566468,-0.51469 h -0.28628 v 1.79686 h -0.898432 v -4.54698 h 1.297396 q 0.877113,0 1.257805,0.31065 0.383737,0.31064 0.383737,1.01112 0,0.46901 -0.228415,0.74615 -0.228415,0.27714 -0.657835,0.33196 z m -1.154256,-1.64458 v 1.23953 h 0.423329 q 0.368509,0 0.526876,-0.14314 0.161414,-0.14619 0.161414,-0.47815 0,-0.33196 -0.158368,-0.4751 -0.158368,-0.14314 -0.529922,-0.14314 z"
         style="stroke-width:0.15593119"
         id="path1534"
         inkscape:connector-curvature="0" />
      <path
         d="m 40.338258,170.20079 v -0.79184 h 2.707478 v 0.79184 h -0.904523 v 2.9633 h 0.904523 v 0.79184 h -2.707478 v -0.79184 h 0.904523 v -2.9633 z"
         style="stroke-width:0.15593119"
         id="path1536"
         inkscape:connector-curvature="0" />
      <path
         d="m 44.882191,170.21907 v 2.92675 h 0.243643 q 0.529922,0 0.755291,-0.33196 0.22537,-0.33501 0.22537,-1.13598 0,-0.79489 -0.22537,-1.12685 -0.225369,-0.33196 -0.755291,-0.33196 z m -0.898432,-0.81012 h 0.962388 q 1.114665,0 1.604995,0.53297 0.490331,0.52992 0.490331,1.73596 0,1.20907 -0.490331,1.74508 -0.49033,0.53297 -1.604995,0.53297 h -0.962388 z"
         style="stroke-width:0.15593119"
         id="path1538"
         inkscape:connector-curvature="0" />
      <path
         d="m 33.863459,179.75767 q -0.679154,-0.25887 -0.919751,-0.5421 -0.240597,-0.28628 -0.240597,-0.76748 0,-0.61824 0.395919,-0.97152 0.39592,-0.35328 1.087255,-0.35328 0.31369,0 0.62738,0.0731 0.313689,0.0701 0.621288,0.21014 v 0.87711 q -0.289326,-0.20405 -0.587788,-0.31064 -0.298462,-0.1066 -0.590833,-0.1066 -0.325872,0 -0.499467,0.13096 -0.173595,0.13096 -0.173595,0.3746 0,0.18883 0.124867,0.31369 0.127912,0.12182 0.529922,0.27105 l 0.386783,0.14619 q 0.548195,0.20101 0.807065,0.53297 0.258871,0.33196 0.258871,0.83752 0,0.68829 -0.408102,1.02939 -0.405055,0.33805 -1.227349,0.33805 -0.338054,0 -0.679153,-0.0822 -0.338054,-0.0792 -0.654789,-0.23755 v -0.92888 q 0.359372,0.25582 0.694381,0.38069 0.338054,0.12486 0.666971,0.12486 0.331963,0 0.514695,-0.14923 0.182732,-0.15227 0.182732,-0.42333 0,-0.20405 -0.121822,-0.35632 -0.121821,-0.15533 -0.353281,-0.24365 z"
         style="stroke-width:0.15593119"
         id="path1540"
         inkscape:connector-curvature="0" />
      <path
         d="m 39.406326,181.75249 h -2.832344 v -4.54698 h 2.832344 v 0.79184 h -1.933913 v 0.98066 h 1.751181 v 0.79184 h -1.751181 v 1.1908 h 1.933913 z"
         style="stroke-width:0.15593119"
         id="path1542"
         inkscape:connector-curvature="0" />
      <path
         d="m 41.812295,181.82254 q -0.04264,0.009 -0.07309,0.0122 -0.02741,0.006 -0.05482,0.006 -0.782701,0 -1.187757,-0.59692 -0.40201,-0.59693 -0.40201,-1.76032 0,-1.16644 0.40201,-1.76336 0.405056,-0.59692 1.193848,-0.59692 0.791838,0 1.193848,0.59692 0.405056,0.59692 0.405056,1.76336 0,0.80098 -0.191868,1.34308 -0.191869,0.53906 -0.557333,0.77052 l 0.566469,0.55429 -0.615197,0.45683 z m -0.121821,-3.89219 q -0.344145,0 -0.502513,0.36851 -0.158367,0.36546 -0.158367,1.18471 0,0.8162 0.158367,1.18471 0.158368,0.36547 0.502513,0.36547 0.347191,0 0.505558,-0.36547 0.158368,-0.36851 0.158368,-1.18471 0,-0.81925 -0.158368,-1.18471 -0.158367,-0.36851 -0.505558,-0.36851 z"
         style="stroke-width:0.15593119"
         id="path1544"
         inkscape:connector-curvature="0" />
    </g>
    <g
       aria-label="GATE OUT"
       style="font-style:normal;font-variant:normal;font-weight:normal;font-stretch:normal;font-size:3.6230278px;line-height:1.25;font-family:sans-serif;-inkscape-font-specification:'sans-serif, Normal';font-variant-ligatures:normal;font-variant-caps:normal;font-variant-numeric:normal;font-feature-settings:normal;text-align:center;letter-spacing:0px;word-spacing:0px;writing-mode:lr-tb;text-anchor:middle;fill:#1996fc;fill-opacity:1;stroke:none;stroke-width:0.09057682"
       id="text5475"
       transform="matrix(0.94800198,0,0,0.94800198,-1.6148357,33.485546)">
      <path
         d="m 36.660674,201.42344 v -0.70939 h -0.583788 v -0.29367 h 0.9376 v 1.13397 q -0.20698,0.14683 -0.456417,0.2229 -0.249437,0.0743 -0.532486,0.0743 -0.61917,0 -0.969443,-0.36089 -0.348504,-0.36265 -0.348504,-1.00836 0,-0.64747 0.348504,-1.00836 0.350273,-0.36266 0.969443,-0.36266 0.258282,0 0.490029,0.0637 0.233515,0.0637 0.429881,0.18752 v 0.38034 q -0.198135,-0.16806 -0.421036,-0.25297 -0.222901,-0.0849 -0.4688,-0.0849 -0.484721,0 -0.728851,0.27067 -0.242361,0.27067 -0.242361,0.80669 0,0.53426 0.242361,0.80492 0.24413,0.27067 0.728851,0.27067 0.189289,0 0.33789,-0.0318 0.148601,-0.0336 0.267127,-0.1026 z"
         id="path5500"
         inkscape:connector-curvature="0" />
      <path
         d="m 38.551796,199.51109 -0.484722,1.31441 h 0.971212 z m -0.201673,-0.35204 h 0.405114 l 1.006594,2.6412 h -0.371502 l -0.240592,-0.67755 h -1.190575 l -0.240592,0.67755 h -0.376809 z"
         id="path5502"
         inkscape:connector-curvature="0" />
      <path
         d="m 39.496472,199.15905 h 2.234319 v 0.30074 h -0.9376 v 2.34046 h -0.359119 v -2.34046 h -0.9376 z"
         id="path5504"
         inkscape:connector-curvature="0" />
      <path
         d="m 42.077525,199.15905 h 1.66999 v 0.30074 h -1.31264 v 0.78192 h 1.257799 v 0.30074 h -1.257799 v 0.95706 h 1.344483 v 0.30074 h -1.701833 z"
         id="path5506"
         inkscape:connector-curvature="0" />
      <path
         d="m 36.826966,203.93019 q -0.389193,0 -0.61917,0.29013 -0.228208,0.29012 -0.228208,0.79076 0,0.49888 0.228208,0.789 0.229977,0.29013 0.61917,0.29013 0.389192,0 0.615631,-0.29013 0.228209,-0.29012 0.228209,-0.789 0,-0.50064 -0.228209,-0.79076 -0.226439,-0.29013 -0.615631,-0.29013 z m 0,-0.29012 q 0.555483,0 0.888066,0.37327 0.332583,0.3715 0.332583,0.99774 0,0.62448 -0.332583,0.99775 -0.332583,0.3715 -0.888066,0.3715 -0.557253,0 -0.891605,-0.3715 -0.332582,-0.3715 -0.332582,-0.99775 0,-0.62624 0.332582,-0.99774 0.334352,-0.37327 0.891605,-0.37327 z"
         id="path5508"
         inkscape:connector-curvature="0" />
      <path
         d="m 38.565948,203.68783 h 0.359119 v 1.60453 q 0,0.42458 0.153908,0.6121 0.153908,0.18575 0.498874,0.18575 0.343197,0 0.497105,-0.18575 0.153907,-0.18752 0.153907,-0.6121 v -1.60453 h 0.359119 v 1.64876 q 0,0.51657 -0.256513,0.78016 -0.254744,0.26358 -0.753618,0.26358 -0.500643,0 -0.757157,-0.26358 -0.254744,-0.26359 -0.254744,-0.78016 z"
         id="path5510"
         inkscape:connector-curvature="0" />
      <path
         d="m 40.894027,203.68783 h 2.234318 v 0.30074 h -0.9376 v 2.34046 h -0.359118 v -2.34046 h -0.9376 z"
         id="path5512"
         inkscape:connector-curvature="0" />
    </g>
    <g
       aria-label="OUT"
       style="font-style:normal;font-weight:normal;font-size:3.62307286px;line-height:1.25;font-family:sans-serif;letter-spacing:0px;word-spacing:0px;fill:#1996fc;fill-opacity:1;stroke:none;stroke-width:0.09057682"
       id="text5479"
       transform="matrix(1.1255625,0,0,1.1255625,-8.5829303,-16.561714)">
      <path
         d="m 36.704868,230.59493 q -0.389197,0 -0.619177,0.29013 -0.228212,0.29013 -0.228212,0.79078 0,0.49888 0.228212,0.78901 0.22998,0.29013 0.619177,0.29013 0.389197,0 0.615639,-0.29013 0.228212,-0.29013 0.228212,-0.78901 0,-0.50065 -0.228212,-0.79078 -0.226442,-0.29013 -0.615639,-0.29013 z m 0,-0.29012 q 0.555491,0 0.888077,0.37327 0.332587,0.37151 0.332587,0.99776 0,0.62449 -0.332587,0.99776 -0.332586,0.37151 -0.888077,0.37151 -0.55726,0 -0.891616,-0.37151 -0.332586,-0.3715 -0.332586,-0.99776 0,-0.62625 0.332586,-0.99776 0.334356,-0.37327 0.891616,-0.37327 z"
         style="fill:#1996fc;fill-opacity:1;stroke-width:0.09057682"
         id="path5493"
         inkscape:connector-curvature="0" />
      <path
         d="m 38.443872,230.35257 h 0.359123 v 1.60455 q 0,0.42458 0.15391,0.61211 0.15391,0.18575 0.49888,0.18575 0.343201,0 0.497111,-0.18575 0.15391,-0.18753 0.15391,-0.61211 v -1.60455 h 0.359123 v 1.64878 q 0,0.51657 -0.256516,0.78017 -0.254748,0.26359 -0.753628,0.26359 -0.500649,0 -0.757165,-0.26359 -0.254748,-0.2636 -0.254748,-0.78017 z"
         style="fill:#1996fc;fill-opacity:1;stroke-width:0.09057682"
         id="path5495"
         inkscape:connector-curvature="0" />
      <path
         d="m 40.77198,230.35257 h 2.234346 v 0.30074 h -0.937612 v 2.34049 h -0.359123 v -2.34049 H 40.77198 Z"
         style="fill:#1996fc;fill-opacity:1;stroke-width:0.09057682"
         id="path5497"
         inkscape:connector-curvature="0" />
    </g>
    <g
       aria-label="DIRECTION INPUTS"
       style="font-style:normal;font-variant:normal;font-weight:normal;font-stretch:normal;font-size:3.00750089px;line-height:1.25;font-family:sans-serif;-inkscape-font-specification:'sans-serif, Normal';font-variant-ligatures:normal;font-variant-caps:normal;font-variant-numeric:normal;font-feature-settings:normal;text-align:start;letter-spacing:0px;word-spacing:0px;writing-mode:lr-tb;text-anchor:start;fill:#1996fc;fill-opacity:1;stroke:none;stroke-width:0.07518755"
       id="text3758"
       transform="translate(0,-6.3499993)">
      <path
         d="m 59.32275,172.93638 v 1.70493 h 0.358315 q 0.453769,0 0.663765,-0.20559 0.211465,-0.20559 0.211465,-0.64908 0,-0.44055 -0.211465,-0.64467 -0.209996,-0.20559 -0.663765,-0.20559 z m -0.296638,-0.24377 h 0.60943 q 0.637331,0 0.935438,0.2658 0.298107,0.26433 0.298107,0.82823 0,0.56685 -0.299575,0.83265 -0.299576,0.2658 -0.93397,0.2658 h -0.60943 z"
         id="path4577"
         inkscape:connector-curvature="0" />
      <path
         d="m 61.340477,172.69261 h 0.296639 v 2.19248 h -0.296639 z"
         id="path4579"
         inkscape:connector-curvature="0" />
      <path
         d="m 63.267158,173.85713 q 0.09545,0.0323 0.185031,0.13804 0.09105,0.10573 0.182095,0.29077 l 0.301044,0.59915 h -0.318666 l -0.280485,-0.56244 q -0.108669,-0.22028 -0.211465,-0.29223 -0.101327,-0.072 -0.277547,-0.072 h -0.323072 v 0.92663 h -0.296638 v -2.19248 h 0.669639 q 0.375938,0 0.560969,0.15713 0.185032,0.15713 0.185032,0.47432 0,0.20706 -0.09692,0.34363 -0.09545,0.13658 -0.279016,0.18944 z m -0.743065,-0.92075 v 0.77831 h 0.373001 q 0.214402,0 0.323071,-0.0984 0.110138,-0.0999 0.110138,-0.29224 0,-0.19237 -0.110138,-0.28929 -0.108669,-0.0984 -0.323071,-0.0984 z"
         id="path4581"
         inkscape:connector-curvature="0" />
      <path
         d="m 64.318608,172.69261 h 1.38627 v 0.24964 h -1.089632 v 0.64908 h 1.044108 v 0.24965 h -1.044108 v 0.79446 h 1.116065 v 0.24965 h -1.412703 z"
         id="path4583"
         inkscape:connector-curvature="0" />
      <path
         d="m 67.863582,172.86148 v 0.3128 q -0.149787,-0.13951 -0.320134,-0.20853 -0.168878,-0.069 -0.359784,-0.069 -0.375938,0 -0.575655,0.23055 -0.199717,0.22909 -0.199717,0.66377 0,0.43321 0.199717,0.66376 0.199717,0.22909 0.575655,0.22909 0.190906,0 0.359784,-0.069 0.170347,-0.069 0.320134,-0.20853 v 0.30986 q -0.155661,0.10573 -0.330414,0.1586 -0.173283,0.0529 -0.367126,0.0529 -0.497824,0 -0.784183,-0.30398 -0.286358,-0.30545 -0.286358,-0.83264 0,-0.52866 0.286358,-0.83264 0.286359,-0.30545 0.784183,-0.30545 0.19678,0 0.370063,0.0529 0.174753,0.0514 0.327477,0.15566 z"
         id="path4585"
         inkscape:connector-curvature="0" />
      <path
         d="m 68.020713,172.69261 h 1.854723 v 0.24964 h -0.778308 v 1.94284 h -0.298107 v -1.94284 h -0.778308 z"
         id="path4587"
         inkscape:connector-curvature="0" />
      <path
         d="m 70.163263,172.69261 h 0.296639 v 2.19248 h -0.296639 z"
         id="path4589"
         inkscape:connector-curvature="0" />
      <path
         d="m 71.940156,172.89379 q -0.323071,0 -0.513977,0.24084 -0.189437,0.24083 -0.189437,0.65642 0,0.41412 0.189437,0.65495 0.190906,0.24084 0.513977,0.24084 0.323072,0 0.51104,-0.24084 0.189438,-0.24083 0.189438,-0.65495 0,-0.41559 -0.189438,-0.65642 -0.187968,-0.24084 -0.51104,-0.24084 z m 0,-0.24083 q 0.461111,0 0.73719,0.30985 0.27608,0.30839 0.27608,0.82824 0,0.51838 -0.27608,0.82824 -0.276079,0.30838 -0.73719,0.30838 -0.462579,0 -0.740127,-0.30838 -0.276079,-0.30839 -0.276079,-0.82824 0,-0.51985 0.276079,-0.82824 0.277548,-0.30985 0.740127,-0.30985 z"
         id="path4591"
         inkscape:connector-curvature="0" />
      <path
         d="m 73.417473,172.69261 h 0.399433 l 0.972152,1.83416 v -1.83416 h 0.287827 v 2.19248 H 74.677451 L 73.7053,173.05092 v 1.83417 h -0.287827 z"
         id="path4593"
         inkscape:connector-curvature="0" />
      <path
         d="m 76.624691,172.69261 h 0.296638 v 2.19248 h -0.296638 z"
         id="path4595"
         inkscape:connector-curvature="0" />
      <path
         d="m 77.511669,172.69261 h 0.399434 l 0.972151,1.83416 v -1.83416 h 0.287827 v 2.19248 h -0.399434 l -0.972151,-1.83417 v 1.83417 h -0.287827 z"
         id="path4597"
         inkscape:connector-curvature="0" />
      <path
         d="m 80.058058,172.93638 v 0.82383 h 0.373 q 0.207059,0 0.320134,-0.1072 0.113075,-0.1072 0.113075,-0.30545 0,-0.19678 -0.113075,-0.30398 -0.113075,-0.1072 -0.320134,-0.1072 z m -0.296639,-0.24377 h 0.669639 q 0.368595,0 0.556564,0.16741 0.189437,0.16594 0.189437,0.48754 0,0.32454 -0.189437,0.49048 -0.187969,0.16594 -0.556564,0.16594 h -0.373 v 0.88111 h -0.296639 z"
         id="path4599"
         inkscape:connector-curvature="0" />
      <path
         d="m 81.542719,172.69261 h 0.298106 v 1.33193 q 0,0.35244 0.12776,0.5081 0.12776,0.1542 0.414119,0.1542 0.28489,0 0.41265,-0.1542 0.12776,-0.15566 0.12776,-0.5081 v -1.33193 h 0.298107 v 1.36864 q 0,0.42881 -0.212933,0.64762 -0.211465,0.2188 -0.625584,0.2188 -0.415587,0 -0.628521,-0.2188 -0.211464,-0.21881 -0.211464,-0.64762 z"
         id="path4601"
         inkscape:connector-curvature="0" />
      <path
         d="m 83.475272,172.69261 h 1.854724 v 0.24964 h -0.778309 v 1.94284 H 84.25358 v -1.94284 h -0.778308 z"
         id="path4603"
         inkscape:connector-curvature="0" />
      <path
         d="m 86.932136,172.76456 v 0.2893 q -0.168879,-0.0808 -0.318666,-0.12042 -0.149788,-0.0396 -0.289296,-0.0396 -0.242303,0 -0.374469,0.094 -0.130697,0.094 -0.130697,0.26726 0,0.14539 0.08664,0.22028 0.08811,0.0734 0.331882,0.11895 l 0.179158,0.0367 q 0.331882,0.0632 0.489013,0.22321 0.158598,0.1586 0.158598,0.42587 0,0.31867 -0.214402,0.48314 -0.212933,0.16447 -0.625583,0.16447 -0.155662,0 -0.331883,-0.0352 -0.174752,-0.0352 -0.362721,-0.10427 v -0.30544 q 0.180626,0.10132 0.35391,0.15272 0.173284,0.0514 0.340694,0.0514 0.254051,0 0.392091,-0.0999 0.138039,-0.0999 0.138039,-0.28489 0,-0.16154 -0.09986,-0.25258 -0.09839,-0.091 -0.32454,-0.13658 l -0.180626,-0.0352 q -0.331883,-0.0661 -0.480202,-0.20706 -0.148319,-0.14098 -0.148319,-0.39209 0,-0.29076 0.204123,-0.45817 0.20559,-0.16741 0.565374,-0.16741 0.154194,0 0.314261,0.0279 0.160067,0.0279 0.327477,0.0837 z"
         id="path4605"
         inkscape:connector-curvature="0" />
    </g>
    <rect
       style="fill:#1996fc;fill-opacity:1;stroke:#1996fc;stroke-width:0.04773502;stroke-miterlimit:4;stroke-dasharray:none;stroke-opacity:1"
       id="rect4567"
       width="11.102562"
       height="0.70821726"
       x="90.823311"
       y="167.01013" />
    <rect
       y="166.82114"
       x="45.088196"
       height="0.70821726"
       width="11.102562"
       id="rect4569"
       style="fill:#1996fc;fill-opacity:1;stroke:#1996fc;stroke-width:0.04773502;stroke-miterlimit:4;stroke-dasharray:none;stroke-opacity:1" />
    <g
       aria-label="RUN"
       style="font-style:normal;font-variant:normal;font-weight:normal;font-stretch:normal;font-size:3.98112774px;line-height:1.25;font-family:monospace;-inkscape-font-specification:'monospace, Normal';font-variant-ligatures:normal;font-variant-caps:normal;font-variant-numeric:normal;font-feature-settings:normal;text-align:start;letter-spacing:0px;word-spacing:0px;writing-mode:lr-tb;text-anchor:start;fill:#1996fc;fill-opacity:1;stroke:none;stroke-width:0.29858458"
       id="text4626"
       transform="translate(0.40684366,-5.8208327)">
      <path
         d="m 33.0614,188.12663 q 0.151625,0.0389 0.25854,0.14774 0.106915,0.10691 0.266316,0.4296 l 0.394613,0.79312 h -0.421828 l -0.346016,-0.73286 q -0.149681,-0.31297 -0.270204,-0.40239 -0.118578,-0.0914 -0.311025,-0.0914 h -0.375175 v 1.22661 h -0.394614 v -2.90226 h 0.808667 q 0.478202,0 0.732854,0.21577 0.254652,0.21578 0.254652,0.624 0,0.2877 -0.157456,0.47042 -0.155513,0.18079 -0.439324,0.22161 z m -0.804779,-1.20911 v 1.03027 h 0.429604 q 0.281867,0 0.419885,-0.12635 0.138017,-0.12636 0.138017,-0.38684 0,-0.25077 -0.147737,-0.38295 -0.145793,-0.13413 -0.425716,-0.13413 z"
         style="font-style:normal;font-variant:normal;font-weight:normal;font-stretch:normal;font-size:3.98112774px;font-family:monospace;-inkscape-font-specification:'monospace, Normal';font-variant-ligatures:normal;font-variant-caps:normal;font-variant-numeric:normal;font-feature-settings:normal;text-align:start;writing-mode:lr-tb;text-anchor:start;fill:#1996fc;fill-opacity:1;stroke-width:0.29858458"
         id="path4628"
         inkscape:connector-curvature="0" />
      <path
         d="m 34.26468,188.38323 v -1.7884 h 0.394614 v 1.96723 q 0,0.21189 0.01166,0.30325 0.01166,0.0894 0.04082,0.13802 0.06221,0.11469 0.178839,0.17301 0.118579,0.0583 0.285755,0.0583 0.16912,0 0.285755,-0.0583 0.116634,-0.0583 0.180783,-0.17301 0.02916,-0.0486 0.04082,-0.13802 0.01166,-0.0894 0.01166,-0.29936 v -0.18272 -1.7884 h 0.39267 v 1.7884 q 0,0.44515 -0.05637,0.63371 -0.05443,0.18662 -0.190503,0.30908 -0.128298,0.11469 -0.29353,0.17107 -0.165232,0.0564 -0.371287,0.0564 -0.204111,0 -0.369343,-0.0564 -0.165232,-0.0564 -0.295474,-0.17107 -0.13413,-0.12052 -0.190503,-0.31102 -0.05637,-0.19245 -0.05637,-0.63177 z"
         style="font-style:normal;font-variant:normal;font-weight:normal;font-stretch:normal;font-size:3.98112774px;font-family:monospace;-inkscape-font-specification:'monospace, Normal';font-variant-ligatures:normal;font-variant-caps:normal;font-variant-numeric:normal;font-feature-settings:normal;text-align:start;writing-mode:lr-tb;text-anchor:start;fill:#1996fc;fill-opacity:1;stroke-width:0.29858458"
         id="path4630"
         inkscape:connector-curvature="0" />
      <path
         d="m 36.644026,186.59483 h 0.497641 l 0.979731,2.38906 v -2.38906 h 0.379062 v 2.90226 h -0.497641 l -0.97973,-2.38907 v 2.38907 h -0.379063 z"
         style="font-style:normal;font-variant:normal;font-weight:normal;font-stretch:normal;font-size:3.98112774px;font-family:monospace;-inkscape-font-specification:'monospace, Normal';font-variant-ligatures:normal;font-variant-caps:normal;font-variant-numeric:normal;font-feature-settings:normal;text-align:start;writing-mode:lr-tb;text-anchor:start;fill:#1996fc;fill-opacity:1;stroke-width:0.29858458"
         id="path4632"
         inkscape:connector-curvature="0" />
    </g>
    <g
       aria-label="RESET"
       style="font-style:normal;font-variant:normal;font-weight:normal;font-stretch:normal;font-size:3.52777767px;line-height:1.25;font-family:monospace;-inkscape-font-specification:'monospace, Normal';font-variant-ligatures:normal;font-variant-caps:normal;font-variant-numeric:normal;font-feature-settings:normal;text-align:start;letter-spacing:0px;word-spacing:0px;writing-mode:lr-tb;text-anchor:start;fill:#1996fc;fill-opacity:1;stroke:none;stroke-width:0.26458332"
       id="text4639"
       transform="translate(0.03846866,3.7041663)">
      <path
         d="m 31.469754,193.08953 q 0.134359,0.0344 0.229099,0.13091 0.09474,0.0947 0.235989,0.38069 l 0.349677,0.70279 h -0.373793 l -0.306613,-0.6494 q -0.132636,-0.27733 -0.239434,-0.35656 -0.105076,-0.081 -0.275608,-0.081 h -0.332452 v 1.08692 h -0.349677 v -2.57176 h 0.71658 q 0.423747,0 0.6494,0.1912 0.225654,0.19121 0.225654,0.55294 0,0.25494 -0.139526,0.41686 -0.137804,0.16019 -0.389296,0.19637 z m -0.713135,-1.07143 v 0.91295 h 0.380683 q 0.24977,0 0.372071,-0.11196 0.122301,-0.11197 0.122301,-0.34279 0,-0.22221 -0.130914,-0.33934 -0.129191,-0.11886 -0.377238,-0.11886 z"
         style="font-style:normal;font-variant:normal;font-weight:normal;font-stretch:normal;font-size:3.52777767px;font-family:monospace;-inkscape-font-specification:'monospace, Normal';font-variant-ligatures:normal;font-variant-caps:normal;font-variant-numeric:normal;font-feature-settings:normal;text-align:start;writing-mode:lr-tb;text-anchor:start;fill:#1996fc;fill-opacity:1;stroke-width:0.26458332"
         id="path4641"
         inkscape:connector-curvature="0" />
      <path
         d="m 32.622139,191.73216 h 1.526177 v 0.29283 h -1.178223 v 0.76137 h 1.126546 v 0.29283 h -1.126546 v 0.9319 h 1.210951 v 0.29283 h -1.558905 z"
         style="font-style:normal;font-variant:normal;font-weight:normal;font-stretch:normal;font-size:3.52777767px;font-family:monospace;-inkscape-font-specification:'monospace, Normal';font-variant-ligatures:normal;font-variant-caps:normal;font-variant-numeric:normal;font-feature-settings:normal;text-align:start;writing-mode:lr-tb;text-anchor:start;fill:#1996fc;fill-opacity:1;stroke-width:0.26458332"
         id="path4643"
         inkscape:connector-curvature="0" />
      <path
         d="m 36.148194,191.82001 v 0.35312 q -0.158475,-0.10163 -0.318672,-0.1533 -0.158474,-0.0517 -0.320394,-0.0517 -0.246324,0 -0.389295,0.11541 -0.142972,0.11369 -0.142972,0.30834 0,0.17053 0.09302,0.2601 0.09474,0.0896 0.3514,0.14986 l 0.18259,0.0413 q 0.361735,0.0844 0.527099,0.26528 0.165365,0.18086 0.165365,0.49265 0,0.3669 -0.227377,0.55982 -0.227376,0.19293 -0.661458,0.19293 -0.180867,0 -0.363457,-0.0396 -0.18259,-0.0379 -0.366903,-0.11541 v -0.37035 q 0.198093,0.12575 0.373793,0.18431 0.177422,0.0586 0.356567,0.0586 0.26355,0 0.409967,-0.11713 0.146416,-0.11886 0.146416,-0.33073 0,-0.19293 -0.10163,-0.29456 -0.09991,-0.10163 -0.349677,-0.15675 l -0.186036,-0.0431 q -0.358289,-0.081 -0.520209,-0.2446 -0.161919,-0.16365 -0.161919,-0.43925 0,-0.34451 0.230821,-0.55122 0.232544,-0.20843 0.616672,-0.20843 0.148139,0 0.311781,0.0344 0.163642,0.0327 0.34451,0.0999 z"
         style="font-style:normal;font-variant:normal;font-weight:normal;font-stretch:normal;font-size:3.52777767px;font-family:monospace;-inkscape-font-specification:'monospace, Normal';font-variant-ligatures:normal;font-variant-caps:normal;font-variant-numeric:normal;font-feature-settings:normal;text-align:start;writing-mode:lr-tb;text-anchor:start;fill:#1996fc;fill-opacity:1;stroke-width:0.26458332"
         id="path4645"
         inkscape:connector-curvature="0" />
      <path
         d="m 36.866496,191.73216 h 1.526177 v 0.29283 H 37.21445 v 0.76137 h 1.126547 v 0.29283 H 37.21445 v 0.9319 h 1.210952 v 0.29283 h -1.558906 z"
         style="font-style:normal;font-variant:normal;font-weight:normal;font-stretch:normal;font-size:3.52777767px;font-family:monospace;-inkscape-font-specification:'monospace, Normal';font-variant-ligatures:normal;font-variant-caps:normal;font-variant-numeric:normal;font-feature-settings:normal;text-align:start;writing-mode:lr-tb;text-anchor:start;fill:#1996fc;fill-opacity:1;stroke-width:0.26458332"
         id="path4647"
         inkscape:connector-curvature="0" />
      <path
         d="m 38.730293,191.73216 h 1.961982 v 0.29283 h -0.80443 v 2.27893 h -0.349677 v -2.27893 h -0.807875 z"
         style="font-style:normal;font-variant:normal;font-weight:normal;font-stretch:normal;font-size:3.52777767px;font-family:monospace;-inkscape-font-specification:'monospace, Normal';font-variant-ligatures:normal;font-variant-caps:normal;font-variant-numeric:normal;font-feature-settings:normal;text-align:start;writing-mode:lr-tb;text-anchor:start;fill:#1996fc;fill-opacity:1;stroke-width:0.26458332"
         id="path4649"
         inkscape:connector-curvature="0" />
    </g>
    <g
       aria-label="ROOT"
       style="font-style:normal;font-variant:normal;font-weight:normal;font-stretch:normal;font-size:2.82222223px;line-height:1.25;font-family:monospace;-inkscape-font-specification:'monospace, Normal';font-variant-ligatures:normal;font-variant-caps:normal;font-variant-numeric:normal;font-feature-settings:normal;text-align:start;letter-spacing:0px;word-spacing:0px;writing-mode:lr-tb;text-anchor:start;fill:#1996fc;fill-opacity:1;stroke:none;stroke-width:0.26458332"
       id="text98"
       transform="translate(-24.290292,-3.9817005)">
      <path
         d="m 70.204871,249.04545 q 0.107487,0.0276 0.183279,0.10473 0.07579,0.0758 0.188792,0.30455 l 0.279741,0.56224 h -0.299034 l -0.245291,-0.51952 q -0.106109,-0.22187 -0.191547,-0.28526 -0.08406,-0.0648 -0.220486,-0.0648 h -0.265962 v 0.86954 h -0.279741 v -2.05741 h 0.573264 q 0.338997,0 0.51952,0.15296 0.180523,0.15296 0.180523,0.44235 0,0.20395 -0.111621,0.33348 -0.110243,0.12816 -0.311437,0.1571 z m -0.570508,-0.85714 v 0.73036 h 0.304547 q 0.199815,0 0.297656,-0.0896 0.09784,-0.0896 0.09784,-0.27423 0,-0.17777 -0.104731,-0.27147 -0.103353,-0.0951 -0.30179,-0.0951 z"
         style="font-style:normal;font-variant:normal;font-weight:normal;font-stretch:normal;font-size:2.82222223px;font-family:monospace;-inkscape-font-specification:'monospace, Normal';font-variant-ligatures:normal;font-variant-caps:normal;font-variant-numeric:normal;font-feature-settings:normal;text-align:start;writing-mode:lr-tb;text-anchor:start;fill:#1996fc;fill-opacity:1;stroke-width:0.26458332"
         id="path126"
         inkscape:connector-curvature="0" />
      <path
         d="m 72.10243,248.99033 q 0,-0.45338 -0.09371,-0.64768 -0.09233,-0.1943 -0.304546,-0.1943 -0.21084,0 -0.304547,0.1943 -0.09233,0.1943 -0.09233,0.64768 0,0.452 0.09233,0.6463 0.09371,0.1943 0.304547,0.1943 0.212218,0 0.304546,-0.19292 0.09371,-0.19431 0.09371,-0.64768 z m 0.290766,0 q 0,0.53743 -0.170877,0.80202 -0.169498,0.26458 -0.518142,0.26458 -0.348644,0 -0.518143,-0.2632 -0.169498,-0.26321 -0.169498,-0.8034 0,-0.53881 0.169498,-0.8034 0.170877,-0.26458 0.518143,-0.26458 0.348644,0 0.518142,0.26458 0.170877,0.26459 0.170877,0.8034 z"
         style="font-style:normal;font-variant:normal;font-weight:normal;font-stretch:normal;font-size:2.82222223px;font-family:monospace;-inkscape-font-specification:'monospace, Normal';font-variant-ligatures:normal;font-variant-caps:normal;font-variant-numeric:normal;font-feature-settings:normal;text-align:start;writing-mode:lr-tb;text-anchor:start;fill:#1996fc;fill-opacity:1;stroke-width:0.26458332"
         id="path128"
         inkscape:connector-curvature="0" />
      <path
         d="m 73.800173,248.99033 q 0,-0.45338 -0.09371,-0.64768 -0.09233,-0.1943 -0.304546,-0.1943 -0.21084,0 -0.304547,0.1943 -0.09233,0.1943 -0.09233,0.64768 0,0.452 0.09233,0.6463 0.09371,0.1943 0.304547,0.1943 0.212218,0 0.304546,-0.19292 0.09371,-0.19431 0.09371,-0.64768 z m 0.290766,0 q 0,0.53743 -0.170877,0.80202 -0.169498,0.26458 -0.518142,0.26458 -0.348644,0 -0.518142,-0.2632 -0.169499,-0.26321 -0.169499,-0.8034 0,-0.53881 0.169499,-0.8034 0.170876,-0.26458 0.518142,-0.26458 0.348644,0 0.518142,0.26458 0.170877,0.26459 0.170877,0.8034 z"
         style="font-style:normal;font-variant:normal;font-weight:normal;font-stretch:normal;font-size:2.82222223px;font-family:monospace;-inkscape-font-specification:'monospace, Normal';font-variant-ligatures:normal;font-variant-caps:normal;font-variant-numeric:normal;font-feature-settings:normal;text-align:start;writing-mode:lr-tb;text-anchor:start;fill:#1996fc;fill-opacity:1;stroke-width:0.26458332"
         id="path130"
         inkscape:connector-curvature="0" />
      <path
         d="m 74.315559,247.95956 h 1.569586 v 0.23426 h -0.643544 v 1.82315 h -0.279742 v -1.82315 h -0.6463 z"
         style="font-style:normal;font-variant:normal;font-weight:normal;font-stretch:normal;font-size:2.82222223px;font-family:monospace;-inkscape-font-specification:'monospace, Normal';font-variant-ligatures:normal;font-variant-caps:normal;font-variant-numeric:normal;font-feature-settings:normal;text-align:start;writing-mode:lr-tb;text-anchor:start;fill:#1996fc;fill-opacity:1;stroke-width:0.26458332"
         id="path132"
         inkscape:connector-curvature="0" />
    </g>
    <g
       aria-label="SCALE"
       style="font-style:normal;font-variant:normal;font-weight:normal;font-stretch:normal;font-size:2.82222223px;line-height:1.25;font-family:monospace;-inkscape-font-specification:'monospace, Normal';font-variant-ligatures:normal;font-variant-caps:normal;font-variant-numeric:normal;font-feature-settings:normal;text-align:start;letter-spacing:0px;word-spacing:0px;writing-mode:lr-tb;text-anchor:start;fill:#1996fc;fill-opacity:1;stroke:none;stroke-width:0.26458332"
       id="text102"
       transform="translate(-27.027855,-3.9817205)">
      <path
         d="m 87.847295,248.02984 v 0.28249 q -0.126779,-0.0813 -0.254937,-0.12264 -0.126779,-0.0413 -0.256315,-0.0413 -0.197059,0 -0.311437,0.0923 -0.114377,0.0909 -0.114377,0.24667 0,0.13642 0.07441,0.20808 0.07579,0.0717 0.28112,0.11989 l 0.146072,0.0331 q 0.289388,0.0675 0.42168,0.21222 0.132292,0.14469 0.132292,0.39412 0,0.29352 -0.181901,0.44786 -0.181901,0.15434 -0.529167,0.15434 -0.144694,0 -0.290766,-0.0317 -0.146072,-0.0303 -0.293522,-0.0923 v -0.29628 q 0.158474,0.1006 0.299034,0.14745 0.141938,0.0469 0.285254,0.0469 0.21084,0 0.327973,-0.0937 0.117133,-0.0951 0.117133,-0.26459 0,-0.15434 -0.0813,-0.23564 -0.07993,-0.0813 -0.279742,-0.1254 l -0.148828,-0.0345 q -0.286632,-0.0648 -0.416167,-0.19569 -0.129536,-0.13091 -0.129536,-0.3514 0,-0.2756 0.184657,-0.44097 0.186035,-0.16674 0.493338,-0.16674 0.118511,0 0.249425,0.0276 0.130913,0.0262 0.275607,0.0799 z"
         style="font-style:normal;font-variant:normal;font-weight:normal;font-stretch:normal;font-size:2.82222223px;font-family:monospace;-inkscape-font-specification:'monospace, Normal';font-variant-ligatures:normal;font-variant-caps:normal;font-variant-numeric:normal;font-feature-settings:normal;text-align:start;writing-mode:lr-tb;text-anchor:start;fill:#1996fc;fill-opacity:1;stroke-width:0.26458332"
         id="path115"
         inkscape:connector-curvature="0" />
      <path
         d="m 89.629099,249.94393 q -0.106109,0.0565 -0.21773,0.0841 -0.111621,0.0289 -0.237023,0.0289 -0.395497,0 -0.614605,-0.27974 -0.21773,-0.27974 -0.21773,-0.78686 0,-0.50436 0.219108,-0.78548 0.220486,-0.2825 0.613227,-0.2825 0.125402,0 0.237023,0.0289 0.111621,0.0276 0.21773,0.0841 v 0.28525 q -0.101975,-0.0841 -0.219108,-0.12815 -0.117134,-0.0441 -0.235645,-0.0441 -0.271473,0 -0.406521,0.20946 -0.135048,0.20946 -0.135048,0.63252 0,0.42168 0.135048,0.63114 0.135048,0.20946 0.406521,0.20946 0.121267,0 0.237023,-0.0441 0.117133,-0.0441 0.21773,-0.12816 z"
         style="font-style:normal;font-variant:normal;font-weight:normal;font-stretch:normal;font-size:2.82222223px;font-family:monospace;-inkscape-font-specification:'monospace, Normal';font-variant-ligatures:normal;font-variant-caps:normal;font-variant-numeric:normal;font-feature-settings:normal;text-align:start;writing-mode:lr-tb;text-anchor:start;fill:#1996fc;fill-opacity:1;stroke-width:0.26458332"
         id="path117"
         inkscape:connector-curvature="0" />
      <path
         d="m 90.697078,248.20485 -0.293522,1.05282 H 90.9906 Z m -0.16812,-0.24529 h 0.337619 l 0.629763,2.05741 h -0.28801 l -0.151584,-0.53606 h -0.720714 l -0.148828,0.53606 h -0.28801 z"
         style="font-style:normal;font-variant:normal;font-weight:normal;font-stretch:normal;font-size:2.82222223px;font-family:monospace;-inkscape-font-specification:'monospace, Normal';font-variant-ligatures:normal;font-variant-caps:normal;font-variant-numeric:normal;font-feature-settings:normal;text-align:start;writing-mode:lr-tb;text-anchor:start;fill:#1996fc;fill-opacity:1;stroke-width:0.26458332"
         id="path119"
         inkscape:connector-curvature="0" />
      <path
         d="m 91.842228,247.95956 h 0.279742 v 1.82314 h 0.993565 v 0.23427 h -1.273307 z"
         style="font-style:normal;font-variant:normal;font-weight:normal;font-stretch:normal;font-size:2.82222223px;font-family:monospace;-inkscape-font-specification:'monospace, Normal';font-variant-ligatures:normal;font-variant-caps:normal;font-variant-numeric:normal;font-feature-settings:normal;text-align:start;writing-mode:lr-tb;text-anchor:start;fill:#1996fc;fill-opacity:1;stroke-width:0.26458332"
         id="path121"
         inkscape:connector-curvature="0" />
      <path
         d="m 93.515166,247.95956 h 1.220942 v 0.23426 H 93.79353 v 0.6091 h 0.901237 v 0.23426 H 93.79353 v 0.74552 h 0.968761 v 0.23427 h -1.247125 z"
         style="font-style:normal;font-variant:normal;font-weight:normal;font-stretch:normal;font-size:2.82222223px;font-family:monospace;-inkscape-font-specification:'monospace, Normal';font-variant-ligatures:normal;font-variant-caps:normal;font-variant-numeric:normal;font-feature-settings:normal;text-align:start;writing-mode:lr-tb;text-anchor:start;fill:#1996fc;fill-opacity:1;stroke-width:0.26458332"
         id="path123"
         inkscape:connector-curvature="0" />
    </g>
    <g
       aria-label="RND GATES"
       style="font-style:normal;font-variant:normal;font-weight:normal;font-stretch:normal;font-size:2.34762263px;line-height:1.25;font-family:monospace;-inkscape-font-specification:'monospace, Normal';font-variant-ligatures:normal;font-variant-caps:normal;font-variant-numeric:normal;font-feature-settings:normal;text-align:center;letter-spacing:0px;word-spacing:0px;writing-mode:lr-tb;text-anchor:middle;fill:#1996fc;fill-opacity:1;stroke:none;stroke-width:0.26458335"
       id="text1177"
       transform="translate(0,0.77615952)">
      <path
         d="m 75.114512,244.27816 q 0.08941,0.0229 0.152458,0.0871 0.06305,0.063 0.157043,0.25333 l 0.232699,0.46769 h -0.248747 l -0.204042,-0.43215 q -0.08827,-0.18456 -0.159335,-0.23729 -0.06992,-0.0539 -0.183409,-0.0539 h -0.221235 v 0.72331 h -0.232699 v -1.71142 h 0.47686 q 0.28199,0 0.432156,0.12724 0.150165,0.12724 0.150165,0.36796 0,0.16965 -0.09285,0.2774 -0.0917,0.10661 -0.259064,0.13068 z m -0.474568,-0.713 v 0.60754 h 0.253332 q 0.166213,0 0.247601,-0.0745 0.08139,-0.0745 0.08139,-0.22811 0,-0.14787 -0.08712,-0.22582 -0.08597,-0.0791 -0.25104,-0.0791 z"
         style="stroke-width:0.26458335"
         id="path1253"
         inkscape:connector-curvature="0" />
      <path
         d="m 75.814901,243.37488 h 0.293453 l 0.577735,1.4088 v -1.4088 h 0.223529 v 1.71142 h -0.293453 l -0.577735,-1.4088 v 1.4088 h -0.223529 z"
         style="stroke-width:0.26458335"
         id="path1255"
         inkscape:connector-curvature="0" />
      <path
         d="m 77.567594,244.89602 q 0.292307,0 0.408083,-0.14329 0.115776,-0.14443 0.115776,-0.52042 0,-0.37943 -0.115776,-0.52271 -0.11463,-0.14444 -0.408083,-0.14444 h -0.110045 v 1.33086 z m 0.0046,-1.52114 q 0.392035,0 0.577735,0.20862 0.185701,0.20863 0.185701,0.64881 0,0.43789 -0.185701,0.64651 -0.1857,0.20748 -0.577735,0.20748 H 77.22485 v -1.71142 z"
         style="stroke-width:0.26458335"
         id="path1257"
         inkscape:connector-curvature="0" />
      <path
         d="m 81.157806,244.94531 q -0.09285,0.086 -0.209773,0.13068 -0.115776,0.0436 -0.25104,0.0436 -0.325549,0 -0.506664,-0.2327 -0.181116,-0.23385 -0.181116,-0.65454 0,-0.41955 0.183408,-0.65339 0.183408,-0.23499 0.510104,-0.23499 0.107752,0 0.206334,0.0309 0.09858,0.0298 0.190286,0.0917 v 0.23729 q -0.09285,-0.0883 -0.190286,-0.12954 -0.09744,-0.0424 -0.206334,-0.0424 -0.225821,0 -0.339305,0.17538 -0.112338,0.17424 -0.112338,0.52501 0,0.3565 0.108899,0.52844 0.110045,0.1708 0.337012,0.1708 0.0768,0 0.134117,-0.0172 0.05846,-0.0183 0.10546,-0.0562 v -0.45967 h -0.248747 v -0.19028 h 0.469983 z"
         style="stroke-width:0.26458335"
         id="path1259"
         inkscape:connector-curvature="0" />
      <path
         d="m 82.010653,243.57892 -0.244162,0.87577 h 0.488324 z m -0.139848,-0.20404 h 0.280843 l 0.523859,1.71142 h -0.239576 l -0.126093,-0.44591 h -0.599515 l -0.123801,0.44591 h -0.239576 z"
         style="stroke-width:0.26458335"
         id="path1261"
         inkscape:connector-curvature="0" />
      <path
         d="m 82.77065,243.37488 h 1.305635 v 0.19487 h -0.535322 v 1.51655 h -0.232699 v -1.51655 H 82.77065 Z"
         style="stroke-width:0.26458335"
         id="path1263"
         inkscape:connector-curvature="0" />
      <path
         d="m 84.354836,243.37488 h 1.015622 v 0.19487 h -0.784069 v 0.50666 h 0.74968 v 0.19487 h -0.74968 v 0.62015 h 0.805849 v 0.19487 h -1.037402 z"
         style="stroke-width:0.26458335"
         id="path1265"
         inkscape:connector-curvature="0" />
      <path
         d="m 86.701313,243.43334 v 0.23499 q -0.10546,-0.0676 -0.212065,-0.10202 -0.10546,-0.0344 -0.213212,-0.0344 -0.163921,0 -0.259064,0.0768 -0.09514,0.0757 -0.09514,0.20519 0,0.11348 0.0619,0.17309 0.06305,0.0596 0.233845,0.0997 l 0.121508,0.0275 q 0.240723,0.0562 0.350768,0.17653 0.110045,0.12036 0.110045,0.32784 0,0.24417 -0.151312,0.37255 -0.151311,0.12839 -0.440179,0.12839 -0.120362,0 -0.241869,-0.0264 -0.121508,-0.0252 -0.244162,-0.0768 v -0.24646 q 0.131824,0.0837 0.248747,0.12266 0.118069,0.039 0.237284,0.039 0.175384,0 0.272819,-0.0779 0.09744,-0.0791 0.09744,-0.22008 0,-0.12839 -0.06763,-0.19602 -0.06649,-0.0676 -0.232699,-0.10432 l -0.1238,-0.0286 q -0.238431,-0.0539 -0.346183,-0.16278 -0.107752,-0.1089 -0.107752,-0.2923 0,-0.22926 0.153604,-0.36682 0.154751,-0.1387 0.410376,-0.1387 0.09858,0 0.20748,0.0229 0.108899,0.0218 0.22926,0.0665 z"
         style="stroke-width:0.26458335"
         id="path1267"
         inkscape:connector-curvature="0" />
    </g>
    <g
       aria-label="RND NOTES"
       style="font-style:normal;font-variant:normal;font-weight:normal;font-stretch:normal;font-size:2.34762263px;line-height:1.25;font-family:monospace;-inkscape-font-specification:'monospace, Normal';font-variant-ligatures:normal;font-variant-caps:normal;font-variant-numeric:normal;font-feature-settings:normal;text-align:center;letter-spacing:0px;word-spacing:0px;writing-mode:lr-tb;text-anchor:middle;fill:#1996fc;fill-opacity:1;stroke:none;stroke-width:0.26458335"
       id="text1232"
       transform="translate(0,0.62950452)">
      <path
         d="m 89.902628,244.42489 q 0.08941,0.0229 0.152458,0.0871 0.06305,0.0631 0.157043,0.25333 l 0.232699,0.46769 h -0.248747 l -0.204041,-0.43215 q -0.08827,-0.18456 -0.159336,-0.23729 -0.06992,-0.0539 -0.183408,-0.0539 H 89.42806 v 0.72331 h -0.232699 v -1.71142 h 0.476861 q 0.28199,0 0.432155,0.12724 0.150165,0.12723 0.150165,0.36796 0,0.16965 -0.09285,0.2774 -0.0917,0.10661 -0.259064,0.13068 z m -0.474568,-0.713 v 0.60754 h 0.253332 q 0.166214,0 0.247601,-0.0745 0.08139,-0.0745 0.08139,-0.22811 0,-0.14787 -0.08712,-0.22582 -0.08597,-0.0791 -0.25104,-0.0791 z"
         style="stroke-width:0.26458335"
         id="path1236"
         inkscape:connector-curvature="0" />
      <path
         d="m 90.603018,243.52161 h 0.293452 l 0.577736,1.4088 v -1.4088 h 0.223528 v 1.71142 h -0.293453 l -0.577735,-1.4088 v 1.4088 h -0.223528 z"
         style="stroke-width:0.26458335"
         id="path1238"
         inkscape:connector-curvature="0" />
      <path
         d="m 92.35571,245.04275 q 0.292307,0 0.408083,-0.14329 0.115777,-0.14443 0.115777,-0.52042 0,-0.37943 -0.115777,-0.52271 -0.11463,-0.14444 -0.408083,-0.14444 h -0.110044 v 1.33086 z m 0.0046,-1.52114 q 0.392034,0 0.577735,0.20862 0.185701,0.20863 0.185701,0.64881 0,0.43789 -0.185701,0.64651 -0.185701,0.20748 -0.577735,0.20748 h -0.347329 v -1.71142 z"
         style="stroke-width:0.26458335"
         id="path1240"
         inkscape:connector-curvature="0" />
      <path
         d="m 94.839743,243.52161 h 0.293453 l 0.577735,1.4088 v -1.4088 h 0.223528 v 1.71142 h -0.293453 l -0.577735,-1.4088 v 1.4088 h -0.223528 z"
         style="stroke-width:0.26458335"
         id="path1242"
         inkscape:connector-curvature="0" />
      <path
         d="m 97.130051,244.37904 q 0,-0.37713 -0.07795,-0.53876 -0.0768,-0.16163 -0.253332,-0.16163 -0.175384,0 -0.253333,0.16163 -0.0768,0.16163 -0.0768,0.53876 0,0.37599 0.0768,0.53761 0.07795,0.16163 0.253333,0.16163 0.17653,0 0.253332,-0.16048 0.07795,-0.16163 0.07795,-0.53876 z m 0.241869,0 q 0,0.44706 -0.142141,0.66715 -0.140995,0.22008 -0.431009,0.22008 -0.290014,0 -0.431009,-0.21894 -0.140995,-0.21894 -0.140995,-0.66829 0,-0.4482 0.140995,-0.66829 0.142141,-0.22009 0.431009,-0.22009 0.290014,0 0.431009,0.22009 0.142141,0.22009 0.142141,0.66829 z"
         style="stroke-width:0.26458335"
         id="path1244"
         inkscape:connector-curvature="0" />
      <path
         d="m 97.558766,243.52161 h 1.305636 v 0.19487 H 98.32908 v 1.51655 h -0.232699 v -1.51655 h -0.537615 z"
         style="stroke-width:0.26458335"
         id="path1246"
         inkscape:connector-curvature="0" />
      <path
         d="m 99.142953,243.52161 h 1.015617 v 0.19487 h -0.784064 v 0.50666 h 0.749684 v 0.19487 h -0.749684 v 0.62015 h 0.805844 v 0.19487 h -1.037397 z"
         style="stroke-width:0.26458335"
         id="path1248"
         inkscape:connector-curvature="0" />
      <path
         d="m 101.48943,243.58007 v 0.23499 q -0.10546,-0.0676 -0.21207,-0.10202 -0.10546,-0.0344 -0.21321,-0.0344 -0.16392,0 -0.25906,0.0768 -0.0951,0.0757 -0.0951,0.20519 0,0.11348 0.0619,0.17309 0.063,0.0596 0.23384,0.0997 l 0.12151,0.0275 q 0.24072,0.0562 0.35077,0.17653 0.11004,0.12036 0.11004,0.32784 0,0.24416 -0.15131,0.37255 -0.15131,0.12838 -0.44018,0.12838 -0.12036,0 -0.24187,-0.0264 -0.12151,-0.0252 -0.24416,-0.0768 v -0.24646 q 0.13182,0.0837 0.24875,0.12266 0.11807,0.039 0.23728,0.039 0.17538,0 0.27282,-0.078 0.0974,-0.0791 0.0974,-0.22009 0,-0.12838 -0.0676,-0.19601 -0.0665,-0.0676 -0.2327,-0.10432 l -0.1238,-0.0286 q -0.23843,-0.0539 -0.34618,-0.16278 -0.10775,-0.1089 -0.10775,-0.29231 0,-0.22926 0.1536,-0.36681 0.15475,-0.1387 0.41038,-0.1387 0.0986,0 0.20748,0.0229 0.1089,0.0218 0.22926,0.0665 z"
         style="stroke-width:0.26458335"
         id="path1250"
         inkscape:connector-curvature="0" />
    </g>
    <rect
       y="230.17787"
       x="30.905293"
       height="9.3655672"
       width="9.3655682"
       id="rect909"
       style="fill:#1996fc;fill-opacity:1;stroke:#1996fc;stroke-width:0.15943234;stroke-miterlimit:4;stroke-dasharray:none;stroke-opacity:1" />
    <rect
       style="fill:#1996fc;fill-opacity:1;stroke:#1996fc;stroke-width:0.15943234;stroke-miterlimit:4;stroke-dasharray:none;stroke-opacity:1"
       id="rect911"
       width="9.3655682"
       height="9.3655672"
       x="30.905293"
       y="246.58205" />
  </g>
</svg>
