<?xml version="1.0" encoding="UTF-8" standalone="no"?>
<!-- Generator: Gravit.io -->

<svg
   style="isolation:isolate"
   viewBox="0 0 195 380"
   width="195"
   height="380"
   version="1.1"
   id="svg28"
   sodipodi:docname="NoteSeq16.svg"
   inkscape:version="1.3.2 (091e20e, 2023-11-25)"
   xmlns:inkscape="http://www.inkscape.org/namespaces/inkscape"
   xmlns:sodipodi="http://sodipodi.sourceforge.net/DTD/sodipodi-0.dtd"
   xmlns="http://www.w3.org/2000/svg"
   xmlns:svg="http://www.w3.org/2000/svg"
   xmlns:rdf="http://www.w3.org/1999/02/22-rdf-syntax-ns#"
   xmlns:cc="http://creativecommons.org/ns#"
   xmlns:dc="http://purl.org/dc/elements/1.1/">
  <metadata
     id="metadata32">
    <rdf:RDF>
      <cc:Work
         rdf:about="">
        <dc:format>image/svg+xml</dc:format>
        <dc:type
           rdf:resource="http://purl.org/dc/dcmitype/StillImage" />
        <dc:title />
      </cc:Work>
    </rdf:RDF>
  </metadata>
  <sodipodi:namedview
     pagecolor="#ffffff"
     bordercolor="#666666"
     borderopacity="1"
     objecttolerance="10"
     gridtolerance="10"
     guidetolerance="10"
     inkscape:pageopacity="0"
     inkscape:pageshadow="2"
     inkscape:window-width="1392"
     inkscape:window-height="1212"
     id="namedview30"
     showgrid="false"
     inkscape:zoom="2.2785034"
     inkscape:cx="113.23222"
     inkscape:cy="108.62393"
     inkscape:window-x="1162"
     inkscape:window-y="216"
     inkscape:window-maximized="0"
     inkscape:current-layer="svg28"
     showguides="true"
     inkscape:snap-nodes="true"
     inkscape:snap-grids="false"
     inkscape:snap-global="false"
     inkscape:showpageshadow="2"
     inkscape:pagecheckerboard="0"
     inkscape:deskcolor="#d1d1d1" />
  <defs
     id="defs5">
    <clipPath
       id="_clipPath_0ow2e6EsI2z2JMRNarlGPRVH8APlqVOp">
      <rect
         width="720"
         height="380"
         id="rect2"
         x="0"
         y="0" />
    </clipPath>
  </defs>
  <path
     style="fill:#323232;stroke-width:0.5204165;fill-opacity:1"
     inkscape:connector-curvature="0"
     id="path7"
     d="M 0,0.55 H 195 V 380 H 0 Z" />
  <g
     id="layer1-2"
     transform="translate(-29.575866)">
    <rect
       style="fill:#ffffff"
       id="rect9"
       height="2.2750001"
       width="10.008"
       y="347.13"
       x="39.669998" />
    <rect
       style="fill:#ffffff"
       id="rect11"
       height="0.70499998"
       width="12.49"
       y="347.74399"
       x="38.465" />
    <path
       style="fill:#ffffff"
       inkscape:connector-curvature="0"
       id="path13"
       d="m 36.026,339.784 c 0,-4.456 3.82,-8.074 8.525,-8.074 4.705,0 8.524,3.618 8.524,8.074 0,4.457 -3.819,8.075 -8.524,8.075 -4.705,0 -8.525,-3.618 -8.525,-8.075 z" />
    <rect
       style="fill:#ffffff"
       id="rect15"
       height="5.9190001"
       width="13.125"
       y="348.44901"
       x="37.944" />
    <path
       style="fill:#54b6fc"
       inkscape:connector-curvature="0"
       id="path17"
       d="m 37.635,354.766 c -0.078,-0.145 -0.126,-1.449 -0.126,-3.397 0,-3.615 -0.089,-3.315 1.195,-4.021 0.41,-0.226 0.746,-0.445 0.746,-0.487 0,-0.043 -0.223,-0.232 -0.496,-0.421 -1.414,-0.98 -2.77,-2.995 -3.217,-4.781 -0.277,-1.106 -0.185,-3.288 0.185,-4.37 1.421,-4.161 6.033,-6.679 10.539,-5.752 2.939,0.604 5.272,2.436 6.452,5.068 0.498,1.11 0.666,1.944 0.663,3.292 -0.006,2.424 -1.107,4.678 -3.056,6.259 -0.35,0.284 -0.637,0.559 -0.637,0.611 0,0.053 0.259,0.243 0.576,0.424 1.212,0.69 1.122,0.358 1.122,4.167 0,2.445 -0.039,3.39 -0.145,3.497 -0.11,0.109 -1.811,0.145 -6.911,0.145 -6.564,0 -6.768,-0.008 -6.89,-0.235 z m 6.572,-1.846 c 0.028,-0.991 0.074,-1.255 0.237,-1.357 0.147,-0.092 0.255,-0.083 0.394,0.033 0.152,0.126 0.192,0.413 0.192,1.358 v 1.198 h 2.794 c 2.374,0 2.805,-0.026 2.864,-0.182 0.164,-0.426 -0.116,-0.755 -1.442,-1.701 -1.11,-0.791 -1.365,-1.029 -1.365,-1.274 0,-0.237 0.07,-0.308 0.334,-0.339 l 0.334,-0.038 v -1 c 0,-1.132 0.155,-1.493 0.585,-1.356 0.251,0.079 0.264,0.153 0.266,1.501 0.001,0.779 0.042,1.474 0.091,1.545 0.147,0.211 0.951,0.782 1.101,0.782 0.1,0 0.14,-0.52 0.14,-1.801 0,-2.043 0.062,-1.902 -1.132,-2.569 l -0.708,-0.396 -1.232,0.412 c -1.197,0.399 -1.29,0.411 -3.175,0.411 -1.864,0 -1.983,-0.016 -2.996,-0.377 l -1.054,-0.377 -0.977,0.551 -0.978,0.552 v 1.857 c 0,1.022 0.031,1.858 0.069,1.858 0.038,0 0.311,-0.142 0.607,-0.315 l 0.537,-0.314 0.002,-1.232 c 0.002,-1.579 0.283,-2.203 0.772,-1.714 0.15,0.149 0.196,0.438 0.196,1.211 v 1.014 l 0.4,-0.064 c 0.434,-0.071 0.747,0.159 0.632,0.461 -0.036,0.093 -0.774,0.594 -1.64,1.113 -1.532,0.919 -1.575,0.957 -1.575,1.363 v 0.418 h 2.846 2.847 z m 3.116,-5.993 c 2.504,-0.839 4.541,-2.944 5.165,-5.338 0.195,-0.748 0.251,-2.796 0.084,-3.059 -0.076,-0.119 -0.708,-0.147 -2.742,-0.121 l -2.644,0.033 -0.393,1.092 c -0.345,0.956 -0.429,1.092 -0.681,1.092 -0.266,0 -0.302,-0.082 -0.497,-1.138 -0.321,-1.734 -0.364,-1.707 -0.757,0.481 -0.345,1.92 -0.39,2.052 -0.687,2.052 -0.288,0 -0.273,0.062 -0.814,-3.569 -0.247,-1.663 -0.504,-3.041 -0.571,-3.063 -0.066,-0.023 -0.476,0.656 -0.91,1.507 l -0.788,1.546 -2.27,0.034 -2.269,0.033 -0.082,0.437 c -0.139,0.74 0.028,2.246 0.352,3.178 0.662,1.902 2.011,3.402 3.905,4.338 1.472,0.729 2.322,0.904 4.125,0.851 1.197,-0.037 1.636,-0.104 2.474,-0.385 z m -3.552,-0.476 c -0.689,-0.196 -0.842,-0.318 -0.782,-0.627 0.039,-0.199 0.18,-0.228 1.194,-0.247 0.633,-0.011 1.342,-0.038 1.575,-0.06 0.38,-0.034 0.429,-0.009 0.462,0.278 0.031,0.271 -0.035,0.347 -0.453,0.514 -0.719,0.288 -1.328,0.331 -1.996,0.142 z m -2.259,-2.854 c -0.133,-0.134 -0.242,-0.352 -0.242,-0.485 0,-0.337 0.424,-0.728 0.788,-0.728 0.365,0 0.789,0.391 0.789,0.728 0,0.336 -0.424,0.728 -0.789,0.728 -0.166,0 -0.412,-0.11 -0.546,-0.243 z m 4.732,-0.121 c -0.321,-0.32 -0.306,-0.555 0.055,-0.916 0.335,-0.335 0.453,-0.357 0.832,-0.158 0.333,0.175 0.443,0.338 0.445,0.661 0.004,0.597 -0.876,0.869 -1.332,0.413 z m -1.584,-5.884 c 0.408,-2.456 0.791,-2.52 1.203,-0.199 0.135,0.757 0.272,1.404 0.304,1.437 0.114,0.114 0.293,-0.084 0.376,-0.417 0.161,-0.642 0.148,-0.639 2.995,-0.639 3.011,0 2.953,0.022 2.539,-0.915 -0.902,-2.038 -2.972,-3.73 -5.348,-4.37 -1.064,-0.287 -3.184,-0.295 -4.246,-0.016 -2.562,0.673 -4.724,2.532 -5.587,4.805 l -0.237,0.623 2.032,-0.033 2.033,-0.034 0.97,-1.904 c 0.534,-1.048 1.04,-1.974 1.123,-2.057 0.337,-0.337 0.501,0.172 0.885,2.747 0.209,1.4 0.408,2.592 0.443,2.649 0.141,0.229 0.265,-0.174 0.515,-1.677 z" />
    <path
       style="fill:#a0a0a0"
       inkscape:connector-curvature="0"
       id="path19"
       d="m 37.635,354.766 c -0.078,-0.145 -0.126,-1.449 -0.126,-3.397 0,-3.615 -0.089,-3.315 1.195,-4.021 0.41,-0.226 0.746,-0.445 0.746,-0.487 0,-0.043 -0.223,-0.232 -0.496,-0.421 -1.414,-0.98 -2.77,-2.995 -3.217,-4.781 -0.277,-1.106 -0.185,-3.288 0.185,-4.37 1.421,-4.161 6.033,-6.679 10.539,-5.752 2.939,0.604 5.272,2.436 6.452,5.068 0.498,1.11 0.666,1.944 0.663,3.292 -0.006,2.424 -1.107,4.678 -3.056,6.259 -0.35,0.284 -0.637,0.559 -0.637,0.611 0,0.053 0.259,0.243 0.576,0.424 1.212,0.69 1.122,0.358 1.122,4.167 0,2.445 -0.039,3.39 -0.145,3.497 -0.11,0.109 -1.811,0.145 -6.911,0.145 -6.564,0 -6.768,-0.008 -6.89,-0.235 z m 6.572,-1.846 c 0.028,-0.991 0.074,-1.255 0.237,-1.357 0.147,-0.092 0.255,-0.083 0.394,0.033 0.152,0.126 0.192,0.413 0.192,1.358 v 1.198 h 2.794 c 2.374,0 2.805,-0.026 2.864,-0.182 0.164,-0.426 -0.116,-0.755 -1.442,-1.701 -1.11,-0.791 -1.365,-1.029 -1.365,-1.274 0,-0.237 0.07,-0.308 0.334,-0.339 l 0.334,-0.038 v -1 c 0,-1.132 0.155,-1.493 0.585,-1.356 0.251,0.079 0.264,0.153 0.266,1.501 0.001,0.779 0.042,1.474 0.091,1.545 0.147,0.211 0.951,0.782 1.101,0.782 0.1,0 0.14,-0.52 0.14,-1.801 0,-2.043 0.062,-1.902 -1.132,-2.569 l -0.708,-0.396 -1.232,0.412 c -1.197,0.399 -1.29,0.411 -3.175,0.411 -1.864,0 -1.983,-0.016 -2.996,-0.377 l -1.054,-0.377 -0.977,0.551 -0.978,0.552 v 1.857 c 0,1.022 0.031,1.858 0.069,1.858 0.038,0 0.311,-0.142 0.607,-0.315 l 0.537,-0.314 0.002,-1.232 c 0.002,-1.579 0.283,-2.203 0.772,-1.714 0.15,0.149 0.196,0.438 0.196,1.211 v 1.014 l 0.4,-0.064 c 0.434,-0.071 0.747,0.159 0.632,0.461 -0.036,0.093 -0.774,0.594 -1.64,1.113 -1.532,0.919 -1.575,0.957 -1.575,1.363 v 0.418 h 2.846 2.847 z m 3.116,-5.993 c 1.931,-0.647 3.633,-2.064 4.532,-3.775 0.59,-1.123 0.818,-2.049 0.816,-3.311 -0.002,-1.743 0.283,-1.582 -2.795,-1.582 -1.985,0 -2.672,0.038 -2.746,0.152 -0.054,0.083 -0.263,0.588 -0.465,1.121 -0.526,1.39 -0.684,1.347 -0.974,-0.267 -0.343,-1.905 -0.509,-1.805 -0.928,0.562 -0.325,1.834 -0.466,2.241 -0.692,2.005 -0.061,-0.063 -0.309,-1.48 -0.55,-3.148 -0.52,-3.598 -0.516,-3.579 -0.709,-3.579 -0.083,0 -0.519,0.737 -0.967,1.638 l -0.817,1.638 h -2.237 -2.237 l -0.085,0.562 c -0.322,2.147 0.665,4.715 2.423,6.308 0.871,0.788 2.571,1.671 3.712,1.926 1.285,0.288 3.456,0.173 4.719,-0.25 z m -3.552,-0.476 c -0.689,-0.196 -0.842,-0.318 -0.782,-0.627 0.039,-0.199 0.18,-0.228 1.194,-0.247 0.633,-0.011 1.342,-0.038 1.575,-0.06 0.38,-0.034 0.429,-0.009 0.462,0.278 0.031,0.271 -0.035,0.347 -0.453,0.514 -0.719,0.288 -1.328,0.331 -1.996,0.142 z m -2.259,-2.854 c -0.133,-0.134 -0.242,-0.352 -0.242,-0.485 0,-0.337 0.424,-0.728 0.788,-0.728 0.365,0 0.789,0.391 0.789,0.728 0,0.336 -0.424,0.728 -0.789,0.728 -0.166,0 -0.412,-0.11 -0.546,-0.243 z m 4.732,-0.121 c -0.321,-0.32 -0.306,-0.555 0.055,-0.916 0.335,-0.335 0.453,-0.357 0.832,-0.158 0.333,0.175 0.443,0.338 0.445,0.661 0.004,0.597 -0.876,0.869 -1.332,0.413 z m -1.51,-5.643 c 0.291,-1.664 0.459,-2.135 0.68,-1.904 0.045,0.047 0.209,0.796 0.365,1.663 0.32,1.786 0.472,1.954 0.851,0.94 l 0.237,-0.637 h 2.714 c 1.493,0 2.741,-0.043 2.773,-0.096 0.111,-0.178 -0.491,-1.456 -1.064,-2.258 -1.001,-1.404 -2.726,-2.557 -4.561,-3.052 -1.064,-0.287 -3.184,-0.295 -4.246,-0.016 -1.492,0.392 -2.75,1.113 -3.833,2.196 -0.931,0.932 -1.649,2.075 -1.93,3.075 l -0.076,0.273 1.979,-10e-4 c 1.089,-0.001 2.041,-0.042 2.116,-0.091 0.076,-0.049 0.581,-0.977 1.123,-2.061 0.925,-1.849 1.116,-2.128 1.279,-1.865 0.036,0.059 0.234,1.273 0.439,2.699 0.383,2.657 0.526,3.263 0.724,3.065 0.062,-0.062 0.255,-0.929 0.429,-1.929 z" />
    <path
       style="fill:#179cfd"
       inkscape:connector-curvature="0"
       id="path21"
       d="m 37.695,354.688 c -0.128,-0.335 -0.083,-6.237 0.05,-6.485 0.067,-0.127 0.504,-0.453 0.97,-0.725 0.466,-0.272 0.847,-0.545 0.847,-0.607 0,-0.062 -0.31,-0.346 -0.689,-0.632 -1.386,-1.044 -2.563,-2.825 -3.002,-4.54 -0.243,-0.947 -0.246,-2.806 -0.007,-3.748 0.1,-0.398 0.41,-1.187 0.687,-1.754 0.404,-0.824 0.714,-1.24 1.546,-2.073 0.864,-0.864 1.237,-1.137 2.194,-1.607 1.659,-0.815 2.42,-0.989 4.306,-0.982 1.109,0.003 1.804,0.068 2.345,0.216 4.402,1.211 7.145,5.247 6.401,9.42 -0.341,1.915 -1.707,4.103 -3.215,5.147 -0.273,0.189 -0.497,0.389 -0.497,0.444 0,0.055 0.382,0.322 0.848,0.595 0.541,0.316 0.872,0.592 0.914,0.763 0.036,0.148 0.05,1.715 0.031,3.483 l -0.034,3.215 -6.81,0.03 c -6.132,0.029 -6.818,0.011 -6.885,-0.161 z m 6.598,-1.75 c 0.056,-1.173 0.08,-1.274 0.304,-1.274 0.223,0 0.247,0.101 0.303,1.274 l 0.061,1.274 h 2.909 c 2.723,0 2.913,-0.016 2.953,-0.222 0.102,-0.53 -0.121,-0.801 -1.429,-1.737 -0.732,-0.524 -1.361,-1.026 -1.397,-1.115 -0.098,-0.244 0.036,-0.384 0.367,-0.384 0.292,0 0.297,-0.015 0.297,-1.077 0,-0.794 0.046,-1.115 0.176,-1.223 0.341,-0.283 0.43,-0.008 0.43,1.327 0,0.725 0.033,1.403 0.073,1.508 0.104,0.272 1.232,1.075 1.38,0.983 0.189,-0.116 0.163,-3.727 -0.027,-3.966 -0.084,-0.105 -0.504,-0.392 -0.934,-0.64 -0.878,-0.505 -0.915,-0.505 -2.312,0.016 -0.853,0.316 -1.03,0.338 -2.85,0.341 -1.881,0.003 -1.976,-0.008 -3.068,-0.39 l -1.126,-0.393 -0.973,0.565 c -0.535,0.311 -1.024,0.662 -1.087,0.78 -0.064,0.118 -0.115,0.984 -0.115,1.925 0,1.372 0.034,1.723 0.174,1.776 0.216,0.083 1.245,-0.507 1.406,-0.807 0.065,-0.122 0.118,-0.795 0.118,-1.496 0,-1.318 0.124,-1.66 0.443,-1.224 0.106,0.145 0.164,0.578 0.164,1.233 v 1.01 l 0.496,-0.079 c 0.469,-0.075 0.493,-0.064 0.455,0.205 -0.032,0.221 -0.387,0.489 -1.58,1.191 -1.576,0.927 -1.792,1.158 -1.612,1.725 0.072,0.225 0.2,0.233 3.008,0.202 l 2.933,-0.033 z m 2.972,-5.863 c 2.435,-0.797 4.358,-2.617 5.174,-4.895 0.264,-0.738 0.451,-3.001 0.298,-3.609 l -0.078,-0.312 h -2.72 c -2.043,0 -2.744,0.038 -2.818,0.152 -0.054,0.083 -0.263,0.588 -0.465,1.121 -0.526,1.39 -0.684,1.347 -0.975,-0.267 -0.343,-1.905 -0.508,-1.805 -0.928,0.562 -0.325,1.834 -0.465,2.241 -0.692,2.005 -0.061,-0.063 -0.308,-1.48 -0.549,-3.148 -0.52,-3.598 -0.516,-3.579 -0.709,-3.579 -0.083,0 -0.519,0.737 -0.968,1.638 l -0.816,1.638 h -2.241 c -2.616,0 -2.491,-0.069 -2.491,1.367 0,1.107 0.351,2.527 0.87,3.523 0.584,1.12 2.215,2.696 3.385,3.271 1.509,0.742 2.468,0.945 4.237,0.894 1.228,-0.033 1.7,-0.103 2.486,-0.361 z m -3.336,-0.707 c -0.658,-0.148 -0.968,-0.396 -0.756,-0.608 0.105,-0.105 0.319,-0.111 0.805,-0.022 0.491,0.089 0.825,0.079 1.289,-0.04 0.663,-0.169 0.846,-0.136 0.846,0.157 0,0.397 -1.318,0.707 -2.184,0.513 z m -2.346,-2.872 c -0.261,-0.288 -0.255,-0.541 0.021,-0.79 0.32,-0.29 0.712,-0.247 0.942,0.102 0.184,0.281 0.184,0.326 0,0.607 -0.237,0.36 -0.677,0.397 -0.963,0.081 z m 4.706,-0.194 c -0.373,-0.57 0.273,-1.129 0.861,-0.744 0.34,0.223 0.384,0.571 0.107,0.848 -0.286,0.286 -0.745,0.237 -0.968,-0.104 z m -1.565,-5.469 c 0.291,-1.664 0.46,-2.135 0.681,-1.904 0.045,0.047 0.209,0.796 0.364,1.663 0.321,1.785 0.473,1.954 0.85,0.942 l 0.237,-0.634 2.752,-0.034 c 3.237,-0.038 3.138,0.023 2.372,-1.455 -0.591,-1.139 -1.975,-2.548 -3.136,-3.194 -4.176,-2.321 -9.584,-0.849 -11.679,3.18 -0.283,0.544 -0.514,1.13 -0.514,1.304 v 0.315 l 1.971,-0.002 c 1.084,0 2.033,-0.042 2.108,-0.091 0.075,-0.049 0.581,-0.976 1.123,-2.06 0.925,-1.85 1.116,-2.128 1.279,-1.865 0.036,0.058 0.233,1.273 0.439,2.699 0.383,2.656 0.526,3.263 0.724,3.064 0.061,-0.061 0.254,-0.929 0.429,-1.928 z" />
    <path
       style="fill:#050505"
       inkscape:connector-curvature="0"
       id="path23"
       d="m 37.695,354.688 c -0.128,-0.335 -0.083,-6.237 0.05,-6.485 0.067,-0.127 0.504,-0.453 0.97,-0.725 0.466,-0.272 0.847,-0.545 0.847,-0.607 0,-0.062 -0.31,-0.346 -0.689,-0.632 -1.386,-1.044 -2.563,-2.825 -3.002,-4.54 -0.243,-0.947 -0.246,-2.806 -0.007,-3.748 0.1,-0.398 0.41,-1.187 0.687,-1.754 0.404,-0.824 0.714,-1.24 1.546,-2.073 0.864,-0.864 1.237,-1.137 2.194,-1.607 1.659,-0.815 2.42,-0.989 4.306,-0.982 1.109,0.003 1.804,0.068 2.345,0.216 4.402,1.211 7.145,5.247 6.401,9.42 -0.341,1.915 -1.707,4.103 -3.215,5.147 -0.273,0.189 -0.497,0.389 -0.497,0.444 0,0.055 0.382,0.322 0.848,0.595 0.541,0.316 0.872,0.592 0.914,0.763 0.036,0.148 0.05,1.715 0.031,3.483 l -0.034,3.215 -6.81,0.03 c -6.132,0.029 -6.818,0.011 -6.885,-0.161 z m 6.598,-1.75 c 0.056,-1.173 0.08,-1.274 0.304,-1.274 0.223,0 0.247,0.101 0.303,1.274 l 0.061,1.274 h 2.909 c 2.723,0 2.913,-0.016 2.953,-0.222 0.102,-0.53 -0.121,-0.801 -1.429,-1.737 -0.732,-0.524 -1.361,-1.026 -1.397,-1.115 -0.098,-0.244 0.036,-0.384 0.367,-0.384 0.292,0 0.297,-0.015 0.297,-1.077 0,-0.794 0.046,-1.115 0.176,-1.223 0.341,-0.283 0.43,-0.008 0.43,1.327 0,0.725 0.033,1.403 0.073,1.508 0.104,0.272 1.232,1.075 1.38,0.983 0.189,-0.116 0.163,-3.727 -0.027,-3.966 -0.084,-0.105 -0.504,-0.392 -0.934,-0.64 -0.878,-0.505 -0.915,-0.505 -2.312,0.016 -0.853,0.316 -1.03,0.338 -2.85,0.341 -1.881,0.003 -1.976,-0.008 -3.068,-0.39 l -1.126,-0.393 -0.973,0.565 c -0.535,0.311 -1.024,0.662 -1.087,0.78 -0.064,0.118 -0.115,0.984 -0.115,1.925 0,1.372 0.034,1.723 0.174,1.776 0.216,0.083 1.245,-0.507 1.406,-0.807 0.065,-0.122 0.118,-0.795 0.118,-1.496 0,-1.318 0.124,-1.66 0.443,-1.224 0.106,0.145 0.164,0.578 0.164,1.233 v 1.01 l 0.496,-0.079 c 0.469,-0.075 0.493,-0.064 0.455,0.205 -0.032,0.221 -0.387,0.489 -1.58,1.191 -1.576,0.927 -1.792,1.158 -1.612,1.725 0.072,0.225 0.2,0.233 3.008,0.202 l 2.933,-0.033 z m 2.972,-5.863 c 2.474,-0.81 4.446,-2.715 5.234,-5.055 0.293,-0.871 0.305,-3.256 0.021,-4.264 -0.49,-1.744 -1.999,-3.606 -3.676,-4.538 -3.408,-1.894 -7.698,-1.319 -10.374,1.391 -2.247,2.277 -2.789,5.66 -1.368,8.533 0.611,1.235 2.169,2.775 3.44,3.4 1.51,0.742 2.468,0.944 4.237,0.894 1.228,-0.033 1.701,-0.104 2.486,-0.361 z m -3.336,-0.707 c -0.658,-0.148 -0.968,-0.396 -0.756,-0.608 0.105,-0.105 0.319,-0.111 0.805,-0.022 0.491,0.089 0.825,0.079 1.289,-0.04 0.663,-0.169 0.846,-0.136 0.846,0.157 0,0.397 -1.318,0.707 -2.184,0.513 z m -2.346,-2.872 c -0.261,-0.288 -0.255,-0.541 0.021,-0.79 0.32,-0.29 0.712,-0.247 0.942,0.102 0.184,0.281 0.184,0.326 0,0.607 -0.237,0.36 -0.677,0.397 -0.963,0.081 z m 4.706,-0.194 c -0.373,-0.57 0.273,-1.129 0.861,-0.744 0.34,0.223 0.384,0.571 0.107,0.848 -0.286,0.286 -0.745,0.237 -0.968,-0.104 z" />
  </g>
  <g
     aria-label="MODE"
     style="font-style:normal;font-variant:normal;font-weight:normal;font-stretch:normal;font-size:9.33333302px;line-height:1.25;font-family:monospace;-inkscape-font-specification:'monospace, Normal';font-variant-ligatures:normal;font-variant-caps:normal;font-variant-numeric:normal;font-feature-settings:normal;text-align:center;letter-spacing:0px;word-spacing:0px;writing-mode:lr-tb;text-anchor:middle;fill:#ffffff;fill-opacity:1;stroke:none"
     id="text841"
     transform="translate(35.111111,-2.5555586)">
    <path
       d="m 125.71832,27.357181 h 1.23047 l 1.17578,3.463541 1.18489,-3.463541 h 1.23503 v 6.804036 h -0.85221 v -6.011068 l -1.21224,3.586589 h -0.69727 l -1.2168,-3.586589 v 6.011068 h -0.84765 z"
       id="path1228"
       inkscape:connector-curvature="0"
       style="fill:#ffffff;fill-opacity:1" />
    <path
       d="m 135.06532,30.766035 q 0,-1.499349 -0.30989,-2.141927 -0.30534,-0.642579 -1.00716,-0.642579 -0.69727,0 -1.00717,0.642579 -0.30533,0.642578 -0.30533,2.141927 0,1.494791 0.30533,2.137369 0.3099,0.642578 1.00717,0.642578 0.70182,0 1.00716,-0.63802 0.30989,-0.642579 0.30989,-2.141927 z m 0.96159,0 q 0,1.777343 -0.5651,2.652343 -0.56055,0.875 -1.71354,0.875 -1.153,0 -1.71355,-0.870442 -0.56054,-0.870443 -0.56054,-2.656901 0,-1.781901 0.56054,-2.656901 0.56511,-0.875 1.71355,-0.875 1.15299,0 1.71354,0.875 0.5651,0.875 0.5651,2.656901 z"
       id="path1230"
       inkscape:connector-curvature="0"
       style="fill:#ffffff;fill-opacity:1" />
    <path
       d="m 138.54254,33.404706 q 1.16211,0 1.62239,-0.569661 0.46029,-0.574219 0.46029,-2.06901 0,-1.508464 -0.46029,-2.078125 -0.45573,-0.574219 -1.62239,-0.574219 h -0.4375 v 5.291015 z m 0.0182,-6.047525 q 1.55859,0 2.29687,0.829427 0.73828,0.829427 0.73828,2.579427 0,1.740885 -0.73828,2.570312 -0.73828,0.82487 -2.29687,0.82487 h -1.38086 v -6.804036 z"
       id="path1232"
       inkscape:connector-curvature="0"
       style="fill:#ffffff;fill-opacity:1" />
    <path
       d="m 143.06793,27.357181 h 4.03776 v 0.774739 h -3.11719 v 2.014323 h 2.98047 v 0.774739 h -2.98047 v 2.465495 h 3.20378 v 0.77474 h -4.12435 z"
       id="path1234"
       inkscape:connector-curvature="0"
       style="fill:#ffffff;fill-opacity:1" />
  </g>
  <g
     aria-label="SCALE"
     style="font-style:normal;font-variant:normal;font-weight:normal;font-stretch:normal;font-size:9.33333px;line-height:1.25;font-family:monospace;-inkscape-font-specification:'monospace, Normal';font-variant-ligatures:normal;font-variant-caps:normal;font-variant-numeric:normal;font-feature-settings:normal;text-align:center;letter-spacing:0px;word-spacing:0px;writing-mode:lr-tb;text-anchor:middle;fill:#ffffff;fill-opacity:1;stroke:none"
     id="text941"
     transform="translate(-440,-29.224778)">
    <path
       d="m 602.68453,303.98396 v 0.93424 q -0.41927,-0.26888 -0.8431,-0.4056 -0.41927,-0.13671 -0.84766,-0.13671 -0.65169,0 -1.02994,0.30533 -0.37826,0.30078 -0.37826,0.81576 0,0.45117 0.2461,0.68815 0.25065,0.23698 0.92968,0.39648 l 0.48308,0.10938 q 0.95703,0.22331 1.39453,0.70182 0.4375,0.47852 0.4375,1.30339 0,0.9707 -0.60157,1.48112 -0.60156,0.51041 -1.75,0.51041 -0.47851,0 -0.96158,-0.10481 -0.48308,-0.10026 -0.97071,-0.30534 v -0.97982 q 0.52409,0.33268 0.98894,0.48763 0.4694,0.15495 0.94335,0.15495 0.69727,0 1.08464,-0.3099 0.38737,-0.31445 0.38737,-0.875 0,-0.51041 -0.26888,-0.77929 -0.26432,-0.26888 -0.92513,-0.41472 l -0.49219,-0.11393 q -0.94791,-0.21419 -1.3763,-0.64714 -0.42839,-0.43294 -0.42839,-1.16211 0,-0.91145 0.61068,-1.45833 0.61524,-0.55143 1.63151,-0.55143 0.39193,0 0.82487,0.0912 0.43294,0.0866 0.91146,0.26432 z"
       id="path971"
       inkscape:connector-curvature="0"
       style="fill:#ffffff;fill-opacity:1" />
    <path
       d="m 608.57711,310.31404 q -0.35091,0.18685 -0.72005,0.27799 -0.36914,0.0957 -0.78386,0.0957 -1.30794,0 -2.03255,-0.92513 -0.72005,-0.92513 -0.72005,-2.60221 0,-1.66797 0.72461,-2.59766 0.72916,-0.93424 2.02799,-0.93424 0.41472,0 0.78386,0.0957 0.36914,0.0911 0.72005,0.278 v 0.94336 q -0.33724,-0.278 -0.72461,-0.42383 -0.38737,-0.14583 -0.7793,-0.14583 -0.89778,0 -1.3444,0.6927 -0.44661,0.69271 -0.44661,2.0918 0,1.39453 0.44661,2.08724 0.44662,0.69271 1.3444,0.69271 0.40104,0 0.78386,-0.14584 0.38737,-0.14583 0.72005,-0.42382 z"
       id="path973"
       inkscape:connector-curvature="0"
       style="fill:#ffffff;fill-opacity:1" />
    <path
       d="m 612.10901,304.56273 -0.9707,3.48177 h 1.9414 z m -0.55599,-0.81119 h 1.11654 l 2.08268,6.80403 h -0.95248 l -0.5013,-1.77278 H 610.915 l -0.49219,1.77278 h -0.95247 z"
       id="path975"
       inkscape:connector-curvature="0"
       style="fill:#ffffff;fill-opacity:1" />
    <path
       d="m 615.89612,303.75154 h 0.92513 v 6.02929 h 3.28581 v 0.77474 h -4.21094 z"
       id="path977"
       inkscape:connector-curvature="0"
       style="fill:#ffffff;fill-opacity:1" />
    <path
       d="m 621.42867,303.75154 h 4.03776 v 0.77474 h -3.11719 v 2.01432 h 2.98047 v 0.77474 h -2.98047 v 2.46549 h 3.20378 v 0.77474 h -4.12435 z"
       id="path979"
       inkscape:connector-curvature="0"
       style="fill:#ffffff;fill-opacity:1" />
  </g>
  <g
     aria-label="NOTE"
     style="font-style:normal;font-variant:normal;font-weight:normal;font-stretch:normal;font-size:9.33333px;line-height:1.25;font-family:monospace;-inkscape-font-specification:'monospace, Normal';font-variant-ligatures:normal;font-variant-caps:normal;font-variant-numeric:normal;font-feature-settings:normal;text-align:center;letter-spacing:0px;word-spacing:0px;writing-mode:lr-tb;text-anchor:middle;fill:#ffffff;fill-opacity:1;stroke:none"
     id="text945"
     transform="translate(-546.05859,-29.224778)">
    <path
       d="m 644.30725,303.75154 h 1.16667 l 2.29687,5.60091 v -5.60091 h 0.88867 v 6.80403 h -1.16666 l -2.29688,-5.60091 v 5.60091 h -0.88867 z"
       id="path962"
       inkscape:connector-curvature="0"
       style="fill:#ffffff;fill-opacity:1" />
    <path
       d="m 653.41272,307.16039 q 0,-1.49935 -0.3099,-2.14193 -0.30533,-0.64257 -1.00716,-0.64257 -0.69726,0 -1.00716,0.64257 -0.30534,0.64258 -0.30534,2.14193 0,1.49479 0.30534,2.13737 0.3099,0.64258 1.00716,0.64258 0.70183,0 1.00716,-0.63802 0.3099,-0.64258 0.3099,-2.14193 z m 0.96159,0 q 0,1.77734 -0.56511,2.65234 -0.56054,0.875 -1.71354,0.875 -1.15299,0 -1.71354,-0.87044 -0.56055,-0.87044 -0.56055,-2.6569 0,-1.7819 0.56055,-2.6569 0.5651,-0.875 1.71354,-0.875 1.153,0 1.71354,0.875 0.56511,0.875 0.56511,2.6569 z"
       id="path964"
       inkscape:connector-curvature="0"
       style="fill:#ffffff;fill-opacity:1" />
    <path
       d="m 655.11715,303.75154 h 5.19075 v 0.77474 h -2.12825 v 6.02929 h -0.92513 v -6.02929 h -2.13737 z"
       id="path966"
       inkscape:connector-curvature="0"
       style="fill:#ffffff;fill-opacity:1" />
    <path
       d="m 661.41532,303.75154 h 4.03776 v 0.77474 h -3.11718 v 2.01432 h 2.98047 v 0.77474 h -2.98047 v 2.46549 h 3.20377 v 0.77474 h -4.12435 z"
       id="path968"
       inkscape:connector-curvature="0"
       style="fill:#ffffff;fill-opacity:1" />
  </g>
  <g
     aria-label="OCT"
     style="font-style:normal;font-variant:normal;font-weight:normal;font-stretch:normal;font-size:9.33333px;line-height:1.25;font-family:monospace;-inkscape-font-specification:'monospace, Normal';font-variant-ligatures:normal;font-variant-caps:normal;font-variant-numeric:normal;font-feature-settings:normal;text-align:center;letter-spacing:0px;word-spacing:0px;writing-mode:lr-tb;text-anchor:middle;fill:#ffffff;fill-opacity:1;stroke:none"
     id="text949"
     transform="matrix(1.0000056,0,0,1,-557.22398,-29.224778)">
    <path
       d="m 693.25802,307.16039 q 0,-1.49935 -0.3099,-2.14193 -0.30534,-0.64257 -1.00716,-0.64257 -0.69727,0 -1.00716,0.64257 -0.30534,0.64258 -0.30534,2.14193 0,1.49479 0.30534,2.13737 0.30989,0.64258 1.00716,0.64258 0.70182,0 1.00716,-0.63802 0.3099,-0.64258 0.3099,-2.14193 z m 0.96158,0 q 0,1.77734 -0.5651,2.65234 -0.56055,0.875 -1.71354,0.875 -1.153,0 -1.71354,-0.87044 -0.56055,-0.87044 -0.56055,-2.6569 0,-1.7819 0.56055,-2.6569 0.5651,-0.875 1.71354,-0.875 1.15299,0 1.71354,0.875 0.5651,0.875 0.5651,2.6569 z"
       id="path955"
       inkscape:connector-curvature="0"
       style="fill:#ffffff;fill-opacity:1" />
    <path
       d="m 699.63822,310.31404 q -0.35091,0.18685 -0.72005,0.27799 -0.36914,0.0957 -0.78385,0.0957 -1.30794,0 -2.03255,-0.92513 -0.72006,-0.92513 -0.72006,-2.60221 0,-1.66797 0.72461,-2.59766 0.72917,-0.93424 2.028,-0.93424 0.41471,0 0.78385,0.0957 0.36914,0.0911 0.72005,0.278 v 0.94336 q -0.33724,-0.278 -0.72461,-0.42383 -0.38737,-0.14583 -0.77929,-0.14583 -0.89779,0 -1.3444,0.6927 -0.44662,0.69271 -0.44662,2.0918 0,1.39453 0.44662,2.08724 0.44661,0.69271 1.3444,0.69271 0.40104,0 0.78385,-0.14584 0.38737,-0.14583 0.72005,-0.42382 z"
       id="path957"
       inkscape:connector-curvature="0"
       style="fill:#ffffff;fill-opacity:1" />
    <path
       d="m 700.57703,303.75154 h 5.19075 v 0.77474 h -2.12825 v 6.02929 h -0.92513 v -6.02929 h -2.13737 z"
       id="path959"
       inkscape:connector-curvature="0"
       style="fill:#ffffff;fill-opacity:1" />
  </g>
  <g
     inkscape:groupmode="layer"
     id="layer1"
     inkscape:label="widgets"
     style="display:none">
    <rect
       style="fill:#00ff00;fill-opacity:1;stroke:none;stroke-width:2.09074736;stroke-miterlimit:4;stroke-dasharray:none;stroke-opacity:1"
       id="CLOCK"
       width="32"
       height="32"
       x="17.013702"
       y="40.085506"
       inkscape:label="#rect1279" />
    <rect
       style="fill:#00ff00;fill-opacity:1;stroke:none;stroke-width:0.98003787;stroke-miterlimit:4;stroke-dasharray:none;stroke-opacity:1"
       id="ROT_RIGHT"
       width="15"
       height="15"
       x="61.344215"
       y="176.88031"
       inkscape:label="#rect1305" />
    <rect
       y="54.189999"
       x="559.08063"
       height="15"
       width="15"
       id="VOCT_1"
       style="fill:#0000ff;fill-opacity:1;stroke:none;stroke-width:0.98003799;stroke-miterlimit:4;stroke-dasharray:none;stroke-opacity:1"
       inkscape:label="#rect1317" />
    <rect
       style="isolation:isolate;fill:#000000;fill-opacity:1;stroke:none;stroke-width:1.88735402;stroke-miterlimit:4;stroke-dasharray:none;stroke-opacity:1"
       id="rect823"
       width="376"
       height="492.22223"
       x="172"
       y="-40" />
    <g
       aria-label="TODO  REMOVE"
       style="font-style:normal;font-variant:normal;font-weight:normal;font-stretch:normal;font-size:40px;line-height:1.25;font-family:monospace;-inkscape-font-specification:'monospace, Normal';font-variant-ligatures:normal;font-variant-caps:normal;font-variant-numeric:normal;font-feature-settings:normal;text-align:center;letter-spacing:0px;word-spacing:0px;writing-mode:lr-tb;text-anchor:middle;isolation:isolate;fill:#ff0000;fill-opacity:1;stroke:none"
       id="text827">
      <path
         d="m 315.0152,159.72873 h 22.24609 v 3.32031 h -9.12109 v 25.83985 h -3.96485 v -25.83985 h -9.16015 z"
         id="path1257"
         inkscape:connector-curvature="0" />
      <path
         d="m 355.83551,174.3381 q 0,-6.42578 -1.32812,-9.17968 -1.3086,-2.75391 -4.31641,-2.75391 -2.98828,0 -4.31641,2.75391 -1.30859,2.7539 -1.30859,9.17968 0,6.40625 1.30859,9.16016 1.32813,2.75391 4.31641,2.75391 3.00781,0 4.31641,-2.73438 1.32812,-2.7539 1.32812,-9.17969 z m 4.12109,0 q 0,7.61719 -2.42187,11.36719 -2.40234,3.75 -7.34375,3.75 -4.94141,0 -7.34375,-3.73047 -2.40234,-3.73047 -2.40234,-11.38672 0,-7.63671 2.40234,-11.38671 2.42187,-3.75 7.34375,-3.75 4.94141,0 7.34375,3.75 2.42187,3.75 2.42187,11.38671 z"
         id="path1259"
         inkscape:connector-curvature="0" />
      <path
         d="m 370.73785,185.6467 q 4.98047,0 6.95313,-2.44141 1.97266,-2.46094 1.97266,-8.86719 0,-6.46484 -1.97266,-8.90625 -1.95313,-2.46093 -6.95313,-2.46093 h -1.875 v 22.67578 z m 0.0781,-25.91797 q 6.67969,0 9.84375,3.55469 3.16406,3.55468 3.16406,11.05468 0,7.46094 -3.16406,11.01563 -3.16406,3.53516 -9.84375,3.53516 h -5.91797 v -29.16016 z"
         id="path1261"
         inkscape:connector-curvature="0" />
      <path
         d="m 403.96051,174.3381 q 0,-6.42578 -1.32812,-9.17968 -1.3086,-2.75391 -4.31641,-2.75391 -2.98828,0 -4.31641,2.75391 -1.30859,2.7539 -1.30859,9.17968 0,6.40625 1.30859,9.16016 1.32813,2.75391 4.31641,2.75391 3.00781,0 4.31641,-2.73438 1.32812,-2.7539 1.32812,-9.17969 z m 4.12109,0 q 0,7.61719 -2.42187,11.36719 -2.40234,3.75 -7.34375,3.75 -4.94141,0 -7.34375,-3.73047 -2.40234,-3.73047 -2.40234,-11.38672 0,-7.63671 2.40234,-11.38671 2.42187,-3.75 7.34375,-3.75 4.94141,0 7.34375,3.75 2.42187,3.75 2.42187,11.38671 z"
         id="path1263"
         inkscape:connector-curvature="0" />
      <path
         d="m 304.87848,225.11935 q 1.52344,0.39063 2.59766,1.48438 1.07421,1.07422 2.67578,4.31641 l 3.96484,7.96875 h -4.23828 l -3.47656,-7.36329 q -1.50391,-3.14453 -2.71485,-4.04296 -1.1914,-0.91797 -3.125,-0.91797 h -3.76953 v 12.32422 h -3.96484 v -29.16016 h 8.125 q 4.80469,0 7.36328,2.16797 2.55859,2.16797 2.55859,6.26953 0,2.89062 -1.58203,4.72656 -1.5625,1.81641 -4.41406,2.22656 z m -8.08594,-12.14843 v 10.35156 h 4.31641 q 2.83203,0 4.21875,-1.26953 1.38672,-1.26953 1.38672,-3.88672 0,-2.51953 -1.48438,-3.84766 -1.46484,-1.34765 -4.27734,-1.34765 z"
         id="path1265"
         inkscape:connector-curvature="0" />
      <path
         d="m 317.94489,209.72873 h 17.30468 v 3.32031 H 321.8902 v 8.63281 h 12.77344 v 3.32032 H 321.8902 v 10.5664 h 13.73047 v 3.32032 h -17.67578 z"
         id="path1267"
         inkscape:connector-curvature="0" />
      <path
         d="m 339.83942,209.72873 h 5.27343 l 5.03907,14.84375 5.07812,-14.84375 h 5.29297 v 29.16016 h -3.65234 v -25.76172 l -5.19532,15.37109 h -2.98828 l -5.21484,-15.37109 v 25.76172 h -3.63281 z"
         id="path1269"
         inkscape:connector-curvature="0" />
      <path
         d="m 379.89801,224.3381 q 0,-6.42578 -1.32812,-9.17968 -1.3086,-2.75391 -4.31641,-2.75391 -2.98828,0 -4.31641,2.75391 -1.30859,2.7539 -1.30859,9.17968 0,6.40625 1.30859,9.16016 1.32813,2.75391 4.31641,2.75391 3.00781,0 4.31641,-2.73438 1.32812,-2.7539 1.32812,-9.17969 z m 4.12109,0 q 0,7.61719 -2.42187,11.36719 -2.40234,3.75 -7.34375,3.75 -4.94141,0 -7.34375,-3.73047 -2.40234,-3.73047 -2.40234,-11.38672 0,-7.63671 2.40234,-11.38671 2.42187,-3.75 7.34375,-3.75 4.94141,0 7.34375,3.75 2.42187,3.75 2.42187,11.38671 z"
         id="path1271"
         inkscape:connector-curvature="0" />
      <path
         d="m 398.31598,235.56857 6.85547,-25.83984 h 4.08203 l -8.53516,29.16016 h -4.78515 l -8.53516,-29.16016 h 4.08203 z"
         id="path1273"
         inkscape:connector-curvature="0" />
      <path
         d="m 414.19489,209.72873 h 17.30468 v 3.32031 H 418.1402 v 8.63281 h 12.77344 v 3.32032 H 418.1402 v 10.5664 h 13.73047 v 3.32032 h -17.67578 z"
         id="path1275"
         inkscape:connector-curvature="0" />
    </g>
    <rect
       style="fill:#0000ff;fill-opacity:1;stroke:none;stroke-width:0.98003787;stroke-miterlimit:4;stroke-dasharray:none;stroke-opacity:1"
       id="VOCT_2"
       width="15"
       height="15"
       x="559.08063"
       y="78.665947"
       inkscape:label="#rect1333" />
    <rect
       y="103.14216"
       x="559.08063"
       height="15"
       width="15"
       id="VOCT_3"
       style="fill:#0000ff;fill-opacity:1;stroke:none;stroke-width:0.98003787;stroke-miterlimit:4;stroke-dasharray:none;stroke-opacity:1"
       inkscape:label="#rect1337" />
    <rect
       style="fill:#0000ff;fill-opacity:1;stroke:none;stroke-width:0.98003787;stroke-miterlimit:4;stroke-dasharray:none;stroke-opacity:1"
       id="VOCT_4"
       width="15"
       height="15"
       x="559.08063"
       y="127.61829"
       inkscape:label="#rect1341" />
    <rect
       y="152.09445"
       x="559.08063"
       height="15"
       width="15"
       id="VOCT_5"
       style="fill:#0000ff;fill-opacity:1;stroke:none;stroke-width:0.98003787;stroke-miterlimit:4;stroke-dasharray:none;stroke-opacity:1"
       inkscape:label="#rect1345" />
    <rect
       style="fill:#0000ff;fill-opacity:1;stroke:none;stroke-width:0.98003787;stroke-miterlimit:4;stroke-dasharray:none;stroke-opacity:1"
       id="VOCT_6"
       width="15"
       height="15"
       x="559.08063"
       y="176.5706"
       inkscape:label="#rect1349" />
    <rect
       y="201.04675"
       x="559.08063"
       height="15"
       width="15"
       id="VOCT_7"
       style="fill:#0000ff;fill-opacity:1;stroke:none;stroke-width:0.98003787;stroke-miterlimit:4;stroke-dasharray:none;stroke-opacity:1"
       inkscape:label="#rect1351" />
    <rect
       style="fill:#0000ff;fill-opacity:1;stroke:none;stroke-width:0.98003787;stroke-miterlimit:4;stroke-dasharray:none;stroke-opacity:1"
       id="VOCT_8"
       width="15"
       height="15"
       x="559.08063"
       y="225.52292"
       inkscape:label="#rect1353" />
    <rect
       y="249.99908"
       x="559.08063"
       height="15"
       width="15"
       id="VOCT_9"
       style="fill:#0000ff;fill-opacity:1;stroke:none;stroke-width:0.98003787;stroke-miterlimit:4;stroke-dasharray:none;stroke-opacity:1"
       inkscape:label="#rect1355" />
    <rect
       style="fill:#0000ff;fill-opacity:1;stroke:none;stroke-width:0.98003787;stroke-miterlimit:4;stroke-dasharray:none;stroke-opacity:1"
       id="VOCT_10"
       width="15"
       height="15"
       x="559.08063"
       y="274.47522"
       inkscape:label="#rect1357" />
    <rect
       style="fill:#0000ff;fill-opacity:1;stroke:none;stroke-width:0.98003787;stroke-miterlimit:4;stroke-dasharray:none;stroke-opacity:1"
       id="GATE_1"
       width="15"
       height="15"
       x="591.8584"
       y="54.189823"
       inkscape:label="#rect1369" />
    <rect
       y="78.665947"
       x="591.8584"
       height="15"
       width="15"
       id="GATE_2"
       style="fill:#0000ff;fill-opacity:1;stroke:none;stroke-width:0.98003787;stroke-miterlimit:4;stroke-dasharray:none;stroke-opacity:1"
       inkscape:label="#rect1371" />
    <rect
       style="fill:#0000ff;fill-opacity:1;stroke:none;stroke-width:0.98003787;stroke-miterlimit:4;stroke-dasharray:none;stroke-opacity:1"
       id="GATE_3"
       width="15"
       height="15"
       x="591.8584"
       y="103.14216"
       inkscape:label="#rect1373" />
    <rect
       y="127.61829"
       x="591.8584"
       height="15"
       width="15"
       id="GATE_4"
       style="fill:#0000ff;fill-opacity:1;stroke:none;stroke-width:0.98003787;stroke-miterlimit:4;stroke-dasharray:none;stroke-opacity:1"
       inkscape:label="#rect1375" />
    <rect
       style="fill:#0000ff;fill-opacity:1;stroke:none;stroke-width:0.98003787;stroke-miterlimit:4;stroke-dasharray:none;stroke-opacity:1"
       id="GATE_5"
       width="15"
       height="15"
       x="591.8584"
       y="152.09445"
       inkscape:label="#rect1377" />
    <rect
       y="176.5706"
       x="591.8584"
       height="15"
       width="15"
       id="GATE_6"
       style="fill:#0000ff;fill-opacity:1;stroke:none;stroke-width:0.98003787;stroke-miterlimit:4;stroke-dasharray:none;stroke-opacity:1"
       inkscape:label="#rect1379" />
    <rect
       style="fill:#0000ff;fill-opacity:1;stroke:none;stroke-width:0.98003787;stroke-miterlimit:4;stroke-dasharray:none;stroke-opacity:1"
       id="GATE_7"
       width="15"
       height="15"
       x="591.8584"
       y="201.04675"
       inkscape:label="#rect1381" />
    <rect
       y="225.52292"
       x="591.8584"
       height="15"
       width="15"
       id="GATE_8"
       style="fill:#0000ff;fill-opacity:1;stroke:none;stroke-width:0.98003787;stroke-miterlimit:4;stroke-dasharray:none;stroke-opacity:1"
       inkscape:label="#rect1383" />
    <rect
       style="fill:#0000ff;fill-opacity:1;stroke:none;stroke-width:0.98003787;stroke-miterlimit:4;stroke-dasharray:none;stroke-opacity:1"
       id="GATE_9"
       width="15"
       height="15"
       x="591.8584"
       y="249.99908"
       inkscape:label="#rect1385" />
    <rect
       y="274.47522"
       x="591.8584"
       height="15"
       width="15"
       id="GATE_10"
       style="fill:#0000ff;fill-opacity:1;stroke:none;stroke-width:0.98003787;stroke-miterlimit:4;stroke-dasharray:none;stroke-opacity:1"
       inkscape:label="#rect1387" />
    <rect
       style="fill:#0000ff;fill-opacity:1;stroke:none;stroke-width:0.98003787;stroke-miterlimit:4;stroke-dasharray:none;stroke-opacity:1"
       id="MIN_VOCT"
       width="15"
       height="15"
       x="656.30286"
       y="54.74538"
       inkscape:label="#rect1423" />
    <rect
       y="79.221504"
       x="656.30286"
       height="15"
       width="15"
       id="MID_VOCT"
       style="fill:#0000ff;fill-opacity:1;stroke:none;stroke-width:0.98003787;stroke-miterlimit:4;stroke-dasharray:none;stroke-opacity:1"
       inkscape:label="#rect1425" />
    <rect
       style="fill:#0000ff;fill-opacity:1;stroke:none;stroke-width:0.98003787;stroke-miterlimit:4;stroke-dasharray:none;stroke-opacity:1"
       id="MAX_VOCT"
       width="15"
       height="15"
       x="656.30286"
       y="103.69772"
       inkscape:label="#rect1427" />
    <rect
       y="128.17386"
       x="656.30286"
       height="15"
       width="15"
       id="RND_VOCT"
       style="fill:#0000ff;fill-opacity:1;stroke:none;stroke-width:0.98003787;stroke-miterlimit:4;stroke-dasharray:none;stroke-opacity:1"
       inkscape:label="#rect1429" />
    <rect
       y="54.74538"
       x="689.08063"
       height="15"
       width="15"
       id="MIN_GATE"
       style="fill:#0000ff;fill-opacity:1;stroke:none;stroke-width:0.98003787;stroke-miterlimit:4;stroke-dasharray:none;stroke-opacity:1"
       inkscape:label="#rect1431" />
    <rect
       style="fill:#0000ff;fill-opacity:1;stroke:none;stroke-width:0.98003787;stroke-miterlimit:4;stroke-dasharray:none;stroke-opacity:1"
       id="MID_GATE"
       width="15"
       height="15"
       x="689.08063"
       y="79.221504"
       inkscape:label="#rect1433" />
    <rect
       y="103.69772"
       x="689.08063"
       height="15"
       width="15"
       id="MAX_GATE"
       style="fill:#0000ff;fill-opacity:1;stroke:none;stroke-width:0.98003787;stroke-miterlimit:4;stroke-dasharray:none;stroke-opacity:1"
       inkscape:label="#rect1435" />
    <rect
       style="fill:#0000ff;fill-opacity:1;stroke:none;stroke-width:0.98003787;stroke-miterlimit:4;stroke-dasharray:none;stroke-opacity:1"
       id="RND_GATE"
       width="15"
       height="15"
       x="689.08063"
       y="128.17386"
       inkscape:label="#rect1437" />
    <rect
       y="43.085506"
       x="71.854126"
       height="26"
       width="26"
       id="STEP_BTN"
       style="fill:#ff0000;fill-opacity:1;stroke:none;stroke-width:1.69873238;stroke-miterlimit:4;stroke-dasharray:none;stroke-opacity:1"
       inkscape:label="#rect1439" />
    <rect
       style="fill:#ff0000;fill-opacity:1;stroke:none;stroke-width:1.69873238;stroke-miterlimit:4;stroke-dasharray:none;stroke-opacity:1"
       id="PLAY_MODE_KNOB"
       width="26"
       height="26"
       x="123.4553"
       y="43.085506"
       inkscape:label="#rect1441" />
    <rect
       y="336.88031"
       x="126.41925"
       height="15"
       width="15"
       id="ONE_PER_COL_SWITCH"
       style="fill:#ff0000;fill-opacity:1;stroke:none;stroke-width:0.98003787;stroke-miterlimit:4;stroke-dasharray:none;stroke-opacity:1"
       inkscape:label="#rect1447" />
    <rect
       style="fill:#ff0000;fill-opacity:1;stroke:none;stroke-width:0.98003787;stroke-miterlimit:4;stroke-dasharray:none;stroke-opacity:1"
       id="ROT_RIGHT_BTN"
       width="15"
       height="15"
       x="82.564194"
       y="176.88031"
       inkscape:label="#rect1449" />
    <rect
       style="fill:#ff0000;fill-opacity:1;stroke:none;stroke-width:1.69873238;stroke-miterlimit:4;stroke-dasharray:none;stroke-opacity:1"
       id="LOW_MID_HIGH_SWITCH"
       width="26"
       height="26"
       x="556.33563"
       y="335.53592"
       inkscape:label="#rect1465" />
    <rect
       y="335.53592"
       x="599.12952"
       height="26"
       width="26"
       id="SCALE_KNOB"
       style="fill:#ff0000;fill-opacity:1;stroke:none;stroke-width:1.69873238;stroke-miterlimit:4;stroke-dasharray:none;stroke-opacity:1"
       inkscape:label="#rect1467" />
    <rect
       style="fill:#ff0000;fill-opacity:1;stroke:none;stroke-width:1.69873238;stroke-miterlimit:4;stroke-dasharray:none;stroke-opacity:1"
       id="NOTE_KNOB"
       width="26"
       height="26"
       x="641.92346"
       y="335.53592"
       inkscape:label="#rect1469" />
    <rect
       y="335.53592"
       x="684.71735"
       height="26"
       width="26"
       id="OCTAVE_KNOB"
       style="fill:#ff0000;fill-opacity:1;stroke:none;stroke-width:1.69873238;stroke-miterlimit:4;stroke-dasharray:none;stroke-opacity:1"
       inkscape:label="#rect1471" />
    <rect
       y="176.88031"
       x="116.34422"
       height="15"
       width="15"
       id="ROT_LEFT"
       style="fill:#00ff00;fill-opacity:1;stroke:none;stroke-width:0.98003787;stroke-miterlimit:4;stroke-dasharray:none;stroke-opacity:1"
       inkscape:label="#rect1473" />
    <rect
       y="176.88031"
       x="137.56419"
       height="15"
       width="15"
       id="ROT_LEFT_BTN"
       style="fill:#ff0000;fill-opacity:1;stroke:none;stroke-width:0.98003787;stroke-miterlimit:4;stroke-dasharray:none;stroke-opacity:1"
       inkscape:label="#rect1475" />
    <rect
       y="196.09796"
       x="61.344215"
       height="15"
       width="15"
       id="FLIP_RIGHT"
       style="fill:#00ff00;fill-opacity:1;stroke:none;stroke-width:0.98003787;stroke-miterlimit:4;stroke-dasharray:none;stroke-opacity:1"
       inkscape:label="#rect1477" />
    <rect
       y="196.09796"
       x="82.564194"
       height="15"
       width="15"
       id="FLIP_RIGHT_BTN"
       style="fill:#ff0000;fill-opacity:1;stroke:none;stroke-width:0.98003787;stroke-miterlimit:4;stroke-dasharray:none;stroke-opacity:1"
       inkscape:label="#rect1479" />
    <rect
       style="fill:#00ff00;fill-opacity:1;stroke:none;stroke-width:0.98003787;stroke-miterlimit:4;stroke-dasharray:none;stroke-opacity:1"
       id="FLIP_LEFT"
       width="15"
       height="15"
       x="116.34422"
       y="196.09796"
       inkscape:label="#rect1481" />
    <rect
       style="fill:#ff0000;fill-opacity:1;stroke:none;stroke-width:0.98003787;stroke-miterlimit:4;stroke-dasharray:none;stroke-opacity:1"
       id="FLIP_LEFT_BTN"
       width="15"
       height="15"
       x="137.56419"
       y="196.09796"
       inkscape:label="#rect1483" />
    <rect
       style="fill:#00ff00;fill-opacity:1;stroke:none;stroke-width:0.98003787;stroke-miterlimit:4;stroke-dasharray:none;stroke-opacity:1"
       id="FLIP_UP"
       width="15"
       height="15"
       x="61.344215"
       y="235.98683"
       inkscape:label="#rect1485" />
    <rect
       style="fill:#ff0000;fill-opacity:1;stroke:none;stroke-width:0.98003787;stroke-miterlimit:4;stroke-dasharray:none;stroke-opacity:1"
       id="FLIP_UP_BTN"
       width="15"
       height="15"
       x="82.564194"
       y="235.98683"
       inkscape:label="#rect1487" />
    <rect
       y="235.98683"
       x="116.34422"
       height="15"
       width="15"
       id="FLIP_DOWN"
       style="fill:#00ff00;fill-opacity:1;stroke:none;stroke-width:0.98003787;stroke-miterlimit:4;stroke-dasharray:none;stroke-opacity:1"
       inkscape:label="#rect1489" />
    <rect
       y="235.98683"
       x="137.56419"
       height="15"
       width="15"
       id="FLIP_DOWN_BTN"
       style="fill:#ff0000;fill-opacity:1;stroke:none;stroke-width:0.98003787;stroke-miterlimit:4;stroke-dasharray:none;stroke-opacity:1"
       inkscape:label="#rect1491" />
    <rect
       y="290.20911"
       x="61.344002"
       height="15"
       width="15"
       id="LIFE_MODE"
       style="fill:#00ff00;fill-opacity:1;stroke:none;stroke-width:0.98003787;stroke-miterlimit:4;stroke-dasharray:none;stroke-opacity:1"
       inkscape:label="#rect1493" />
    <rect
       y="290.20911"
       x="82.563972"
       height="15"
       width="15"
       id="LIFE_MODE_SWITCH"
       style="fill:#ff0000;fill-opacity:1;stroke:none;stroke-width:0.98003787;stroke-miterlimit:4;stroke-dasharray:none;stroke-opacity:1"
       inkscape:label="#rect1495" />
    <rect
       style="fill:#00ff00;fill-opacity:1;stroke:none;stroke-width:0.98003787;stroke-miterlimit:4;stroke-dasharray:none;stroke-opacity:1"
       id="LIFE_SPEED"
       width="15"
       height="15"
       x="116.344"
       y="290.20911"
       inkscape:label="#rect1497" />
    <rect
       style="fill:#ff0000;fill-opacity:1;stroke:none;stroke-width:0.98003787;stroke-miterlimit:4;stroke-dasharray:none;stroke-opacity:1"
       id="LIFE_SPEED_KNOB"
       width="15"
       height="15"
       x="137.56398"
       y="290.20911"
       inkscape:label="#rect1499" />
    <rect
       y="113.7692"
       x="61.344002"
       height="15"
       width="15"
       id="RND_TRIG"
       style="fill:#00ff00;fill-opacity:1;stroke:none;stroke-width:0.98003787;stroke-miterlimit:4;stroke-dasharray:none;stroke-opacity:1"
       inkscape:label="#rect1501" />
    <rect
       y="113.7692"
       x="82.56398"
       height="15"
       width="15"
       id="RND_TRIG_BTN"
       style="fill:#ff0000;fill-opacity:1;stroke:none;stroke-width:0.98003787;stroke-miterlimit:4;stroke-dasharray:none;stroke-opacity:1"
       inkscape:label="#rect1503" />
    <rect
       style="fill:#00ff00;fill-opacity:1;stroke:none;stroke-width:0.98003787;stroke-miterlimit:4;stroke-dasharray:none;stroke-opacity:1"
       id="RND_AMT"
       width="15"
       height="15"
       x="116.34401"
       y="113.7692"
       inkscape:label="#rect1505" />
    <rect
       style="fill:#ff0000;fill-opacity:1;stroke:none;stroke-width:0.98003787;stroke-miterlimit:4;stroke-dasharray:none;stroke-opacity:1"
       id="RND_AMT_KNOB"
       width="15"
       height="15"
       x="137.56398"
       y="113.7692"
       inkscape:label="#rect1507" />
  </g>
  <g
     aria-label="LEN"
     style="font-style:normal;font-variant:normal;font-weight:normal;font-stretch:normal;font-size:9.33333302px;line-height:1.25;font-family:monospace;-inkscape-font-specification:monospace;text-align:center;letter-spacing:0px;word-spacing:0px;text-anchor:middle;fill:#ffffff;fill-opacity:1;stroke:none"
     id="text2798"
     transform="translate(30.478937,5.0360024)">
    <path
       d="m 90.767217,19.642573 h 0.92513 v 6.029297 h 3.285808 v 0.774739 h -4.210938 z"
       id="path2800"
       inkscape:connector-curvature="0"
       style="fill:#ffffff;fill-opacity:1" />
    <path
       d="m 96.299769,19.642573 h 4.037761 v 0.77474 h -3.117188 v 2.014323 h 2.980468 v 0.774739 h -2.980468 v 2.465495 h 3.203778 v 0.774739 h -4.124351 z"
       id="path2802"
       inkscape:connector-curvature="0"
       style="fill:#ffffff;fill-opacity:1" />
    <path
       d="m 101.65003,19.642573 h 1.16667 l 2.29687,5.600912 v -5.600912 h 0.88867 v 6.804036 h -1.16666 l -2.29688,-5.600911 v 5.600911 h -0.88867 z"
       id="path2804"
       inkscape:connector-curvature="0"
       style="fill:#ffffff;fill-opacity:1" />
  </g>
  <rect
     style="fill:#595959;fill-opacity:1;stroke:none;stroke-width:1.00157475;stroke-miterlimit:4;stroke-dasharray:none;stroke-dashoffset:0;stroke-opacity:1"
     id="rect3621"
     width="54.722221"
     height="31.388891"
     x="134.72221"
     y="326.11115" />
  <g
     transform="translate(-420.27778,307.30923)"
     id="g1577"
     style="font-style:normal;font-variant:normal;font-weight:normal;font-stretch:normal;font-size:6.66667px;line-height:1.25;font-family:monospace;-inkscape-font-specification:monospace;text-align:center;letter-spacing:0px;word-spacing:0px;text-anchor:middle;fill:#ffffff;fill-opacity:1;stroke:none"
     aria-label="V/OCT">
    <path
       inkscape:connector-curvature="0"
       id="path1567"
       d="m 558.92362,26.057723 1.14258,-4.30664 h 0.68034 l -1.42252,4.860026 h -0.79753 l -1.42253,-4.860026 h 0.68034 z"
       style="fill:#ffffff;fill-opacity:1" />
    <path
       inkscape:connector-curvature="0"
       id="path1569"
       d="m 563.82271,21.751083 h 0.61849 l -2.55859,5.478515 h -0.62175 z"
       style="fill:#ffffff;fill-opacity:1" />
    <path
       inkscape:connector-curvature="0"
       id="path1571"
       d="m 567.88521,24.185979 q 0,-1.070964 -0.22135,-1.529948 -0.2181,-0.458985 -0.7194,-0.458985 -0.49805,0 -0.7194,0.458985 -0.2181,0.458984 -0.2181,1.529948 0,1.067708 0.2181,1.526692 0.22135,0.458985 0.7194,0.458985 0.5013,0 0.7194,-0.455729 0.22135,-0.458985 0.22135,-1.529948 z m 0.68685,0 q 0,1.269531 -0.40364,1.894531 -0.40039,0.625 -1.22396,0.625 -0.82357,0 -1.22396,-0.621745 -0.40039,-0.621745 -0.40039,-1.897786 0,-1.272787 0.40039,-1.897787 0.40365,-0.625 1.22396,-0.625 0.82357,0 1.22396,0.625 0.40364,0.625 0.40364,1.897787 z"
       style="fill:#ffffff;fill-opacity:1" />
    <path
       inkscape:connector-curvature="0"
       id="path1573"
       d="m 572.44251,26.438583 q -0.25066,0.133463 -0.51433,0.198567 -0.26367,0.06836 -0.55989,0.06836 -0.93425,0 -1.45183,-0.660807 -0.51432,-0.660808 -0.51432,-1.858724 0,-1.191407 0.51758,-1.855469 0.52083,-0.667318 1.44857,-0.667318 0.29622,0 0.55989,0.06836 0.26367,0.0651 0.51433,0.198567 v 0.673828 q -0.24089,-0.198567 -0.51758,-0.302734 -0.2767,-0.104167 -0.55664,-0.104167 -0.64128,0 -0.96029,0.494792 -0.31901,0.494792 -0.31901,1.494141 0,0.996093 0.31901,1.490885 0.31901,0.494792 0.96029,0.494792 0.28645,0 0.55989,-0.104167 0.27669,-0.104167 0.51433,-0.302734 z"
       style="fill:#ffffff;fill-opacity:1" />
    <path
       inkscape:connector-curvature="0"
       id="path1575"
       d="m 573.11308,21.751083 h 3.70768 v 0.553385 h -1.52018 v 4.306641 h -0.66081 v -4.306641 h -1.52669 z"
       style="fill:#ffffff;fill-opacity:1" />
  </g>
  <g
     transform="translate(-418.27778,307.57127)"
     id="g1587"
     style="font-style:normal;font-variant:normal;font-weight:normal;font-stretch:normal;font-size:9.33333302px;line-height:1.25;font-family:monospace;-inkscape-font-specification:monospace;text-align:center;letter-spacing:0px;word-spacing:0px;text-anchor:middle;fill:#ffffff;fill-opacity:1;stroke:none"
     aria-label="GATE">
    <path
       inkscape:connector-curvature="0"
       id="path1579"
       style="font-style:normal;font-variant:normal;font-weight:normal;font-stretch:normal;font-size:6.66666651px;font-family:monospace;-inkscape-font-specification:'monospace, Normal';font-variant-ligatures:normal;font-variant-caps:normal;font-variant-numeric:normal;font-feature-settings:normal;text-align:center;writing-mode:lr-tb;text-anchor:middle;fill:#ffffff;fill-opacity:1"
       d="m 592.51737,26.472763 q -0.26367,0.244141 -0.5957,0.371094 -0.32877,0.123698 -0.71289,0.123698 -0.92448,0 -1.4388,-0.660808 -0.51432,-0.664062 -0.51432,-1.858723 0,-1.191407 0.52083,-1.855469 0.52083,-0.667318 1.44857,-0.667318 0.30599,0 0.58593,0.08789 0.27995,0.08464 0.54037,0.260416 v 0.673829 q -0.26367,-0.250652 -0.54037,-0.367839 -0.27669,-0.120443 -0.58593,-0.120443 -0.64128,0 -0.96354,0.498047 -0.31901,0.494792 -0.31901,1.490886 0,1.012369 0.30924,1.500651 0.3125,0.485026 0.95703,0.485026 0.2181,0 0.38086,-0.04883 0.16602,-0.05208 0.29948,-0.159505 v -1.305338 h -0.70638 v -0.540365 h 1.33463 z" />
    <path
       inkscape:connector-curvature="0"
       id="path1581"
       style="font-style:normal;font-variant:normal;font-weight:normal;font-stretch:normal;font-size:6.66666651px;font-family:monospace;-inkscape-font-specification:'monospace, Normal';font-variant-ligatures:normal;font-variant-caps:normal;font-variant-numeric:normal;font-feature-settings:normal;text-align:center;writing-mode:lr-tb;text-anchor:middle;fill:#ffffff;fill-opacity:1"
       d="m 594.93925,22.592555 -0.69336,2.486979 h 1.38672 z m -0.39714,-0.579427 h 0.79753 l 1.48763,4.860026 h -0.68034 l -0.35807,-1.266276 h -1.70247 l -0.35157,1.266276 h -0.68034 z" />
    <path
       inkscape:connector-curvature="0"
       id="path1583"
       style="font-style:normal;font-variant:normal;font-weight:normal;font-stretch:normal;font-size:6.66666651px;font-family:monospace;-inkscape-font-specification:'monospace, Normal';font-variant-ligatures:normal;font-variant-caps:normal;font-variant-numeric:normal;font-feature-settings:normal;text-align:center;writing-mode:lr-tb;text-anchor:middle;fill:#ffffff;fill-opacity:1"
       d="m 597.09745,22.013128 h 3.70768 v 0.553385 h -1.52018 v 4.306641 h -0.6608 v -4.306641 h -1.5267 z" />
    <path
       inkscape:connector-curvature="0"
       id="path1585"
       style="font-style:normal;font-variant:normal;font-weight:normal;font-stretch:normal;font-size:6.66666651px;font-family:monospace;-inkscape-font-specification:'monospace, Normal';font-variant-ligatures:normal;font-variant-caps:normal;font-variant-numeric:normal;font-feature-settings:normal;text-align:center;writing-mode:lr-tb;text-anchor:middle;fill:#ffffff;fill-opacity:1"
       d="m 601.59615,22.013128 h 2.88412 v 0.553385 h -2.22657 v 1.438802 h 2.12891 v 0.553386 h -2.12891 v 1.761067 h 2.28841 v 0.553386 h -2.94596 z" />
  </g>
  <g
     aria-label="NoteSeq16"
     style="font-style:normal;font-variant:normal;font-weight:bold;font-stretch:normal;font-size:12px;line-height:1.25;font-family:monospace;-inkscape-font-specification:'monospace, Bold';font-variant-ligatures:normal;font-variant-caps:normal;font-variant-numeric:normal;font-feature-settings:normal;text-align:center;letter-spacing:0px;word-spacing:0px;writing-mode:lr-tb;text-anchor:middle;fill:#ffffff;fill-opacity:1;stroke:none"
     id="text1564"
     transform="matrix(1.1401165,0,0,1.1401165,-14.383405,-0.69589125)">
    <path
       d="m 67.207832,5.1277761 h 1.857422 l 2.4375,6.3574219 V 5.1277761 h 1.523438 V 13.875823 H 71.180489 L 68.73127,7.5184011 v 6.3574219 h -1.523438 z"
       id="path1568"
       style="fill:#ffffff" />
    <path
       d="m 77.338692,8.5496511 q -0.615235,0 -0.966797,0.5449219 -0.351563,0.5390625 -0.351563,1.505859 0,0.966797 0.351563,1.511719 0.351562,0.539063 0.966797,0.539063 0.621093,0 0.972656,-0.539063 0.351562,-0.544922 0.351562,-1.511719 0,-0.9667965 -0.351562,-1.505859 -0.351563,-0.5449219 -0.972656,-0.5449219 z m -3.035157,2.0507809 q 0,-1.5878902 0.820313,-2.5136715 0.826172,-0.9316406 2.214844,-0.9316406 1.394531,0 2.214843,0.9316406 0.826172,0.9257813 0.826172,2.5136715 0,1.587891 -0.826172,2.519532 -0.820312,0.925781 -2.214843,0.925781 -1.388672,0 -2.214844,-0.925781 -0.820313,-0.931641 -0.820313,-2.519532 z"
       id="path1570"
       style="fill:#ffffff" />
    <path
       d="M 84.991035,5.4500418 V 7.313323 h 2.244141 v 1.3183594 h -2.244141 v 3.1054686 q 0,0.439453 0.210938,0.632813 0.216797,0.1875 0.714844,0.1875 h 1.318359 v 1.318359 H 85.79377 q -1.476563,0 -1.998047,-0.46875 -0.521484,-0.474609 -0.521484,-1.751953 V 8.6316824 H 81.598457 V 7.313323 h 1.675782 V 5.4500418 Z"
       id="path1572"
       style="fill:#ffffff" />
    <path
       d="m 94.623848,13.553557 q -0.597656,0.246094 -1.21875,0.369141 -0.621094,0.123047 -1.3125,0.123047 -1.646484,0 -2.519531,-0.878906 -0.867188,-0.884766 -0.867188,-2.542969 0,-1.6054689 0.837891,-2.5371095 0.83789,-0.9316406 2.285156,-0.9316406 1.458984,0 2.261719,0.8671875 0.808594,0.8613281 0.808594,2.4316406 v 0.697266 h -4.447266 q 0.0059,0.773437 0.457031,1.154297 0.451172,0.380859 1.347656,0.380859 0.591797,0 1.166016,-0.169922 0.574219,-0.169922 1.201172,-0.539062 z M 93.170723,9.8621511 Q 93.159004,9.1824636 92.81916,8.8367605 92.485176,8.485198 91.828926,8.485198 q -0.591797,0 -0.943359,0.3632813 -0.351563,0.3574218 -0.416016,1.0195312 z"
       id="path1574"
       style="fill:#ffffff" />
    <path
       d="M 98.373848,10.037932 Q 97.067207,9.5398855 96.604317,8.9949636 96.141426,8.4441824 96.141426,7.5184011 q 0,-1.1894531 0.761719,-1.8691406 0.761719,-0.6796875 2.091797,-0.6796875 0.603515,0 1.207028,0.140625 0.60352,0.1347656 1.19532,0.4042969 v 1.6875 q -0.55665,-0.3925781 -1.13086,-0.5976563 -0.574223,-0.2050781 -1.136723,-0.2050781 -0.626953,0 -0.960937,0.2519531 -0.333985,0.2519532 -0.333985,0.7207032 0,0.3632812 0.240235,0.6035156 0.246094,0.234375 1.019531,0.5214844 l 0.744141,0.28125 q 1.054688,0.3867187 1.552738,1.0253906 0.49804,0.6386716 0.49804,1.6113286 0,1.324218 -0.78515,1.980468 -0.7793,0.650391 -2.361331,0.650391 -0.650391,0 -1.306641,-0.158203 -0.650391,-0.152344 -1.259766,-0.457031 v -1.78711 q 0.691407,0.492188 1.335938,0.732422 0.65039,0.240234 1.283203,0.240234 0.638672,0 0.990234,-0.287109 0.351563,-0.292969 0.351563,-0.814453 0,-0.392578 -0.234375,-0.685547 -0.234375,-0.298828 -0.679688,-0.46875 z"
       id="path1576"
       style="fill:#ffffff" />
    <path
       d="m 109.06135,13.553557 q -0.59766,0.246094 -1.21875,0.369141 -0.6211,0.123047 -1.3125,0.123047 -1.64649,0 -2.51953,-0.878906 -0.86719,-0.884766 -0.86719,-2.542969 0,-1.6054689 0.83789,-2.5371095 0.83789,-0.9316406 2.28516,-0.9316406 1.45898,0 2.26171,0.8671875 0.8086,0.8613281 0.8086,2.4316406 v 0.697266 h -4.44727 q 0.006,0.773437 0.45703,1.154297 0.45118,0.380859 1.34766,0.380859 0.5918,0 1.16602,-0.169922 0.57421,-0.169922 1.20117,-0.539062 z m -1.45313,-3.6914059 q -0.0117,-0.6796875 -0.35156,-1.0253906 -0.33398,-0.3515625 -0.99023,-0.3515625 -0.5918,0 -0.94336,0.3632813 -0.35157,0.3574218 -0.41602,1.0195312 z"
       id="path1578"
       style="fill:#ffffff" />
    <path
       d="m 112.06721,10.588714 q 0,0.949218 0.3164,1.488281 0.31641,0.539062 0.87305,0.539062 0.55664,0 0.87891,-0.539062 0.32226,-0.539063 0.32226,-1.488281 0,-0.9492191 -0.32226,-1.4882816 -0.32227,-0.5390625 -0.87891,-0.5390625 -0.55664,0 -0.87305,0.5390625 -0.3164,0.5390625 -0.3164,1.4882816 z m 2.39062,2.361328 q -0.3164,0.550781 -0.73828,0.826172 -0.41601,0.269531 -0.94336,0.269531 -1.16601,0 -1.79883,-0.890625 -0.62695,-0.890625 -0.62695,-2.554688 0,-1.6406246 0.62109,-2.5429684 0.6211,-0.9023437 1.7461,-0.9023437 0.59179,0 1.02539,0.2871094 0.43945,0.2871093 0.71484,0.8554687 V 7.313323 h 1.71094 v 9.058594 h -1.71094 z"
       id="path1580"
       style="fill:#ffffff" />
    <path
       d="m 118.14338,12.352386 h 1.93359 V 6.6746511 l -1.79883,0.4453125 V 5.5613699 l 1.81055,-0.4335938 h 1.66992 v 7.2246099 h 1.9336 v 1.523437 h -5.54883 z"
       id="path1582"
       style="fill:#ffffff" />
    <path
       d="m 128.02814,9.4930105 q -0.5625,0 -0.86132,0.4101563 -0.29297,0.4042972 -0.29297,1.1777342 0,0.767578 0.29297,1.177735 0.29882,0.404296 0.86132,0.404296 0.5625,0 0.86133,-0.404296 0.30469,-0.410157 0.30469,-1.177735 0,-0.767578 -0.30469,-1.1777342 -0.29883,-0.4101563 -0.86133,-0.4101563 z m 2.26758,-4.1601562 V 6.9031668 Q 129.83283,6.6394949 129.4051,6.5105886 128.98322,6.375823 128.59064,6.375823 q -0.9375,0 -1.42968,0.6328125 -0.48633,0.6269531 -0.50977,1.8574219 0.27539,-0.3808594 0.70313,-0.5683594 0.42773,-0.1933594 1.00781,-0.1933594 1.18359,0 1.82812,0.75 0.64454,0.7441407 0.64454,2.1152344 0,1.470703 -0.72657,2.279297 -0.7207,0.808594 -2.0332,0.808594 -1.59961,0 -2.32617,-1.072266 -0.72071,-1.072266 -0.72071,-3.4628906 0,-2.2734375 0.88477,-3.4042969 0.88477,-1.1367187 2.6543,-1.1367187 0.41015,0 0.84375,0.087891 0.43945,0.087891 0.88476,0.2636715 z"
       id="path1584"
       style="fill:#ffffff" />
  </g>
  <g
     aria-label="DRUM MODE"
     style="font-style:normal;font-variant:normal;font-weight:normal;font-stretch:normal;font-size:6.66666651px;line-height:1.25;font-family:monospace;-inkscape-font-specification:'monospace, Normal';font-variant-ligatures:normal;font-variant-caps:normal;font-variant-numeric:normal;font-feature-settings:normal;text-align:start;letter-spacing:0px;word-spacing:0px;writing-mode:lr-tb;text-anchor:start;fill:#ffffff;fill-opacity:1;stroke:none"
     id="text3537"
     transform="translate(-58,-2)">
    <path
       d="m 99.47482,371.95964 q 0.83008,0 1.15885,-0.40691 0.32878,-0.41015 0.32878,-1.47786 0,-1.07747 -0.32878,-1.48438 -0.32552,-0.41015 -1.15885,-0.41015 h -0.3125 v 3.7793 z m 0.01302,-4.31967 q 1.11328,0 1.64063,0.59245 0.52734,0.59245 0.52734,1.84245 0,1.24349 -0.52734,1.83594 Q 100.60112,372.5 99.487841,372.5 h -0.986328 v -4.86003 z"
       id="path3539"
       inkscape:connector-curvature="0"
       style="fill:#ffffff;fill-opacity:1" />
    <path
       d="m 104.53992,370.20508 q 0.25391,0.0651 0.43295,0.24739 0.17903,0.17904 0.44596,0.71941 l 0.66081,1.32812 h -0.70638 l -0.57943,-1.22721 q -0.25065,-0.52409 -0.45247,-0.67383 -0.19857,-0.153 -0.52084,-0.153 h -0.62825 V 372.5 h -0.66081 v -4.86003 h 1.35417 q 0.80078,0 1.22721,0.36133 0.42643,0.36133 0.42643,1.04492 0,0.48177 -0.26367,0.78776 -0.26042,0.30274 -0.73568,0.3711 z m -1.34765,-2.02474 v 1.72526 h 0.7194 q 0.472,0 0.70312,-0.21159 0.23112,-0.21159 0.23112,-0.64779 0,-0.41992 -0.24739,-0.64127 -0.24414,-0.22461 -0.71289,-0.22461 z"
       id="path3541"
       inkscape:connector-curvature="0"
       style="fill:#ffffff;fill-opacity:1" />
    <path
       d="m 106.5549,370.63477 v -2.9948 h 0.66081 v 3.29427 q 0,0.35482 0.0195,0.50782 0.0195,0.14974 0.0684,0.23112 0.10416,0.19205 0.29948,0.28971 0.19856,0.0977 0.47851,0.0977 0.2832,0 0.47852,-0.0977 0.19531,-0.0977 0.30273,-0.28971 0.0488,-0.0814 0.0684,-0.23112 0.0195,-0.14974 0.0195,-0.5013 v -0.30599 -2.9948 h 0.65755 v 2.9948 q 0,0.74544 -0.0944,1.06119 -0.0911,0.3125 -0.31901,0.51758 -0.21484,0.19206 -0.49153,0.28646 -0.2767,0.0944 -0.62175,0.0944 -0.3418,0 -0.61849,-0.0944 -0.27669,-0.0944 -0.49479,-0.28646 -0.22461,-0.20182 -0.31901,-0.52083 -0.0944,-0.32227 -0.0944,-1.05794 z"
       id="path3543"
       inkscape:connector-curvature="0"
       style="fill:#ffffff;fill-opacity:1" />
    <path
       d="m 110.36675,367.63997 h 0.8789 l 0.83985,2.47396 0.84635,-2.47396 h 0.88216 V 372.5 h -0.60872 v -4.29362 l -0.86589,2.56185 h -0.49804 l -0.86914,-2.56185 V 372.5 h -0.60547 z"
       id="path3545"
       inkscape:connector-curvature="0"
       style="fill:#ffffff;fill-opacity:1" />
    <path
       d="m 118.38758,367.63997 h 0.87891 l 0.83984,2.47396 0.84635,-2.47396 h 0.88217 V 372.5 h -0.60873 v -4.29362 l -0.86588,2.56185 h -0.49805 l -0.86914,-2.56185 V 372.5 h -0.60547 z"
       id="path3547"
       inkscape:connector-curvature="0"
       style="fill:#ffffff;fill-opacity:1" />
    <path
       d="m 125.06401,370.07487 q 0,-1.07096 -0.22135,-1.52995 -0.2181,-0.45898 -0.7194,-0.45898 -0.49805,0 -0.7194,0.45898 -0.2181,0.45899 -0.2181,1.52995 0,1.06771 0.2181,1.52669 0.22135,0.45899 0.7194,0.45899 0.5013,0 0.7194,-0.45573 0.22135,-0.45899 0.22135,-1.52995 z m 0.68685,0 q 0,1.26953 -0.40364,1.89453 -0.40039,0.625 -1.22396,0.625 -0.82357,0 -1.22396,-0.62174 -0.40039,-0.62175 -0.40039,-1.89779 0,-1.27279 0.40039,-1.89779 0.40365,-0.625 1.22396,-0.625 0.82357,0 1.22396,0.625 0.40364,0.625 0.40364,1.89779 z"
       id="path3549"
       inkscape:connector-curvature="0"
       style="fill:#ffffff;fill-opacity:1" />
    <path
       d="m 127.54774,371.95964 q 0.83007,0 1.15885,-0.40691 0.32878,-0.41015 0.32878,-1.47786 0,-1.07747 -0.32878,-1.48438 -0.32552,-0.41015 -1.15885,-0.41015 h -0.3125 v 3.7793 z m 0.013,-4.31967 q 1.11328,0 1.64062,0.59245 0.52735,0.59245 0.52735,1.84245 0,1.24349 -0.52735,1.83594 -0.52734,0.58919 -1.64062,0.58919 h -0.98633 v -4.86003 z"
       id="path3551"
       inkscape:connector-curvature="0"
       style="fill:#ffffff;fill-opacity:1" />
    <path
       d="m 130.78016,367.63997 h 2.88411 v 0.55339 h -2.22656 v 1.4388 h 2.12891 v 0.55339 h -2.12891 v 1.76106 h 2.28841 V 372.5 h -2.94596 z"
       id="path3553"
       inkscape:connector-curvature="0"
       style="fill:#ffffff;fill-opacity:1" />
  </g>
  <g
     aria-label="FLIP"
     style="font-style:normal;font-variant:normal;font-weight:normal;font-stretch:normal;font-size:6.66667px;line-height:1.25;font-family:monospace;-inkscape-font-specification:'monospace, Normal';font-variant-ligatures:normal;font-variant-caps:normal;font-variant-numeric:normal;font-feature-settings:normal;text-align:start;letter-spacing:0px;word-spacing:0px;writing-mode:lr-tb;text-anchor:start;fill:#ffffff;fill-opacity:1;stroke:none"
     id="text3575"
     transform="translate(27,-64.350065)">
    <path
       d="m 41.869574,394.02886 h 2.861328 v 0.55338 h -2.200521 v 1.4323 h 1.995443 v 0.55338 h -1.995443 v 2.32097 h -0.660807 z"
       id="path3577"
       inkscape:connector-curvature="0"
       style="fill:#ffffff;fill-opacity:1" />
    <path
       d="m 45.821397,394.02886 h 0.660807 v 4.30664 h 2.347005 v 0.55339 h -3.007812 z"
       id="path3579"
       inkscape:connector-curvature="0"
       style="fill:#ffffff;fill-opacity:1" />
    <path
       d="m 49.786241,394.02886 h 2.698567 v 0.55338 h -1.01888 v 3.75326 h 1.01888 v 0.55339 h -2.698567 v -0.55339 h 1.01888 v -3.75326 h -1.01888 z"
       id="path3581"
       inkscape:connector-curvature="0"
       style="fill:#ffffff;fill-opacity:1" />
    <path
       d="m 54.441189,394.56922 v 1.82618 h 0.761719 q 0.455729,0 0.709635,-0.24089 0.257161,-0.24088 0.257161,-0.67383 0,-0.43294 -0.253906,-0.67057 -0.253906,-0.24089 -0.71289,-0.24089 z m -0.657552,-0.54036 h 1.419271 q 0.813802,0 1.233723,0.37109 0.419922,0.36784 0.419922,1.08073 0,0.7194 -0.419922,1.08724 -0.416666,0.36784 -1.233723,0.36784 h -0.761719 v 1.95313 h -0.657552 z"
       id="path3583"
       inkscape:connector-curvature="0"
       style="fill:#ffffff;fill-opacity:1" />
  </g>
  <g
     aria-label="SHIFT"
     style="font-style:normal;font-variant:normal;font-weight:normal;font-stretch:normal;font-size:6.66667px;line-height:1.25;font-family:monospace;-inkscape-font-specification:'monospace, Normal';font-variant-ligatures:normal;font-variant-caps:normal;font-variant-numeric:normal;font-feature-settings:normal;text-align:start;letter-spacing:0px;word-spacing:0px;writing-mode:lr-tb;text-anchor:start;fill:#ffffff;fill-opacity:1;stroke:none"
     id="text3588"
     transform="translate(17.611111,-56.666625)">
    <path
       d="m 79.683156,386.4171 v 0.66732 q -0.299479,-0.19206 -0.602213,-0.28971 -0.299479,-0.0977 -0.605469,-0.0977 -0.465495,0 -0.735677,0.2181 -0.270182,0.21484 -0.270182,0.58268 0,0.32227 0.175781,0.49154 0.179036,0.16927 0.664062,0.2832 l 0.345052,0.0781 q 0.683594,0.1595 0.996094,0.5013 0.3125,0.3418 0.3125,0.93099 0,0.69336 -0.429687,1.05794 -0.429688,0.36459 -1.25,0.36459 -0.341797,0 -0.686849,-0.0749 -0.345052,-0.0716 -0.69336,-0.2181 v -0.69987 q 0.374349,0.23763 0.706381,0.3483 0.335286,0.11068 0.673828,0.11068 0.498047,0 0.774739,-0.22135 0.276693,-0.22461 0.276693,-0.625 0,-0.36459 -0.192057,-0.55664 -0.188802,-0.19206 -0.660808,-0.29623 l -0.351562,-0.0814 q -0.677083,-0.15299 -0.983073,-0.46224 -0.30599,-0.30924 -0.30599,-0.83008 0,-0.65104 0.436198,-1.04166 0.439453,-0.39388 1.165365,-0.39388 0.279948,0 0.589193,0.0651 0.309244,0.0618 0.651041,0.1888 z"
       id="path3590"
       inkscape:connector-curvature="0"
       style="fill:#ffffff;fill-opacity:1" />
    <path
       d="m 80.845266,386.25109 h 0.660807 v 1.99219 h 1.80013 v -1.99219 h 0.660807 v 4.86002 h -0.660807 v -2.31445 h -1.80013 v 2.31445 h -0.660807 z"
       id="path3592"
       inkscape:connector-curvature="0"
       style="fill:#ffffff;fill-opacity:1" />
    <path
       d="m 85.064015,386.25109 h 2.698568 v 0.55338 h -1.01888 v 3.75326 h 1.01888 v 0.55338 h -2.698568 v -0.55338 h 1.018881 v -3.75326 h -1.018881 z"
       id="path3594"
       inkscape:connector-curvature="0"
       style="fill:#ffffff;fill-opacity:1" />
    <path
       d="m 89.178599,386.25109 h 2.861328 v 0.55338 h -2.200521 v 1.4323 h 1.995443 v 0.55338 h -1.995443 v 2.32096 h -0.660807 z"
       id="path3596"
       inkscape:connector-curvature="0"
       style="fill:#ffffff;fill-opacity:1" />
    <path
       d="m 92.583546,386.25109 h 3.707683 v 0.55338 h -1.520183 v 4.30664 h -0.660807 v -4.30664 h -1.526693 z"
       id="path3598"
       inkscape:connector-curvature="0"
       style="fill:#ffffff;fill-opacity:1" />
  </g>
  <g
     aria-label="EOC"
     style="font-style:normal;font-variant:normal;font-weight:normal;font-stretch:normal;font-size:6.66666651px;line-height:1.25;font-family:monospace;-inkscape-font-specification:'monospace, Normal';font-variant-ligatures:normal;font-variant-caps:normal;font-variant-numeric:normal;font-feature-settings:normal;text-align:start;letter-spacing:0px;word-spacing:0px;writing-mode:lr-tb;text-anchor:start;fill:#ffffff;fill-opacity:1;stroke:none"
     id="text5042"
     transform="translate(-4,-1.59444)">
    <path
       d="m 129.64128,367.63997 h 2.88411 v 0.55339 h -2.22656 v 1.4388 h 2.1289 v 0.55339 h -2.1289 v 1.76106 h 2.28841 V 372.5 h -2.94596 z"
       id="path5044"
       inkscape:connector-curvature="0"
       style="fill:#ffffff;fill-opacity:1" />
    <path
       d="m 135.95638,370.07487 q 0,-1.07096 -0.22135,-1.52995 -0.2181,-0.45898 -0.71941,-0.45898 -0.49804,0 -0.7194,0.45898 -0.2181,0.45899 -0.2181,1.52995 0,1.06771 0.2181,1.52669 0.22136,0.45899 0.7194,0.45899 0.50131,0 0.71941,-0.45573 0.22135,-0.45899 0.22135,-1.52995 z m 0.68685,0 q 0,1.26953 -0.40365,1.89453 -0.40039,0.625 -1.22396,0.625 -0.82356,0 -1.22395,-0.62174 -0.40039,-0.62175 -0.40039,-1.89779 0,-1.27279 0.40039,-1.89779 0.40364,-0.625 1.22395,-0.625 0.82357,0 1.22396,0.625 0.40365,0.625 0.40365,1.89779 z"
       id="path5046"
       inkscape:connector-curvature="0"
       style="fill:#ffffff;fill-opacity:1" />
    <path
       d="m 140.51367,372.32747 q -0.25065,0.13347 -0.51432,0.19857 -0.26367,0.0684 -0.5599,0.0684 -0.93424,0 -1.45182,-0.66081 -0.51432,-0.6608 -0.51432,-1.85872 0,-1.19141 0.51758,-1.85547 0.52083,-0.66732 1.44856,-0.66732 0.29623,0 0.5599,0.0684 0.26367,0.0651 0.51432,0.19857 v 0.67383 q -0.24088,-0.19857 -0.51758,-0.30274 -0.27669,-0.10416 -0.55664,-0.10416 -0.64127,0 -0.96028,0.49479 -0.31901,0.49479 -0.31901,1.49414 0,0.99609 0.31901,1.49089 0.31901,0.49479 0.96028,0.49479 0.28646,0 0.5599,-0.10417 0.27669,-0.10417 0.51432,-0.30273 z"
       id="path5048"
       inkscape:connector-curvature="0"
       style="fill:#ffffff;fill-opacity:1" />
  </g>
  <g
     aria-label="CLK"
     style="font-style:normal;font-variant:normal;font-weight:normal;font-stretch:normal;font-size:9.33333302px;line-height:1.25;font-family:monospace;-inkscape-font-specification:'monospace, Normal';font-variant-ligatures:normal;font-variant-caps:normal;font-variant-numeric:normal;font-feature-settings:normal;text-align:start;letter-spacing:0px;word-spacing:0px;writing-mode:lr-tb;text-anchor:start;fill:#ffffff;fill-opacity:1;stroke:none"
     id="text1369"
     transform="translate(0.833333,-0.2777746)">
    <path
       d="m 9.8899747,31.6419 q -0.3509114,0.186849 -0.720052,0.277995 -0.3691406,0.0957 -0.7838542,0.0957 -1.3079426,0 -2.032552,-0.925131 -0.720052,-0.92513 -0.720052,-2.602213 0,-1.667969 0.7246093,-2.597656 0.7291667,-0.934245 2.0279947,-0.934245 0.4147136,0 0.7838542,0.0957 0.3691406,0.09115 0.720052,0.277995 V 26.27341 Q 9.5527352,25.995416 9.1653654,25.849582 8.7779956,25.703749 8.3860685,25.703749 q -0.8977864,0 -1.3444009,0.692708 -0.4466146,0.692709 -0.4466146,2.091797 0,1.394531 0.4466146,2.08724 0.4466145,0.692708 1.3444009,0.692708 0.4010417,0 0.7838542,-0.145833 0.3873698,-0.145834 0.720052,-0.423829 z"
       id="path1383"
       inkscape:connector-curvature="0"
       style="fill:#ffffff;fill-opacity:1" />
    <path
       d="m 11.594402,25.0794 h 0.92513 v 6.029297 h 3.285807 v 0.774739 h -4.210937 z"
       id="path1385"
       inkscape:connector-curvature="0"
       style="fill:#ffffff;fill-opacity:1" />
    <path
       d="m 16.853516,25.0794 h 0.92513 v 3.026042 L 20.654297,25.0794 h 1.080078 l -2.647786,2.779948 2.72526,4.024088 H 20.69987 l -2.219401,-3.408854 -0.701823,0.747396 v 2.661458 h -0.92513 z"
       id="path1387"
       inkscape:connector-curvature="0"
       style="fill:#ffffff;fill-opacity:1" />
  </g>
  <g
     aria-label="RST"
     style="font-style:normal;font-variant:normal;font-weight:normal;font-stretch:normal;font-size:9.33333302px;line-height:1.25;font-family:monospace;-inkscape-font-specification:'monospace, Normal';font-variant-ligatures:normal;font-variant-caps:normal;font-variant-numeric:normal;font-feature-settings:normal;text-align:start;letter-spacing:0px;word-spacing:0px;writing-mode:lr-tb;text-anchor:start;fill:#ffffff;fill-opacity:1;stroke:none"
     id="text1373"
     transform="translate(3.126082,-0.2777776)">
    <path
       d="m 33.185767,28.670546 q 0.355468,0.09115 0.60612,0.346354 0.250651,0.250651 0.624348,1.007161 l 0.925131,1.859375 h -0.988933 l -0.811198,-1.718099 q -0.350911,-0.733724 -0.633463,-0.943359 -0.277995,-0.214193 -0.729167,-0.214193 h -0.879557 v 2.875651 h -0.92513 V 25.0794 h 1.895833 q 1.121094,0 1.718099,0.505859 0.597005,0.50586 0.597005,1.462891 0,0.674479 -0.36914,1.102864 -0.364584,0.423829 -1.029948,0.519532 z M 31.299048,25.83591 v 2.415365 h 1.007161 q 0.660808,0 0.984375,-0.296224 0.323568,-0.296224 0.323568,-0.906901 0,-0.587891 -0.346354,-0.897787 -0.341797,-0.314453 -0.998047,-0.314453 z"
       id="path1390"
       inkscape:connector-curvature="0"
       style="fill:#ffffff;fill-opacity:1" />
    <path
       d="m 39.948787,25.311822 v 0.934245 q -0.419271,-0.268881 -0.843099,-0.405599 -0.419271,-0.136719 -0.847656,-0.136719 -0.651693,0 -1.029948,0.305338 -0.378255,0.300782 -0.378255,0.815756 0,0.451171 0.246094,0.688151 0.250651,0.236979 0.929687,0.396484 l 0.483073,0.109375 q 0.957031,0.223307 1.394531,0.701823 0.4375,0.478516 0.4375,1.303385 0,0.970703 -0.601562,1.48112 -0.601563,0.510417 -1.75,0.510417 -0.478516,0 -0.961589,-0.104818 -0.483073,-0.10026 -0.970703,-0.305339 v -0.979817 q 0.524089,0.332682 0.988933,0.48763 0.469401,0.154948 0.943359,0.154948 0.697265,0 1.084635,-0.309896 0.38737,-0.314453 0.38737,-0.875 0,-0.510417 -0.26888,-0.779297 -0.264323,-0.26888 -0.92513,-0.414713 l -0.492188,-0.113933 q -0.947916,-0.214192 -1.376302,-0.647135 -0.428385,-0.432943 -0.428385,-1.162109 0,-0.911459 0.610677,-1.458334 0.615234,-0.551432 1.63151,-0.551432 0.391927,0 0.82487,0.09115 0.432943,0.08659 0.911458,0.264323 z"
       id="path1392"
       inkscape:connector-curvature="0"
       style="fill:#ffffff;fill-opacity:1" />
    <path
       d="m 41.165584,25.0794 h 5.190755 v 0.77474 h -2.128255 v 6.029296 h -0.92513 V 25.85414 h -2.13737 z"
       id="path1394"
       inkscape:connector-curvature="0"
       style="fill:#ffffff;fill-opacity:1" />
  </g>
  <g
     aria-label="START"
     style="font-style:normal;font-variant:normal;font-weight:normal;font-stretch:normal;font-size:9.33333302px;line-height:1.25;font-family:monospace;-inkscape-font-specification:'monospace, Normal';font-variant-ligatures:normal;font-variant-caps:normal;font-variant-numeric:normal;font-feature-settings:normal;text-align:start;letter-spacing:0px;word-spacing:0px;writing-mode:lr-tb;text-anchor:start;fill:#ffffff;fill-opacity:1;stroke:none"
     id="text1381"
     transform="translate(5.644315,-0.2777776)">
    <path
       d="m 64.3342,25.311822 v 0.934245 q -0.41927,-0.268881 -0.843099,-0.405599 -0.41927,-0.136719 -0.847656,-0.136719 -0.651692,0 -1.029948,0.305338 -0.378255,0.300782 -0.378255,0.815756 0,0.451171 0.246094,0.688151 0.250651,0.236979 0.929687,0.396484 l 0.483073,0.109375 q 0.957031,0.223307 1.394531,0.701823 0.4375,0.478516 0.4375,1.303385 0,0.970703 -0.601562,1.48112 -0.601563,0.510417 -1.75,0.510417 -0.478516,0 -0.961588,-0.104818 -0.483073,-0.10026 -0.970704,-0.305339 v -0.979817 q 0.524089,0.332682 0.988933,0.48763 0.469401,0.154948 0.943359,0.154948 0.697266,0 1.084635,-0.309896 0.38737,-0.314453 0.38737,-0.875 0,-0.510417 -0.26888,-0.779297 -0.264323,-0.26888 -0.92513,-0.414713 l -0.492188,-0.113933 q -0.947916,-0.214192 -1.376302,-0.647135 -0.428385,-0.432943 -0.428385,-1.162109 0,-0.911459 0.610677,-1.458334 0.615234,-0.551432 1.63151,-0.551432 0.391927,0 0.82487,0.09115 0.432943,0.08659 0.911458,0.264323 z"
       id="path1397"
       inkscape:connector-curvature="0"
       style="fill:#ffffff;fill-opacity:1" />
    <path
       d="m 65.550997,25.0794 h 5.190755 v 0.77474 h -2.128255 v 6.029296 h -0.92513 V 25.85414 h -2.13737 z"
       id="path1399"
       inkscape:connector-curvature="0"
       style="fill:#ffffff;fill-opacity:1" />
    <path
       d="m 73.758679,25.890598 -0.970703,3.481771 h 1.941406 z M 73.202689,25.0794 h 1.116537 l 2.082682,6.804036 H 75.449434 L 74.948132,30.11065 h -2.383463 l -0.492188,1.772786 h -0.952474 z"
       id="path1401"
       inkscape:connector-curvature="0"
       style="fill:#ffffff;fill-opacity:1" />
    <path
       d="m 80.029513,28.670546 q 0.355469,0.09115 0.60612,0.346354 0.250651,0.250651 0.624349,1.007161 l 0.92513,1.859375 H 81.19618 L 80.384982,30.165337 Q 80.03407,29.431613 79.751518,29.221978 79.473523,29.007785 79.022351,29.007785 h -0.879557 v 2.875651 h -0.92513 V 25.0794 h 1.895833 q 1.121094,0 1.718099,0.505859 0.597005,0.50586 0.597005,1.462891 0,0.674479 -0.36914,1.102864 -0.364584,0.423829 -1.029948,0.519532 z M 78.142794,25.83591 v 2.415365 h 1.007162 q 0.660807,0 0.984375,-0.296224 0.323567,-0.296224 0.323567,-0.906901 0,-0.587891 -0.346354,-0.897787 -0.341797,-0.314453 -0.998047,-0.314453 z"
       id="path1403"
       inkscape:connector-curvature="0"
       style="fill:#ffffff;fill-opacity:1" />
    <path
       d="m 82.394746,25.0794 h 5.190755 v 0.77474 h -2.128255 v 6.029296 h -0.92513 V 25.85414 h -2.13737 z"
       id="path1405"
       inkscape:connector-curvature="0"
       style="fill:#ffffff;fill-opacity:1" />
  </g>
  <path
     style="font-size:6.66667px;-inkscape-font-specification:sans-serif;text-align:center;text-anchor:middle;isolation:isolate;fill:#ffffff;fill-opacity:1;stroke-width:1.002"
     d="m 63.94636,275.08797 h -2.45117 v 1.36719 h 2.10612 v 0.57292 h -2.10612 v 2.33398 h -0.64453 v -4.847 h 3.0957 z m 4.34896,-0.0163 q 0.29623,0.32552 0.45248,0.79752 0.1595,0.47201 0.1595,1.07097 0,0.59896 -0.16276,1.07422 -0.1595,0.472 -0.44921,0.78776 -0.29948,0.32877 -0.70964,0.49479 -0.4069,0.16602 -0.93099,0.16602 -0.51107,0 -0.93099,-0.16927 -0.41667,-0.16928 -0.70964,-0.49154 -0.29297,-0.32227 -0.45247,-0.79102 -0.15625,-0.46875 -0.15625,-1.07096 0,-0.59245 0.15625,-1.0612 0.15625,-0.47201 0.45573,-0.80729 0.28646,-0.31901 0.70963,-0.48828 0.42644,-0.16927 0.92774,-0.16927 0.52083,0 0.93424,0.17252 0.41667,0.16927 0.70638,0.48503 z m -0.0586,1.86849 q 0,-0.94401 -0.42317,-1.45508 -0.42318,-0.51432 -1.1556,-0.51432 -0.73893,0 -1.16211,0.51432 -0.41992,0.51107 -0.41992,1.45508 0,0.95378 0.42968,1.46159 0.42969,0.50456 1.15235,0.50456 0.72265,0 1.14909,-0.50456 0.42968,-0.50781 0.42968,-1.46159 z m 4.75912,2.42187 h -3.06641 v -4.847 h 0.64454 v 4.27409 h 2.42187 z m 3.71094,0 h -3.06641 v -4.847 h 0.64453 v 4.27409 h 2.42188 z m 4.19271,-4.29036 q 0.29623,0.32552 0.45248,0.79752 0.1595,0.47201 0.1595,1.07097 0,0.59896 -0.16276,1.07422 -0.15951,0.472 -0.44922,0.78776 -0.29948,0.32877 -0.70963,0.49479 -0.40691,0.16602 -0.93099,0.16602 -0.51107,0 -0.93099,-0.16927 -0.41667,-0.16928 -0.70964,-0.49154 -0.29297,-0.32227 -0.45247,-0.79102 -0.15625,-0.46875 -0.15625,-1.07096 0,-0.59245 0.15625,-1.0612 0.15625,-0.47201 0.45572,-0.80729 0.28646,-0.31901 0.70964,-0.48828 0.42644,-0.16927 0.92775,-0.16927 0.52083,0 0.93424,0.17252 0.41667,0.16927 0.70638,0.48503 z m -0.0586,1.86849 q 0,-0.94401 -0.42318,-1.45508 -0.42317,-0.51432 -1.1556,-0.51432 -0.73893,0 -1.16211,0.51432 -0.41992,0.51107 -0.41992,1.45508 0,0.95378 0.42969,1.46159 0.42969,0.50456 1.15234,0.50456 0.72266,0 1.14909,-0.50456 0.42969,-0.50781 0.42969,-1.46159 z m 7.33399,-2.42513 -1.25977,4.847 H 86.1892 l -1.01888,-4.02343 -0.99609,4.02343 h -0.70964 l -1.28255,-4.847 h 0.6608 l 1.01888,4.02995 1.00261,-4.02995 h 0.6543 l 1.01237,4.06901 1.01237,-4.06901 z"
     id="text1"
     aria-label="FOLLOW" />
  <path
     d="m 35.586045,334.43793 h -0.836589 l -1.621094,-1.92709 h -0.908204 v 1.92709 h -0.644531 v -4.84701 h 1.357422 q 0.439454,0 0.732423,0.0586 0.292968,0.0553 0.527344,0.20183 0.263672,0.16601 0.410156,0.41992 0.14974,0.25065 0.14974,0.63802 0,0.52409 -0.263672,0.87891 -0.263672,0.35156 -0.725912,0.5306 z m -1.507162,-3.48308 q 0,-0.20833 -0.07487,-0.36784 -0.07161,-0.16276 -0.240885,-0.27343 -0.139974,-0.0944 -0.332032,-0.13021 -0.192057,-0.0391 -0.452474,-0.0391 h -0.758464 v 1.82942 H 32.8712 q 0.30599,0 0.533855,-0.0521 0.227865,-0.0553 0.38737,-0.20182 0.146484,-0.13672 0.214844,-0.3125 0.07161,-0.17904 0.07161,-0.45248 z m 5.745446,-0.80729 q 0.296224,0.32552 0.452474,0.79753 0.159505,0.472 0.159505,1.07096 0,0.59896 -0.16276,1.07422 -0.159506,0.47201 -0.449219,0.78776 -0.29948,0.32878 -0.709636,0.49479 -0.406901,0.16602 -0.93099,0.16602 -0.511068,0 -0.93099,-0.16927 -0.416667,-0.16927 -0.709636,-0.49154 -0.292969,-0.32226 -0.452474,-0.79101 -0.15625,-0.46876 -0.15625,-1.07097 0,-0.59245 0.15625,-1.0612 0.15625,-0.472 0.455729,-0.80729 0.286459,-0.31901 0.709636,-0.48828 0.426433,-0.16927 0.927735,-0.16927 0.520834,0 0.934245,0.17252 0.416667,0.16928 0.706381,0.48503 z m -0.05859,1.86849 q 0,-0.94401 -0.423177,-1.45508 -0.423178,-0.51432 -1.1556,-0.51432 -0.738932,0 -1.16211,0.51432 -0.419922,0.51107 -0.419922,1.45508 0,0.95378 0.429688,1.46159 0.429688,0.50456 1.152344,0.50456 0.722657,0 1.149089,-0.50456 0.429688,-0.50781 0.429688,-1.46159 z m 4.986982,-1.85221 h -1.731771 v 4.27409 h -0.644532 v -4.27409 h -1.731772 v -0.57292 h 4.108075 z m 4.082033,4.27409 h -0.686849 l -0.475261,-1.35091 h -2.096355 l -0.475261,1.35091 h -0.654297 l 1.764324,-4.84701 h 0.859375 z m -1.360678,-1.9043 -0.84961,-2.37956 -0.852865,2.37956 z m 5.162763,-2.36979 h -1.731771 v 4.27409 h -0.644532 v -4.27409 H 48.52876 v -0.57292 h 4.108075 z m 3.844403,4.27409 h -3.193361 v -4.84701 h 3.193361 v 0.57292 h -2.54883 v 1.32812 h 2.54883 v 0.57292 h -2.54883 v 1.80013 h 2.54883 z"
     id="text2"
     style="font-size:6.66667px;-inkscape-font-specification:sans-serif;text-align:center;text-anchor:middle;fill:#ffffff;stroke-width:1.002"
     aria-label="ROTATE" />
  <path
     d="m 29.057136,281.0235 q -0.179037,0.0781 -0.325521,0.14648 -0.143229,0.0684 -0.377604,0.14323 -0.198568,0.0618 -0.432943,0.10417 -0.23112,0.0456 -0.511068,0.0456 -0.527344,0 -0.960287,-0.14648 -0.429688,-0.14974 -0.748698,-0.4655 -0.312501,-0.30924 -0.488282,-0.7845 -0.175781,-0.47852 -0.175781,-1.11003 0,-0.59896 0.169271,-1.07096 0.169271,-0.47201 0.488281,-0.79753 0.309245,-0.31576 0.745443,-0.48177 0.439454,-0.16602 0.973308,-0.16602 0.390625,0 0.777995,0.0944 0.390625,0.0944 0.865886,0.33204 v 0.76497 h -0.04883 q -0.400391,-0.33529 -0.794271,-0.48828 -0.393881,-0.153 -0.8431,-0.153 -0.367838,0 -0.664063,0.12045 -0.292968,0.11718 -0.524088,0.36783 -0.22461,0.24415 -0.351563,0.61849 -0.123698,0.3711 -0.123698,0.85938 0,0.51107 0.136719,0.87891 0.139974,0.36784 0.358073,0.59896 0.227865,0.24088 0.530599,0.35807 0.30599,0.11393 0.644532,0.11393 0.465495,0 0.872396,-0.1595 0.406901,-0.15951 0.761719,-0.47852 h 0.04557 z m 3.977866,0.35156 h -3.066407 v -4.84701 h 0.644531 v 4.27409 h 2.421876 z m 3.837893,0 h -3.193361 v -4.84701 h 3.193361 v 0.57292 h -2.548829 v 1.32813 h 2.548829 v 0.57291 h -2.548829 v 1.80013 h 2.548829 z m 4.843753,0 h -0.68685 l -0.47526,-1.35091 h -2.096356 l -0.47526,1.35091 h -0.654297 l 1.764323,-4.84701 h 0.859376 z m -1.360678,-1.9043 -0.84961,-2.37956 -0.852865,2.37956 z m 6.106773,1.9043 h -0.836589 l -1.621095,-1.92708 h -0.908203 v 1.92708 h -0.644532 v -4.84701 h 1.357423 q 0.439453,0 0.732422,0.0586 0.292969,0.0553 0.527344,0.20182 0.263672,0.16602 0.410156,0.41992 0.14974,0.25065 0.14974,0.63802 0,0.52409 -0.263672,0.87891 -0.263672,0.35156 -0.725912,0.5306 z m -1.507162,-3.48307 q 0,-0.20834 -0.07487,-0.36784 -0.07162,-0.16276 -0.240886,-0.27344 -0.139974,-0.0944 -0.332031,-0.13021 -0.192058,-0.0391 -0.452474,-0.0391 h -0.758464 v 1.82943 h 0.651042 q 0.305989,0 0.533854,-0.0521 0.227865,-0.0553 0.38737,-0.20182 0.146484,-0.13672 0.214844,-0.3125 0.07162,-0.17904 0.07162,-0.45247 z"
     id="text3"
     style="font-size:6.66667px;-inkscape-font-specification:sans-serif;text-align:center;text-anchor:middle;fill:#ffffff;stroke-width:1.002"
     aria-label="CLEAR" />
  <path
     d="m 25.558844,295.94815 h -0.836589 l -1.621094,-1.92709 h -0.908204 v 1.92709 h -0.644531 v -4.84701 h 1.357422 q 0.439454,0 0.732423,0.0586 0.292968,0.0553 0.527344,0.20183 0.263672,0.16601 0.410156,0.41992 0.14974,0.25065 0.14974,0.63802 0,0.52409 -0.263672,0.87891 -0.263672,0.35156 -0.725912,0.53059 z m -1.507162,-3.48308 q 0,-0.20833 -0.07487,-0.36784 -0.07161,-0.16276 -0.240885,-0.27343 -0.139974,-0.0944 -0.332032,-0.13021 -0.192057,-0.0391 -0.452474,-0.0391 h -0.758464 v 1.82943 h 0.651042 q 0.30599,0 0.533855,-0.0521 0.227864,-0.0553 0.38737,-0.20182 0.146484,-0.13672 0.214844,-0.3125 0.07161,-0.17904 0.07161,-0.45248 z m 5.953779,3.48308 h -0.686849 l -0.475261,-1.35092 h -2.096355 l -0.475261,1.35092 h -0.654297 l 1.764324,-4.84701 h 0.859375 z m -1.360678,-1.9043 -0.849609,-2.37956 -0.852865,2.37956 z m 5.794274,1.9043 h -0.797526 l -2.298179,-4.33594 v 4.33594 h -0.602213 v -4.84701 h 0.999349 l 2.096355,3.95833 v -3.95833 h 0.602214 z m 5.384117,-2.41862 q 0,0.6608 -0.289714,1.19791 -0.286458,0.53711 -0.764974,0.83334 -0.332031,0.20507 -0.742188,0.29622 -0.406901,0.0912 -1.074219,0.0912 H 35.72812 v -4.84701 h 1.210938 q 0.709636,0 1.126303,0.10417 0.419922,0.10091 0.709635,0.27994 0.494792,0.30925 0.771485,0.82357 0.276693,0.51433 0.276693,1.22071 z m -0.673828,-0.01 q 0,-0.56966 -0.198568,-0.96029 -0.198568,-0.39062 -0.592448,-0.61523 -0.286459,-0.16276 -0.608725,-0.22461 -0.322265,-0.0651 -0.771484,-0.0651 h -0.605469 v 3.74024 h 0.605469 q 0.465495,0 0.810547,-0.0684 0.348307,-0.0684 0.638021,-0.2539 0.361328,-0.23112 0.540365,-0.60873 0.182292,-0.3776 0.182292,-0.94401 z m 5.328779,-1.86198 q 0.296224,0.32552 0.452474,0.79753 0.159505,0.472 0.159505,1.07096 0,0.59896 -0.16276,1.07422 -0.159506,0.47201 -0.449219,0.78776 -0.29948,0.32878 -0.709636,0.49479 -0.406901,0.16602 -0.93099,0.16602 -0.511068,0 -0.93099,-0.16927 -0.416667,-0.16927 -0.709636,-0.49154 -0.292969,-0.32227 -0.452474,-0.79102 -0.15625,-0.46875 -0.15625,-1.07096 0,-0.59245 0.15625,-1.0612 0.15625,-0.472 0.455729,-0.80729 0.286459,-0.31901 0.709636,-0.48828 Q 42.336196,291 42.837499,291 q 0.520833,0 0.934245,0.17252 0.416667,0.16927 0.706381,0.48503 z m -0.05859,1.86849 q 0,-0.94401 -0.423178,-1.45508 -0.423177,-0.51432 -1.155599,-0.51432 -0.738933,0 -1.16211,0.51432 -0.419922,0.51107 -0.419922,1.45508 0,0.95378 0.429688,1.46159 0.429687,0.50456 1.152344,0.50456 0.722657,0 1.149089,-0.50456 0.429688,-0.50781 0.429688,-1.46159 z m 6.009117,2.42188 h -0.644531 v -4.17644 l -1.347657,2.8418 h -0.384115 l -1.337891,-2.8418 v 4.17644 H 46.11224 v -4.84701 h 0.878907 l 1.292318,2.69857 1.250001,-2.69857 h 0.895182 z"
     id="text4"
     style="font-size:6.66667px;-inkscape-font-specification:sans-serif;text-align:center;text-anchor:middle;fill:#ffffff;stroke-width:1.002"
     aria-label="RANDOM" />
</svg>
