<?xml version="1.0" encoding="UTF-8" standalone="no"?>
<!-- Created with Inkscape (http://www.inkscape.org/) -->

<svg
   width="60"
   height="380"
   viewBox="0 0 15.875 100.54166"
   version="1.1"
   id="svg12553"
   inkscape:version="1.3.2 (091e20e, 2023-11-25)"
   sodipodi:docname="Quantizer.svg"
   xmlns:inkscape="http://www.inkscape.org/namespaces/inkscape"
   xmlns:sodipodi="http://sodipodi.sourceforge.net/DTD/sodipodi-0.dtd"
   xmlns="http://www.w3.org/2000/svg"
   xmlns:svg="http://www.w3.org/2000/svg"
   xmlns:rdf="http://www.w3.org/1999/02/22-rdf-syntax-ns#"
   xmlns:cc="http://creativecommons.org/ns#"
   xmlns:dc="http://purl.org/dc/elements/1.1/">
  <defs
     id="defs12547" />
  <sodipodi:namedview
     id="base"
     pagecolor="#ffffff"
     bordercolor="#666666"
     borderopacity="1.0"
     inkscape:pageopacity="0.0"
     inkscape:pageshadow="2"
     inkscape:zoom="1.979899"
     inkscape:cx="31.314729"
     inkscape:cy="222.4861"
     inkscape:document-units="px"
     inkscape:current-layer="layer1"
     showgrid="true"
     fit-margin-top="0"
     fit-margin-left="0"
     fit-margin-right="0"
     fit-margin-bottom="0"
     units="px"
     inkscape:window-width="1424"
     inkscape:window-height="962"
     inkscape:window-x="753"
     inkscape:window-y="233"
     inkscape:window-maximized="0"
     inkscape:snap-global="false"
     inkscape:showpageshadow="2"
     inkscape:pagecheckerboard="0"
     inkscape:deskcolor="#d1d1d1">
    <inkscape:grid
       type="xygrid"
       id="grid12870"
       originx="-20.372917"
       originy="84.666661"
       spacingy="1"
       spacingx="1"
       units="px"
       visible="true" />
  </sodipodi:namedview>
  <metadata
     id="metadata12550">
    <rdf:RDF>
      <cc:Work
         rdf:about="">
        <dc:format>image/svg+xml</dc:format>
        <dc:type
           rdf:resource="http://purl.org/dc/dcmitype/StillImage" />
      </cc:Work>
    </rdf:RDF>
  </metadata>
  <g
     inkscape:label="Layer 1"
     inkscape:groupmode="layer"
     id="layer1"
     transform="translate(-26.543497,-161.30655)">
    <path
       inkscape:connector-curvature="0"
       id="path33453"
       d="m 26.543497,161.45211 h 15.874999 v 100.3961 H 26.543497 Z m 0,0"
       style="fill:#333333;fill-opacity:1;fill-rule:nonzero;stroke:none;stroke-width:0.11770677" />
    <rect
       y="237.77153"
       x="35.527634"
       height="4.5004501"
       width="4.5051761"
       id="rect909"
       style="fill:#1996fc;fill-opacity:1;stroke:#1996fc;stroke-width:0.0636126;stroke-miterlimit:4;stroke-dasharray:none;stroke-opacity:1" />
    <g
       transform="matrix(0.37757778,0,0,0.37757778,21.988293,156.36556)"
       id="layer1-8"
       inkscape:label="Layer 1">
      <rect
         y="256.12662"
         x="29.52006"
         height="1.6536458"
         width="7.2760415"
         id="rect823"
         style="fill:#ffffff;fill-opacity:1;stroke:none;stroke-width:0.71059781;stroke-miterlimit:4;stroke-dasharray:none;stroke-opacity:1" />
      <rect
         y="256.57309"
         x="28.643627"
         height="0.51248246"
         width="9.0803432"
         id="rect821"
         style="fill:#ffffff;fill-opacity:1;stroke:none;stroke-width:0.17694761;stroke-miterlimit:4;stroke-dasharray:none;stroke-opacity:1" />
      <ellipse
         ry="5.8699069"
         rx="6.1973119"
         cy="250.78661"
         cx="33.068214"
         id="path817"
         style="fill:#ffffff;fill-opacity:1;stroke:none;stroke-width:0.29476252;stroke-miterlimit:4;stroke-dasharray:none;stroke-opacity:1" />
      <rect
         y="257.08557"
         x="28.265131"
         height="4.3030396"
         width="9.541522"
         id="rect819"
         style="fill:#ffffff;fill-opacity:1;stroke:none;stroke-width:0.23695372;stroke-miterlimit:4;stroke-dasharray:none;stroke-opacity:1" />
      <path
         style="fill:#54b6fc;stroke-width:0.43423772"
         d="m 28.040353,261.67777 c -0.05624,-0.1049 -0.09132,-1.05343 -0.09132,-2.46939 0,-2.62823 -0.06483,-2.41007 0.868669,-2.92327 0.298327,-0.16393 0.542417,-0.32331 0.542417,-0.35402 0,-0.0309 -0.162318,-0.16826 -0.360716,-0.30583 -1.028016,-0.71241 -2.013971,-2.17766 -2.338877,-3.47584 -0.201325,-0.80442 -0.134174,-2.39054 0.13451,-3.17721 1.033244,-3.02511 4.386038,-4.85502 7.661927,-4.18175 2.136444,0.4391 3.832748,1.7715 4.690824,3.6846 0.361925,0.8069 0.484002,1.41362 0.481552,2.39329 -0.0043,1.76252 -0.804317,3.40089 -2.221636,4.55038 -0.254647,0.20641 -0.463011,0.4065 -0.463011,0.44439 0,0.038 0.188503,0.17638 0.418915,0.30774 0.88078,0.5022 0.815782,0.26078 0.815782,3.02947 0,1.77735 -0.02862,2.465 -0.105831,2.54221 -0.07977,0.0796 -1.316324,0.10568 -5.023888,0.10568 -4.772077,0 -4.920765,-0.006 -5.009351,-0.17069 z m 4.778272,-1.34136 c 0.02029,-0.72066 0.0537,-0.91258 0.172084,-0.98706 0.106484,-0.067 0.185415,-0.0605 0.286623,0.0243 0.110188,0.0915 0.139673,0.2998 0.139673,0.98705 v 0.87111 h 2.031202 c 1.725502,0 2.038854,-0.0189 2.082046,-0.13248 0.118689,-0.30933 -0.0843,-0.54865 -1.048716,-1.23644 -0.806681,-0.57531 -0.992,-0.74828 -0.992,-0.92603 0,-0.17285 0.05069,-0.22425 0.242529,-0.24644 l 0.242526,-0.0279 v -0.72694 c 0,-0.82266 0.11329,-1.0851 0.425635,-0.98597 0.182308,0.0579 0.191777,0.11143 0.193075,1.09112 6.9e-4,0.56673 0.03051,1.07216 0.06615,1.12322 0.107317,0.15365 0.691445,0.5686 0.80071,0.5686 0.07253,0 0.101903,-0.37768 0.101903,-1.30922 0,-1.48548 0.04525,-1.38286 -0.823095,-1.86798 l -0.514419,-0.28745 -0.896236,0.29918 c -0.869904,0.29041 -0.937695,0.2992 -2.307746,0.29891 -1.355532,-2.1e-4 -1.441911,-0.0113 -2.177833,-0.27426 l -0.766317,-0.27401 -0.710913,0.40097 -0.710915,0.40096 v 1.35053 c 0,0.7428 0.02272,1.35058 0.05046,1.35058 0.02775,0 0.226187,-0.10309 0.440962,-0.22887 l 0.390524,-0.22887 0.0014,-0.89557 c 0.0016,-1.14751 0.206306,-1.60144 0.561721,-1.24599 0.108544,0.1085 0.142513,0.31853 0.142513,0.88028 v 0.7378 l 0.290718,-0.0471 c 0.315025,-0.0511 0.543194,0.11558 0.458905,0.33517 -0.02597,0.0676 -0.562393,0.43193 -1.192126,0.80964 -1.113533,0.66789 -1.144968,0.69508 -1.144968,0.9907 v 0.30396 h 2.069441 2.069444 z m 2.265337,-4.35748 c 1.820054,-0.60937 3.301106,-2.14018 3.754405,-3.88051 0.141672,-0.5439 0.182494,-2.03256 0.06101,-2.22398 -0.0547,-0.0862 -0.514454,-0.10647 -1.993182,-0.0881 l -1.922097,0.0243 -0.285943,0.79373 c -0.250451,0.69526 -0.311823,0.79372 -0.494567,0.79372 -0.193669,0 -0.219614,-0.0593 -0.361764,-0.82692 -0.233437,-1.26061 -0.264438,-1.24093 -0.550459,0.34982 -0.250913,1.39568 -0.282965,1.49134 -0.499452,1.49134 -0.208819,0 -0.19843,0.0455 -0.591264,-2.59459 -0.179846,-1.20877 -0.366691,-2.21079 -0.415197,-2.22673 -0.04851,-0.0164 -0.346157,0.47702 -0.661443,1.09535 l -0.573255,1.12428 -1.649981,0.0244 -1.649981,0.0243 -0.05961,0.3176 c -0.100912,0.53789 0.02055,1.63287 0.25608,2.31038 0.480987,1.38307 1.462121,2.47313 2.838905,3.15409 1.070426,0.52942 1.68831,0.6568 2.998555,0.61816 0.870867,-0.027 1.189545,-0.0752 1.799239,-0.27931 z m -2.582339,-0.34598 c -0.501349,-0.14204 -0.612279,-0.23104 -0.568647,-0.45582 0.02803,-0.14447 0.130451,-0.16555 0.868148,-0.17909 0.460004,-0.008 0.975273,-0.0281 1.145044,-0.0441 0.276178,-0.0243 0.311494,-0.006 0.335474,0.20237 0.023,0.19722 -0.02543,0.25187 -0.329357,0.37355 -0.522805,0.20913 -0.965587,0.24078 -1.450662,0.1031 z m -1.6422,-2.07469 c -0.09701,-0.0972 -0.176384,-0.25567 -0.176384,-0.35282 0,-0.24453 0.308426,-0.52913 0.573253,-0.52913 0.264818,0 0.573252,0.28468 0.573252,0.52913 0,0.24455 -0.308429,0.52918 -0.573252,0.52918 -0.121275,0 -0.299857,-0.0793 -0.396869,-0.17636 z m 3.439517,-0.0882 c -0.232761,-0.23267 -0.222508,-0.40285 0.0401,-0.66546 0.243582,-0.24345 0.329798,-0.25996 0.605107,-0.11502 0.242042,0.12748 0.321863,0.24591 0.323575,0.48022 0.0031,0.43406 -0.63668,0.63239 -0.968767,0.30029 z m -1.151475,-4.27736 c 0.296559,-1.78581 0.575578,-1.83207 0.874871,-0.14501 0.09772,0.55084 0.197295,1.02113 0.221263,1.04511 0.08271,0.0828 0.212362,-0.0613 0.273139,-0.30344 0.117052,-0.46642 0.107419,-0.46436 2.176972,-0.46436 2.188984,0 2.146871,0.0162 1.845872,-0.66529 -0.655344,-1.4815 -2.160669,-2.71162 -3.887876,-3.17706 -0.773684,-0.20858 -2.314597,-0.21425 -3.086746,-0.0113 -1.862761,0.48917 -3.433992,1.84034 -4.06194,3.49292 l -0.172218,0.45328 1.47768,-0.0243 1.477684,-0.0244 0.705541,-1.38465 c 0.388047,-0.76156 0.755433,-1.43456 0.816413,-1.4955 0.244962,-0.24482 0.364055,0.12518 0.643002,1.99713 0.151683,1.01798 0.296644,1.88465 0.322123,1.92588 0.102882,0.16637 0.192723,-0.12627 0.374219,-1.21922 z"
         id="path4012-0"
         inkscape:connector-curvature="0" />
      <path
         style="fill:#a0a0a0;stroke-width:0.43423772"
         d="m 28.040353,261.67777 c -0.05624,-0.1049 -0.09132,-1.05343 -0.09132,-2.46939 0,-2.62823 -0.06483,-2.41007 0.868669,-2.92327 0.298327,-0.16393 0.542417,-0.32331 0.542417,-0.35402 0,-0.0309 -0.162318,-0.16826 -0.360716,-0.30583 -1.028016,-0.71241 -2.013971,-2.17766 -2.338877,-3.47584 -0.201325,-0.80442 -0.134174,-2.39054 0.13451,-3.17721 1.033244,-3.02511 4.386038,-4.85502 7.661927,-4.18175 2.136444,0.4391 3.832748,1.7715 4.690824,3.6846 0.361925,0.8069 0.484002,1.41362 0.481552,2.39329 -0.0043,1.76252 -0.804317,3.40089 -2.221636,4.55038 -0.254647,0.20641 -0.463011,0.4065 -0.463011,0.44439 0,0.038 0.188503,0.17638 0.418915,0.30774 0.88078,0.5022 0.815782,0.26078 0.815782,3.02947 0,1.77735 -0.02862,2.465 -0.105831,2.54221 -0.07977,0.0796 -1.316324,0.10568 -5.023888,0.10568 -4.772077,0 -4.920765,-0.006 -5.009351,-0.17069 z m 4.778272,-1.34136 c 0.02029,-0.72066 0.0537,-0.91258 0.172084,-0.98706 0.106484,-0.067 0.185415,-0.0605 0.286623,0.0243 0.110188,0.0915 0.139673,0.2998 0.139673,0.98705 v 0.87111 h 2.031202 c 1.725502,0 2.038854,-0.0189 2.082046,-0.13248 0.118689,-0.30933 -0.0843,-0.54865 -1.048716,-1.23644 -0.806681,-0.57531 -0.992,-0.74828 -0.992,-0.92603 0,-0.17285 0.05069,-0.22425 0.242529,-0.24644 l 0.242526,-0.0279 v -0.72694 c 0,-0.82266 0.11329,-1.0851 0.425635,-0.98597 0.182308,0.0579 0.191777,0.11143 0.193075,1.09112 6.9e-4,0.56673 0.03051,1.07216 0.06615,1.12322 0.107317,0.15365 0.691445,0.5686 0.80071,0.5686 0.07253,0 0.101903,-0.37768 0.101903,-1.30922 0,-1.48548 0.04525,-1.38286 -0.823095,-1.86798 l -0.514419,-0.28745 -0.896236,0.29918 c -0.869904,0.29041 -0.937695,0.2992 -2.307746,0.29891 -1.355532,-2.1e-4 -1.441911,-0.0113 -2.177833,-0.27426 l -0.766317,-0.27401 -0.710913,0.40097 -0.710915,0.40096 v 1.35053 c 0,0.7428 0.02272,1.35058 0.05046,1.35058 0.02775,0 0.226187,-0.10309 0.440962,-0.22887 l 0.390524,-0.22887 0.0014,-0.89557 c 0.0016,-1.14751 0.206306,-1.60144 0.561721,-1.24599 0.108544,0.1085 0.142513,0.31853 0.142513,0.88028 v 0.7378 l 0.290718,-0.0471 c 0.315025,-0.0511 0.543194,0.11558 0.458905,0.33517 -0.02597,0.0676 -0.562393,0.43193 -1.192126,0.80964 -1.113533,0.66789 -1.144968,0.69508 -1.144968,0.9907 v 0.30396 h 2.069441 2.069444 z m 2.265337,-4.35748 c 1.403562,-0.46993 2.640938,-1.50058 3.294283,-2.74387 0.429067,-0.81653 0.595175,-1.49004 0.593708,-2.40729 -0.002,-1.2675 0.205601,-1.15 -2.032309,-1.15 -1.442955,0 -1.942613,0.0275 -1.996101,0.11041 -0.03924,0.0606 -0.191398,0.42737 -0.338104,0.81498 -0.382438,1.0104 -0.497129,0.9789 -0.708436,-0.1945 -0.249425,-1.38497 -0.369803,-1.31205 -0.674781,0.40874 -0.236279,1.33315 -0.338408,1.62908 -0.50309,1.45776 -0.04428,-0.0461 -0.22394,-1.07598 -0.399194,-2.28859 -0.378048,-2.61568 -0.375281,-2.60172 -0.515638,-2.60172 -0.06054,0 -0.377093,0.53579 -0.703448,1.19062 l -0.593372,1.1906 h -1.626578 -1.626579 l -0.06131,0.40891 c -0.234007,1.5605 0.483321,3.42764 1.761718,4.58559 0.632883,0.57328 1.868907,1.21483 2.698432,1.40062 0.933964,0.20911 2.512332,0.12546 3.430809,-0.18205 z m -2.582339,-0.34598 c -0.501349,-0.14204 -0.612279,-0.23104 -0.568647,-0.45582 0.02803,-0.14447 0.130451,-0.16555 0.868148,-0.17909 0.460004,-0.008 0.975273,-0.0281 1.145044,-0.0441 0.276178,-0.0243 0.311494,-0.006 0.335474,0.20237 0.023,0.19722 -0.02543,0.25187 -0.329357,0.37355 -0.522805,0.20913 -0.965587,0.24078 -1.450662,0.1031 z m -1.6422,-2.07469 c -0.09701,-0.0972 -0.176384,-0.25567 -0.176384,-0.35282 0,-0.24453 0.308426,-0.52913 0.573253,-0.52913 0.264818,0 0.573252,0.28468 0.573252,0.52913 0,0.24455 -0.308429,0.52918 -0.573252,0.52918 -0.121275,0 -0.299857,-0.0793 -0.396869,-0.17636 z m 3.439517,-0.0882 c -0.232761,-0.23267 -0.222508,-0.40285 0.0401,-0.66546 0.243582,-0.24345 0.329798,-0.25996 0.605107,-0.11502 0.242042,0.12748 0.321863,0.24591 0.323575,0.48022 0.0031,0.43406 -0.63668,0.63239 -0.968767,0.30029 z m -1.097809,-4.10189 c 0.211607,-1.21013 0.333943,-1.55258 0.494567,-1.38443 0.03281,0.0344 0.152225,0.57839 0.265306,1.20896 0.232869,1.29834 0.343523,1.42064 0.618496,0.68352 l 0.172705,-0.46302 h 1.972971 c 1.085132,0 1.99242,-0.0315 2.016195,-0.0698 0.08023,-0.12991 -0.357483,-1.05886 -0.773608,-1.642 -0.728041,-1.02028 -1.981677,-1.859 -3.316077,-2.21859 -0.773686,-0.20857 -2.314601,-0.21426 -3.086747,-0.0113 -1.084749,0.28486 -1.999152,0.80872 -2.786328,1.59624 -0.677355,0.67767 -1.19903,1.50881 -1.403089,2.23545 l -0.05574,0.19856 1.439077,-9.8e-4 c 0.791494,-6.2e-4 1.483847,-0.0306 1.538565,-0.0662 0.05473,-0.0355 0.422055,-0.70973 0.816304,-1.49793 0.672478,-1.34451 0.811339,-1.54707 0.929474,-1.35595 0.02624,0.0426 0.169945,0.92549 0.319337,1.9623 0.278277,1.93132 0.382411,2.3719 0.526552,2.22775 0.04457,-0.0447 0.184959,-0.67541 0.312001,-1.40192 z"
         id="path4010-4"
         inkscape:connector-curvature="0" />
      <path
         style="fill:#179cfd;stroke-width:0.43423772"
         d="m 28.084301,261.62139 c -0.09334,-0.2432 -0.06068,-4.53422 0.03585,-4.71459 0.04932,-0.0922 0.366818,-0.32942 0.705541,-0.52725 0.338727,-0.19778 0.615865,-0.39635 0.615865,-0.44114 0,-0.0449 -0.225402,-0.25131 -0.5009,-0.45914 -1.007366,-0.75955 -1.863496,-2.05429 -2.182561,-3.30077 -0.176274,-0.68859 -0.179006,-2.04001 -0.0054,-2.72476 0.07324,-0.28909 0.298305,-0.86296 0.500144,-1.27526 0.293281,-0.59912 0.51896,-0.90166 1.123813,-1.50667 0.628099,-0.62825 0.899287,-0.82698 1.594434,-1.16847 1.206772,-0.59277 1.759323,-0.7188 3.130615,-0.71416 0.806735,0.002 1.311968,0.0495 1.704825,0.15746 3.200698,0.88036 5.194794,3.81447 4.65392,6.84772 -0.248316,1.39251 -1.241594,2.98286 -2.337264,3.74216 -0.198811,0.13767 -0.36148,0.28303 -0.36148,0.3228 0,0.0398 0.277437,0.23428 0.616524,0.43238 0.393273,0.22968 0.633784,0.4307 0.664178,0.55509 0.02625,0.10714 0.03649,1.24673 0.02299,2.53213 l -0.02488,2.33712 -4.951132,0.0216 c -4.457619,0.0215 -4.956494,0.008 -5.004941,-0.11734 z m 4.796794,-1.27231 c 0.04062,-0.85254 0.0581,-0.92604 0.220478,-0.92604 0.162399,0 0.179874,0.0735 0.22048,0.92604 l 0.0441,0.92602 h 2.11542 c 1.979416,0 2.117418,-0.0113 2.146485,-0.16124 0.07415,-0.38501 -0.08786,-0.58193 -1.039039,-1.26279 -0.5321,-0.38086 -0.988888,-0.74572 -1.015085,-0.81071 -0.07133,-0.17694 0.02596,-0.27867 0.266821,-0.27867 0.212067,0 0.215285,-0.0113 0.215285,-0.78294 0,-0.57789 0.03363,-0.81084 0.12842,-0.88952 0.247505,-0.20531 0.312538,-0.006 0.312538,0.96492 0,0.5267 0.02407,1.0201 0.05321,1.09639 0.07569,0.19722 0.895628,0.78122 1.003392,0.71461 0.137026,-0.0848 0.118488,-2.70962 -0.02028,-2.88339 -0.06062,-0.0761 -0.366131,-0.28527 -0.678882,-0.46529 -0.638192,-0.36731 -0.664782,-0.36715 -1.680277,0.0113 -0.620191,0.23022 -0.749452,0.24593 -2.072528,0.24835 -1.367516,0.002 -1.436372,-0.006 -2.229991,-0.28332 l -0.818897,-0.286 -0.707163,0.41086 c -0.388942,0.22589 -0.744718,0.48108 -0.790616,0.56686 -0.04592,0.0857 -0.08344,0.71537 -0.08344,1.39919 0,0.99797 0.02488,1.25279 0.126404,1.29174 0.157447,0.0603 0.905595,-0.36921 1.022127,-0.58694 0.04739,-0.0885 0.0862,-0.57804 0.0862,-1.08767 0,-0.95796 0.0901,-1.20675 0.322052,-0.88956 0.07719,0.10547 0.118894,0.4201 0.118894,0.89644 v 0.73386 l 0.360543,-0.0576 c 0.341277,-0.0546 0.358954,-0.0466 0.330725,0.14961 -0.02299,0.16068 -0.280994,0.35508 -1.148549,0.86561 -1.145685,0.67416 -1.30229,0.84178 -1.171412,1.25421 0.05178,0.16311 0.145382,0.16933 2.186334,0.14688 l 2.132238,-0.0243 z m 2.160723,-4.26226 c 1.769875,-0.57963 3.167996,-1.90262 3.76078,-3.55863 0.192048,-0.53652 0.328288,-2.18171 0.217288,-2.62393 l -0.05685,-0.22641 h -1.977453 c -1.485114,0 -1.995217,0.0273 -2.0488,0.11041 -0.03924,0.0605 -0.191399,0.42736 -0.338105,0.81497 -0.382437,1.0104 -0.497129,0.97892 -0.708437,-0.1945 -0.249424,-1.38497 -0.369803,-1.31205 -0.674782,0.40873 -0.236276,1.33315 -0.338406,1.62909 -0.503087,1.45777 -0.04428,-0.046 -0.223941,-1.07597 -0.399196,-2.28861 -0.378048,-2.61567 -0.375282,-2.6017 -0.515636,-2.6017 -0.06054,0 -0.377094,0.53578 -0.703448,1.19062 l -0.593373,1.19063 h -1.628884 c -1.902339,0 -1.81147,-0.0499 -1.81147,0.99426 0,0.80431 0.255081,1.83651 0.632916,2.56111 0.424332,0.81377 1.610253,1.95985 2.460638,2.37796 1.097382,0.53952 1.794389,0.68665 3.07994,0.64999 0.892825,-0.0244 1.23655,-0.0755 1.807954,-0.26241 z m -2.425303,-0.51429 c -0.478805,-0.10703 -0.703657,-0.2876 -0.549872,-0.44139 0.07642,-0.0766 0.231706,-0.0808 0.585546,-0.0162 0.356597,0.0647 0.599579,0.0571 0.936494,-0.0291 0.48231,-0.12329 0.615302,-0.0987 0.615302,0.11422 0,0.28859 -0.958357,0.51378 -1.58747,0.37302 z m -1.706091,-2.08738 c -0.189693,-0.20965 -0.184796,-0.3936 0.01543,-0.57471 0.232894,-0.21073 0.518062,-0.17963 0.684657,0.0743 0.133834,0.20423 0.133834,0.23669 0,0.44096 -0.171756,0.26213 -0.491832,0.2892 -0.699982,0.0593 z m 3.421615,-0.14148 c -0.271481,-0.41435 0.198702,-0.82027 0.625904,-0.54036 0.247452,0.16205 0.279238,0.41467 0.07757,0.61634 -0.207737,0.20776 -0.541169,0.17179 -0.703478,-0.0761 z m -1.137669,-3.97553 c 0.211606,-1.21013 0.333942,-1.55259 0.494569,-1.38441 0.03282,0.0344 0.152224,0.57837 0.265305,1.20895 0.23276,1.29772 0.34355,1.42057 0.617887,0.68512 l 0.172107,-0.46134 2.000835,-0.0243 c 2.352706,-0.0279 2.281076,0.0162 1.723959,-1.05794 -0.429635,-0.82824 -1.435244,-1.8525 -2.279603,-2.32184 -3.036046,-1.6875 -6.967182,-0.61741 -8.490501,2.31125 -0.205682,0.39548 -0.373989,0.82207 -0.373989,0.94808 v 0.22911 l 1.433135,-9.7e-4 c 0.788221,-6e-4 1.477901,-0.0306 1.53262,-0.0663 0.05473,-0.0355 0.422054,-0.7097 0.816303,-1.49792 0.672479,-1.34449 0.811342,-1.54706 0.929474,-1.35594 0.02625,0.0425 0.169945,0.9255 0.319337,1.96229 0.278278,1.93132 0.382411,2.37191 0.526555,2.22776 0.04455,-0.0447 0.184956,-0.67543 0.311999,-1.40192 z"
         id="path4008-5"
         inkscape:connector-curvature="0" />
      <path
         style="fill:#050505;fill-opacity:1;stroke-width:0.43423772"
         d="m 28.084301,261.62139 c -0.09334,-0.2432 -0.06068,-4.53422 0.03585,-4.71459 0.04932,-0.0922 0.366818,-0.32942 0.705541,-0.52725 0.338727,-0.19778 0.615865,-0.39635 0.615865,-0.44114 0,-0.0449 -0.225402,-0.25131 -0.5009,-0.45914 -1.007366,-0.75955 -1.863496,-2.05429 -2.182561,-3.30077 -0.176274,-0.68859 -0.179006,-2.04001 -0.0054,-2.72476 0.07324,-0.28909 0.298305,-0.86296 0.500144,-1.27526 0.293281,-0.59912 0.51896,-0.90166 1.123813,-1.50667 0.628099,-0.62825 0.899287,-0.82698 1.594434,-1.16847 1.206772,-0.59277 1.759323,-0.7188 3.130615,-0.71416 0.806735,0.002 1.311968,0.0495 1.704825,0.15746 3.200698,0.88036 5.194794,3.81447 4.65392,6.84772 -0.248316,1.39251 -1.241594,2.98286 -2.337264,3.74216 -0.198811,0.13767 -0.36148,0.28303 -0.36148,0.3228 0,0.0398 0.277437,0.23428 0.616524,0.43238 0.393273,0.22968 0.633784,0.4307 0.664178,0.55509 0.02625,0.10714 0.03649,1.24673 0.02299,2.53213 l -0.02488,2.33712 -4.951132,0.0216 c -4.457619,0.0215 -4.956494,0.008 -5.004941,-0.11734 z m 4.796794,-1.27231 c 0.04062,-0.85254 0.0581,-0.92604 0.220478,-0.92604 0.162399,0 0.179874,0.0735 0.22048,0.92604 l 0.0441,0.92602 h 2.11542 c 1.979416,0 2.117418,-0.0113 2.146485,-0.16124 0.07415,-0.38501 -0.08786,-0.58193 -1.039039,-1.26279 -0.5321,-0.38086 -0.988888,-0.74572 -1.015085,-0.81071 -0.07133,-0.17694 0.02596,-0.27867 0.266821,-0.27867 0.212067,0 0.215285,-0.0113 0.215285,-0.78294 0,-0.57789 0.03363,-0.81084 0.12842,-0.88952 0.247505,-0.20531 0.312538,-0.006 0.312538,0.96492 0,0.5267 0.02407,1.0201 0.05321,1.09639 0.07569,0.19722 0.895628,0.78122 1.003392,0.71461 0.137026,-0.0848 0.118488,-2.70962 -0.02028,-2.88339 -0.06062,-0.0761 -0.366131,-0.28527 -0.678882,-0.46529 -0.638192,-0.36731 -0.664782,-0.36715 -1.680277,0.0113 -0.620191,0.23022 -0.749452,0.24593 -2.072528,0.24835 -1.367516,0.002 -1.436372,-0.006 -2.229991,-0.28332 l -0.818897,-0.286 -0.707163,0.41086 c -0.388942,0.22589 -0.744718,0.48108 -0.790616,0.56686 -0.04592,0.0857 -0.08344,0.71537 -0.08344,1.39919 0,0.99797 0.02488,1.25279 0.126404,1.29174 0.157447,0.0603 0.905595,-0.36921 1.022127,-0.58694 0.04739,-0.0885 0.0862,-0.57804 0.0862,-1.08767 0,-0.95796 0.0901,-1.20675 0.322052,-0.88956 0.07719,0.10547 0.118894,0.4201 0.118894,0.89644 v 0.73386 l 0.360543,-0.0576 c 0.341277,-0.0546 0.358954,-0.0466 0.330725,0.14961 -0.02299,0.16068 -0.280994,0.35508 -1.148549,0.86561 -1.145685,0.67416 -1.30229,0.84178 -1.171412,1.25421 0.05178,0.16311 0.145382,0.16933 2.186334,0.14688 l 2.132238,-0.0243 z m 2.160723,-4.26226 c 1.798336,-0.58895 3.232202,-1.974 3.804655,-3.6751 0.213148,-0.63339 0.221914,-2.36663 0.01569,-3.09953 -0.356769,-1.26779 -1.453375,-2.62144 -2.672695,-3.2992 -2.477562,-1.37709 -5.596645,-0.9588 -7.541693,1.01144 -1.633552,1.65471 -2.027872,4.11443 -0.994473,6.2034 0.44418,0.89788 1.576714,2.0172 2.500652,2.47147 1.097382,0.53953 1.794387,0.68664 3.079941,0.64999 0.892823,-0.0243 1.236549,-0.0756 1.807951,-0.26241 z m -2.425303,-0.51429 c -0.478805,-0.10703 -0.703657,-0.2876 -0.549872,-0.44139 0.07642,-0.0766 0.231706,-0.0808 0.585546,-0.0162 0.356597,0.0647 0.599579,0.0571 0.936494,-0.0291 0.48231,-0.12329 0.615302,-0.0987 0.615302,0.11422 0,0.28859 -0.958357,0.51378 -1.58747,0.37302 z m -1.706091,-2.08738 c -0.189693,-0.20965 -0.184796,-0.3936 0.01543,-0.57471 0.232894,-0.21073 0.518062,-0.17963 0.684657,0.0743 0.133834,0.20423 0.133834,0.23669 0,0.44096 -0.171756,0.26213 -0.491832,0.2892 -0.699982,0.0593 z m 3.421615,-0.14148 c -0.271481,-0.41435 0.198702,-0.82027 0.625904,-0.54036 0.247452,0.16205 0.279238,0.41467 0.07757,0.61634 -0.207737,0.20776 -0.541169,0.17179 -0.703478,-0.0761 z"
         id="path4006-7"
         inkscape:connector-curvature="0" />
    </g>
    <path
       style="font-size:2.82223px;-inkscape-font-specification:'sans-serif Bold';fill:#40a5f7;stroke-width:0.265"
       d="m 29.638556,170.00218 q -0.08268,0.0207 -0.163987,0.0289 -0.07993,0.01 -0.163987,0.01 -0.23978,0 -0.385852,-0.13229 -0.144694,-0.13092 -0.157097,-0.37621 -0.03307,0.006 -0.06477,0.007 -0.03032,0.003 -0.05926,0.003 -0.216352,0 -0.39412,-0.0717 -0.176389,-0.0717 -0.300413,-0.20809 -0.124024,-0.13642 -0.191548,-0.33486 -0.06615,-0.19844 -0.06615,-0.45338 0,-0.2508 0.06615,-0.44924 0.06615,-0.19981 0.192926,-0.34175 0.121268,-0.13505 0.300413,-0.20671 0.180524,-0.0717 0.392742,-0.0717 0.220487,0 0.395498,0.073 0.17639,0.0717 0.299036,0.20533 0.125401,0.1378 0.191547,0.33762 0.06752,0.19981 0.06752,0.45337 0,0.37621 -0.15434,0.6339 -0.152963,0.2577 -0.412035,0.36105 0.0055,0.1571 0.07441,0.24391 0.0689,0.0868 0.250804,0.0868 0.0565,0 0.13367,-0.0179 0.07855,-0.0165 0.111622,-0.0303 h 0.03721 z m -0.325218,-1.52825 q 0,-0.39963 -0.179146,-0.61598 -0.179145,-0.21773 -0.489205,-0.21773 -0.312815,0 -0.491961,0.21773 -0.177767,0.21635 -0.177767,0.61598 0,0.40377 0.181902,0.61874 0.181901,0.2136 0.487826,0.2136 0.305926,0 0.486449,-0.2136 0.181902,-0.21497 0.181902,-0.61874 z m 1.971978,1.02527 h -0.259072 v -0.17088 q -0.130914,0.10335 -0.250804,0.15847 -0.119889,0.0551 -0.264584,0.0551 -0.242535,0 -0.377583,-0.14745 -0.135048,-0.14883 -0.135048,-0.43547 v -0.99908 h 0.259072 v 0.87644 q 0,0.11713 0.01102,0.20119 0.01102,0.0827 0.04685,0.14194 0.03721,0.0606 0.09646,0.0882 0.05926,0.0276 0.172256,0.0276 0.100597,0 0.219108,-0.0524 0.11989,-0.0524 0.223243,-0.13367 v -1.14929 h 0.259072 z m 1.706016,0 h -0.257694 v -0.16399 q -0.03445,0.0234 -0.09371,0.0661 -0.05788,0.0413 -0.112999,0.0661 -0.06477,0.0317 -0.148829,0.0524 -0.08406,0.022 -0.19706,0.022 -0.208084,0 -0.352779,-0.13781 -0.144694,-0.1378 -0.144694,-0.3514 0,-0.17501 0.07441,-0.2825 0.07579,-0.10886 0.214975,-0.17087 0.14056,-0.062 0.33762,-0.0841 0.19706,-0.022 0.423059,-0.0331 v -0.04 q 0,-0.0882 -0.03169,-0.14607 -0.03032,-0.0579 -0.08819,-0.0909 -0.05512,-0.0317 -0.132292,-0.0427 -0.07717,-0.011 -0.161231,-0.011 -0.101975,0 -0.227377,0.0276 -0.125401,0.0262 -0.259071,0.0772 H 31.82 v -0.2632 q 0.07579,-0.0207 0.219109,-0.0455 0.143316,-0.0248 0.282498,-0.0248 0.162609,0 0.282499,0.0276 0.121268,0.0262 0.209462,0.0909 0.08682,0.0634 0.132293,0.16399 0.04548,0.10059 0.04548,0.24942 z m -0.257694,-0.37896 v -0.42858 q -0.118512,0.007 -0.279742,0.0207 -0.159853,0.0138 -0.25356,0.04 -0.111622,0.0317 -0.180524,0.0992 -0.0689,0.0661 -0.0689,0.18328 0,0.13229 0.07993,0.19981 0.07993,0.0662 0.243913,0.0662 0.136426,0 0.249426,-0.0524 0.112999,-0.0537 0.209462,-0.12815 z m 2.043637,0.37896 h -0.259072 v -0.87644 q 0,-0.10611 -0.0124,-0.19844 -0.0124,-0.0937 -0.04548,-0.14607 -0.03445,-0.0579 -0.09922,-0.0854 -0.06477,-0.0289 -0.168121,-0.0289 -0.106109,0 -0.221865,0.0524 -0.115755,0.0524 -0.221865,0.13367 v 1.14929 H 33.49018 v -1.53928 h 0.259072 v 0.17088 q 0.121268,-0.1006 0.250804,-0.1571 0.129536,-0.0565 0.265962,-0.0565 0.249426,0 0.38034,0.15021 0.130914,0.15021 0.130914,0.43271 z m 1.298115,-0.0138 q -0.07304,0.0193 -0.159853,0.0317 -0.08544,0.0124 -0.152963,0.0124 -0.235645,0 -0.358291,-0.12678 -0.122645,-0.12678 -0.122645,-0.40652 v -0.81856 h -0.175012 v -0.21773 h 0.175012 v -0.44235 h 0.259072 v 0.44235 h 0.53468 v 0.21773 h -0.53468 v 0.70143 q 0,0.12127 0.0055,0.19017 0.0055,0.0675 0.03858,0.12678 0.03032,0.0551 0.08268,0.0813 0.05374,0.0248 0.162609,0.0248 0.06339,0 0.132292,-0.0179 0.0689,-0.0193 0.09922,-0.0317 h 0.01378 z m 0.591181,-1.78319 h -0.292145 v -0.26872 h 0.292145 z m -0.01654,1.79697 h -0.259072 v -1.53928 h 0.259072 z m 1.628845,0 h -1.242994 v -0.19155 l 0.897106,-1.13137 h -0.877813 v -0.21636 h 1.200274 v 0.18466 l -0.901239,1.13551 h 0.924666 z m 1.638492,-0.74277 H 38.78324 q 0,0.14194 0.04272,0.24805 0.04272,0.10473 0.117134,0.17226 0.07166,0.0661 0.169499,0.0992 0.09922,0.0331 0.21773,0.0331 0.157097,0 0.315572,-0.062 0.159853,-0.0634 0.227377,-0.12403 h 0.01378 v 0.2825 q -0.130914,0.0551 -0.26734,0.0923 -0.136426,0.0372 -0.286632,0.0372 -0.383096,0 -0.598071,-0.20671 -0.214974,-0.20808 -0.214974,-0.5898 0,-0.37759 0.205328,-0.59945 0.206706,-0.22187 0.542949,-0.22187 0.311437,0 0.479558,0.18191 0.169499,0.1819 0.169499,0.51676 z m -0.252181,-0.19844 q -0.0014,-0.20395 -0.103353,-0.31557 -0.100598,-0.11162 -0.307304,-0.11162 -0.208084,0 -0.332108,0.12265 -0.122646,0.12264 -0.139182,0.30454 z m 1.605419,-0.31557 h -0.01378 q -0.05788,-0.0138 -0.112999,-0.0193 -0.05374,-0.007 -0.128158,-0.007 -0.11989,0 -0.231511,0.0537 -0.111621,0.0524 -0.214975,0.13643 v 1.09279 h -0.259071 v -1.53928 h 0.259071 v 0.22738 q 0.154341,-0.12402 0.271475,-0.17501 0.118511,-0.0524 0.241157,-0.0524 0.06752,0 0.09784,0.004 0.03032,0.003 0.09095,0.0124 z"
       id="text1"
       aria-label="Quantizer" />
    <path
       style="font-size:2.82223px;-inkscape-font-specification:'sans-serif Bold';fill:#ffffff;stroke-width:0.265;fill-opacity:1"
       d="m 32.378094,234.88453 -0.746899,2.05191 h -0.363803 l -0.746898,-2.05191 h 0.292144 l 0.643546,1.80524 0.643546,-1.80524 z m 1.220945,-0.0923 -0.988056,2.56316 h -0.238401 l 0.983922,-2.56316 z m 1.901698,0.32798 q 0.125402,0.1378 0.191548,0.33762 0.06752,0.19981 0.06752,0.45337 0,0.25356 -0.0689,0.45476 -0.06752,0.19981 -0.19017,0.33348 -0.126779,0.13919 -0.300413,0.20947 -0.172255,0.0703 -0.39412,0.0703 -0.216352,0 -0.39412,-0.0717 -0.176389,-0.0717 -0.300413,-0.20809 -0.124024,-0.13642 -0.191548,-0.33486 -0.06615,-0.19844 -0.06615,-0.45338 0,-0.2508 0.06615,-0.44924 0.06615,-0.19981 0.192926,-0.34175 0.121268,-0.13505 0.300413,-0.20671 0.180524,-0.0717 0.392742,-0.0717 0.220487,0 0.395498,0.073 0.17639,0.0717 0.299036,0.20533 z m -0.0248,0.79099 q 0,-0.39963 -0.179146,-0.61598 -0.179145,-0.21773 -0.489205,-0.21773 -0.312815,0 -0.491961,0.21773 -0.177767,0.21635 -0.177767,0.61598 0,0.40377 0.181901,0.61874 0.181902,0.2136 0.487827,0.2136 0.305926,0 0.486449,-0.2136 0.181902,-0.21497 0.181902,-0.61874 z m 1.834174,0.9288 q -0.129536,0.062 -0.24667,0.0965 -0.115755,0.0344 -0.246669,0.0344 -0.166742,0 -0.305926,-0.0482 -0.139182,-0.0496 -0.238401,-0.14883 -0.100597,-0.0992 -0.155719,-0.25081 -0.05512,-0.15158 -0.05512,-0.35415 0,-0.37759 0.206706,-0.59256 0.208084,-0.21498 0.548461,-0.21498 0.132292,0 0.259072,0.0372 0.128158,0.0372 0.234268,0.091 v 0.28801 h -0.01378 q -0.118511,-0.0923 -0.245292,-0.14193 -0.125401,-0.0496 -0.245291,-0.0496 -0.220487,0 -0.348645,0.14882 -0.12678,0.14745 -0.12678,0.43409 0,0.27836 0.124025,0.42857 0.125401,0.14883 0.3514,0.14883 0.07855,0 0.159853,-0.0207 0.08131,-0.0207 0.146073,-0.0538 0.0565,-0.0289 0.106108,-0.0606 0.04961,-0.0331 0.07855,-0.0565 h 0.01378 z m 1.131372,0.0827 q -0.07304,0.0193 -0.159853,0.0317 -0.08544,0.0124 -0.152962,0.0124 -0.235645,0 -0.358291,-0.12678 -0.122646,-0.12678 -0.122646,-0.40652 v -0.81856 H 37.47272 v -0.21773 h 0.175011 v -0.44235 h 0.259072 v 0.44235 h 0.53468 v 0.21773 h -0.53468 v 0.70143 q 0,0.12127 0.0055,0.19017 0.0055,0.0675 0.03859,0.12678 0.03032,0.0551 0.08268,0.0813 0.05374,0.0248 0.162609,0.0248 0.06339,0 0.132292,-0.0179 0.0689,-0.0193 0.09922,-0.0317 h 0.01378 z"
       id="text1-2"
       aria-label="V/Oct" />
    <path
       style="font-size:2.82223px;-inkscape-font-specification:'sans-serif Bold';fill:#ffffff;stroke-width:0.265;fill-opacity:1"
       d="m 30.256527,245.55521 h -0.810289 v -0.20947 h 0.268718 v -1.63298 h -0.268718 v -0.20946 h 0.810289 v 0.20946 h -0.268718 v 1.63298 h 0.268718 z m 1.730821,0 h -0.259072 v -0.87644 q 0,-0.10611 -0.0124,-0.19844 -0.0124,-0.0937 -0.04547,-0.14607 -0.03445,-0.0579 -0.09922,-0.0854 -0.06477,-0.0289 -0.168121,-0.0289 -0.106109,0 -0.221865,0.0524 -0.115756,0.0524 -0.221865,0.13367 v 1.14929 h -0.259072 v -1.53928 h 0.259072 v 0.17088 q 0.121268,-0.1006 0.250804,-0.1571 0.129536,-0.0565 0.265962,-0.0565 0.249426,0 0.38034,0.15021 0.130914,0.15021 0.130914,0.43271 z"
       id="text1-2-5"
       aria-label="In" />
    <path
       style="font-size:2.82223px;-inkscape-font-specification:'sans-serif Bold';fill:#ffffff;stroke-width:0.265;fill-opacity:1"
       d="m 36.853197,243.69624 q 0.125402,0.1378 0.191548,0.33762 0.06752,0.19981 0.06752,0.45337 0,0.25356 -0.0689,0.45476 -0.06752,0.19981 -0.19017,0.33348 -0.12678,0.13919 -0.300413,0.20947 -0.172255,0.0703 -0.39412,0.0703 -0.216353,0 -0.39412,-0.0717 -0.176389,-0.0717 -0.300413,-0.20809 -0.124024,-0.13642 -0.191548,-0.33486 -0.06615,-0.19844 -0.06615,-0.45338 0,-0.2508 0.06615,-0.44924 0.06615,-0.19981 0.192926,-0.34175 0.121268,-0.13505 0.300413,-0.20671 0.180524,-0.0717 0.392742,-0.0717 0.220487,0 0.395498,0.073 0.17639,0.0717 0.299035,0.20533 z m -0.0248,0.79099 q 0,-0.39963 -0.179146,-0.61598 -0.179145,-0.21773 -0.489205,-0.21773 -0.312815,0 -0.491961,0.21773 -0.177767,0.21635 -0.177767,0.61598 0,0.40377 0.181901,0.61874 0.181902,0.2136 0.487827,0.2136 0.305925,0 0.486449,-0.2136 0.181902,-0.21497 0.181902,-0.61874 z m 1.971978,1.02527 h -0.259072 v -0.17088 q -0.130914,0.10335 -0.250804,0.15847 -0.119889,0.0551 -0.264584,0.0551 -0.242535,0 -0.377583,-0.14745 -0.135049,-0.14883 -0.135049,-0.43547 v -0.99908 h 0.259072 v 0.87644 q 0,0.11713 0.01102,0.20119 0.01102,0.0827 0.04685,0.14194 0.03721,0.0606 0.09646,0.0882 0.05926,0.0276 0.172255,0.0276 0.100597,0 0.219109,-0.0524 0.11989,-0.0524 0.223243,-0.13367 v -1.14929 h 0.259072 z m 1.30914,-0.0138 q -0.07304,0.0193 -0.159853,0.0317 -0.08544,0.0124 -0.152963,0.0124 -0.235645,0 -0.358291,-0.12678 -0.122646,-0.12678 -0.122646,-0.40652 v -0.81856 h -0.175011 v -0.21773 h 0.175011 v -0.44235 h 0.259072 v 0.44235 h 0.534681 v 0.21773 H 39.57483 v 0.70143 q 0,0.12127 0.0055,0.19017 0.0055,0.0675 0.03859,0.12678 0.03032,0.0551 0.08268,0.0813 0.05374,0.0248 0.162609,0.0248 0.06339,0 0.132292,-0.0179 0.0689,-0.0193 0.09922,-0.0317 h 0.01378 z"
       id="text2"
       aria-label="Out" />
    <path
       style="font-size:2.82223px;-inkscape-font-specification:'sans-serif Bold';fill:#ffffff;stroke-width:0.265;fill-opacity:1"
       d="m 30.040938,212.78368 q 0.125401,0.1378 0.191547,0.33762 0.06752,0.19981 0.06752,0.45337 0,0.25356 -0.0689,0.45476 -0.06752,0.19981 -0.190169,0.33348 -0.12678,0.13918 -0.300414,0.20946 -0.172255,0.0703 -0.39412,0.0703 -0.216352,0 -0.39412,-0.0716 -0.176389,-0.0717 -0.300413,-0.20809 -0.124024,-0.13642 -0.191548,-0.33486 -0.06615,-0.19844 -0.06615,-0.45338 0,-0.2508 0.06615,-0.44924 0.06615,-0.19982 0.192926,-0.34175 0.121268,-0.13505 0.300413,-0.20671 0.180524,-0.0717 0.392742,-0.0717 0.220487,0 0.395498,0.073 0.17639,0.0717 0.299036,0.20533 z m -0.02481,0.79099 q 0,-0.39963 -0.179146,-0.61598 -0.179145,-0.21773 -0.489205,-0.21773 -0.312815,0 -0.491961,0.21773 -0.177767,0.21635 -0.177767,0.61598 0,0.40377 0.181902,0.61874 0.181901,0.2136 0.487826,0.2136 0.305926,0 0.486449,-0.2136 0.181902,-0.21497 0.181902,-0.61874 z m 1.834174,0.9288 q -0.129536,0.062 -0.24667,0.0965 -0.115755,0.0345 -0.246669,0.0345 -0.166743,0 -0.305926,-0.0482 -0.139182,-0.0496 -0.238401,-0.14883 -0.100597,-0.0992 -0.155719,-0.25081 -0.05512,-0.15158 -0.05512,-0.35415 0,-0.37759 0.206706,-0.59256 0.208084,-0.21498 0.548461,-0.21498 0.132292,0 0.259072,0.0372 0.128158,0.0372 0.234267,0.0909 v 0.28801 h -0.01378 q -0.118511,-0.0923 -0.245291,-0.14194 -0.125402,-0.0496 -0.245292,-0.0496 -0.220486,0 -0.348644,0.14883 -0.12678,0.14745 -0.12678,0.43409 0,0.27836 0.124024,0.42857 0.125402,0.14883 0.3514,0.14883 0.07855,0 0.159853,-0.0207 0.08131,-0.0207 0.146073,-0.0538 0.0565,-0.0289 0.106109,-0.0606 0.04961,-0.0331 0.07855,-0.0565 h 0.01378 z m 1.131373,0.0827 q -0.07304,0.0193 -0.159853,0.0317 -0.08544,0.0124 -0.152963,0.0124 -0.235645,0 -0.358291,-0.12678 -0.122646,-0.12678 -0.122646,-0.40652 v -0.81856 h -0.175011 v -0.21773 h 0.175011 v -0.44235 h 0.259072 v 0.44235 h 0.534681 v 0.21773 h -0.534681 v 0.70143 q 0,0.12126 0.0055,0.19017 0.0055,0.0675 0.03859,0.12678 0.03032,0.0551 0.08268,0.0813 0.05374,0.0248 0.162609,0.0248 0.06339,0 0.132292,-0.0179 0.0689,-0.0193 0.09922,-0.0317 h 0.01378 z m 2.816717,-0.57189 q 0,0.11989 -0.0565,0.23702 -0.05512,0.11713 -0.155719,0.19844 -0.110244,0.0882 -0.257694,0.1378 -0.146073,0.0496 -0.352779,0.0496 -0.221865,0 -0.399632,-0.0413 -0.176389,-0.0413 -0.359669,-0.12264 v -0.34176 h 0.01929 q 0.155718,0.12954 0.359669,0.19982 0.20395,0.0703 0.383095,0.0703 0.25356,0 0.39412,-0.0951 0.141939,-0.0951 0.141939,-0.25356 0,-0.13642 -0.06752,-0.20119 -0.06615,-0.0648 -0.202573,-0.1006 -0.103353,-0.0276 -0.224621,-0.0455 -0.119889,-0.0179 -0.254937,-0.0455 -0.272853,-0.0579 -0.405145,-0.19706 -0.130914,-0.14056 -0.130914,-0.36518 0,-0.25769 0.217731,-0.42168 0.217731,-0.16537 0.552595,-0.16537 0.216352,0 0.396876,0.0413 0.180523,0.0413 0.319706,0.10198 v 0.32246 h -0.01929 q -0.117133,-0.0992 -0.308681,-0.16399 -0.19017,-0.0661 -0.389986,-0.0661 -0.219109,0 -0.352779,0.0909 -0.132292,0.091 -0.132292,0.23427 0,0.12815 0.06615,0.20119 0.06615,0.073 0.232889,0.11162 0.0882,0.0193 0.250804,0.0469 0.162609,0.0276 0.275608,0.0565 0.228755,0.0606 0.344511,0.18328 0.115755,0.12264 0.115755,0.34313 z m 1.704638,0.58567 h -0.259072 v -0.87644 q 0,-0.10611 -0.0124,-0.19844 -0.0124,-0.0937 -0.04547,-0.14607 -0.03445,-0.0579 -0.09922,-0.0854 -0.06477,-0.0289 -0.168122,-0.0289 -0.106109,0 -0.221864,0.0524 -0.115756,0.0524 -0.221865,0.13367 v 1.14929 h -0.259072 v -2.14424 h 0.259072 v 0.77584 q 0.121268,-0.1006 0.250803,-0.1571 0.129536,-0.0565 0.265963,-0.0565 0.249425,0 0.380339,0.15021 0.130914,0.15021 0.130914,0.4327 z m 0.777216,-1.79697 h -0.292145 v -0.26872 h 0.292145 z m -0.01654,1.79697 h -0.259072 v -1.53928 h 0.259072 z m 1.340835,-1.89343 h -0.01378 q -0.04272,-0.0124 -0.111622,-0.0248 -0.0689,-0.0138 -0.121267,-0.0138 -0.166743,0 -0.242536,0.0744 -0.07441,0.073 -0.07441,0.26597 v 0.0524 h 0.467156 v 0.21773 h -0.458888 v 1.32155 h -0.259072 v -1.32155 h -0.175011 v -0.21773 h 0.175011 v -0.051 q 0,-0.27423 0.136426,-0.4203 0.136427,-0.14745 0.39412,-0.14745 0.08682,0 0.155719,0.008 0.07028,0.008 0.128158,0.0193 z m 0.963252,1.87965 q -0.07304,0.0193 -0.159853,0.0317 -0.08544,0.0124 -0.152963,0.0124 -0.235645,0 -0.358291,-0.12678 -0.122646,-0.12678 -0.122646,-0.40652 v -0.81856 h -0.175011 v -0.21773 h 0.175011 v -0.44235 h 0.259072 v 0.44235 h 0.534681 v 0.21773 H 40.03312 v 0.70143 q 0,0.12126 0.0055,0.19017 0.0055,0.0675 0.03859,0.12678 0.03032,0.0551 0.08268,0.0813 0.05374,0.0248 0.162609,0.0248 0.06339,0 0.132292,-0.0179 0.0689,-0.0193 0.09922,-0.0317 h 0.01378 z"
       id="text3"
       aria-label="Oct Shift" />
  </g>
</svg>
