<?xml version="1.0" encoding="UTF-8" standalone="no"?>
<!-- Generator: Gravit.io -->

<svg
   style="isolation:isolate"
   viewBox="0 0 45 380"
   width="45"
   height="380"
   version="1.1"
   id="svg28"
   sodipodi:docname="RandomSound.svg"
   inkscape:version="1.3.2 (091e20e, 2023-11-25)"
   xmlns:inkscape="http://www.inkscape.org/namespaces/inkscape"
   xmlns:sodipodi="http://sodipodi.sourceforge.net/DTD/sodipodi-0.dtd"
   xmlns="http://www.w3.org/2000/svg"
   xmlns:svg="http://www.w3.org/2000/svg"
   xmlns:rdf="http://www.w3.org/1999/02/22-rdf-syntax-ns#"
   xmlns:cc="http://creativecommons.org/ns#"
   xmlns:dc="http://purl.org/dc/elements/1.1/">
  <metadata
     id="metadata32">
    <rdf:RDF>
      <cc:Work
         rdf:about="">
        <dc:format>image/svg+xml</dc:format>
        <dc:type
           rdf:resource="http://purl.org/dc/dcmitype/StillImage" />
      </cc:Work>
    </rdf:RDF>
  </metadata>
  <sodipodi:namedview
     pagecolor="#ffffff"
     bordercolor="#666666"
     borderopacity="1"
     objecttolerance="10"
     gridtolerance="10"
     guidetolerance="10"
     inkscape:pageopacity="0"
     inkscape:pageshadow="2"
     inkscape:window-width="1416"
     inkscape:window-height="1250"
     id="namedview30"
     showgrid="false"
     inkscape:zoom="3.7736842"
     inkscape:cx="5.8298466"
     inkscape:cy="179.53278"
     inkscape:window-x="603"
     inkscape:window-y="25"
     inkscape:window-maximized="0"
     inkscape:current-layer="svg28"
     showguides="true"
     inkscape:snap-nodes="true"
     inkscape:snap-grids="false"
     inkscape:snap-global="false"
     inkscape:showpageshadow="2"
     inkscape:pagecheckerboard="0"
     inkscape:deskcolor="#d1d1d1" />
  <defs
     id="defs5">
    <inkscape:path-effect
       only_selected="false"
       apply_with_weight="true"
       apply_no_weight="true"
       helper_size="0"
       steps="2"
       weight="33.333333"
       is_visible="true"
       id="path-effect1070"
       effect="bspline" />
    <inkscape:path-effect
       effect="bspline"
       id="path-effect1066"
       is_visible="true"
       weight="33.333333"
       steps="2"
       helper_size="0"
       apply_no_weight="true"
       apply_with_weight="true"
       only_selected="false" />
    <clipPath
       id="_clipPath_0ow2e6EsI2z2JMRNarlGPRVH8APlqVOp">
      <rect
         width="720"
         height="380"
         id="rect2"
         x="0"
         y="0" />
    </clipPath>
  </defs>
  <path
     style="fill:#333333;fill-opacity:1;stroke-width:0.505244"
     inkscape:connector-curvature="0"
     id="path7"
     d="M 0,0 H 45 V 380 H 0 Z" />
  <g
     id="layer1-2"
     transform="matrix(0.83511265,0,0,0.83511265,-14.725942,63.355027)"
     style="stroke-width:2.31106">
    <rect
       style="fill:#ffffff;stroke-width:2.31106"
       id="rect9"
       height="2.2750001"
       width="10.008"
       y="347.13"
       x="39.669998" />
    <rect
       style="fill:#ffffff;stroke-width:2.31106"
       id="rect11"
       height="0.70499998"
       width="12.49"
       y="347.74399"
       x="38.465" />
    <path
       style="fill:#ffffff;stroke-width:2.31106"
       inkscape:connector-curvature="0"
       id="path13"
       d="m 36.026,339.784 c 0,-4.456 3.82,-8.074 8.525,-8.074 4.705,0 8.524,3.618 8.524,8.074 0,4.457 -3.819,8.075 -8.524,8.075 -4.705,0 -8.525,-3.618 -8.525,-8.075 z" />
    <rect
       style="fill:#ffffff;stroke-width:2.31106"
       id="rect15"
       height="5.9190001"
       width="13.125"
       y="348.44901"
       x="37.944" />
    <path
       style="fill:#54b6fc;stroke-width:2.31106"
       inkscape:connector-curvature="0"
       id="path17"
       d="m 37.635,354.766 c -0.078,-0.145 -0.126,-1.449 -0.126,-3.397 0,-3.615 -0.089,-3.315 1.195,-4.021 0.41,-0.226 0.746,-0.445 0.746,-0.487 0,-0.043 -0.223,-0.232 -0.496,-0.421 -1.414,-0.98 -2.77,-2.995 -3.217,-4.781 -0.277,-1.106 -0.185,-3.288 0.185,-4.37 1.421,-4.161 6.033,-6.679 10.539,-5.752 2.939,0.604 5.272,2.436 6.452,5.068 0.498,1.11 0.666,1.944 0.663,3.292 -0.006,2.424 -1.107,4.678 -3.056,6.259 -0.35,0.284 -0.637,0.559 -0.637,0.611 0,0.053 0.259,0.243 0.576,0.424 1.212,0.69 1.122,0.358 1.122,4.167 0,2.445 -0.039,3.39 -0.145,3.497 -0.11,0.109 -1.811,0.145 -6.911,0.145 -6.564,0 -6.768,-0.008 -6.89,-0.235 z m 6.572,-1.846 c 0.028,-0.991 0.074,-1.255 0.237,-1.357 0.147,-0.092 0.255,-0.083 0.394,0.033 0.152,0.126 0.192,0.413 0.192,1.358 v 1.198 h 2.794 c 2.374,0 2.805,-0.026 2.864,-0.182 0.164,-0.426 -0.116,-0.755 -1.442,-1.701 -1.11,-0.791 -1.365,-1.029 -1.365,-1.274 0,-0.237 0.07,-0.308 0.334,-0.339 l 0.334,-0.038 v -1 c 0,-1.132 0.155,-1.493 0.585,-1.356 0.251,0.079 0.264,0.153 0.266,1.501 0.001,0.779 0.042,1.474 0.091,1.545 0.147,0.211 0.951,0.782 1.101,0.782 0.1,0 0.14,-0.52 0.14,-1.801 0,-2.043 0.062,-1.902 -1.132,-2.569 l -0.708,-0.396 -1.232,0.412 c -1.197,0.399 -1.29,0.411 -3.175,0.411 -1.864,0 -1.983,-0.016 -2.996,-0.377 l -1.054,-0.377 -0.977,0.551 -0.978,0.552 v 1.857 c 0,1.022 0.031,1.858 0.069,1.858 0.038,0 0.311,-0.142 0.607,-0.315 l 0.537,-0.314 0.002,-1.232 c 0.002,-1.579 0.283,-2.203 0.772,-1.714 0.15,0.149 0.196,0.438 0.196,1.211 v 1.014 l 0.4,-0.064 c 0.434,-0.071 0.747,0.159 0.632,0.461 -0.036,0.093 -0.774,0.594 -1.64,1.113 -1.532,0.919 -1.575,0.957 -1.575,1.363 v 0.418 h 2.846 2.847 z m 3.116,-5.993 c 2.504,-0.839 4.541,-2.944 5.165,-5.338 0.195,-0.748 0.251,-2.796 0.084,-3.059 -0.076,-0.119 -0.708,-0.147 -2.742,-0.121 l -2.644,0.033 -0.393,1.092 c -0.345,0.956 -0.429,1.092 -0.681,1.092 -0.266,0 -0.302,-0.082 -0.497,-1.138 -0.321,-1.734 -0.364,-1.707 -0.757,0.481 -0.345,1.92 -0.39,2.052 -0.687,2.052 -0.288,0 -0.273,0.062 -0.814,-3.569 -0.247,-1.663 -0.504,-3.041 -0.571,-3.063 -0.066,-0.023 -0.476,0.656 -0.91,1.507 l -0.788,1.546 -2.27,0.034 -2.269,0.033 -0.082,0.437 c -0.139,0.74 0.028,2.246 0.352,3.178 0.662,1.902 2.011,3.402 3.905,4.338 1.472,0.729 2.322,0.904 4.125,0.851 1.197,-0.037 1.636,-0.104 2.474,-0.385 z m -3.552,-0.476 c -0.689,-0.196 -0.842,-0.318 -0.782,-0.627 0.039,-0.199 0.18,-0.228 1.194,-0.247 0.633,-0.011 1.342,-0.038 1.575,-0.06 0.38,-0.034 0.429,-0.009 0.462,0.278 0.031,0.271 -0.035,0.347 -0.453,0.514 -0.719,0.288 -1.328,0.331 -1.996,0.142 z m -2.259,-2.854 c -0.133,-0.134 -0.242,-0.352 -0.242,-0.485 0,-0.337 0.424,-0.728 0.788,-0.728 0.365,0 0.789,0.391 0.789,0.728 0,0.336 -0.424,0.728 -0.789,0.728 -0.166,0 -0.412,-0.11 -0.546,-0.243 z m 4.732,-0.121 c -0.321,-0.32 -0.306,-0.555 0.055,-0.916 0.335,-0.335 0.453,-0.357 0.832,-0.158 0.333,0.175 0.443,0.338 0.445,0.661 0.004,0.597 -0.876,0.869 -1.332,0.413 z m -1.584,-5.884 c 0.408,-2.456 0.791,-2.52 1.203,-0.199 0.135,0.757 0.272,1.404 0.304,1.437 0.114,0.114 0.293,-0.084 0.376,-0.417 0.161,-0.642 0.148,-0.639 2.995,-0.639 3.011,0 2.953,0.022 2.539,-0.915 -0.902,-2.038 -2.972,-3.73 -5.348,-4.37 -1.064,-0.287 -3.184,-0.295 -4.246,-0.016 -2.562,0.673 -4.724,2.532 -5.587,4.805 l -0.237,0.623 2.032,-0.033 2.033,-0.034 0.97,-1.904 c 0.534,-1.048 1.04,-1.974 1.123,-2.057 0.337,-0.337 0.501,0.172 0.885,2.747 0.209,1.4 0.408,2.592 0.443,2.649 0.141,0.229 0.265,-0.174 0.515,-1.677 z" />
    <path
       style="fill:#a0a0a0;stroke-width:2.31106"
       inkscape:connector-curvature="0"
       id="path19"
       d="m 37.635,354.766 c -0.078,-0.145 -0.126,-1.449 -0.126,-3.397 0,-3.615 -0.089,-3.315 1.195,-4.021 0.41,-0.226 0.746,-0.445 0.746,-0.487 0,-0.043 -0.223,-0.232 -0.496,-0.421 -1.414,-0.98 -2.77,-2.995 -3.217,-4.781 -0.277,-1.106 -0.185,-3.288 0.185,-4.37 1.421,-4.161 6.033,-6.679 10.539,-5.752 2.939,0.604 5.272,2.436 6.452,5.068 0.498,1.11 0.666,1.944 0.663,3.292 -0.006,2.424 -1.107,4.678 -3.056,6.259 -0.35,0.284 -0.637,0.559 -0.637,0.611 0,0.053 0.259,0.243 0.576,0.424 1.212,0.69 1.122,0.358 1.122,4.167 0,2.445 -0.039,3.39 -0.145,3.497 -0.11,0.109 -1.811,0.145 -6.911,0.145 -6.564,0 -6.768,-0.008 -6.89,-0.235 z m 6.572,-1.846 c 0.028,-0.991 0.074,-1.255 0.237,-1.357 0.147,-0.092 0.255,-0.083 0.394,0.033 0.152,0.126 0.192,0.413 0.192,1.358 v 1.198 h 2.794 c 2.374,0 2.805,-0.026 2.864,-0.182 0.164,-0.426 -0.116,-0.755 -1.442,-1.701 -1.11,-0.791 -1.365,-1.029 -1.365,-1.274 0,-0.237 0.07,-0.308 0.334,-0.339 l 0.334,-0.038 v -1 c 0,-1.132 0.155,-1.493 0.585,-1.356 0.251,0.079 0.264,0.153 0.266,1.501 0.001,0.779 0.042,1.474 0.091,1.545 0.147,0.211 0.951,0.782 1.101,0.782 0.1,0 0.14,-0.52 0.14,-1.801 0,-2.043 0.062,-1.902 -1.132,-2.569 l -0.708,-0.396 -1.232,0.412 c -1.197,0.399 -1.29,0.411 -3.175,0.411 -1.864,0 -1.983,-0.016 -2.996,-0.377 l -1.054,-0.377 -0.977,0.551 -0.978,0.552 v 1.857 c 0,1.022 0.031,1.858 0.069,1.858 0.038,0 0.311,-0.142 0.607,-0.315 l 0.537,-0.314 0.002,-1.232 c 0.002,-1.579 0.283,-2.203 0.772,-1.714 0.15,0.149 0.196,0.438 0.196,1.211 v 1.014 l 0.4,-0.064 c 0.434,-0.071 0.747,0.159 0.632,0.461 -0.036,0.093 -0.774,0.594 -1.64,1.113 -1.532,0.919 -1.575,0.957 -1.575,1.363 v 0.418 h 2.846 2.847 z m 3.116,-5.993 c 1.931,-0.647 3.633,-2.064 4.532,-3.775 0.59,-1.123 0.818,-2.049 0.816,-3.311 -0.002,-1.743 0.283,-1.582 -2.795,-1.582 -1.985,0 -2.672,0.038 -2.746,0.152 -0.054,0.083 -0.263,0.588 -0.465,1.121 -0.526,1.39 -0.684,1.347 -0.974,-0.267 -0.343,-1.905 -0.509,-1.805 -0.928,0.562 -0.325,1.834 -0.466,2.241 -0.692,2.005 -0.061,-0.063 -0.309,-1.48 -0.55,-3.148 -0.52,-3.598 -0.516,-3.579 -0.709,-3.579 -0.083,0 -0.519,0.737 -0.967,1.638 l -0.817,1.638 h -2.237 -2.237 l -0.085,0.562 c -0.322,2.147 0.665,4.715 2.423,6.308 0.871,0.788 2.571,1.671 3.712,1.926 1.285,0.288 3.456,0.173 4.719,-0.25 z m -3.552,-0.476 c -0.689,-0.196 -0.842,-0.318 -0.782,-0.627 0.039,-0.199 0.18,-0.228 1.194,-0.247 0.633,-0.011 1.342,-0.038 1.575,-0.06 0.38,-0.034 0.429,-0.009 0.462,0.278 0.031,0.271 -0.035,0.347 -0.453,0.514 -0.719,0.288 -1.328,0.331 -1.996,0.142 z m -2.259,-2.854 c -0.133,-0.134 -0.242,-0.352 -0.242,-0.485 0,-0.337 0.424,-0.728 0.788,-0.728 0.365,0 0.789,0.391 0.789,0.728 0,0.336 -0.424,0.728 -0.789,0.728 -0.166,0 -0.412,-0.11 -0.546,-0.243 z m 4.732,-0.121 c -0.321,-0.32 -0.306,-0.555 0.055,-0.916 0.335,-0.335 0.453,-0.357 0.832,-0.158 0.333,0.175 0.443,0.338 0.445,0.661 0.004,0.597 -0.876,0.869 -1.332,0.413 z m -1.51,-5.643 c 0.291,-1.664 0.459,-2.135 0.68,-1.904 0.045,0.047 0.209,0.796 0.365,1.663 0.32,1.786 0.472,1.954 0.851,0.94 l 0.237,-0.637 h 2.714 c 1.493,0 2.741,-0.043 2.773,-0.096 0.111,-0.178 -0.491,-1.456 -1.064,-2.258 -1.001,-1.404 -2.726,-2.557 -4.561,-3.052 -1.064,-0.287 -3.184,-0.295 -4.246,-0.016 -1.492,0.392 -2.75,1.113 -3.833,2.196 -0.931,0.932 -1.649,2.075 -1.93,3.075 l -0.076,0.273 1.979,-10e-4 c 1.089,-0.001 2.041,-0.042 2.116,-0.091 0.076,-0.049 0.581,-0.977 1.123,-2.061 0.925,-1.849 1.116,-2.128 1.279,-1.865 0.036,0.059 0.234,1.273 0.439,2.699 0.383,2.657 0.526,3.263 0.724,3.065 0.062,-0.062 0.255,-0.929 0.429,-1.929 z" />
    <path
       style="fill:#179cfd;stroke-width:2.31106"
       inkscape:connector-curvature="0"
       id="path21"
       d="m 37.695,354.688 c -0.128,-0.335 -0.083,-6.237 0.05,-6.485 0.067,-0.127 0.504,-0.453 0.97,-0.725 0.466,-0.272 0.847,-0.545 0.847,-0.607 0,-0.062 -0.31,-0.346 -0.689,-0.632 -1.386,-1.044 -2.563,-2.825 -3.002,-4.54 -0.243,-0.947 -0.246,-2.806 -0.007,-3.748 0.1,-0.398 0.41,-1.187 0.687,-1.754 0.404,-0.824 0.714,-1.24 1.546,-2.073 0.864,-0.864 1.237,-1.137 2.194,-1.607 1.659,-0.815 2.42,-0.989 4.306,-0.982 1.109,0.003 1.804,0.068 2.345,0.216 4.402,1.211 7.145,5.247 6.401,9.42 -0.341,1.915 -1.707,4.103 -3.215,5.147 -0.273,0.189 -0.497,0.389 -0.497,0.444 0,0.055 0.382,0.322 0.848,0.595 0.541,0.316 0.872,0.592 0.914,0.763 0.036,0.148 0.05,1.715 0.031,3.483 l -0.034,3.215 -6.81,0.03 c -6.132,0.029 -6.818,0.011 -6.885,-0.161 z m 6.598,-1.75 c 0.056,-1.173 0.08,-1.274 0.304,-1.274 0.223,0 0.247,0.101 0.303,1.274 l 0.061,1.274 h 2.909 c 2.723,0 2.913,-0.016 2.953,-0.222 0.102,-0.53 -0.121,-0.801 -1.429,-1.737 -0.732,-0.524 -1.361,-1.026 -1.397,-1.115 -0.098,-0.244 0.036,-0.384 0.367,-0.384 0.292,0 0.297,-0.015 0.297,-1.077 0,-0.794 0.046,-1.115 0.176,-1.223 0.341,-0.283 0.43,-0.008 0.43,1.327 0,0.725 0.033,1.403 0.073,1.508 0.104,0.272 1.232,1.075 1.38,0.983 0.189,-0.116 0.163,-3.727 -0.027,-3.966 -0.084,-0.105 -0.504,-0.392 -0.934,-0.64 -0.878,-0.505 -0.915,-0.505 -2.312,0.016 -0.853,0.316 -1.03,0.338 -2.85,0.341 -1.881,0.003 -1.976,-0.008 -3.068,-0.39 l -1.126,-0.393 -0.973,0.565 c -0.535,0.311 -1.024,0.662 -1.087,0.78 -0.064,0.118 -0.115,0.984 -0.115,1.925 0,1.372 0.034,1.723 0.174,1.776 0.216,0.083 1.245,-0.507 1.406,-0.807 0.065,-0.122 0.118,-0.795 0.118,-1.496 0,-1.318 0.124,-1.66 0.443,-1.224 0.106,0.145 0.164,0.578 0.164,1.233 v 1.01 l 0.496,-0.079 c 0.469,-0.075 0.493,-0.064 0.455,0.205 -0.032,0.221 -0.387,0.489 -1.58,1.191 -1.576,0.927 -1.792,1.158 -1.612,1.725 0.072,0.225 0.2,0.233 3.008,0.202 l 2.933,-0.033 z m 2.972,-5.863 c 2.435,-0.797 4.358,-2.617 5.174,-4.895 0.264,-0.738 0.451,-3.001 0.298,-3.609 l -0.078,-0.312 h -2.72 c -2.043,0 -2.744,0.038 -2.818,0.152 -0.054,0.083 -0.263,0.588 -0.465,1.121 -0.526,1.39 -0.684,1.347 -0.975,-0.267 -0.343,-1.905 -0.508,-1.805 -0.928,0.562 -0.325,1.834 -0.465,2.241 -0.692,2.005 -0.061,-0.063 -0.308,-1.48 -0.549,-3.148 -0.52,-3.598 -0.516,-3.579 -0.709,-3.579 -0.083,0 -0.519,0.737 -0.968,1.638 l -0.816,1.638 h -2.241 c -2.616,0 -2.491,-0.069 -2.491,1.367 0,1.107 0.351,2.527 0.87,3.523 0.584,1.12 2.215,2.696 3.385,3.271 1.509,0.742 2.468,0.945 4.237,0.894 1.228,-0.033 1.7,-0.103 2.486,-0.361 z m -3.336,-0.707 c -0.658,-0.148 -0.968,-0.396 -0.756,-0.608 0.105,-0.105 0.319,-0.111 0.805,-0.022 0.491,0.089 0.825,0.079 1.289,-0.04 0.663,-0.169 0.846,-0.136 0.846,0.157 0,0.397 -1.318,0.707 -2.184,0.513 z m -2.346,-2.872 c -0.261,-0.288 -0.255,-0.541 0.021,-0.79 0.32,-0.29 0.712,-0.247 0.942,0.102 0.184,0.281 0.184,0.326 0,0.607 -0.237,0.36 -0.677,0.397 -0.963,0.081 z m 4.706,-0.194 c -0.373,-0.57 0.273,-1.129 0.861,-0.744 0.34,0.223 0.384,0.571 0.107,0.848 -0.286,0.286 -0.745,0.237 -0.968,-0.104 z m -1.565,-5.469 c 0.291,-1.664 0.46,-2.135 0.681,-1.904 0.045,0.047 0.209,0.796 0.364,1.663 0.321,1.785 0.473,1.954 0.85,0.942 l 0.237,-0.634 2.752,-0.034 c 3.237,-0.038 3.138,0.023 2.372,-1.455 -0.591,-1.139 -1.975,-2.548 -3.136,-3.194 -4.176,-2.321 -9.584,-0.849 -11.679,3.18 -0.283,0.544 -0.514,1.13 -0.514,1.304 v 0.315 l 1.971,-0.002 c 1.084,0 2.033,-0.042 2.108,-0.091 0.075,-0.049 0.581,-0.976 1.123,-2.06 0.925,-1.85 1.116,-2.128 1.279,-1.865 0.036,0.058 0.233,1.273 0.439,2.699 0.383,2.656 0.526,3.263 0.724,3.064 0.061,-0.061 0.254,-0.929 0.429,-1.928 z" />
    <path
       style="fill:#050505;stroke-width:2.31106"
       inkscape:connector-curvature="0"
       id="path23"
       d="m 37.695,354.688 c -0.128,-0.335 -0.083,-6.237 0.05,-6.485 0.067,-0.127 0.504,-0.453 0.97,-0.725 0.466,-0.272 0.847,-0.545 0.847,-0.607 0,-0.062 -0.31,-0.346 -0.689,-0.632 -1.386,-1.044 -2.563,-2.825 -3.002,-4.54 -0.243,-0.947 -0.246,-2.806 -0.007,-3.748 0.1,-0.398 0.41,-1.187 0.687,-1.754 0.404,-0.824 0.714,-1.24 1.546,-2.073 0.864,-0.864 1.237,-1.137 2.194,-1.607 1.659,-0.815 2.42,-0.989 4.306,-0.982 1.109,0.003 1.804,0.068 2.345,0.216 4.402,1.211 7.145,5.247 6.401,9.42 -0.341,1.915 -1.707,4.103 -3.215,5.147 -0.273,0.189 -0.497,0.389 -0.497,0.444 0,0.055 0.382,0.322 0.848,0.595 0.541,0.316 0.872,0.592 0.914,0.763 0.036,0.148 0.05,1.715 0.031,3.483 l -0.034,3.215 -6.81,0.03 c -6.132,0.029 -6.818,0.011 -6.885,-0.161 z m 6.598,-1.75 c 0.056,-1.173 0.08,-1.274 0.304,-1.274 0.223,0 0.247,0.101 0.303,1.274 l 0.061,1.274 h 2.909 c 2.723,0 2.913,-0.016 2.953,-0.222 0.102,-0.53 -0.121,-0.801 -1.429,-1.737 -0.732,-0.524 -1.361,-1.026 -1.397,-1.115 -0.098,-0.244 0.036,-0.384 0.367,-0.384 0.292,0 0.297,-0.015 0.297,-1.077 0,-0.794 0.046,-1.115 0.176,-1.223 0.341,-0.283 0.43,-0.008 0.43,1.327 0,0.725 0.033,1.403 0.073,1.508 0.104,0.272 1.232,1.075 1.38,0.983 0.189,-0.116 0.163,-3.727 -0.027,-3.966 -0.084,-0.105 -0.504,-0.392 -0.934,-0.64 -0.878,-0.505 -0.915,-0.505 -2.312,0.016 -0.853,0.316 -1.03,0.338 -2.85,0.341 -1.881,0.003 -1.976,-0.008 -3.068,-0.39 l -1.126,-0.393 -0.973,0.565 c -0.535,0.311 -1.024,0.662 -1.087,0.78 -0.064,0.118 -0.115,0.984 -0.115,1.925 0,1.372 0.034,1.723 0.174,1.776 0.216,0.083 1.245,-0.507 1.406,-0.807 0.065,-0.122 0.118,-0.795 0.118,-1.496 0,-1.318 0.124,-1.66 0.443,-1.224 0.106,0.145 0.164,0.578 0.164,1.233 v 1.01 l 0.496,-0.079 c 0.469,-0.075 0.493,-0.064 0.455,0.205 -0.032,0.221 -0.387,0.489 -1.58,1.191 -1.576,0.927 -1.792,1.158 -1.612,1.725 0.072,0.225 0.2,0.233 3.008,0.202 l 2.933,-0.033 z m 2.972,-5.863 c 2.474,-0.81 4.446,-2.715 5.234,-5.055 0.293,-0.871 0.305,-3.256 0.021,-4.264 -0.49,-1.744 -1.999,-3.606 -3.676,-4.538 -3.408,-1.894 -7.698,-1.319 -10.374,1.391 -2.247,2.277 -2.789,5.66 -1.368,8.533 0.611,1.235 2.169,2.775 3.44,3.4 1.51,0.742 2.468,0.944 4.237,0.894 1.228,-0.033 1.701,-0.104 2.486,-0.361 z m -3.336,-0.707 c -0.658,-0.148 -0.968,-0.396 -0.756,-0.608 0.105,-0.105 0.319,-0.111 0.805,-0.022 0.491,0.089 0.825,0.079 1.289,-0.04 0.663,-0.169 0.846,-0.136 0.846,0.157 0,0.397 -1.318,0.707 -2.184,0.513 z m -2.346,-2.872 c -0.261,-0.288 -0.255,-0.541 0.021,-0.79 0.32,-0.29 0.712,-0.247 0.942,0.102 0.184,0.281 0.184,0.326 0,0.607 -0.237,0.36 -0.677,0.397 -0.963,0.081 z m 4.706,-0.194 c -0.373,-0.57 0.273,-1.129 0.861,-0.744 0.34,0.223 0.384,0.571 0.107,0.848 -0.286,0.286 -0.745,0.237 -0.968,-0.104 z" />
  </g>
  <g
     inkscape:groupmode="layer"
     id="layer1"
     inkscape:label="widgets"
     style="display:none">
    <rect
       style="fill:#00ff00;fill-opacity:1;stroke:none;stroke-width:2.09074736;stroke-miterlimit:4;stroke-dasharray:none;stroke-opacity:1"
       id="CLOCK"
       width="32"
       height="32"
       x="17.013702"
       y="40.085506"
       inkscape:label="#rect1279" />
    <rect
       style="fill:#00ff00;fill-opacity:1;stroke:none;stroke-width:0.98003787;stroke-miterlimit:4;stroke-dasharray:none;stroke-opacity:1"
       id="ROT_RIGHT"
       width="15"
       height="15"
       x="61.344215"
       y="176.88031"
       inkscape:label="#rect1305" />
    <rect
       y="54.189999"
       x="559.08063"
       height="15"
       width="15"
       id="VOCT_1"
       style="fill:#0000ff;fill-opacity:1;stroke:none;stroke-width:0.98003799;stroke-miterlimit:4;stroke-dasharray:none;stroke-opacity:1"
       inkscape:label="#rect1317" />
    <rect
       style="isolation:isolate;fill:#000000;fill-opacity:1;stroke:none;stroke-width:1.88735402;stroke-miterlimit:4;stroke-dasharray:none;stroke-opacity:1"
       id="rect823"
       width="376"
       height="492.22223"
       x="172"
       y="-40" />
    <g
       aria-label="TODO  REMOVE"
       style="font-style:normal;font-variant:normal;font-weight:normal;font-stretch:normal;font-size:40px;line-height:1.25;font-family:monospace;-inkscape-font-specification:'monospace, Normal';font-variant-ligatures:normal;font-variant-caps:normal;font-variant-numeric:normal;font-feature-settings:normal;text-align:center;letter-spacing:0px;word-spacing:0px;writing-mode:lr-tb;text-anchor:middle;isolation:isolate;fill:#ff0000;fill-opacity:1;stroke:none"
       id="text827">
      <path
         d="m 315.0152,159.72873 h 22.24609 v 3.32031 h -9.12109 v 25.83985 h -3.96485 v -25.83985 h -9.16015 z"
         id="path1257"
         inkscape:connector-curvature="0" />
      <path
         d="m 355.83551,174.3381 q 0,-6.42578 -1.32812,-9.17968 -1.3086,-2.75391 -4.31641,-2.75391 -2.98828,0 -4.31641,2.75391 -1.30859,2.7539 -1.30859,9.17968 0,6.40625 1.30859,9.16016 1.32813,2.75391 4.31641,2.75391 3.00781,0 4.31641,-2.73438 1.32812,-2.7539 1.32812,-9.17969 z m 4.12109,0 q 0,7.61719 -2.42187,11.36719 -2.40234,3.75 -7.34375,3.75 -4.94141,0 -7.34375,-3.73047 -2.40234,-3.73047 -2.40234,-11.38672 0,-7.63671 2.40234,-11.38671 2.42187,-3.75 7.34375,-3.75 4.94141,0 7.34375,3.75 2.42187,3.75 2.42187,11.38671 z"
         id="path1259"
         inkscape:connector-curvature="0" />
      <path
         d="m 370.73785,185.6467 q 4.98047,0 6.95313,-2.44141 1.97266,-2.46094 1.97266,-8.86719 0,-6.46484 -1.97266,-8.90625 -1.95313,-2.46093 -6.95313,-2.46093 h -1.875 v 22.67578 z m 0.0781,-25.91797 q 6.67969,0 9.84375,3.55469 3.16406,3.55468 3.16406,11.05468 0,7.46094 -3.16406,11.01563 -3.16406,3.53516 -9.84375,3.53516 h -5.91797 v -29.16016 z"
         id="path1261"
         inkscape:connector-curvature="0" />
      <path
         d="m 403.96051,174.3381 q 0,-6.42578 -1.32812,-9.17968 -1.3086,-2.75391 -4.31641,-2.75391 -2.98828,0 -4.31641,2.75391 -1.30859,2.7539 -1.30859,9.17968 0,6.40625 1.30859,9.16016 1.32813,2.75391 4.31641,2.75391 3.00781,0 4.31641,-2.73438 1.32812,-2.7539 1.32812,-9.17969 z m 4.12109,0 q 0,7.61719 -2.42187,11.36719 -2.40234,3.75 -7.34375,3.75 -4.94141,0 -7.34375,-3.73047 -2.40234,-3.73047 -2.40234,-11.38672 0,-7.63671 2.40234,-11.38671 2.42187,-3.75 7.34375,-3.75 4.94141,0 7.34375,3.75 2.42187,3.75 2.42187,11.38671 z"
         id="path1263"
         inkscape:connector-curvature="0" />
      <path
         d="m 304.87848,225.11935 q 1.52344,0.39063 2.59766,1.48438 1.07421,1.07422 2.67578,4.31641 l 3.96484,7.96875 h -4.23828 l -3.47656,-7.36329 q -1.50391,-3.14453 -2.71485,-4.04296 -1.1914,-0.91797 -3.125,-0.91797 h -3.76953 v 12.32422 h -3.96484 v -29.16016 h 8.125 q 4.80469,0 7.36328,2.16797 2.55859,2.16797 2.55859,6.26953 0,2.89062 -1.58203,4.72656 -1.5625,1.81641 -4.41406,2.22656 z m -8.08594,-12.14843 v 10.35156 h 4.31641 q 2.83203,0 4.21875,-1.26953 1.38672,-1.26953 1.38672,-3.88672 0,-2.51953 -1.48438,-3.84766 -1.46484,-1.34765 -4.27734,-1.34765 z"
         id="path1265"
         inkscape:connector-curvature="0" />
      <path
         d="m 317.94489,209.72873 h 17.30468 v 3.32031 H 321.8902 v 8.63281 h 12.77344 v 3.32032 H 321.8902 v 10.5664 h 13.73047 v 3.32032 h -17.67578 z"
         id="path1267"
         inkscape:connector-curvature="0" />
      <path
         d="m 339.83942,209.72873 h 5.27343 l 5.03907,14.84375 5.07812,-14.84375 h 5.29297 v 29.16016 h -3.65234 v -25.76172 l -5.19532,15.37109 h -2.98828 l -5.21484,-15.37109 v 25.76172 h -3.63281 z"
         id="path1269"
         inkscape:connector-curvature="0" />
      <path
         d="m 379.89801,224.3381 q 0,-6.42578 -1.32812,-9.17968 -1.3086,-2.75391 -4.31641,-2.75391 -2.98828,0 -4.31641,2.75391 -1.30859,2.7539 -1.30859,9.17968 0,6.40625 1.30859,9.16016 1.32813,2.75391 4.31641,2.75391 3.00781,0 4.31641,-2.73438 1.32812,-2.7539 1.32812,-9.17969 z m 4.12109,0 q 0,7.61719 -2.42187,11.36719 -2.40234,3.75 -7.34375,3.75 -4.94141,0 -7.34375,-3.73047 -2.40234,-3.73047 -2.40234,-11.38672 0,-7.63671 2.40234,-11.38671 2.42187,-3.75 7.34375,-3.75 4.94141,0 7.34375,3.75 2.42187,3.75 2.42187,11.38671 z"
         id="path1271"
         inkscape:connector-curvature="0" />
      <path
         d="m 398.31598,235.56857 6.85547,-25.83984 h 4.08203 l -8.53516,29.16016 h -4.78515 l -8.53516,-29.16016 h 4.08203 z"
         id="path1273"
         inkscape:connector-curvature="0" />
      <path
         d="m 414.19489,209.72873 h 17.30468 v 3.32031 H 418.1402 v 8.63281 h 12.77344 v 3.32032 H 418.1402 v 10.5664 h 13.73047 v 3.32032 h -17.67578 z"
         id="path1275"
         inkscape:connector-curvature="0" />
    </g>
    <rect
       style="fill:#0000ff;fill-opacity:1;stroke:none;stroke-width:0.98003787;stroke-miterlimit:4;stroke-dasharray:none;stroke-opacity:1"
       id="VOCT_2"
       width="15"
       height="15"
       x="559.08063"
       y="78.665947"
       inkscape:label="#rect1333" />
    <rect
       y="103.14216"
       x="559.08063"
       height="15"
       width="15"
       id="VOCT_3"
       style="fill:#0000ff;fill-opacity:1;stroke:none;stroke-width:0.98003787;stroke-miterlimit:4;stroke-dasharray:none;stroke-opacity:1"
       inkscape:label="#rect1337" />
    <rect
       style="fill:#0000ff;fill-opacity:1;stroke:none;stroke-width:0.98003787;stroke-miterlimit:4;stroke-dasharray:none;stroke-opacity:1"
       id="VOCT_4"
       width="15"
       height="15"
       x="559.08063"
       y="127.61829"
       inkscape:label="#rect1341" />
    <rect
       y="152.09445"
       x="559.08063"
       height="15"
       width="15"
       id="VOCT_5"
       style="fill:#0000ff;fill-opacity:1;stroke:none;stroke-width:0.98003787;stroke-miterlimit:4;stroke-dasharray:none;stroke-opacity:1"
       inkscape:label="#rect1345" />
    <rect
       style="fill:#0000ff;fill-opacity:1;stroke:none;stroke-width:0.98003787;stroke-miterlimit:4;stroke-dasharray:none;stroke-opacity:1"
       id="VOCT_6"
       width="15"
       height="15"
       x="559.08063"
       y="176.5706"
       inkscape:label="#rect1349" />
    <rect
       y="201.04675"
       x="559.08063"
       height="15"
       width="15"
       id="VOCT_7"
       style="fill:#0000ff;fill-opacity:1;stroke:none;stroke-width:0.98003787;stroke-miterlimit:4;stroke-dasharray:none;stroke-opacity:1"
       inkscape:label="#rect1351" />
    <rect
       style="fill:#0000ff;fill-opacity:1;stroke:none;stroke-width:0.98003787;stroke-miterlimit:4;stroke-dasharray:none;stroke-opacity:1"
       id="VOCT_8"
       width="15"
       height="15"
       x="559.08063"
       y="225.52292"
       inkscape:label="#rect1353" />
    <rect
       y="249.99908"
       x="559.08063"
       height="15"
       width="15"
       id="VOCT_9"
       style="fill:#0000ff;fill-opacity:1;stroke:none;stroke-width:0.98003787;stroke-miterlimit:4;stroke-dasharray:none;stroke-opacity:1"
       inkscape:label="#rect1355" />
    <rect
       style="fill:#0000ff;fill-opacity:1;stroke:none;stroke-width:0.98003787;stroke-miterlimit:4;stroke-dasharray:none;stroke-opacity:1"
       id="VOCT_10"
       width="15"
       height="15"
       x="559.08063"
       y="274.47522"
       inkscape:label="#rect1357" />
    <rect
       style="fill:#0000ff;fill-opacity:1;stroke:none;stroke-width:0.98003787;stroke-miterlimit:4;stroke-dasharray:none;stroke-opacity:1"
       id="GATE_1"
       width="15"
       height="15"
       x="591.8584"
       y="54.189823"
       inkscape:label="#rect1369" />
    <rect
       y="78.665947"
       x="591.8584"
       height="15"
       width="15"
       id="GATE_2"
       style="fill:#0000ff;fill-opacity:1;stroke:none;stroke-width:0.98003787;stroke-miterlimit:4;stroke-dasharray:none;stroke-opacity:1"
       inkscape:label="#rect1371" />
    <rect
       style="fill:#0000ff;fill-opacity:1;stroke:none;stroke-width:0.98003787;stroke-miterlimit:4;stroke-dasharray:none;stroke-opacity:1"
       id="GATE_3"
       width="15"
       height="15"
       x="591.8584"
       y="103.14216"
       inkscape:label="#rect1373" />
    <rect
       y="127.61829"
       x="591.8584"
       height="15"
       width="15"
       id="GATE_4"
       style="fill:#0000ff;fill-opacity:1;stroke:none;stroke-width:0.98003787;stroke-miterlimit:4;stroke-dasharray:none;stroke-opacity:1"
       inkscape:label="#rect1375" />
    <rect
       style="fill:#0000ff;fill-opacity:1;stroke:none;stroke-width:0.98003787;stroke-miterlimit:4;stroke-dasharray:none;stroke-opacity:1"
       id="GATE_5"
       width="15"
       height="15"
       x="591.8584"
       y="152.09445"
       inkscape:label="#rect1377" />
    <rect
       y="176.5706"
       x="591.8584"
       height="15"
       width="15"
       id="GATE_6"
       style="fill:#0000ff;fill-opacity:1;stroke:none;stroke-width:0.98003787;stroke-miterlimit:4;stroke-dasharray:none;stroke-opacity:1"
       inkscape:label="#rect1379" />
    <rect
       style="fill:#0000ff;fill-opacity:1;stroke:none;stroke-width:0.98003787;stroke-miterlimit:4;stroke-dasharray:none;stroke-opacity:1"
       id="GATE_7"
       width="15"
       height="15"
       x="591.8584"
       y="201.04675"
       inkscape:label="#rect1381" />
    <rect
       y="225.52292"
       x="591.8584"
       height="15"
       width="15"
       id="GATE_8"
       style="fill:#0000ff;fill-opacity:1;stroke:none;stroke-width:0.98003787;stroke-miterlimit:4;stroke-dasharray:none;stroke-opacity:1"
       inkscape:label="#rect1383" />
    <rect
       style="fill:#0000ff;fill-opacity:1;stroke:none;stroke-width:0.98003787;stroke-miterlimit:4;stroke-dasharray:none;stroke-opacity:1"
       id="GATE_9"
       width="15"
       height="15"
       x="591.8584"
       y="249.99908"
       inkscape:label="#rect1385" />
    <rect
       y="274.47522"
       x="591.8584"
       height="15"
       width="15"
       id="GATE_10"
       style="fill:#0000ff;fill-opacity:1;stroke:none;stroke-width:0.98003787;stroke-miterlimit:4;stroke-dasharray:none;stroke-opacity:1"
       inkscape:label="#rect1387" />
    <rect
       style="fill:#0000ff;fill-opacity:1;stroke:none;stroke-width:0.98003787;stroke-miterlimit:4;stroke-dasharray:none;stroke-opacity:1"
       id="MIN_VOCT"
       width="15"
       height="15"
       x="656.30286"
       y="54.74538"
       inkscape:label="#rect1423" />
    <rect
       y="79.221504"
       x="656.30286"
       height="15"
       width="15"
       id="MID_VOCT"
       style="fill:#0000ff;fill-opacity:1;stroke:none;stroke-width:0.98003787;stroke-miterlimit:4;stroke-dasharray:none;stroke-opacity:1"
       inkscape:label="#rect1425" />
    <rect
       style="fill:#0000ff;fill-opacity:1;stroke:none;stroke-width:0.98003787;stroke-miterlimit:4;stroke-dasharray:none;stroke-opacity:1"
       id="MAX_VOCT"
       width="15"
       height="15"
       x="656.30286"
       y="103.69772"
       inkscape:label="#rect1427" />
    <rect
       y="128.17386"
       x="656.30286"
       height="15"
       width="15"
       id="RND_VOCT"
       style="fill:#0000ff;fill-opacity:1;stroke:none;stroke-width:0.98003787;stroke-miterlimit:4;stroke-dasharray:none;stroke-opacity:1"
       inkscape:label="#rect1429" />
    <rect
       y="54.74538"
       x="689.08063"
       height="15"
       width="15"
       id="MIN_GATE"
       style="fill:#0000ff;fill-opacity:1;stroke:none;stroke-width:0.98003787;stroke-miterlimit:4;stroke-dasharray:none;stroke-opacity:1"
       inkscape:label="#rect1431" />
    <rect
       style="fill:#0000ff;fill-opacity:1;stroke:none;stroke-width:0.98003787;stroke-miterlimit:4;stroke-dasharray:none;stroke-opacity:1"
       id="MID_GATE"
       width="15"
       height="15"
       x="689.08063"
       y="79.221504"
       inkscape:label="#rect1433" />
    <rect
       y="103.69772"
       x="689.08063"
       height="15"
       width="15"
       id="MAX_GATE"
       style="fill:#0000ff;fill-opacity:1;stroke:none;stroke-width:0.98003787;stroke-miterlimit:4;stroke-dasharray:none;stroke-opacity:1"
       inkscape:label="#rect1435" />
    <rect
       style="fill:#0000ff;fill-opacity:1;stroke:none;stroke-width:0.98003787;stroke-miterlimit:4;stroke-dasharray:none;stroke-opacity:1"
       id="RND_GATE"
       width="15"
       height="15"
       x="689.08063"
       y="128.17386"
       inkscape:label="#rect1437" />
    <rect
       y="43.085506"
       x="71.854126"
       height="26"
       width="26"
       id="STEP_BTN"
       style="fill:#ff0000;fill-opacity:1;stroke:none;stroke-width:1.69873238;stroke-miterlimit:4;stroke-dasharray:none;stroke-opacity:1"
       inkscape:label="#rect1439" />
    <rect
       style="fill:#ff0000;fill-opacity:1;stroke:none;stroke-width:1.69873238;stroke-miterlimit:4;stroke-dasharray:none;stroke-opacity:1"
       id="PLAY_MODE_KNOB"
       width="26"
       height="26"
       x="123.4553"
       y="43.085506"
       inkscape:label="#rect1441" />
    <rect
       y="336.88031"
       x="126.41925"
       height="15"
       width="15"
       id="ONE_PER_COL_SWITCH"
       style="fill:#ff0000;fill-opacity:1;stroke:none;stroke-width:0.98003787;stroke-miterlimit:4;stroke-dasharray:none;stroke-opacity:1"
       inkscape:label="#rect1447" />
    <rect
       style="fill:#ff0000;fill-opacity:1;stroke:none;stroke-width:0.98003787;stroke-miterlimit:4;stroke-dasharray:none;stroke-opacity:1"
       id="ROT_RIGHT_BTN"
       width="15"
       height="15"
       x="82.564194"
       y="176.88031"
       inkscape:label="#rect1449" />
    <rect
       style="fill:#ff0000;fill-opacity:1;stroke:none;stroke-width:1.69873238;stroke-miterlimit:4;stroke-dasharray:none;stroke-opacity:1"
       id="LOW_MID_HIGH_SWITCH"
       width="26"
       height="26"
       x="556.33563"
       y="335.53592"
       inkscape:label="#rect1465" />
    <rect
       y="335.53592"
       x="599.12952"
       height="26"
       width="26"
       id="SCALE_KNOB"
       style="fill:#ff0000;fill-opacity:1;stroke:none;stroke-width:1.69873238;stroke-miterlimit:4;stroke-dasharray:none;stroke-opacity:1"
       inkscape:label="#rect1467" />
    <rect
       style="fill:#ff0000;fill-opacity:1;stroke:none;stroke-width:1.69873238;stroke-miterlimit:4;stroke-dasharray:none;stroke-opacity:1"
       id="NOTE_KNOB"
       width="26"
       height="26"
       x="641.92346"
       y="335.53592"
       inkscape:label="#rect1469" />
    <rect
       y="335.53592"
       x="684.71735"
       height="26"
       width="26"
       id="OCTAVE_KNOB"
       style="fill:#ff0000;fill-opacity:1;stroke:none;stroke-width:1.69873238;stroke-miterlimit:4;stroke-dasharray:none;stroke-opacity:1"
       inkscape:label="#rect1471" />
    <rect
       y="176.88031"
       x="116.34422"
       height="15"
       width="15"
       id="ROT_LEFT"
       style="fill:#00ff00;fill-opacity:1;stroke:none;stroke-width:0.98003787;stroke-miterlimit:4;stroke-dasharray:none;stroke-opacity:1"
       inkscape:label="#rect1473" />
    <rect
       y="176.88031"
       x="137.56419"
       height="15"
       width="15"
       id="ROT_LEFT_BTN"
       style="fill:#ff0000;fill-opacity:1;stroke:none;stroke-width:0.98003787;stroke-miterlimit:4;stroke-dasharray:none;stroke-opacity:1"
       inkscape:label="#rect1475" />
    <rect
       y="196.09796"
       x="61.344215"
       height="15"
       width="15"
       id="FLIP_RIGHT"
       style="fill:#00ff00;fill-opacity:1;stroke:none;stroke-width:0.98003787;stroke-miterlimit:4;stroke-dasharray:none;stroke-opacity:1"
       inkscape:label="#rect1477" />
    <rect
       y="196.09796"
       x="82.564194"
       height="15"
       width="15"
       id="FLIP_RIGHT_BTN"
       style="fill:#ff0000;fill-opacity:1;stroke:none;stroke-width:0.98003787;stroke-miterlimit:4;stroke-dasharray:none;stroke-opacity:1"
       inkscape:label="#rect1479" />
    <rect
       style="fill:#00ff00;fill-opacity:1;stroke:none;stroke-width:0.98003787;stroke-miterlimit:4;stroke-dasharray:none;stroke-opacity:1"
       id="FLIP_LEFT"
       width="15"
       height="15"
       x="116.34422"
       y="196.09796"
       inkscape:label="#rect1481" />
    <rect
       style="fill:#ff0000;fill-opacity:1;stroke:none;stroke-width:0.98003787;stroke-miterlimit:4;stroke-dasharray:none;stroke-opacity:1"
       id="FLIP_LEFT_BTN"
       width="15"
       height="15"
       x="137.56419"
       y="196.09796"
       inkscape:label="#rect1483" />
    <rect
       style="fill:#00ff00;fill-opacity:1;stroke:none;stroke-width:0.98003787;stroke-miterlimit:4;stroke-dasharray:none;stroke-opacity:1"
       id="FLIP_UP"
       width="15"
       height="15"
       x="61.344215"
       y="235.98683"
       inkscape:label="#rect1485" />
    <rect
       style="fill:#ff0000;fill-opacity:1;stroke:none;stroke-width:0.98003787;stroke-miterlimit:4;stroke-dasharray:none;stroke-opacity:1"
       id="FLIP_UP_BTN"
       width="15"
       height="15"
       x="82.564194"
       y="235.98683"
       inkscape:label="#rect1487" />
    <rect
       y="235.98683"
       x="116.34422"
       height="15"
       width="15"
       id="FLIP_DOWN"
       style="fill:#00ff00;fill-opacity:1;stroke:none;stroke-width:0.98003787;stroke-miterlimit:4;stroke-dasharray:none;stroke-opacity:1"
       inkscape:label="#rect1489" />
    <rect
       y="235.98683"
       x="137.56419"
       height="15"
       width="15"
       id="FLIP_DOWN_BTN"
       style="fill:#ff0000;fill-opacity:1;stroke:none;stroke-width:0.98003787;stroke-miterlimit:4;stroke-dasharray:none;stroke-opacity:1"
       inkscape:label="#rect1491" />
    <rect
       y="290.20911"
       x="61.344002"
       height="15"
       width="15"
       id="LIFE_MODE"
       style="fill:#00ff00;fill-opacity:1;stroke:none;stroke-width:0.98003787;stroke-miterlimit:4;stroke-dasharray:none;stroke-opacity:1"
       inkscape:label="#rect1493" />
    <rect
       y="290.20911"
       x="82.563972"
       height="15"
       width="15"
       id="LIFE_MODE_SWITCH"
       style="fill:#ff0000;fill-opacity:1;stroke:none;stroke-width:0.98003787;stroke-miterlimit:4;stroke-dasharray:none;stroke-opacity:1"
       inkscape:label="#rect1495" />
    <rect
       style="fill:#00ff00;fill-opacity:1;stroke:none;stroke-width:0.98003787;stroke-miterlimit:4;stroke-dasharray:none;stroke-opacity:1"
       id="LIFE_SPEED"
       width="15"
       height="15"
       x="116.344"
       y="290.20911"
       inkscape:label="#rect1497" />
    <rect
       style="fill:#ff0000;fill-opacity:1;stroke:none;stroke-width:0.98003787;stroke-miterlimit:4;stroke-dasharray:none;stroke-opacity:1"
       id="LIFE_SPEED_KNOB"
       width="15"
       height="15"
       x="137.56398"
       y="290.20911"
       inkscape:label="#rect1499" />
    <rect
       y="113.7692"
       x="61.344002"
       height="15"
       width="15"
       id="RND_TRIG"
       style="fill:#00ff00;fill-opacity:1;stroke:none;stroke-width:0.98003787;stroke-miterlimit:4;stroke-dasharray:none;stroke-opacity:1"
       inkscape:label="#rect1501" />
    <rect
       y="113.7692"
       x="82.56398"
       height="15"
       width="15"
       id="RND_TRIG_BTN"
       style="fill:#ff0000;fill-opacity:1;stroke:none;stroke-width:0.98003787;stroke-miterlimit:4;stroke-dasharray:none;stroke-opacity:1"
       inkscape:label="#rect1503" />
    <rect
       style="fill:#00ff00;fill-opacity:1;stroke:none;stroke-width:0.98003787;stroke-miterlimit:4;stroke-dasharray:none;stroke-opacity:1"
       id="RND_AMT"
       width="15"
       height="15"
       x="116.34401"
       y="113.7692"
       inkscape:label="#rect1505" />
    <rect
       style="fill:#ff0000;fill-opacity:1;stroke:none;stroke-width:0.98003787;stroke-miterlimit:4;stroke-dasharray:none;stroke-opacity:1"
       id="RND_AMT_KNOB"
       width="15"
       height="15"
       x="137.56398"
       y="113.7692"
       inkscape:label="#rect1507" />
  </g>
  <g
     id="text1"
     style="font-weight:bold;font-size:8px;-inkscape-font-specification:'sans-serif Bold';text-align:center;text-anchor:middle;fill:#1995fa;stroke-width:1.002"
     aria-label="Random&#10;Sound"
     transform="matrix(1,0,0,1.0014495,0.1453383,0)">
    <path
       d="m 7.8761501,21.635679 q 0,-0.21875 -0.089844,-0.375 -0.089844,-0.15625 -0.3085938,-0.246094 -0.1523437,-0.0625 -0.3554687,-0.07422 -0.203125,-0.01563 -0.4726563,-0.01563 H 6.1066189 v 1.566406 h 0.4609375 q 0.359375,0 0.6015625,-0.03516 0.2421875,-0.03516 0.40625,-0.160157 0.15625,-0.121093 0.2265625,-0.265625 0.074219,-0.148437 0.074219,-0.394531 z m 2.3398439,4.035156 H 8.3839626 L 6.7980251,23.538023 H 6.1066189 v 2.132812 H 4.6144314 v -5.816406 h 2.515625 q 0.515625,0 0.8867187,0.05859 0.3710938,0.05859 0.6953125,0.253906 0.328125,0.195313 0.5195313,0.507813 0.1953125,0.308593 0.1953125,0.777343 0,0.644532 -0.3007813,1.050782 -0.296875,0.40625 -0.8515625,0.675781 z m 3.234375,-1.144531 v -0.914062 q -0.285156,0.02344 -0.617188,0.06641 -0.332031,0.03906 -0.503906,0.09375 -0.210937,0.06641 -0.324219,0.195312 -0.109375,0.125 -0.109375,0.332032 0,0.136718 0.02344,0.222656 0.02344,0.08594 0.117187,0.164062 0.08984,0.07813 0.214844,0.117188 0.125,0.03516 0.390625,0.03516 0.210938,0 0.425781,-0.08594 0.21875,-0.08594 0.382813,-0.226563 z m 0,0.679688 q -0.113281,0.08594 -0.28125,0.207031 -0.167969,0.121094 -0.316406,0.191406 -0.207032,0.09375 -0.429688,0.136719 -0.222656,0.04687 -0.488281,0.04687 -0.625,0 -1.046875,-0.386719 -0.421875,-0.386719 -0.421875,-0.988281 0,-0.480469 0.214844,-0.785156 0.214843,-0.304688 0.609375,-0.480469 0.390625,-0.175781 0.96875,-0.25 0.578125,-0.07422 1.199218,-0.109375 v -0.02344 q 0,-0.363281 -0.296875,-0.5 -0.296875,-0.140625 -0.875,-0.140625 -0.347656,0 -0.742187,0.125 -0.394531,0.121094 -0.566406,0.1875 H 10.848806 V 21.37786 q 0.222657,-0.05859 0.722657,-0.136719 0.503906,-0.08203 1.007812,-0.08203 1.199219,0 1.730469,0.371093 0.535156,0.367188 0.535156,1.15625 v 2.984375 h -1.394531 z m 7.09375,0.464843 h -1.414063 v -2.175781 q 0,-0.265625 -0.02734,-0.527344 -0.02734,-0.265625 -0.09375,-0.390625 -0.07813,-0.144531 -0.230469,-0.210937 -0.148438,-0.06641 -0.417969,-0.06641 -0.191406,0 -0.390625,0.0625 -0.195312,0.0625 -0.425781,0.199218 v 3.109375 h -1.40625 v -4.386718 h 1.40625 v 0.484375 q 0.375,-0.292969 0.71875,-0.449219 0.347656,-0.15625 0.769531,-0.15625 0.710938,0 1.109375,0.414062 0.402344,0.414063 0.402344,1.238282 z m 5.558594,0 h -1.40625 v -0.457031 q -0.363282,0.296875 -0.679688,0.4375 -0.316406,0.140625 -0.730469,0.140625 -0.800781,0 -1.28125,-0.617187 -0.480468,-0.617188 -0.480468,-1.664063 0,-0.558594 0.160156,-0.988281 0.164062,-0.433594 0.445312,-0.742188 0.265625,-0.292968 0.644532,-0.453125 0.378906,-0.164062 0.757812,-0.164062 0.394531,0 0.644531,0.08594 0.253907,0.08203 0.519532,0.210938 V 19.59271 h 1.40625 z m -1.40625,-1.210937 v -2.152344 q -0.148438,-0.0625 -0.3125,-0.08984 -0.164063,-0.02734 -0.300782,-0.02734 -0.554687,0 -0.832031,0.347656 -0.277344,0.34375 -0.277344,0.957031 0,0.644531 0.222657,0.9375 0.222656,0.289063 0.714843,0.289063 0.191407,0 0.40625,-0.07031 0.214844,-0.07422 0.378907,-0.191406 z m 7.21875,-0.980469 q 0,1.082031 -0.632813,1.707031 -0.628906,0.621094 -1.769531,0.621094 -1.140625,0 -1.773438,-0.621094 -0.628906,-0.625 -0.628906,-1.707031 0,-1.089844 0.632813,-1.710937 0.636718,-0.621094 1.769531,-0.621094 1.148437,0 1.773437,0.625 0.628907,0.625 0.628907,1.707031 z m -1.730469,1.066406 q 0.136719,-0.167968 0.203125,-0.402343 0.07031,-0.238282 0.07031,-0.65625 0,-0.386719 -0.07031,-0.648438 -0.07031,-0.261719 -0.195313,-0.417969 -0.125,-0.160156 -0.300781,-0.226562 -0.175781,-0.06641 -0.378906,-0.06641 -0.203125,0 -0.363281,0.05469 -0.15625,0.05469 -0.300782,0.21875 -0.128906,0.152344 -0.207031,0.417969 -0.07422,0.265625 -0.07422,0.667969 0,0.359375 0.06641,0.625 0.06641,0.261718 0.195312,0.421875 0.125,0.152343 0.296875,0.222656 0.175781,0.07031 0.398438,0.07031 0.191406,0 0.363281,-0.0625 0.175781,-0.06641 0.296875,-0.21875 z m 7.027344,-1.984375 v 3.109375 h -1.414063 v -2.191406 q 0,-0.320312 -0.01563,-0.542969 -0.01563,-0.226562 -0.08594,-0.367187 -0.07031,-0.140625 -0.214844,-0.203125 -0.140625,-0.06641 -0.398438,-0.06641 -0.207031,0 -0.402343,0.08594 -0.195313,0.08203 -0.351563,0.175781 v 3.109375 h -1.40625 v -4.386718 h 1.40625 v 0.484375 q 0.363281,-0.285157 0.695313,-0.445313 0.332031,-0.160156 0.734375,-0.160156 0.433593,0 0.765625,0.195312 0.332031,0.191407 0.519531,0.566407 0.421875,-0.355469 0.820312,-0.558594 0.398438,-0.203125 0.78125,-0.203125 0.710938,0 1.078125,0.425781 0.371094,0.425781 0.371094,1.226563 v 2.855468 H 38.68083 v -2.191406 q 0,-0.324219 -0.01563,-0.546875 -0.01172,-0.222656 -0.08203,-0.363281 -0.06641,-0.140625 -0.210937,-0.203125 -0.144531,-0.06641 -0.40625,-0.06641 -0.175781,0 -0.34375,0.0625 -0.167969,0.05859 -0.410156,0.199218 z"
       id="path2" />
    <path
       d="m 13.612478,33.84271 q 0,0.859375 -0.730468,1.398438 -0.726563,0.535156 -1.976563,0.535156 -0.722656,0 -1.2617187,-0.125 Q 9.108572,35.522398 8.639822,35.327085 v -1.394531 h 0.1640625 q 0.4648438,0.371094 1.0390625,0.570313 0.578125,0.199218 1.109375,0.199218 0.136719,0 0.359375,-0.02344 0.222656,-0.02344 0.363281,-0.07813 0.171875,-0.07031 0.28125,-0.175781 0.113282,-0.105469 0.113282,-0.3125 0,-0.191407 -0.164063,-0.328125 -0.160156,-0.140625 -0.472656,-0.214844 -0.328125,-0.07813 -0.695313,-0.144531 -0.363281,-0.07031 -0.683593,-0.175782 -0.7343755,-0.238281 -1.0585942,-0.644531 -0.3203125,-0.410156 -0.3203125,-1.015625 0,-0.8125 0.7265625,-1.324219 0.7304692,-0.515625 1.8750002,-0.515625 0.574219,0 1.132812,0.113282 0.5625,0.109375 0.972657,0.277343 v 1.339844 h -0.160157 q -0.351562,-0.28125 -0.863281,-0.46875 -0.507812,-0.191406 -1.039062,-0.191406 -0.1875,0 -0.375,0.02734 -0.183594,0.02344 -0.355469,0.09375 -0.152344,0.05859 -0.261719,0.179687 -0.109375,0.117188 -0.109375,0.269531 0,0.230469 0.175781,0.355469 0.175782,0.121094 0.664063,0.222656 0.320312,0.06641 0.613281,0.128907 0.296875,0.0625 0.636719,0.171875 0.667969,0.21875 0.984375,0.597656 0.320312,0.375 0.320312,0.976562 z m 5.433594,-0.363281 q 0,1.082031 -0.632812,1.707031 -0.628907,0.621094 -1.769532,0.621094 -1.140625,0 -1.773437,-0.621094 -0.628906,-0.625 -0.628906,-1.707031 0,-1.089844 0.632812,-1.710937 0.636719,-0.621094 1.769531,-0.621094 1.148438,0 1.773438,0.625 0.628906,0.625 0.628906,1.707031 z m -1.730469,1.066406 q 0.136719,-0.167968 0.203125,-0.402343 0.07031,-0.238282 0.07031,-0.65625 0,-0.386719 -0.07031,-0.648438 -0.07031,-0.261719 -0.195312,-0.417969 -0.125,-0.160156 -0.300781,-0.226562 -0.175782,-0.06641 -0.378907,-0.06641 -0.203125,0 -0.363281,0.05469 -0.15625,0.05469 -0.300781,0.21875 -0.128906,0.152344 -0.207031,0.417969 -0.07422,0.265625 -0.07422,0.667969 0,0.359375 0.06641,0.625 0.06641,0.261718 0.195313,0.421875 0.125,0.152343 0.296875,0.222656 0.175781,0.07031 0.398437,0.07031 0.191406,0 0.363281,-0.0625 0.175782,-0.06641 0.296875,-0.21875 z m 7.109375,1.125 h -1.40625 V 35.18646 q -0.390625,0.296875 -0.714843,0.453125 -0.324219,0.152344 -0.773438,0.152344 -0.726562,0 -1.121094,-0.417969 -0.390625,-0.417968 -0.390625,-1.234375 v -2.855468 h 1.414063 v 2.175781 q 0,0.332031 0.01953,0.554687 0.02344,0.21875 0.101563,0.363282 0.07422,0.144531 0.222656,0.210937 0.152344,0.06641 0.421875,0.06641 0.179687,0 0.398437,-0.06641 0.21875,-0.06641 0.421875,-0.195312 v -3.109375 h 1.40625 z m 5.734375,0 h -1.414062 v -2.175781 q 0,-0.265625 -0.02734,-0.527344 -0.02734,-0.265625 -0.09375,-0.390625 -0.07813,-0.144531 -0.230469,-0.210937 -0.148437,-0.06641 -0.417968,-0.06641 -0.191407,0 -0.390625,0.0625 -0.195313,0.0625 -0.425782,0.199218 v 3.109375 h -1.40625 v -4.386718 h 1.40625 v 0.484375 q 0.375,-0.292969 0.71875,-0.449219 0.347657,-0.15625 0.769532,-0.15625 0.710937,0 1.109375,0.414062 0.402343,0.414063 0.402343,1.238282 z m 5.558594,0 h -1.40625 v -0.457031 q -0.363281,0.296875 -0.679687,0.4375 -0.316407,0.140625 -0.730469,0.140625 -0.800781,0 -1.28125,-0.617187 -0.480469,-0.617188 -0.480469,-1.664063 0,-0.558594 0.160156,-0.988281 0.164063,-0.433594 0.445313,-0.742188 0.265625,-0.292968 0.644531,-0.453125 0.378906,-0.164062 0.757813,-0.164062 0.394531,0 0.644531,0.08594 0.253906,0.08203 0.519531,0.210938 V 29.59271 h 1.40625 z m -1.40625,-1.210937 v -2.152344 q -0.148437,-0.0625 -0.3125,-0.08984 -0.164062,-0.02734 -0.300781,-0.02734 -0.554688,0 -0.832031,0.347656 -0.277344,0.34375 -0.277344,0.957031 0,0.644531 0.222656,0.9375 0.222656,0.289063 0.714844,0.289063 0.191406,0 0.40625,-0.07031 0.214844,-0.07422 0.378906,-0.191406 z"
       id="path3" />
  </g>
  <path
     d="m 16.780596,63.35293 q 0,0.66176 -0.289714,1.19965 -0.286458,0.53789 -0.764974,0.83455 -0.332031,0.20536 -0.742188,0.29664 -0.406901,0.0912 -1.074219,0.0912 h -1.223959 v -4.85404 h 1.210938 q 0.709636,0 1.126303,0.10432 0.419922,0.10106 0.709635,0.28036 0.494792,0.30969 0.771485,0.82476 0.276693,0.51507 0.276693,1.22247 z m -0.673828,-0.01 q 0,-0.57049 -0.198568,-0.96169 -0.198568,-0.39119 -0.592448,-0.61613 -0.286459,-0.16299 -0.608725,-0.22493 -0.322265,-0.0652 -0.771484,-0.0652 h -0.605469 v 3.74566 h 0.605469 q 0.465495,0 0.810547,-0.0685 0.348307,-0.0685 0.638021,-0.25426 0.361328,-0.23147 0.540365,-0.60962 0.182292,-0.37814 0.182292,-0.94537 z m 4.710288,0.67479 h -2.679037 q 0,0.33578 0.100911,0.58679 0.100912,0.24776 0.276693,0.40749 0.169271,0.15648 0.400391,0.23472 0.234375,0.0782 0.514323,0.0782 0.371094,0 0.745443,-0.1467 0.377604,-0.14995 0.53711,-0.29339 h 0.03255 v 0.66828 q -0.309245,0.13039 -0.631511,0.21841 -0.322266,0.088 -0.677084,0.088 -0.904948,0 -1.412761,-0.48899 -0.507813,-0.49225 -0.507813,-1.39525 0,-0.89321 0.485027,-1.41806 0.488281,-0.52485 1.282552,-0.52485 0.735678,0 1.132813,0.43031 0.400391,0.43031 0.400391,1.22247 z m -0.595703,-0.46943 q -0.0033,-0.48246 -0.244141,-0.74652 -0.23763,-0.26405 -0.725912,-0.26405 -0.491536,0 -0.784505,0.29013 -0.289714,0.29014 -0.328776,0.72045 z m 4.212241,1.99835 q -0.305989,0.14669 -0.582682,0.22819 -0.273438,0.0815 -0.582683,0.0815 -0.39388,0 -0.722656,-0.11409 -0.328777,-0.11736 -0.563152,-0.35207 -0.23763,-0.23472 -0.367838,-0.59331 -0.130209,-0.35859 -0.130209,-0.8378 0,-0.89322 0.488282,-1.40177 0.491536,-0.50855 1.295573,-0.50855 0.3125,0 0.61198,0.088 0.302734,0.088 0.553385,0.21515 v 0.68133 h -0.03255 q -0.279948,-0.21842 -0.579427,-0.33578 -0.296224,-0.11735 -0.579428,-0.11735 -0.520833,0 -0.823568,0.35207 -0.299479,0.34882 -0.299479,1.02688 0,0.6585 0.292969,1.01384 0.296224,0.35207 0.830078,0.35207 0.185547,0 0.377605,-0.0489 0.192057,-0.0489 0.345052,-0.12713 0.133464,-0.0685 0.250651,-0.14344 0.117188,-0.0782 0.185547,-0.13365 h 0.03255 z m 3.610029,0.22819 h -0.608725 v -0.38794 q -0.08138,0.0554 -0.221354,0.15648 -0.136719,0.0978 -0.266927,0.15648 -0.152995,0.075 -0.351563,0.12388 -0.198568,0.0522 -0.465495,0.0522 -0.491536,0 -0.833334,-0.32599 -0.341797,-0.32599 -0.341797,-0.83128 0,-0.41401 0.175782,-0.66829 0.179036,-0.25753 0.507813,-0.40422 0.332031,-0.14671 0.797526,-0.19886 0.465495,-0.0522 0.999349,-0.0782 v -0.0945 q 0,-0.20863 -0.07487,-0.34555 -0.07162,-0.13692 -0.208334,-0.21516 -0.130208,-0.075 -0.3125,-0.10106 -0.182292,-0.026 -0.38086,-0.026 -0.240885,0 -0.537109,0.0652 -0.296224,0.062 -0.61198,0.18255 h -0.03255 v -0.62264 q 0.179037,-0.0489 0.517579,-0.10758 0.338541,-0.0587 0.667318,-0.0587 0.384114,0 0.667318,0.0652 0.286458,0.062 0.494792,0.21515 0.205078,0.14996 0.3125,0.38794 0.107422,0.23797 0.107422,0.59004 z m -0.608725,-0.89648 v -1.01384 q -0.279948,0.0163 -0.660807,0.0489 -0.377605,0.0327 -0.598959,0.0945 -0.263672,0.075 -0.426432,0.23471 -0.162761,0.15648 -0.162761,0.43358 0,0.31295 0.188802,0.47268 0.188803,0.15648 0.576172,0.15648 0.322266,0 0.589193,-0.12387 0.266928,-0.12715 0.494792,-0.30318 z m 4.879561,-2.74486 -2.122397,4.98443 h -0.654297 l 0.677084,-1.51913 -1.448568,-3.4653 h 0.664062 l 1.116537,2.69922 1.126303,-2.69922 z"
     id="text2"
     style="font-size:6.66667px;-inkscape-font-specification:sans-serif;text-align:center;text-anchor:middle;fill:#ffffff;fill-opacity:1;stroke-width:1.00273"
     aria-label="Decay" />
  <path
     d="M 8.6604745,140.28445 H 7.8238855 L 6.202791,138.35458 H 5.2945875 v 1.92987 H 4.6500559 v -4.85403 h 1.3574225 q 0.4394534,0 0.7324223,0.0587 0.2929688,0.0554 0.527344,0.20211 0.263672,0.16626 0.4101564,0.42053 0.1497397,0.25102 0.1497397,0.63895 0,0.52485 -0.263672,0.88018 -0.263672,0.35207 -0.7259119,0.53137 z m -1.5071622,-3.48812 q 0,-0.20864 -0.07487,-0.36837 -0.071615,-0.163 -0.2408856,-0.27384 -0.139974,-0.0945 -0.3320314,-0.1304 -0.1920573,-0.0392 -0.4524741,-0.0392 H 5.2945875 v 1.83208 h 0.6510419 q 0.3059898,0 0.5338545,-0.0522 0.2278647,-0.0554 0.3873699,-0.20211 0.1464845,-0.13692 0.2148439,-0.31295 0.071615,-0.1793 0.071615,-0.45313 z m 4.7786487,3.48812 h -0.608724 v -0.38793 q -0.08138,0.0554 -0.221354,0.15648 -0.136719,0.0978 -0.266928,0.15647 -0.152994,0.075 -0.351562,0.12388 -0.198568,0.0522 -0.465495,0.0522 -0.4915373,0 -0.8333343,-0.32599 -0.3417971,-0.326 -0.3417971,-0.83129 0,-0.41401 0.1757814,-0.66828 0.1790365,-0.25754 0.5078127,-0.40423 0.332031,-0.1467 0.7975273,-0.19886 0.465495,-0.0522 0.999349,-0.0782 v -0.0945 q 0,-0.20863 -0.07487,-0.34555 -0.07161,-0.13692 -0.208333,-0.21515 -0.130209,-0.075 -0.3125,-0.10106 -0.182292,-0.026 -0.38086,-0.026 -0.240886,0 -0.5371103,0.0652 -0.296224,0.062 -0.6119792,0.18256 h -0.032552 v -0.62265 q 0.1790362,-0.0489 0.5175782,-0.10758 0.3385423,-0.0587 0.6673183,-0.0587 0.384115,0 0.667318,0.0652 0.286459,0.0619 0.494792,0.21516 0.205078,0.14996 0.3125,0.38793 0.107422,0.23798 0.107422,0.59004 z m -0.608724,-0.89648 v -1.01383 q -0.279948,0.0163 -0.660808,0.0489 -0.377604,0.0326 -0.598958,0.0945 -0.2636723,0.075 -0.4264333,0.23471 -0.16276,0.15648 -0.16276,0.43357 0,0.31295 0.188802,0.4727 0.188802,0.15647 0.5761723,0.15647 0.322266,0 0.589193,-0.12388 0.266927,-0.12713 0.494792,-0.30317 z m 4.827476,0.89648 h -0.611979 v -2.07331 q 0,-0.25101 -0.0293,-0.46943 -0.0293,-0.22168 -0.107422,-0.34556 -0.08138,-0.13691 -0.234375,-0.20211 -0.152995,-0.0685 -0.397136,-0.0685 -0.250651,0 -0.524089,0.12388 -0.273437,0.12388 -0.524088,0.31622 v 2.71877 h -0.61198 v -3.64134 h 0.61198 v 0.40424 q 0.286458,-0.23798 0.592448,-0.37164 0.30599,-0.13366 0.628255,-0.13366 0.589193,0 0.898438,0.35534 0.309245,0.35532 0.309245,1.02361 z m 4.127605,0 h -0.611979 v -0.38141 q -0.263672,0.2282 -0.550131,0.35533 -0.286458,0.12714 -0.621745,0.12714 -0.651042,0 -1.035157,-0.50203 -0.380858,-0.50203 -0.380858,-1.39199 0,-0.46291 0.130207,-0.82476 0.133464,-0.36185 0.358073,-0.61613 0.221355,-0.24775 0.514324,-0.37815 0.296224,-0.1304 0.611979,-0.1304 0.286459,0 0.507813,0.0619 0.221354,0.0587 0.465495,0.18582 v -1.57781 h 0.611979 z m -0.611979,-0.89648 v -2.08961 q -0.247396,-0.11084 -0.442709,-0.15322 -0.195312,-0.0424 -0.426432,-0.0424 -0.514323,0 -0.800782,0.35859 -0.286458,0.35858 -0.286458,1.01709 0,0.64873 0.221354,0.98776 0.221354,0.33577 0.709636,0.33577 0.260416,0 0.527344,-0.11409 0.266927,-0.11736 0.498047,-0.29992 z m 4.915367,-0.92256 q 0,0.88997 -0.455729,1.40503 -0.455729,0.51507 -1.220704,0.51507 -0.771485,0 -1.227214,-0.51507 -0.452474,-0.51506 -0.452474,-1.40503 0,-0.88996 0.452474,-1.40503 0.455729,-0.51833 1.227214,-0.51833 0.764975,0 1.220704,0.51833 0.455729,0.51507 0.455729,1.40503 z m -0.63151,0 q 0,-0.70741 -0.276693,-1.04969 -0.276693,-0.34556 -0.76823,-0.34556 -0.498047,0 -0.77474,0.34556 -0.273437,0.34228 -0.273437,1.04969 0,0.68459 0.276692,1.03991 0.276694,0.35208 0.771485,0.35208 0.488282,0 0.764976,-0.34881 0.279948,-0.35207 0.279947,-1.04318 z m 6.884767,1.81904 h -0.611979 v -2.07331 q 0,-0.23472 -0.02279,-0.45314 -0.01953,-0.21841 -0.08789,-0.3488 -0.07487,-0.14018 -0.214844,-0.2119 -0.139974,-0.0717 -0.403646,-0.0717 -0.257162,0 -0.514323,0.1304 -0.257162,0.12713 -0.514324,0.32599 0.0098,0.075 0.01628,0.17603 0.0065,0.0979 0.0065,0.19561 v 2.33084 h -0.61198 v -2.07331 q 0,-0.24124 -0.02279,-0.45639 -0.01953,-0.21842 -0.08789,-0.34882 -0.07487,-0.14017 -0.214844,-0.20863 -0.139974,-0.0717 -0.403646,-0.0717 -0.250651,0 -0.504557,0.12388 -0.250651,0.12388 -0.501302,0.31622 v 2.71877 h -0.61198 v -3.64134 h 0.61198 v 0.40424 q 0.286458,-0.23798 0.569661,-0.37164 0.286459,-0.13366 0.608725,-0.13366 0.371093,0 0.628255,0.15648 0.260417,0.15648 0.38737,0.43357 0.371094,-0.31295 0.677084,-0.44987 0.305989,-0.14018 0.654297,-0.14018 0.598958,0 0.882162,0.36511 0.286458,0.36186 0.286458,1.01384 z m 1.835939,-4.25094 h -0.690104 v -0.63569 h 0.690104 z m -0.03906,4.25094 h -0.61198 v -3.64134 h 0.61198 z m 3.847658,0 h -2.9362 v -0.45312 l 2.119142,-2.67641 h -2.073568 v -0.51181 h 2.835287 v 0.43683 l -2.128907,2.68618 h 2.184245 z m 3.870445,-1.7571 h -2.679039 q 0,0.33577 0.100913,0.58679 0.100911,0.24776 0.276692,0.40749 0.16927,0.15647 0.400391,0.23472 0.234375,0.0782 0.514323,0.0782 0.371094,0 0.745443,-0.14669 0.377605,-0.14996 0.53711,-0.2934 h 0.03255 v 0.66829 q -0.309245,0.13039 -0.631512,0.21841 -0.322265,0.088 -0.677082,0.088 -0.90495,0 -1.412762,-0.48899 -0.507813,-0.49225 -0.507813,-1.39525 0,-0.89322 0.485027,-1.41807 0.488282,-0.52485 1.282553,-0.52485 0.735677,0 1.132813,0.43032 0.400391,0.4303 0.400391,1.22247 z m -0.595704,-0.46943 q -0.0033,-0.48247 -0.24414,-0.74652 -0.237632,-0.26405 -0.725913,-0.26405 -0.491536,0 -0.784505,0.29013 -0.289714,0.29013 -0.328777,0.72044 z"
     id="text2-9"
     style="font-size:6.66667px;-inkscape-font-specification:sans-serif;text-align:center;text-anchor:middle;fill:#ffffff;fill-opacity:1;stroke-width:1.00273"
     aria-label="Randomize" />
  <path
     d="m 14.967443,183.40942 h -1.731772 v 4.28029 h -0.644532 v -4.28029 h -1.731771 v -0.57375 h 4.108075 z m 2.220053,1.30723 h -0.03255 q -0.136719,-0.0326 -0.266927,-0.0457 -0.126954,-0.0163 -0.302735,-0.0163 -0.283203,0 -0.546875,0.12714 -0.263672,0.12388 -0.507813,0.32273 v 2.58513 h -0.611979 v -3.64135 h 0.611979 v 0.53789 q 0.364584,-0.29339 0.641276,-0.41401 0.279948,-0.12388 0.569662,-0.12388 0.159505,0 0.23112,0.01 0.07161,0.007 0.214844,0.0293 z m 1.233724,-1.27789 h -0.690104 v -0.63569 h 0.690104 z m -0.03906,4.25095 h -0.61198 v -3.64135 h 0.61198 z m 4.160158,-0.41401 q 0,0.92582 -0.419922,1.35938 -0.419922,0.43357 -1.292318,0.43357 -0.289714,0 -0.566407,-0.0424 -0.273437,-0.0392 -0.540364,-0.11411 v -0.6259 h 0.03255 q 0.149739,0.0587 0.47526,0.14344 0.325521,0.088 0.651042,0.088 0.3125,0 0.517579,-0.075 0.205078,-0.075 0.31901,-0.20864 0.113933,-0.12713 0.162761,-0.30643 0.04883,-0.1793 0.04883,-0.40097 v -0.33251 q -0.276693,0.22167 -0.530599,0.33251 -0.250651,0.10757 -0.641277,0.10757 -0.651042,0 -1.035156,-0.46942 -0.38086,-0.47269 -0.38086,-1.33005 0,-0.46943 0.130208,-0.80847 0.133464,-0.34229 0.361329,-0.59004 0.211588,-0.23146 0.514323,-0.35859 0.302734,-0.1304 0.602214,-0.1304 0.315755,0 0.527344,0.0652 0.214844,0.062 0.452474,0.19234 l 0.03906,-0.15648 h 0.572917 z m -0.611979,-0.58679 v -1.9853 q -0.244141,-0.11084 -0.455729,-0.15647 -0.208334,-0.0489 -0.416667,-0.0489 -0.504558,0 -0.794272,0.33903 -0.289713,0.33903 -0.289713,0.9845 0,0.61287 0.214844,0.92908 0.214843,0.31621 0.712891,0.31621 0.266927,0 0.533854,-0.10106 0.270182,-0.10431 0.494792,-0.27709 z m 4.765627,0.58679 q 0,0.92582 -0.419922,1.35938 -0.419922,0.43357 -1.292319,0.43357 -0.289713,0 -0.566406,-0.0424 -0.273438,-0.0392 -0.540365,-0.11411 v -0.6259 h 0.03255 q 0.14974,0.0587 0.475261,0.14344 0.325521,0.088 0.651042,0.088 0.3125,0 0.517578,-0.075 0.205078,-0.075 0.319011,-0.20864 0.113932,-0.12713 0.16276,-0.30643 0.04883,-0.1793 0.04883,-0.40097 v -0.33251 q -0.276693,0.22167 -0.530599,0.33251 -0.250651,0.10757 -0.641276,0.10757 -0.651042,0 -1.035157,-0.46942 -0.38086,-0.47269 -0.38086,-1.33005 0,-0.46943 0.130209,-0.80847 0.133463,-0.34229 0.361328,-0.59004 0.211589,-0.23146 0.514323,-0.35859 0.302735,-0.1304 0.602214,-0.1304 0.315756,0 0.527344,0.0652 0.214844,0.062 0.452474,0.19234 l 0.03906,-0.15648 h 0.572917 z m -0.61198,-0.58679 v -1.9853 q -0.24414,-0.11084 -0.455729,-0.15647 -0.208333,-0.0489 -0.416667,-0.0489 -0.504557,0 -0.794271,0.33903 -0.289714,0.33903 -0.289714,0.9845 0,0.61287 0.214844,0.92908 0.214844,0.31621 0.712891,0.31621 0.266927,0 0.533854,-0.10106 0.270183,-0.10431 0.494792,-0.27709 z m 4.860029,-0.75631 h -2.679037 q 0,0.33578 0.100911,0.58679 0.100912,0.24776 0.276693,0.40749 0.169271,0.15648 0.400391,0.23472 0.234375,0.0782 0.514323,0.0782 0.371094,0 0.745443,-0.14669 0.377604,-0.14996 0.53711,-0.29339 h 0.03255 v 0.66828 q -0.309245,0.1304 -0.631511,0.21842 -0.322266,0.088 -0.677084,0.088 -0.904948,0 -1.412761,-0.489 -0.507813,-0.49224 -0.507813,-1.39524 0,-0.89322 0.485027,-1.41807 0.488281,-0.52485 1.282552,-0.52485 0.735678,0 1.132813,0.43031 0.400391,0.43031 0.400391,1.22247 z m -0.595703,-0.46943 q -0.0033,-0.48247 -0.244141,-0.74652 -0.23763,-0.26405 -0.725912,-0.26405 -0.491536,0 -0.784505,0.29013 -0.289714,0.29013 -0.328776,0.72044 z m 3.792319,-0.74652 h -0.03255 q -0.136719,-0.0326 -0.266928,-0.0457 -0.126953,-0.0163 -0.302734,-0.0163 -0.283203,0 -0.546875,0.12714 -0.263672,0.12388 -0.507813,0.32273 v 2.58513 h -0.61198 v -3.64135 h 0.61198 v 0.53789 q 0.364583,-0.29339 0.641276,-0.41401 0.279948,-0.12388 0.569662,-0.12388 0.159505,0 0.23112,0.01 0.07161,0.007 0.214844,0.0293 z"
     id="text2-9-5"
     style="font-size:6.66667px;-inkscape-font-specification:sans-serif;text-align:center;text-anchor:middle;fill:#ffffff;fill-opacity:1;stroke-width:1.00273"
     aria-label="Trigger" />
  <path
     d="m 15.099279,289.70547 q 0.296224,0.32599 0.452474,0.79868 0.159505,0.47269 0.159505,1.07252 0,0.59983 -0.16276,1.07578 -0.159505,0.47268 -0.449219,0.7889 -0.299479,0.32924 -0.709636,0.4955 -0.406901,0.16626 -0.93099,0.16626 -0.511068,0 -0.93099,-0.16952 -0.416667,-0.16952 -0.709636,-0.49224 -0.292968,-0.32274 -0.452474,-0.79217 -0.15625,-0.46943 -0.15625,-1.07251 0,-0.59331 0.15625,-1.06274 0.15625,-0.47269 0.45573,-0.80846 0.286458,-0.31947 0.709635,-0.489 0.426433,-0.16951 0.927735,-0.16951 0.520834,0 0.934245,0.17278 0.416667,0.16951 0.706381,0.48573 z m -0.05859,1.8712 q 0,-0.94538 -0.423177,-1.45719 -0.423177,-0.51508 -1.1556,-0.51508 -0.738932,0 -1.162109,0.51508 -0.419923,0.51181 -0.419923,1.45719 0,0.95515 0.429688,1.46371 0.429688,0.50528 1.152344,0.50528 0.722657,0 1.14909,-0.50528 0.429687,-0.50856 0.429687,-1.46371 z m 4.658206,2.42538 h -0.61198 v -0.40423 q -0.309245,0.2445 -0.592448,0.3749 -0.283203,0.13039 -0.625,0.13039 -0.572917,0 -0.891928,-0.34881 -0.31901,-0.35208 -0.31901,-1.03014 v -2.36345 h 0.611979 v 2.07332 q 0,0.27709 0.02604,0.47595 0.02604,0.19559 0.110677,0.33576 0.08789,0.14344 0.227865,0.20865 0.139974,0.0652 0.406901,0.0652 0.23763,0 0.517578,-0.12388 0.283203,-0.12387 0.527344,-0.31621 v -2.71878 h 0.61198 z m 3.092449,-0.0326 q -0.172526,0.0457 -0.377604,0.075 -0.201823,0.0293 -0.361329,0.0293 -0.556641,0 -0.846354,-0.29991 -0.289714,-0.29991 -0.289714,-0.96168 v -1.9364 h -0.413412 v -0.51507 h 0.413412 v -1.04644 h 0.611979 v 1.04644 h 1.263022 v 0.51507 h -1.263026 v 1.65931 q 0,0.28687 0.01302,0.44987 0.01302,0.15973 0.09115,0.29991 0.07161,0.1304 0.195313,0.19233 0.126953,0.0587 0.384115,0.0587 0.149739,0 0.3125,-0.0424 0.16276,-0.0457 0.234375,-0.075 h 0.03255 z m 3.938804,-1.83208 q 0,0.44335 -0.126954,0.81173 -0.126953,0.3651 -0.358073,0.61938 -0.214844,0.24124 -0.507812,0.37489 -0.289714,0.1304 -0.615235,0.1304 -0.283203,0 -0.514323,-0.062 -0.227865,-0.0619 -0.465495,-0.19233 v 1.52564 h -0.61198 v -4.98443 h 0.61198 v 0.38141 q 0.24414,-0.20538 0.546875,-0.34228 0.30599,-0.14019 0.651042,-0.14019 0.657552,0 1.022136,0.49877 0.367839,0.49551 0.367839,1.37895 z m -0.631511,0.0163 q 0,-0.6585 -0.22461,-0.98449 -0.224609,-0.326 -0.690104,-0.326 -0.263672,0 -0.530599,0.1141 -0.266928,0.1141 -0.511068,0.29992 v 2.06352 q 0.260417,0.11736 0.445963,0.15974 0.188803,0.0424 0.426433,0.0424 0.511068,0 0.797526,-0.34556 0.286459,-0.34555 0.286459,-1.02362 z m 4.599611,1.84838 h -0.611979 v -0.40423 q -0.309245,0.2445 -0.592449,0.3749 -0.283203,0.13039 -0.625,0.13039 -0.572917,0 -0.891927,-0.34881 -0.319011,-0.35208 -0.319011,-1.03014 v -2.36345 h 0.611979 v 2.07332 q 0,0.27709 0.02604,0.47595 0.02604,0.19559 0.110677,0.33576 0.08789,0.14344 0.227865,0.20865 0.139974,0.0652 0.406901,0.0652 0.237631,0 0.517579,-0.12388 0.283203,-0.12387 0.527344,-0.31621 v -2.71878 h 0.611979 z m 3.092449,-0.0326 q -0.172526,0.0457 -0.377604,0.075 -0.201823,0.0293 -0.361328,0.0293 -0.556641,0 -0.846355,-0.29991 -0.289714,-0.29991 -0.289714,-0.96168 v -1.9364 h -0.413411 v -0.51507 h 0.413411 v -1.04644 h 0.61198 v 1.04644 h 1.263021 v 0.51507 h -1.263021 v 1.65931 q 0,0.28687 0.01302,0.44987 0.01302,0.15973 0.09115,0.29991 0.07161,0.1304 0.195312,0.19233 0.126953,0.0587 0.384115,0.0587 0.14974,0 0.3125,-0.0424 0.162761,-0.0457 0.234375,-0.075 h 0.03255 z"
     id="text2-9-5-6"
     style="font-size:6.66667px;-inkscape-font-specification:sans-serif;text-align:center;text-anchor:middle;fill:#ffffff;stroke-width:1.00273;fill-opacity:1"
     aria-label="Output" />
  <path
     d="M 9.7249276,236.56163 H 8.8883386 L 7.267244,234.63175 H 6.3590404 v 1.92988 H 5.7145089 v -4.85403 h 1.3574225 q 0.4394534,0 0.7324223,0.0586 0.2929689,0.0554 0.527344,0.20212 0.2636721,0.16626 0.4101565,0.42053 0.1497397,0.25102 0.1497397,0.63895 0,0.52485 -0.2636721,0.88017 -0.263672,0.35208 -0.7259118,0.53138 z m -1.5071622,-3.48812 q 0,-0.20864 -0.07487,-0.36838 -0.071614,-0.163 -0.2408855,-0.27383 -0.1399741,-0.0946 -0.3320314,-0.1304 -0.1920574,-0.0391 -0.4524742,-0.0391 H 6.3590404 v 1.83209 h 0.651042 q 0.3059898,0 0.5338545,-0.0521 0.2278647,-0.0554 0.38737,-0.20211 0.1464845,-0.13692 0.2148439,-0.31295 0.071615,-0.1793 0.071615,-0.45313 z m 5.1237006,3.48812 h -0.611979 v -2.07332 q 0,-0.25101 -0.0293,-0.46943 -0.0293,-0.22167 -0.107422,-0.34555 -0.08138,-0.13692 -0.234376,-0.20211 -0.152995,-0.0684 -0.397135,-0.0684 -0.250651,0 -0.524089,0.12388 -0.273438,0.12388 -0.524088,0.31621 v 2.71878 h -0.61198 v -3.64134 h 0.61198 v 0.40423 q 0.286458,-0.23797 0.592447,-0.37163 0.30599,-0.13366 0.628256,-0.13366 0.589193,0 0.898438,0.35533 0.309245,0.35534 0.309245,1.02362 z m 4.127607,0 h -0.61198 v -0.38141 q -0.263672,0.22819 -0.55013,0.35533 -0.286459,0.12714 -0.621746,0.12714 -0.651042,0 -1.035157,-0.50204 -0.380859,-0.50202 -0.380859,-1.39198 0,-0.46291 0.130209,-0.82476 0.133463,-0.36185 0.358072,-0.61613 0.221355,-0.24776 0.514324,-0.37815 0.296224,-0.1304 0.611979,-0.1304 0.286459,0 0.507812,0.0619 0.221355,0.0586 0.465496,0.18581 v -1.5778 h 0.61198 z m -0.61198,-0.89648 v -2.08962 q -0.247396,-0.11084 -0.442709,-0.15321 -0.195313,-0.0424 -0.426432,-0.0424 -0.514324,0 -0.800782,0.35859 -0.286458,0.35859 -0.286458,1.0171 0,0.64873 0.221354,0.98776 0.221354,0.33576 0.709636,0.33576 0.260416,0 0.527344,-0.11409 0.266927,-0.11735 0.498047,-0.29991 z m 6.136071,-2.9861 q 0,-0.30969 -0.185547,-0.48573 -0.182292,-0.17929 -0.46875,-0.17929 -0.299479,0 -0.488282,0.20212 -0.188802,0.19885 -0.188802,0.48898 0,0.2445 0.126953,0.43358 0.130209,0.18907 0.556641,0.44661 0.319011,-0.1141 0.481771,-0.33252 0.166016,-0.22167 0.166016,-0.57375 z m 0.631511,2.8557 -1.555991,-1.51913 q -0.100912,0.0489 -0.201822,0.13041 -0.100912,0.0782 -0.201824,0.21515 -0.09114,0.12713 -0.14974,0.30643 -0.0586,0.17929 -0.0586,0.40424 0,0.47594 0.276692,0.76933 0.279948,0.29014 0.791016,0.29014 0.302735,0 0.598959,-0.14669 0.299479,-0.14996 0.501303,-0.44988 z m 0.979818,-1.93639 v 0.31295 q 0,0.31295 -0.08138,0.70415 -0.08138,0.39118 -0.276693,0.74652 l 1.230469,1.19965 h -0.800782 l -0.745443,-0.73022 q -0.374348,0.4629 -0.764974,0.64873 -0.390625,0.18255 -0.804037,0.18255 -0.677083,0 -1.126303,-0.39446 -0.445964,-0.39771 -0.445964,-1.03991 0,-0.29992 0.08464,-0.51833 0.08464,-0.21841 0.198568,-0.37815 0.113932,-0.15322 0.283203,-0.28688 0.169271,-0.13692 0.341797,-0.23797 -0.358072,-0.23472 -0.517578,-0.47269 -0.156251,-0.23797 -0.156251,-0.59983 0,-0.21841 0.08464,-0.41401 0.0879,-0.19885 0.260417,-0.36185 0.16276,-0.15647 0.423178,-0.25427 0.263672,-0.0978 0.579427,-0.0978 0.563151,0 0.911459,0.28687 0.348307,0.28362 0.348307,0.72045 0,0.14343 -0.03906,0.32599 -0.03906,0.17929 -0.133464,0.32274 -0.104167,0.15973 -0.296224,0.30643 -0.192058,0.14669 -0.498047,0.25101 l 1.207683,1.18009 q 0.04558,-0.13039 0.06836,-0.28687 0.02278,-0.15648 0.02604,-0.32599 0.0065,-0.18256 0.0033,-0.40749 0,-0.22494 0,-0.38141 z m 7.106124,-1.31701 h -1.731772 v 4.28028 h -0.644532 v -4.28028 h -1.731771 v -0.57375 h 4.108075 z m 2.220053,1.30722 h -0.03256 q -0.136719,-0.0326 -0.266927,-0.0456 -0.126954,-0.0163 -0.302734,-0.0163 -0.283204,0 -0.546876,0.12713 -0.263672,0.12388 -0.507813,0.32273 v 2.58513 h -0.611979 v -3.64134 h 0.611979 v 0.53789 q 0.364584,-0.29339 0.641276,-0.41401 0.279948,-0.12388 0.569663,-0.12388 0.159505,0 0.231119,0.01 0.07162,0.007 0.214844,0.0293 z m 1.233725,-1.27788 H 34.47429 V 231.675 h 0.690105 z m -0.03906,4.25094 h -0.61198 v -3.64134 h 0.61198 z m 4.160159,-0.41402 q 0,0.92582 -0.419923,1.3594 -0.419922,0.43357 -1.292318,0.43357 -0.289714,0 -0.566406,-0.0423 -0.273438,-0.0391 -0.540366,-0.1141 v -0.6259 h 0.03256 q 0.149739,0.0586 0.47526,0.14343 0.325521,0.0881 0.651043,0.0881 0.312499,0 0.517578,-0.075 0.205078,-0.075 0.319011,-0.20863 0.113932,-0.12714 0.16276,-0.30643 0.04882,-0.1793 0.04882,-0.40097 v -0.33252 q -0.276693,0.22168 -0.530599,0.33252 -0.250652,0.10757 -0.641277,0.10757 -0.651042,0 -1.035157,-0.46943 -0.380859,-0.47269 -0.380859,-1.33005 0,-0.46943 0.130208,-0.80846 0.133464,-0.34229 0.361329,-0.59005 0.211589,-0.23146 0.514322,-0.35859 0.302735,-0.13039 0.602215,-0.13039 0.315755,0 0.527344,0.0651 0.214843,0.0619 0.452474,0.19233 l 0.03906,-0.15647 h 0.572918 z m -0.61198,-0.58678 v -1.9853 q -0.244141,-0.11084 -0.45573,-0.15647 -0.208333,-0.0489 -0.416667,-0.0489 -0.504557,0 -0.79427,0.33903 -0.289714,0.33903 -0.289714,0.9845 0,0.61287 0.214844,0.92908 0.214843,0.31621 0.712891,0.31621 0.266927,0 0.533854,-0.10106 0.270182,-0.10432 0.494792,-0.27709 z"
     id="text3"
     style="font-size:6.6715px;-inkscape-font-specification:sans-serif;text-align:center;text-anchor:middle;fill:#ffffff;fill-opacity:1;stroke-width:1.00273"
     aria-label="Rnd &amp; Trig" />
</svg>
