<?xml version="1.0" encoding="UTF-8" standalone="no"?>
<!-- Created with Inkscape (http://www.inkscape.org/) -->

<svg
   xmlns:dc="http://purl.org/dc/elements/1.1/"
   xmlns:cc="http://creativecommons.org/ns#"
   xmlns:rdf="http://www.w3.org/1999/02/22-rdf-syntax-ns#"
   xmlns:svg="http://www.w3.org/2000/svg"
   xmlns="http://www.w3.org/2000/svg"
   xmlns:sodipodi="http://sodipodi.sourceforge.net/DTD/sodipodi-0.dtd"
   xmlns:inkscape="http://www.inkscape.org/namespaces/inkscape"
   width="90"
   height="380.00003"
   viewBox="0 0 23.8125 100.54167"
   version="1.1"
   id="svg8630"
   inkscape:version="0.92.2 5c3e80d, 2017-08-06"
   sodipodi:docname="Vals.svg">
  <defs
     id="defs8624" />
  <sodipodi:namedview
     id="base"
     pagecolor="#ffffff"
     bordercolor="#666666"
     borderopacity="1.0"
     inkscape:pageopacity="0.0"
     inkscape:pageshadow="2"
     inkscape:zoom="1.979899"
     inkscape:cx="19.056712"
     inkscape:cy="212.17093"
     inkscape:document-units="px"
     inkscape:current-layer="layer1"
     showgrid="false"
     fit-margin-top="0"
     fit-margin-left="0"
     fit-margin-right="0"
     fit-margin-bottom="0"
     units="px"
     inkscape:window-width="1043"
     inkscape:window-height="964"
     inkscape:window-x="184"
     inkscape:window-y="0"
     inkscape:window-maximized="0" />
  <metadata
     id="metadata8627">
    <rdf:RDF>
      <cc:Work
         rdf:about="">
        <dc:format>image/svg+xml</dc:format>
        <dc:type
           rdf:resource="http://purl.org/dc/dcmitype/StillImage" />
        <dc:title></dc:title>
      </cc:Work>
    </rdf:RDF>
  </metadata>
  <g
     inkscape:label="Layer 1"
     inkscape:groupmode="layer"
     id="layer1"
     transform="translate(-44.467833,-88.735117)">
    <path
       inkscape:connector-curvature="0"
       id="path33449"
       d="M 44.541176,88.808436 H 68.353675 V 189.20454 H 44.541176 Z m 0,0"
       style="fill:#e6e6e6;fill-opacity:1;fill-rule:nonzero;stroke:none;stroke-width:0.27602378" />
    <path
       style="fill:#000000;fill-opacity:1;stroke:none;stroke-width:0.27602378"
       d="m 49.532671,170.99032 c 0,0.0604 0.05175,0.10782 0.11213,0.10782 0.06038,0 0.112157,-0.0474 0.112157,-0.10782 v -1.05666 c 0,-0.0604 -0.05178,-0.10782 -0.112157,-0.10782 -0.06038,0 -0.11213,0.0474 -0.11213,0.10782 z m 0,0"
       id="path9255"
       inkscape:connector-curvature="0" />
    <path
       style="fill:#000000;fill-opacity:1;stroke:none;stroke-width:0.27602378"
       d="m 50.146081,170.99032 c 0,0.0604 0.05175,0.10782 0.11213,0.10782 0.06038,0 0.107844,-0.0474 0.107844,-0.10782 v -0.79789 l 0.646907,0.8367 c 0.03021,0.0388 0.0604,0.069 0.112157,0.069 h 0.0087 c 0.06038,0 0.107817,-0.0517 0.107817,-0.11213 v -1.05235 c 0,-0.0604 -0.04744,-0.10782 -0.107817,-0.10782 -0.06038,0 -0.107845,0.0474 -0.107845,0.10782 v 0.77201 l -0.629654,-0.81514 c -0.03019,-0.0388 -0.0604,-0.0647 -0.112157,-0.0647 h -0.02593 c -0.06038,0 -0.11213,0.0518 -0.11213,0.11214 z m 0,0"
       id="path9251"
       inkscape:connector-curvature="0" />
    <path
       style="fill:#000000;fill-opacity:1;stroke:none;stroke-width:0.27602378"
       d="m 60.948807,168.46646 h 0.741812 c 0.05178,0 0.09922,-0.0431 0.09922,-0.0992 0,-0.0517 -0.04744,-0.0992 -0.09922,-0.0992 h -0.629655 v -0.33641 h 0.539089 c 0.05175,0 0.09919,-0.0431 0.09919,-0.0949 0,-0.0561 -0.04744,-0.1035 -0.09919,-0.1035 h -0.539089 v -0.32347 h 0.62103 c 0.05178,0 0.09491,-0.0431 0.09491,-0.0992 0,-0.0561 -0.04313,-0.0992 -0.09491,-0.0992 h -0.733187 c -0.06038,0 -0.11213,0.0474 -0.11213,0.11214 v 1.03077 c 0,0.0647 0.05175,0.11214 0.11213,0.11214 z m 0,0"
       id="path9219"
       inkscape:connector-curvature="0" />
    <path
       style="fill:#000000;fill-opacity:1;stroke:none;stroke-width:0.27602378"
       d="m 62.033281,168.37158 c 0,0.0647 0.05175,0.1035 0.103505,0.1035 0.04744,0 0.07763,-0.0216 0.107818,-0.0604 l 0.332105,-0.43128 0.336391,0.43991 c 0.02593,0.0345 0.05175,0.0517 0.09922,0.0517 0.06469,0 0.11213,-0.0474 0.11213,-0.10782 0,-0.0302 -0.0172,-0.0604 -0.0345,-0.0819 l -0.37092,-0.46148 0.349356,-0.4356 c 0.0217,-0.0302 0.0345,-0.0517 0.0345,-0.0863 0,-0.0604 -0.05175,-0.0992 -0.09919,-0.0992 -0.04747,0 -0.07766,0.0216 -0.107845,0.0604 l -0.314827,0.40973 -0.314854,-0.41835 c -0.03019,-0.0345 -0.05607,-0.0517 -0.103505,-0.0517 -0.06038,0 -0.107818,0.0474 -0.107818,0.10782 0,0.0302 0.0172,0.0561 0.0345,0.082 l 0.349355,0.4356 -0.370919,0.46147 c -0.0217,0.0259 -0.0345,0.0517 -0.0345,0.0819 z m 0,0"
       id="path9215"
       inkscape:connector-curvature="0" />
    <path
       style="fill:#000000;fill-opacity:1;stroke:none;stroke-width:0.27602378"
       d="m 63.752703,168.36726 c 0,0.0604 0.05175,0.10782 0.11213,0.10782 0.06038,0 0.11213,-0.0474 0.11213,-0.10782 v -0.95314 h 0.306203 c 0.05609,0 0.09922,-0.0474 0.09922,-0.0992 0,-0.0561 -0.04313,-0.10351 -0.09922,-0.10351 h -0.836692 c -0.05606,0 -0.09919,0.0474 -0.09919,0.10351 0,0.0517 0.04313,0.0992 0.09919,0.0992 h 0.306229 z m 0,0"
       id="path9211"
       inkscape:connector-curvature="0" />
    <path
       style="fill:#000000;fill-opacity:1;stroke:none;stroke-width:0.27602378"
       d="m 61.108324,156.47362 c 0,0.0604 0.05175,0.10782 0.112131,0.10782 0.06038,0 0.112157,-0.0474 0.112157,-0.10782 v -1.05666 c 0,-0.0604 -0.05178,-0.10782 -0.112157,-0.10782 -0.06038,0 -0.112131,0.0474 -0.112131,0.10782 z m 0,0"
       id="path9119"
       inkscape:connector-curvature="0" />
    <path
       style="fill:#000000;fill-opacity:1;stroke:none;stroke-width:0.27602378"
       d="m 61.721893,156.47362 c 0,0.0604 0.05175,0.10782 0.112131,0.10782 0.06038,0 0.107844,-0.0474 0.107844,-0.10782 v -0.79788 l 0.646906,0.83669 c 0.03022,0.0388 0.0604,0.069 0.112157,0.069 h 0.0087 c 0.06038,0 0.107818,-0.0517 0.107818,-0.11213 v -1.05234 c 0,-0.0604 -0.04744,-0.10782 -0.107818,-0.10782 -0.06038,0 -0.107844,0.0474 -0.107844,0.10782 v 0.772 l -0.629655,-0.81513 c -0.03019,-0.0388 -0.0604,-0.0647 -0.112157,-0.0647 h -0.02593 c -0.06038,0 -0.112131,0.0518 -0.112131,0.11214 z m 0,0"
       id="path9115"
       inkscape:connector-curvature="0" />
    <path
       style="fill:#000000;fill-opacity:1;stroke:none;stroke-width:0.27602378"
       d="m 63.491982,156.47362 c 0,0.0604 0.05175,0.10782 0.112131,0.10782 0.06038,0 0.11213,-0.0474 0.11213,-0.10782 v -0.95315 h 0.306202 c 0.05609,0 0.09922,-0.0474 0.09922,-0.0992 0,-0.0561 -0.04313,-0.10351 -0.09922,-0.10351 h -0.836692 c -0.05607,0 -0.09919,0.0474 -0.09919,0.10351 0,0.0517 0.04313,0.0992 0.09919,0.0992 h 0.306229 z m 0,0"
       id="path9111"
       inkscape:connector-curvature="0" />
    <path
       inkscape:connector-curvature="0"
       id="path35373"
       d="m 63.376359,170.47805 -0.816186,0.81621 -0.817272,-0.81621"
       style="fill:none;stroke:#000000;stroke-width:0.18383184;stroke-linecap:round;stroke-linejoin:round;stroke-miterlimit:10;stroke-opacity:1" />
    <path
       inkscape:connector-curvature="0"
       id="path38411"
       d="m 68.280333,137.44038 h -23.8125 V 100.4823 h 23.8125 z m 0,0"
       style="fill:#1e282b;fill-opacity:1;fill-rule:nonzero;stroke:none;stroke-width:0.27602378" />
    <g
       aria-label="TIME"
       style="font-style:normal;font-variant:normal;font-weight:normal;font-stretch:normal;font-size:2.82222223px;line-height:1.25;font-family:monospace;-inkscape-font-specification:'monospace, Normal';font-variant-ligatures:normal;font-variant-caps:normal;font-variant-numeric:normal;font-feature-settings:normal;text-align:start;letter-spacing:0px;word-spacing:0px;writing-mode:lr-tb;text-anchor:start;fill:#000000;fill-opacity:1;stroke:none;stroke-width:0.26458332"
       id="text229"
       transform="translate(-25.929168)">
      <path
         d="m 72.72954,139.95263 h 1.569585 v 0.23427 h -0.643544 v 1.82314 H 73.37584 v -1.82314 h -0.6463 z"
         style="font-style:normal;font-variant:normal;font-weight:normal;font-stretch:normal;font-size:2.82222223px;font-family:monospace;-inkscape-font-specification:'monospace, Normal';font-variant-ligatures:normal;font-variant-caps:normal;font-variant-numeric:normal;font-feature-settings:normal;text-align:start;writing-mode:lr-tb;text-anchor:start;stroke-width:0.26458332"
         id="path244"
         inkscape:connector-curvature="0" />
      <path
         d="m 74.639501,139.95263 h 1.142393 v 0.23427 h -0.431326 v 1.58887 h 0.431326 v 0.23427 h -1.142393 v -0.23427 h 0.431326 v -1.58887 h -0.431326 z"
         style="font-style:normal;font-variant:normal;font-weight:normal;font-stretch:normal;font-size:2.82222223px;font-family:monospace;-inkscape-font-specification:'monospace, Normal';font-variant-ligatures:normal;font-variant-caps:normal;font-variant-numeric:normal;font-feature-settings:normal;text-align:start;writing-mode:lr-tb;text-anchor:start;stroke-width:0.26458332"
         id="path246"
         inkscape:connector-curvature="0" />
      <path
         d="m 76.178769,139.95263 h 0.372071 l 0.355534,1.04731 0.35829,-1.04731 h 0.373448 v 2.05741 h -0.257693 v -1.81763 l -0.366558,1.08451 h -0.21084 l -0.367936,-1.08451 v 1.81763 h -0.256316 z"
         style="font-style:normal;font-variant:normal;font-weight:normal;font-stretch:normal;font-size:2.82222223px;font-family:monospace;-inkscape-font-specification:'monospace, Normal';font-variant-ligatures:normal;font-variant-caps:normal;font-variant-numeric:normal;font-feature-settings:normal;text-align:start;writing-mode:lr-tb;text-anchor:start;stroke-width:0.26458332"
         id="path248"
         inkscape:connector-curvature="0" />
      <path
         d="m 78.029475,139.95263 h 1.220942 v 0.23427 h -0.942578 v 0.60909 h 0.901237 v 0.23427 h -0.901237 v 0.74551 h 0.96876 v 0.23427 h -1.247124 z"
         style="font-style:normal;font-variant:normal;font-weight:normal;font-stretch:normal;font-size:2.82222223px;font-family:monospace;-inkscape-font-specification:'monospace, Normal';font-variant-ligatures:normal;font-variant-caps:normal;font-variant-numeric:normal;font-feature-settings:normal;text-align:start;writing-mode:lr-tb;text-anchor:start;stroke-width:0.26458332"
         id="path250"
         inkscape:connector-curvature="0" />
    </g>
    <g
       aria-label="TRIG"
       style="font-style:normal;font-variant:normal;font-weight:normal;font-stretch:normal;font-size:2.82222223px;line-height:1.25;font-family:monospace;-inkscape-font-specification:'monospace, Normal';font-variant-ligatures:normal;font-variant-caps:normal;font-variant-numeric:normal;font-feature-settings:normal;text-align:start;letter-spacing:0px;word-spacing:0px;writing-mode:lr-tb;text-anchor:start;fill:#000000;fill-opacity:1;stroke:none;stroke-width:0.26458332"
       id="text233"
       transform="translate(-25.929168)">
      <path
         d="m 85.825746,139.91267 h 1.569586 v 0.23426 h -0.643544 v 1.82315 h -0.279742 v -1.82315 h -0.6463 z"
         style="font-style:normal;font-variant:normal;font-weight:normal;font-stretch:normal;font-size:2.82222223px;font-family:monospace;-inkscape-font-specification:'monospace, Normal';font-variant-ligatures:normal;font-variant-caps:normal;font-variant-numeric:normal;font-feature-settings:normal;text-align:start;writing-mode:lr-tb;text-anchor:start;stroke-width:0.26458332"
         id="path235"
         inkscape:connector-curvature="0" />
      <path
         d="m 88.506031,140.99856 q 0.107487,0.0276 0.183279,0.10473 0.07579,0.0758 0.188791,0.30455 l 0.279742,0.56224 h -0.299034 l -0.245291,-0.51952 q -0.106109,-0.22187 -0.191548,-0.28526 -0.08406,-0.0648 -0.220486,-0.0648 h -0.265961 v 0.86954 h -0.279742 v -2.05741 h 0.573264 q 0.338998,0 0.519521,0.15296 0.180523,0.15296 0.180523,0.44235 0,0.20395 -0.111622,0.33348 -0.110243,0.12816 -0.311436,0.1571 z m -0.570508,-0.85714 v 0.73036 h 0.304546 q 0.199816,0 0.297657,-0.0896 0.09784,-0.0896 0.09784,-0.27423 0,-0.17777 -0.104731,-0.27147 -0.103352,-0.0951 -0.30179,-0.0951 z"
         style="font-style:normal;font-variant:normal;font-weight:normal;font-stretch:normal;font-size:2.82222223px;font-family:monospace;-inkscape-font-specification:'monospace, Normal';font-variant-ligatures:normal;font-variant-caps:normal;font-variant-numeric:normal;font-feature-settings:normal;text-align:start;writing-mode:lr-tb;text-anchor:start;stroke-width:0.26458332"
         id="path237"
         inkscape:connector-curvature="0" />
      <path
         d="m 89.43345,139.91267 h 1.142394 v 0.23426 h -0.431326 v 1.58888 h 0.431326 v 0.23427 H 89.43345 v -0.23427 h 0.431326 v -1.58888 H 89.43345 Z"
         style="font-style:normal;font-variant:normal;font-weight:normal;font-stretch:normal;font-size:2.82222223px;font-family:monospace;-inkscape-font-specification:'monospace, Normal';font-variant-ligatures:normal;font-variant-caps:normal;font-variant-numeric:normal;font-feature-settings:normal;text-align:start;writing-mode:lr-tb;text-anchor:start;stroke-width:0.26458332"
         id="path239"
         inkscape:connector-curvature="0" />
      <path
         d="m 92.375562,141.80058 q -0.111621,0.10335 -0.252181,0.1571 -0.139182,0.0524 -0.30179,0.0524 -0.391363,0 -0.609093,-0.27974 -0.21773,-0.28112 -0.21773,-0.78686 0,-0.50436 0.220486,-0.78548 0.220486,-0.2825 0.613227,-0.2825 0.129536,0 0.248047,0.0372 0.118511,0.0358 0.228754,0.11024 v 0.28525 q -0.111621,-0.10611 -0.228754,-0.15571 -0.117133,-0.051 -0.248047,-0.051 -0.271474,0 -0.407899,0.21084 -0.135048,0.20946 -0.135048,0.63114 0,0.42857 0.130914,0.63527 0.132291,0.20533 0.405143,0.20533 0.09233,0 0.16123,-0.0207 0.07028,-0.0221 0.12678,-0.0675 v -0.5526 h -0.299034 v -0.22875 h 0.564995 z"
         style="font-style:normal;font-variant:normal;font-weight:normal;font-stretch:normal;font-size:2.82222223px;font-family:monospace;-inkscape-font-specification:'monospace, Normal';font-variant-ligatures:normal;font-variant-caps:normal;font-variant-numeric:normal;font-feature-settings:normal;text-align:start;writing-mode:lr-tb;text-anchor:start;stroke-width:0.26458332"
         id="path241"
         inkscape:connector-curvature="0" />
    </g>
    <g
       aria-label="RMS"
       style="font-style:normal;font-variant:normal;font-weight:normal;font-stretch:normal;font-size:2.11666656px;line-height:1.25;font-family:monospace;-inkscape-font-specification:'monospace, Normal';font-variant-ligatures:normal;font-variant-caps:normal;font-variant-numeric:normal;font-feature-settings:normal;text-align:start;letter-spacing:0px;word-spacing:0px;writing-mode:lr-tb;text-anchor:start;fill:#000000;fill-opacity:1;stroke:none;stroke-width:0.12379497"
       id="text255"
       transform="matrix(2.1372705,0,0,2.1372705,-63.864217,-115.6555)">
      <path
         d="m 55.14832,99.012863 q 0.08062,0.02067 0.13746,0.07855 0.05684,0.05684 0.141593,0.22841 l 0.209806,0.42168 h -0.224275 l -0.183968,-0.38964 q -0.07958,-0.166399 -0.143661,-0.213941 -0.06305,-0.04858 -0.165364,-0.04858 H 54.72044 v 0.652157 h -0.209807 v -1.543058 h 0.429948 q 0.254248,0 0.389641,0.114721 0.135392,0.114722 0.135392,0.331763 0,0.152962 -0.08372,0.250114 -0.08268,0.09612 -0.233578,0.117822 z m -0.42788,-0.642855 v 0.547771 h 0.228409 q 0.149862,0 0.223243,-0.06718 0.07338,-0.06718 0.07338,-0.205672 0,-0.133325 -0.07855,-0.203605 -0.07751,-0.07131 -0.226343,-0.07131 z"
         style="font-style:normal;font-variant:normal;font-weight:normal;font-stretch:normal;font-size:2.11666656px;font-family:monospace;-inkscape-font-specification:'monospace, Normal';font-variant-ligatures:normal;font-variant-caps:normal;font-variant-numeric:normal;font-feature-settings:normal;text-align:start;writing-mode:lr-tb;text-anchor:start;stroke-width:0.12379497"
         id="path257"
         inkscape:connector-curvature="0" />
      <path
         d="m 55.725029,98.198443 h 0.279053 l 0.266651,0.785481 0.268717,-0.785481 h 0.280086 v 1.543058 h -0.19327 v -1.363224 l -0.274918,0.813387 h -0.15813 l -0.275952,-0.813387 v 1.363224 h -0.192237 z"
         style="font-style:normal;font-variant:normal;font-weight:normal;font-stretch:normal;font-size:2.11666656px;font-family:monospace;-inkscape-font-specification:'monospace, Normal';font-variant-ligatures:normal;font-variant-caps:normal;font-variant-numeric:normal;font-feature-settings:normal;text-align:start;writing-mode:lr-tb;text-anchor:start;stroke-width:0.12379497"
         id="path259"
         inkscape:connector-curvature="0" />
      <path
         d="m 57.955384,98.251153 v 0.211873 q -0.09509,-0.06098 -0.191203,-0.09198 -0.09508,-0.03101 -0.192236,-0.03101 -0.147795,0 -0.233577,0.06925 -0.08578,0.06821 -0.08578,0.185001 0,0.102319 0.05581,0.156063 0.05684,0.05374 0.21084,0.08992 l 0.109554,0.02481 q 0.217041,0.05064 0.31626,0.159163 0.09922,0.108521 0.09922,0.295589 0,0.220142 -0.136426,0.335897 -0.136426,0.115755 -0.396875,0.115755 -0.108521,0 -0.218075,-0.02377 -0.109554,-0.02274 -0.220141,-0.06925 v -0.222209 q 0.118855,0.07545 0.224275,0.110588 0.106454,0.03514 0.213941,0.03514 0.15813,0 0.24598,-0.07028 0.08785,-0.07131 0.08785,-0.198438 0,-0.115755 -0.06098,-0.176733 -0.05994,-0.06098 -0.209806,-0.09405 l -0.111621,-0.02584 q -0.214974,-0.04857 -0.312126,-0.146761 -0.09715,-0.09819 -0.09715,-0.263549 0,-0.206706 0.138492,-0.33073 0.139527,-0.125057 0.370004,-0.125057 0.08888,0 0.187068,0.02067 0.09819,0.01964 0.206706,0.05994 z"
         style="font-style:normal;font-variant:normal;font-weight:normal;font-stretch:normal;font-size:2.11666656px;font-family:monospace;-inkscape-font-specification:'monospace, Normal';font-variant-ligatures:normal;font-variant-caps:normal;font-variant-numeric:normal;font-feature-settings:normal;text-align:start;writing-mode:lr-tb;text-anchor:start;stroke-width:0.12379497"
         id="path261"
         inkscape:connector-curvature="0" />
    </g>
  </g>
</svg>
