<?xml version="1.0" encoding="UTF-8" standalone="no"?>
<!-- Created with Inkscape (http://www.inkscape.org/) -->

<svg
   xmlns:dc="http://purl.org/dc/elements/1.1/"
   xmlns:cc="http://creativecommons.org/ns#"
   xmlns:rdf="http://www.w3.org/1999/02/22-rdf-syntax-ns#"
   xmlns:svg="http://www.w3.org/2000/svg"
   xmlns="http://www.w3.org/2000/svg"
   xmlns:sodipodi="http://sodipodi.sourceforge.net/DTD/sodipodi-0.dtd"
   xmlns:inkscape="http://www.inkscape.org/namespaces/inkscape"
   width="90"
   height="380.00003"
   viewBox="0 0 23.8125 100.54167"
   version="1.1"
   id="svg8630"
   inkscape:version="0.92.2 5c3e80d, 2017-08-06"
   sodipodi:docname="RMS.svg">
  <defs
     id="defs8624" />
  <sodipodi:namedview
     id="base"
     pagecolor="#ffffff"
     bordercolor="#666666"
     borderopacity="1.0"
     inkscape:pageopacity="0.0"
     inkscape:pageshadow="2"
     inkscape:zoom="1.979899"
     inkscape:cx="-73.877322"
     inkscape:cy="175.39877"
     inkscape:document-units="px"
     inkscape:current-layer="layer1"
     showgrid="false"
     fit-margin-top="0"
     fit-margin-left="0"
     fit-margin-right="0"
     fit-margin-bottom="0"
     units="px"
     inkscape:window-width="1273"
     inkscape:window-height="1017"
     inkscape:window-x="323"
     inkscape:window-y="86"
     inkscape:window-maximized="0" />
  <metadata
     id="metadata8627">
    <rdf:RDF>
      <cc:Work
         rdf:about="">
        <dc:format>image/svg+xml</dc:format>
        <dc:type
           rdf:resource="http://purl.org/dc/dcmitype/StillImage" />
        <dc:title />
      </cc:Work>
    </rdf:RDF>
  </metadata>
  <g
     inkscape:label="Layer 1"
     inkscape:groupmode="layer"
     id="layer1"
     transform="translate(-44.467833,-88.735117)">
    <path
       inkscape:connector-curvature="0"
       id="path33449"
       d="M 44.541176,88.808436 H 68.353675 V 189.20454 H 44.541176 Z m 0,0"
       style="fill:#e6e6e6;fill-opacity:1;fill-rule:nonzero;stroke:none;stroke-width:0.27602378" />
    <g
       id="g842"
       transform="translate(-0.516556)">
      <path
         inkscape:connector-curvature="0"
         id="path9255"
         d="m 56.109499,170.99032 c 0,0.0604 0.05175,0.10782 0.11213,0.10782 0.06038,0 0.112157,-0.0474 0.112157,-0.10782 v -1.05666 c 0,-0.0604 -0.05178,-0.10782 -0.112157,-0.10782 -0.06038,0 -0.11213,0.0474 -0.11213,0.10782 z m 0,0"
         style="fill:#1996fc;fill-opacity:1;stroke:none;stroke-width:0.27602378" />
      <path
         inkscape:connector-curvature="0"
         id="path9251"
         d="m 56.722909,170.99032 c 0,0.0604 0.05175,0.10782 0.11213,0.10782 0.06038,0 0.107844,-0.0474 0.107844,-0.10782 v -0.79789 l 0.646907,0.8367 c 0.03021,0.0388 0.0604,0.069 0.112157,0.069 h 0.0087 c 0.06038,0 0.107817,-0.0517 0.107817,-0.11213 v -1.05235 c 0,-0.0604 -0.04744,-0.10782 -0.107817,-0.10782 -0.06038,0 -0.107845,0.0474 -0.107845,0.10782 v 0.77201 l -0.629654,-0.81514 c -0.03019,-0.0388 -0.0604,-0.0647 -0.112157,-0.0647 h -0.02593 c -0.06038,0 -0.11213,0.0518 -0.11213,0.11214 z m 0,0"
         style="fill:#1996fc;fill-opacity:1;stroke:none;stroke-width:0.27602378" />
    </g>
    <path
       inkscape:connector-curvature="0"
       id="path38411"
       d="m 68.280333,137.44038 h -23.8125 V 100.4823 h 23.8125 z m 0,0"
       style="fill:#1e282b;fill-opacity:1;fill-rule:nonzero;stroke:none;stroke-width:0.27602378" />
    <g
       aria-label="TIME"
       style="font-style:normal;font-variant:normal;font-weight:normal;font-stretch:normal;font-size:2.82222223px;line-height:1.25;font-family:monospace;-inkscape-font-specification:'monospace, Normal';font-variant-ligatures:normal;font-variant-caps:normal;font-variant-numeric:normal;font-feature-settings:normal;text-align:start;letter-spacing:0px;word-spacing:0px;writing-mode:lr-tb;text-anchor:start;fill:#1996fc;fill-opacity:1;stroke:none;stroke-width:0.26458332"
       id="text229"
       transform="translate(-19.555644,-0.35824951)">
      <path
         d="m 72.72954,139.95263 h 1.569585 v 0.23427 h -0.643544 v 1.82314 H 73.37584 v -1.82314 h -0.6463 z"
         style="font-style:normal;font-variant:normal;font-weight:normal;font-stretch:normal;font-size:2.82222223px;font-family:monospace;-inkscape-font-specification:'monospace, Normal';font-variant-ligatures:normal;font-variant-caps:normal;font-variant-numeric:normal;font-feature-settings:normal;text-align:start;writing-mode:lr-tb;text-anchor:start;fill:#1996fc;fill-opacity:1;stroke-width:0.26458332"
         id="path244"
         inkscape:connector-curvature="0" />
      <path
         d="m 74.639501,139.95263 h 1.142393 v 0.23427 h -0.431326 v 1.58887 h 0.431326 v 0.23427 h -1.142393 v -0.23427 h 0.431326 v -1.58887 h -0.431326 z"
         style="font-style:normal;font-variant:normal;font-weight:normal;font-stretch:normal;font-size:2.82222223px;font-family:monospace;-inkscape-font-specification:'monospace, Normal';font-variant-ligatures:normal;font-variant-caps:normal;font-variant-numeric:normal;font-feature-settings:normal;text-align:start;writing-mode:lr-tb;text-anchor:start;fill:#1996fc;fill-opacity:1;stroke-width:0.26458332"
         id="path246"
         inkscape:connector-curvature="0" />
      <path
         d="m 76.178769,139.95263 h 0.372071 l 0.355534,1.04731 0.35829,-1.04731 h 0.373448 v 2.05741 h -0.257693 v -1.81763 l -0.366558,1.08451 h -0.21084 l -0.367936,-1.08451 v 1.81763 h -0.256316 z"
         style="font-style:normal;font-variant:normal;font-weight:normal;font-stretch:normal;font-size:2.82222223px;font-family:monospace;-inkscape-font-specification:'monospace, Normal';font-variant-ligatures:normal;font-variant-caps:normal;font-variant-numeric:normal;font-feature-settings:normal;text-align:start;writing-mode:lr-tb;text-anchor:start;fill:#1996fc;fill-opacity:1;stroke-width:0.26458332"
         id="path248"
         inkscape:connector-curvature="0" />
      <path
         d="m 78.029475,139.95263 h 1.220942 v 0.23427 h -0.942578 v 0.60909 h 0.901237 v 0.23427 h -0.901237 v 0.74551 h 0.96876 v 0.23427 h -1.247124 z"
         style="font-style:normal;font-variant:normal;font-weight:normal;font-stretch:normal;font-size:2.82222223px;font-family:monospace;-inkscape-font-specification:'monospace, Normal';font-variant-ligatures:normal;font-variant-caps:normal;font-variant-numeric:normal;font-feature-settings:normal;text-align:start;writing-mode:lr-tb;text-anchor:start;fill:#1996fc;fill-opacity:1;stroke-width:0.26458332"
         id="path250"
         inkscape:connector-curvature="0" />
    </g>
    <g
       aria-label="RMS"
       style="font-style:normal;font-variant:normal;font-weight:normal;font-stretch:normal;font-size:2.11666656px;line-height:1.25;font-family:monospace;-inkscape-font-specification:'monospace, Normal';font-variant-ligatures:normal;font-variant-caps:normal;font-variant-numeric:normal;font-feature-settings:normal;text-align:start;letter-spacing:0px;word-spacing:0px;writing-mode:lr-tb;text-anchor:start;fill:#1996fc;fill-opacity:1;stroke:none;stroke-width:0.12379497"
       id="text255"
       transform="matrix(2.1372705,0,0,2.1372705,-63.832714,-115.6555)">
      <path
         d="m 55.14832,99.012863 q 0.08062,0.02067 0.13746,0.07855 0.05684,0.05684 0.141593,0.22841 l 0.209806,0.42168 h -0.224275 l -0.183968,-0.38964 q -0.07958,-0.166399 -0.143661,-0.213941 -0.06305,-0.04858 -0.165364,-0.04858 H 54.72044 v 0.652157 h -0.209807 v -1.543058 h 0.429948 q 0.254248,0 0.389641,0.114721 0.135392,0.114722 0.135392,0.331763 0,0.152962 -0.08372,0.250114 -0.08268,0.09612 -0.233578,0.117822 z m -0.42788,-0.642855 v 0.547771 h 0.228409 q 0.149862,0 0.223243,-0.06718 0.07338,-0.06718 0.07338,-0.205672 0,-0.133325 -0.07855,-0.203605 -0.07751,-0.07131 -0.226343,-0.07131 z"
         style="font-style:normal;font-variant:normal;font-weight:normal;font-stretch:normal;font-size:2.11666656px;font-family:monospace;-inkscape-font-specification:'monospace, Normal';font-variant-ligatures:normal;font-variant-caps:normal;font-variant-numeric:normal;font-feature-settings:normal;text-align:start;writing-mode:lr-tb;text-anchor:start;fill:#1996fc;fill-opacity:1;stroke-width:0.12379497"
         id="path257"
         inkscape:connector-curvature="0" />
      <path
         d="m 55.725029,98.198443 h 0.279053 l 0.266651,0.785481 0.268717,-0.785481 h 0.280086 v 1.543058 h -0.19327 v -1.363224 l -0.274918,0.813387 h -0.15813 l -0.275952,-0.813387 v 1.363224 h -0.192237 z"
         style="font-style:normal;font-variant:normal;font-weight:normal;font-stretch:normal;font-size:2.11666656px;font-family:monospace;-inkscape-font-specification:'monospace, Normal';font-variant-ligatures:normal;font-variant-caps:normal;font-variant-numeric:normal;font-feature-settings:normal;text-align:start;writing-mode:lr-tb;text-anchor:start;fill:#1996fc;fill-opacity:1;stroke-width:0.12379497"
         id="path259"
         inkscape:connector-curvature="0" />
      <path
         d="m 57.955384,98.251153 v 0.211873 q -0.09509,-0.06098 -0.191203,-0.09198 -0.09508,-0.03101 -0.192236,-0.03101 -0.147795,0 -0.233577,0.06925 -0.08578,0.06821 -0.08578,0.185001 0,0.102319 0.05581,0.156063 0.05684,0.05374 0.21084,0.08992 l 0.109554,0.02481 q 0.217041,0.05064 0.31626,0.159163 0.09922,0.108521 0.09922,0.295589 0,0.220142 -0.136426,0.335897 -0.136426,0.115755 -0.396875,0.115755 -0.108521,0 -0.218075,-0.02377 -0.109554,-0.02274 -0.220141,-0.06925 v -0.222209 q 0.118855,0.07545 0.224275,0.110588 0.106454,0.03514 0.213941,0.03514 0.15813,0 0.24598,-0.07028 0.08785,-0.07131 0.08785,-0.198438 0,-0.115755 -0.06098,-0.176733 -0.05994,-0.06098 -0.209806,-0.09405 l -0.111621,-0.02584 q -0.214974,-0.04857 -0.312126,-0.146761 -0.09715,-0.09819 -0.09715,-0.263549 0,-0.206706 0.138492,-0.33073 0.139527,-0.125057 0.370004,-0.125057 0.08888,0 0.187068,0.02067 0.09819,0.01964 0.206706,0.05994 z"
         style="font-style:normal;font-variant:normal;font-weight:normal;font-stretch:normal;font-size:2.11666656px;font-family:monospace;-inkscape-font-specification:'monospace, Normal';font-variant-ligatures:normal;font-variant-caps:normal;font-variant-numeric:normal;font-feature-settings:normal;text-align:start;writing-mode:lr-tb;text-anchor:start;fill:#1996fc;fill-opacity:1;stroke-width:0.12379497"
         id="path261"
         inkscape:connector-curvature="0" />
    </g>
  </g>
</svg>
