<?xml version="1.0" encoding="UTF-8" standalone="no"?>
<svg
   width="120"
   height="380"
   viewBox="0 0 120 380"
   version="1.1"
   id="svg13"
   xmlns="http://www.w3.org/2000/svg"
   xmlns:svg="http://www.w3.org/2000/svg">
  <defs
     id="defs1">
    <style
       id="style1">
      .panel { fill: #2a2a2a; }
      .accent { fill: #444444; }
      .title { font-family: Arial, sans-serif; font-size: 14px; font-weight: bold; fill: #ffffff; text-anchor: middle; letter-spacing: 0.5px; }
      .tiny { font-family: Arial, sans-serif; font-size: 6.5px; fill: #cfcfcf; text-anchor: middle; letter-spacing: 0.3px; }
      .subtle { font-family: Arial, sans-serif; font-size: 6px; fill: #9a9a9a; text-anchor: middle; }
    </style>
  </defs>
  <rect
     class="panel"
     x="0"
     y="0"
     width="120"
     height="380"
     id="rect1" />
  <rect
     class="accent"
     x="0"
     y="0"
     width="120"
     height="2"
     id="rect2" />
  <rect
     class="accent"
     x="0"
     y="378"
     width="120"
     height="2"
     id="rect3" />
  <path
     d="m 36.930176,12.978516 h 3.698242 q 1.250977,0 1.907227,0.191406 0.881835,0.259766 1.510742,0.922851 0.628906,0.663086 0.957031,1.626954 0.328125,0.957031 0.328125,2.365234 0,1.237305 -0.307617,2.132812 -0.375977,1.09375 -1.073242,1.770508 -0.526368,0.512696 -1.421875,0.799805 Q 41.858887,23 40.737793,23 h -3.807617 z m 2.023437,1.695312 v 6.637695 h 1.510742 q 0.847657,0 1.223633,-0.0957 0.492188,-0.123047 0.813477,-0.416992 0.328125,-0.293945 0.533203,-0.963867 0.205078,-0.676758 0.205078,-1.838867 0,-1.16211 -0.205078,-1.78418 -0.205078,-0.62207 -0.574219,-0.970703 -0.36914,-0.348633 -0.936523,-0.47168 -0.423828,-0.0957 -1.661133,-0.0957 z M 47.547363,23 V 12.978516 h 7.430664 v 1.695312 h -5.407226 v 2.22168 h 5.03125 v 1.688476 h -5.03125 v 2.727539 h 5.598633 V 23 Z m 9.892578,0 v -9.939453 h 2.023438 v 8.250976 h 5.03125 V 23 Z m 18.03418,0 h -2.201172 l -0.875,-2.276367 H 68.39209 L 67.564941,23 h -2.146484 l 3.90332,-10.021484 h 2.139649 z m -3.725586,-3.964844 -1.380859,-3.71875 -1.353516,3.71875 z M 78.394043,23 v -4.217773 l -3.670898,-5.803711 h 2.37207 l 2.358398,3.964843 2.310547,-3.964843 h 2.331055 l -3.68457,5.817382 V 23 Z"
     id="text3"
     class="title"
     style="font-weight:bold;font-size:14px;font-family:Arial, sans-serif;letter-spacing:0.5px;text-anchor:middle;fill:#ffffff"
     aria-label="DELAY" />
  <path
     d="m 16.965259,60 v -4.652832 h 3.138916 v 0.549072 h -2.523194 v 1.440918 h 2.183594 V 57.88623 H 17.580981 V 60 Z m 4.251416,0 v -4.652832 h 3.364258 v 0.549072 h -2.748535 v 1.425049 h 2.573974 v 0.545898 h -2.573974 v 1.583741 h 2.856445 V 60 Z m 4.635449,0 v -4.652832 h 3.364258 v 0.549072 h -2.748535 v 1.425049 h 2.573975 v 0.545898 h -2.573975 v 1.583741 h 2.856445 V 60 Z m 4.622754,0 v -4.652832 h 1.602783 q 0.542724,0 0.828369,0.06665 0.399902,0.09204 0.682373,0.333252 0.368164,0.311035 0.549072,0.796631 0.184082,0.482422 0.184082,1.104492 0,0.53003 -0.123779,0.939453 -0.123779,0.409424 -0.317383,0.6792 -0.193603,0.266601 -0.425293,0.422119 -0.228516,0.152344 -0.55542,0.231689 Q 32.575952,60 32.153833,60 Z M 31.0906,59.450928 h 0.993408 q 0.460205,0 0.720459,-0.08569 0.263428,-0.08569 0.418946,-0.241211 0.218994,-0.218994 0.339599,-0.587158 0.12378,-0.371338 0.12378,-0.898193 0,-0.729981 -0.241211,-1.120361 -0.238037,-0.393555 -0.580811,-0.526856 -0.247559,-0.09522 -0.796631,-0.09522 H 31.0906 Z M 35.44358,60 v -4.652832 h 1.745605 q 0.533203,0 0.85376,0.142822 0.323731,0.139649 0.504639,0.434815 0.184082,0.291992 0.184082,0.612549 0,0.298339 -0.161865,0.561767 -0.161866,0.263428 -0.48877,0.425293 0.422119,0.123779 0.647461,0.422119 0.228516,0.29834 0.228516,0.70459 0,0.326904 -0.139649,0.609375 -0.136474,0.279297 -0.339599,0.431641 -0.203125,0.152343 -0.510987,0.231689 Q 37.662086,60 37.21775,60 Z m 0.615722,-2.697754 h 1.006104 q 0.409424,0 0.587158,-0.05395 0.234863,-0.06982 0.352295,-0.231689 0.120606,-0.161866 0.120606,-0.40625 0,-0.23169 -0.111084,-0.40625 -0.111084,-0.177735 -0.317383,-0.241211 -0.206299,-0.06665 -0.707764,-0.06665 h -0.929932 z m 0,2.148682 h 1.158448 q 0.29834,0 0.418945,-0.02222 0.212647,-0.03809 0.355469,-0.126953 0.142822,-0.08887 0.234863,-0.25708 0.09204,-0.171387 0.09204,-0.393555 0,-0.260254 -0.133301,-0.450684 -0.1333,-0.193603 -0.371338,-0.269775 -0.234863,-0.07935 -0.679199,-0.07935 H 36.059302 Z M 39.593433,60 41.380298,55.347168 h 0.66333 L 43.947925,60 H 43.246509 L 42.703784,58.59082 H 40.758227 L 40.247241,60 Z m 1.342529,-1.910645 h 1.577392 l -0.485595,-1.288574 q -0.222168,-0.587158 -0.330078,-0.964844 -0.08887,0.44751 -0.250733,0.888672 z m 7.12373,0.279297 0.615722,0.155518 q -0.193603,0.758545 -0.698242,1.158447 -0.501465,0.396729 -1.228271,0.396729 -0.752198,0 -1.225098,-0.304688 -0.469727,-0.307861 -0.717285,-0.888672 -0.244385,-0.58081 -0.244385,-1.247314 0,-0.726807 0.276123,-1.266358 0.279297,-0.542724 0.790283,-0.822021 0.51416,-0.282471 1.129883,-0.282471 0.698242,0 1.174316,0.355469 0.476075,0.355469 0.663331,0.999756 l -0.606202,0.142822 q -0.161865,-0.507812 -0.469726,-0.739502 -0.307862,-0.231689 -0.774414,-0.231689 -0.536377,0 -0.898194,0.25708 -0.358642,0.25708 -0.504638,0.691894 -0.145996,0.431641 -0.145996,0.891846 0,0.593506 0.171386,1.037842 0.174561,0.441162 0.539551,0.660156 0.36499,0.218994 0.790283,0.218994 0.517334,0 0.875977,-0.29834 0.358642,-0.298339 0.485596,-0.885498 z M 49.708568,60 v -4.652832 h 0.615722 v 2.307373 l 2.310547,-2.307373 h 0.834717 L 51.51765,57.232422 53.555247,60 h -0.8125 L 51.086009,57.64502 50.32429,58.387695 V 60 Z"
     id="text4"
     class="tiny"
     style="font-size:6.5px;font-family:Arial, sans-serif;letter-spacing:0.3px;text-anchor:middle;fill:#cfcfcf"
     aria-label="FEEDBACK" />
  <path
     d="m 64.359863,58.494141 0.56836,0.143554 q -0.178711,0.700196 -0.644532,1.069336 -0.46289,0.366211 -1.133789,0.366211 -0.694336,0 -1.130859,-0.28125 -0.433594,-0.28418 -0.662109,-0.820312 -0.225586,-0.536133 -0.225586,-1.151368 0,-0.670898 0.254882,-1.168945 0.257813,-0.500976 0.729493,-0.758789 0.474609,-0.260742 1.042968,-0.260742 0.644532,0 1.083985,0.328125 0.439453,0.328125 0.612304,0.922851 l -0.55957,0.131836 q -0.149414,-0.46875 -0.433594,-0.682617 -0.284179,-0.213867 -0.714843,-0.213867 -0.495118,0 -0.829102,0.237305 -0.331055,0.237304 -0.46582,0.638672 -0.134766,0.398437 -0.134766,0.823242 0,0.547851 0.158203,0.958008 0.161133,0.407226 0.498047,0.609375 0.336914,0.202148 0.729492,0.202148 0.477539,0 0.808594,-0.275391 0.331055,-0.27539 0.448242,-0.817382 z M 66.855957,60 65.191895,55.705078 h 0.615234 l 1.116211,3.120117 q 0.134765,0.375 0.225586,0.703125 0.09961,-0.351562 0.231445,-0.703125 l 1.160156,-3.120117 h 0.580078 L 67.438965,60 Z"
     id="text5"
     class="subtle"
     style="font-size:6px;font-family:Arial, sans-serif;text-anchor:middle;fill:#9a9a9a"
     aria-label="CV" />
  <path
     d="m 19.674951,110 v -4.65283 h 1.602783 q 0.542725,0 0.828369,0.0666 0.399903,0.092 0.682374,0.33325 0.368164,0.31104 0.549072,0.79663 0.184082,0.48242 0.184082,1.10449 0,0.53003 -0.123779,0.93946 -0.12378,0.40942 -0.317383,0.6792 -0.193604,0.2666 -0.425293,0.42211 -0.228516,0.15235 -0.55542,0.23169 Q 21.776025,110 21.353906,110 Z m 0.615723,-0.54907 h 0.993408 q 0.460205,0 0.720459,-0.0857 0.263428,-0.0857 0.418945,-0.24121 0.218994,-0.21899 0.3396,-0.58715 0.123779,-0.37134 0.123779,-0.8982 0,-0.72998 -0.241211,-1.12036 -0.238037,-0.39355 -0.58081,-0.52685 -0.247559,-0.0952 -0.796631,-0.0952 H 20.290674 Z M 24.678565,110 v -4.65283 h 2.062988 q 0.62207,0 0.945801,0.12695 0.32373,0.12378 0.517334,0.44116 0.193603,0.31739 0.193603,0.70142 0,0.49512 -0.320556,0.83472 -0.320557,0.3396 -0.990235,0.43164 0.244385,0.11743 0.371338,0.23169 0.269775,0.24755 0.510986,0.61889 L 28.779151,110 h -0.774415 l -0.615722,-0.96802 q -0.269776,-0.41894 -0.444336,-0.64111 -0.174561,-0.22217 -0.314209,-0.31104 -0.136475,-0.0889 -0.279297,-0.12378 -0.104736,-0.0222 -0.342773,-0.0222 H 25.294287 V 110 Z m 0.615722,-2.59937 h 1.323487 q 0.422119,0 0.660156,-0.0857 0.238037,-0.0889 0.361816,-0.2793 0.12378,-0.1936 0.12378,-0.41894 0,-0.33008 -0.241211,-0.54273 -0.238038,-0.21264 -0.755371,-0.21264 H 25.294287 Z M 30.856494,110 v -1.97095 l -1.793212,-2.68188 h 0.749023 l 0.917236,1.40283 q 0.253907,0.39355 0.472901,0.78711 0.209472,-0.36499 0.507812,-0.82202 l 0.901367,-1.36792 h 0.717286 l -1.85669,2.68188 V 110 Z m 2.823193,0.0794 1.348877,-4.81153 h 0.457031 l -1.345703,4.81153 z M 37.099561,110 35.864942,105.34717 h 0.631592 l 0.707764,3.05005 q 0.114257,0.47924 0.196777,0.95215 0.177734,-0.74585 0.209473,-0.86011 l 0.885498,-3.14209 h 0.742675 l 0.666504,2.35498 q 0.250733,0.87598 0.361817,1.64722 0.08887,-0.44117 0.231689,-1.01246 l 0.729981,-2.98974 h 0.618896 L 40.571729,110 h -0.593506 l -0.980713,-3.54517 q -0.123779,-0.44433 -0.145996,-0.54589 -0.073,0.32055 -0.136474,0.54589 L 37.727979,110 Z m 5.635205,0 v -4.65283 h 3.364257 v 0.54907 h -2.748535 v 1.42505 h 2.573975 v 0.5459 h -2.573975 v 1.58374 h 2.856446 V 110 Z m 5.806591,0 v -4.10376 h -1.532959 v -0.54907 h 3.687988 v 0.54907 H 49.157079 V 110 Z"
     id="text6"
     class="tiny"
     style="font-size:6.5px;font-family:Arial, sans-serif;letter-spacing:0.3px;text-anchor:middle;fill:#cfcfcf"
     aria-label="DRY/WET" />
  <path
     d="m 64.359863,108.49414 0.56836,0.14356 q -0.178711,0.70019 -0.644532,1.06933 -0.46289,0.36621 -1.133789,0.36621 -0.694336,0 -1.130859,-0.28125 -0.433594,-0.28418 -0.662109,-0.82031 -0.225586,-0.53613 -0.225586,-1.15137 0,-0.6709 0.254882,-1.16894 0.257813,-0.50098 0.729493,-0.75879 0.474609,-0.26074 1.042968,-0.26074 0.644532,0 1.083985,0.32812 0.439453,0.32813 0.612304,0.92285 l -0.55957,0.13184 q -0.149414,-0.46875 -0.433594,-0.68262 -0.284179,-0.21387 -0.714843,-0.21387 -0.495118,0 -0.829102,0.23731 -0.331055,0.2373 -0.46582,0.63867 -0.134766,0.39844 -0.134766,0.82324 0,0.54785 0.158203,0.95801 0.161133,0.40723 0.498047,0.60938 0.336914,0.20214 0.729492,0.20214 0.477539,0 0.808594,-0.27539 0.331055,-0.27539 0.448242,-0.81738 z M 66.855957,110 65.191895,105.70508 h 0.615234 l 1.116211,3.12012 q 0.134765,0.375 0.225586,0.70312 0.09961,-0.35156 0.231445,-0.70312 l 1.160156,-3.12012 h 0.580078 L 67.438965,110 Z"
     id="text7"
     class="subtle"
     style="font-size:6px;font-family:Arial, sans-serif;text-anchor:middle;fill:#9a9a9a"
     aria-label="CV" />
  <path
     d="m 28.472119,160 v -4.10376 H 26.93916 v -0.54907 h 3.687988 v 0.54907 H 29.087842 V 160 Z m 3.191358,0 v -4.65283 h 0.615722 V 160 Z m 1.982128,0 v -4.65283 h 0.926758 l 1.101319,3.29443 q 0.152343,0.46021 0.222167,0.68872 0.07935,-0.2539 0.247559,-0.74585 l 1.114014,-3.2373 h 0.828369 V 160 h -0.593506 v -3.89429 L 36.140234,160 h -0.55542 l -1.345703,-3.96094 V 160 Z m 5.746289,0 v -4.65283 h 3.364258 v 0.54907 h -2.748535 v 1.42505 h 2.573974 v 0.5459 h -2.573974 v 1.58374 h 2.856445 V 160 Z"
     id="text8"
     class="tiny"
     style="font-size:6.5px;font-family:Arial, sans-serif;letter-spacing:0.3px;text-anchor:middle;fill:#cfcfcf"
     aria-label="TIME" />
  <path
     d="m 64.359863,158.49414 0.56836,0.14356 q -0.178711,0.70019 -0.644532,1.06933 -0.46289,0.36621 -1.133789,0.36621 -0.694336,0 -1.130859,-0.28125 -0.433594,-0.28418 -0.662109,-0.82031 -0.225586,-0.53613 -0.225586,-1.15137 0,-0.6709 0.254882,-1.16894 0.257813,-0.50098 0.729493,-0.75879 0.474609,-0.26074 1.042968,-0.26074 0.644532,0 1.083985,0.32812 0.439453,0.32813 0.612304,0.92285 l -0.55957,0.13184 q -0.149414,-0.46875 -0.433594,-0.68262 -0.284179,-0.21387 -0.714843,-0.21387 -0.495118,0 -0.829102,0.23731 -0.331055,0.2373 -0.46582,0.63867 -0.134766,0.39844 -0.134766,0.82324 0,0.54785 0.158203,0.95801 0.161133,0.40723 0.498047,0.60938 0.336914,0.20214 0.729492,0.20214 0.477539,0 0.808594,-0.27539 0.331055,-0.27539 0.448242,-0.81738 z M 66.855957,160 65.191895,155.70508 h 0.615234 l 1.116211,3.12012 q 0.134765,0.375 0.225586,0.70312 0.09961,-0.35156 0.231445,-0.70312 l 1.160156,-3.12012 h 0.580078 L 67.438965,160 Z"
     id="text9"
     class="subtle"
     style="font-size:6px;font-family:Arial, sans-serif;text-anchor:middle;fill:#9a9a9a"
     aria-label="CV" />
  <path
     d="m 17.531787,210 v -4.65283 h 1.755127 q 0.463379,0 0.707764,0.0444 0.342773,0.0571 0.574463,0.219 0.231689,0.15869 0.371337,0.44751 0.142823,0.28881 0.142823,0.63476 0,0.59351 -0.377686,1.0061 -0.377685,0.40943 -1.364746,0.40943 H 18.14751 V 210 Z m 0.615723,-2.44067 h 1.202881 q 0.596679,0 0.847412,-0.22217 0.250732,-0.22217 0.250732,-0.62525 0,-0.29199 -0.14917,-0.49829 -0.145996,-0.20947 -0.387207,-0.27612 -0.155517,-0.0413 -0.574463,-0.0413 H 18.14751 Z M 22.141846,210 v -4.65283 h 0.615723 v 4.10376 h 2.291503 V 210 Z m 3.429395,0 1.786865,-4.65283 h 0.66333 L 29.925733,210 h -0.701416 l -0.542725,-1.40918 H 26.736035 L 26.225049,210 Z m 1.342529,-1.91064 h 1.577392 l -0.485595,-1.28858 q -0.222168,-0.58716 -0.330078,-0.96484 -0.08887,0.44751 -0.250733,0.88867 z M 31.546044,210 v -1.97095 l -1.793212,-2.68188 h 0.749023 l 0.917236,1.40283 q 0.253907,0.39355 0.472901,0.78711 0.209472,-0.36499 0.507812,-0.82202 l 0.901367,-1.36792 h 0.717286 l -1.85669,2.68188 V 210 Z m 3.299269,0 v -4.65283 h 1.745606 q 0.533203,0 0.853759,0.14282 0.323731,0.13965 0.504639,0.43481 0.184082,0.292 0.184082,0.61255 0,0.29834 -0.161865,0.56177 -0.161865,0.26343 -0.48877,0.42529 0.42212,0.12378 0.647461,0.42212 0.228516,0.29834 0.228516,0.70459 0,0.32691 -0.139648,0.60938 -0.136475,0.27929 -0.3396,0.43164 -0.203125,0.15234 -0.510986,0.23169 Q 37.063819,210 36.619483,210 Z m 0.615723,-2.69775 h 1.006103 q 0.409424,0 0.587159,-0.054 0.234863,-0.0698 0.352295,-0.23169 0.120605,-0.16186 0.120605,-0.40625 0,-0.23169 -0.111084,-0.40625 -0.111084,-0.17773 -0.317383,-0.24121 -0.206299,-0.0666 -0.707763,-0.0666 h -0.929932 z m 0,2.14868 h 1.158447 q 0.29834,0 0.418945,-0.0222 0.212647,-0.0381 0.355469,-0.12695 0.142822,-0.0889 0.234863,-0.25708 0.09204,-0.17139 0.09204,-0.39356 0,-0.26025 -0.133301,-0.45068 -0.133301,-0.1936 -0.371338,-0.26978 -0.234863,-0.0793 -0.679199,-0.0793 h -1.075928 z m 3.53413,0.54907 1.786865,-4.65283 h 0.66333 L 43.349658,210 h -0.701416 l -0.542724,-1.40918 H 40.159961 L 39.648975,210 Z m 1.342529,-1.91064 h 1.577393 l -0.485596,-1.28858 q -0.222168,-0.58716 -0.330078,-0.96484 -0.08887,0.44751 -0.250732,0.88867 z m 7.12373,0.27929 0.615723,0.15552 q -0.193604,0.75854 -0.698243,1.15845 -0.501464,0.39673 -1.228271,0.39673 -0.752197,0 -1.225098,-0.30469 -0.469726,-0.30786 -0.717285,-0.88867 -0.244385,-0.58081 -0.244385,-1.24732 0,-0.7268 0.276123,-1.26636 0.279297,-0.54272 0.790284,-0.82202 0.51416,-0.28247 1.129882,-0.28247 0.698243,0 1.174317,0.35547 0.476074,0.35547 0.66333,0.99976 l -0.606201,0.14282 q -0.161865,-0.50781 -0.469727,-0.7395 -0.307861,-0.23169 -0.774414,-0.23169 -0.536377,0 -0.898193,0.25708 -0.358643,0.25708 -0.504639,0.69189 -0.145996,0.43164 -0.145996,0.89185 0,0.5935 0.171387,1.03784 0.17456,0.44116 0.539551,0.66016 0.36499,0.21899 0.790283,0.21899 0.517334,0 0.875976,-0.29834 0.358643,-0.29834 0.485596,-0.8855 z M 49.110303,210 v -4.65283 h 0.615723 v 2.30737 l 2.310547,-2.30737 h 0.834716 L 50.919385,207.23242 52.956983,210 h -0.8125 l -1.656739,-2.35498 -0.761718,0.74268 V 210 Z"
     id="text10"
     class="tiny"
     style="font-size:6.5px;font-family:Arial, sans-serif;letter-spacing:0.3px;text-anchor:middle;fill:#cfcfcf"
     aria-label="PLAYBACK" />
  <path
     d="m 64.359863,208.49414 0.56836,0.14356 q -0.178711,0.70019 -0.644532,1.06933 -0.46289,0.36621 -1.133789,0.36621 -0.694336,0 -1.130859,-0.28125 -0.433594,-0.28418 -0.662109,-0.82031 -0.225586,-0.53613 -0.225586,-1.15137 0,-0.6709 0.254882,-1.16894 0.257813,-0.50098 0.729493,-0.75879 0.474609,-0.26074 1.042968,-0.26074 0.644532,0 1.083985,0.32812 0.439453,0.32813 0.612304,0.92285 l -0.55957,0.13184 q -0.149414,-0.46875 -0.433594,-0.68262 -0.284179,-0.21387 -0.714843,-0.21387 -0.495118,0 -0.829102,0.23731 -0.331055,0.2373 -0.46582,0.63867 -0.134766,0.39844 -0.134766,0.82324 0,0.54785 0.158203,0.95801 0.161133,0.40723 0.498047,0.60938 0.336914,0.20214 0.729492,0.20214 0.477539,0 0.808594,-0.27539 0.331055,-0.27539 0.448242,-0.81738 z M 66.855957,210 65.191895,205.70508 h 0.615234 l 1.116211,3.12012 q 0.134765,0.375 0.225586,0.70312 0.09961,-0.35156 0.231445,-0.70312 l 1.160156,-3.12012 h 0.580078 L 67.438965,210 Z"
     id="text11"
     class="subtle"
     style="font-size:6px;font-family:Arial, sans-serif;text-anchor:middle;fill:#9a9a9a"
     aria-label="CV" />
  <path
     d="m 22.206201,282 v -4.65283 h 0.615723 V 282 Z m 1.994824,0 v -4.65283 h 0.631592 l 2.443848,3.65307 v -3.65307 h 0.590332 V 282 h -0.631592 l -2.443848,-3.65625 V 282 Z"
     id="text12"
     class="tiny"
     style="font-size:6.5px;font-family:Arial, sans-serif;letter-spacing:0.3px;text-anchor:middle;fill:#cfcfcf"
     aria-label="IN" />
  <path
     d="m 88.153979,279.73389 q 0,-1.15845 0.622071,-1.81226 0.62207,-0.65698 1.605957,-0.65698 0.644287,0 1.161621,0.30786 0.517334,0.30786 0.787109,0.86011 0.27295,0.54907 0.27295,1.24731 0,0.70777 -0.285645,1.26636 -0.285645,0.55859 -0.809326,0.84741 -0.523682,0.28565 -1.129883,0.28565 -0.656982,0 -1.174316,-0.31739 -0.517334,-0.31738 -0.783936,-0.86645 -0.266602,-0.54907 -0.266602,-1.16162 z m 0.634766,0.01 q 0,0.84106 0.450684,1.32666 0.453857,0.48242 1.13623,0.48242 0.695069,0 1.142578,-0.48877 0.450684,-0.48877 0.450684,-1.38696 0,-0.56812 -0.193604,-0.99024 -0.190429,-0.42529 -0.561767,-0.65698 -0.368164,-0.23486 -0.828369,-0.23486 -0.653809,0 -1.126709,0.45068 -0.469727,0.44751 -0.469727,1.49805 z m 7.961621,-2.39624 h 0.615723 v 2.68823 q 0,0.70142 -0.158691,1.11401 -0.158692,0.4126 -0.574463,0.67286 -0.412598,0.25708 -1.085449,0.25708 -0.653809,0 -1.069581,-0.22535 -0.415771,-0.22534 -0.593505,-0.65063 -0.177735,-0.42847 -0.177735,-1.16797 v -2.68823 h 0.615723 v 2.68506 q 0,0.6062 0.111084,0.89502 0.114258,0.28564 0.387207,0.44116 0.276123,0.15552 0.672851,0.15552 0.6792,0 0.968018,-0.30787 0.288818,-0.30786 0.288818,-1.18383 z M 99.875074,282 v -4.10376 h -1.532959 v -0.54907 h 3.687985 v 0.54907 h -1.5393 V 282 Z"
     id="text13"
     class="tiny"
     style="font-size:6.5px;font-family:Arial, sans-serif;letter-spacing:0.3px;text-anchor:middle;fill:#cfcfcf"
     aria-label="OUT" />
</svg>
