<?xml version="1.0" encoding="UTF-8" standalone="no"?>
<svg
   width="120"
   height="380"
   viewBox="0 0 120 380"
   version="1.1"
   id="svg10"
   xmlns="http://www.w3.org/2000/svg"
   xmlns:svg="http://www.w3.org/2000/svg">
  <defs
     id="defs1">
    <style
       id="style1">
      .panel { fill: #2a2a2a; }
      .accent { fill: #444444; }
      .title { font-family: Arial, sans-serif; font-size: 14px; font-weight: bold; fill: #ffffff; text-anchor: middle; letter-spacing: 0.5px; }
      .tiny { font-family: Arial, sans-serif; font-size: 6.5px; fill: #cfcfcf; text-anchor: middle; letter-spacing: 0.3px; }
      .subtle { font-family: Arial, sans-serif; font-size: 6px; fill: #9a9a9a; text-anchor: middle; }
    </style>
  </defs>
  <rect
     class="panel"
     x="0"
     y="0"
     width="120"
     height="380"
     id="rect1" />
  <rect
     class="accent"
     x="0"
     y="0"
     width="120"
     height="2"
     id="rect2" />
  <rect
     class="accent"
     x="0"
     y="378"
     width="120"
     height="2"
     id="rect3" />
  <path
     d="M 28.818359,23 V 12.978516 h 1.96875 l 4.101563,6.692382 v -6.692382 h 1.879883 V 23 H 34.738281 L 30.698242,16.464844 V 23 Z m 10.589844,0 V 12.978516 h 7.430664 v 1.695312 h -5.407226 v 2.22168 h 5.03125 v 1.688476 h -5.03125 v 2.727539 h 5.598632 V 23 Z M 49.239258,12.978516 H 52.9375 q 1.250977,0 1.907227,0.191406 0.881835,0.259766 1.510742,0.922851 0.628906,0.663086 0.957031,1.626954 0.328125,0.957031 0.328125,2.365234 0,1.237305 -0.307617,2.132812 -0.375977,1.09375 -1.073242,1.770508 -0.526368,0.512696 -1.421875,0.799805 Q 54.167969,23 53.046875,23 h -3.807617 z m 2.023437,1.695312 v 6.637695 h 1.510742 q 0.847657,0 1.223633,-0.0957 0.492188,-0.123047 0.813477,-0.416992 0.328125,-0.293945 0.533203,-0.963867 0.205078,-0.676758 0.205078,-1.838867 0,-1.16211 -0.205078,-1.78418 -0.205078,-0.62207 -0.574219,-0.970703 -0.36914,-0.348633 -0.936523,-0.47168 -0.423828,-0.0957 -1.661133,-0.0957 z M 64.300781,23 v -9.939453 h 2.023438 v 8.250976 h 5.03125 V 23 Z m 9.010742,0 V 12.978516 h 6.870118 v 1.695312 h -4.84668 v 2.37207 h 4.183594 v 1.695313 H 75.334961 V 23 Z m 8.62793,-4.949219 q 0,-1.53125 0.458008,-2.570312 0.341797,-0.765625 0.929687,-1.374024 0.594727,-0.608398 1.298829,-0.902343 0.936523,-0.396485 2.160156,-0.396485 2.214844,0 3.541015,1.374024 1.333008,1.374023 1.333008,3.821289 0,2.426757 -1.319336,3.800781 -1.319336,1.367187 -3.527343,1.367187 -2.235352,0 -3.554688,-1.360351 -1.319336,-1.367188 -1.319336,-3.759766 z m 2.084961,-0.06836 q 0,1.702148 0.786133,2.583984 0.786133,0.875 1.996094,0.875 1.209961,0 1.982421,-0.868164 0.779297,-0.875 0.779297,-2.618164 0,-1.722656 -0.758789,-2.570312 -0.751953,-0.847657 -2.002929,-0.847657 -1.250977,0 -2.016602,0.861329 -0.765625,0.854492 -0.765625,2.583984 z"
     id="text3"
     class="title"
     style="font-weight:bold;font-size:14px;font-family:Arial, sans-serif;letter-spacing:0.5px;text-anchor:middle;fill:#ffffff"
     aria-label="NED LFO" />
  <path
     d="M 52.746899,60 V 55.89624 H 51.21394 v -0.549072 h 3.687989 V 55.89624 H 53.362622 V 60 Z m 4.397413,0 v -1.970947 l -1.793213,-2.681885 h 0.749023 L 57.017359,56.75 q 0.253906,0.393555 0.4729,0.787109 0.209473,-0.36499 0.507812,-0.822021 l 0.901368,-1.36792 h 0.717285 l -1.85669,2.681885 V 60 Z m 3.324658,0 v -4.652832 h 1.755127 q 0.463379,0 0.707764,0.04443 0.342773,0.05713 0.574463,0.218994 0.231689,0.158691 0.371337,0.447509 0.142823,0.288819 0.142823,0.634766 0,0.593506 -0.377686,1.006104 -0.377685,0.409423 -1.364746,0.409423 H 61.084693 V 60 Z m 0.615723,-2.440674 h 1.202881 q 0.596679,0 0.847412,-0.222168 0.250732,-0.222168 0.250732,-0.625244 0,-0.291992 -0.14917,-0.498291 Q 63.090552,56.00415 62.849341,55.9375 62.693824,55.89624 62.274878,55.89624 H 61.084693 Z M 65.117114,60 v -4.652832 h 3.364258 v 0.549072 h -2.748535 v 1.425049 h 2.573974 v 0.545898 h -2.573974 v 1.583741 h 2.856445 V 60 Z"
     id="text4"
     class="tiny"
     style="font-size:6.5px;font-family:Arial, sans-serif;letter-spacing:0.3px;text-anchor:middle;fill:#cfcfcf"
     aria-label="TYPE" />
  <path
     d="m 38.928662,130 v -4.65283 h 3.138916 v 0.54907 h -2.523193 v 1.44092 h 2.183593 v 0.54907 H 39.544385 V 130 Z m 4.248242,0 v -4.65283 h 2.062989 q 0.62207,0 0.945801,0.12695 0.32373,0.12378 0.517333,0.44116 0.193604,0.31739 0.193604,0.70142 0,0.49512 -0.320557,0.83472 -0.320556,0.3396 -0.990234,0.43164 0.244385,0.11743 0.371338,0.23169 0.269775,0.24755 0.510986,0.61889 L 47.27749,130 h -0.774414 l -0.615722,-0.96802 q -0.269776,-0.41894 -0.444336,-0.64111 -0.174561,-0.22217 -0.314209,-0.31104 -0.136475,-0.0889 -0.279297,-0.12378 -0.104736,-0.0222 -0.342774,-0.0222 H 43.792627 V 130 Z m 0.615723,-2.59937 h 1.323486 q 0.42212,0 0.660157,-0.0857 0.238037,-0.0889 0.361816,-0.2793 0.123779,-0.1936 0.123779,-0.41894 0,-0.33008 -0.241211,-0.54273 -0.238037,-0.21264 -0.755371,-0.21264 H 43.792627 Z M 48.17417,130 v -4.65283 h 3.364258 v 0.54907 h -2.748535 v 1.42505 h 2.573975 v 0.5459 h -2.573975 v 1.58374 h 2.856445 V 130 Z m 8.148876,-0.49829 q 0.428467,0.29516 0.790284,0.43164 l -0.180909,0.42847 q -0.501464,-0.18091 -0.999755,-0.57129 -0.517334,0.28882 -1.142579,0.28882 -0.631591,0 -1.145751,-0.30469 -0.514161,-0.30469 -0.793458,-0.85694 -0.276123,-0.55224 -0.276123,-1.24414 0,-0.68872 0.279297,-1.25366 0.279297,-0.56494 0.793457,-0.86011 0.517334,-0.29516 1.155274,-0.29516 0.644287,0 1.161621,0.30786 0.517334,0.30469 0.787109,0.85693 0.272949,0.54908 0.272949,1.24097 0,0.57446 -0.17456,1.03467 -0.174561,0.45703 -0.526856,0.79663 z m -1.355224,-0.78711 q 0.533203,0.14917 0.87915,0.44434 0.542725,-0.49512 0.542725,-1.48853 0,-0.56494 -0.193604,-0.98706 -0.190429,-0.42212 -0.561767,-0.65381 -0.368164,-0.23486 -0.828369,-0.23486 -0.688721,0 -1.142579,0.4729 -0.453857,0.46972 -0.453857,1.406 0,0.90772 0.44751,1.39331 0.450683,0.4856 1.148926,0.4856 0.330078,0 0.62207,-0.12378 -0.288818,-0.18725 -0.609375,-0.2666 z m 6.238233,-3.36743 h 0.615723 v 2.68823 q 0,0.70142 -0.158691,1.11401 -0.158692,0.4126 -0.574463,0.67286 -0.412598,0.25708 -1.085449,0.25708 -0.653809,0 -1.069581,-0.22535 -0.415771,-0.22534 -0.593505,-0.65063 -0.177735,-0.42847 -0.177735,-1.16797 v -2.68823 h 0.615723 v 2.68506 q 0,0.6062 0.111084,0.89502 0.114258,0.28564 0.387207,0.44116 0.276123,0.15552 0.672851,0.15552 0.6792,0 0.968018,-0.30787 0.288818,-0.30786 0.288818,-1.18383 z M 63.159619,130 v -4.65283 h 3.364258 v 0.54907 h -2.748535 v 1.42505 h 2.573974 v 0.5459 h -2.573974 v 1.58374 h 2.856445 V 130 Z m 4.616406,0 v -4.65283 h 0.631591 l 2.443848,3.65307 v -3.65307 h 0.590332 V 130 h -0.631592 l -2.443847,-3.65625 V 130 Z m 8.320262,-1.63135 0.615723,0.15552 q -0.193603,0.75854 -0.698242,1.15845 -0.501465,0.39673 -1.228272,0.39673 -0.752197,0 -1.225097,-0.30469 -0.469727,-0.30786 -0.717285,-0.88867 -0.244385,-0.58081 -0.244385,-1.24732 0,-0.7268 0.276123,-1.26636 0.279297,-0.54272 0.790283,-0.82202 0.51416,-0.28247 1.129883,-0.28247 0.698242,0 1.174316,0.35547 0.476075,0.35547 0.66333,0.99976 l -0.606201,0.14282 q -0.161865,-0.50781 -0.469726,-0.7395 -0.307862,-0.23169 -0.774414,-0.23169 -0.536377,0 -0.898194,0.25708 -0.358642,0.25708 -0.504638,0.69189 -0.145996,0.43164 -0.145996,0.89185 0,0.5935 0.171386,1.03784 0.174561,0.44116 0.539551,0.66016 0.36499,0.21899 0.790283,0.21899 0.517334,0 0.875977,-0.29834 0.358642,-0.29834 0.485595,-0.8855 z M 79.081349,130 v -1.97095 l -1.793213,-2.68188 h 0.749024 l 0.917236,1.40283 q 0.253906,0.39355 0.4729,0.78711 0.209473,-0.36499 0.507813,-0.82202 l 0.901367,-1.36792 h 0.717285 l -1.856689,2.68188 V 130 Z"
     id="text5"
     class="tiny"
     style="font-size:6.5px;font-family:Arial, sans-serif;letter-spacing:0.3px;text-anchor:middle;fill:#cfcfcf"
     aria-label="FREQUENCY" />
  <path
     d="m 49.347656,198.36865 0.615723,0.15552 q -0.193604,0.75854 -0.698242,1.15845 -0.501465,0.39673 -1.228272,0.39673 -0.752197,0 -1.225097,-0.30469 -0.469727,-0.30786 -0.717286,-0.88867 -0.244384,-0.58081 -0.244384,-1.24732 0,-0.7268 0.276123,-1.26636 0.279297,-0.54272 0.790283,-0.82202 0.51416,-0.28247 1.129883,-0.28247 0.698242,0 1.174316,0.35547 0.476074,0.35547 0.66333,0.99976 l -0.606201,0.14282 q -0.161865,-0.50781 -0.469727,-0.7395 -0.307861,-0.23169 -0.774414,-0.23169 -0.536377,0 -0.898193,0.25708 -0.358643,0.25708 -0.504639,0.69189 -0.145996,0.43164 -0.145996,0.89185 0,0.5935 0.171387,1.03784 0.174561,0.44116 0.539551,0.66016 0.36499,0.21899 0.790283,0.21899 0.517334,0 0.875977,-0.29834 0.358642,-0.29834 0.485595,-0.8855 z M 51.040967,200 v -4.65283 h 0.615723 v 1.91064 h 2.418457 v -1.91064 h 0.615722 V 200 h -0.615722 v -2.19312 H 51.65669 V 200 Z m 4.464063,0 1.786865,-4.65283 h 0.66333 L 59.859522,200 h -0.701416 l -0.542725,-1.40918 H 56.669825 L 56.158838,200 Z m 1.342529,-1.91064 h 1.577393 l -0.485596,-1.28858 q -0.222168,-0.58716 -0.330078,-0.96484 -0.08887,0.44751 -0.250733,0.88867 z M 60.645117,200 v -4.65283 h 0.631592 l 2.443847,3.65307 v -3.65307 h 0.590332 V 200 h -0.631592 l -2.443847,-3.65625 V 200 Z m 8.320265,-1.63135 0.615722,0.15552 q -0.193603,0.75854 -0.698242,1.15845 -0.501465,0.39673 -1.228271,0.39673 -0.752198,0 -1.225098,-0.30469 -0.469727,-0.30786 -0.717285,-0.88867 -0.244385,-0.58081 -0.244385,-1.24732 0,-0.7268 0.276123,-1.26636 0.279297,-0.54272 0.790283,-0.82202 0.51416,-0.28247 1.129883,-0.28247 0.698242,0 1.174316,0.35547 0.476075,0.35547 0.663331,0.99976 l -0.606202,0.14282 q -0.161865,-0.50781 -0.469726,-0.7395 -0.307862,-0.23169 -0.774414,-0.23169 -0.536377,0 -0.898194,0.25708 -0.358642,0.25708 -0.504638,0.69189 -0.145996,0.43164 -0.145996,0.89185 0,0.5935 0.171386,1.03784 0.174561,0.44116 0.539551,0.66016 0.36499,0.21899 0.790283,0.21899 0.517334,0 0.875977,-0.29834 0.358642,-0.29834 0.485596,-0.8855 z M 70.652344,200 v -4.65283 h 3.364258 v 0.54907 h -2.748536 v 1.42505 h 2.573975 v 0.5459 h -2.573975 v 1.58374 h 2.856446 V 200 Z"
     id="text6"
     class="tiny"
     style="font-size:6.5px;font-family:Arial, sans-serif;letter-spacing:0.3px;text-anchor:middle;fill:#cfcfcf"
     aria-label="CHANCE" />
  <path
     d="m 48.353491,252 v -4.65283 h 2.062988 q 0.622071,0 0.945801,0.12695 0.323731,0.12378 0.517334,0.44116 0.193604,0.31739 0.193604,0.70142 0,0.49512 -0.320557,0.83472 -0.320557,0.3396 -0.990234,0.43164 0.244384,0.11743 0.371338,0.23169 0.269775,0.24755 0.510986,0.61889 L 52.454077,252 h -0.774414 l -0.615723,-0.96802 q -0.269775,-0.41894 -0.444336,-0.64111 -0.17456,-0.22217 -0.314209,-0.31104 -0.136474,-0.0889 -0.279296,-0.12378 -0.104737,-0.0222 -0.342774,-0.0222 H 48.969214 V 252 Z m 0.615723,-2.59937 H 50.2927 q 0.422119,0 0.660156,-0.0857 0.238038,-0.0889 0.361817,-0.2793 0.123779,-0.1936 0.123779,-0.41894 0,-0.33008 -0.241211,-0.54273 -0.238037,-0.21264 -0.755371,-0.21264 H 48.969214 Z M 52.827075,252 l 1.786866,-4.65283 h 0.66333 L 57.181568,252 h -0.701416 l -0.542725,-1.40918 H 53.99187 L 53.480884,252 Z m 1.34253,-1.91064 h 1.577392 l -0.485595,-1.28858 q -0.222168,-0.58716 -0.330079,-0.96484 -0.08887,0.44751 -0.250732,0.88867 z M 57.967163,252 v -4.65283 h 0.631592 l 2.443848,3.65307 v -3.65307 h 0.590332 V 252 h -0.631592 l -2.443848,-3.65625 V 252 Z m 7.177685,-1.82495 v -0.5459 l 1.970947,-0.003 v 1.72656 q -0.453857,0.36182 -0.936279,0.5459 -0.482422,0.18091 -0.990234,0.18091 -0.685547,0 -1.247315,-0.292 -0.558593,-0.29516 -0.844238,-0.85058 -0.285644,-0.55542 -0.285644,-1.24097 0,-0.6792 0.28247,-1.26636 0.285645,-0.59033 0.818848,-0.87597 0.533203,-0.28565 1.228271,-0.28565 0.504639,0 0.910889,0.16504 0.409424,0.16187 0.641113,0.45386 0.23169,0.29199 0.352295,0.76172 l -0.55542,0.15234 q -0.104736,-0.35547 -0.260254,-0.55859 -0.155517,-0.20313 -0.444335,-0.32373 -0.288819,-0.12378 -0.641114,-0.12378 -0.422119,0 -0.72998,0.13012 -0.307862,0.12696 -0.498291,0.33643 -0.187256,0.20947 -0.291992,0.46021 -0.177735,0.43164 -0.177735,0.93627 0,0.62208 0.212647,1.04102 0.21582,0.41895 0.625244,0.62207 0.409424,0.20313 0.869629,0.20313 0.399902,0 0.780761,-0.15235 0.38086,-0.15552 0.577637,-0.33008 v -0.86645 z M 68.336207,252 v -4.65283 h 3.364258 v 0.54907 h -2.748536 v 1.42505 h 2.573975 v 0.5459 h -2.573975 v 1.58374 h 2.856446 V 252 Z"
     id="text7"
     class="tiny"
     style="font-size:6.5px;font-family:Arial, sans-serif;letter-spacing:0.3px;text-anchor:middle;fill:#cfcfcf"
     aria-label="RANGE" />
  <path
     d="m 35.575684,279.88184 q 0,-0.76172 0.155273,-1.22461 0.158203,-0.46582 0.46582,-0.71778 0.310547,-0.25195 0.779297,-0.25195 0.345703,0 0.606446,0.14062 0.260742,0.1377 0.430664,0.40137 0.169921,0.26074 0.266601,0.63867 0.09668,0.375 0.09668,1.01368 0,0.75586 -0.155274,1.22168 -0.155273,0.46289 -0.46582,0.71777 -0.307617,0.25195 -0.779297,0.25195 -0.621094,0 -0.975586,-0.44531 -0.424804,-0.53613 -0.424804,-1.74609 z m 0.541992,0 q 0,1.05761 0.246094,1.40918 0.249023,0.34863 0.612304,0.34863 0.363281,0 0.609375,-0.35156 0.249024,-0.35157 0.249024,-1.40625 0,-1.06055 -0.249024,-1.40918 -0.246094,-0.34864 -0.615234,-0.34864 -0.363281,0 -0.580078,0.30762 -0.272461,0.39258 -0.272461,1.4502 z M 39.208496,282 v -0.60059 h 0.600586 V 282 Z m 1.666992,0 v -0.60059 h 0.600586 V 282 Z m 3.357422,0 h -0.527344 v -3.36035 q -0.190429,0.18164 -0.500976,0.36328 -0.307617,0.18164 -0.553711,0.27246 v -0.50977 q 0.442383,-0.208 0.773437,-0.5039 0.331055,-0.2959 0.46875,-0.57422 h 0.339844 z m 1.350586,-2.11816 q 0,-0.76172 0.155274,-1.22461 0.158203,-0.46582 0.46582,-0.71778 0.310547,-0.25195 0.779297,-0.25195 0.345703,0 0.606445,0.14062 0.260742,0.1377 0.430664,0.40137 0.169922,0.26074 0.266602,0.63867 0.09668,0.375 0.09668,1.01368 0,0.75586 -0.155273,1.22168 -0.155274,0.46289 -0.46582,0.71777 -0.307618,0.25195 -0.779297,0.25195 -0.621094,0 -0.975586,-0.44531 -0.424805,-0.53613 -0.424805,-1.74609 z m 0.541992,0 q 0,1.05761 0.246094,1.40918 0.249023,0.34863 0.612305,0.34863 0.363281,0 0.609375,-0.35156 0.249023,-0.35157 0.249023,-1.40625 0,-1.06055 -0.249023,-1.40918 -0.246094,-0.34864 -0.615235,-0.34864 -0.363281,0 -0.580078,0.30762 -0.272461,0.39258 -0.272461,1.4502 z M 50.361816,282 48.697754,277.70508 h 0.615234 l 1.116211,3.12012 q 0.134766,0.375 0.225586,0.70312 0.09961,-0.35156 0.231445,-0.70312 l 1.160157,-3.12012 h 0.580078 L 50.944824,282 Z"
     id="text8"
     class="subtle"
     style="font-size:6px;font-family:Arial, sans-serif;text-anchor:middle;fill:#9a9a9a"
     aria-label="0..10V" />
  <path
     d="m 68.186523,280.71094 v -0.53028 h 1.620118 v 0.53028 z m 2.056641,0.16406 0.553711,-0.0469 q 0.06152,0.4043 0.28418,0.60938 0.225586,0.20215 0.541992,0.20215 0.380859,0 0.644531,-0.28711 0.263672,-0.28711 0.263672,-0.76172 0,-0.45117 -0.254883,-0.71191 -0.251953,-0.26075 -0.662109,-0.26075 -0.254883,0 -0.459961,0.11719 -0.205078,0.11426 -0.322266,0.29883 l -0.495117,-0.0644 0.416016,-2.20606 h 2.135742 v 0.50391 h -1.713867 l -0.231446,1.15429 q 0.386719,-0.26953 0.811524,-0.26953 0.5625,0 0.949219,0.38965 0.386718,0.38965 0.386718,1.00196 0,0.583 -0.339843,1.00781 -0.413086,0.52148 -1.12793,0.52148 -0.585938,0 -0.958008,-0.32812 -0.369141,-0.32813 -0.421875,-0.87012 z M 73.875977,282 v -0.60059 h 0.600585 V 282 Z m 1.666992,0 v -0.60059 h 0.600586 V 282 Z m 1.371093,-1.125 0.553711,-0.0469 q 0.06152,0.4043 0.28418,0.60938 0.225586,0.20215 0.541992,0.20215 0.38086,0 0.644532,-0.28711 0.263671,-0.28711 0.263671,-0.76172 0,-0.45117 -0.254882,-0.71191 -0.251954,-0.26075 -0.66211,-0.26075 -0.254883,0 -0.459961,0.11719 -0.205078,0.11426 -0.322265,0.29883 l -0.495118,-0.0644 0.416016,-2.20606 h 2.135742 v 0.50391 h -1.713867 l -0.231445,1.15429 q 0.386719,-0.26953 0.811523,-0.26953 0.5625,0 0.949219,0.38965 0.386719,0.38965 0.386719,1.00196 0,0.583 -0.339844,1.00781 -0.413086,0.52148 -1.12793,0.52148 -0.585937,0 -0.958008,-0.32812 -0.36914,-0.32813 -0.421875,-0.87012 z M 81.692383,282 80.02832,277.70508 h 0.615235 l 1.116211,3.12012 q 0.134765,0.375 0.225586,0.70312 0.09961,-0.35156 0.231445,-0.70312 l 1.160156,-3.12012 h 0.580078 L 82.275391,282 Z"
     id="text9"
     class="subtle"
     style="font-size:6px;font-family:Arial, sans-serif;text-anchor:middle;fill:#9a9a9a"
     aria-label="-5..5V" />
  <path
     d="m 53.153979,299.73389 q 0,-1.15845 0.622071,-1.81226 0.62207,-0.65698 1.605957,-0.65698 0.644287,0 1.161621,0.30786 0.517334,0.30786 0.787109,0.86011 0.27295,0.54907 0.27295,1.24731 0,0.70777 -0.285645,1.26636 -0.285645,0.55859 -0.809326,0.84741 -0.523682,0.28565 -1.129883,0.28565 -0.656982,0 -1.174316,-0.31739 -0.517334,-0.31738 -0.783936,-0.86645 -0.266602,-0.54907 -0.266602,-1.16162 z m 0.634766,0.01 q 0,0.84106 0.450684,1.32666 0.453857,0.48242 1.13623,0.48242 0.695069,0 1.142578,-0.48877 0.450684,-0.48877 0.450684,-1.38696 0,-0.56812 -0.193604,-0.99024 -0.190429,-0.42529 -0.561767,-0.65698 -0.368164,-0.23486 -0.828369,-0.23486 -0.653809,0 -1.126709,0.45068 -0.469727,0.44751 -0.469727,1.49805 z m 7.961621,-2.39624 h 0.615723 v 2.68823 q 0,0.70142 -0.158691,1.11401 -0.158692,0.4126 -0.574463,0.67286 -0.412598,0.25708 -1.085449,0.25708 -0.653809,0 -1.069581,-0.22535 -0.415771,-0.22534 -0.593505,-0.65063 -0.177735,-0.42847 -0.177735,-1.16797 v -2.68823 h 0.615723 v 2.68506 q 0,0.6062 0.111084,0.89502 0.114258,0.28564 0.387207,0.44116 0.276123,0.15552 0.672851,0.15552 0.6792,0 0.968018,-0.30787 0.288818,-0.30786 0.288818,-1.18383 z M 64.875074,302 v -4.10376 h -1.532959 v -0.54907 h 3.687988 v 0.54907 H 65.490796 V 302 Z"
     id="text10"
     class="tiny"
     style="font-size:6.5px;font-family:Arial, sans-serif;letter-spacing:0.3px;text-anchor:middle;fill:#cfcfcf"
     aria-label="OUT" />
</svg>
