<?xml version="1.0" encoding="UTF-8" standalone="no"?>
<!-- Created with Inkscape (http://www.inkscape.org/) -->

<svg
   width="300"
   height="380"
   viewBox="0 0 79.375 100.54166"
   version="1.1"
   id="svg12553"
   inkscape:version="1.3.2 (091e20e, 2023-11-25)"
   sodipodi:docname="SampleGrid.svg"
   xmlns:inkscape="http://www.inkscape.org/namespaces/inkscape"
   xmlns:sodipodi="http://sodipodi.sourceforge.net/DTD/sodipodi-0.dtd"
   xmlns="http://www.w3.org/2000/svg"
   xmlns:svg="http://www.w3.org/2000/svg"
   xmlns:rdf="http://www.w3.org/1999/02/22-rdf-syntax-ns#"
   xmlns:cc="http://creativecommons.org/ns#"
   xmlns:dc="http://purl.org/dc/elements/1.1/">
  <defs
     id="defs12547" />
  <sodipodi:namedview
     id="base"
     pagecolor="#ffffff"
     bordercolor="#666666"
     borderopacity="1.0"
     inkscape:pageopacity="0.0"
     inkscape:pageshadow="2"
     inkscape:zoom="2.8284273"
     inkscape:cx="182.61031"
     inkscape:cy="243.77505"
     inkscape:document-units="px"
     inkscape:current-layer="layer1"
     showgrid="true"
     fit-margin-top="0"
     fit-margin-left="0"
     fit-margin-right="0"
     fit-margin-bottom="0"
     units="px"
     inkscape:window-width="1552"
     inkscape:window-height="1212"
     inkscape:window-x="525"
     inkscape:window-y="277"
     inkscape:window-maximized="0"
     inkscape:snap-grids="false"
     showguides="false"
     inkscape:snap-others="false"
     inkscape:snap-nodes="false"
     inkscape:snap-global="false"
     inkscape:showpageshadow="2"
     inkscape:pagecheckerboard="0"
     inkscape:deskcolor="#d1d1d1">
    <inkscape:grid
       type="xygrid"
       id="grid12870"
       originx="-20.372917"
       originy="84.666661"
       spacingy="1"
       spacingx="1"
       units="px"
       visible="true" />
  </sodipodi:namedview>
  <metadata
     id="metadata12550">
    <rdf:RDF>
      <cc:Work
         rdf:about="">
        <dc:format>image/svg+xml</dc:format>
        <dc:type
           rdf:resource="http://purl.org/dc/dcmitype/StillImage" />
      </cc:Work>
    </rdf:RDF>
  </metadata>
  <g
     inkscape:label="Layer 1"
     inkscape:groupmode="layer"
     id="layer1"
     transform="translate(-26.543497,-161.30655)">
    <path
       inkscape:connector-curvature="0"
       id="path33453"
       d="m 26.543497,161.45211 h 79.374993 v 100.3961 H 26.543497 Z m 0,0"
       style="fill:#343434;fill-opacity:1;fill-rule:nonzero;stroke:none;stroke-width:0.2632" />
    <rect
       style="fill:#5a5a5a;fill-opacity:1;stroke:#5a5a5a;stroke-width:0.13977;stroke-miterlimit:4;stroke-dasharray:none;stroke-opacity:1"
       id="rect911"
       width="10.443563"
       height="9.3727131"
       x="29.382376"
       y="239.02138" />
    <g
       transform="matrix(0.36394193,0,0,0.36394193,19.916781,161.08797)"
       id="layer1-7"
       inkscape:label="Layer 1">
      <rect
         y="256.12662"
         x="29.52006"
         height="1.6536458"
         width="7.2760415"
         id="rect823"
         style="fill:#ffffff;fill-opacity:1;stroke:none;stroke-width:0.710598;stroke-miterlimit:4;stroke-dasharray:none;stroke-opacity:1" />
      <rect
         y="256.57309"
         x="28.643627"
         height="0.51248246"
         width="9.0803432"
         id="rect821"
         style="fill:#ffffff;fill-opacity:1;stroke:none;stroke-width:0.176948;stroke-miterlimit:4;stroke-dasharray:none;stroke-opacity:1" />
      <ellipse
         ry="5.8699069"
         rx="6.1973119"
         cy="250.78661"
         cx="33.068214"
         id="path817"
         style="fill:#ffffff;fill-opacity:1;stroke:none;stroke-width:0.294763;stroke-miterlimit:4;stroke-dasharray:none;stroke-opacity:1" />
      <rect
         y="257.08557"
         x="28.265131"
         height="4.3030396"
         width="9.541522"
         id="rect819"
         style="fill:#ffffff;fill-opacity:1;stroke:none;stroke-width:0.236954;stroke-miterlimit:4;stroke-dasharray:none;stroke-opacity:1" />
      <path
         style="fill:#54b6fc;stroke-width:0.434238"
         d="m 28.040353,261.67777 c -0.05624,-0.1049 -0.09132,-1.05343 -0.09132,-2.46939 0,-2.62823 -0.06483,-2.41007 0.868669,-2.92327 0.298327,-0.16393 0.542417,-0.32331 0.542417,-0.35402 0,-0.0309 -0.162318,-0.16826 -0.360716,-0.30583 -1.028016,-0.71241 -2.013971,-2.17766 -2.338877,-3.47584 -0.201325,-0.80442 -0.134174,-2.39054 0.13451,-3.17721 1.033244,-3.02511 4.386038,-4.85502 7.661927,-4.18175 2.136444,0.4391 3.832748,1.7715 4.690824,3.6846 0.361925,0.8069 0.484002,1.41362 0.481552,2.39329 -0.0043,1.76252 -0.804317,3.40089 -2.221636,4.55038 -0.254647,0.20641 -0.463011,0.4065 -0.463011,0.44439 0,0.038 0.188503,0.17638 0.418915,0.30774 0.88078,0.5022 0.815782,0.26078 0.815782,3.02947 0,1.77735 -0.02862,2.465 -0.105831,2.54221 -0.07977,0.0796 -1.316324,0.10568 -5.023888,0.10568 -4.772077,0 -4.920765,-0.006 -5.009351,-0.17069 z m 4.778272,-1.34136 c 0.02029,-0.72066 0.0537,-0.91258 0.172084,-0.98706 0.106484,-0.067 0.185415,-0.0605 0.286623,0.0243 0.110188,0.0915 0.139673,0.2998 0.139673,0.98705 v 0.87111 h 2.031202 c 1.725502,0 2.038854,-0.0189 2.082046,-0.13248 0.118689,-0.30933 -0.0843,-0.54865 -1.048716,-1.23644 -0.806681,-0.57531 -0.992,-0.74828 -0.992,-0.92603 0,-0.17285 0.05069,-0.22425 0.242529,-0.24644 l 0.242526,-0.0279 v -0.72694 c 0,-0.82266 0.11329,-1.0851 0.425635,-0.98597 0.182308,0.0579 0.191777,0.11143 0.193075,1.09112 6.9e-4,0.56673 0.03051,1.07216 0.06615,1.12322 0.107317,0.15365 0.691445,0.5686 0.80071,0.5686 0.07253,0 0.101903,-0.37768 0.101903,-1.30922 0,-1.48548 0.04525,-1.38286 -0.823095,-1.86798 l -0.514419,-0.28745 -0.896236,0.29918 c -0.869904,0.29041 -0.937695,0.2992 -2.307746,0.29891 -1.355532,-2.1e-4 -1.441911,-0.0113 -2.177833,-0.27426 l -0.766317,-0.27401 -0.710913,0.40097 -0.710915,0.40096 v 1.35053 c 0,0.7428 0.02272,1.35058 0.05046,1.35058 0.02775,0 0.226187,-0.10309 0.440962,-0.22887 l 0.390524,-0.22887 0.0014,-0.89557 c 0.0016,-1.14751 0.206306,-1.60144 0.561721,-1.24599 0.108544,0.1085 0.142513,0.31853 0.142513,0.88028 v 0.7378 l 0.290718,-0.0471 c 0.315025,-0.0511 0.543194,0.11558 0.458905,0.33517 -0.02597,0.0676 -0.562393,0.43193 -1.192126,0.80964 -1.113533,0.66789 -1.144968,0.69508 -1.144968,0.9907 v 0.30396 h 2.069441 2.069444 z m 2.265337,-4.35748 c 1.820054,-0.60937 3.301106,-2.14018 3.754405,-3.88051 0.141672,-0.5439 0.182494,-2.03256 0.06101,-2.22398 -0.0547,-0.0862 -0.514454,-0.10647 -1.993182,-0.0881 l -1.922097,0.0243 -0.285943,0.79373 c -0.250451,0.69526 -0.311823,0.79372 -0.494567,0.79372 -0.193669,0 -0.219614,-0.0593 -0.361764,-0.82692 -0.233437,-1.26061 -0.264438,-1.24093 -0.550459,0.34982 -0.250913,1.39568 -0.282965,1.49134 -0.499452,1.49134 -0.208819,0 -0.19843,0.0455 -0.591264,-2.59459 -0.179846,-1.20877 -0.366691,-2.21079 -0.415197,-2.22673 -0.04851,-0.0164 -0.346157,0.47702 -0.661443,1.09535 l -0.573255,1.12428 -1.649981,0.0244 -1.649981,0.0243 -0.05961,0.3176 c -0.100912,0.53789 0.02055,1.63287 0.25608,2.31038 0.480987,1.38307 1.462121,2.47313 2.838905,3.15409 1.070426,0.52942 1.68831,0.6568 2.998555,0.61816 0.870867,-0.027 1.189545,-0.0752 1.799239,-0.27931 z m -2.582339,-0.34598 c -0.501349,-0.14204 -0.612279,-0.23104 -0.568647,-0.45582 0.02803,-0.14447 0.130451,-0.16555 0.868148,-0.17909 0.460004,-0.008 0.975273,-0.0281 1.145044,-0.0441 0.276178,-0.0243 0.311494,-0.006 0.335474,0.20237 0.023,0.19722 -0.02543,0.25187 -0.329357,0.37355 -0.522805,0.20913 -0.965587,0.24078 -1.450662,0.1031 z m -1.6422,-2.07469 c -0.09701,-0.0972 -0.176384,-0.25567 -0.176384,-0.35282 0,-0.24453 0.308426,-0.52913 0.573253,-0.52913 0.264818,0 0.573252,0.28468 0.573252,0.52913 0,0.24455 -0.308429,0.52918 -0.573252,0.52918 -0.121275,0 -0.299857,-0.0793 -0.396869,-0.17636 z m 3.439517,-0.0882 c -0.232761,-0.23267 -0.222508,-0.40285 0.0401,-0.66546 0.243582,-0.24345 0.329798,-0.25996 0.605107,-0.11502 0.242042,0.12748 0.321863,0.24591 0.323575,0.48022 0.0031,0.43406 -0.63668,0.63239 -0.968767,0.30029 z m -1.151475,-4.27736 c 0.296559,-1.78581 0.575578,-1.83207 0.874871,-0.14501 0.09772,0.55084 0.197295,1.02113 0.221263,1.04511 0.08271,0.0828 0.212362,-0.0613 0.273139,-0.30344 0.117052,-0.46642 0.107419,-0.46436 2.176972,-0.46436 2.188984,0 2.146871,0.0162 1.845872,-0.66529 -0.655344,-1.4815 -2.160669,-2.71162 -3.887876,-3.17706 -0.773684,-0.20858 -2.314597,-0.21425 -3.086746,-0.0113 -1.862761,0.48917 -3.433992,1.84034 -4.06194,3.49292 l -0.172218,0.45328 1.47768,-0.0243 1.477684,-0.0244 0.705541,-1.38465 c 0.388047,-0.76156 0.755433,-1.43456 0.816413,-1.4955 0.244962,-0.24482 0.364055,0.12518 0.643002,1.99713 0.151683,1.01798 0.296644,1.88465 0.322123,1.92588 0.102882,0.16637 0.192723,-0.12627 0.374219,-1.21922 z"
         id="path4012-8"
         inkscape:connector-curvature="0" />
      <path
         style="fill:#a0a0a0;stroke-width:0.434238"
         d="m 28.040353,261.67777 c -0.05624,-0.1049 -0.09132,-1.05343 -0.09132,-2.46939 0,-2.62823 -0.06483,-2.41007 0.868669,-2.92327 0.298327,-0.16393 0.542417,-0.32331 0.542417,-0.35402 0,-0.0309 -0.162318,-0.16826 -0.360716,-0.30583 -1.028016,-0.71241 -2.013971,-2.17766 -2.338877,-3.47584 -0.201325,-0.80442 -0.134174,-2.39054 0.13451,-3.17721 1.033244,-3.02511 4.386038,-4.85502 7.661927,-4.18175 2.136444,0.4391 3.832748,1.7715 4.690824,3.6846 0.361925,0.8069 0.484002,1.41362 0.481552,2.39329 -0.0043,1.76252 -0.804317,3.40089 -2.221636,4.55038 -0.254647,0.20641 -0.463011,0.4065 -0.463011,0.44439 0,0.038 0.188503,0.17638 0.418915,0.30774 0.88078,0.5022 0.815782,0.26078 0.815782,3.02947 0,1.77735 -0.02862,2.465 -0.105831,2.54221 -0.07977,0.0796 -1.316324,0.10568 -5.023888,0.10568 -4.772077,0 -4.920765,-0.006 -5.009351,-0.17069 z m 4.778272,-1.34136 c 0.02029,-0.72066 0.0537,-0.91258 0.172084,-0.98706 0.106484,-0.067 0.185415,-0.0605 0.286623,0.0243 0.110188,0.0915 0.139673,0.2998 0.139673,0.98705 v 0.87111 h 2.031202 c 1.725502,0 2.038854,-0.0189 2.082046,-0.13248 0.118689,-0.30933 -0.0843,-0.54865 -1.048716,-1.23644 -0.806681,-0.57531 -0.992,-0.74828 -0.992,-0.92603 0,-0.17285 0.05069,-0.22425 0.242529,-0.24644 l 0.242526,-0.0279 v -0.72694 c 0,-0.82266 0.11329,-1.0851 0.425635,-0.98597 0.182308,0.0579 0.191777,0.11143 0.193075,1.09112 6.9e-4,0.56673 0.03051,1.07216 0.06615,1.12322 0.107317,0.15365 0.691445,0.5686 0.80071,0.5686 0.07253,0 0.101903,-0.37768 0.101903,-1.30922 0,-1.48548 0.04525,-1.38286 -0.823095,-1.86798 l -0.514419,-0.28745 -0.896236,0.29918 c -0.869904,0.29041 -0.937695,0.2992 -2.307746,0.29891 -1.355532,-2.1e-4 -1.441911,-0.0113 -2.177833,-0.27426 l -0.766317,-0.27401 -0.710913,0.40097 -0.710915,0.40096 v 1.35053 c 0,0.7428 0.02272,1.35058 0.05046,1.35058 0.02775,0 0.226187,-0.10309 0.440962,-0.22887 l 0.390524,-0.22887 0.0014,-0.89557 c 0.0016,-1.14751 0.206306,-1.60144 0.561721,-1.24599 0.108544,0.1085 0.142513,0.31853 0.142513,0.88028 v 0.7378 l 0.290718,-0.0471 c 0.315025,-0.0511 0.543194,0.11558 0.458905,0.33517 -0.02597,0.0676 -0.562393,0.43193 -1.192126,0.80964 -1.113533,0.66789 -1.144968,0.69508 -1.144968,0.9907 v 0.30396 h 2.069441 2.069444 z m 2.265337,-4.35748 c 1.403562,-0.46993 2.640938,-1.50058 3.294283,-2.74387 0.429067,-0.81653 0.595175,-1.49004 0.593708,-2.40729 -0.002,-1.2675 0.205601,-1.15 -2.032309,-1.15 -1.442955,0 -1.942613,0.0275 -1.996101,0.11041 -0.03924,0.0606 -0.191398,0.42737 -0.338104,0.81498 -0.382438,1.0104 -0.497129,0.9789 -0.708436,-0.1945 -0.249425,-1.38497 -0.369803,-1.31205 -0.674781,0.40874 -0.236279,1.33315 -0.338408,1.62908 -0.50309,1.45776 -0.04428,-0.0461 -0.22394,-1.07598 -0.399194,-2.28859 -0.378048,-2.61568 -0.375281,-2.60172 -0.515638,-2.60172 -0.06054,0 -0.377093,0.53579 -0.703448,1.19062 l -0.593372,1.1906 h -1.626578 -1.626579 l -0.06131,0.40891 c -0.234007,1.5605 0.483321,3.42764 1.761718,4.58559 0.632883,0.57328 1.868907,1.21483 2.698432,1.40062 0.933964,0.20911 2.512332,0.12546 3.430809,-0.18205 z m -2.582339,-0.34598 c -0.501349,-0.14204 -0.612279,-0.23104 -0.568647,-0.45582 0.02803,-0.14447 0.130451,-0.16555 0.868148,-0.17909 0.460004,-0.008 0.975273,-0.0281 1.145044,-0.0441 0.276178,-0.0243 0.311494,-0.006 0.335474,0.20237 0.023,0.19722 -0.02543,0.25187 -0.329357,0.37355 -0.522805,0.20913 -0.965587,0.24078 -1.450662,0.1031 z m -1.6422,-2.07469 c -0.09701,-0.0972 -0.176384,-0.25567 -0.176384,-0.35282 0,-0.24453 0.308426,-0.52913 0.573253,-0.52913 0.264818,0 0.573252,0.28468 0.573252,0.52913 0,0.24455 -0.308429,0.52918 -0.573252,0.52918 -0.121275,0 -0.299857,-0.0793 -0.396869,-0.17636 z m 3.439517,-0.0882 c -0.232761,-0.23267 -0.222508,-0.40285 0.0401,-0.66546 0.243582,-0.24345 0.329798,-0.25996 0.605107,-0.11502 0.242042,0.12748 0.321863,0.24591 0.323575,0.48022 0.0031,0.43406 -0.63668,0.63239 -0.968767,0.30029 z m -1.097809,-4.10189 c 0.211607,-1.21013 0.333943,-1.55258 0.494567,-1.38443 0.03281,0.0344 0.152225,0.57839 0.265306,1.20896 0.232869,1.29834 0.343523,1.42064 0.618496,0.68352 l 0.172705,-0.46302 h 1.972971 c 1.085132,0 1.99242,-0.0315 2.016195,-0.0698 0.08023,-0.12991 -0.357483,-1.05886 -0.773608,-1.642 -0.728041,-1.02028 -1.981677,-1.859 -3.316077,-2.21859 -0.773686,-0.20857 -2.314601,-0.21426 -3.086747,-0.0113 -1.084749,0.28486 -1.999152,0.80872 -2.786328,1.59624 -0.677355,0.67767 -1.19903,1.50881 -1.403089,2.23545 l -0.05574,0.19856 1.439077,-9.8e-4 c 0.791494,-6.2e-4 1.483847,-0.0306 1.538565,-0.0662 0.05473,-0.0355 0.422055,-0.70973 0.816304,-1.49793 0.672478,-1.34451 0.811339,-1.54707 0.929474,-1.35595 0.02624,0.0426 0.169945,0.92549 0.319337,1.9623 0.278277,1.93132 0.382411,2.3719 0.526552,2.22775 0.04457,-0.0447 0.184959,-0.67541 0.312001,-1.40192 z"
         id="path4010-0"
         inkscape:connector-curvature="0" />
      <path
         style="fill:#179cfd;stroke-width:0.434238"
         d="m 28.084301,261.62139 c -0.09334,-0.2432 -0.06068,-4.53422 0.03585,-4.71459 0.04932,-0.0922 0.366818,-0.32942 0.705541,-0.52725 0.338727,-0.19778 0.615865,-0.39635 0.615865,-0.44114 0,-0.0449 -0.225402,-0.25131 -0.5009,-0.45914 -1.007366,-0.75955 -1.863496,-2.05429 -2.182561,-3.30077 -0.176274,-0.68859 -0.179006,-2.04001 -0.0054,-2.72476 0.07324,-0.28909 0.298305,-0.86296 0.500144,-1.27526 0.293281,-0.59912 0.51896,-0.90166 1.123813,-1.50667 0.628099,-0.62825 0.899287,-0.82698 1.594434,-1.16847 1.206772,-0.59277 1.759323,-0.7188 3.130615,-0.71416 0.806735,0.002 1.311968,0.0495 1.704825,0.15746 3.200698,0.88036 5.194794,3.81447 4.65392,6.84772 -0.248316,1.39251 -1.241594,2.98286 -2.337264,3.74216 -0.198811,0.13767 -0.36148,0.28303 -0.36148,0.3228 0,0.0398 0.277437,0.23428 0.616524,0.43238 0.393273,0.22968 0.633784,0.4307 0.664178,0.55509 0.02625,0.10714 0.03649,1.24673 0.02299,2.53213 l -0.02488,2.33712 -4.951132,0.0216 c -4.457619,0.0215 -4.956494,0.008 -5.004941,-0.11734 z m 4.796794,-1.27231 c 0.04062,-0.85254 0.0581,-0.92604 0.220478,-0.92604 0.162399,0 0.179874,0.0735 0.22048,0.92604 l 0.0441,0.92602 h 2.11542 c 1.979416,0 2.117418,-0.0113 2.146485,-0.16124 0.07415,-0.38501 -0.08786,-0.58193 -1.039039,-1.26279 -0.5321,-0.38086 -0.988888,-0.74572 -1.015085,-0.81071 -0.07133,-0.17694 0.02596,-0.27867 0.266821,-0.27867 0.212067,0 0.215285,-0.0113 0.215285,-0.78294 0,-0.57789 0.03363,-0.81084 0.12842,-0.88952 0.247505,-0.20531 0.312538,-0.006 0.312538,0.96492 0,0.5267 0.02407,1.0201 0.05321,1.09639 0.07569,0.19722 0.895628,0.78122 1.003392,0.71461 0.137026,-0.0848 0.118488,-2.70962 -0.02028,-2.88339 -0.06062,-0.0761 -0.366131,-0.28527 -0.678882,-0.46529 -0.638192,-0.36731 -0.664782,-0.36715 -1.680277,0.0113 -0.620191,0.23022 -0.749452,0.24593 -2.072528,0.24835 -1.367516,0.002 -1.436372,-0.006 -2.229991,-0.28332 l -0.818897,-0.286 -0.707163,0.41086 c -0.388942,0.22589 -0.744718,0.48108 -0.790616,0.56686 -0.04592,0.0857 -0.08344,0.71537 -0.08344,1.39919 0,0.99797 0.02488,1.25279 0.126404,1.29174 0.157447,0.0603 0.905595,-0.36921 1.022127,-0.58694 0.04739,-0.0885 0.0862,-0.57804 0.0862,-1.08767 0,-0.95796 0.0901,-1.20675 0.322052,-0.88956 0.07719,0.10547 0.118894,0.4201 0.118894,0.89644 v 0.73386 l 0.360543,-0.0576 c 0.341277,-0.0546 0.358954,-0.0466 0.330725,0.14961 -0.02299,0.16068 -0.280994,0.35508 -1.148549,0.86561 -1.145685,0.67416 -1.30229,0.84178 -1.171412,1.25421 0.05178,0.16311 0.145382,0.16933 2.186334,0.14688 l 2.132238,-0.0243 z m 2.160723,-4.26226 c 1.769875,-0.57963 3.167996,-1.90262 3.76078,-3.55863 0.192048,-0.53652 0.328288,-2.18171 0.217288,-2.62393 l -0.05685,-0.22641 h -1.977453 c -1.485114,0 -1.995217,0.0273 -2.0488,0.11041 -0.03924,0.0605 -0.191399,0.42736 -0.338105,0.81497 -0.382437,1.0104 -0.497129,0.97892 -0.708437,-0.1945 -0.249424,-1.38497 -0.369803,-1.31205 -0.674782,0.40873 -0.236276,1.33315 -0.338406,1.62909 -0.503087,1.45777 -0.04428,-0.046 -0.223941,-1.07597 -0.399196,-2.28861 -0.378048,-2.61567 -0.375282,-2.6017 -0.515636,-2.6017 -0.06054,0 -0.377094,0.53578 -0.703448,1.19062 l -0.593373,1.19063 h -1.628884 c -1.902339,0 -1.81147,-0.0499 -1.81147,0.99426 0,0.80431 0.255081,1.83651 0.632916,2.56111 0.424332,0.81377 1.610253,1.95985 2.460638,2.37796 1.097382,0.53952 1.794389,0.68665 3.07994,0.64999 0.892825,-0.0244 1.23655,-0.0755 1.807954,-0.26241 z m -2.425303,-0.51429 c -0.478805,-0.10703 -0.703657,-0.2876 -0.549872,-0.44139 0.07642,-0.0766 0.231706,-0.0808 0.585546,-0.0162 0.356597,0.0647 0.599579,0.0571 0.936494,-0.0291 0.48231,-0.12329 0.615302,-0.0987 0.615302,0.11422 0,0.28859 -0.958357,0.51378 -1.58747,0.37302 z m -1.706091,-2.08738 c -0.189693,-0.20965 -0.184796,-0.3936 0.01543,-0.57471 0.232894,-0.21073 0.518062,-0.17963 0.684657,0.0743 0.133834,0.20423 0.133834,0.23669 0,0.44096 -0.171756,0.26213 -0.491832,0.2892 -0.699982,0.0593 z m 3.421615,-0.14148 c -0.271481,-0.41435 0.198702,-0.82027 0.625904,-0.54036 0.247452,0.16205 0.279238,0.41467 0.07757,0.61634 -0.207737,0.20776 -0.541169,0.17179 -0.703478,-0.0761 z m -1.137669,-3.97553 c 0.211606,-1.21013 0.333942,-1.55259 0.494569,-1.38441 0.03282,0.0344 0.152224,0.57837 0.265305,1.20895 0.23276,1.29772 0.34355,1.42057 0.617887,0.68512 l 0.172107,-0.46134 2.000835,-0.0243 c 2.352706,-0.0279 2.281076,0.0162 1.723959,-1.05794 -0.429635,-0.82824 -1.435244,-1.8525 -2.279603,-2.32184 -3.036046,-1.6875 -6.967182,-0.61741 -8.490501,2.31125 -0.205682,0.39548 -0.373989,0.82207 -0.373989,0.94808 v 0.22911 l 1.433135,-9.7e-4 c 0.788221,-6e-4 1.477901,-0.0306 1.53262,-0.0663 0.05473,-0.0355 0.422054,-0.7097 0.816303,-1.49792 0.672479,-1.34449 0.811342,-1.54706 0.929474,-1.35594 0.02625,0.0425 0.169945,0.9255 0.319337,1.96229 0.278278,1.93132 0.382411,2.37191 0.526555,2.22776 0.04455,-0.0447 0.184956,-0.67543 0.311999,-1.40192 z"
         id="path4008-4"
         inkscape:connector-curvature="0" />
      <path
         style="fill:#050505;fill-opacity:1;stroke-width:0.434238"
         d="m 28.084301,261.62139 c -0.09334,-0.2432 -0.06068,-4.53422 0.03585,-4.71459 0.04932,-0.0922 0.366818,-0.32942 0.705541,-0.52725 0.338727,-0.19778 0.615865,-0.39635 0.615865,-0.44114 0,-0.0449 -0.225402,-0.25131 -0.5009,-0.45914 -1.007366,-0.75955 -1.863496,-2.05429 -2.182561,-3.30077 -0.176274,-0.68859 -0.179006,-2.04001 -0.0054,-2.72476 0.07324,-0.28909 0.298305,-0.86296 0.500144,-1.27526 0.293281,-0.59912 0.51896,-0.90166 1.123813,-1.50667 0.628099,-0.62825 0.899287,-0.82698 1.594434,-1.16847 1.206772,-0.59277 1.759323,-0.7188 3.130615,-0.71416 0.806735,0.002 1.311968,0.0495 1.704825,0.15746 3.200698,0.88036 5.194794,3.81447 4.65392,6.84772 -0.248316,1.39251 -1.241594,2.98286 -2.337264,3.74216 -0.198811,0.13767 -0.36148,0.28303 -0.36148,0.3228 0,0.0398 0.277437,0.23428 0.616524,0.43238 0.393273,0.22968 0.633784,0.4307 0.664178,0.55509 0.02625,0.10714 0.03649,1.24673 0.02299,2.53213 l -0.02488,2.33712 -4.951132,0.0216 c -4.457619,0.0215 -4.956494,0.008 -5.004941,-0.11734 z m 4.796794,-1.27231 c 0.04062,-0.85254 0.0581,-0.92604 0.220478,-0.92604 0.162399,0 0.179874,0.0735 0.22048,0.92604 l 0.0441,0.92602 h 2.11542 c 1.979416,0 2.117418,-0.0113 2.146485,-0.16124 0.07415,-0.38501 -0.08786,-0.58193 -1.039039,-1.26279 -0.5321,-0.38086 -0.988888,-0.74572 -1.015085,-0.81071 -0.07133,-0.17694 0.02596,-0.27867 0.266821,-0.27867 0.212067,0 0.215285,-0.0113 0.215285,-0.78294 0,-0.57789 0.03363,-0.81084 0.12842,-0.88952 0.247505,-0.20531 0.312538,-0.006 0.312538,0.96492 0,0.5267 0.02407,1.0201 0.05321,1.09639 0.07569,0.19722 0.895628,0.78122 1.003392,0.71461 0.137026,-0.0848 0.118488,-2.70962 -0.02028,-2.88339 -0.06062,-0.0761 -0.366131,-0.28527 -0.678882,-0.46529 -0.638192,-0.36731 -0.664782,-0.36715 -1.680277,0.0113 -0.620191,0.23022 -0.749452,0.24593 -2.072528,0.24835 -1.367516,0.002 -1.436372,-0.006 -2.229991,-0.28332 l -0.818897,-0.286 -0.707163,0.41086 c -0.388942,0.22589 -0.744718,0.48108 -0.790616,0.56686 -0.04592,0.0857 -0.08344,0.71537 -0.08344,1.39919 0,0.99797 0.02488,1.25279 0.126404,1.29174 0.157447,0.0603 0.905595,-0.36921 1.022127,-0.58694 0.04739,-0.0885 0.0862,-0.57804 0.0862,-1.08767 0,-0.95796 0.0901,-1.20675 0.322052,-0.88956 0.07719,0.10547 0.118894,0.4201 0.118894,0.89644 v 0.73386 l 0.360543,-0.0576 c 0.341277,-0.0546 0.358954,-0.0466 0.330725,0.14961 -0.02299,0.16068 -0.280994,0.35508 -1.148549,0.86561 -1.145685,0.67416 -1.30229,0.84178 -1.171412,1.25421 0.05178,0.16311 0.145382,0.16933 2.186334,0.14688 l 2.132238,-0.0243 z m 2.160723,-4.26226 c 1.798336,-0.58895 3.232202,-1.974 3.804655,-3.6751 0.213148,-0.63339 0.221914,-2.36663 0.01569,-3.09953 -0.356769,-1.26779 -1.453375,-2.62144 -2.672695,-3.2992 -2.477562,-1.37709 -5.596645,-0.9588 -7.541693,1.01144 -1.633552,1.65471 -2.027872,4.11443 -0.994473,6.2034 0.44418,0.89788 1.576714,2.0172 2.500652,2.47147 1.097382,0.53953 1.794387,0.68664 3.079941,0.64999 0.892823,-0.0243 1.236549,-0.0756 1.807951,-0.26241 z m -2.425303,-0.51429 c -0.478805,-0.10703 -0.703657,-0.2876 -0.549872,-0.44139 0.07642,-0.0766 0.231706,-0.0808 0.585546,-0.0162 0.356597,0.0647 0.599579,0.0571 0.936494,-0.0291 0.48231,-0.12329 0.615302,-0.0987 0.615302,0.11422 0,0.28859 -0.958357,0.51378 -1.58747,0.37302 z m -1.706091,-2.08738 c -0.189693,-0.20965 -0.184796,-0.3936 0.01543,-0.57471 0.232894,-0.21073 0.518062,-0.17963 0.684657,0.0743 0.133834,0.20423 0.133834,0.23669 0,0.44096 -0.171756,0.26213 -0.491832,0.2892 -0.699982,0.0593 z m 3.421615,-0.14148 c -0.271481,-0.41435 0.198702,-0.82027 0.625904,-0.54036 0.247452,0.16205 0.279238,0.41467 0.07757,0.61634 -0.207737,0.20776 -0.541169,0.17179 -0.703478,-0.0761 z"
         id="path4006-5"
         inkscape:connector-curvature="0" />
    </g>
    <g
       id="text1"
       style="font-weight:bold;font-size:2.82222px;font-family:Sans;-inkscape-font-specification:'Sans Bold';text-align:center;text-anchor:middle;fill:#ffffff;stroke-width:0.265112"
       aria-label="Sample&#10;Grid"
       transform="translate(-1.247466,2.1166665)">
      <path
         d="m 31.820175,167.30328 q 0,0.30316 -0.257693,0.49333 -0.256315,0.18879 -0.697287,0.18879 -0.254937,0 -0.445106,-0.0441 -0.188791,-0.0455 -0.354155,-0.11438 v -0.49196 h 0.05788 q 0.163987,0.13091 0.366558,0.20119 0.203949,0.0703 0.391363,0.0703 0.04823,0 0.126779,-0.008 0.07855,-0.008 0.128157,-0.0276 0.06063,-0.0248 0.09922,-0.062 0.03996,-0.0372 0.03996,-0.11024 0,-0.0675 -0.05788,-0.11576 -0.0565,-0.0496 -0.166743,-0.0758 -0.115755,-0.0276 -0.24529,-0.051 -0.128158,-0.0248 -0.241157,-0.062 -0.259071,-0.0841 -0.373448,-0.22737 -0.112999,-0.1447 -0.112999,-0.35829 0,-0.28663 0.256315,-0.46716 0.257693,-0.1819 0.661458,-0.1819 0.202571,0 0.39963,0.04 0.198438,0.0386 0.343132,0.0978 v 0.47266 h -0.0565 q -0.124023,-0.0992 -0.304546,-0.16536 -0.179145,-0.0675 -0.366558,-0.0675 -0.06615,0 -0.132292,0.01 -0.06477,0.008 -0.125401,0.0331 -0.05374,0.0207 -0.09233,0.0634 -0.03858,0.0413 -0.03858,0.0951 0,0.0813 0.06201,0.1254 0.06201,0.0427 0.234267,0.0786 0.112999,0.0234 0.216351,0.0455 0.104731,0.0221 0.22462,0.0606 0.235645,0.0772 0.347266,0.21084 0.112999,0.13229 0.112999,0.34451 z m 1.271928,0.24115 v -0.32246 q -0.100597,0.008 -0.21773,0.0234 -0.117133,0.0138 -0.177767,0.0331 -0.07441,0.0234 -0.114377,0.0689 -0.03858,0.0441 -0.03858,0.11714 0,0.0482 0.0083,0.0785 0.0083,0.0303 0.04134,0.0579 0.03169,0.0276 0.07579,0.0413 0.0441,0.0124 0.137803,0.0124 0.07441,0 0.150206,-0.0303 0.07717,-0.0303 0.135048,-0.0799 z m 0,0.23978 q -0.03996,0.0303 -0.09922,0.073 -0.05925,0.0427 -0.111621,0.0675 -0.07304,0.0331 -0.151584,0.0482 -0.07855,0.0165 -0.172254,0.0165 -0.220486,0 -0.369314,-0.13643 -0.148828,-0.13642 -0.148828,-0.34864 0,-0.1695 0.07579,-0.27699 0.07579,-0.10748 0.214974,-0.1695 0.137803,-0.062 0.341753,-0.0882 0.203949,-0.0262 0.423057,-0.0386 v -0.008 q 0,-0.12816 -0.104731,-0.17639 -0.104731,-0.0496 -0.30868,-0.0496 -0.122645,0 -0.261827,0.0441 -0.139182,0.0427 -0.199815,0.0661 h -0.04548 v -0.37345 q 0.07855,-0.0207 0.254937,-0.0482 0.177767,-0.0289 0.355534,-0.0289 0.423057,0 0.61047,0.13092 0.188791,0.12953 0.188791,0.4079 v 1.05282 h -0.491959 z m 2.461174,-0.93293 v 1.09692 h -0.498849 v -0.77308 q 0,-0.113 -0.0055,-0.19155 -0.0055,-0.0799 -0.03032,-0.12954 -0.02481,-0.0496 -0.07579,-0.0717 -0.04961,-0.0234 -0.14056,-0.0234 -0.07304,0 -0.141938,0.0303 -0.0689,0.0289 -0.124023,0.062 v 1.09692 h -0.496093 v -1.54754 h 0.496093 v 0.17088 q 0.128157,-0.1006 0.245291,-0.1571 0.117133,-0.0565 0.25907,-0.0565 0.152963,0 0.270096,0.0689 0.117133,0.0675 0.183279,0.19982 0.148828,-0.1254 0.289388,-0.19706 0.140559,-0.0717 0.275607,-0.0717 0.250803,0 0.380338,0.15021 0.130914,0.1502 0.130914,0.4327 v 1.00735 h -0.49885 v -0.77308 q 0,-0.11438 -0.0055,-0.19293 -0.0041,-0.0786 -0.02894,-0.12816 -0.02343,-0.0496 -0.07441,-0.0717 -0.05099,-0.0234 -0.143316,-0.0234 -0.06201,0 -0.121267,0.0221 -0.05926,0.0207 -0.144694,0.0703 z m 3.088182,0.30179 q 0,0.19155 -0.05926,0.34864 -0.05788,0.1571 -0.152962,0.25907 -0.09922,0.10749 -0.22462,0.16261 -0.125402,0.0551 -0.268717,0.0551 -0.132292,0 -0.22462,-0.0289 -0.09233,-0.0276 -0.188792,-0.0785 v 0.64492 h -0.496093 v -2.11529 h 0.496093 v 0.16123 q 0.114378,-0.0909 0.232889,-0.14745 0.119889,-0.0565 0.275607,-0.0565 0.289388,0 0.44924,0.21222 0.161231,0.21222 0.161231,0.58291 z m -0.511252,0.01 q 0,-0.226 -0.07717,-0.32798 -0.07717,-0.10197 -0.243913,-0.10197 -0.07028,0 -0.144694,0.0221 -0.07441,0.0207 -0.141938,0.0606 v 0.77859 q 0.04961,0.0193 0.106109,0.0248 0.0565,0.006 0.111621,0.006 0.19706,0 0.293522,-0.11438 0.09646,-0.11575 0.09646,-0.34726 z m 1.365635,0.78548 h -0.496094 v -2.14423 h 0.496094 z m 1.992642,-0.68213 h -1.135503 q 0.01102,0.1819 0.137804,0.27836 0.128157,0.0965 0.376204,0.0965 0.157096,0 0.304546,-0.0565 0.14745,-0.0565 0.232888,-0.12126 h 0.05512 v 0.39825 q -0.168121,0.0675 -0.316949,0.0978 -0.148828,0.0303 -0.329351,0.0303 -0.465776,0 -0.713823,-0.20946 -0.248047,-0.20947 -0.248047,-0.59669 0,-0.3831 0.234267,-0.60634 0.235644,-0.22462 0.644921,-0.22462 0.377582,0 0.567751,0.19155 0.19017,0.19017 0.19017,0.54846 z m -0.493338,-0.29077 q -0.0041,-0.15572 -0.07717,-0.23426 -0.07304,-0.0786 -0.227376,-0.0786 -0.143316,0 -0.235644,0.0744 -0.09233,0.0744 -0.103353,0.2384 z"
         id="path2" />
      <path
         d="m 34.521817,171.35884 q -0.137804,0.0537 -0.36518,0.10749 -0.227376,0.0524 -0.453374,0.0524 -0.523655,0 -0.819932,-0.28387 -0.296278,-0.28526 -0.296278,-0.78686 0,-0.47818 0.299034,-0.77033 0.299034,-0.29352 0.833712,-0.29352 0.202572,0 0.38585,0.0372 0.183279,0.0358 0.407899,0.14469 v 0.48094 h -0.05926 q -0.03858,-0.0289 -0.112999,-0.0813 -0.07441,-0.0537 -0.143316,-0.091 -0.07993,-0.0441 -0.187413,-0.0758 -0.106109,-0.0317 -0.225998,-0.0317 -0.14056,0 -0.254937,0.0413 -0.114377,0.0413 -0.205328,0.12678 -0.08682,0.0827 -0.137803,0.21084 -0.04961,0.12678 -0.04961,0.29352 0,0.34037 0.180523,0.5209 0.180523,0.18052 0.533301,0.18052 0.03032,0 0.06614,-0.001 0.03721,-0.001 0.06752,-0.004 v -0.40239 h -0.409277 v -0.38723 h 0.946712 z m 1.568206,-0.95774 h -0.0441 q -0.03169,-0.011 -0.101975,-0.0165 -0.07028,-0.006 -0.117133,-0.006 -0.106109,0 -0.187413,0.0138 -0.0813,0.0138 -0.175011,0.0469 v 1.03628 h -0.496093 v -1.54753 h 0.496093 v 0.22737 q 0.163986,-0.14056 0.285254,-0.18603 0.121267,-0.0469 0.223242,-0.0469 0.02618,0 0.05926,10e-4 0.03307,0.001 0.05788,0.004 z m 0.777213,1.07487 h -0.496093 v -1.54753 h 0.496093 z m 0.01378,-1.76802 h -0.523654 v -0.3762 h 0.523654 z m 1.959569,1.76802 h -0.496093 v -0.16123 q -0.128158,0.10473 -0.239779,0.15434 -0.111621,0.0496 -0.257693,0.0496 -0.282497,0 -0.451996,-0.21773 -0.169499,-0.21773 -0.169499,-0.58704 0,-0.19706 0.0565,-0.34865 0.05788,-0.15296 0.157096,-0.26182 0.09371,-0.10336 0.227376,-0.15986 0.13367,-0.0579 0.267339,-0.0579 0.139182,0 0.227377,0.0303 0.08957,0.0289 0.183279,0.0744 v -0.6587 h 0.496093 z m -0.496093,-0.42719 v -0.7593 q -0.05237,-0.0221 -0.110243,-0.0317 -0.05788,-0.01 -0.106109,-0.01 -0.195682,0 -0.293522,0.12265 -0.09784,0.12126 -0.09784,0.33761 0,0.22738 0.07855,0.33073 0.07855,0.10198 0.252181,0.10198 0.06752,0 0.143316,-0.0248 0.07579,-0.0262 0.13367,-0.0675 z"
         id="path3" />
    </g>
    <g
       id="text3"
       style="font-weight:bold;font-size:2.11667px;font-family:Sans;-inkscape-font-specification:'Sans Bold';text-align:center;text-anchor:middle;fill:#ffffff;stroke-width:0.265112"
       aria-label="Load Random &#10;Samples"
       transform="translate(-5.4870156,-4.2975317)">
      <path
         style="font-weight:normal;-inkscape-font-specification:Sans"
         d="m 48.258343,249.79948 h -0.973586 v -1.53892 h 0.204639 v 1.35702 h 0.768947 z m 1.173056,-0.57671 q 0,0.28216 -0.144694,0.44546 -0.144694,0.16329 -0.387574,0.16329 -0.244946,0 -0.389641,-0.16329 -0.14366,-0.1633 -0.14366,-0.44546 0,-0.28215 0.14366,-0.44545 0.144695,-0.16433 0.389641,-0.16433 0.24288,0 0.387574,0.16433 0.144694,0.1633 0.144694,0.44545 z m -0.200504,0 q 0,-0.22427 -0.08785,-0.33279 -0.08785,-0.10956 -0.243913,-0.10956 -0.15813,0 -0.24598,0.10956 -0.08682,0.10852 -0.08682,0.33279 0,0.21705 0.08785,0.3297 0.08785,0.11162 0.244946,0.11162 0.15503,0 0.24288,-0.11059 0.08888,-0.11162 0.08888,-0.33073 z m 1.398366,0.57671 h -0.19327 v -0.12299 q -0.02584,0.0176 -0.07028,0.0496 -0.04341,0.031 -0.08475,0.0496 -0.04858,0.0238 -0.111621,0.0393 -0.06304,0.0165 -0.147795,0.0165 -0.156063,0 -0.264584,-0.10335 -0.10852,-0.10335 -0.10852,-0.26355 0,-0.13126 0.05581,-0.21187 0.05685,-0.0816 0.161231,-0.12816 0.10542,-0.0465 0.253215,-0.0631 0.147795,-0.0165 0.317294,-0.0248 v -0.03 q 0,-0.0661 -0.02377,-0.10956 -0.02274,-0.0434 -0.06615,-0.0682 -0.04134,-0.0238 -0.09922,-0.032 -0.05788,-0.008 -0.120923,-0.008 -0.07648,0 -0.170533,0.0207 -0.09405,0.0196 -0.194303,0.0579 h -0.01034 v -0.1974 q 0.05684,-0.0155 0.164332,-0.0341 0.107487,-0.0186 0.211873,-0.0186 0.121957,0 0.211874,0.0207 0.09095,0.0196 0.157097,0.0682 0.06511,0.0475 0.09922,0.12299 0.03411,0.0754 0.03411,0.18707 z m -0.19327,-0.28422 v -0.32142 q -0.08888,0.005 -0.209807,0.0155 -0.119889,0.0103 -0.190169,0.03 -0.08372,0.0238 -0.135393,0.0744 -0.05168,0.0496 -0.05168,0.13745 0,0.0992 0.05994,0.14987 0.05994,0.0496 0.182935,0.0496 0.10232,0 0.187069,-0.0393 0.08475,-0.0403 0.157097,-0.0961 z m 1.503786,0.28422 h -0.194303 v -0.12092 q -0.08372,0.0724 -0.174667,0.11266 -0.09095,0.0403 -0.197404,0.0403 -0.206706,0 -0.328663,-0.15916 -0.120923,-0.15916 -0.120923,-0.44132 0,-0.14676 0.04134,-0.26148 0.04237,-0.11472 0.113689,-0.19534 0.07028,-0.0786 0.163297,-0.11989 0.09405,-0.0413 0.194304,-0.0413 0.09095,0 0.161231,0.0196 0.07028,0.0186 0.147795,0.0589 v -0.50023 h 0.194303 z m -0.194303,-0.28422 v -0.66249 q -0.07855,-0.0351 -0.140561,-0.0486 -0.06201,-0.0134 -0.135392,-0.0134 -0.163298,0 -0.254248,0.11369 -0.09095,0.11369 -0.09095,0.32246 0,0.20567 0.07028,0.31316 0.07028,0.10645 0.22531,0.10645 0.08268,0 0.167431,-0.0362 0.08475,-0.0372 0.158131,-0.0951 z m 2.609663,0.28422 H 54.08952 l -0.514698,-0.61185 h -0.288355 v 0.61185 h -0.204639 v -1.53892 h 0.430982 q 0.139527,0 0.232545,0.0186 0.09302,0.0176 0.167431,0.0641 0.08372,0.0527 0.130225,0.13333 0.04754,0.0796 0.04754,0.20257 0,0.1664 -0.08372,0.27905 -0.08372,0.11162 -0.230478,0.16847 z m -0.478524,-1.10587 q 0,-0.0661 -0.02377,-0.11679 -0.02274,-0.0517 -0.07648,-0.0868 -0.04444,-0.03 -0.10542,-0.0413 -0.06098,-0.0124 -0.14366,-0.0124 H 53.28647 v 0.58084 h 0.206706 q 0.09715,0 0.169499,-0.0165 0.07235,-0.0176 0.12299,-0.0641 0.04651,-0.0434 0.06821,-0.0992 0.02274,-0.0568 0.02274,-0.14366 z m 1.517222,1.10587 h -0.19327 v -0.12299 q -0.02584,0.0176 -0.07028,0.0496 -0.04341,0.031 -0.08475,0.0496 -0.04858,0.0238 -0.111621,0.0393 -0.06305,0.0165 -0.147795,0.0165 -0.156063,0 -0.264584,-0.10335 -0.108521,-0.10335 -0.108521,-0.26355 0,-0.13126 0.05581,-0.21187 0.05684,-0.0816 0.161231,-0.12816 0.10542,-0.0465 0.253215,-0.0631 0.147794,-0.0165 0.317293,-0.0248 v -0.03 q 0,-0.0661 -0.02377,-0.10956 -0.02274,-0.0434 -0.06615,-0.0682 -0.04134,-0.0238 -0.09922,-0.032 -0.05788,-0.008 -0.120923,-0.008 -0.07648,0 -0.170532,0.0207 -0.09405,0.0196 -0.194304,0.0579 h -0.01033 v -0.1974 q 0.05684,-0.0155 0.164331,-0.0341 0.107487,-0.0186 0.211874,-0.0186 0.121956,0 0.211873,0.0207 0.09095,0.0196 0.157097,0.0682 0.06511,0.0475 0.09922,0.12299 0.03411,0.0754 0.03411,0.18707 z m -0.19327,-0.28422 v -0.32142 q -0.08888,0.005 -0.209806,0.0155 -0.11989,0.0103 -0.19017,0.03 -0.08372,0.0238 -0.135392,0.0744 -0.05168,0.0496 -0.05168,0.13745 0,0.0992 0.05994,0.14987 0.05994,0.0496 0.182935,0.0496 0.102319,0 0.187069,-0.0393 0.08475,-0.0403 0.157096,-0.0961 z m 1.532726,0.28422 h -0.194304 v -0.65732 q 0,-0.0796 -0.0093,-0.14883 -0.0093,-0.0703 -0.03411,-0.10955 -0.02584,-0.0434 -0.07442,-0.0641 -0.04857,-0.0217 -0.12609,-0.0217 -0.07958,0 -0.166399,0.0393 -0.08682,0.0393 -0.166398,0.10025 v 0.86196 h -0.194304 v -1.15445 h 0.194304 v 0.12816 q 0.09095,-0.0754 0.188103,-0.11782 0.09715,-0.0424 0.199471,-0.0424 0.187069,0 0.285254,0.11266 0.09819,0.11265 0.09819,0.32452 z m 1.310515,0 h -0.194303 v -0.12092 q -0.08372,0.0724 -0.174667,0.11266 -0.09095,0.0403 -0.197404,0.0403 -0.206706,0 -0.328663,-0.15916 -0.120923,-0.15916 -0.120923,-0.44132 0,-0.14676 0.04134,-0.26148 0.04237,-0.11472 0.113689,-0.19534 0.07028,-0.0786 0.163298,-0.11989 0.09405,-0.0413 0.194303,-0.0413 0.09095,0 0.161231,0.0196 0.07028,0.0186 0.147795,0.0589 v -0.50023 h 0.194303 z m -0.194303,-0.28422 v -0.66249 q -0.07855,-0.0351 -0.14056,-0.0486 -0.06201,-0.0134 -0.135393,-0.0134 -0.163298,0 -0.254248,0.11369 -0.09095,0.11369 -0.09095,0.32246 0,0.20567 0.07028,0.31316 0.07028,0.10645 0.22531,0.10645 0.08268,0 0.167432,-0.0362 0.08475,-0.0372 0.15813,-0.0951 z m 1.560631,-0.29249 q 0,0.28216 -0.144695,0.44546 -0.144694,0.16329 -0.387574,0.16329 -0.244946,0 -0.38964,-0.16329 -0.143661,-0.1633 -0.143661,-0.44546 0,-0.28215 0.143661,-0.44545 0.144694,-0.16433 0.38964,-0.16433 0.24288,0 0.387574,0.16433 0.144695,0.1633 0.144695,0.44545 z m -0.200505,0 q 0,-0.22427 -0.08785,-0.33279 -0.08785,-0.10956 -0.243914,-0.10956 -0.15813,0 -0.24598,0.10956 -0.08682,0.10852 -0.08682,0.33279 0,0.21705 0.08785,0.3297 0.08785,0.11162 0.244946,0.11162 0.15503,0 0.24288,-0.11059 0.08888,-0.11162 0.08888,-0.33073 z m 2.185916,0.57671 h -0.194303 v -0.65732 q 0,-0.0744 -0.0072,-0.14366 -0.0062,-0.0693 -0.0279,-0.11059 -0.02377,-0.0444 -0.06821,-0.0672 -0.04444,-0.0227 -0.128158,-0.0227 -0.08165,0 -0.163298,0.0413 -0.08165,0.0403 -0.163298,0.10336 0.0031,0.0238 0.0052,0.0558 0.0021,0.031 0.0021,0.062 v 0.73897 h -0.194304 v -0.65732 q 0,-0.0765 -0.0072,-0.1447 -0.0062,-0.0692 -0.02791,-0.11058 -0.02377,-0.0444 -0.06821,-0.0661 -0.04444,-0.0227 -0.128157,-0.0227 -0.07958,0 -0.160197,0.0393 -0.07958,0.0393 -0.159164,0.10025 v 0.86196 h -0.194304 v -1.15445 h 0.194304 v 0.12816 q 0.09095,-0.0754 0.180868,-0.11782 0.09095,-0.0424 0.19327,-0.0424 0.117822,0 0.199471,0.0496 0.08268,0.0496 0.12299,0.13746 0.117823,-0.0992 0.214975,-0.14263 0.09715,-0.0444 0.207739,-0.0444 0.19017,0 0.280087,0.11576 0.09095,0.11472 0.09095,0.32142 z"
         id="path4" />
      <path
         style="font-weight:normal;-inkscape-font-specification:Sans"
         d="m 51.505178,252.00607 q 0,0.0899 -0.04237,0.17777 -0.04134,0.0879 -0.116789,0.14883 -0.08268,0.0661 -0.19327,0.10335 -0.109554,0.0372 -0.264584,0.0372 -0.166398,0 -0.299724,-0.031 -0.132291,-0.031 -0.269751,-0.092 v -0.25632 h 0.01447 q 0.116788,0.0971 0.269751,0.14986 0.152962,0.0527 0.287321,0.0527 0.19017,0 0.29559,-0.0713 0.106454,-0.0713 0.106454,-0.19017 0,-0.10232 -0.05064,-0.1509 -0.04961,-0.0486 -0.151929,-0.0754 -0.07752,-0.0207 -0.168466,-0.0341 -0.08992,-0.0134 -0.191203,-0.0341 -0.204639,-0.0434 -0.303858,-0.14779 -0.09819,-0.10542 -0.09819,-0.27389 0,-0.19327 0.163298,-0.31626 0.163297,-0.12402 0.414445,-0.12402 0.162264,0 0.297657,0.031 0.135392,0.031 0.239779,0.0765 v 0.24184 h -0.01447 q -0.08785,-0.0744 -0.231511,-0.12299 -0.142627,-0.0496 -0.292489,-0.0496 -0.164332,0 -0.264584,0.0682 -0.09922,0.0682 -0.09922,0.1757 0,0.0961 0.04961,0.15089 0.04961,0.0548 0.174666,0.0837 0.06615,0.0145 0.188103,0.0351 0.121956,0.0207 0.206706,0.0424 0.171566,0.0455 0.258382,0.13746 0.08682,0.092 0.08682,0.25735 z m 1.210264,0.43925 h -0.19327 v -0.12299 q -0.02584,0.0176 -0.07028,0.0496 -0.04341,0.031 -0.08475,0.0496 -0.04858,0.0238 -0.111621,0.0393 -0.06305,0.0165 -0.147795,0.0165 -0.156063,0 -0.264584,-0.10335 -0.10852,-0.10335 -0.10852,-0.26355 0,-0.13126 0.05581,-0.21188 0.05684,-0.0816 0.161231,-0.12815 0.10542,-0.0465 0.253215,-0.0631 0.147795,-0.0165 0.317294,-0.0248 v -0.03 q 0,-0.0661 -0.02377,-0.10955 -0.02274,-0.0434 -0.06615,-0.0682 -0.04134,-0.0238 -0.09922,-0.032 -0.05788,-0.008 -0.120924,-0.008 -0.07648,0 -0.170532,0.0207 -0.09405,0.0196 -0.194304,0.0579 h -0.01033 v -0.19741 q 0.05684,-0.0155 0.164331,-0.0341 0.107487,-0.0186 0.211874,-0.0186 0.121957,0 0.211874,0.0207 0.09095,0.0196 0.157096,0.0682 0.06511,0.0475 0.09922,0.12299 0.03411,0.0754 0.03411,0.18707 z m -0.19327,-0.28422 v -0.32143 q -0.08888,0.005 -0.209807,0.0155 -0.11989,0.0103 -0.19017,0.03 -0.08372,0.0238 -0.135392,0.0744 -0.05168,0.0496 -0.05168,0.13746 0,0.0992 0.05995,0.14986 0.05994,0.0496 0.182935,0.0496 0.102319,0 0.187069,-0.0393 0.08475,-0.0403 0.157097,-0.0961 z m 2.252062,0.28422 H 54.57993 V 251.788 q 0,-0.0744 -0.0072,-0.14366 -0.0062,-0.0693 -0.02791,-0.11059 -0.02377,-0.0444 -0.06821,-0.0672 -0.04444,-0.0227 -0.128158,-0.0227 -0.08165,0 -0.163297,0.0413 -0.08165,0.0403 -0.163298,0.10336 0.0031,0.0238 0.0052,0.0558 0.0021,0.031 0.0021,0.062 v 0.73897 H 53.834755 V 251.788 q 0,-0.0765 -0.0072,-0.1447 -0.0062,-0.0692 -0.0279,-0.11059 -0.02377,-0.0444 -0.06821,-0.0661 -0.04444,-0.0227 -0.128158,-0.0227 -0.07958,0 -0.160197,0.0393 -0.07958,0.0393 -0.159164,0.10026 v 0.86196 H 53.08958 v -1.15445 h 0.194303 v 0.12816 q 0.09095,-0.0754 0.180868,-0.11783 0.09095,-0.0424 0.19327,-0.0424 0.117823,0 0.199472,0.0496 0.08268,0.0496 0.12299,0.13746 0.117822,-0.0992 0.214974,-0.14263 0.09715,-0.0444 0.20774,-0.0444 0.190169,0 0.280086,0.11575 0.09095,0.11473 0.09095,0.32143 z m 1.390098,-0.59118 q 0,0.14056 -0.04031,0.25735 -0.04031,0.11576 -0.113688,0.19637 -0.06821,0.0765 -0.161231,0.11886 -0.09198,0.0413 -0.195337,0.0413 -0.08992,0 -0.163298,-0.0196 -0.07235,-0.0196 -0.147795,-0.061 v 0.4837 H 55.14837 v -1.58027 h 0.194303 v 0.12092 q 0.07751,-0.0651 0.173633,-0.10852 0.09715,-0.0444 0.206707,-0.0444 0.208773,0 0.324528,0.15813 0.116789,0.1571 0.116789,0.43718 z m -0.200505,0.005 q 0,-0.20877 -0.07131,-0.31213 -0.07131,-0.10335 -0.219108,-0.10335 -0.08372,0 -0.168465,0.0362 -0.08475,0.0362 -0.162265,0.0951 v 0.65422 q 0.08268,0.0372 0.141594,0.0506 0.05994,0.0134 0.135392,0.0134 0.162265,0 0.253215,-0.10955 0.09095,-0.10956 0.09095,-0.32453 z m 0.6997,0.58601 h -0.194304 v -1.60817 h 0.194304 z m 1.350824,-0.55707 h -0.850595 q 0,0.10645 0.03204,0.18603 0.03204,0.0786 0.08785,0.1292 0.05374,0.0496 0.127124,0.0744 0.07441,0.0248 0.163298,0.0248 0.117823,0 0.236679,-0.0465 0.119889,-0.0476 0.170532,-0.093 h 0.01033 v 0.21187 q -0.09819,0.0413 -0.200504,0.0692 -0.10232,0.0279 -0.214975,0.0279 -0.287321,0 -0.448552,-0.15503 -0.161231,-0.15606 -0.161231,-0.44235 0,-0.28318 0.153996,-0.44958 0.15503,-0.1664 0.407211,-0.1664 0.233578,0 0.359669,0.13642 0.127124,0.13643 0.127124,0.38758 z m -0.189136,-0.14883 q -10e-4,-0.15296 -0.07751,-0.23668 -0.07545,-0.0837 -0.230477,-0.0837 -0.156063,0 -0.249081,0.092 -0.09198,0.092 -0.104386,0.22841 z m 1.308449,0.3731 q 0,0.15814 -0.131258,0.25942 -0.130225,0.10129 -0.356568,0.10129 -0.128158,0 -0.235645,-0.03 -0.106454,-0.031 -0.178801,-0.0672 V 252.158 h 0.01034 q 0.09198,0.0693 0.204639,0.11059 0.112654,0.0403 0.216007,0.0403 0.128158,0 0.200505,-0.0413 0.07235,-0.0413 0.07235,-0.13022 0,-0.0682 -0.03927,-0.10335 -0.03927,-0.0351 -0.150895,-0.06 -0.04134,-0.009 -0.108521,-0.0217 -0.06615,-0.0124 -0.120923,-0.0269 -0.151929,-0.0403 -0.216008,-0.11783 -0.06305,-0.0785 -0.06305,-0.19223 0,-0.0713 0.02894,-0.13436 0.02997,-0.0631 0.08992,-0.11266 0.05788,-0.0486 0.146761,-0.0765 0.08992,-0.0289 0.200505,-0.0289 0.103353,0 0.208773,0.0258 0.106454,0.0248 0.176734,0.061 v 0.20774 h -0.01033 q -0.07442,-0.0548 -0.180868,-0.092 -0.106454,-0.0382 -0.208773,-0.0382 -0.106454,0 -0.179835,0.0413 -0.07338,0.0403 -0.07338,0.12092 0,0.0713 0.04444,0.10749 0.04341,0.0362 0.14056,0.0589 0.05374,0.0124 0.119889,0.0248 0.06718,0.0124 0.111621,0.0227 0.135393,0.031 0.208774,0.10645 0.07338,0.0765 0.07338,0.20257 z"
         id="path5" />
    </g>
    <g
       id="text6"
       style="font-size:2.11667px;font-family:Sans;-inkscape-font-specification:Sans;text-align:center;text-anchor:middle;fill:#ffffff;stroke-width:0.265112"
       aria-label="Load and &#10;Slice"
       transform="translate(-12.248438,-3.7683517)">
      <path
         d="m 72.066938,249.46925 h -0.973585 v -1.53892 h 0.204639 v 1.35702 h 0.768946 z m 1.173057,-0.57671 q 0,0.28216 -0.144694,0.44546 -0.144694,0.16329 -0.387574,0.16329 -0.244947,0 -0.389641,-0.16329 -0.143661,-0.1633 -0.143661,-0.44546 0,-0.28215 0.143661,-0.44545 0.144694,-0.16433 0.389641,-0.16433 0.24288,0 0.387574,0.16433 0.144694,0.1633 0.144694,0.44545 z m -0.200505,0 q 0,-0.22427 -0.08785,-0.33279 -0.08785,-0.10956 -0.243913,-0.10956 -0.15813,0 -0.24598,0.10956 -0.08682,0.10852 -0.08682,0.33279 0,0.21705 0.08785,0.3297 0.08785,0.11162 0.244947,0.11162 0.155029,0 0.24288,-0.11059 0.08888,-0.11162 0.08888,-0.33073 z m 1.398367,0.57671 h -0.193271 v -0.12299 q -0.02584,0.0176 -0.07028,0.0496 -0.04341,0.031 -0.08475,0.0496 -0.04858,0.0238 -0.111621,0.0393 -0.06305,0.0165 -0.147795,0.0165 -0.156063,0 -0.264584,-0.10335 -0.108521,-0.10335 -0.108521,-0.26355 0,-0.13126 0.05581,-0.21187 0.05684,-0.0816 0.161231,-0.12816 0.10542,-0.0465 0.253215,-0.0631 0.147794,-0.0165 0.317293,-0.0248 v -0.03 q 0,-0.0661 -0.02377,-0.10956 -0.02274,-0.0434 -0.06615,-0.0682 -0.04134,-0.0238 -0.09922,-0.032 -0.05788,-0.008 -0.120923,-0.008 -0.07648,0 -0.170532,0.0207 -0.09405,0.0196 -0.194304,0.0579 h -0.01034 v -0.1974 q 0.05684,-0.0155 0.164331,-0.0341 0.107487,-0.0186 0.211874,-0.0186 0.121956,0 0.211874,0.0207 0.09095,0.0196 0.157096,0.0682 0.06511,0.0475 0.09922,0.12299 0.03411,0.0754 0.03411,0.18707 z m -0.193271,-0.28422 v -0.32143 q -0.08888,0.005 -0.209806,0.0155 -0.11989,0.0103 -0.19017,0.03 -0.08372,0.0238 -0.135392,0.0744 -0.05168,0.0496 -0.05168,0.13746 0,0.0992 0.05994,0.14987 0.05995,0.0496 0.182935,0.0496 0.102319,0 0.187069,-0.0393 0.08475,-0.0403 0.157096,-0.0961 z m 1.503787,0.28422 h -0.194304 v -0.12092 q -0.08372,0.0724 -0.174666,0.11266 -0.09095,0.0403 -0.197405,0.0403 -0.206706,0 -0.328662,-0.15916 -0.120923,-0.15916 -0.120923,-0.44132 0,-0.14676 0.04134,-0.26148 0.04238,-0.11472 0.113688,-0.19534 0.07028,-0.0786 0.163298,-0.11989 0.09405,-0.0413 0.194304,-0.0413 0.09095,0 0.16123,0.0196 0.07028,0.0186 0.147795,0.0589 v -0.50023 h 0.194304 z m -0.194304,-0.28422 v -0.66249 q -0.07855,-0.0351 -0.14056,-0.0486 -0.06201,-0.0134 -0.135392,-0.0134 -0.163298,0 -0.254249,0.11369 -0.09095,0.11368 -0.09095,0.32246 0,0.20567 0.07028,0.31316 0.07028,0.10645 0.225309,0.10645 0.08268,0 0.167432,-0.0362 0.08475,-0.0372 0.15813,-0.0951 z m 2.217956,0.28422 h -0.19327 v -0.12299 q -0.02584,0.0176 -0.07028,0.0496 -0.04341,0.031 -0.08475,0.0496 -0.04858,0.0238 -0.111621,0.0393 -0.06305,0.0165 -0.147795,0.0165 -0.156063,0 -0.264584,-0.10335 -0.10852,-0.10335 -0.10852,-0.26355 0,-0.13126 0.05581,-0.21187 0.05684,-0.0816 0.161231,-0.12816 0.10542,-0.0465 0.253215,-0.0631 0.147795,-0.0165 0.317294,-0.0248 v -0.03 q 0,-0.0661 -0.02377,-0.10956 -0.02274,-0.0434 -0.06615,-0.0682 -0.04134,-0.0238 -0.09922,-0.032 -0.05788,-0.008 -0.120923,-0.008 -0.07648,0 -0.170533,0.0207 -0.09405,0.0196 -0.194303,0.0579 h -0.01034 v -0.1974 q 0.05684,-0.0155 0.164332,-0.0341 0.107487,-0.0186 0.211873,-0.0186 0.121957,0 0.211874,0.0207 0.09095,0.0196 0.157097,0.0682 0.06511,0.0475 0.09922,0.12299 0.03411,0.0754 0.03411,0.18707 z m -0.19327,-0.28422 v -0.32143 q -0.08888,0.005 -0.209807,0.0155 -0.119889,0.0103 -0.190169,0.03 -0.08372,0.0238 -0.135393,0.0744 -0.05168,0.0496 -0.05168,0.13746 0,0.0992 0.05994,0.14987 0.05994,0.0496 0.182935,0.0496 0.10232,0 0.187069,-0.0393 0.08475,-0.0403 0.157097,-0.0961 z m 1.532725,0.28422 h -0.194304 v -0.65732 q 0,-0.0796 -0.0093,-0.14883 -0.0093,-0.0703 -0.03411,-0.10955 -0.02584,-0.0434 -0.07441,-0.0641 -0.04858,-0.0217 -0.126091,-0.0217 -0.07958,0 -0.166398,0.0393 -0.08682,0.0393 -0.166398,0.10025 v 0.86196 h -0.194304 v -1.15445 h 0.194304 v 0.12816 q 0.09095,-0.0754 0.188102,-0.11782 0.09715,-0.0424 0.199471,-0.0424 0.187069,0 0.285255,0.11266 0.09819,0.11265 0.09819,0.32452 z m 1.310516,0 h -0.194303 v -0.12092 q -0.08372,0.0724 -0.174667,0.11266 -0.09095,0.0403 -0.197404,0.0403 -0.206706,0 -0.328663,-0.15916 -0.120923,-0.15916 -0.120923,-0.44132 0,-0.14676 0.04134,-0.26148 0.04237,-0.11472 0.113689,-0.19534 0.07028,-0.0786 0.163298,-0.11989 0.09405,-0.0413 0.194303,-0.0413 0.09095,0 0.161231,0.0196 0.07028,0.0186 0.147795,0.0589 v -0.50023 h 0.194303 z m -0.194303,-0.28422 v -0.66249 q -0.07855,-0.0351 -0.14056,-0.0486 -0.06201,-0.0134 -0.135393,-0.0134 -0.163298,0 -0.254248,0.11369 -0.09095,0.11368 -0.09095,0.32246 0,0.20567 0.07028,0.31316 0.07028,0.10645 0.22531,0.10645 0.08268,0 0.167432,-0.0362 0.08475,-0.0372 0.15813,-0.0951 z"
         id="path6" />
      <path
         d="m 74.960823,251.67584 q 0,0.0899 -0.04238,0.17777 -0.04134,0.0879 -0.116789,0.14883 -0.08268,0.0661 -0.19327,0.10335 -0.109554,0.0372 -0.264584,0.0372 -0.166398,0 -0.299723,-0.031 -0.132292,-0.031 -0.269752,-0.092 v -0.25632 h 0.01447 q 0.116788,0.0971 0.269751,0.14986 0.152962,0.0527 0.287321,0.0527 0.19017,0 0.29559,-0.0713 0.106454,-0.0713 0.106454,-0.19017 0,-0.10232 -0.05064,-0.1509 -0.04961,-0.0486 -0.151929,-0.0754 -0.07752,-0.0207 -0.168466,-0.0341 -0.08992,-0.0134 -0.191203,-0.0341 -0.204639,-0.0434 -0.303858,-0.14779 -0.09819,-0.10542 -0.09819,-0.27389 0,-0.19327 0.163298,-0.31626 0.163297,-0.12402 0.414445,-0.12402 0.162265,0 0.297657,0.031 0.135392,0.031 0.239779,0.0765 v 0.24184 h -0.01447 q -0.08785,-0.0744 -0.231511,-0.12299 -0.142627,-0.0496 -0.292489,-0.0496 -0.164332,0 -0.264584,0.0682 -0.09922,0.0682 -0.09922,0.1757 0,0.0961 0.04961,0.15089 0.04961,0.0548 0.174666,0.0837 0.06615,0.0145 0.188103,0.0351 0.121956,0.0207 0.206706,0.0424 0.171566,0.0455 0.258382,0.13746 0.08682,0.092 0.08682,0.25735 z m 0.50953,0.43925 H 75.27605 v -1.60817 h 0.194303 z m 0.593247,-1.34772 h -0.219109 v -0.20154 H 76.0636 Z m -0.0124,1.34772 h -0.194304 v -1.15445 H 76.0512 Z m 1.238169,-0.0724 q -0.09715,0.0465 -0.185002,0.0724 -0.08682,0.0258 -0.185002,0.0258 -0.125057,0 -0.229443,-0.0362 -0.104387,-0.0372 -0.178801,-0.11163 -0.07545,-0.0744 -0.116789,-0.1881 -0.04134,-0.11369 -0.04134,-0.26562 0,-0.28318 0.155029,-0.44441 0.156064,-0.16123 0.411345,-0.16123 0.09922,0 0.194304,0.0279 0.09612,0.0279 0.1757,0.0682 v 0.21601 h -0.01033 q -0.08888,-0.0692 -0.183968,-0.10645 -0.09405,-0.0372 -0.183969,-0.0372 -0.165365,0 -0.261483,0.11162 -0.09508,0.11059 -0.09508,0.32556 0,0.20878 0.09302,0.32143 0.09405,0.11162 0.26355,0.11162 0.05891,0 0.11989,-0.0155 0.06098,-0.0155 0.109554,-0.0403 0.04237,-0.0217 0.07958,-0.0455 0.03721,-0.0248 0.05891,-0.0424 h 0.01033 z m 1.215432,-0.48472 h -0.850595 q 0,0.10645 0.03204,0.18603 0.03204,0.0786 0.08785,0.12919 0.05374,0.0496 0.127124,0.0744 0.07442,0.0248 0.163298,0.0248 0.117823,0 0.236679,-0.0465 0.119889,-0.0475 0.170532,-0.093 h 0.01033 v 0.21187 q -0.09819,0.0413 -0.200504,0.0692 -0.10232,0.0279 -0.214975,0.0279 -0.287321,0 -0.448552,-0.15503 -0.161231,-0.15606 -0.161231,-0.44235 0,-0.28319 0.153996,-0.44958 0.15503,-0.1664 0.407211,-0.1664 0.233578,0 0.359669,0.13642 0.127124,0.13643 0.127124,0.38758 z m -0.189136,-0.14883 q -10e-4,-0.15296 -0.07752,-0.23668 -0.07545,-0.0837 -0.230477,-0.0837 -0.156063,0 -0.249081,0.092 -0.09198,0.092 -0.104386,0.22841 z"
         id="path7" />
    </g>
    <path
       d="m 33.808341,182.72821 h -0.354155 l -0.686263,-0.8158 h -0.384472 v 0.8158 h -0.272852 v -2.0519 h 0.574642 q 0.186035,0 0.310058,0.0248 0.124024,0.0234 0.223242,0.0854 0.111621,0.0703 0.173633,0.17776 0.06339,0.10611 0.06339,0.2701 0,0.22186 -0.111621,0.37207 -0.111621,0.14883 -0.307303,0.22462 z m -0.638031,-1.4745 q 0,-0.0882 -0.03169,-0.15572 -0.03032,-0.0689 -0.101975,-0.11575 -0.05926,-0.04 -0.140559,-0.0551 -0.08131,-0.0165 -0.191548,-0.0165 h -0.321082 v 0.77446 h 0.275607 q 0.129536,0 0.225998,-0.022 0.09646,-0.0234 0.163987,-0.0854 0.06201,-0.0579 0.09095,-0.13229 0.03032,-0.0758 0.03032,-0.19155 z m 2.130445,1.4745 h -0.259071 v -0.17088 q -0.130913,0.10336 -0.250802,0.15848 -0.11989,0.0551 -0.264583,0.0551 -0.242535,0 -0.377583,-0.14745 -0.135047,-0.14883 -0.135047,-0.43546 v -0.99908 h 0.259071 v 0.87643 q 0,0.11714 0.01102,0.2012 0.01102,0.0827 0.04685,0.14194 0.03721,0.0606 0.09646,0.0882 0.05926,0.0276 0.172255,0.0276 0.100596,0 0.219107,-0.0524 0.11989,-0.0524 0.223242,-0.13367 v -1.14929 h 0.259071 z m 1.796961,0 h -0.259071 v -0.87643 q 0,-0.10611 -0.0124,-0.19844 -0.0124,-0.0937 -0.04548,-0.14607 -0.03445,-0.0579 -0.09922,-0.0854 -0.06477,-0.0289 -0.168121,-0.0289 -0.106109,0 -0.221864,0.0524 -0.115755,0.0524 -0.221864,0.13367 v 1.14928 h -0.259071 v -1.53927 H 36.0697 v 0.17088 q 0.121267,-0.1006 0.250803,-0.1571 0.129535,-0.0565 0.265961,-0.0565 0.249425,0 0.380338,0.15021 0.130914,0.15021 0.130914,0.4327 z"
       id="text7"
       style="font-size:2.82222px;font-family:Sans;-inkscape-font-specification:Sans;text-align:center;text-anchor:middle;fill:#ffffff;stroke-width:0.265112"
       aria-label="Run" />
    <path
       d="M 32.549497,195.45023 H 32.19534 l -0.686265,-0.81581 h -0.384474 v 0.81581 h -0.272852 v -2.05191 h 0.574644 q 0.186035,0 0.310059,0.0248 0.124024,0.0234 0.223243,0.0854 0.111621,0.0703 0.173633,0.17777 0.06339,0.10611 0.06339,0.2701 0,0.22186 -0.111621,0.37207 -0.111622,0.14883 -0.307304,0.22462 z m -0.638034,-1.47451 q 0,-0.0882 -0.03169,-0.15572 -0.03032,-0.0689 -0.101975,-0.11575 -0.05926,-0.04 -0.14056,-0.0551 -0.0813,-0.0165 -0.191548,-0.0165 h -0.321084 v 0.77446 h 0.275609 q 0.129536,0 0.225999,-0.0221 0.09646,-0.0234 0.163987,-0.0854 0.06201,-0.0579 0.09095,-0.13229 0.03032,-0.0758 0.03032,-0.19155 z m 2.101515,0.73174 h -1.134129 q 0,0.14194 0.04272,0.24805 0.04272,0.10473 0.117134,0.17225 0.07166,0.0661 0.169499,0.0992 0.09922,0.0331 0.217731,0.0331 0.157096,0 0.315571,-0.062 0.159853,-0.0634 0.227377,-0.12402 h 0.01378 v 0.2825 q -0.130914,0.0551 -0.267341,0.0923 -0.136426,0.0372 -0.286632,0.0372 -0.383096,0 -0.598071,-0.2067 -0.214974,-0.20809 -0.214974,-0.5898 0,-0.37759 0.205328,-0.59945 0.206706,-0.22187 0.542949,-0.22187 0.311437,0 0.479558,0.18191 0.1695,0.1819 0.1695,0.51676 z m -0.252182,-0.19844 q -0.0014,-0.20395 -0.103353,-0.31557 -0.100597,-0.11162 -0.307304,-0.11162 -0.208084,0 -0.332108,0.12265 -0.122646,0.12264 -0.139182,0.30454 z m 1.744601,0.49748 q 0,0.21084 -0.175011,0.34588 -0.173634,0.13505 -0.475425,0.13505 -0.170877,0 -0.314193,-0.04 -0.141939,-0.0413 -0.238402,-0.0896 v -0.29077 h 0.01378 q 0.122645,0.0923 0.272852,0.14745 0.150207,0.0537 0.288011,0.0537 0.170877,0 0.26734,-0.0551 0.09646,-0.0551 0.09646,-0.17363 0,-0.0909 -0.05237,-0.1378 -0.05237,-0.0469 -0.201194,-0.0799 -0.05512,-0.0124 -0.144694,-0.0289 -0.08819,-0.0165 -0.161231,-0.0358 -0.202572,-0.0537 -0.288011,-0.1571 -0.08406,-0.10473 -0.08406,-0.25631 0,-0.0951 0.03859,-0.17915 0.03996,-0.0841 0.119889,-0.1502 0.07717,-0.0648 0.195682,-0.10198 0.11989,-0.0386 0.26734,-0.0386 0.137805,0 0.278365,0.0344 0.141938,0.0331 0.235645,0.0813 v 0.27699 h -0.01378 q -0.09922,-0.073 -0.241158,-0.12265 -0.141938,-0.051 -0.278364,-0.051 -0.141938,0 -0.239779,0.0551 -0.09784,0.0537 -0.09784,0.16123 0,0.0951 0.05926,0.14331 0.05788,0.0482 0.187414,0.0786 0.07166,0.0165 0.159853,0.0331 0.08957,0.0165 0.148829,0.0303 0.180523,0.0413 0.278364,0.14194 0.09784,0.10198 0.09784,0.2701 z m 1.659163,-0.29904 h -1.134129 q 0,0.14194 0.04272,0.24805 0.04272,0.10473 0.117134,0.17225 0.07166,0.0661 0.169499,0.0992 0.09922,0.0331 0.217731,0.0331 0.157097,0 0.315571,-0.062 0.159853,-0.0634 0.227377,-0.12402 h 0.01378 v 0.2825 q -0.130914,0.0551 -0.26734,0.0923 -0.136426,0.0372 -0.286633,0.0372 -0.383096,0 -0.59807,-0.2067 -0.214975,-0.20809 -0.214975,-0.5898 0,-0.37759 0.205328,-0.59945 0.206707,-0.22187 0.542949,-0.22187 0.311437,0 0.479559,0.18191 0.169499,0.1819 0.169499,0.51676 z m -0.252182,-0.19844 q -0.0014,-0.20395 -0.103353,-0.31557 -0.100597,-0.11162 -0.307303,-0.11162 -0.208085,0 -0.332109,0.12265 -0.122645,0.12264 -0.139182,0.30454 z m 1.444188,0.92743 q -0.07304,0.0193 -0.159853,0.0317 -0.08544,0.0124 -0.152963,0.0124 -0.235645,0 -0.358291,-0.12678 -0.122645,-0.12678 -0.122645,-0.40652 v -0.81856 h -0.175012 v -0.21773 h 0.175012 v -0.44235 h 0.259072 v 0.44235 h 0.53468 v 0.21773 h -0.53468 v 0.70143 q 0,0.12126 0.0055,0.19017 0.0055,0.0675 0.03858,0.12678 0.03032,0.0551 0.08268,0.0813 0.05374,0.0248 0.162609,0.0248 0.06339,0 0.132292,-0.0179 0.0689,-0.0193 0.09922,-0.0317 h 0.01378 z"
       id="text8"
       style="font-size:2.82223px;font-family:Sans;-inkscape-font-specification:Sans;text-align:center;text-anchor:middle;fill:#ffffff;stroke-width:0.265112"
       aria-label="Reset" />
    <path
       d="M 32.579126,237.66532 H 32.28836 l -0.201195,-0.57188 h -0.887459 l -0.201194,0.57188 h -0.276986 l 0.746899,-2.0519 h 0.363803 z m -0.576021,-0.80615 -0.359669,-1.00735 -0.361047,1.00735 z m 2.129075,0.80615 h -0.259072 v -0.17087 q -0.130914,0.10335 -0.250804,0.15847 -0.119889,0.0551 -0.264584,0.0551 -0.242535,0 -0.377583,-0.14745 -0.135048,-0.14883 -0.135048,-0.43546 v -0.99908 h 0.259071 v 0.87644 q 0,0.11713 0.01103,0.20119 0.01102,0.0827 0.04685,0.14194 0.03721,0.0606 0.09646,0.0882 0.05926,0.0276 0.172255,0.0276 0.100598,0 0.219109,-0.0524 0.11989,-0.0524 0.223243,-0.13367 v -1.14929 h 0.259072 z m 1.758381,0 h -0.259072 v -0.16123 q -0.111621,0.0965 -0.232889,0.15021 -0.121267,0.0537 -0.263206,0.0537 -0.275608,0 -0.438217,-0.21221 -0.161231,-0.21222 -0.161231,-0.58843 0,-0.19568 0.05512,-0.34864 0.0565,-0.15297 0.151584,-0.26045 0.09371,-0.10473 0.217731,-0.15986 0.125402,-0.0551 0.259072,-0.0551 0.121268,0 0.214974,0.0262 0.09371,0.0248 0.19706,0.0785 v -0.66697 h 0.259072 z m -0.259072,-0.37896 v -0.88332 q -0.104731,-0.0469 -0.187413,-0.0648 -0.08268,-0.0179 -0.180524,-0.0179 -0.21773,0 -0.338998,0.15158 -0.121268,0.15158 -0.121268,0.42995 0,0.27423 0.09371,0.41755 0.09371,0.14193 0.300413,0.14193 0.110244,0 0.223243,-0.0482 0.112999,-0.0496 0.21084,-0.12678 z m 1.047313,-1.418 h -0.292145 v -0.26872 h 0.292145 z m -0.01654,1.79696 H 36.40319 v -1.53927 h 0.259072 z m 1.824527,-0.76894 q 0,0.3762 -0.192925,0.59393 -0.192926,0.21773 -0.516766,0.21773 -0.326596,0 -0.519522,-0.21773 -0.191548,-0.21773 -0.191548,-0.59393 0,-0.37621 0.191548,-0.59394 0.192926,-0.21911 0.519522,-0.21911 0.32384,0 0.516766,0.21911 0.192925,0.21773 0.192925,0.59394 z m -0.26734,0 q 0,-0.29904 -0.117133,-0.44373 -0.117134,-0.14607 -0.325218,-0.14607 -0.210841,0 -0.327974,0.14607 -0.115756,0.14469 -0.115756,0.44373 0,0.28939 0.117134,0.43959 0.117133,0.14883 0.326596,0.14883 0.206706,0 0.32384,-0.14745 0.118511,-0.14883 0.118511,-0.44097 z"
       id="text10"
       style="font-size:2.82223px;font-family:Sans;-inkscape-font-specification:Sans;text-align:center;text-anchor:middle;fill:#ffffff;stroke-width:0.265112"
       aria-label="Audio" />
    <path
       d="m 32.501268,212.98667 -0.746899,2.05191 h -0.363803 l -0.746899,-2.05191 h 0.292145 l 0.643546,1.80524 0.643545,-1.80524 z m 1.220945,-0.0923 -0.988056,2.56316 h -0.238401 l 0.983922,-2.56316 z m 1.901698,0.32798 q 0.125402,0.1378 0.191548,0.33762 0.06752,0.19981 0.06752,0.45337 0,0.25356 -0.0689,0.45476 -0.06752,0.19981 -0.19017,0.33348 -0.12678,0.13919 -0.300413,0.20947 -0.172256,0.0703 -0.39412,0.0703 -0.216353,0 -0.39412,-0.0717 -0.17639,-0.0717 -0.300413,-0.20809 -0.124024,-0.13642 -0.191548,-0.33486 -0.06615,-0.19844 -0.06615,-0.45338 0,-0.2508 0.06615,-0.44924 0.06615,-0.19981 0.192926,-0.34175 0.121267,-0.13505 0.300413,-0.20671 0.180523,-0.0717 0.392742,-0.0717 0.220486,0 0.395498,0.073 0.176389,0.0717 0.299035,0.20533 z m -0.02481,0.79099 q 0,-0.39963 -0.179145,-0.61598 -0.179146,-0.21773 -0.489205,-0.21773 -0.312816,0 -0.491961,0.21773 -0.177768,0.21635 -0.177768,0.61598 0,0.40377 0.181902,0.61874 0.181901,0.2136 0.487827,0.2136 0.305925,0 0.486449,-0.2136 0.181901,-0.21497 0.181901,-0.61874 z m 1.834174,0.9288 q -0.129536,0.062 -0.246669,0.0965 -0.115756,0.0344 -0.24667,0.0344 -0.166743,0 -0.305925,-0.0482 -0.139182,-0.0496 -0.238401,-0.14883 -0.100597,-0.0992 -0.155719,-0.25081 -0.05512,-0.15158 -0.05512,-0.35415 0,-0.37759 0.206707,-0.59256 0.208084,-0.21497 0.54846,-0.21497 0.132292,0 0.259072,0.0372 0.128158,0.0372 0.234267,0.0909 v 0.28801 h -0.01378 q -0.118512,-0.0923 -0.245291,-0.14193 -0.125402,-0.0496 -0.245292,-0.0496 -0.220487,0 -0.348645,0.14882 -0.126779,0.14746 -0.126779,0.43409 0,0.27836 0.124023,0.42857 0.125402,0.14883 0.351401,0.14883 0.07855,0 0.159853,-0.0207 0.0813,-0.0207 0.146072,-0.0537 0.0565,-0.0289 0.10611,-0.0606 0.04961,-0.0331 0.07855,-0.0565 h 0.01378 z m 1.131373,0.0827 q -0.07304,0.0193 -0.159853,0.0317 -0.08544,0.0124 -0.152963,0.0124 -0.235645,0 -0.358291,-0.12678 -0.122645,-0.12678 -0.122645,-0.40652 v -0.81855 h -0.175012 v -0.21774 h 0.175012 V 213.057 h 0.259072 v 0.44235 h 0.53468 v 0.21774 h -0.53468 v 0.70142 q 0,0.12127 0.0055,0.19017 0.0055,0.0675 0.03859,0.12678 0.03032,0.0551 0.08268,0.0813 0.05374,0.0248 0.162609,0.0248 0.06339,0 0.132292,-0.0179 0.0689,-0.0193 0.09922,-0.0317 h 0.01378 z"
       id="text11"
       style="font-size:2.82223px;font-family:Sans;-inkscape-font-specification:Sans;text-align:center;text-anchor:middle;fill:#ffffff;stroke-width:0.265112"
       aria-label="V/Oct" />
    <path
       d="m 31.312704,226.42504 q -0.168122,0.0772 -0.367938,0.13505 -0.198438,0.0565 -0.384473,0.0565 -0.23978,0 -0.439596,-0.0661 -0.199816,-0.0662 -0.340376,-0.19844 -0.141939,-0.13367 -0.219109,-0.33348 -0.07717,-0.2012 -0.07717,-0.46992 0,-0.49196 0.286633,-0.77583 0.28801,-0.28526 0.789618,-0.28526 0.175012,0 0.356913,0.0427 0.18328,0.0413 0.39412,0.14194 v 0.32384 h -0.02481 q -0.04272,-0.0331 -0.124023,-0.0868 -0.08131,-0.0537 -0.159853,-0.0896 -0.09508,-0.0427 -0.216352,-0.0703 -0.11989,-0.0289 -0.272853,-0.0289 -0.34451,0 -0.545704,0.22186 -0.199817,0.22049 -0.199817,0.59807 0,0.39826 0.209463,0.62012 0.209461,0.22049 0.570509,0.22049 0.132292,0 0.263206,-0.0262 0.132292,-0.0262 0.231511,-0.0675 v -0.50298 h -0.549838 v -0.23978 H 31.3127 Z m 1.652272,0.15158 h -0.257694 v -0.16398 q -0.03445,0.0234 -0.09371,0.0661 -0.05788,0.0413 -0.112999,0.0661 -0.06477,0.0317 -0.148829,0.0524 -0.08406,0.0221 -0.19706,0.0221 -0.208084,0 -0.352779,-0.1378 -0.144694,-0.13781 -0.144694,-0.3514 0,-0.17501 0.07441,-0.2825 0.07579,-0.10887 0.214975,-0.17088 0.14056,-0.062 0.33762,-0.0841 0.19706,-0.0221 0.42306,-0.0331 v -0.04 q 0,-0.0882 -0.03169,-0.14607 -0.03032,-0.0579 -0.0882,-0.091 -0.05512,-0.0317 -0.132292,-0.0427 -0.07717,-0.011 -0.161231,-0.011 -0.101976,0 -0.227377,0.0276 -0.125401,0.0262 -0.259071,0.0772 h -0.01378 v -0.26321 q 0.07579,-0.0207 0.219109,-0.0455 0.143316,-0.0248 0.282498,-0.0248 0.162609,0 0.282499,0.0276 0.121268,0.0262 0.209462,0.091 0.08682,0.0634 0.132292,0.16399 0.04548,0.1006 0.04548,0.24943 z m -0.257694,-0.37896 v -0.42857 q -0.118512,0.007 -0.279743,0.0207 -0.159852,0.0138 -0.253559,0.04 -0.111622,0.0317 -0.180524,0.0992 -0.0689,0.0662 -0.0689,0.18328 0,0.13229 0.07993,0.19982 0.07993,0.0661 0.243913,0.0661 0.136426,0 0.249426,-0.0524 0.112999,-0.0537 0.209462,-0.12816 z m 1.555809,0.36518 q -0.07304,0.0193 -0.159853,0.0317 -0.08544,0.0124 -0.152962,0.0124 -0.235645,0 -0.358291,-0.12678 -0.122646,-0.12678 -0.122646,-0.40652 v -0.81856 h -0.175011 v -0.21773 h 0.175011 V 224.595 h 0.259072 v 0.44235 h 0.53468 v 0.21773 h -0.53468 v 0.70142 q 0,0.12127 0.0055,0.19017 0.0055,0.0675 0.03858,0.12678 0.03032,0.0551 0.08268,0.0813 0.05374,0.0248 0.162609,0.0248 0.06339,0 0.132292,-0.0179 0.0689,-0.0193 0.09922,-0.0317 h 0.01378 z m 1.601285,-0.72898 h -1.134128 q 0,0.14194 0.04272,0.24805 0.04272,0.10473 0.117134,0.17225 0.07166,0.0662 0.169499,0.0992 0.09922,0.0331 0.217731,0.0331 0.157097,0 0.315572,-0.062 0.159853,-0.0634 0.227377,-0.12402 h 0.01378 v 0.2825 q -0.130913,0.0551 -0.267339,0.0923 -0.136426,0.0372 -0.286632,0.0372 -0.383096,0 -0.598071,-0.2067 -0.214974,-0.20809 -0.214974,-0.58981 0,-0.37758 0.205328,-0.59945 0.206706,-0.22186 0.542949,-0.22186 0.311437,0 0.479558,0.1819 0.169499,0.1819 0.169499,0.51677 z m -0.252181,-0.19844 q -0.0014,-0.20395 -0.103353,-0.31557 -0.100598,-0.11162 -0.307304,-0.11162 -0.208084,0 -0.332108,0.12264 -0.122646,0.12265 -0.139182,0.30455 z m 2.381256,0.9412 h -0.810289 v -0.20946 h 0.268719 v -1.63298 h -0.268719 v -0.20946 h 0.810289 v 0.20946 h -0.268718 v 1.63298 h 0.268718 z m 1.730821,0 H 39.4652 v -0.87643 q 0,-0.10611 -0.0124,-0.19844 -0.0124,-0.0937 -0.04548,-0.14607 -0.03445,-0.0579 -0.09922,-0.0854 -0.06477,-0.0289 -0.168121,-0.0289 -0.106109,0 -0.221865,0.0524 -0.115755,0.0524 -0.221864,0.13367 v 1.14928 h -0.259072 v -1.53927 h 0.259072 v 0.17088 q 0.121267,-0.1006 0.250803,-0.1571 0.129536,-0.0565 0.265962,-0.0565 0.249426,0 0.38034,0.15021 0.130914,0.1502 0.130914,0.4327 z"
       id="text12"
       style="font-size:2.82223px;font-family:Sans;-inkscape-font-specification:Sans;text-align:center;text-anchor:middle;fill:#ffffff;stroke-width:0.265112"
       aria-label="Gate In" />
    <g
       id="text13"
       style="font-size:2.11667px;font-family:Sans;-inkscape-font-specification:Sans;text-align:center;text-anchor:middle;fill:#ffffff;stroke-width:0.265112"
       aria-label="Reverse&#10;Random"
       transform="translate(0.52916665,-2.8773467)">
      <path
         d="m 82.106843,248.54155 h -0.265617 l -0.514698,-0.61185 h -0.288355 v 0.61185 h -0.204639 v -1.53893 h 0.430982 q 0.139526,0 0.232544,0.0186 0.09302,0.0176 0.167432,0.0641 0.08372,0.0527 0.130225,0.13332 0.04754,0.0796 0.04754,0.20257 0,0.1664 -0.08372,0.27906 -0.08372,0.11162 -0.230477,0.16846 z m -0.478525,-1.10588 q 0,-0.0661 -0.02377,-0.11679 -0.02274,-0.0517 -0.07648,-0.0868 -0.04444,-0.03 -0.10542,-0.0413 -0.06098,-0.0124 -0.143661,-0.0124 h -0.240812 v 0.58085 h 0.206706 q 0.09715,0 0.169499,-0.0165 0.07235,-0.0176 0.12299,-0.0641 0.04651,-0.0434 0.06821,-0.0992 0.02274,-0.0568 0.02274,-0.14366 z m 1.576134,0.54881 h -0.850595 q 0,0.10645 0.03204,0.18603 0.03204,0.0785 0.08785,0.12919 0.05374,0.0496 0.127124,0.0744 0.07442,0.0248 0.163298,0.0248 0.117823,0 0.236679,-0.0465 0.119889,-0.0475 0.170532,-0.093 h 0.01033 v 0.21187 q -0.09819,0.0413 -0.200504,0.0692 -0.10232,0.0279 -0.214975,0.0279 -0.287321,0 -0.448552,-0.15503 -0.161231,-0.15606 -0.161231,-0.44235 0,-0.28319 0.153996,-0.44958 0.15503,-0.1664 0.407211,-0.1664 0.233578,0 0.359669,0.13642 0.127124,0.13643 0.127124,0.38758 z m -0.189136,-0.14883 q -0.001,-0.15296 -0.07752,-0.23668 -0.07545,-0.0837 -0.230477,-0.0837 -0.156063,0 -0.249081,0.092 -0.09198,0.092 -0.104386,0.22841 z m 1.482082,-0.44855 -0.467155,1.15445 H 83.834905 L 83.37085,247.3871 h 0.210841 l 0.357601,0.9188 0.354501,-0.9188 z m 1.201996,0.59738 h -0.850595 q 0,0.10645 0.03204,0.18603 0.03204,0.0785 0.08785,0.12919 0.05374,0.0496 0.127124,0.0744 0.07441,0.0248 0.163298,0.0248 0.117822,0 0.236678,-0.0465 0.11989,-0.0475 0.170533,-0.093 h 0.01033 v 0.21187 q -0.09819,0.0413 -0.200505,0.0692 -0.102319,0.0279 -0.214974,0.0279 -0.287321,0 -0.448552,-0.15503 -0.161231,-0.15606 -0.161231,-0.44235 0,-0.28319 0.153996,-0.44958 0.15503,-0.1664 0.407211,-0.1664 0.233578,0 0.359669,0.13642 0.127124,0.13643 0.127124,0.38758 z m -0.189136,-0.14883 q -10e-4,-0.15296 -0.07751,-0.23668 -0.07545,-0.0837 -0.230477,-0.0837 -0.156063,0 -0.249081,0.092 -0.09198,0.092 -0.104386,0.22841 z m 1.204063,-0.23668 h -0.01033 q -0.04341,-0.0103 -0.08475,-0.0145 -0.04031,-0.005 -0.09612,-0.005 -0.08992,0 -0.173633,0.0403 -0.08372,0.0393 -0.161231,0.10232 v 0.81959 H 85.99395 v -1.15445 h 0.194304 v 0.17053 q 0.115755,-0.093 0.203605,-0.13126 0.08888,-0.0393 0.180868,-0.0393 0.05064,0 0.07338,0.003 0.02274,0.002 0.06821,0.009 z m 1.007691,0.60978 q 0,0.15813 -0.131258,0.25942 -0.130225,0.10128 -0.356568,0.10128 -0.128158,0 -0.235645,-0.03 -0.106453,-0.031 -0.1788,-0.0672 v -0.21807 h 0.01034 q 0.09198,0.0692 0.204639,0.11059 0.112655,0.0403 0.216008,0.0403 0.128157,0 0.200505,-0.0413 0.07235,-0.0413 0.07235,-0.13022 0,-0.0682 -0.03927,-0.10336 -0.03928,-0.0351 -0.150896,-0.0599 -0.04134,-0.009 -0.108521,-0.0217 -0.06615,-0.0124 -0.120923,-0.0269 -0.151929,-0.0403 -0.216007,-0.11782 -0.06305,-0.0786 -0.06305,-0.19224 0,-0.0713 0.02894,-0.13435 0.02997,-0.0631 0.08992,-0.11266 0.05788,-0.0486 0.146762,-0.0765 0.08992,-0.0289 0.200504,-0.0289 0.103353,0 0.208773,0.0258 0.106454,0.0248 0.176734,0.061 v 0.20774 h -0.01033 q -0.07441,-0.0548 -0.180868,-0.092 -0.106454,-0.0382 -0.208773,-0.0382 -0.106454,0 -0.179834,0.0413 -0.07338,0.0403 -0.07338,0.12093 0,0.0713 0.04444,0.10748 0.04341,0.0362 0.14056,0.0589 0.05374,0.0124 0.119889,0.0248 0.06718,0.0124 0.111622,0.0227 0.135392,0.031 0.208773,0.10645 0.07338,0.0765 0.07338,0.20257 z m 1.244371,-0.22427 h -0.850595 q 0,0.10645 0.03204,0.18603 0.03204,0.0785 0.08785,0.12919 0.05374,0.0496 0.127124,0.0744 0.07442,0.0248 0.163298,0.0248 0.117823,0 0.236679,-0.0465 0.119889,-0.0475 0.170532,-0.093 h 0.01033 v 0.21187 q -0.09819,0.0413 -0.200504,0.0692 -0.10232,0.0279 -0.214975,0.0279 -0.287321,0 -0.448552,-0.15503 -0.161231,-0.15606 -0.161231,-0.44235 0,-0.28319 0.153996,-0.44958 0.15503,-0.1664 0.407211,-0.1664 0.233578,0 0.359669,0.13642 0.127124,0.13643 0.127124,0.38758 z m -0.189136,-0.14883 q -0.001,-0.15296 -0.07752,-0.23668 -0.07545,-0.0837 -0.230477,-0.0837 -0.156063,0 -0.249081,0.092 -0.09198,0.092 -0.104386,0.22841 z"
         id="path17" />
      <path
         d="m 81.976618,251.18739 h -0.265617 l -0.514698,-0.61185 h -0.288355 v 0.61185 h -0.204639 v -1.53893 h 0.430982 q 0.139527,0 0.232544,0.0186 0.09302,0.0176 0.167432,0.0641 0.08372,0.0527 0.130225,0.13333 0.04754,0.0796 0.04754,0.20257 0,0.1664 -0.08372,0.27905 -0.08371,0.11162 -0.230477,0.16847 z m -0.478524,-1.10588 q 0,-0.0662 -0.02377,-0.11679 -0.02274,-0.0517 -0.07648,-0.0868 -0.04444,-0.03 -0.10542,-0.0413 -0.06098,-0.0124 -0.143661,-0.0124 h -0.240812 v 0.58084 h 0.206706 q 0.09715,0 0.169499,-0.0165 0.07235,-0.0176 0.12299,-0.0641 0.04651,-0.0434 0.06821,-0.0992 0.02274,-0.0568 0.02274,-0.14366 z m 1.517222,1.10588 h -0.19327 v -0.12299 q -0.02584,0.0176 -0.07028,0.0496 -0.04341,0.031 -0.08475,0.0496 -0.04858,0.0238 -0.111621,0.0393 -0.06305,0.0165 -0.147795,0.0165 -0.156063,0 -0.264584,-0.10336 -0.10852,-0.10335 -0.10852,-0.26355 0,-0.13126 0.05581,-0.21187 0.05684,-0.0816 0.161231,-0.12816 0.10542,-0.0465 0.253215,-0.063 0.147795,-0.0165 0.317294,-0.0248 v -0.03 q 0,-0.0661 -0.02377,-0.10955 -0.02274,-0.0434 -0.06615,-0.0682 -0.04134,-0.0238 -0.09922,-0.032 -0.05788,-0.008 -0.120923,-0.008 -0.07648,0 -0.170533,0.0207 -0.09405,0.0196 -0.194303,0.0579 h -0.01034 v -0.1974 q 0.05684,-0.0155 0.164332,-0.0341 0.107487,-0.0186 0.211873,-0.0186 0.121957,0 0.211874,0.0207 0.09095,0.0196 0.157097,0.0682 0.06511,0.0475 0.09922,0.12299 0.03411,0.0754 0.03411,0.18707 z m -0.19327,-0.28422 v -0.32143 q -0.08888,0.005 -0.209807,0.0155 -0.119889,0.0103 -0.190169,0.03 -0.08372,0.0238 -0.135393,0.0744 -0.05168,0.0496 -0.05168,0.13746 0,0.0992 0.05994,0.14986 0.05994,0.0496 0.182935,0.0496 0.10232,0 0.187069,-0.0393 0.08475,-0.0403 0.157097,-0.0961 z m 1.532725,0.28422 h -0.194304 v -0.65733 q 0,-0.0796 -0.0093,-0.14883 -0.0093,-0.0703 -0.03411,-0.10955 -0.02584,-0.0434 -0.07441,-0.0641 -0.04858,-0.0217 -0.126091,-0.0217 -0.07958,0 -0.166398,0.0393 -0.08682,0.0393 -0.166398,0.10025 v 0.86197 h -0.194304 v -1.15446 h 0.194304 v 0.12816 q 0.09095,-0.0754 0.188102,-0.11782 0.09715,-0.0424 0.199471,-0.0424 0.187069,0 0.285255,0.11266 0.09819,0.11265 0.09819,0.32453 z m 1.310517,0 h -0.194304 v -0.12093 q -0.08372,0.0724 -0.174667,0.11266 -0.09095,0.0403 -0.197404,0.0403 -0.206706,0 -0.328662,-0.15917 -0.120924,-0.15916 -0.120924,-0.44131 0,-0.14677 0.04134,-0.26149 0.04237,-0.11472 0.113688,-0.19533 0.07028,-0.0785 0.163298,-0.11989 0.09405,-0.0413 0.194303,-0.0413 0.09095,0 0.161231,0.0196 0.07028,0.0186 0.147795,0.0589 v -0.50023 h 0.194304 z m -0.194304,-0.28422 v -0.6625 q -0.07855,-0.0351 -0.14056,-0.0486 -0.06201,-0.0134 -0.135393,-0.0134 -0.163297,0 -0.254248,0.11369 -0.09095,0.11369 -0.09095,0.32246 0,0.20567 0.07028,0.31316 0.07028,0.10645 0.22531,0.10645 0.08268,0 0.167432,-0.0362 0.08475,-0.0372 0.15813,-0.0951 z m 1.56063,-0.29249 q 0,0.28215 -0.144694,0.44545 -0.144694,0.1633 -0.387574,0.1633 -0.244946,0 -0.389641,-0.1633 -0.14366,-0.1633 -0.14366,-0.44545 0,-0.28216 0.14366,-0.44545 0.144695,-0.16434 0.389641,-0.16434 0.24288,0 0.387574,0.16434 0.144694,0.16329 0.144694,0.44545 z m -0.200505,0 q 0,-0.22428 -0.08785,-0.3328 -0.08785,-0.10955 -0.243913,-0.10955 -0.15813,0 -0.24598,0.10955 -0.08682,0.10852 -0.08682,0.3328 0,0.21704 0.08785,0.32969 0.08785,0.11162 0.244946,0.11162 0.15503,0 0.24288,-0.11058 0.08888,-0.11162 0.08888,-0.33073 z m 2.185917,0.57671 h -0.194304 v -0.65733 q 0,-0.0744 -0.0072,-0.14366 -0.0062,-0.0693 -0.02791,-0.11059 -0.02377,-0.0444 -0.06821,-0.0672 -0.04444,-0.0227 -0.128158,-0.0227 -0.08165,0 -0.163297,0.0413 -0.08165,0.0403 -0.163298,0.10335 0.0031,0.0238 0.0052,0.0558 0.0021,0.031 0.0021,0.062 v 0.73898 h -0.194304 v -0.65733 q 0,-0.0765 -0.0072,-0.14469 -0.0062,-0.0692 -0.02791,-0.11059 -0.02377,-0.0444 -0.06821,-0.0661 -0.04444,-0.0227 -0.128158,-0.0227 -0.07958,0 -0.160197,0.0393 -0.07958,0.0393 -0.159164,0.10025 v 0.86197 h -0.194303 v -1.15446 h 0.194303 v 0.12816 q 0.09095,-0.0754 0.180868,-0.11782 0.09095,-0.0424 0.19327,-0.0424 0.117823,0 0.199471,0.0496 0.08268,0.0496 0.122991,0.13746 0.117822,-0.0992 0.214974,-0.14262 0.09715,-0.0445 0.207739,-0.0445 0.19017,0 0.280087,0.11576 0.09095,0.11472 0.09095,0.32143 z"
         id="path18" />
    </g>
    <g
       id="text18"
       style="font-size:2.11667px;font-family:Sans;-inkscape-font-specification:Sans;text-align:center;text-anchor:middle;fill:#ffffff;stroke-width:0.265112"
       aria-label="Random&#10;Mutes"
       transform="translate(0,-2.8845517)">
      <path
         d="m 93.268816,248.5834 h -0.265617 l -0.514698,-0.61185 h -0.288355 v 0.61185 h -0.204639 v -1.53892 h 0.430982 q 0.139527,0 0.232544,0.0186 0.09302,0.0176 0.167432,0.0641 0.08372,0.0527 0.130225,0.13333 0.04754,0.0796 0.04754,0.20257 0,0.1664 -0.08372,0.27905 -0.08372,0.11162 -0.230478,0.16847 z m -0.478524,-1.10587 q 0,-0.0661 -0.02377,-0.11679 -0.02274,-0.0517 -0.07648,-0.0868 -0.04444,-0.03 -0.10542,-0.0413 -0.06098,-0.0124 -0.14366,-0.0124 h -0.240813 v 0.58084 h 0.206706 q 0.09715,0 0.169499,-0.0165 0.07235,-0.0176 0.12299,-0.0641 0.04651,-0.0434 0.06821,-0.0992 0.02274,-0.0569 0.02274,-0.14366 z m 1.517222,1.10587 h -0.19327 v -0.12299 q -0.02584,0.0176 -0.07028,0.0496 -0.04341,0.031 -0.08475,0.0496 -0.04858,0.0238 -0.111621,0.0393 -0.06305,0.0165 -0.147795,0.0165 -0.156063,0 -0.264583,-0.10335 -0.108521,-0.10335 -0.108521,-0.26355 0,-0.13126 0.05581,-0.21187 0.05684,-0.0816 0.16123,-0.12816 0.10542,-0.0465 0.253215,-0.0631 0.147795,-0.0165 0.317294,-0.0248 v -0.03 q 0,-0.0662 -0.02377,-0.10956 -0.02274,-0.0434 -0.06615,-0.0682 -0.04134,-0.0238 -0.09922,-0.032 -0.05788,-0.008 -0.120923,-0.008 -0.07648,0 -0.170533,0.0207 -0.09405,0.0196 -0.194303,0.0579 h -0.01034 v -0.1974 q 0.05684,-0.0155 0.164332,-0.0341 0.107487,-0.0186 0.211873,-0.0186 0.121957,0 0.211874,0.0207 0.09095,0.0196 0.157097,0.0682 0.06511,0.0475 0.09922,0.12299 0.03411,0.0754 0.03411,0.18707 z m -0.19327,-0.28422 v -0.32142 q -0.08888,0.005 -0.209807,0.0155 -0.119889,0.0103 -0.190169,0.03 -0.08372,0.0238 -0.135393,0.0744 -0.05168,0.0496 -0.05168,0.13745 0,0.0992 0.05994,0.14987 0.05994,0.0496 0.182934,0.0496 0.10232,0 0.187069,-0.0393 0.08475,-0.0403 0.157097,-0.0961 z m 1.532725,0.28422 h -0.194303 v -0.65732 q 0,-0.0796 -0.0093,-0.14883 -0.0093,-0.0703 -0.03411,-0.10955 -0.02584,-0.0434 -0.07441,-0.0641 -0.04858,-0.0217 -0.12609,-0.0217 -0.07958,0 -0.166399,0.0393 -0.08682,0.0393 -0.166398,0.10025 v 0.86196 h -0.194304 v -1.15445 h 0.194304 v 0.12816 q 0.09095,-0.0754 0.188102,-0.11782 0.09715,-0.0424 0.199472,-0.0424 0.187069,0 0.285254,0.11266 0.09819,0.11265 0.09819,0.32453 z m 1.310517,0 h -0.194304 v -0.12092 q -0.08372,0.0724 -0.174666,0.11266 -0.09095,0.0403 -0.197405,0.0403 -0.206706,0 -0.328662,-0.15916 -0.120923,-0.15916 -0.120923,-0.44132 0,-0.14676 0.04134,-0.26148 0.04238,-0.11472 0.113688,-0.19534 0.07028,-0.0786 0.163298,-0.11989 0.09405,-0.0413 0.194304,-0.0413 0.09095,0 0.16123,0.0196 0.07028,0.0186 0.147795,0.0589 v -0.50023 h 0.194304 z m -0.194304,-0.28422 v -0.66249 q -0.07855,-0.0351 -0.14056,-0.0486 -0.06201,-0.0134 -0.135392,-0.0134 -0.163298,0 -0.254249,0.11369 -0.09095,0.11369 -0.09095,0.32246 0,0.20567 0.07028,0.31316 0.07028,0.10645 0.225309,0.10645 0.08268,0 0.167432,-0.0362 0.08475,-0.0372 0.15813,-0.0951 z m 1.560631,-0.29249 q 0,0.28216 -0.144695,0.44546 -0.144694,0.16329 -0.387574,0.16329 -0.244946,0 -0.38964,-0.16329 -0.143661,-0.1633 -0.143661,-0.44546 0,-0.28215 0.143661,-0.44545 0.144694,-0.16433 0.38964,-0.16433 0.24288,0 0.387574,0.16433 0.144695,0.1633 0.144695,0.44545 z m -0.200505,0 q 0,-0.22427 -0.08785,-0.33279 -0.08785,-0.10956 -0.243914,-0.10956 -0.15813,0 -0.24598,0.10956 -0.08682,0.10852 -0.08682,0.33279 0,0.21705 0.08785,0.3297 0.08785,0.11162 0.244946,0.11162 0.15503,0 0.24288,-0.11059 0.08888,-0.11162 0.08888,-0.33073 z m 2.185912,0.57671 h -0.1943 v -0.65732 q 0,-0.0744 -0.007,-0.14366 -0.006,-0.0693 -0.0279,-0.11059 -0.0238,-0.0444 -0.0682,-0.0672 -0.04445,-0.0227 -0.12816,-0.0227 -0.08165,0 -0.163298,0.0413 -0.08165,0.0403 -0.163298,0.10336 0.0031,0.0238 0.0052,0.0558 0.0021,0.031 0.0021,0.062 v 0.73897 H 99.37006 v -0.65732 q 0,-0.0765 -0.0072,-0.14469 -0.0062,-0.0692 -0.02791,-0.11059 -0.02377,-0.0444 -0.06821,-0.0662 -0.04444,-0.0227 -0.128158,-0.0227 -0.07958,0 -0.160197,0.0393 -0.07958,0.0393 -0.159164,0.10025 v 0.86196 H 98.62457 v -1.15445 h 0.194303 v 0.12816 q 0.09095,-0.0754 0.180868,-0.11782 0.09095,-0.0424 0.19327,-0.0424 0.117823,0 0.199472,0.0496 0.08268,0.0496 0.12299,0.13746 0.117822,-0.0992 0.214974,-0.14263 0.09715,-0.0444 0.20774,-0.0444 0.190173,0 0.280083,0.11576 0.0909,0.11472 0.0909,0.32143 z"
         id="path19" />
      <path
         d="m 94.557112,251.22924 h -0.204639 v -1.32602 l -0.427882,0.90227 h -0.121956 l -0.424781,-0.90227 v 1.32602 h -0.191203 v -1.53892 h 0.279053 l 0.410311,0.85679 0.396876,-0.85679 h 0.284221 z m 1.354958,0 h -0.194304 v -0.12816 q -0.09819,0.0775 -0.188102,0.11886 -0.08992,0.0413 -0.198438,0.0413 -0.181901,0 -0.283187,-0.11059 -0.101286,-0.11162 -0.101286,-0.32659 v -0.74931 h 0.194303 v 0.65732 q 0,0.0879 0.0083,0.1509 0.0083,0.062 0.03514,0.10645 0.02791,0.0455 0.07235,0.0661 0.04444,0.0207 0.129191,0.0207 0.07545,0 0.164331,-0.0393 0.08992,-0.0393 0.167432,-0.10026 v -0.86196 h 0.194304 z m 0.981853,-0.0103 q -0.05478,0.0145 -0.119889,0.0238 -0.06408,0.009 -0.114722,0.009 -0.176734,0 -0.268718,-0.0951 -0.09198,-0.0951 -0.09198,-0.30489 v -0.61391 h -0.131258 v -0.1633 h 0.131258 v -0.33176 h 0.194304 v 0.33176 h 0.401009 v 0.1633 h -0.401009 v 0.52606 q 0,0.0909 0.0041,0.14263 0.0041,0.0506 0.02894,0.0951 0.02274,0.0413 0.06201,0.061 0.04031,0.0186 0.121956,0.0186 0.04754,0 0.09922,-0.0134 0.05168,-0.0145 0.07441,-0.0238 h 0.01033 z m 1.200963,-0.54674 H 97.24429 q 0,0.10645 0.03204,0.18603 0.03204,0.0785 0.08785,0.1292 0.05374,0.0496 0.127124,0.0744 0.07441,0.0248 0.163298,0.0248 0.117822,0 0.236678,-0.0465 0.11989,-0.0476 0.170533,-0.093 h 0.01033 v 0.21187 q -0.09819,0.0413 -0.200505,0.0692 -0.102319,0.0279 -0.214974,0.0279 -0.287322,0 -0.448552,-0.15503 -0.161231,-0.15606 -0.161231,-0.44235 0,-0.28318 0.153996,-0.44958 0.15503,-0.1664 0.407211,-0.1664 0.233578,0 0.359668,0.13643 0.127125,0.13642 0.127125,0.38757 z m -0.189136,-0.14883 q -10e-4,-0.15296 -0.07751,-0.23668 -0.07545,-0.0837 -0.230477,-0.0837 -0.156063,0 -0.249081,0.092 -0.09198,0.092 -0.104387,0.22841 z m 1.308449,0.37311 q 0,0.15813 -0.131258,0.25941 -0.130225,0.10129 -0.356568,0.10129 -0.128158,0 -0.235645,-0.03 -0.106454,-0.031 -0.178801,-0.0672 v -0.21808 h 0.01033 q 0.09199,0.0692 0.204639,0.11059 0.112655,0.0403 0.216008,0.0403 0.128158,0 0.200505,-0.0413 0.07235,-0.0413 0.07235,-0.13022 0,-0.0682 -0.03927,-0.10335 -0.03927,-0.0351 -0.150895,-0.06 -0.04134,-0.009 -0.108521,-0.0217 -0.06615,-0.0124 -0.120923,-0.0269 -0.151929,-0.0403 -0.216008,-0.11783 -0.06305,-0.0785 -0.06305,-0.19223 0,-0.0713 0.02894,-0.13436 0.02997,-0.0631 0.08992,-0.11266 0.05788,-0.0486 0.146761,-0.0765 0.08992,-0.0289 0.200505,-0.0289 0.103353,0 0.208773,0.0258 0.106454,0.0248 0.176734,0.061 v 0.20774 h -0.01034 q -0.07441,-0.0548 -0.180867,-0.092 -0.106454,-0.0383 -0.208774,-0.0383 -0.106453,0 -0.179834,0.0413 -0.07338,0.0403 -0.07338,0.12092 0,0.0713 0.04444,0.10749 0.04341,0.0362 0.14056,0.0589 0.05374,0.0124 0.11989,0.0248 0.06718,0.0124 0.111621,0.0227 0.135393,0.031 0.208773,0.10645 0.07338,0.0765 0.07338,0.20258 z"
         id="path20" />
    </g>
    <g
       id="text20"
       style="font-size:2.11667px;font-family:Sans;-inkscape-font-specification:Sans;text-align:center;text-anchor:middle;fill:#ffffff;stroke-width:0.265112"
       aria-label="Random&#10;Order"
       transform="translate(-1.0583333,-1.3878468)">
      <path
         d="m 72.689059,247.08669 h -0.265618 l -0.514698,-0.61185 h -0.288355 v 0.61185 h -0.204639 v -1.53893 h 0.430983 q 0.139526,0 0.232544,0.0186 0.09302,0.0176 0.167432,0.0641 0.08372,0.0527 0.130225,0.13333 0.04754,0.0796 0.04754,0.20257 0,0.1664 -0.08372,0.27905 -0.08372,0.11162 -0.230477,0.16847 z m -0.478525,-1.10588 q 0,-0.0661 -0.02377,-0.11679 -0.02274,-0.0517 -0.07648,-0.0868 -0.04444,-0.03 -0.10542,-0.0413 -0.06098,-0.0124 -0.143661,-0.0124 H 71.62039 v 0.58084 h 0.206706 q 0.09715,0 0.169499,-0.0165 0.07235,-0.0176 0.12299,-0.0641 0.04651,-0.0434 0.06821,-0.0992 0.02274,-0.0568 0.02274,-0.14366 z m 1.517222,1.10588 h -0.19327 v -0.12299 q -0.02584,0.0176 -0.07028,0.0496 -0.04341,0.031 -0.08475,0.0496 -0.04858,0.0238 -0.111622,0.0393 -0.06305,0.0165 -0.147794,0.0165 -0.156063,0 -0.264584,-0.10335 -0.108521,-0.10335 -0.108521,-0.26355 0,-0.13126 0.05581,-0.21187 0.05684,-0.0816 0.161231,-0.12816 0.10542,-0.0465 0.253214,-0.0631 0.147795,-0.0165 0.317294,-0.0248 v -0.03 q 0,-0.0661 -0.02377,-0.10956 -0.02274,-0.0434 -0.06615,-0.0682 -0.04134,-0.0238 -0.09922,-0.032 -0.05788,-0.008 -0.120923,-0.008 -0.07648,0 -0.170532,0.0207 -0.09405,0.0196 -0.194304,0.0579 h -0.01033 v -0.1974 q 0.05684,-0.0155 0.164331,-0.0341 0.107487,-0.0186 0.211874,-0.0186 0.121956,0 0.211873,0.0207 0.09095,0.0196 0.157097,0.0682 0.06511,0.0475 0.09922,0.12299 0.03411,0.0755 0.03411,0.18707 z m -0.19327,-0.28423 v -0.32142 q -0.08888,0.005 -0.209806,0.0155 -0.11989,0.0103 -0.19017,0.03 -0.08372,0.0238 -0.135392,0.0744 -0.05168,0.0496 -0.05168,0.13746 0,0.0992 0.05994,0.14986 0.05994,0.0496 0.182935,0.0496 0.102319,0 0.187069,-0.0393 0.08475,-0.0403 0.157096,-0.0961 z m 1.532726,0.28423 h -0.194304 v -0.65733 q 0,-0.0796 -0.0093,-0.14883 -0.0093,-0.0703 -0.03411,-0.10955 -0.02584,-0.0434 -0.07441,-0.0641 -0.04858,-0.0217 -0.126091,-0.0217 -0.07958,0 -0.166399,0.0393 -0.08682,0.0393 -0.166398,0.10025 v 0.86197 h -0.194304 v -1.15446 H 74.2962 v 0.12816 q 0.09095,-0.0755 0.188103,-0.11782 0.09715,-0.0424 0.199471,-0.0424 0.187069,0 0.285254,0.11266 0.09819,0.11265 0.09819,0.32453 z m 1.310516,0 h -0.194303 v -0.12093 q -0.08372,0.0724 -0.174667,0.11266 -0.09095,0.0403 -0.197404,0.0403 -0.206706,0 -0.328663,-0.15916 -0.120923,-0.15916 -0.120923,-0.44132 0,-0.14676 0.04134,-0.26148 0.04237,-0.11472 0.113689,-0.19534 0.07028,-0.0786 0.163297,-0.11989 0.09405,-0.0413 0.194304,-0.0413 0.09095,0 0.161231,0.0196 0.07028,0.0186 0.147795,0.0589 v -0.50023 h 0.194303 z m -0.194303,-0.28423 v -0.66249 q -0.07855,-0.0351 -0.140561,-0.0486 -0.06201,-0.0134 -0.135392,-0.0134 -0.163298,0 -0.254248,0.11369 -0.09095,0.11369 -0.09095,0.32246 0,0.20567 0.07028,0.31316 0.07028,0.10645 0.225309,0.10645 0.08268,0 0.167432,-0.0362 0.08475,-0.0372 0.158131,-0.0951 z m 1.56063,-0.29248 q 0,0.28215 -0.144694,0.44545 -0.144695,0.16329 -0.387574,0.16329 -0.244947,0 -0.389641,-0.16329 -0.143661,-0.1633 -0.143661,-0.44545 0,-0.28216 0.143661,-0.44546 0.144694,-0.16433 0.389641,-0.16433 0.242879,0 0.387574,0.16433 0.144694,0.1633 0.144694,0.44546 z m -0.200505,0 q 0,-0.22428 -0.08785,-0.3328 -0.08785,-0.10956 -0.243913,-0.10956 -0.15813,0 -0.24598,0.10956 -0.08682,0.10852 -0.08682,0.3328 0,0.21704 0.08785,0.32969 0.08785,0.11162 0.244947,0.11162 0.155029,0 0.242879,-0.11059 0.08888,-0.11162 0.08888,-0.33072 z m 2.185916,0.57671 h -0.194303 v -0.65733 q 0,-0.0744 -0.0072,-0.14366 -0.0062,-0.0692 -0.02791,-0.11059 -0.02377,-0.0444 -0.06821,-0.0672 -0.04444,-0.0227 -0.128158,-0.0227 -0.08165,0 -0.163298,0.0413 -0.08165,0.0403 -0.163298,0.10335 0.0031,0.0238 0.0052,0.0558 0.0021,0.031 0.0021,0.062 v 0.73898 h -0.194304 v -0.65733 q 0,-0.0765 -0.0072,-0.14469 -0.0062,-0.0693 -0.02791,-0.11059 -0.02377,-0.0444 -0.06821,-0.0661 -0.04444,-0.0227 -0.128157,-0.0227 -0.07958,0 -0.160198,0.0393 -0.07958,0.0393 -0.159163,0.10025 v 0.86197 h -0.194304 v -1.15446 h 0.194304 v 0.12816 q 0.09095,-0.0755 0.180867,-0.11782 0.09095,-0.0424 0.193271,-0.0424 0.117822,0 0.199471,0.0496 0.08268,0.0496 0.12299,0.13746 0.117823,-0.0992 0.214974,-0.14263 0.09715,-0.0444 0.20774,-0.0444 0.190169,0 0.280087,0.11576 0.09095,0.11472 0.09095,0.32143 z"
         id="path21" />
      <path
         d="m 73.88847,248.37033 q 0.09405,0.10335 0.143661,0.25321 0.05064,0.14987 0.05064,0.34004 0,0.19017 -0.05168,0.34106 -0.05064,0.14986 -0.142628,0.25012 -0.09508,0.10438 -0.225309,0.15709 -0.129191,0.0527 -0.29559,0.0527 -0.162264,0 -0.295589,-0.0537 -0.132292,-0.0538 -0.22531,-0.15606 -0.09302,-0.10232 -0.143661,-0.25115 -0.04961,-0.14883 -0.04961,-0.34003 0,-0.18811 0.04961,-0.33693 0.04961,-0.14987 0.144695,-0.25632 0.09095,-0.10129 0.225309,-0.15503 0.135393,-0.0537 0.294556,-0.0537 0.165365,0 0.296623,0.0548 0.132292,0.0538 0.224276,0.154 z m -0.0186,0.59325 q 0,-0.29973 -0.134359,-0.46199 -0.134359,-0.1633 -0.366903,-0.1633 -0.234612,0 -0.368971,0.1633 -0.133325,0.16226 -0.133325,0.46199 0,0.30282 0.136426,0.46405 0.136426,0.1602 0.36587,0.1602 0.229443,0 0.364836,-0.1602 0.136426,-0.16123 0.136426,-0.46405 z m 1.242303,-0.17364 h -0.01034 q -0.04341,-0.0103 -0.08475,-0.0145 -0.04031,-0.005 -0.09612,-0.005 -0.08992,0 -0.173633,0.0403 -0.08372,0.0393 -0.161231,0.10232 v 0.81959 H 74.3918 v -1.15445 h 0.194303 v 0.17053 q 0.115756,-0.093 0.203606,-0.13126 0.08888,-0.0393 0.180868,-0.0393 0.05064,0 0.07338,0.003 0.02274,0.002 0.06821,0.009 z m 1.119313,0.94258 H 76.03718 v -0.12092 q -0.08372,0.0724 -0.174667,0.11265 -0.09095,0.0403 -0.197404,0.0403 -0.206706,0 -0.328663,-0.15916 -0.120923,-0.15917 -0.120923,-0.44132 0,-0.14676 0.04134,-0.26148 0.04238,-0.11472 0.113689,-0.19534 0.07028,-0.0785 0.163297,-0.11989 0.09405,-0.0413 0.194304,-0.0413 0.09095,0 0.161231,0.0196 0.07028,0.0186 0.147795,0.0589 v -0.50023 h 0.194303 z M 76.03718,249.4483 v -0.66249 q -0.07855,-0.0351 -0.14056,-0.0486 -0.06201,-0.0134 -0.135393,-0.0134 -0.163298,0 -0.254248,0.11369 -0.09095,0.11368 -0.09095,0.32246 0,0.20567 0.07028,0.31316 0.07028,0.10645 0.22531,0.10645 0.08268,0 0.167431,-0.0362 0.08475,-0.0372 0.158131,-0.0951 z m 1.54306,-0.27285 h -0.850595 q 0,0.10645 0.03204,0.18604 0.03204,0.0785 0.08785,0.12919 0.05374,0.0496 0.127124,0.0744 0.07441,0.0248 0.163298,0.0248 0.117822,0 0.236678,-0.0465 0.119889,-0.0476 0.170532,-0.093 h 0.01034 v 0.21187 q -0.09819,0.0413 -0.200505,0.0693 -0.10232,0.0279 -0.214974,0.0279 -0.287322,0 -0.448553,-0.15503 -0.16123,-0.15606 -0.16123,-0.44235 0,-0.28318 0.153996,-0.44958 0.155029,-0.1664 0.407211,-0.1664 0.233577,0 0.359668,0.13643 0.127124,0.13642 0.127124,0.38757 z m -0.189136,-0.14883 q -0.001,-0.15296 -0.07751,-0.23668 -0.07545,-0.0837 -0.230478,-0.0837 -0.156063,0 -0.24908,0.092 -0.09198,0.092 -0.104387,0.22841 z m 1.204063,-0.23668 h -0.01033 q -0.04341,-0.0103 -0.08475,-0.0145 -0.04031,-0.005 -0.09612,-0.005 -0.08992,0 -0.173633,0.0403 -0.08372,0.0393 -0.161231,0.10232 v 0.81959 H 77.874799 V 248.5782 H 78.0691 v 0.17053 q 0.115755,-0.093 0.203605,-0.13126 0.08888,-0.0393 0.180868,-0.0393 0.05064,0 0.07338,0.003 0.02274,0.002 0.06821,0.009 z"
         id="path22" />
    </g>
    <path
       d="m 37.464186,250.75267 q -0.08406,0.0386 -0.183968,0.0675 -0.09922,0.0283 -0.192236,0.0283 -0.119889,0 -0.219797,-0.0331 -0.09991,-0.0331 -0.170188,-0.0992 -0.07097,-0.0668 -0.109553,-0.16674 -0.03859,-0.1006 -0.03859,-0.23496 0,-0.24598 0.143316,-0.38791 0.144005,-0.14263 0.394808,-0.14263 0.08751,0 0.178456,0.0214 0.09164,0.0207 0.197059,0.071 v 0.16192 h -0.0124 q -0.02136,-0.0165 -0.06201,-0.0434 -0.04065,-0.0269 -0.07993,-0.0448 -0.04754,-0.0214 -0.108176,-0.0351 -0.05994,-0.0145 -0.136426,-0.0145 -0.172254,0 -0.272851,0.11093 -0.09991,0.11025 -0.09991,0.29904 0,0.19913 0.104731,0.31006 0.104731,0.11024 0.285254,0.11024 0.06615,0 0.131602,-0.0131 0.06615,-0.0131 0.115755,-0.0338 v -0.25149 H 37.05422 v -0.11989 h 0.409966 z m 0.826133,0.0758 h -0.128846 v -0.082 q -0.01723,0.0117 -0.04685,0.0331 -0.02894,0.0207 -0.0565,0.0331 -0.03238,0.0159 -0.07441,0.0262 -0.04203,0.011 -0.09853,0.011 -0.104042,0 -0.176389,-0.0689 -0.07235,-0.0689 -0.07235,-0.1757 0,-0.0875 0.03721,-0.14125 0.0379,-0.0544 0.107487,-0.0854 0.07028,-0.031 0.168809,-0.042 0.09853,-0.011 0.211529,-0.0165 v -0.02 q 0,-0.0441 -0.01585,-0.073 -0.01516,-0.0289 -0.0441,-0.0455 -0.02756,-0.0159 -0.06614,-0.0214 -0.03859,-0.006 -0.08062,-0.006 -0.05099,0 -0.113688,0.0138 -0.0627,0.0131 -0.129535,0.0386 h -0.0069 v -0.13161 q 0.0379,-0.0103 0.109554,-0.0227 0.07166,-0.0124 0.141248,-0.0124 0.08131,0 0.141249,0.0138 0.06063,0.0131 0.104731,0.0455 0.04341,0.0317 0.06615,0.082 0.02274,0.0503 0.02274,0.12471 z m -0.128846,-0.18948 v -0.21428 q -0.05926,0.003 -0.139871,0.0103 -0.07993,0.007 -0.126779,0.02 -0.05581,0.0159 -0.09026,0.0496 -0.03445,0.0331 -0.03445,0.0916 0,0.0661 0.03996,0.0999 0.03996,0.0331 0.121957,0.0331 0.06821,0 0.124712,-0.0262 0.0565,-0.0269 0.104731,-0.0641 z m 0.517453,-0.709 h -0.146072 v -0.13436 h 0.146072 z m -0.0083,0.89848 h -0.129536 v -0.76963 h 0.129536 z m 0.899858,0 H 39.44098 v -0.43822 q 0,-0.0531 -0.0062,-0.0992 -0.0062,-0.0469 -0.02274,-0.073 -0.01723,-0.0289 -0.04961,-0.0427 -0.03238,-0.0145 -0.08406,-0.0145 -0.05305,0 -0.110932,0.0262 -0.05788,0.0262 -0.110932,0.0668 v 0.57464 h -0.129536 v -0.76963 h 0.129536 v 0.0854 q 0.06063,-0.0503 0.125401,-0.0786 0.06477,-0.0282 0.132981,-0.0282 0.124712,0 0.190169,0.0751 0.06546,0.0751 0.06546,0.21635 z"
       id="text22"
       style="font-size:1.41111px;font-family:Sans;-inkscape-font-specification:Sans;text-align:center;text-anchor:middle;fill:#ffffff;stroke-width:0.265112"
       aria-label="Gain" />
  </g>
</svg>
