<?xml version="1.0" encoding="UTF-8" standalone="no"?>
<!-- Generator: Gravit.io -->

<svg
   style="isolation:isolate"
   viewBox="0 0 45 380"
   width="45"
   height="380"
   version="1.1"
   id="svg28"
   sodipodi:docname="ShiftRegRnd.svg"
   inkscape:version="1.3.2 (091e20e, 2023-11-25)"
   xmlns:inkscape="http://www.inkscape.org/namespaces/inkscape"
   xmlns:sodipodi="http://sodipodi.sourceforge.net/DTD/sodipodi-0.dtd"
   xmlns="http://www.w3.org/2000/svg"
   xmlns:svg="http://www.w3.org/2000/svg"
   xmlns:rdf="http://www.w3.org/1999/02/22-rdf-syntax-ns#"
   xmlns:cc="http://creativecommons.org/ns#"
   xmlns:dc="http://purl.org/dc/elements/1.1/">
  <metadata
     id="metadata32">
    <rdf:RDF>
      <cc:Work
         rdf:about="">
        <dc:format>image/svg+xml</dc:format>
        <dc:type
           rdf:resource="http://purl.org/dc/dcmitype/StillImage" />
      </cc:Work>
    </rdf:RDF>
  </metadata>
  <sodipodi:namedview
     pagecolor="#ffffff"
     bordercolor="#666666"
     borderopacity="1"
     objecttolerance="10"
     gridtolerance="10"
     guidetolerance="10"
     inkscape:pageopacity="0"
     inkscape:pageshadow="2"
     inkscape:window-width="1408"
     inkscape:window-height="1164"
     id="namedview30"
     showgrid="false"
     inkscape:zoom="2.6683977"
     inkscape:cx="18.737837"
     inkscape:cy="179.69585"
     inkscape:window-x="688"
     inkscape:window-y="30"
     inkscape:window-maximized="0"
     inkscape:current-layer="svg28"
     showguides="false"
     inkscape:snap-nodes="true"
     inkscape:snap-grids="false"
     inkscape:snap-global="false"
     inkscape:showpageshadow="2"
     inkscape:pagecheckerboard="0"
     inkscape:deskcolor="#d1d1d1" />
  <defs
     id="defs5">
    <inkscape:path-effect
       only_selected="false"
       apply_with_weight="true"
       apply_no_weight="true"
       helper_size="0"
       steps="2"
       weight="33.333333"
       is_visible="true"
       id="path-effect1070"
       effect="bspline" />
    <inkscape:path-effect
       effect="bspline"
       id="path-effect1066"
       is_visible="true"
       weight="33.333333"
       steps="2"
       helper_size="0"
       apply_no_weight="true"
       apply_with_weight="true"
       only_selected="false" />
    <clipPath
       id="_clipPath_0ow2e6EsI2z2JMRNarlGPRVH8APlqVOp">
      <rect
         width="720"
         height="380"
         id="rect2"
         x="0"
         y="0" />
    </clipPath>
  </defs>
  <path
     style="fill:#333333;stroke-width:0.50487816;fill-opacity:1"
     inkscape:connector-curvature="0"
     id="path7"
     d="M 0,0 H 45 V 379.45 H 0 Z" />
  <g
     id="layer1-2"
     transform="matrix(0.83511265,0,0,0.83511265,-14.725942,63.355027)"
     style="stroke-width:2.31106">
    <rect
       style="fill:#ffffff;stroke-width:2.31106"
       id="rect9"
       height="2.2750001"
       width="10.008"
       y="347.13"
       x="39.669998" />
    <rect
       style="fill:#ffffff;stroke-width:2.31106"
       id="rect11"
       height="0.70499998"
       width="12.49"
       y="347.74399"
       x="38.465" />
    <path
       style="fill:#ffffff;stroke-width:2.31106"
       inkscape:connector-curvature="0"
       id="path13"
       d="m 36.026,339.784 c 0,-4.456 3.82,-8.074 8.525,-8.074 4.705,0 8.524,3.618 8.524,8.074 0,4.457 -3.819,8.075 -8.524,8.075 -4.705,0 -8.525,-3.618 -8.525,-8.075 z" />
    <rect
       style="fill:#ffffff;stroke-width:2.31106"
       id="rect15"
       height="5.9190001"
       width="13.125"
       y="348.44901"
       x="37.944" />
    <path
       style="fill:#54b6fc;stroke-width:2.31106"
       inkscape:connector-curvature="0"
       id="path17"
       d="m 37.635,354.766 c -0.078,-0.145 -0.126,-1.449 -0.126,-3.397 0,-3.615 -0.089,-3.315 1.195,-4.021 0.41,-0.226 0.746,-0.445 0.746,-0.487 0,-0.043 -0.223,-0.232 -0.496,-0.421 -1.414,-0.98 -2.77,-2.995 -3.217,-4.781 -0.277,-1.106 -0.185,-3.288 0.185,-4.37 1.421,-4.161 6.033,-6.679 10.539,-5.752 2.939,0.604 5.272,2.436 6.452,5.068 0.498,1.11 0.666,1.944 0.663,3.292 -0.006,2.424 -1.107,4.678 -3.056,6.259 -0.35,0.284 -0.637,0.559 -0.637,0.611 0,0.053 0.259,0.243 0.576,0.424 1.212,0.69 1.122,0.358 1.122,4.167 0,2.445 -0.039,3.39 -0.145,3.497 -0.11,0.109 -1.811,0.145 -6.911,0.145 -6.564,0 -6.768,-0.008 -6.89,-0.235 z m 6.572,-1.846 c 0.028,-0.991 0.074,-1.255 0.237,-1.357 0.147,-0.092 0.255,-0.083 0.394,0.033 0.152,0.126 0.192,0.413 0.192,1.358 v 1.198 h 2.794 c 2.374,0 2.805,-0.026 2.864,-0.182 0.164,-0.426 -0.116,-0.755 -1.442,-1.701 -1.11,-0.791 -1.365,-1.029 -1.365,-1.274 0,-0.237 0.07,-0.308 0.334,-0.339 l 0.334,-0.038 v -1 c 0,-1.132 0.155,-1.493 0.585,-1.356 0.251,0.079 0.264,0.153 0.266,1.501 0.001,0.779 0.042,1.474 0.091,1.545 0.147,0.211 0.951,0.782 1.101,0.782 0.1,0 0.14,-0.52 0.14,-1.801 0,-2.043 0.062,-1.902 -1.132,-2.569 l -0.708,-0.396 -1.232,0.412 c -1.197,0.399 -1.29,0.411 -3.175,0.411 -1.864,0 -1.983,-0.016 -2.996,-0.377 l -1.054,-0.377 -0.977,0.551 -0.978,0.552 v 1.857 c 0,1.022 0.031,1.858 0.069,1.858 0.038,0 0.311,-0.142 0.607,-0.315 l 0.537,-0.314 0.002,-1.232 c 0.002,-1.579 0.283,-2.203 0.772,-1.714 0.15,0.149 0.196,0.438 0.196,1.211 v 1.014 l 0.4,-0.064 c 0.434,-0.071 0.747,0.159 0.632,0.461 -0.036,0.093 -0.774,0.594 -1.64,1.113 -1.532,0.919 -1.575,0.957 -1.575,1.363 v 0.418 h 2.846 2.847 z m 3.116,-5.993 c 2.504,-0.839 4.541,-2.944 5.165,-5.338 0.195,-0.748 0.251,-2.796 0.084,-3.059 -0.076,-0.119 -0.708,-0.147 -2.742,-0.121 l -2.644,0.033 -0.393,1.092 c -0.345,0.956 -0.429,1.092 -0.681,1.092 -0.266,0 -0.302,-0.082 -0.497,-1.138 -0.321,-1.734 -0.364,-1.707 -0.757,0.481 -0.345,1.92 -0.39,2.052 -0.687,2.052 -0.288,0 -0.273,0.062 -0.814,-3.569 -0.247,-1.663 -0.504,-3.041 -0.571,-3.063 -0.066,-0.023 -0.476,0.656 -0.91,1.507 l -0.788,1.546 -2.27,0.034 -2.269,0.033 -0.082,0.437 c -0.139,0.74 0.028,2.246 0.352,3.178 0.662,1.902 2.011,3.402 3.905,4.338 1.472,0.729 2.322,0.904 4.125,0.851 1.197,-0.037 1.636,-0.104 2.474,-0.385 z m -3.552,-0.476 c -0.689,-0.196 -0.842,-0.318 -0.782,-0.627 0.039,-0.199 0.18,-0.228 1.194,-0.247 0.633,-0.011 1.342,-0.038 1.575,-0.06 0.38,-0.034 0.429,-0.009 0.462,0.278 0.031,0.271 -0.035,0.347 -0.453,0.514 -0.719,0.288 -1.328,0.331 -1.996,0.142 z m -2.259,-2.854 c -0.133,-0.134 -0.242,-0.352 -0.242,-0.485 0,-0.337 0.424,-0.728 0.788,-0.728 0.365,0 0.789,0.391 0.789,0.728 0,0.336 -0.424,0.728 -0.789,0.728 -0.166,0 -0.412,-0.11 -0.546,-0.243 z m 4.732,-0.121 c -0.321,-0.32 -0.306,-0.555 0.055,-0.916 0.335,-0.335 0.453,-0.357 0.832,-0.158 0.333,0.175 0.443,0.338 0.445,0.661 0.004,0.597 -0.876,0.869 -1.332,0.413 z m -1.584,-5.884 c 0.408,-2.456 0.791,-2.52 1.203,-0.199 0.135,0.757 0.272,1.404 0.304,1.437 0.114,0.114 0.293,-0.084 0.376,-0.417 0.161,-0.642 0.148,-0.639 2.995,-0.639 3.011,0 2.953,0.022 2.539,-0.915 -0.902,-2.038 -2.972,-3.73 -5.348,-4.37 -1.064,-0.287 -3.184,-0.295 -4.246,-0.016 -2.562,0.673 -4.724,2.532 -5.587,4.805 l -0.237,0.623 2.032,-0.033 2.033,-0.034 0.97,-1.904 c 0.534,-1.048 1.04,-1.974 1.123,-2.057 0.337,-0.337 0.501,0.172 0.885,2.747 0.209,1.4 0.408,2.592 0.443,2.649 0.141,0.229 0.265,-0.174 0.515,-1.677 z" />
    <path
       style="fill:#a0a0a0;stroke-width:2.31106"
       inkscape:connector-curvature="0"
       id="path19"
       d="m 37.635,354.766 c -0.078,-0.145 -0.126,-1.449 -0.126,-3.397 0,-3.615 -0.089,-3.315 1.195,-4.021 0.41,-0.226 0.746,-0.445 0.746,-0.487 0,-0.043 -0.223,-0.232 -0.496,-0.421 -1.414,-0.98 -2.77,-2.995 -3.217,-4.781 -0.277,-1.106 -0.185,-3.288 0.185,-4.37 1.421,-4.161 6.033,-6.679 10.539,-5.752 2.939,0.604 5.272,2.436 6.452,5.068 0.498,1.11 0.666,1.944 0.663,3.292 -0.006,2.424 -1.107,4.678 -3.056,6.259 -0.35,0.284 -0.637,0.559 -0.637,0.611 0,0.053 0.259,0.243 0.576,0.424 1.212,0.69 1.122,0.358 1.122,4.167 0,2.445 -0.039,3.39 -0.145,3.497 -0.11,0.109 -1.811,0.145 -6.911,0.145 -6.564,0 -6.768,-0.008 -6.89,-0.235 z m 6.572,-1.846 c 0.028,-0.991 0.074,-1.255 0.237,-1.357 0.147,-0.092 0.255,-0.083 0.394,0.033 0.152,0.126 0.192,0.413 0.192,1.358 v 1.198 h 2.794 c 2.374,0 2.805,-0.026 2.864,-0.182 0.164,-0.426 -0.116,-0.755 -1.442,-1.701 -1.11,-0.791 -1.365,-1.029 -1.365,-1.274 0,-0.237 0.07,-0.308 0.334,-0.339 l 0.334,-0.038 v -1 c 0,-1.132 0.155,-1.493 0.585,-1.356 0.251,0.079 0.264,0.153 0.266,1.501 0.001,0.779 0.042,1.474 0.091,1.545 0.147,0.211 0.951,0.782 1.101,0.782 0.1,0 0.14,-0.52 0.14,-1.801 0,-2.043 0.062,-1.902 -1.132,-2.569 l -0.708,-0.396 -1.232,0.412 c -1.197,0.399 -1.29,0.411 -3.175,0.411 -1.864,0 -1.983,-0.016 -2.996,-0.377 l -1.054,-0.377 -0.977,0.551 -0.978,0.552 v 1.857 c 0,1.022 0.031,1.858 0.069,1.858 0.038,0 0.311,-0.142 0.607,-0.315 l 0.537,-0.314 0.002,-1.232 c 0.002,-1.579 0.283,-2.203 0.772,-1.714 0.15,0.149 0.196,0.438 0.196,1.211 v 1.014 l 0.4,-0.064 c 0.434,-0.071 0.747,0.159 0.632,0.461 -0.036,0.093 -0.774,0.594 -1.64,1.113 -1.532,0.919 -1.575,0.957 -1.575,1.363 v 0.418 h 2.846 2.847 z m 3.116,-5.993 c 1.931,-0.647 3.633,-2.064 4.532,-3.775 0.59,-1.123 0.818,-2.049 0.816,-3.311 -0.002,-1.743 0.283,-1.582 -2.795,-1.582 -1.985,0 -2.672,0.038 -2.746,0.152 -0.054,0.083 -0.263,0.588 -0.465,1.121 -0.526,1.39 -0.684,1.347 -0.974,-0.267 -0.343,-1.905 -0.509,-1.805 -0.928,0.562 -0.325,1.834 -0.466,2.241 -0.692,2.005 -0.061,-0.063 -0.309,-1.48 -0.55,-3.148 -0.52,-3.598 -0.516,-3.579 -0.709,-3.579 -0.083,0 -0.519,0.737 -0.967,1.638 l -0.817,1.638 h -2.237 -2.237 l -0.085,0.562 c -0.322,2.147 0.665,4.715 2.423,6.308 0.871,0.788 2.571,1.671 3.712,1.926 1.285,0.288 3.456,0.173 4.719,-0.25 z m -3.552,-0.476 c -0.689,-0.196 -0.842,-0.318 -0.782,-0.627 0.039,-0.199 0.18,-0.228 1.194,-0.247 0.633,-0.011 1.342,-0.038 1.575,-0.06 0.38,-0.034 0.429,-0.009 0.462,0.278 0.031,0.271 -0.035,0.347 -0.453,0.514 -0.719,0.288 -1.328,0.331 -1.996,0.142 z m -2.259,-2.854 c -0.133,-0.134 -0.242,-0.352 -0.242,-0.485 0,-0.337 0.424,-0.728 0.788,-0.728 0.365,0 0.789,0.391 0.789,0.728 0,0.336 -0.424,0.728 -0.789,0.728 -0.166,0 -0.412,-0.11 -0.546,-0.243 z m 4.732,-0.121 c -0.321,-0.32 -0.306,-0.555 0.055,-0.916 0.335,-0.335 0.453,-0.357 0.832,-0.158 0.333,0.175 0.443,0.338 0.445,0.661 0.004,0.597 -0.876,0.869 -1.332,0.413 z m -1.51,-5.643 c 0.291,-1.664 0.459,-2.135 0.68,-1.904 0.045,0.047 0.209,0.796 0.365,1.663 0.32,1.786 0.472,1.954 0.851,0.94 l 0.237,-0.637 h 2.714 c 1.493,0 2.741,-0.043 2.773,-0.096 0.111,-0.178 -0.491,-1.456 -1.064,-2.258 -1.001,-1.404 -2.726,-2.557 -4.561,-3.052 -1.064,-0.287 -3.184,-0.295 -4.246,-0.016 -1.492,0.392 -2.75,1.113 -3.833,2.196 -0.931,0.932 -1.649,2.075 -1.93,3.075 l -0.076,0.273 1.979,-10e-4 c 1.089,-0.001 2.041,-0.042 2.116,-0.091 0.076,-0.049 0.581,-0.977 1.123,-2.061 0.925,-1.849 1.116,-2.128 1.279,-1.865 0.036,0.059 0.234,1.273 0.439,2.699 0.383,2.657 0.526,3.263 0.724,3.065 0.062,-0.062 0.255,-0.929 0.429,-1.929 z" />
    <path
       style="fill:#179cfd;stroke-width:2.31106"
       inkscape:connector-curvature="0"
       id="path21"
       d="m 37.695,354.688 c -0.128,-0.335 -0.083,-6.237 0.05,-6.485 0.067,-0.127 0.504,-0.453 0.97,-0.725 0.466,-0.272 0.847,-0.545 0.847,-0.607 0,-0.062 -0.31,-0.346 -0.689,-0.632 -1.386,-1.044 -2.563,-2.825 -3.002,-4.54 -0.243,-0.947 -0.246,-2.806 -0.007,-3.748 0.1,-0.398 0.41,-1.187 0.687,-1.754 0.404,-0.824 0.714,-1.24 1.546,-2.073 0.864,-0.864 1.237,-1.137 2.194,-1.607 1.659,-0.815 2.42,-0.989 4.306,-0.982 1.109,0.003 1.804,0.068 2.345,0.216 4.402,1.211 7.145,5.247 6.401,9.42 -0.341,1.915 -1.707,4.103 -3.215,5.147 -0.273,0.189 -0.497,0.389 -0.497,0.444 0,0.055 0.382,0.322 0.848,0.595 0.541,0.316 0.872,0.592 0.914,0.763 0.036,0.148 0.05,1.715 0.031,3.483 l -0.034,3.215 -6.81,0.03 c -6.132,0.029 -6.818,0.011 -6.885,-0.161 z m 6.598,-1.75 c 0.056,-1.173 0.08,-1.274 0.304,-1.274 0.223,0 0.247,0.101 0.303,1.274 l 0.061,1.274 h 2.909 c 2.723,0 2.913,-0.016 2.953,-0.222 0.102,-0.53 -0.121,-0.801 -1.429,-1.737 -0.732,-0.524 -1.361,-1.026 -1.397,-1.115 -0.098,-0.244 0.036,-0.384 0.367,-0.384 0.292,0 0.297,-0.015 0.297,-1.077 0,-0.794 0.046,-1.115 0.176,-1.223 0.341,-0.283 0.43,-0.008 0.43,1.327 0,0.725 0.033,1.403 0.073,1.508 0.104,0.272 1.232,1.075 1.38,0.983 0.189,-0.116 0.163,-3.727 -0.027,-3.966 -0.084,-0.105 -0.504,-0.392 -0.934,-0.64 -0.878,-0.505 -0.915,-0.505 -2.312,0.016 -0.853,0.316 -1.03,0.338 -2.85,0.341 -1.881,0.003 -1.976,-0.008 -3.068,-0.39 l -1.126,-0.393 -0.973,0.565 c -0.535,0.311 -1.024,0.662 -1.087,0.78 -0.064,0.118 -0.115,0.984 -0.115,1.925 0,1.372 0.034,1.723 0.174,1.776 0.216,0.083 1.245,-0.507 1.406,-0.807 0.065,-0.122 0.118,-0.795 0.118,-1.496 0,-1.318 0.124,-1.66 0.443,-1.224 0.106,0.145 0.164,0.578 0.164,1.233 v 1.01 l 0.496,-0.079 c 0.469,-0.075 0.493,-0.064 0.455,0.205 -0.032,0.221 -0.387,0.489 -1.58,1.191 -1.576,0.927 -1.792,1.158 -1.612,1.725 0.072,0.225 0.2,0.233 3.008,0.202 l 2.933,-0.033 z m 2.972,-5.863 c 2.435,-0.797 4.358,-2.617 5.174,-4.895 0.264,-0.738 0.451,-3.001 0.298,-3.609 l -0.078,-0.312 h -2.72 c -2.043,0 -2.744,0.038 -2.818,0.152 -0.054,0.083 -0.263,0.588 -0.465,1.121 -0.526,1.39 -0.684,1.347 -0.975,-0.267 -0.343,-1.905 -0.508,-1.805 -0.928,0.562 -0.325,1.834 -0.465,2.241 -0.692,2.005 -0.061,-0.063 -0.308,-1.48 -0.549,-3.148 -0.52,-3.598 -0.516,-3.579 -0.709,-3.579 -0.083,0 -0.519,0.737 -0.968,1.638 l -0.816,1.638 h -2.241 c -2.616,0 -2.491,-0.069 -2.491,1.367 0,1.107 0.351,2.527 0.87,3.523 0.584,1.12 2.215,2.696 3.385,3.271 1.509,0.742 2.468,0.945 4.237,0.894 1.228,-0.033 1.7,-0.103 2.486,-0.361 z m -3.336,-0.707 c -0.658,-0.148 -0.968,-0.396 -0.756,-0.608 0.105,-0.105 0.319,-0.111 0.805,-0.022 0.491,0.089 0.825,0.079 1.289,-0.04 0.663,-0.169 0.846,-0.136 0.846,0.157 0,0.397 -1.318,0.707 -2.184,0.513 z m -2.346,-2.872 c -0.261,-0.288 -0.255,-0.541 0.021,-0.79 0.32,-0.29 0.712,-0.247 0.942,0.102 0.184,0.281 0.184,0.326 0,0.607 -0.237,0.36 -0.677,0.397 -0.963,0.081 z m 4.706,-0.194 c -0.373,-0.57 0.273,-1.129 0.861,-0.744 0.34,0.223 0.384,0.571 0.107,0.848 -0.286,0.286 -0.745,0.237 -0.968,-0.104 z m -1.565,-5.469 c 0.291,-1.664 0.46,-2.135 0.681,-1.904 0.045,0.047 0.209,0.796 0.364,1.663 0.321,1.785 0.473,1.954 0.85,0.942 l 0.237,-0.634 2.752,-0.034 c 3.237,-0.038 3.138,0.023 2.372,-1.455 -0.591,-1.139 -1.975,-2.548 -3.136,-3.194 -4.176,-2.321 -9.584,-0.849 -11.679,3.18 -0.283,0.544 -0.514,1.13 -0.514,1.304 v 0.315 l 1.971,-0.002 c 1.084,0 2.033,-0.042 2.108,-0.091 0.075,-0.049 0.581,-0.976 1.123,-2.06 0.925,-1.85 1.116,-2.128 1.279,-1.865 0.036,0.058 0.233,1.273 0.439,2.699 0.383,2.656 0.526,3.263 0.724,3.064 0.061,-0.061 0.254,-0.929 0.429,-1.928 z" />
    <path
       style="fill:#050505;stroke-width:2.31106"
       inkscape:connector-curvature="0"
       id="path23"
       d="m 37.695,354.688 c -0.128,-0.335 -0.083,-6.237 0.05,-6.485 0.067,-0.127 0.504,-0.453 0.97,-0.725 0.466,-0.272 0.847,-0.545 0.847,-0.607 0,-0.062 -0.31,-0.346 -0.689,-0.632 -1.386,-1.044 -2.563,-2.825 -3.002,-4.54 -0.243,-0.947 -0.246,-2.806 -0.007,-3.748 0.1,-0.398 0.41,-1.187 0.687,-1.754 0.404,-0.824 0.714,-1.24 1.546,-2.073 0.864,-0.864 1.237,-1.137 2.194,-1.607 1.659,-0.815 2.42,-0.989 4.306,-0.982 1.109,0.003 1.804,0.068 2.345,0.216 4.402,1.211 7.145,5.247 6.401,9.42 -0.341,1.915 -1.707,4.103 -3.215,5.147 -0.273,0.189 -0.497,0.389 -0.497,0.444 0,0.055 0.382,0.322 0.848,0.595 0.541,0.316 0.872,0.592 0.914,0.763 0.036,0.148 0.05,1.715 0.031,3.483 l -0.034,3.215 -6.81,0.03 c -6.132,0.029 -6.818,0.011 -6.885,-0.161 z m 6.598,-1.75 c 0.056,-1.173 0.08,-1.274 0.304,-1.274 0.223,0 0.247,0.101 0.303,1.274 l 0.061,1.274 h 2.909 c 2.723,0 2.913,-0.016 2.953,-0.222 0.102,-0.53 -0.121,-0.801 -1.429,-1.737 -0.732,-0.524 -1.361,-1.026 -1.397,-1.115 -0.098,-0.244 0.036,-0.384 0.367,-0.384 0.292,0 0.297,-0.015 0.297,-1.077 0,-0.794 0.046,-1.115 0.176,-1.223 0.341,-0.283 0.43,-0.008 0.43,1.327 0,0.725 0.033,1.403 0.073,1.508 0.104,0.272 1.232,1.075 1.38,0.983 0.189,-0.116 0.163,-3.727 -0.027,-3.966 -0.084,-0.105 -0.504,-0.392 -0.934,-0.64 -0.878,-0.505 -0.915,-0.505 -2.312,0.016 -0.853,0.316 -1.03,0.338 -2.85,0.341 -1.881,0.003 -1.976,-0.008 -3.068,-0.39 l -1.126,-0.393 -0.973,0.565 c -0.535,0.311 -1.024,0.662 -1.087,0.78 -0.064,0.118 -0.115,0.984 -0.115,1.925 0,1.372 0.034,1.723 0.174,1.776 0.216,0.083 1.245,-0.507 1.406,-0.807 0.065,-0.122 0.118,-0.795 0.118,-1.496 0,-1.318 0.124,-1.66 0.443,-1.224 0.106,0.145 0.164,0.578 0.164,1.233 v 1.01 l 0.496,-0.079 c 0.469,-0.075 0.493,-0.064 0.455,0.205 -0.032,0.221 -0.387,0.489 -1.58,1.191 -1.576,0.927 -1.792,1.158 -1.612,1.725 0.072,0.225 0.2,0.233 3.008,0.202 l 2.933,-0.033 z m 2.972,-5.863 c 2.474,-0.81 4.446,-2.715 5.234,-5.055 0.293,-0.871 0.305,-3.256 0.021,-4.264 -0.49,-1.744 -1.999,-3.606 -3.676,-4.538 -3.408,-1.894 -7.698,-1.319 -10.374,1.391 -2.247,2.277 -2.789,5.66 -1.368,8.533 0.611,1.235 2.169,2.775 3.44,3.4 1.51,0.742 2.468,0.944 4.237,0.894 1.228,-0.033 1.701,-0.104 2.486,-0.361 z m -3.336,-0.707 c -0.658,-0.148 -0.968,-0.396 -0.756,-0.608 0.105,-0.105 0.319,-0.111 0.805,-0.022 0.491,0.089 0.825,0.079 1.289,-0.04 0.663,-0.169 0.846,-0.136 0.846,0.157 0,0.397 -1.318,0.707 -2.184,0.513 z m -2.346,-2.872 c -0.261,-0.288 -0.255,-0.541 0.021,-0.79 0.32,-0.29 0.712,-0.247 0.942,0.102 0.184,0.281 0.184,0.326 0,0.607 -0.237,0.36 -0.677,0.397 -0.963,0.081 z m 4.706,-0.194 c -0.373,-0.57 0.273,-1.129 0.861,-0.744 0.34,0.223 0.384,0.571 0.107,0.848 -0.286,0.286 -0.745,0.237 -0.968,-0.104 z" />
  </g>
  <g
     inkscape:groupmode="layer"
     id="layer1"
     inkscape:label="widgets"
     style="display:none">
    <rect
       style="fill:#00ff00;fill-opacity:1;stroke:none;stroke-width:2.09074736;stroke-miterlimit:4;stroke-dasharray:none;stroke-opacity:1"
       id="CLOCK"
       width="32"
       height="32"
       x="17.013702"
       y="40.085506"
       inkscape:label="#rect1279" />
    <rect
       style="fill:#00ff00;fill-opacity:1;stroke:none;stroke-width:0.98003787;stroke-miterlimit:4;stroke-dasharray:none;stroke-opacity:1"
       id="ROT_RIGHT"
       width="15"
       height="15"
       x="61.344215"
       y="176.88031"
       inkscape:label="#rect1305" />
    <rect
       y="54.189999"
       x="559.08063"
       height="15"
       width="15"
       id="VOCT_1"
       style="fill:#0000ff;fill-opacity:1;stroke:none;stroke-width:0.98003799;stroke-miterlimit:4;stroke-dasharray:none;stroke-opacity:1"
       inkscape:label="#rect1317" />
    <rect
       style="isolation:isolate;fill:#000000;fill-opacity:1;stroke:none;stroke-width:1.88735402;stroke-miterlimit:4;stroke-dasharray:none;stroke-opacity:1"
       id="rect823"
       width="376"
       height="492.22223"
       x="172"
       y="-40" />
    <g
       aria-label="TODO  REMOVE"
       style="font-style:normal;font-variant:normal;font-weight:normal;font-stretch:normal;font-size:40px;line-height:1.25;font-family:monospace;-inkscape-font-specification:'monospace, Normal';font-variant-ligatures:normal;font-variant-caps:normal;font-variant-numeric:normal;font-feature-settings:normal;text-align:center;letter-spacing:0px;word-spacing:0px;writing-mode:lr-tb;text-anchor:middle;isolation:isolate;fill:#ff0000;fill-opacity:1;stroke:none"
       id="text827">
      <path
         d="m 315.0152,159.72873 h 22.24609 v 3.32031 h -9.12109 v 25.83985 h -3.96485 v -25.83985 h -9.16015 z"
         id="path1257"
         inkscape:connector-curvature="0" />
      <path
         d="m 355.83551,174.3381 q 0,-6.42578 -1.32812,-9.17968 -1.3086,-2.75391 -4.31641,-2.75391 -2.98828,0 -4.31641,2.75391 -1.30859,2.7539 -1.30859,9.17968 0,6.40625 1.30859,9.16016 1.32813,2.75391 4.31641,2.75391 3.00781,0 4.31641,-2.73438 1.32812,-2.7539 1.32812,-9.17969 z m 4.12109,0 q 0,7.61719 -2.42187,11.36719 -2.40234,3.75 -7.34375,3.75 -4.94141,0 -7.34375,-3.73047 -2.40234,-3.73047 -2.40234,-11.38672 0,-7.63671 2.40234,-11.38671 2.42187,-3.75 7.34375,-3.75 4.94141,0 7.34375,3.75 2.42187,3.75 2.42187,11.38671 z"
         id="path1259"
         inkscape:connector-curvature="0" />
      <path
         d="m 370.73785,185.6467 q 4.98047,0 6.95313,-2.44141 1.97266,-2.46094 1.97266,-8.86719 0,-6.46484 -1.97266,-8.90625 -1.95313,-2.46093 -6.95313,-2.46093 h -1.875 v 22.67578 z m 0.0781,-25.91797 q 6.67969,0 9.84375,3.55469 3.16406,3.55468 3.16406,11.05468 0,7.46094 -3.16406,11.01563 -3.16406,3.53516 -9.84375,3.53516 h -5.91797 v -29.16016 z"
         id="path1261"
         inkscape:connector-curvature="0" />
      <path
         d="m 403.96051,174.3381 q 0,-6.42578 -1.32812,-9.17968 -1.3086,-2.75391 -4.31641,-2.75391 -2.98828,0 -4.31641,2.75391 -1.30859,2.7539 -1.30859,9.17968 0,6.40625 1.30859,9.16016 1.32813,2.75391 4.31641,2.75391 3.00781,0 4.31641,-2.73438 1.32812,-2.7539 1.32812,-9.17969 z m 4.12109,0 q 0,7.61719 -2.42187,11.36719 -2.40234,3.75 -7.34375,3.75 -4.94141,0 -7.34375,-3.73047 -2.40234,-3.73047 -2.40234,-11.38672 0,-7.63671 2.40234,-11.38671 2.42187,-3.75 7.34375,-3.75 4.94141,0 7.34375,3.75 2.42187,3.75 2.42187,11.38671 z"
         id="path1263"
         inkscape:connector-curvature="0" />
      <path
         d="m 304.87848,225.11935 q 1.52344,0.39063 2.59766,1.48438 1.07421,1.07422 2.67578,4.31641 l 3.96484,7.96875 h -4.23828 l -3.47656,-7.36329 q -1.50391,-3.14453 -2.71485,-4.04296 -1.1914,-0.91797 -3.125,-0.91797 h -3.76953 v 12.32422 h -3.96484 v -29.16016 h 8.125 q 4.80469,0 7.36328,2.16797 2.55859,2.16797 2.55859,6.26953 0,2.89062 -1.58203,4.72656 -1.5625,1.81641 -4.41406,2.22656 z m -8.08594,-12.14843 v 10.35156 h 4.31641 q 2.83203,0 4.21875,-1.26953 1.38672,-1.26953 1.38672,-3.88672 0,-2.51953 -1.48438,-3.84766 -1.46484,-1.34765 -4.27734,-1.34765 z"
         id="path1265"
         inkscape:connector-curvature="0" />
      <path
         d="m 317.94489,209.72873 h 17.30468 v 3.32031 H 321.8902 v 8.63281 h 12.77344 v 3.32032 H 321.8902 v 10.5664 h 13.73047 v 3.32032 h -17.67578 z"
         id="path1267"
         inkscape:connector-curvature="0" />
      <path
         d="m 339.83942,209.72873 h 5.27343 l 5.03907,14.84375 5.07812,-14.84375 h 5.29297 v 29.16016 h -3.65234 v -25.76172 l -5.19532,15.37109 h -2.98828 l -5.21484,-15.37109 v 25.76172 h -3.63281 z"
         id="path1269"
         inkscape:connector-curvature="0" />
      <path
         d="m 379.89801,224.3381 q 0,-6.42578 -1.32812,-9.17968 -1.3086,-2.75391 -4.31641,-2.75391 -2.98828,0 -4.31641,2.75391 -1.30859,2.7539 -1.30859,9.17968 0,6.40625 1.30859,9.16016 1.32813,2.75391 4.31641,2.75391 3.00781,0 4.31641,-2.73438 1.32812,-2.7539 1.32812,-9.17969 z m 4.12109,0 q 0,7.61719 -2.42187,11.36719 -2.40234,3.75 -7.34375,3.75 -4.94141,0 -7.34375,-3.73047 -2.40234,-3.73047 -2.40234,-11.38672 0,-7.63671 2.40234,-11.38671 2.42187,-3.75 7.34375,-3.75 4.94141,0 7.34375,3.75 2.42187,3.75 2.42187,11.38671 z"
         id="path1271"
         inkscape:connector-curvature="0" />
      <path
         d="m 398.31598,235.56857 6.85547,-25.83984 h 4.08203 l -8.53516,29.16016 h -4.78515 l -8.53516,-29.16016 h 4.08203 z"
         id="path1273"
         inkscape:connector-curvature="0" />
      <path
         d="m 414.19489,209.72873 h 17.30468 v 3.32031 H 418.1402 v 8.63281 h 12.77344 v 3.32032 H 418.1402 v 10.5664 h 13.73047 v 3.32032 h -17.67578 z"
         id="path1275"
         inkscape:connector-curvature="0" />
    </g>
    <rect
       style="fill:#0000ff;fill-opacity:1;stroke:none;stroke-width:0.98003787;stroke-miterlimit:4;stroke-dasharray:none;stroke-opacity:1"
       id="VOCT_2"
       width="15"
       height="15"
       x="559.08063"
       y="78.665947"
       inkscape:label="#rect1333" />
    <rect
       y="103.14216"
       x="559.08063"
       height="15"
       width="15"
       id="VOCT_3"
       style="fill:#0000ff;fill-opacity:1;stroke:none;stroke-width:0.98003787;stroke-miterlimit:4;stroke-dasharray:none;stroke-opacity:1"
       inkscape:label="#rect1337" />
    <rect
       style="fill:#0000ff;fill-opacity:1;stroke:none;stroke-width:0.98003787;stroke-miterlimit:4;stroke-dasharray:none;stroke-opacity:1"
       id="VOCT_4"
       width="15"
       height="15"
       x="559.08063"
       y="127.61829"
       inkscape:label="#rect1341" />
    <rect
       y="152.09445"
       x="559.08063"
       height="15"
       width="15"
       id="VOCT_5"
       style="fill:#0000ff;fill-opacity:1;stroke:none;stroke-width:0.98003787;stroke-miterlimit:4;stroke-dasharray:none;stroke-opacity:1"
       inkscape:label="#rect1345" />
    <rect
       style="fill:#0000ff;fill-opacity:1;stroke:none;stroke-width:0.98003787;stroke-miterlimit:4;stroke-dasharray:none;stroke-opacity:1"
       id="VOCT_6"
       width="15"
       height="15"
       x="559.08063"
       y="176.5706"
       inkscape:label="#rect1349" />
    <rect
       y="201.04675"
       x="559.08063"
       height="15"
       width="15"
       id="VOCT_7"
       style="fill:#0000ff;fill-opacity:1;stroke:none;stroke-width:0.98003787;stroke-miterlimit:4;stroke-dasharray:none;stroke-opacity:1"
       inkscape:label="#rect1351" />
    <rect
       style="fill:#0000ff;fill-opacity:1;stroke:none;stroke-width:0.98003787;stroke-miterlimit:4;stroke-dasharray:none;stroke-opacity:1"
       id="VOCT_8"
       width="15"
       height="15"
       x="559.08063"
       y="225.52292"
       inkscape:label="#rect1353" />
    <rect
       y="249.99908"
       x="559.08063"
       height="15"
       width="15"
       id="VOCT_9"
       style="fill:#0000ff;fill-opacity:1;stroke:none;stroke-width:0.98003787;stroke-miterlimit:4;stroke-dasharray:none;stroke-opacity:1"
       inkscape:label="#rect1355" />
    <rect
       style="fill:#0000ff;fill-opacity:1;stroke:none;stroke-width:0.98003787;stroke-miterlimit:4;stroke-dasharray:none;stroke-opacity:1"
       id="VOCT_10"
       width="15"
       height="15"
       x="559.08063"
       y="274.47522"
       inkscape:label="#rect1357" />
    <rect
       style="fill:#0000ff;fill-opacity:1;stroke:none;stroke-width:0.98003787;stroke-miterlimit:4;stroke-dasharray:none;stroke-opacity:1"
       id="GATE_1"
       width="15"
       height="15"
       x="591.8584"
       y="54.189823"
       inkscape:label="#rect1369" />
    <rect
       y="78.665947"
       x="591.8584"
       height="15"
       width="15"
       id="GATE_2"
       style="fill:#0000ff;fill-opacity:1;stroke:none;stroke-width:0.98003787;stroke-miterlimit:4;stroke-dasharray:none;stroke-opacity:1"
       inkscape:label="#rect1371" />
    <rect
       style="fill:#0000ff;fill-opacity:1;stroke:none;stroke-width:0.98003787;stroke-miterlimit:4;stroke-dasharray:none;stroke-opacity:1"
       id="GATE_3"
       width="15"
       height="15"
       x="591.8584"
       y="103.14216"
       inkscape:label="#rect1373" />
    <rect
       y="127.61829"
       x="591.8584"
       height="15"
       width="15"
       id="GATE_4"
       style="fill:#0000ff;fill-opacity:1;stroke:none;stroke-width:0.98003787;stroke-miterlimit:4;stroke-dasharray:none;stroke-opacity:1"
       inkscape:label="#rect1375" />
    <rect
       style="fill:#0000ff;fill-opacity:1;stroke:none;stroke-width:0.98003787;stroke-miterlimit:4;stroke-dasharray:none;stroke-opacity:1"
       id="GATE_5"
       width="15"
       height="15"
       x="591.8584"
       y="152.09445"
       inkscape:label="#rect1377" />
    <rect
       y="176.5706"
       x="591.8584"
       height="15"
       width="15"
       id="GATE_6"
       style="fill:#0000ff;fill-opacity:1;stroke:none;stroke-width:0.98003787;stroke-miterlimit:4;stroke-dasharray:none;stroke-opacity:1"
       inkscape:label="#rect1379" />
    <rect
       style="fill:#0000ff;fill-opacity:1;stroke:none;stroke-width:0.98003787;stroke-miterlimit:4;stroke-dasharray:none;stroke-opacity:1"
       id="GATE_7"
       width="15"
       height="15"
       x="591.8584"
       y="201.04675"
       inkscape:label="#rect1381" />
    <rect
       y="225.52292"
       x="591.8584"
       height="15"
       width="15"
       id="GATE_8"
       style="fill:#0000ff;fill-opacity:1;stroke:none;stroke-width:0.98003787;stroke-miterlimit:4;stroke-dasharray:none;stroke-opacity:1"
       inkscape:label="#rect1383" />
    <rect
       style="fill:#0000ff;fill-opacity:1;stroke:none;stroke-width:0.98003787;stroke-miterlimit:4;stroke-dasharray:none;stroke-opacity:1"
       id="GATE_9"
       width="15"
       height="15"
       x="591.8584"
       y="249.99908"
       inkscape:label="#rect1385" />
    <rect
       y="274.47522"
       x="591.8584"
       height="15"
       width="15"
       id="GATE_10"
       style="fill:#0000ff;fill-opacity:1;stroke:none;stroke-width:0.98003787;stroke-miterlimit:4;stroke-dasharray:none;stroke-opacity:1"
       inkscape:label="#rect1387" />
    <rect
       style="fill:#0000ff;fill-opacity:1;stroke:none;stroke-width:0.98003787;stroke-miterlimit:4;stroke-dasharray:none;stroke-opacity:1"
       id="MIN_VOCT"
       width="15"
       height="15"
       x="656.30286"
       y="54.74538"
       inkscape:label="#rect1423" />
    <rect
       y="79.221504"
       x="656.30286"
       height="15"
       width="15"
       id="MID_VOCT"
       style="fill:#0000ff;fill-opacity:1;stroke:none;stroke-width:0.98003787;stroke-miterlimit:4;stroke-dasharray:none;stroke-opacity:1"
       inkscape:label="#rect1425" />
    <rect
       style="fill:#0000ff;fill-opacity:1;stroke:none;stroke-width:0.98003787;stroke-miterlimit:4;stroke-dasharray:none;stroke-opacity:1"
       id="MAX_VOCT"
       width="15"
       height="15"
       x="656.30286"
       y="103.69772"
       inkscape:label="#rect1427" />
    <rect
       y="128.17386"
       x="656.30286"
       height="15"
       width="15"
       id="RND_VOCT"
       style="fill:#0000ff;fill-opacity:1;stroke:none;stroke-width:0.98003787;stroke-miterlimit:4;stroke-dasharray:none;stroke-opacity:1"
       inkscape:label="#rect1429" />
    <rect
       y="54.74538"
       x="689.08063"
       height="15"
       width="15"
       id="MIN_GATE"
       style="fill:#0000ff;fill-opacity:1;stroke:none;stroke-width:0.98003787;stroke-miterlimit:4;stroke-dasharray:none;stroke-opacity:1"
       inkscape:label="#rect1431" />
    <rect
       style="fill:#0000ff;fill-opacity:1;stroke:none;stroke-width:0.98003787;stroke-miterlimit:4;stroke-dasharray:none;stroke-opacity:1"
       id="MID_GATE"
       width="15"
       height="15"
       x="689.08063"
       y="79.221504"
       inkscape:label="#rect1433" />
    <rect
       y="103.69772"
       x="689.08063"
       height="15"
       width="15"
       id="MAX_GATE"
       style="fill:#0000ff;fill-opacity:1;stroke:none;stroke-width:0.98003787;stroke-miterlimit:4;stroke-dasharray:none;stroke-opacity:1"
       inkscape:label="#rect1435" />
    <rect
       style="fill:#0000ff;fill-opacity:1;stroke:none;stroke-width:0.98003787;stroke-miterlimit:4;stroke-dasharray:none;stroke-opacity:1"
       id="RND_GATE"
       width="15"
       height="15"
       x="689.08063"
       y="128.17386"
       inkscape:label="#rect1437" />
    <rect
       y="43.085506"
       x="71.854126"
       height="26"
       width="26"
       id="STEP_BTN"
       style="fill:#ff0000;fill-opacity:1;stroke:none;stroke-width:1.69873238;stroke-miterlimit:4;stroke-dasharray:none;stroke-opacity:1"
       inkscape:label="#rect1439" />
    <rect
       style="fill:#ff0000;fill-opacity:1;stroke:none;stroke-width:1.69873238;stroke-miterlimit:4;stroke-dasharray:none;stroke-opacity:1"
       id="PLAY_MODE_KNOB"
       width="26"
       height="26"
       x="123.4553"
       y="43.085506"
       inkscape:label="#rect1441" />
    <rect
       y="336.88031"
       x="126.41925"
       height="15"
       width="15"
       id="ONE_PER_COL_SWITCH"
       style="fill:#ff0000;fill-opacity:1;stroke:none;stroke-width:0.98003787;stroke-miterlimit:4;stroke-dasharray:none;stroke-opacity:1"
       inkscape:label="#rect1447" />
    <rect
       style="fill:#ff0000;fill-opacity:1;stroke:none;stroke-width:0.98003787;stroke-miterlimit:4;stroke-dasharray:none;stroke-opacity:1"
       id="ROT_RIGHT_BTN"
       width="15"
       height="15"
       x="82.564194"
       y="176.88031"
       inkscape:label="#rect1449" />
    <rect
       style="fill:#ff0000;fill-opacity:1;stroke:none;stroke-width:1.69873238;stroke-miterlimit:4;stroke-dasharray:none;stroke-opacity:1"
       id="LOW_MID_HIGH_SWITCH"
       width="26"
       height="26"
       x="556.33563"
       y="335.53592"
       inkscape:label="#rect1465" />
    <rect
       y="335.53592"
       x="599.12952"
       height="26"
       width="26"
       id="SCALE_KNOB"
       style="fill:#ff0000;fill-opacity:1;stroke:none;stroke-width:1.69873238;stroke-miterlimit:4;stroke-dasharray:none;stroke-opacity:1"
       inkscape:label="#rect1467" />
    <rect
       style="fill:#ff0000;fill-opacity:1;stroke:none;stroke-width:1.69873238;stroke-miterlimit:4;stroke-dasharray:none;stroke-opacity:1"
       id="NOTE_KNOB"
       width="26"
       height="26"
       x="641.92346"
       y="335.53592"
       inkscape:label="#rect1469" />
    <rect
       y="335.53592"
       x="684.71735"
       height="26"
       width="26"
       id="OCTAVE_KNOB"
       style="fill:#ff0000;fill-opacity:1;stroke:none;stroke-width:1.69873238;stroke-miterlimit:4;stroke-dasharray:none;stroke-opacity:1"
       inkscape:label="#rect1471" />
    <rect
       y="176.88031"
       x="116.34422"
       height="15"
       width="15"
       id="ROT_LEFT"
       style="fill:#00ff00;fill-opacity:1;stroke:none;stroke-width:0.98003787;stroke-miterlimit:4;stroke-dasharray:none;stroke-opacity:1"
       inkscape:label="#rect1473" />
    <rect
       y="176.88031"
       x="137.56419"
       height="15"
       width="15"
       id="ROT_LEFT_BTN"
       style="fill:#ff0000;fill-opacity:1;stroke:none;stroke-width:0.98003787;stroke-miterlimit:4;stroke-dasharray:none;stroke-opacity:1"
       inkscape:label="#rect1475" />
    <rect
       y="196.09796"
       x="61.344215"
       height="15"
       width="15"
       id="FLIP_RIGHT"
       style="fill:#00ff00;fill-opacity:1;stroke:none;stroke-width:0.98003787;stroke-miterlimit:4;stroke-dasharray:none;stroke-opacity:1"
       inkscape:label="#rect1477" />
    <rect
       y="196.09796"
       x="82.564194"
       height="15"
       width="15"
       id="FLIP_RIGHT_BTN"
       style="fill:#ff0000;fill-opacity:1;stroke:none;stroke-width:0.98003787;stroke-miterlimit:4;stroke-dasharray:none;stroke-opacity:1"
       inkscape:label="#rect1479" />
    <rect
       style="fill:#00ff00;fill-opacity:1;stroke:none;stroke-width:0.98003787;stroke-miterlimit:4;stroke-dasharray:none;stroke-opacity:1"
       id="FLIP_LEFT"
       width="15"
       height="15"
       x="116.34422"
       y="196.09796"
       inkscape:label="#rect1481" />
    <rect
       style="fill:#ff0000;fill-opacity:1;stroke:none;stroke-width:0.98003787;stroke-miterlimit:4;stroke-dasharray:none;stroke-opacity:1"
       id="FLIP_LEFT_BTN"
       width="15"
       height="15"
       x="137.56419"
       y="196.09796"
       inkscape:label="#rect1483" />
    <rect
       style="fill:#00ff00;fill-opacity:1;stroke:none;stroke-width:0.98003787;stroke-miterlimit:4;stroke-dasharray:none;stroke-opacity:1"
       id="FLIP_UP"
       width="15"
       height="15"
       x="61.344215"
       y="235.98683"
       inkscape:label="#rect1485" />
    <rect
       style="fill:#ff0000;fill-opacity:1;stroke:none;stroke-width:0.98003787;stroke-miterlimit:4;stroke-dasharray:none;stroke-opacity:1"
       id="FLIP_UP_BTN"
       width="15"
       height="15"
       x="82.564194"
       y="235.98683"
       inkscape:label="#rect1487" />
    <rect
       y="235.98683"
       x="116.34422"
       height="15"
       width="15"
       id="FLIP_DOWN"
       style="fill:#00ff00;fill-opacity:1;stroke:none;stroke-width:0.98003787;stroke-miterlimit:4;stroke-dasharray:none;stroke-opacity:1"
       inkscape:label="#rect1489" />
    <rect
       y="235.98683"
       x="137.56419"
       height="15"
       width="15"
       id="FLIP_DOWN_BTN"
       style="fill:#ff0000;fill-opacity:1;stroke:none;stroke-width:0.98003787;stroke-miterlimit:4;stroke-dasharray:none;stroke-opacity:1"
       inkscape:label="#rect1491" />
    <rect
       y="290.20911"
       x="61.344002"
       height="15"
       width="15"
       id="LIFE_MODE"
       style="fill:#00ff00;fill-opacity:1;stroke:none;stroke-width:0.98003787;stroke-miterlimit:4;stroke-dasharray:none;stroke-opacity:1"
       inkscape:label="#rect1493" />
    <rect
       y="290.20911"
       x="82.563972"
       height="15"
       width="15"
       id="LIFE_MODE_SWITCH"
       style="fill:#ff0000;fill-opacity:1;stroke:none;stroke-width:0.98003787;stroke-miterlimit:4;stroke-dasharray:none;stroke-opacity:1"
       inkscape:label="#rect1495" />
    <rect
       style="fill:#00ff00;fill-opacity:1;stroke:none;stroke-width:0.98003787;stroke-miterlimit:4;stroke-dasharray:none;stroke-opacity:1"
       id="LIFE_SPEED"
       width="15"
       height="15"
       x="116.344"
       y="290.20911"
       inkscape:label="#rect1497" />
    <rect
       style="fill:#ff0000;fill-opacity:1;stroke:none;stroke-width:0.98003787;stroke-miterlimit:4;stroke-dasharray:none;stroke-opacity:1"
       id="LIFE_SPEED_KNOB"
       width="15"
       height="15"
       x="137.56398"
       y="290.20911"
       inkscape:label="#rect1499" />
    <rect
       y="113.7692"
       x="61.344002"
       height="15"
       width="15"
       id="RND_TRIG"
       style="fill:#00ff00;fill-opacity:1;stroke:none;stroke-width:0.98003787;stroke-miterlimit:4;stroke-dasharray:none;stroke-opacity:1"
       inkscape:label="#rect1501" />
    <rect
       y="113.7692"
       x="82.56398"
       height="15"
       width="15"
       id="RND_TRIG_BTN"
       style="fill:#ff0000;fill-opacity:1;stroke:none;stroke-width:0.98003787;stroke-miterlimit:4;stroke-dasharray:none;stroke-opacity:1"
       inkscape:label="#rect1503" />
    <rect
       style="fill:#00ff00;fill-opacity:1;stroke:none;stroke-width:0.98003787;stroke-miterlimit:4;stroke-dasharray:none;stroke-opacity:1"
       id="RND_AMT"
       width="15"
       height="15"
       x="116.34401"
       y="113.7692"
       inkscape:label="#rect1505" />
    <rect
       style="fill:#ff0000;fill-opacity:1;stroke:none;stroke-width:0.98003787;stroke-miterlimit:4;stroke-dasharray:none;stroke-opacity:1"
       id="RND_AMT_KNOB"
       width="15"
       height="15"
       x="137.56398"
       y="113.7692"
       inkscape:label="#rect1507" />
  </g>
  <g
     id="text2"
     style="font-weight:bold;font-size:8px;-inkscape-font-specification:'sans-serif Bold';text-align:center;text-anchor:middle;fill:#ffffff;stroke-width:1.002"
     aria-label="Shift&#10;Register&#10;Random"
     transform="translate(-0.29008955)">
    <path
       d="m 17.313528,20.282522 q 0,0.859375 -0.730469,1.398438 -0.726562,0.535156 -1.976562,0.535156 -0.722656,0 -1.261719,-0.125 -0.535156,-0.128906 -1.003906,-0.324219 v -1.394531 h 0.164062 q 0.464844,0.371094 1.039063,0.570312 0.578125,0.199219 1.109375,0.199219 0.136719,0 0.359375,-0.02344 0.222656,-0.02344 0.363281,-0.07813 0.171875,-0.07031 0.28125,-0.175782 0.113281,-0.105468 0.113281,-0.3125 0,-0.191406 -0.164062,-0.328125 -0.160156,-0.140625 -0.472656,-0.214843 -0.328125,-0.07813 -0.695313,-0.144532 -0.363281,-0.07031 -0.683594,-0.175781 -0.734375,-0.238281 -1.058593,-0.644531 -0.320313,-0.410156 -0.320313,-1.015625 0,-0.8125 0.726563,-1.324219 0.730468,-0.515625 1.875,-0.515625 0.574218,0 1.132812,0.113281 0.5625,0.109375 0.972656,0.277344 v 1.339844 h -0.160156 q -0.351562,-0.28125 -0.863281,-0.46875 -0.507813,-0.191406 -1.039063,-0.191406 -0.1875,0 -0.375,0.02734 -0.183593,0.02344 -0.355468,0.09375 -0.152344,0.05859 -0.261719,0.179688 -0.109375,0.117187 -0.109375,0.269531 0,0.230469 0.175781,0.355469 0.175781,0.121094 0.664063,0.222656 0.320312,0.06641 0.613281,0.128906 0.296875,0.0625 0.636719,0.171875 0.667968,0.21875 0.984375,0.597657 0.320312,0.375 0.320312,0.976562 z m 5.355469,1.828125 h -1.414063 v -2.175781 q 0,-0.265625 -0.02734,-0.527344 -0.02734,-0.265625 -0.09375,-0.390625 -0.07813,-0.144531 -0.230469,-0.210937 -0.148438,-0.06641 -0.417969,-0.06641 -0.191406,0 -0.390625,0.0625 -0.195312,0.0625 -0.425781,0.199219 v 3.109375 H 18.26275 V 16.032519 H 19.669 V 18.2083 q 0.375,-0.292968 0.71875,-0.449218 0.347656,-0.15625 0.769531,-0.15625 0.710938,0 1.109375,0.414062 0.402344,0.414063 0.402344,1.238281 z m 2.699219,0 h -1.40625 v -4.386719 h 1.40625 z m 0.03906,-5.011719 h -1.484375 v -1.066406 h 1.484375 z m 4.132813,-0.03516 H 29.43462 q -0.09375,-0.02734 -0.246094,-0.0625 -0.148437,-0.03516 -0.320312,-0.03516 -0.414063,0 -0.5625,0.148437 -0.144532,0.148438 -0.144532,0.574219 v 0.03516 h 1.085938 v 0.953125 h -1.039063 v 3.433594 h -1.40625 v -3.433594 h -0.601562 v -0.953125 h 0.601562 v -0.121093 q 0,-0.804688 0.425782,-1.207032 0.429687,-0.402343 1.296875,-0.402343 0.3125,0 0.566406,0.02344 0.253906,0.01953 0.449219,0.05469 z m 3.339843,5.007813 q -0.226562,0.05859 -0.480468,0.08984 -0.253907,0.03516 -0.621094,0.03516 -0.820313,0 -1.222656,-0.332032 -0.398438,-0.332031 -0.398438,-1.136718 v -2.050782 h -0.578125 v -0.953125 h 0.578125 v -1.253906 h 1.40625 v 1.253906 h 1.316406 v 0.953125 h -1.316406 v 1.554688 q 0,0.230469 0.0039,0.402344 0.0039,0.171875 0.0625,0.308593 0.05469,0.136719 0.191407,0.21875 0.140625,0.07813 0.40625,0.07813 0.109375,0 0.285156,-0.04687 0.179687,-0.04687 0.25,-0.08594 h 0.117187 z"
       id="path5"
       style="fill:#ffffff" />
    <path
       d="m 7.7002468,28.075491 q 0,-0.21875 -0.089844,-0.375 -0.089844,-0.15625 -0.3085938,-0.246094 -0.1523437,-0.0625 -0.3554687,-0.07422 -0.203125,-0.01563 -0.4726563,-0.01563 H 5.9307156 v 1.566407 h 0.4609375 q 0.359375,0 0.6015625,-0.03516 0.2421875,-0.03516 0.40625,-0.160156 0.15625,-0.121094 0.2265625,-0.265625 0.074219,-0.148437 0.074219,-0.394531 z m 2.3398442,4.035156 H 8.2080593 L 6.6221218,29.977835 H 5.9307156 v 2.132812 H 4.4385281 v -5.816406 h 2.515625 q 0.515625,0 0.8867187,0.05859 0.3710938,0.05859 0.6953125,0.253906 0.328125,0.195312 0.5195313,0.507812 0.1953125,0.308594 0.1953125,0.777344 0,0.644531 -0.3007813,1.050781 -0.296875,0.40625 -0.8515625,0.675782 z m 4.898437,-1.933594 h -3.21875 q 0.03125,0.515625 0.390625,0.789063 0.363281,0.273437 1.066406,0.273437 0.445313,0 0.863282,-0.160156 0.417968,-0.160156 0.660156,-0.34375 h 0.15625 v 1.128906 q -0.476563,0.191407 -0.898438,0.277344 -0.421875,0.08594 -0.933593,0.08594 -1.320313,0 -2.023438,-0.59375 -0.703125,-0.59375 -0.703125,-1.691407 0,-1.085937 0.664063,-1.71875 0.667968,-0.636718 1.828125,-0.636718 1.070312,0 1.609375,0.542968 0.539062,0.539063 0.539062,1.554688 z m -1.398437,-0.824218 q -0.01172,-0.441407 -0.21875,-0.664063 -0.207032,-0.222656 -0.644532,-0.222656 -0.40625,0 -0.667968,0.210937 -0.261719,0.210938 -0.292969,0.675782 z m 6.65625,2.253906 q 0,0.617187 -0.175782,1.039062 -0.175781,0.421875 -0.492187,0.660157 -0.316406,0.242187 -0.765625,0.347656 -0.445313,0.109375 -1.007813,0.109375 -0.457031,0 -0.902343,-0.05469 -0.441407,-0.05469 -0.765625,-0.132812 v -1.097656 h 0.171875 q 0.257812,0.101562 0.628906,0.183593 0.371094,0.08594 0.664062,0.08594 0.390625,0 0.632813,-0.07422 0.246094,-0.07031 0.375,-0.203125 0.121094,-0.125 0.175781,-0.320312 0.05469,-0.195313 0.05469,-0.46875 v -0.08203 q -0.253907,0.207032 -0.5625,0.328125 -0.308594,0.121094 -0.6875,0.121094 -0.921875,0 -1.421875,-0.554687 -0.5,-0.554688 -0.5,-1.6875 0,-0.542969 0.152343,-0.9375 0.152344,-0.394532 0.429688,-0.6875 0.257812,-0.273438 0.632812,-0.425782 0.378907,-0.152343 0.773438,-0.152343 0.355469,0 0.644531,0.08594 0.292969,0.08203 0.53125,0.230469 l 0.05078,-0.195313 h 1.363282 z m -1.40625,-0.878906 v -1.988282 q -0.121094,-0.05078 -0.296875,-0.07813 -0.175782,-0.03125 -0.316407,-0.03125 -0.554687,0 -0.832031,0.320313 -0.277344,0.316406 -0.277344,0.886719 0,0.632812 0.234375,0.882812 0.238282,0.25 0.703125,0.25 0.210938,0 0.414063,-0.06641 0.203125,-0.06641 0.371094,-0.175781 z m 4.140625,1.382812 h -1.40625 v -4.386719 h 1.40625 z m 0.03906,-5.011719 h -1.484375 v -1.066406 h 1.484375 z m 5.101563,3.621094 q 0,0.679688 -0.609375,1.097656 -0.609375,0.414063 -1.667969,0.414063 -0.585938,0 -1.0625,-0.109375 -0.476563,-0.109375 -0.765625,-0.242188 v -1.15625 h 0.128906 q 0.105469,0.07422 0.242188,0.164063 0.140625,0.08594 0.394531,0.1875 0.21875,0.08984 0.496094,0.15625 0.277343,0.0625 0.59375,0.0625 0.414062,0 0.613281,-0.08984 0.199219,-0.09375 0.199219,-0.273437 0,-0.160157 -0.117188,-0.230469 -0.117187,-0.07422 -0.445312,-0.140625 -0.15625,-0.03516 -0.425782,-0.07422 -0.265625,-0.04297 -0.484375,-0.101562 -0.597656,-0.15625 -0.886718,-0.484375 -0.289063,-0.332032 -0.289063,-0.824219 0,-0.632813 0.597656,-1.050781 0.601563,-0.421875 1.640625,-0.421875 0.492188,0 0.941407,0.101562 0.453125,0.09766 0.707031,0.210938 v 1.109375 h -0.121094 q -0.3125,-0.214844 -0.714844,-0.347657 -0.398437,-0.136718 -0.808593,-0.136718 -0.339844,0 -0.574219,0.09375 -0.230469,0.09375 -0.230469,0.265625 0,0.15625 0.105469,0.238281 0.105469,0.08203 0.496094,0.164062 0.214843,0.04297 0.460937,0.08594 0.25,0.03906 0.5,0.101562 0.554688,0.144532 0.820313,0.457032 0.265625,0.308593 0.265625,0.773437 z m 3.738281,1.351563 q -0.226563,0.05859 -0.480469,0.08984 -0.253906,0.03516 -0.621094,0.03516 -0.820312,0 -1.222656,-0.332032 -0.398437,-0.332031 -0.398437,-1.136718 v -2.050782 h -0.578125 v -0.953125 h 0.578125 v -1.253906 h 1.40625 v 1.253906 h 1.316406 v 0.953125 h -1.316406 v 1.554688 q 0,0.230469 0.0039,0.402344 0.0039,0.171875 0.0625,0.308593 0.05469,0.136719 0.191406,0.21875 0.140625,0.07813 0.40625,0.07813 0.109375,0 0.285156,-0.04687 0.179688,-0.04687 0.25,-0.08594 h 0.117188 z m 5.160156,-1.894532 h -3.21875 q 0.03125,0.515625 0.390625,0.789063 0.363281,0.273437 1.066406,0.273437 0.445313,0 0.863282,-0.160156 0.417968,-0.160156 0.660156,-0.34375 h 0.15625 v 1.128906 q -0.476563,0.191407 -0.898438,0.277344 -0.421875,0.08594 -0.933593,0.08594 -1.320313,0 -2.023438,-0.59375 -0.703125,-0.59375 -0.703125,-1.691407 0,-1.085937 0.664063,-1.71875 0.667968,-0.636718 1.828125,-0.636718 1.070312,0 1.609375,0.542968 0.539062,0.539063 0.539062,1.554688 z m -1.398437,-0.824218 q -0.01172,-0.441407 -0.21875,-0.664063 -0.207032,-0.222656 -0.644532,-0.222656 -0.40625,0 -0.667968,0.210937 -0.261719,0.210938 -0.292969,0.675782 z m 5.570312,-0.289063 h -0.125 q -0.08984,-0.03125 -0.289062,-0.04687 -0.199219,-0.01563 -0.332032,-0.01563 -0.300781,0 -0.53125,0.03906 -0.230468,0.03906 -0.496093,0.132812 v 2.9375 h -1.40625 v -4.386719 h 1.40625 v 0.644532 q 0.464843,-0.398438 0.808593,-0.527344 0.34375,-0.132813 0.632813,-0.132813 0.07422,0 0.167969,0.0039 0.09375,0.0039 0.164062,0.01172 z"
       id="path6"
       style="fill:#ffffff" />
    <path
       d="m 8.0635281,38.075491 q 0,-0.21875 -0.089844,-0.375 -0.089844,-0.15625 -0.3085937,-0.246094 -0.1523438,-0.0625 -0.3554688,-0.07422 -0.203125,-0.01563 -0.4726562,-0.01563 H 6.2939968 v 1.566407 h 0.4609375 q 0.359375,0 0.6015625,-0.03516 0.2421875,-0.03516 0.40625,-0.160156 0.15625,-0.121094 0.2265625,-0.265625 0.074219,-0.148437 0.074219,-0.394531 z m 2.3398439,4.035156 H 8.5713406 L 6.9854031,39.977835 H 6.2939968 v 2.132812 H 4.8018093 v -5.816406 h 2.515625 q 0.515625,0 0.8867188,0.05859 0.3710937,0.05859 0.6953125,0.253906 0.328125,0.195312 0.5195312,0.507812 0.1953125,0.308594 0.1953125,0.777344 0,0.644531 -0.3007812,1.050781 -0.296875,0.40625 -0.8515625,0.675782 z m 3.234375,-1.144531 v -0.914063 q -0.285156,0.02344 -0.617188,0.06641 -0.332031,0.03906 -0.503906,0.09375 -0.210937,0.06641 -0.324219,0.195312 -0.109375,0.125 -0.109375,0.332031 0,0.136719 0.02344,0.222657 0.02344,0.08594 0.117187,0.164062 0.08984,0.07813 0.214844,0.117188 0.125,0.03516 0.390625,0.03516 0.210938,0 0.425781,-0.08594 0.21875,-0.08594 0.382813,-0.226562 z m 0,0.679687 q -0.113281,0.08594 -0.28125,0.207032 -0.167969,0.121093 -0.316406,0.191406 -0.207032,0.09375 -0.429688,0.136719 -0.222656,0.04687 -0.488281,0.04687 -0.625,0 -1.046875,-0.386719 -0.421875,-0.386719 -0.421875,-0.988281 0,-0.480469 0.214844,-0.785157 0.214843,-0.304687 0.609375,-0.480468 0.390625,-0.175782 0.96875,-0.25 0.578125,-0.07422 1.199218,-0.109375 v -0.02344 q 0,-0.363281 -0.296875,-0.5 -0.296875,-0.140625 -0.875,-0.140625 -0.347656,0 -0.742187,0.125 -0.394531,0.121094 -0.566406,0.1875 h -0.128907 v -1.058594 q 0.222657,-0.05859 0.722657,-0.136718 0.503906,-0.08203 1.007812,-0.08203 1.199219,0 1.730469,0.371094 0.535156,0.367188 0.535156,1.15625 v 2.984375 h -1.394531 z m 7.09375,0.464844 h -1.414063 v -2.175781 q 0,-0.265625 -0.02734,-0.527344 -0.02734,-0.265625 -0.09375,-0.390625 -0.07813,-0.144531 -0.230469,-0.210937 -0.148438,-0.06641 -0.417969,-0.06641 -0.191406,0 -0.390625,0.0625 -0.195312,0.0625 -0.425781,0.199219 v 3.109375 H 16.32525 V 37.723925 H 17.7315 V 38.2083 q 0.375,-0.292968 0.71875,-0.449218 0.347656,-0.15625 0.769531,-0.15625 0.710938,0 1.109375,0.414062 0.402344,0.414063 0.402344,1.238281 z m 5.558594,0 h -1.40625 v -0.457031 q -0.363282,0.296875 -0.679688,0.4375 -0.316406,0.140625 -0.730469,0.140625 -0.800781,0 -1.28125,-0.617188 -0.480468,-0.617187 -0.480468,-1.664062 0,-0.558594 0.160156,-0.988281 0.164062,-0.433594 0.445312,-0.742188 0.265625,-0.292969 0.644532,-0.453125 0.378906,-0.164062 0.757812,-0.164062 0.394531,0 0.644531,0.08594 0.253907,0.08203 0.519532,0.210938 v -1.867188 h 1.40625 z m -1.40625,-1.210937 v -2.152344 q -0.148438,-0.0625 -0.3125,-0.08984 -0.164063,-0.02734 -0.300782,-0.02734 -0.554687,0 -0.832031,0.347657 -0.277344,0.34375 -0.277344,0.957031 0,0.644531 0.222657,0.9375 0.222656,0.289062 0.714843,0.289062 0.191407,0 0.40625,-0.07031 0.214844,-0.07422 0.378907,-0.191406 z m 7.21875,-0.980469 q 0,1.082031 -0.632813,1.707031 -0.628906,0.621094 -1.769531,0.621094 -1.140625,0 -1.773438,-0.621094 -0.628906,-0.625 -0.628906,-1.707031 0,-1.089844 0.632813,-1.710938 0.636718,-0.621093 1.769531,-0.621093 1.148437,0 1.773437,0.625 0.628907,0.625 0.628907,1.707031 z m -1.730469,1.066406 q 0.136719,-0.167969 0.203125,-0.402344 0.07031,-0.238281 0.07031,-0.65625 0,-0.386718 -0.07031,-0.648437 -0.07031,-0.261719 -0.195313,-0.417969 -0.125,-0.160156 -0.300781,-0.226562 -0.175781,-0.06641 -0.378906,-0.06641 -0.203125,0 -0.363281,0.05469 -0.15625,0.05469 -0.300782,0.21875 -0.128906,0.152344 -0.207031,0.417969 -0.07422,0.265625 -0.07422,0.667968 0,0.359375 0.06641,0.625 0.06641,0.261719 0.195312,0.421875 0.125,0.152344 0.296875,0.222657 0.175781,0.07031 0.398438,0.07031 0.191406,0 0.363281,-0.0625 0.175781,-0.06641 0.296875,-0.21875 z m 7.027344,-1.984375 v 3.109375 h -1.414063 v -2.191406 q 0,-0.320313 -0.01563,-0.542969 -0.01563,-0.226562 -0.08594,-0.367187 -0.07031,-0.140625 -0.214844,-0.203125 -0.140625,-0.06641 -0.398438,-0.06641 -0.207031,0 -0.402343,0.08594 -0.195313,0.08203 -0.351563,0.175781 v 3.109375 h -1.40625 v -4.386719 h 1.40625 v 0.484375 q 0.363281,-0.285156 0.695313,-0.445312 0.332031,-0.160156 0.734375,-0.160156 0.433593,0 0.765625,0.195312 0.332031,0.191406 0.519531,0.566406 0.421875,-0.355468 0.820312,-0.558593 0.398438,-0.203125 0.78125,-0.203125 0.710938,0 1.078125,0.425781 0.371094,0.425781 0.371094,1.226562 v 2.855469 H 38.868208 V 39.91924 q 0,-0.324219 -0.01563,-0.546875 -0.01172,-0.222656 -0.08203,-0.363281 -0.06641,-0.140625 -0.210937,-0.203125 -0.144531,-0.06641 -0.40625,-0.06641 -0.175781,0 -0.34375,0.0625 -0.167969,0.05859 -0.410156,0.199219 z"
       id="path8"
       style="fill:#ffffff" />
  </g>
  <path
     d="m 15.693356,73.82708 h -1.914064 v -0.494792 h 0.634766 v -3.857424 h -0.634766 v -0.494792 h 1.914064 v 0.494792 H 15.05859 v 3.857424 h 0.634766 z m 4.088543,0 H 19.16992 v -2.070314 q 0,-0.250651 -0.0293,-0.46875 -0.0293,-0.221354 -0.107422,-0.345052 -0.08138,-0.136719 -0.234375,-0.201823 -0.152995,-0.06836 -0.397136,-0.06836 -0.250651,0 -0.524089,0.123698 -0.273437,0.123698 -0.524088,0.315756 v 2.714845 h -0.61198 v -3.63607 h 0.61198 v 0.403646 q 0.286458,-0.23763 0.592448,-0.371094 0.30599,-0.133463 0.628255,-0.133463 0.589193,0 0.898438,0.354818 0.309245,0.354818 0.309245,1.022136 z m 4.378258,-1.86198 q 0,0.442708 -0.126954,0.810547 -0.126953,0.364583 -0.358073,0.61849 -0.214843,0.240885 -0.507812,0.374349 -0.289714,0.130208 -0.615235,0.130208 -0.283203,0 -0.514323,-0.06185 -0.227865,-0.06185 -0.465495,-0.192057 v 1.523438 h -0.61198 V 70.19101 h 0.61198 v 0.38086 q 0.244141,-0.205078 0.546875,-0.341797 0.30599,-0.139974 0.651042,-0.139974 0.657552,0 1.022136,0.498047 0.367839,0.494792 0.367839,1.376954 z m -0.631511,0.01628 q 0,-0.657553 -0.22461,-0.983074 -0.224609,-0.325521 -0.690104,-0.325521 -0.263672,0 -0.530599,0.113933 -0.266927,0.113932 -0.511068,0.299479 v 2.060548 q 0.260417,0.117187 0.445964,0.159505 0.188802,0.04232 0.426432,0.04232 0.511068,0 0.797526,-0.345052 0.286459,-0.345053 0.286459,-1.022136 z m 4.599611,1.845704 h -0.611979 v -0.403646 q -0.309245,0.24414 -0.592449,0.374349 -0.283203,0.130208 -0.625,0.130208 -0.572917,0 -0.891927,-0.348307 -0.319011,-0.351563 -0.319011,-1.028647 V 70.19101 h 0.61198 v 2.070314 q 0,0.276693 0.02604,0.47526 0.02604,0.195313 0.110677,0.335287 0.08789,0.143229 0.227865,0.208334 0.139974,0.0651 0.406901,0.0651 0.237631,0 0.517579,-0.123698 0.283203,-0.123698 0.527344,-0.315756 V 70.19101 h 0.611979 z m 3.092449,-0.03255 q -0.172526,0.04557 -0.377604,0.07487 -0.201823,0.0293 -0.361328,0.0293 -0.556641,0 -0.846355,-0.299479 -0.289714,-0.299479 -0.289714,-0.960287 V 70.705333 H 28.932294 V 70.19101 h 0.413411 v -1.044922 h 0.61198 v 1.044922 h 1.263021 v 0.514323 h -1.263021 v 1.656902 q 0,0.286459 0.01302,0.449219 0.01302,0.159506 0.09115,0.29948 0.07161,0.130208 0.195312,0.192057 0.126953,0.05859 0.384115,0.05859 0.14974,0 0.3125,-0.04232 0.162761,-0.04557 0.234375,-0.07487 h 0.03255 z"
     id="text1"
     style="font-size:6.66667px;-inkscape-font-specification:sans-serif;text-align:center;text-anchor:middle;fill:#ffffff;stroke-width:1.002"
     aria-label="Input" />
  <path
     d="m 15.099281,279.02573 q 0.296224,0.32553 0.452474,0.79753 0.159505,0.47201 0.159505,1.07096 0,0.59896 -0.16276,1.07422 -0.159505,0.47201 -0.449219,0.78776 -0.299479,0.32878 -0.709636,0.4948 -0.406901,0.16601 -0.93099,0.16601 -0.511068,0 -0.93099,-0.16927 -0.416667,-0.16927 -0.709636,-0.49154 -0.292968,-0.32226 -0.452474,-0.79101 -0.15625,-0.46875 -0.15625,-1.07097 0,-0.59244 0.15625,-1.06119 0.15625,-0.47201 0.45573,-0.8073 0.286458,-0.31901 0.709635,-0.48828 0.426433,-0.16927 0.927735,-0.16927 0.520834,0 0.934245,0.17253 0.416667,0.16927 0.706381,0.48502 z m -0.05859,1.86849 q 0,-0.94401 -0.423177,-1.45507 -0.423177,-0.51433 -1.1556,-0.51433 -0.738932,0 -1.162109,0.51433 -0.419923,0.51106 -0.419923,1.45507 0,0.95378 0.429688,1.46159 0.429688,0.50456 1.152344,0.50456 0.722657,0 1.14909,-0.50456 0.429687,-0.50781 0.429687,-1.46159 z m 4.658206,2.42188 h -0.61198 v -0.40364 q -0.309245,0.24414 -0.592448,0.37434 -0.283203,0.13021 -0.625,0.13021 -0.572917,0 -0.891928,-0.3483 -0.31901,-0.35157 -0.31901,-1.02865 v -2.36003 h 0.611979 v 2.07032 q 0,0.27669 0.02604,0.47526 0.02604,0.19531 0.110677,0.33528 0.08789,0.14323 0.227865,0.20834 0.139974,0.0651 0.406901,0.0651 0.23763,0 0.517578,-0.1237 0.283203,-0.1237 0.527344,-0.31575 v -2.71485 h 0.61198 z m 3.092449,-0.0326 q -0.172526,0.0456 -0.377604,0.0749 -0.201823,0.0293 -0.361329,0.0293 -0.556641,0 -0.846354,-0.29948 -0.289714,-0.29948 -0.289714,-0.96029 v -1.9336 h -0.413412 v -0.51432 h 0.413412 v -1.04492 h 0.611979 v 1.04492 h 1.263022 v 0.51432 H 21.52832 v 1.65691 q 0,0.28646 0.01302,0.44922 0.01302,0.1595 0.09115,0.29947 0.07161,0.13021 0.195313,0.19206 0.126953,0.0586 0.384115,0.0586 0.149739,0 0.3125,-0.0423 0.16276,-0.0456 0.234375,-0.0749 h 0.03255 z m 3.938804,-1.82943 q 0,0.44271 -0.126954,0.81055 -0.126953,0.36458 -0.358073,0.61849 -0.214844,0.24088 -0.507812,0.37435 -0.289714,0.13021 -0.615235,0.13021 -0.283203,0 -0.514323,-0.0618 -0.227865,-0.0618 -0.465495,-0.19206 v 1.52344 h -0.61198 v -4.97722 h 0.61198 v 0.38086 q 0.24414,-0.20508 0.546875,-0.3418 0.30599,-0.13997 0.651042,-0.13997 0.657552,0 1.022136,0.49805 0.367839,0.49479 0.367839,1.37695 z m -0.631511,0.0163 q 0,-0.65756 -0.22461,-0.98308 -0.224609,-0.32552 -0.690104,-0.32552 -0.263672,0 -0.530599,0.11394 -0.266928,0.11393 -0.511068,0.29947 v 2.06055 q 0.260417,0.11719 0.445963,0.15951 0.188803,0.0423 0.426433,0.0423 0.511068,0 0.797526,-0.34506 0.286459,-0.34505 0.286459,-1.02213 z m 4.599611,1.8457 h -0.611979 v -0.40364 q -0.309245,0.24414 -0.592449,0.37434 -0.283203,0.13021 -0.625,0.13021 -0.572917,0 -0.891927,-0.3483 -0.319011,-0.35157 -0.319011,-1.02865 v -2.36003 h 0.611979 v 2.07032 q 0,0.27669 0.02604,0.47526 0.02604,0.19531 0.110677,0.33528 0.08789,0.14323 0.227865,0.20834 0.139974,0.0651 0.406901,0.0651 0.237631,0 0.517579,-0.1237 0.283203,-0.1237 0.527344,-0.31575 v -2.71485 h 0.611979 z m 3.092449,-0.0326 q -0.172526,0.0456 -0.377604,0.0749 -0.201823,0.0293 -0.361328,0.0293 -0.556641,0 -0.846355,-0.29948 -0.289714,-0.29948 -0.289714,-0.96029 v -1.9336 h -0.413411 v -0.51432 h 0.413411 v -1.04492 h 0.61198 v 1.04492 h 1.263021 v 0.51432 h -1.263021 v 1.65691 q 0,0.28646 0.01302,0.44922 0.01302,0.1595 0.09115,0.29947 0.07161,0.13021 0.195312,0.19206 0.126953,0.0586 0.384115,0.0586 0.14974,0 0.3125,-0.0423 0.162761,-0.0456 0.234375,-0.0749 h 0.03255 z"
     id="text3"
     style="font-size:6.66667px;-inkscape-font-specification:sans-serif;text-align:center;text-anchor:middle;fill:#ffffff;stroke-width:1.002"
     aria-label="Output" />
  <path
     d="M 10.231113,119.77039 H 8.4993415 v 4.27409 H 7.8548099 v -4.27409 H 6.1230383 v -0.57292 h 4.1080747 z m 2.220053,1.30534 h -0.03255 q -0.136719,-0.0325 -0.266927,-0.0456 -0.126953,-0.0163 -0.302735,-0.0163 -0.283203,0 -0.546875,0.12695 -0.263672,0.1237 -0.507813,0.32227 v 2.58138 h -0.611979 v -3.63607 h 0.611979 v 0.53711 q 0.364584,-0.29297 0.641277,-0.41341 0.279948,-0.1237 0.569662,-0.1237 0.159505,0 0.231119,0.01 0.07162,0.007 0.214844,0.0293 z m 1.233725,-1.27604 h -0.690105 v -0.63477 h 0.690105 z m -0.03906,4.24479 h -0.611979 v -3.63607 h 0.611979 z m 4.160159,-0.41341 q 0,0.92448 -0.419922,1.35742 -0.419922,0.43294 -1.292319,0.43294 -0.289713,0 -0.566406,-0.0423 -0.273438,-0.0391 -0.540365,-0.11394 v -0.625 h 0.03255 q 0.14974,0.0586 0.475261,0.14323 0.325521,0.0879 0.651042,0.0879 0.3125,0 0.517578,-0.0749 0.205078,-0.0749 0.319011,-0.20833 0.113932,-0.12695 0.16276,-0.30599 0.04883,-0.17904 0.04883,-0.40039 v -0.33203 q -0.276692,0.22135 -0.530599,0.33203 -0.250651,0.10742 -0.641276,0.10742 -0.651042,0 -1.035157,-0.46875 -0.38086,-0.472 -0.38086,-1.32813 0,-0.46875 0.130209,-0.80729 0.133463,-0.34179 0.361328,-0.58919 0.211589,-0.23112 0.514323,-0.35807 0.302735,-0.13021 0.602214,-0.13021 0.315756,0 0.527344,0.0651 0.214844,0.0618 0.452474,0.19206 l 0.03906,-0.15625 h 0.572917 z m -0.61198,-0.58594 v -1.98242 q -0.24414,-0.11068 -0.455729,-0.15625 -0.208333,-0.0488 -0.416667,-0.0488 -0.504557,0 -0.794271,0.33854 -0.289714,0.33854 -0.289714,0.98307 0,0.61198 0.214844,0.92774 0.214844,0.31575 0.712891,0.31575 0.266927,0 0.533854,-0.10091 0.270183,-0.10416 0.494792,-0.27669 z m 4.765627,0.58594 q 0,0.92448 -0.419922,1.35742 -0.419922,0.43294 -1.292318,0.43294 -0.289714,0 -0.566407,-0.0423 -0.273437,-0.0391 -0.540365,-0.11394 v -0.625 h 0.03255 q 0.149739,0.0586 0.47526,0.14323 0.325521,0.0879 0.651042,0.0879 0.3125,0 0.517579,-0.0749 0.205078,-0.0749 0.31901,-0.20833 0.113932,-0.12695 0.162761,-0.30599 0.04883,-0.17904 0.04883,-0.40039 v -0.33203 q -0.276693,0.22135 -0.530599,0.33203 -0.250652,0.10742 -0.641277,0.10742 -0.651042,0 -1.035157,-0.46875 -0.380859,-0.472 -0.380859,-1.32813 0,-0.46875 0.130208,-0.80729 0.133464,-0.34179 0.361329,-0.58919 0.211588,-0.23112 0.514323,-0.35807 0.302734,-0.13021 0.602214,-0.13021 0.315755,0 0.527344,0.0651 0.214843,0.0618 0.452474,0.19206 l 0.03906,-0.15625 h 0.572917 z m -0.611979,-0.58594 v -1.98242 q -0.244141,-0.11068 -0.45573,-0.15625 -0.208333,-0.0488 -0.416666,-0.0488 -0.504558,0 -0.794272,0.33854 -0.289713,0.33854 -0.289713,0.98307 0,0.61198 0.214843,0.92774 0.214844,0.31575 0.712891,0.31575 0.266928,0 0.533855,-0.10091 0.270182,-0.10416 0.494792,-0.27669 z m 4.860029,-0.75521 h -2.679038 q 0,0.33529 0.100911,0.58594 0.100912,0.24739 0.276693,0.4069 0.169271,0.15625 0.400391,0.23438 0.234375,0.0781 0.514323,0.0781 0.371094,0 0.745443,-0.14648 0.377605,-0.14974 0.53711,-0.29297 h 0.03255 v 0.66732 q -0.309245,0.1302 -0.631511,0.21809 -0.322265,0.0879 -0.677083,0.0879 -0.904949,0 -1.412761,-0.48828 -0.507813,-0.49153 -0.507813,-1.39323 0,-0.89192 0.485026,-1.41601 0.488282,-0.52409 1.282553,-0.52409 0.735677,0 1.132813,0.42969 0.400391,0.42968 0.400391,1.2207 z m -0.595704,-0.46875 q -0.0033,-0.48177 -0.24414,-0.74544 -0.237631,-0.26367 -0.725912,-0.26367 -0.491537,0 -0.784506,0.28971 -0.289714,0.28971 -0.328776,0.7194 z m 3.792319,-0.74544 h -0.03255 q -0.136719,-0.0325 -0.266927,-0.0456 -0.126953,-0.0163 -0.302735,-0.0163 -0.283203,0 -0.546875,0.12695 -0.263672,0.1237 -0.507813,0.32227 v 2.58138 h -0.611979 v -3.63607 h 0.611979 v 0.53711 q 0.364584,-0.29297 0.641277,-0.41341 0.279948,-0.1237 0.569661,-0.1237 0.159506,0 0.23112,0.01 0.07162,0.007 0.214844,0.0293 z m 4.677737,2.96875 h -1.914064 v -0.49479 h 0.634766 v -3.85743 h -0.634766 v -0.49479 h 1.914064 v 0.49479 H 33.44727 v 3.85743 h 0.634766 z m 4.794925,0 h -0.797526 l -2.298178,-4.33594 v 4.33594 h -0.602214 v -4.84701 h 0.999349 l 2.096355,3.95834 v -3.95834 h 0.602214 z"
     id="text4"
     style="font-size:6.66667px;-inkscape-font-specification:sans-serif;text-align:center;text-anchor:middle;fill:#ffffff;stroke-width:1.002"
     aria-label="Trigger IN" />
  <path
     d="M 7.6057877,235.57022 H 5.874016 v 4.27409 H 5.2294844 v -4.27409 H 3.4977128 v -0.57291 h 4.1080749 z m 2.2200531,1.30534 h -0.032552 q -0.1367188,-0.0326 -0.2669272,-0.0456 -0.1269532,-0.0163 -0.3027345,-0.0163 -0.2832033,0 -0.5468753,0.12696 -0.263672,0.1237 -0.5078127,0.32226 v 2.58138 H 7.5569595 v -3.63606 H 8.168939 v 0.5371 q 0.3645835,-0.29296 0.6412763,-0.41341 0.2799481,-0.12369 0.5696618,-0.12369 0.1595053,0 0.2311199,0.01 0.071615,0.007 0.2148438,0.0293 z m 1.2337242,-1.27604 h -0.690104 v -0.63477 h 0.690104 z m -0.03906,4.24479 h -0.61198 v -3.63606 h 0.61198 z m 4.160158,-0.41341 q 0,0.92448 -0.419922,1.35743 -0.419922,0.43294 -1.292318,0.43294 -0.289714,0 -0.566407,-0.0423 -0.273437,-0.0391 -0.540364,-0.11393 v -0.625 h 0.03255 q 0.149739,0.0586 0.47526,0.14323 0.325521,0.0879 0.651042,0.0879 0.3125,0 0.517579,-0.0749 0.205078,-0.0749 0.31901,-0.20834 0.113933,-0.12695 0.162761,-0.30599 0.04883,-0.17903 0.04883,-0.40039 v -0.33203 q -0.276693,0.22136 -0.530599,0.33203 -0.250652,0.10743 -0.641277,0.10743 -0.651042,0 -1.035156,-0.46875 -0.38086,-0.47201 -0.38086,-1.32813 0,-0.46875 0.130208,-0.80729 0.133464,-0.3418 0.361329,-0.58919 0.211588,-0.23112 0.514323,-0.35808 0.302734,-0.13021 0.602214,-0.13021 0.315755,0 0.527344,0.0651 0.214844,0.0618 0.452474,0.19206 l 0.03906,-0.15625 h 0.572917 z m -0.611979,-0.58593 v -1.98243 q -0.244141,-0.11067 -0.45573,-0.15625 -0.208333,-0.0488 -0.416666,-0.0488 -0.504558,0 -0.794272,0.33855 -0.289713,0.33854 -0.289713,0.98307 0,0.61198 0.214844,0.92773 0.214843,0.31576 0.712891,0.31576 0.266927,0 0.533854,-0.10091 0.270182,-0.10417 0.494792,-0.27669 z m 4.765627,0.58593 q 0,0.92448 -0.419922,1.35743 -0.419922,0.43294 -1.292319,0.43294 -0.289713,0 -0.566406,-0.0423 -0.273438,-0.0391 -0.540365,-0.11393 v -0.625 h 0.03255 q 0.14974,0.0586 0.475261,0.14323 0.325521,0.0879 0.651042,0.0879 0.3125,0 0.517578,-0.0749 0.205078,-0.0749 0.319011,-0.20834 0.113932,-0.12695 0.16276,-0.30599 0.04883,-0.17903 0.04883,-0.40039 v -0.33203 q -0.276693,0.22136 -0.530599,0.33203 -0.250651,0.10743 -0.641276,0.10743 -0.651042,0 -1.035157,-0.46875 -0.38086,-0.47201 -0.38086,-1.32813 0,-0.46875 0.130209,-0.80729 0.133463,-0.3418 0.361328,-0.58919 0.211589,-0.23112 0.514323,-0.35808 0.302735,-0.13021 0.602214,-0.13021 0.315755,0 0.527344,0.0651 0.214844,0.0618 0.452474,0.19206 l 0.03906,-0.15625 h 0.572917 z m -0.61198,-0.58593 v -1.98243 q -0.24414,-0.11067 -0.455729,-0.15625 -0.208334,-0.0488 -0.416667,-0.0488 -0.504557,0 -0.794271,0.33855 -0.289714,0.33854 -0.289714,0.98307 0,0.61198 0.214844,0.92773 0.214844,0.31576 0.712891,0.31576 0.266927,0 0.533854,-0.10091 0.270183,-0.10417 0.494792,-0.27669 z m 4.860029,-0.75521 H 20.90332 q 0,0.33528 0.100912,0.58593 0.100911,0.2474 0.276693,0.40691 0.169271,0.15625 0.400391,0.23437 0.234375,0.0781 0.514323,0.0781 0.371094,0 0.745443,-0.14649 0.377604,-0.14974 0.537109,-0.29297 h 0.03255 v 0.66732 q -0.309245,0.13021 -0.631511,0.2181 -0.322266,0.0879 -0.677084,0.0879 -0.904948,0 -1.412761,-0.48828 -0.507813,-0.49154 -0.507813,-1.39323 0,-0.89193 0.485027,-1.41602 0.488281,-0.52409 1.282552,-0.52409 0.735678,0 1.132813,0.42969 0.400391,0.42969 0.400391,1.22071 z m -0.595703,-0.46875 q -0.0033,-0.48177 -0.244141,-0.74545 -0.23763,-0.26367 -0.725912,-0.26367 -0.491536,0 -0.784505,0.28971 -0.289714,0.28972 -0.328777,0.71941 z m 3.792319,-0.74545 h -0.03255 q -0.136719,-0.0326 -0.266928,-0.0456 -0.126953,-0.0163 -0.302734,-0.0163 -0.283203,0 -0.546875,0.12696 -0.263672,0.1237 -0.507813,0.32226 v 2.58138 h -0.61198 v -3.63606 h 0.61198 v 0.5371 q 0.364583,-0.29296 0.641276,-0.41341 0.279948,-0.12369 0.569662,-0.12369 0.159505,0 0.23112,0.01 0.07161,0.007 0.214844,0.0293 z m 6.97917,2.96875 h -0.836589 l -1.621095,-1.92708 h -0.908203 v 1.92708 h -0.644532 v -4.847 h 1.357423 q 0.439453,0 0.732422,0.0586 0.292969,0.0553 0.527344,0.20182 0.263672,0.16602 0.410156,0.41993 0.14974,0.25065 0.14974,0.63802 0,0.52409 -0.263672,0.8789 -0.263672,0.35157 -0.725912,0.5306 z m -1.507162,-3.48307 q 0,-0.20833 -0.07487,-0.36784 -0.07162,-0.16276 -0.240886,-0.27344 -0.139974,-0.0944 -0.332031,-0.1302 -0.192058,-0.0391 -0.452474,-0.0391 h -0.758464 v 1.82943 h 0.651042 q 0.305989,0 0.533854,-0.0521 0.227865,-0.0553 0.38737,-0.20183 0.146485,-0.13671 0.214844,-0.3125 0.07162,-0.17903 0.07162,-0.45247 z m 5.123701,3.48307 h -0.61198 V 237.774 q 0,-0.25065 -0.0293,-0.46875 -0.0293,-0.22135 -0.107422,-0.34505 -0.08138,-0.13672 -0.234375,-0.20182 -0.152995,-0.0684 -0.397136,-0.0684 -0.250651,0 -0.524089,0.12369 -0.273438,0.1237 -0.524089,0.31576 v 2.71484 h -0.611979 v -3.63606 h 0.611979 v 0.40364 q 0.286459,-0.23763 0.592449,-0.37109 0.305989,-0.13347 0.628255,-0.13347 0.589193,0 0.898438,0.35482 0.309245,0.35482 0.309245,1.02214 z m 4.127604,0 h -0.611979 v -0.38085 q -0.263672,0.22786 -0.550131,0.35481 -0.286458,0.12696 -0.621745,0.12696 -0.651042,0 -1.035157,-0.50131 -0.380859,-0.5013 -0.380859,-1.38997 0,-0.46224 0.130208,-0.82357 0.133464,-0.36133 0.358073,-0.61523 0.221354,-0.2474 0.514323,-0.37761 0.296224,-0.13021 0.61198,-0.13021 0.286458,0 0.507813,0.0619 0.221354,0.0586 0.465495,0.18555 v -1.57552 h 0.611979 z m -0.611979,-0.89518 v -2.08659 q -0.247396,-0.11067 -0.442709,-0.15299 -0.195313,-0.0423 -0.426432,-0.0423 -0.514324,0 -0.800782,0.35807 -0.286459,0.35808 -0.286459,1.01563 0,0.64779 0.221355,0.98633 0.221354,0.33528 0.709635,0.33528 0.260417,0 0.527344,-0.11393 0.266928,-0.11719 0.498048,-0.29948 z"
     id="text5"
     style="font-size:6.66667px;-inkscape-font-specification:sans-serif;text-align:center;text-anchor:middle;fill:#ffffff;stroke-width:1.002"
     aria-label="Trigger Rnd" />
</svg>
