<?xml version="1.0" encoding="UTF-8" standalone="no"?>
<!-- Created with Inkscape (http://www.inkscape.org/) -->

<svg
   xmlns:dc="http://purl.org/dc/elements/1.1/"
   xmlns:cc="http://creativecommons.org/ns#"
   xmlns:rdf="http://www.w3.org/1999/02/22-rdf-syntax-ns#"
   xmlns:svg="http://www.w3.org/2000/svg"
   xmlns="http://www.w3.org/2000/svg"
   xmlns:sodipodi="http://sodipodi.sourceforge.net/DTD/sodipodi-0.dtd"
   xmlns:inkscape="http://www.inkscape.org/namespaces/inkscape"
   width="60"
   height="380"
   viewBox="0 0 15.875 100.54166"
   version="1.1"
   id="svg12553"
   inkscape:version="0.92.2 5c3e80d, 2017-08-06"
   sodipodi:docname="SimpleClock.svg">
  <defs
     id="defs12547" />
  <sodipodi:namedview
     id="base"
     pagecolor="#ffffff"
     bordercolor="#666666"
     borderopacity="1.0"
     inkscape:pageopacity="0.0"
     inkscape:pageshadow="2"
     inkscape:zoom="2.8"
     inkscape:cx="73.750218"
     inkscape:cy="192.62302"
     inkscape:document-units="px"
     inkscape:current-layer="layer1"
     showgrid="true"
     fit-margin-top="0"
     fit-margin-left="0"
     fit-margin-right="0"
     fit-margin-bottom="0"
     units="px"
     inkscape:window-width="1094"
     inkscape:window-height="1265"
     inkscape:window-x="540"
     inkscape:window-y="0"
     inkscape:window-maximized="0"
     inkscape:snap-global="false">
    <inkscape:grid
       type="xygrid"
       id="grid12870"
       originx="-20.372917"
       originy="84.666661" />
  </sodipodi:namedview>
  <metadata
     id="metadata12550">
    <rdf:RDF>
      <cc:Work
         rdf:about="">
        <dc:format>image/svg+xml</dc:format>
        <dc:type
           rdf:resource="http://purl.org/dc/dcmitype/StillImage" />
        <dc:title></dc:title>
      </cc:Work>
    </rdf:RDF>
  </metadata>
  <g
     inkscape:label="Layer 1"
     inkscape:groupmode="layer"
     id="layer1"
     transform="translate(-26.543497,-161.30655)">
    <path
       inkscape:connector-curvature="0"
       id="path33453"
       d="m 26.616839,161.37987 h 15.780506 v 100.3961 H 26.616839 Z m 0,0"
       style="fill:#e6e6e6;fill-opacity:1;fill-rule:nonzero;stroke:none;stroke-width:0.11735593" />
    <path
       style="fill:#000000;fill-opacity:1;stroke:none;stroke-width:0.27602378"
       d="m 31.293936,171.62027 c 0.250164,0 0.418359,-0.0776 0.564991,-0.20701 0.0217,-0.0216 0.04313,-0.0561 0.04313,-0.0992 0,-0.0647 -0.06038,-0.12508 -0.129381,-0.12508 -0.0345,0 -0.06038,0.0129 -0.08194,0.0302 -0.112131,0.0949 -0.224261,0.15095 -0.383858,0.15095 -0.297577,0 -0.513212,-0.24583 -0.513212,-0.54773 v -0.004 c 0,-0.3019 0.215635,-0.54773 0.513212,-0.54773 0.146659,0 0.258789,0.0561 0.366607,0.14232 0.0172,0.0129 0.04313,0.0259 0.08194,0.0259 0.07332,0 0.133694,-0.0604 0.133694,-0.1337 0,-0.0474 -0.0217,-0.0863 -0.05175,-0.10782 -0.133694,-0.10351 -0.293264,-0.17683 -0.53049,-0.17683 -0.470085,0 -0.797877,0.36228 -0.797877,0.80219 v 0.004 c 0,0.44423 0.336417,0.79357 0.784939,0.79357 z m 0,0"
       id="path7375"
       inkscape:connector-curvature="0" />
    <path
       style="fill:#000000;fill-opacity:1;stroke:none;stroke-width:0.27602378"
       d="m 32.260671,171.45639 c 0,0.0776 0.06038,0.13801 0.138006,0.13801 h 0.832406 c 0.069,0 0.125068,-0.0561 0.125068,-0.12508 0,-0.069 -0.05607,-0.12076 -0.125068,-0.12076 h -0.698685 v -1.17741 c 0,-0.0733 -0.06038,-0.1337 -0.133721,-0.1337 -0.07763,0 -0.138006,0.0604 -0.138006,0.1337 z m 0,0"
       id="path7371"
       inkscape:connector-curvature="0" />
    <path
       style="fill:#000000;fill-opacity:1;stroke:none;stroke-width:0.27602378"
       d="m 34.33167,171.62027 c 0.474425,0 0.810816,-0.36228 0.810816,-0.79788 v -0.004 c 0,-0.4356 -0.332079,-0.79788 -0.806503,-0.79788 -0.474398,0 -0.810816,0.3666 -0.810816,0.8022 v 0.004 c 0,0.4356 0.332105,0.79357 0.806503,0.79356 z m 0.0042,-0.25014 c -0.306202,0 -0.52615,-0.25015 -0.52615,-0.54774 v -0.004 c 0,-0.3019 0.215635,-0.54773 0.521838,-0.54773 0.306229,0 0.526177,0.25015 0.526177,0.55205 v 0.004 c 0,0.29758 -0.215636,0.54342 -0.521865,0.54342 z m 0,0"
       id="path7367"
       inkscape:connector-curvature="0" />
    <path
       style="fill:#000000;fill-opacity:1;stroke:none;stroke-width:0.27602378"
       d="m 36.229923,171.62027 c 0.250164,0 0.418359,-0.0776 0.564992,-0.20701 0.0217,-0.0216 0.04313,-0.0561 0.04313,-0.0992 0,-0.0647 -0.06038,-0.12508 -0.129382,-0.12508 -0.0345,0 -0.06038,0.0129 -0.08194,0.0302 -0.112131,0.0949 -0.224261,0.15095 -0.383858,0.15095 -0.297576,0 -0.513212,-0.24583 -0.513212,-0.54773 v -0.004 c 0,-0.3019 0.215636,-0.54773 0.513212,-0.54773 0.146659,0 0.258789,0.0561 0.366607,0.14232 0.0172,0.0129 0.04313,0.0259 0.08194,0.0259 0.07332,0 0.133693,-0.0604 0.133693,-0.1337 0,-0.0474 -0.0217,-0.0863 -0.05175,-0.10782 -0.133694,-0.10351 -0.293264,-0.17683 -0.53049,-0.17683 -0.470085,0 -0.797877,0.36228 -0.797877,0.80219 v 0.004 c 0,0.44423 0.336418,0.79357 0.784939,0.79357 z m 0,0"
       id="path7363"
       inkscape:connector-curvature="0" />
    <path
       style="fill:#000000;fill-opacity:1;stroke:none;stroke-width:0.27602378"
       d="m 37.196605,171.46932 c 0,0.0776 0.06038,0.13802 0.138007,0.13802 0.07334,0 0.13372,-0.0604 0.13372,-0.13802 v -0.31915 l 0.250137,-0.24152 0.5003,0.63399 c 0.02593,0.0345 0.06038,0.0647 0.11213,0.0647 0.07763,0 0.138007,-0.0604 0.138007,-0.1337 0,-0.0431 -0.0172,-0.069 -0.03881,-0.0992 l -0.521863,-0.64693 0.483049,-0.46147 c 0.03019,-0.0302 0.04744,-0.0604 0.04744,-0.10351 0,-0.0647 -0.04744,-0.12508 -0.125069,-0.12508 -0.04744,0 -0.08194,0.0172 -0.11213,0.0517 l -0.733186,0.7375 v -0.65555 c 0,-0.0733 -0.06038,-0.1337 -0.13372,-0.1337 -0.07763,0 -0.138007,0.0604 -0.138007,0.1337 z m 0,0"
       id="path7359"
       inkscape:connector-curvature="0" />
    <path
       style="fill:#000000;fill-opacity:1;stroke:none;stroke-width:0.27602378"
       d="m 32.298713,193.03126 c 0,0.0604 0.05175,0.10782 0.112131,0.10782 0.06038,0 0.112156,-0.0474 0.112156,-0.10782 v -0.34072 h 0.276014 l 0.306202,0.39247 c 0.02593,0.0345 0.05607,0.0561 0.107844,0.0561 0.05175,0 0.103505,-0.0388 0.103505,-0.10351 0,-0.0345 -0.01296,-0.0561 -0.0345,-0.0819 l -0.241539,-0.3019 c 0.168223,-0.0561 0.284666,-0.17683 0.284666,-0.37522 v -0.004 c 0,-0.11213 -0.0345,-0.2027 -0.103505,-0.27171 -0.07766,-0.0776 -0.202724,-0.12507 -0.362294,-0.12507 h -0.448548 c -0.06038,0 -0.112131,0.0474 -0.112131,0.11213 z m 0.224287,-0.5348 v -0.42266 h 0.319141 c 0.163883,0 0.258762,0.0733 0.258762,0.21133 0,0.12939 -0.09919,0.21133 -0.258762,0.21133 z m 0,0"
       id="path7335"
       inkscape:connector-curvature="0" />
    <path
       style="fill:#000000;fill-opacity:1;stroke:none;stroke-width:0.27602378"
       d="m 34.172625,193.15202 c 0.327765,0 0.539115,-0.18977 0.539115,-0.56499 v -0.61243 c 0,-0.0604 -0.04744,-0.10782 -0.107818,-0.10782 -0.06472,0 -0.112157,0.0474 -0.112157,0.10782 v 0.62106 c 0,0.23289 -0.120756,0.34934 -0.314828,0.34934 -0.198384,0 -0.31914,-0.12507 -0.31914,-0.35797 v -0.61243 c 0,-0.0604 -0.04747,-0.10782 -0.107844,-0.10782 -0.06469,0 -0.112131,0.0474 -0.112131,0.10782 v 0.62106 c 0,0.36659 0.20701,0.55636 0.534803,0.55636 z m 0,0"
       id="path7331"
       inkscape:connector-curvature="0" />
    <path
       style="fill:#000000;fill-opacity:1;stroke:none;stroke-width:0.27602378"
       d="m 35.083241,193.03126 c 0,0.0604 0.05175,0.10782 0.112131,0.10782 0.06038,0 0.107844,-0.0474 0.107844,-0.10782 v -0.79789 l 0.646906,0.8367 c 0.03021,0.0388 0.0604,0.069 0.112157,0.069 h 0.0087 c 0.06038,0 0.107818,-0.0517 0.107818,-0.11213 v -1.05234 c 0,-0.0604 -0.04744,-0.10783 -0.107818,-0.10783 -0.06038,0 -0.107844,0.0474 -0.107844,0.10783 v 0.772 l -0.629656,-0.81513 c -0.03019,-0.0388 -0.0604,-0.0647 -0.112156,-0.0647 h -0.02593 c -0.06038,0 -0.11213,0.0517 -0.11213,0.11213 z m 0,0"
       id="path7327"
       inkscape:connector-curvature="0" />
    <path
       style="fill:#000000;fill-opacity:1;stroke:none;stroke-width:0.27602378"
       d="m 31.901903,216.43826 c 0,0.0604 0.05175,0.10782 0.11213,0.10782 0.06038,0 0.112157,-0.0474 0.112157,-0.10782 v -0.34072 h 0.276013 l 0.306203,0.39247 c 0.02593,0.0345 0.05606,0.0561 0.107844,0.0561 0.05175,0 0.103505,-0.0388 0.103505,-0.10351 0,-0.0345 -0.01297,-0.0561 -0.0345,-0.0819 l -0.24154,-0.30191 c 0.168222,-0.0561 0.284665,-0.17682 0.284665,-0.37522 v -0.004 c 0,-0.11213 -0.0345,-0.2027 -0.103505,-0.27171 -0.07766,-0.0776 -0.202724,-0.12507 -0.362294,-0.12507 h -0.448548 c -0.06038,0 -0.11213,0.0474 -0.11213,0.11213 z m 0.224287,-0.5348 v -0.42266 h 0.31914 c 0.163883,0 0.258763,0.0733 0.258763,0.21133 0,0.12939 -0.09919,0.21133 -0.258763,0.21133 z m 0,0"
       id="path7323"
       inkscape:connector-curvature="0" />
    <path
       style="fill:#000000;fill-opacity:1;stroke:none;stroke-width:0.27602378"
       d="m 33.374547,216.53745 h 0.741812 c 0.05178,0 0.09922,-0.0431 0.09922,-0.0992 0,-0.0517 -0.04744,-0.0992 -0.09922,-0.0992 h -0.629655 v -0.3364 h 0.539088 c 0.05175,0 0.09919,-0.0431 0.09919,-0.0949 0,-0.0561 -0.04744,-0.10351 -0.09919,-0.10351 h -0.539088 v -0.32347 h 0.62103 c 0.05178,0 0.09491,-0.0431 0.09491,-0.0992 0,-0.0561 -0.04313,-0.0992 -0.09491,-0.0992 h -0.733187 c -0.06038,0 -0.11213,0.0474 -0.11213,0.11214 v 1.03077 c 0,0.0647 0.05175,0.11214 0.11213,0.11214 z m 0,0"
       id="path7319"
       inkscape:connector-curvature="0" />
    <path
       style="fill:#000000;fill-opacity:1;stroke:none;stroke-width:0.27602378"
       d="m 34.958263,216.5547 c 0.267388,0 0.448522,-0.13801 0.448522,-0.37522 v -0.004 c 0,-0.20701 -0.133694,-0.3019 -0.401082,-0.36659 -0.241511,-0.0561 -0.297603,-0.0992 -0.297603,-0.19839 0,-0.0863 0.07334,-0.15095 0.202724,-0.15095 0.09919,0 0.194072,0.0302 0.288951,0.0949 0.0172,0.0129 0.0345,0.0173 0.05606,0.0173 0.06038,0 0.107818,-0.0474 0.107818,-0.10351 0,-0.0431 -0.02593,-0.0733 -0.05175,-0.0863 -0.112131,-0.0776 -0.237199,-0.11645 -0.39677,-0.11645 -0.250163,0 -0.426984,0.14664 -0.426984,0.36228 v 0.004 c 0,0.2329 0.146632,0.31053 0.414046,0.37522 0.237199,0.0517 0.284639,0.10351 0.284639,0.18977 v 0.004 c 0,0.0949 -0.08625,0.15957 -0.219948,0.15957 -0.138007,0 -0.250137,-0.0474 -0.353669,-0.12938 -0.01296,-0.0129 -0.0345,-0.0216 -0.06469,-0.0216 -0.05607,0 -0.103505,0.0474 -0.103505,0.10351 0,0.0345 0.0172,0.0647 0.04313,0.0863 0.138006,0.10351 0.301916,0.15526 0.470111,0.15526 z m 0,0"
       id="path7315"
       inkscape:connector-curvature="0" />
    <path
       style="fill:#000000;fill-opacity:1;stroke:none;stroke-width:0.27602378"
       d="m 35.840437,216.53745 h 0.741812 c 0.05178,0 0.09922,-0.0431 0.09922,-0.0992 0,-0.0517 -0.04744,-0.0992 -0.09922,-0.0992 h -0.629655 v -0.3364 h 0.539089 c 0.05175,0 0.09919,-0.0431 0.09919,-0.0949 0,-0.0561 -0.04744,-0.10351 -0.09919,-0.10351 h -0.539089 v -0.32347 h 0.62103 c 0.05178,0 0.09491,-0.0431 0.09491,-0.0992 0,-0.0561 -0.04313,-0.0992 -0.09491,-0.0992 h -0.733187 c -0.06038,0 -0.11213,0.0474 -0.11213,0.11214 v 1.03077 c 0,0.0647 0.05175,0.11214 0.11213,0.11214 z m 0,0"
       id="path7311"
       inkscape:connector-curvature="0" />
    <path
       style="fill:#000000;fill-opacity:1;stroke:none;stroke-width:0.27602378"
       d="m 37.311071,216.43826 c 0,0.0604 0.05175,0.10782 0.11213,0.10782 0.06038,0 0.112131,-0.0474 0.112131,-0.10782 v -0.95315 h 0.306202 c 0.05609,0 0.09922,-0.0474 0.09922,-0.0992 0,-0.0561 -0.04313,-0.10351 -0.09922,-0.10351 h -0.836692 c -0.05607,0 -0.09919,0.0474 -0.09919,0.10351 0,0.0517 0.04313,0.0992 0.09919,0.0992 h 0.306229 z m 0,0"
       id="path7307"
       inkscape:connector-curvature="0" />
    <path
       style="fill:#000000;fill-opacity:1;stroke:none;stroke-width:0.27602378"
       d="m 32.388165,243.92357 c 0.185447,0 0.336418,-0.0647 0.444235,-0.13802 0.05175,-0.0302 0.07763,-0.0776 0.07763,-0.13801 v -0.3364 c 0,-0.0604 -0.04744,-0.11214 -0.11213,-0.11214 h -0.349356 c -0.05175,0 -0.09919,0.0431 -0.09919,0.0992 0,0.0517 0.04744,0.0949 0.09919,0.0949 h 0.250164 v 0.2329 c -0.07766,0.0604 -0.185473,0.0949 -0.306229,0.0949 -0.25445,0 -0.426985,-0.18977 -0.426985,-0.44854 0,-0.24152 0.176848,-0.44423 0.409734,-0.44423 0.133694,0 0.224261,0.0388 0.30189,0.0992 0.0217,0.0129 0.04315,0.0259 0.06903,0.0259 0.06038,0 0.112131,-0.0517 0.112131,-0.11213 0,-0.0431 -0.02593,-0.0733 -0.04744,-0.0906 -0.11213,-0.082 -0.241538,-0.12507 -0.426985,-0.12507 -0.379518,0 -0.646932,0.29758 -0.646932,0.64693 v 0.004 c 0,0.36659 0.254476,0.64693 0.651245,0.64693 z m 0,0"
       id="path6783"
       inkscape:connector-curvature="0" />
    <path
       style="fill:#000000;fill-opacity:1;stroke:none;stroke-width:0.27602378"
       d="m 33.147969,243.80712 c 0,0.0604 0.04744,0.10351 0.103505,0.10351 0.04744,0 0.08625,-0.0259 0.103505,-0.069 l 0.103531,-0.24152 h 0.612405 l 0.103532,0.23289 c 0.0172,0.0474 0.05175,0.0776 0.107817,0.0776 0.05607,0 0.103505,-0.0474 0.103505,-0.10351 0,-0.0172 -0.0042,-0.0345 -0.01296,-0.0474 l -0.465799,-1.04371 c -0.02593,-0.0517 -0.069,-0.0863 -0.133694,-0.0863 h -0.0087 c -0.06469,0 -0.107817,0.0345 -0.133693,0.0863 l -0.465799,1.04371 c -0.0087,0.0172 -0.0172,0.0345 -0.0172,0.0474 z m 0.396796,-0.40541 0.219948,-0.50461 0.219948,0.50461 z m 0,0"
       id="path6779"
       inkscape:connector-curvature="0" />
    <path
       style="fill:#000000;fill-opacity:1;stroke:none;stroke-width:0.27602378"
       d="m 34.82757,243.80281 c 0,0.0604 0.05175,0.10782 0.112131,0.10782 0.06038,0 0.11213,-0.0474 0.11213,-0.10782 v -0.95315 h 0.306203 c 0.05609,0 0.09922,-0.0474 0.09922,-0.0992 0,-0.0561 -0.04313,-0.10351 -0.09922,-0.10351 h -0.836692 c -0.05606,0 -0.09919,0.0474 -0.09919,0.10351 0,0.0517 0.04313,0.0992 0.09919,0.0992 h 0.306228 z m 0,0"
       id="path6775"
       inkscape:connector-curvature="0" />
    <path
       style="fill:#000000;fill-opacity:1;stroke:none;stroke-width:0.27602378"
       d="m 35.834151,243.902 h 0.741813 c 0.05178,0 0.09922,-0.0431 0.09922,-0.0992 0,-0.0517 -0.04744,-0.0992 -0.09922,-0.0992 h -0.629656 v -0.3364 h 0.539089 c 0.05175,0 0.09919,-0.0431 0.09919,-0.0949 0,-0.0561 -0.04744,-0.10351 -0.09919,-0.10351 h -0.539089 v -0.32347 h 0.62103 c 0.05178,0 0.09491,-0.0431 0.09491,-0.0992 0,-0.0561 -0.04313,-0.0992 -0.09491,-0.0992 h -0.733187 c -0.06038,0 -0.11213,0.0474 -0.11213,0.11214 v 1.03077 c 0,0.0647 0.05175,0.11214 0.11213,0.11214 z m 0,0"
       id="path6771"
       inkscape:connector-curvature="0" />
    <path
       inkscape:connector-curvature="0"
       id="path37367"
       d="m 38.290997,245.41388 c 0,-0.35581 -0.291121,-0.64693 -0.646906,-0.64693 H 31.36238 c -0.355812,0 -0.646933,0.29112 -0.646933,0.64693 v 6.28278 c 0,0.35581 0.291121,0.64693 0.646933,0.64693 h 6.281711 c 0.355785,0 0.646906,-0.29112 0.646906,-0.64693 z m 0,0"
       style="fill:#000000;fill-opacity:1;fill-rule:nonzero;stroke:none;stroke-width:0.27602378" />
  </g>
</svg>
