<?xml version="1.0" encoding="UTF-8" standalone="no"?>
<!-- Created with Inkscape (http://www.inkscape.org/) -->

<svg
   xmlns:dc="http://purl.org/dc/elements/1.1/"
   xmlns:cc="http://creativecommons.org/ns#"
   xmlns:rdf="http://www.w3.org/1999/02/22-rdf-syntax-ns#"
   xmlns:svg="http://www.w3.org/2000/svg"
   xmlns="http://www.w3.org/2000/svg"
   xmlns:sodipodi="http://sodipodi.sourceforge.net/DTD/sodipodi-0.dtd"
   xmlns:inkscape="http://www.inkscape.org/namespaces/inkscape"
   width="60"
   height="380"
   viewBox="0 0 15.875 100.54166"
   version="1.1"
   id="svg12553"
   inkscape:version="0.92.2 5c3e80d, 2017-08-06"
   sodipodi:docname="SimpleClock.svg">
  <defs
     id="defs12547" />
  <sodipodi:namedview
     id="base"
     pagecolor="#ffffff"
     bordercolor="#666666"
     borderopacity="1.0"
     inkscape:pageopacity="0.0"
     inkscape:pageshadow="2"
     inkscape:zoom="2.8"
     inkscape:cx="18.15267"
     inkscape:cy="194.3058"
     inkscape:document-units="px"
     inkscape:current-layer="layer1"
     showgrid="true"
     fit-margin-top="0"
     fit-margin-left="0"
     fit-margin-right="0"
     fit-margin-bottom="0"
     units="px"
     inkscape:window-width="1149"
     inkscape:window-height="1324"
     inkscape:window-x="394"
     inkscape:window-y="0"
     inkscape:window-maximized="0"
     inkscape:snap-global="false">
    <inkscape:grid
       type="xygrid"
       id="grid12870"
       originx="-20.372917"
       originy="84.666661" />
  </sodipodi:namedview>
  <metadata
     id="metadata12550">
    <rdf:RDF>
      <cc:Work
         rdf:about="">
        <dc:format>image/svg+xml</dc:format>
        <dc:type
           rdf:resource="http://purl.org/dc/dcmitype/StillImage" />
        <dc:title />
      </cc:Work>
    </rdf:RDF>
  </metadata>
  <g
     inkscape:label="Layer 1"
     inkscape:groupmode="layer"
     id="layer1"
     transform="translate(-26.543497,-161.30655)">
    <path
       inkscape:connector-curvature="0"
       id="path33453"
       d="m 26.616839,161.37987 h 15.780506 v 100.3961 H 26.616839 Z m 0,0"
       style="fill:#e6e6e6;fill-opacity:1;fill-rule:nonzero;stroke:none;stroke-width:0.11735593" />
    <path
       style="fill:#000000;fill-opacity:1;stroke:none;stroke-width:0.35561866"
       d="m 30.904017,169.80599 c 0.306589,0 0.512721,-0.10511 0.692427,-0.28038 0.02659,-0.0293 0.05286,-0.076 0.05286,-0.13435 0,-0.0876 -0.074,-0.16941 -0.158563,-0.16941 -0.04228,0 -0.074,0.0175 -0.100422,0.0409 -0.137423,0.12853 -0.274844,0.20444 -0.470439,0.20444 -0.364697,0 -0.628969,-0.33295 -0.628969,-0.74184 v -0.005 c 0,-0.40889 0.264272,-0.74184 0.628969,-0.74184 0.179738,0 0.31716,0.076 0.449297,0.19276 0.02108,0.0175 0.05286,0.0351 0.100421,0.0351 0.08986,0 0.16385,-0.0818 0.16385,-0.18109 0,-0.0642 -0.0266,-0.11688 -0.06342,-0.14603 -0.163849,-0.14019 -0.359411,-0.2395 -0.650144,-0.2395 -0.576114,0 -0.977841,0.49067 -0.977841,1.08648 v 0.005 c 0,0.60166 0.412297,1.0748 0.961985,1.0748 z m 0,0"
       id="path7375"
       inkscape:connector-curvature="0" />
    <path
       style="fill:#000000;fill-opacity:1;stroke:none;stroke-width:0.35561866"
       d="m 32.088803,169.58403 c 0,0.1051 0.074,0.18691 0.169133,0.18691 h 1.020159 c 0.08456,0 0.153277,-0.076 0.153277,-0.1694 0,-0.0934 -0.06872,-0.16356 -0.153277,-0.16356 h -0.856276 v -1.59467 c 0,-0.0993 -0.074,-0.18108 -0.163883,-0.18108 -0.09514,0 -0.169133,0.0818 -0.169133,0.18108 z m 0,0"
       id="path7371"
       inkscape:connector-curvature="0" />
    <path
       style="fill:#000000;fill-opacity:1;stroke:none;stroke-width:0.35561866"
       d="m 34.626923,169.80599 c 0.581434,0 0.993699,-0.49068 0.993699,-1.08065 v -0.005 c 0,-0.58997 -0.406981,-1.08064 -0.988413,-1.08064 -0.5814,0 -0.993698,0.49652 -0.993698,1.08649 v 0.005 c 0,0.58997 0.407012,1.0748 0.988412,1.0748 z m 0.0051,-0.3388 c -0.375267,0 -0.644825,-0.3388 -0.644825,-0.74185 v -0.005 c 0,-0.40889 0.264272,-0.74184 0.63954,-0.74184 0.3753,0 0.644858,0.3388 0.644858,0.74769 v 0.005 c 0,0.40304 -0.264273,0.736 -0.639573,0.736 z m 0,0"
       id="path7367"
       inkscape:connector-curvature="0" />
    <path
       style="fill:#000000;fill-opacity:1;stroke:none;stroke-width:0.35561866"
       d="m 36.953335,169.80599 c 0.306589,0 0.512721,-0.10511 0.692428,-0.28038 0.02659,-0.0293 0.05286,-0.076 0.05286,-0.13435 0,-0.0876 -0.074,-0.16941 -0.158565,-0.16941 -0.04228,0 -0.074,0.0175 -0.100422,0.0409 -0.137422,0.12853 -0.274844,0.20444 -0.470438,0.20444 -0.364696,0 -0.628969,-0.33295 -0.628969,-0.74184 v -0.005 c 0,-0.40889 0.264273,-0.74184 0.628969,-0.74184 0.179738,0 0.31716,0.076 0.449296,0.19276 0.02108,0.0175 0.05286,0.0351 0.100422,0.0351 0.08986,0 0.163848,-0.0818 0.163848,-0.18109 0,-0.0642 -0.02659,-0.11688 -0.06342,-0.14603 -0.163849,-0.14019 -0.359411,-0.2395 -0.650144,-0.2395 -0.576115,0 -0.977841,0.49067 -0.977841,1.08648 v 0.005 c 0,0.60166 0.412298,1.0748 0.961985,1.0748 z m 0,0"
       id="path7363"
       inkscape:connector-curvature="0" />
    <path
       style="fill:#000000;fill-opacity:1;stroke:none;stroke-width:0.35561866"
       d="m 38.138055,169.60154 c 0,0.1051 0.074,0.18693 0.169135,0.18693 0.08988,0 0.163882,-0.0818 0.163882,-0.18693 v -0.43226 l 0.306556,-0.32711 0.613144,0.85867 c 0.03178,0.0467 0.074,0.0876 0.137422,0.0876 0.09514,0 0.169135,-0.0818 0.169135,-0.18108 0,-0.0584 -0.02108,-0.0935 -0.04756,-0.13436 l -0.639571,-0.87619 0.592002,-0.62501 c 0.037,-0.0409 0.05814,-0.0818 0.05814,-0.14019 0,-0.0876 -0.05814,-0.16941 -0.153279,-0.16941 -0.05814,0 -0.100422,0.0233 -0.137421,0.07 l -0.898559,0.99887 v -0.88787 c 0,-0.0993 -0.074,-0.18108 -0.163881,-0.18108 -0.09514,0 -0.169135,0.0818 -0.169135,0.18108 z m 0,0"
       id="path7359"
       inkscape:connector-curvature="0" />
    <path
       style="fill:#000000;fill-opacity:1;stroke:none;stroke-width:0.27602378"
       d="m 32.393207,198.71976 c 0,0.0604 0.05175,0.10782 0.112131,0.10782 0.06038,0 0.112156,-0.0474 0.112156,-0.10782 v -0.34072 h 0.276014 l 0.306202,0.39247 c 0.02593,0.0345 0.05607,0.0561 0.107844,0.0561 0.05175,0 0.103505,-0.0388 0.103505,-0.10351 0,-0.0345 -0.01296,-0.0561 -0.0345,-0.0819 l -0.241539,-0.3019 c 0.168223,-0.0561 0.284666,-0.17683 0.284666,-0.37522 v -0.004 c 0,-0.11213 -0.0345,-0.2027 -0.103505,-0.27171 -0.07766,-0.0776 -0.202724,-0.12507 -0.362294,-0.12507 h -0.448548 c -0.06038,0 -0.112131,0.0474 -0.112131,0.11213 z m 0.224287,-0.5348 v -0.42266 h 0.319141 c 0.163883,0 0.258762,0.0733 0.258762,0.21133 0,0.12939 -0.09919,0.21133 -0.258762,0.21133 z m 0,0"
       id="path7335"
       inkscape:connector-curvature="0" />
    <path
       style="fill:#000000;fill-opacity:1;stroke:none;stroke-width:0.27602378"
       d="m 34.267119,198.84052 c 0.327765,0 0.539115,-0.18977 0.539115,-0.56499 v -0.61243 c 0,-0.0604 -0.04744,-0.10782 -0.107818,-0.10782 -0.06472,0 -0.112157,0.0474 -0.112157,0.10782 v 0.62106 c 0,0.23289 -0.120756,0.34934 -0.314828,0.34934 -0.198384,0 -0.31914,-0.12507 -0.31914,-0.35797 v -0.61243 c 0,-0.0604 -0.04747,-0.10782 -0.107844,-0.10782 -0.06469,0 -0.112131,0.0474 -0.112131,0.10782 v 0.62106 c 0,0.36659 0.20701,0.55636 0.534803,0.55636 z m 0,0"
       id="path7331"
       inkscape:connector-curvature="0" />
    <path
       style="fill:#000000;fill-opacity:1;stroke:none;stroke-width:0.27602378"
       d="m 35.177735,198.71976 c 0,0.0604 0.05175,0.10782 0.112131,0.10782 0.06038,0 0.107844,-0.0474 0.107844,-0.10782 v -0.79789 l 0.646906,0.8367 c 0.03021,0.0388 0.0604,0.069 0.112157,0.069 h 0.0087 c 0.06038,0 0.107818,-0.0517 0.107818,-0.11213 v -1.05234 c 0,-0.0604 -0.04744,-0.10783 -0.107818,-0.10783 -0.06038,0 -0.107844,0.0474 -0.107844,0.10783 v 0.772 l -0.629656,-0.81513 c -0.03019,-0.0388 -0.0604,-0.0647 -0.112156,-0.0647 h -0.02593 c -0.06038,0 -0.11213,0.0517 -0.11213,0.11213 z m 0,0"
       id="path7327"
       inkscape:connector-curvature="0" />
    <path
       style="fill:#000000;fill-opacity:1;stroke:none;stroke-width:0.43467134"
       d="m 30.012022,217.14485 c 0,0.0958 0.0809,0.17103 0.175295,0.17103 0.09439,0 0.175337,-0.0752 0.175337,-0.17103 v -0.54048 h 0.431495 l 0.478693,0.62257 c 0.04054,0.0547 0.08764,0.089 0.168594,0.089 0.0809,0 0.161811,-0.0615 0.161811,-0.16419 0,-0.0547 -0.02028,-0.089 -0.05393,-0.12992 l -0.377604,-0.47893 c 0.262984,-0.089 0.445022,-0.28048 0.445022,-0.5952 v -0.006 c 0,-0.17787 -0.05394,-0.32154 -0.161811,-0.43101 -0.121408,-0.12309 -0.316922,-0.19839 -0.566381,-0.19839 h -0.701226 c -0.09439,0 -0.175295,0.0751 -0.175295,0.17787 z m 0.350632,-0.84835 v -0.67046 h 0.498917 c 0.256201,0 0.404528,0.11628 0.404528,0.33523 0,0.20525 -0.155065,0.33523 -0.404528,0.33523 z m 0,0"
       id="path7323"
       inkscape:connector-curvature="0" />
    <path
       style="fill:#000000;fill-opacity:1;stroke:none;stroke-width:0.43467134"
       d="m 32.314231,217.30219 h 1.159687 c 0.08095,0 0.155112,-0.0684 0.155112,-0.15736 0,-0.082 -0.07416,-0.15736 -0.155112,-0.15736 h -0.98435 v -0.53362 h 0.842765 c 0.0809,0 0.155066,-0.0684 0.155066,-0.15054 0,-0.089 -0.07416,-0.1642 -0.155066,-0.1642 h -0.842765 v -0.51312 h 0.970866 c 0.08095,0 0.148375,-0.0684 0.148375,-0.15736 0,-0.089 -0.06743,-0.15736 -0.148375,-0.15736 h -1.146203 c -0.09439,0 -0.175295,0.0752 -0.175295,0.1779 v 1.63509 c 0,0.10263 0.0809,0.17789 0.175295,0.17789 z m 0,0"
       id="path7319"
       inkscape:connector-curvature="0" />
    <path
       style="fill:#000000;fill-opacity:1;stroke:none;stroke-width:0.43467134"
       d="m 34.790081,217.32955 c 0.418012,0 0.701182,-0.21892 0.701182,-0.5952 v -0.006 c 0,-0.32838 -0.209007,-0.4789 -0.627019,-0.58152 -0.377558,-0.089 -0.465247,-0.15736 -0.465247,-0.3147 0,-0.1369 0.114653,-0.23946 0.316921,-0.23946 0.155066,0 0.303396,0.0479 0.451722,0.15054 0.02689,0.0204 0.05394,0.0275 0.08764,0.0275 0.09439,0 0.168554,-0.0752 0.168554,-0.1642 0,-0.0684 -0.04054,-0.11627 -0.0809,-0.13689 -0.175296,-0.1231 -0.370817,-0.18473 -0.620277,-0.18473 -0.391084,0 -0.667511,0.23262 -0.667511,0.57469 v 0.006 c 0,0.36945 0.229232,0.49259 0.647285,0.5952 0.370817,0.082 0.44498,0.1642 0.44498,0.30103 v 0.006 c 0,0.15054 -0.134836,0.25312 -0.343848,0.25312 -0.215749,0 -0.391043,-0.0752 -0.552897,-0.20523 -0.02026,-0.0204 -0.05393,-0.0343 -0.101131,-0.0343 -0.08765,0 -0.161811,0.0752 -0.161811,0.16419 0,0.0547 0.02689,0.10264 0.06743,0.13689 0.215747,0.16421 0.471991,0.24629 0.734933,0.24629 z m 0,0"
       id="path7315"
       inkscape:connector-curvature="0" />
    <path
       style="fill:#000000;fill-opacity:1;stroke:none;stroke-width:0.43467134"
       d="m 36.169198,217.30219 h 1.159687 c 0.08095,0 0.155112,-0.0684 0.155112,-0.15736 0,-0.082 -0.07416,-0.15736 -0.155112,-0.15736 h -0.98435 v -0.53362 h 0.842767 c 0.0809,0 0.155065,-0.0684 0.155065,-0.15054 0,-0.089 -0.07416,-0.1642 -0.155065,-0.1642 h -0.842767 v -0.51312 h 0.970866 c 0.08095,0 0.148375,-0.0684 0.148375,-0.15736 0,-0.089 -0.06743,-0.15736 -0.148375,-0.15736 h -1.146203 c -0.09439,0 -0.175295,0.0752 -0.175295,0.1779 v 1.63509 c 0,0.10263 0.0809,0.17789 0.175295,0.17789 z m 0,0"
       id="path7311"
       inkscape:connector-curvature="0" />
    <path
       style="fill:#000000;fill-opacity:1;stroke:none;stroke-width:0.43467134"
       d="m 38.468265,217.14485 c 0,0.0958 0.0809,0.17103 0.175294,0.17103 0.09439,0 0.175297,-0.0752 0.175297,-0.17103 v -1.51197 h 0.47869 c 0.08769,0 0.155113,-0.0752 0.155113,-0.15736 0,-0.089 -0.06743,-0.1642 -0.155113,-0.1642 h -1.308014 c -0.08765,0 -0.155066,0.0752 -0.155066,0.1642 0,0.082 0.06743,0.15736 0.155066,0.15736 h 0.478733 z m 0,0"
       id="path7307"
       inkscape:connector-curvature="0" />
    <path
       inkscape:connector-curvature="0"
       id="path37367"
       d="m 38.290997,184.5786 c 0,-0.35581 -0.291121,-0.64693 -0.646906,-0.64693 H 31.36238 c -0.355812,0 -0.646933,0.29112 -0.646933,0.64693 v 6.28278 c 0,0.35581 0.291121,0.64693 0.646933,0.64693 h 6.281711 c 0.355785,0 0.646906,-0.29112 0.646906,-0.64693 z m 0,0"
       style="fill:#000000;fill-opacity:1;fill-rule:nonzero;stroke:none;stroke-width:0.27602378" />
    <path
       style="fill:none;stroke:#000000;stroke-width:0.26458332px;stroke-linecap:butt;stroke-linejoin:miter;stroke-opacity:1"
       d="M 27.204955,213.58065 H 41.662544"
       id="path44"
       inkscape:connector-curvature="0" />
    <path
       style="fill:#000000;fill-opacity:1;fill-rule:nonzero;stroke:none;stroke-width:0.27602378"
       d="m 38.290997,220.48635 c 0,-0.35581 -0.291121,-0.64693 -0.646906,-0.64693 H 31.36238 c -0.355812,0 -0.646933,0.29112 -0.646933,0.64693 v 6.28278 c 0,0.35581 0.291121,0.64693 0.646933,0.64693 h 6.281711 c 0.355785,0 0.646906,-0.29112 0.646906,-0.64693 z m 0,0"
       id="path46"
       inkscape:connector-curvature="0" />
    <g
       aria-label="RANDOM"
       transform="matrix(0.98780094,0,0,0.81978586,1.1184574,32.411632)"
       style="font-style:normal;font-variant:normal;font-weight:normal;font-stretch:normal;font-size:2.62988377px;line-height:1.25;font-family:'DejaVu Sans Mono';-inkscape-font-specification:'DejaVu Sans Mono, Normal';font-variant-ligatures:normal;font-variant-caps:normal;font-variant-numeric:normal;font-feature-settings:normal;text-align:start;letter-spacing:0px;word-spacing:0px;writing-mode:lr-tb;text-anchor:start;fill:#000000;fill-opacity:1;stroke:none;stroke-width:0.06574656"
       id="text103">
      <path
         d="m 29.921196,249.42132 q 0.100162,0.0257 0.170789,0.0976 0.07063,0.0706 0.175925,0.28379 l 0.260676,0.52392 h -0.278654 l -0.228574,-0.48411 q -0.09888,-0.20675 -0.178493,-0.26582 -0.07833,-0.0603 -0.20546,-0.0603 h -0.247836 v 0.81028 h -0.260677 v -1.9172 h 0.534196 q 0.315894,0 0.484114,0.14254 0.16822,0.14254 0.16822,0.41221 0,0.19005 -0.104014,0.31075 -0.10273,0.11943 -0.290212,0.14639 z m -0.531627,-0.79872 v 0.68058 h 0.283792 q 0.186197,0 0.27737,-0.0835 0.09117,-0.0835 0.09117,-0.25554 0,-0.16566 -0.09759,-0.25298 -0.09631,-0.0886 -0.281223,-0.0886 z"
         style="stroke-width:0.06574656"
         id="path136"
         inkscape:connector-curvature="0" />
      <path
         d="m 31.318322,248.63801 -0.273518,0.98107 h 0.547036 z m -0.156663,-0.22858 h 0.31461 l 0.586844,1.9172 h -0.268381 l -0.141254,-0.49952 h -0.671596 l -0.138685,0.49952 h -0.268382 z"
         style="stroke-width:0.06574656"
         id="path138"
         inkscape:connector-curvature="0" />
      <path
         d="m 32.287835,248.40943 h 0.328735 l 0.647198,1.57819 v -1.57819 h 0.250404 v 1.9172 h -0.328735 l -0.647198,-1.57819 v 1.57819 h -0.250404 z"
         style="stroke-width:0.06574656"
         id="path140"
         inkscape:connector-curvature="0" />
      <path
         d="m 34.251259,250.11347 q 0.327451,0 0.457148,-0.16052 0.129696,-0.1618 0.129696,-0.58299 0,-0.42505 -0.129696,-0.58556 -0.128412,-0.1618 -0.457148,-0.1618 h -0.123276 v 1.49087 z m 0.0051,-1.70404 q 0.43917,0 0.647198,0.23371 0.208027,0.23371 0.208027,0.72682 0,0.49053 -0.208027,0.72424 -0.208028,0.23243 -0.647198,0.23243 h -0.38909 v -1.9172 z"
         style="stroke-width:0.06574656"
         id="path142"
         inkscape:connector-curvature="0" />
      <path
         d="m 36.435552,249.36996 q 0,-0.42248 -0.08732,-0.60354 -0.08604,-0.18106 -0.283791,-0.18106 -0.196471,0 -0.283792,0.18106 -0.08604,0.18106 -0.08604,0.60354 0,0.42119 0.08604,0.60225 0.08732,0.18106 0.283792,0.18106 0.197754,0 0.283791,-0.17977 0.08732,-0.18107 0.08732,-0.60354 z m 0.27095,0 q 0,0.50081 -0.159231,0.74736 -0.157947,0.24655 -0.48283,0.24655 -0.324884,0 -0.482831,-0.24527 -0.157947,-0.24527 -0.157947,-0.74864 0,-0.50209 0.157947,-0.74865 0.159232,-0.24655 0.482831,-0.24655 0.324883,0 0.48283,0.24655 0.159231,0.24656 0.159231,0.74865 z"
         style="stroke-width:0.06574656"
         id="path144"
         inkscape:connector-curvature="0" />
      <path
         d="m 36.965895,248.40943 h 0.346713 l 0.331304,0.97594 0.333872,-0.97594 h 0.347997 v 1.9172 H 38.08565 v -1.69376 l -0.341577,1.01061 h -0.196471 l -0.34286,-1.01061 v 1.69376 h -0.238847 z"
         style="stroke-width:0.06574656"
         id="path146"
         inkscape:connector-curvature="0" />
    </g>
    <g
       aria-label="PROBABILITY"
       transform="matrix(0.95300107,0,0,1.1214997,1.2624196,-38.300981)"
       style="font-style:normal;font-variant:normal;font-weight:normal;font-stretch:normal;font-size:2.18522453px;line-height:1.25;font-family:'DejaVu Sans Mono';-inkscape-font-specification:'DejaVu Sans Mono, Normal';font-variant-ligatures:normal;font-variant-caps:normal;font-variant-numeric:normal;font-feature-settings:normal;text-align:start;letter-spacing:0px;word-spacing:0px;writing-mode:lr-tb;text-anchor:start;fill:#000000;fill-opacity:1;stroke:none;stroke-width:0.05463153"
       id="text107">
      <path
         d="m 28.069415,247.07238 v 0.59859 h 0.249679 q 0.149381,0 0.232607,-0.079 0.08429,-0.079 0.08429,-0.22087 0,-0.14191 -0.08323,-0.2198 -0.08323,-0.079 -0.233674,-0.079 z m -0.215535,-0.17712 h 0.465214 q 0.266751,0 0.404395,0.12164 0.137643,0.12057 0.137643,0.35424 0,0.23581 -0.137643,0.35638 -0.136577,0.12057 -0.404395,0.12057 h -0.249679 v 0.64021 H 27.85388 Z"
         style="stroke-width:0.05463153"
         id="path113"
         inkscape:connector-curvature="0" />
      <path
         d="m 29.769153,247.73606 q 0.08323,0.0213 0.141911,0.0811 0.05869,0.0587 0.14618,0.23581 l 0.216602,0.43534 h -0.23154 l -0.189927,-0.40226 q -0.08216,-0.17179 -0.148313,-0.22087 -0.06509,-0.0502 -0.170721,-0.0502 h -0.205932 v 0.67328 h -0.216602 v -1.59304 h 0.443874 q 0.262483,0 0.402261,0.11844 0.139777,0.11843 0.139777,0.34251 0,0.15791 -0.08643,0.25821 -0.08536,0.0992 -0.241143,0.12164 z m -0.44174,-0.66368 v 0.56551 h 0.235808 q 0.154716,0 0.230473,-0.0693 0.07576,-0.0694 0.07576,-0.21233 0,-0.13765 -0.08109,-0.2102 -0.08002,-0.0736 -0.233674,-0.0736 z"
         style="stroke-width:0.05463153"
         id="path115"
         inkscape:connector-curvature="0" />
      <path
         d="m 31.238418,247.69338 q 0,-0.35105 -0.07256,-0.50149 -0.07149,-0.15045 -0.235808,-0.15045 -0.163251,0 -0.235808,0.15045 -0.07149,0.15044 -0.07149,0.50149 0,0.34998 0.07149,0.50042 0.07256,0.15045 0.235808,0.15045 0.164319,0 0.235808,-0.14938 0.07256,-0.15045 0.07256,-0.50149 z m 0.225137,0 q 0,0.41613 -0.132308,0.62099 -0.131242,0.20487 -0.401194,0.20487 -0.269952,0 -0.401193,-0.2038 -0.131242,-0.2038 -0.131242,-0.62206 0,-0.4172 0.131242,-0.62207 0.132308,-0.20486 0.401193,-0.20486 0.269952,0 0.401194,0.20486 0.132308,0.20487 0.132308,0.62207 z"
         style="stroke-width:0.05463153"
         id="path117"
         inkscape:connector-curvature="0" />
      <path
         d="m 31.981052,247.72752 v 0.58365 h 0.255014 q 0.187793,0 0.267819,-0.0651 0.08003,-0.0662 0.08003,-0.21661 0,-0.15578 -0.08429,-0.22833 -0.08429,-0.0736 -0.263551,-0.0736 z m 0,-0.65514 v 0.48015 h 0.250746 q 0.155783,0 0.225138,-0.0597 0.07042,-0.0598 0.07042,-0.19313 0,-0.12057 -0.06936,-0.17392 -0.06829,-0.0533 -0.226205,-0.0533 z m -0.216601,-0.17712 h 0.471615 q 0.244344,0 0.376653,0.10563 0.132308,0.10564 0.132308,0.29876 0,0.14618 -0.07042,0.23048 -0.06936,0.0843 -0.209133,0.10563 0.15685,0.0235 0.245411,0.13444 0.08963,0.1099 0.08963,0.28062 0,0.21661 -0.141912,0.32758 -0.141911,0.1099 -0.422534,0.1099 h -0.471615 z"
         style="stroke-width:0.05463153"
         id="path119"
         inkscape:connector-curvature="0" />
      <path
         d="m 33.559151,247.08519 -0.227271,0.81519 h 0.454543 z m -0.130174,-0.18993 h 0.261416 l 0.487621,1.59304 H 33.95501 l -0.11737,-0.41507 h -0.558044 l -0.115236,0.41507 h -0.223004 z"
         style="stroke-width:0.05463153"
         id="path121"
         inkscape:connector-curvature="0" />
      <path
         d="m 34.61015,247.72752 v 0.58365 h 0.255014 q 0.187793,0 0.267818,-0.0651 0.08003,-0.0662 0.08003,-0.21661 0,-0.15578 -0.08429,-0.22833 -0.08429,-0.0736 -0.26355,-0.0736 z m 0,-0.65514 v 0.48015 h 0.250746 q 0.155783,0 0.225138,-0.0597 0.07042,-0.0598 0.07042,-0.19313 0,-0.12057 -0.06936,-0.17392 -0.06829,-0.0533 -0.226205,-0.0533 z m -0.216601,-0.17712 h 0.471615 q 0.244344,0 0.376653,0.10563 0.132308,0.10564 0.132308,0.29876 0,0.14618 -0.07042,0.23048 -0.06936,0.0843 -0.209133,0.10563 0.15685,0.0235 0.245411,0.13444 0.08963,0.1099 0.08963,0.28062 0,0.21661 -0.141912,0.32758 -0.141911,0.1099 -0.422534,0.1099 h -0.471615 z"
         style="stroke-width:0.05463153"
         id="path123"
         inkscape:connector-curvature="0" />
      <path
         d="m 35.745443,246.89526 h 0.884547 v 0.18139 h -0.333973 v 1.23026 h 0.333973 v 0.18139 h -0.884547 v -0.18139 h 0.333972 v -1.23026 h -0.333972 z"
         style="stroke-width:0.05463153"
         id="path125"
         inkscape:connector-curvature="0" />
      <path
         d="m 37.07493,246.89526 h 0.216602 v 1.41165 h 0.76931 v 0.18139 H 37.07493 Z"
         style="stroke-width:0.05463153"
         id="path127"
         inkscape:connector-curvature="0" />
      <path
         d="m 38.374541,246.89526 h 0.884547 v 0.18139 h -0.333973 v 1.23026 h 0.333973 v 0.18139 h -0.884547 v -0.18139 h 0.333972 v -1.23026 h -0.333972 z"
         style="stroke-width:0.05463153"
         id="path129"
         inkscape:connector-curvature="0" />
      <path
         d="m 39.524772,246.89526 h 1.215318 v 0.18139 h -0.498291 v 1.41165 h -0.216602 v -1.41165 h -0.500425 z"
         style="stroke-width:0.05463153"
         id="path131"
         inkscape:connector-curvature="0" />
      <path
         d="m 40.82865,246.89526 h 0.229406 l 0.38839,0.70316 0.387322,-0.70316 h 0.23154 l -0.511095,0.87814 v 0.7149 h -0.216602 v -0.7149 z"
         style="stroke-width:0.05463153"
         id="path133"
         inkscape:connector-curvature="0" />
    </g>
  </g>
</svg>
