<?xml version="1.0" encoding="UTF-8" standalone="no"?>
<!-- Created with Inkscape (http://www.inkscape.org/) -->

<svg
   xmlns:dc="http://purl.org/dc/elements/1.1/"
   xmlns:cc="http://creativecommons.org/ns#"
   xmlns:rdf="http://www.w3.org/1999/02/22-rdf-syntax-ns#"
   xmlns:svg="http://www.w3.org/2000/svg"
   xmlns="http://www.w3.org/2000/svg"
   xmlns:sodipodi="http://sodipodi.sourceforge.net/DTD/sodipodi-0.dtd"
   xmlns:inkscape="http://www.inkscape.org/namespaces/inkscape"
   width="60"
   height="380"
   viewBox="0 0 15.875 100.54166"
   version="1.1"
   id="svg12553"
   inkscape:version="0.92.2 5c3e80d, 2017-08-06"
   sodipodi:docname="SimpleClock.svg">
  <defs
     id="defs12547" />
  <sodipodi:namedview
     id="base"
     pagecolor="#ffffff"
     bordercolor="#666666"
     borderopacity="1.0"
     inkscape:pageopacity="0.0"
     inkscape:pageshadow="2"
     inkscape:zoom="1.979899"
     inkscape:cx="21.860442"
     inkscape:cy="187.618"
     inkscape:document-units="px"
     inkscape:current-layer="layer1"
     showgrid="true"
     fit-margin-top="0"
     fit-margin-left="0"
     fit-margin-right="0"
     fit-margin-bottom="0"
     units="px"
     inkscape:window-width="1271"
     inkscape:window-height="1046"
     inkscape:window-x="266"
     inkscape:window-y="0"
     inkscape:window-maximized="0"
     inkscape:snap-global="false">
    <inkscape:grid
       type="xygrid"
       id="grid12870"
       originx="-20.372917"
       originy="84.666661" />
  </sodipodi:namedview>
  <metadata
     id="metadata12550">
    <rdf:RDF>
      <cc:Work
         rdf:about="">
        <dc:format>image/svg+xml</dc:format>
        <dc:type
           rdf:resource="http://purl.org/dc/dcmitype/StillImage" />
        <dc:title />
      </cc:Work>
    </rdf:RDF>
  </metadata>
  <g
     inkscape:label="Layer 1"
     inkscape:groupmode="layer"
     id="layer1"
     transform="translate(-26.543497,-161.30655)">
    <path
       inkscape:connector-curvature="0"
       id="path33453"
       d="m 26.622872,161.42566 h 15.780506 v 100.3961 H 26.622872 Z m 0,0"
       style="fill:#e6e6e6;fill-opacity:1;fill-rule:nonzero;stroke:none;stroke-width:0.11735593" />
    <path
       style="fill:#000000;fill-opacity:1;stroke:none;stroke-width:0.35561866"
       d="m 30.702162,168.79344 c 0.306589,0 0.512721,-0.10511 0.692427,-0.28038 0.02659,-0.0293 0.05286,-0.076 0.05286,-0.13435 0,-0.0876 -0.074,-0.16941 -0.158563,-0.16941 -0.04228,0 -0.074,0.0175 -0.100422,0.0409 -0.137423,0.12853 -0.274844,0.20444 -0.470439,0.20444 -0.364697,0 -0.628969,-0.33295 -0.628969,-0.74184 v -0.005 c 0,-0.40889 0.264272,-0.74184 0.628969,-0.74184 0.179738,0 0.31716,0.076 0.449297,0.19276 0.02108,0.0175 0.05286,0.0351 0.100421,0.0351 0.08986,0 0.16385,-0.0818 0.16385,-0.18109 0,-0.0642 -0.0266,-0.11688 -0.06342,-0.14603 -0.163849,-0.14019 -0.359411,-0.2395 -0.650144,-0.2395 -0.576114,0 -0.977841,0.49067 -0.977841,1.08648 v 0.005 c 0,0.60166 0.412297,1.0748 0.961985,1.0748 z m 0,0"
       id="path7375"
       inkscape:connector-curvature="0" />
    <path
       style="fill:#000000;fill-opacity:1;stroke:none;stroke-width:0.35561866"
       d="m 31.886948,168.57148 c 0,0.1051 0.074,0.18691 0.169133,0.18691 h 1.020159 c 0.08456,0 0.153277,-0.076 0.153277,-0.1694 0,-0.0934 -0.06872,-0.16356 -0.153277,-0.16356 h -0.856276 v -1.59467 c 0,-0.0993 -0.074,-0.18108 -0.163883,-0.18108 -0.09514,0 -0.169133,0.0818 -0.169133,0.18108 z m 0,0"
       id="path7371"
       inkscape:connector-curvature="0" />
    <path
       style="fill:#000000;fill-opacity:1;stroke:none;stroke-width:0.35561866"
       d="m 34.425068,168.79344 c 0.581434,0 0.993699,-0.49068 0.993699,-1.08065 v -0.005 c 0,-0.58997 -0.406981,-1.08064 -0.988413,-1.08064 -0.5814,0 -0.993698,0.49652 -0.993698,1.08649 v 0.005 c 0,0.58997 0.407012,1.0748 0.988412,1.0748 z m 0.0051,-0.3388 c -0.375267,0 -0.644825,-0.3388 -0.644825,-0.74185 v -0.005 c 0,-0.40889 0.264272,-0.74184 0.63954,-0.74184 0.3753,0 0.644858,0.3388 0.644858,0.74769 v 0.005 c 0,0.40304 -0.264273,0.736 -0.639573,0.736 z m 0,0"
       id="path7367"
       inkscape:connector-curvature="0" />
    <path
       style="fill:#000000;fill-opacity:1;stroke:none;stroke-width:0.35561866"
       d="m 36.75148,168.79344 c 0.306589,0 0.512721,-0.10511 0.692428,-0.28038 0.02659,-0.0293 0.05286,-0.076 0.05286,-0.13435 0,-0.0876 -0.074,-0.16941 -0.158565,-0.16941 -0.04228,0 -0.074,0.0175 -0.100422,0.0409 -0.137422,0.12853 -0.274844,0.20444 -0.470438,0.20444 -0.364696,0 -0.628969,-0.33295 -0.628969,-0.74184 v -0.005 c 0,-0.40889 0.264273,-0.74184 0.628969,-0.74184 0.179738,0 0.31716,0.076 0.449296,0.19276 0.02108,0.0175 0.05286,0.0351 0.100422,0.0351 0.08986,0 0.163848,-0.0818 0.163848,-0.18109 0,-0.0642 -0.02659,-0.11688 -0.06342,-0.14603 -0.163849,-0.14019 -0.359411,-0.2395 -0.650144,-0.2395 -0.576115,0 -0.977841,0.49067 -0.977841,1.08648 v 0.005 c 0,0.60166 0.412298,1.0748 0.961985,1.0748 z m 0,0"
       id="path7363"
       inkscape:connector-curvature="0" />
    <path
       style="fill:#000000;fill-opacity:1;stroke:none;stroke-width:0.35561866"
       d="m 37.9362,168.58899 c 0,0.1051 0.074,0.18693 0.169135,0.18693 0.08988,0 0.163882,-0.0818 0.163882,-0.18693 v -0.43226 l 0.306556,-0.32711 0.613144,0.85867 c 0.03178,0.0467 0.074,0.0876 0.137422,0.0876 0.09514,0 0.169135,-0.0818 0.169135,-0.18108 0,-0.0584 -0.02108,-0.0935 -0.04756,-0.13436 l -0.639571,-0.87619 0.592002,-0.62501 c 0.037,-0.0409 0.05814,-0.0818 0.05814,-0.14019 0,-0.0876 -0.05814,-0.16941 -0.153279,-0.16941 -0.05814,0 -0.100422,0.0233 -0.137421,0.07 l -0.898559,0.99887 v -0.88787 c 0,-0.0993 -0.074,-0.18108 -0.163881,-0.18108 -0.09514,0 -0.169135,0.0818 -0.169135,0.18108 z m 0,0"
       id="path7359"
       inkscape:connector-curvature="0" />
    <path
       style="fill:#000000;fill-opacity:1;stroke:none;stroke-width:0.27602378"
       d="m 32.39924,196.1197 c 0,0.0604 0.05175,0.10782 0.112131,0.10782 0.06038,0 0.112156,-0.0474 0.112156,-0.10782 v -0.34072 h 0.276014 l 0.306202,0.39247 c 0.02593,0.0345 0.05607,0.0561 0.107844,0.0561 0.05175,0 0.103505,-0.0388 0.103505,-0.10351 0,-0.0345 -0.01296,-0.0561 -0.0345,-0.0819 l -0.241539,-0.3019 c 0.168223,-0.0561 0.284666,-0.17683 0.284666,-0.37522 v -0.004 c 0,-0.11213 -0.0345,-0.2027 -0.103505,-0.2717 -0.07766,-0.0776 -0.202724,-0.12507 -0.362294,-0.12507 h -0.448548 c -0.06038,0 -0.112131,0.0474 -0.112131,0.11213 z m 0.224287,-0.5348 v -0.42266 h 0.319141 c 0.163883,0 0.258762,0.0733 0.258762,0.21133 0,0.12939 -0.09919,0.21133 -0.258762,0.21133 z m 0,0"
       id="path7335"
       inkscape:connector-curvature="0" />
    <path
       style="fill:#000000;fill-opacity:1;stroke:none;stroke-width:0.27602378"
       d="m 34.273152,196.24046 c 0.327765,0 0.539115,-0.18977 0.539115,-0.56499 v -0.61243 c 0,-0.0604 -0.04744,-0.10782 -0.107818,-0.10782 -0.06472,0 -0.112157,0.0474 -0.112157,0.10782 v 0.62106 c 0,0.23289 -0.120756,0.34934 -0.314828,0.34934 -0.198384,0 -0.31914,-0.12507 -0.31914,-0.35797 v -0.61243 c 0,-0.0604 -0.04747,-0.10782 -0.107844,-0.10782 -0.06469,0 -0.112131,0.0474 -0.112131,0.10782 v 0.62106 c 0,0.36659 0.20701,0.55636 0.534803,0.55636 z m 0,0"
       id="path7331"
       inkscape:connector-curvature="0" />
    <path
       style="fill:#000000;fill-opacity:1;stroke:none;stroke-width:0.27602378"
       d="m 35.183768,196.1197 c 0,0.0604 0.05175,0.10782 0.112131,0.10782 0.06038,0 0.107844,-0.0474 0.107844,-0.10782 v -0.79789 l 0.646906,0.8367 c 0.03021,0.0388 0.0604,0.069 0.112157,0.069 h 0.0087 c 0.06038,0 0.107818,-0.0517 0.107818,-0.11213 v -1.05234 c 0,-0.0604 -0.04744,-0.10783 -0.107818,-0.10783 -0.06038,0 -0.107845,0.0474 -0.107845,0.10783 v 0.772 l -0.629655,-0.81513 c -0.03019,-0.0388 -0.0604,-0.0647 -0.112157,-0.0647 h -0.02593 c -0.06038,0 -0.11213,0.0517 -0.11213,0.11213 z m 0,0"
       id="path7327"
       inkscape:connector-curvature="0" />
    <path
       style="fill:#000000;fill-opacity:1;stroke:none;stroke-width:0.43467134"
       d="m 30.018055,210.8406 c 0,0.0958 0.0809,0.17103 0.175295,0.17103 0.09439,0 0.175337,-0.0752 0.175337,-0.17103 v -0.54048 h 0.431495 l 0.478693,0.62257 c 0.04054,0.0547 0.08764,0.089 0.168594,0.089 0.0809,0 0.161811,-0.0615 0.161811,-0.16419 0,-0.0547 -0.02028,-0.089 -0.05393,-0.12992 l -0.377604,-0.47893 c 0.262984,-0.089 0.445022,-0.28048 0.445022,-0.5952 v -0.006 c 0,-0.17788 -0.05394,-0.32154 -0.161811,-0.43102 -0.121408,-0.12309 -0.316922,-0.19839 -0.566381,-0.19839 H 30.19335 c -0.09439,0 -0.175295,0.0751 -0.175295,0.17788 z m 0.350632,-0.84835 v -0.67046 h 0.498917 c 0.256201,0 0.404528,0.11628 0.404528,0.33523 0,0.20525 -0.155065,0.33523 -0.404528,0.33523 z m 0,0"
       id="path7323"
       inkscape:connector-curvature="0" />
    <path
       style="fill:#000000;fill-opacity:1;stroke:none;stroke-width:0.43467134"
       d="m 32.320264,210.99794 h 1.159687 c 0.08095,0 0.155112,-0.0684 0.155112,-0.15736 0,-0.082 -0.07416,-0.15736 -0.155112,-0.15736 h -0.98435 v -0.53362 h 0.842765 c 0.0809,0 0.155066,-0.0684 0.155066,-0.15054 0,-0.089 -0.07416,-0.1642 -0.155066,-0.1642 h -0.842765 v -0.51312 h 0.970866 c 0.08095,0 0.148375,-0.0684 0.148375,-0.15736 0,-0.089 -0.06743,-0.15736 -0.148375,-0.15736 h -1.146203 c -0.09439,0 -0.175295,0.0752 -0.175295,0.1779 v 1.63509 c 0,0.10263 0.0809,0.17789 0.175295,0.17789 z m 0,0"
       id="path7319"
       inkscape:connector-curvature="0" />
    <path
       style="fill:#000000;fill-opacity:1;stroke:none;stroke-width:0.43467134"
       d="m 34.796114,211.0253 c 0.418012,0 0.701182,-0.21892 0.701182,-0.5952 v -0.006 c 0,-0.32838 -0.209007,-0.47889 -0.627019,-0.58152 -0.377558,-0.089 -0.465247,-0.15735 -0.465247,-0.3147 0,-0.13689 0.114653,-0.23945 0.316921,-0.23945 0.155066,0 0.303396,0.0479 0.451722,0.15054 0.02689,0.0204 0.05394,0.0275 0.08764,0.0275 0.09439,0 0.168554,-0.0752 0.168554,-0.1642 0,-0.0684 -0.04054,-0.11628 -0.0809,-0.13689 -0.175296,-0.1231 -0.370817,-0.18473 -0.620277,-0.18473 -0.391084,0 -0.667511,0.23261 -0.667511,0.57468 v 0.006 c 0,0.36945 0.229232,0.49259 0.647285,0.5952 0.370817,0.082 0.44498,0.1642 0.44498,0.30103 v 0.006 c 0,0.15054 -0.134836,0.25312 -0.343848,0.25312 -0.215749,0 -0.391043,-0.0752 -0.552897,-0.20523 -0.02026,-0.0204 -0.05393,-0.0343 -0.101131,-0.0343 -0.08765,0 -0.161811,0.0752 -0.161811,0.16419 0,0.0547 0.02689,0.10264 0.06743,0.13689 0.215747,0.16421 0.471991,0.24629 0.734933,0.24629 z m 0,0"
       id="path7315"
       inkscape:connector-curvature="0" />
    <path
       style="fill:#000000;fill-opacity:1;stroke:none;stroke-width:0.43467134"
       d="m 36.175231,210.99794 h 1.159687 c 0.08095,0 0.155112,-0.0684 0.155112,-0.15736 0,-0.082 -0.07416,-0.15736 -0.155112,-0.15736 h -0.98435 v -0.53362 h 0.842767 c 0.0809,0 0.155065,-0.0684 0.155065,-0.15054 0,-0.089 -0.07416,-0.1642 -0.155065,-0.1642 h -0.842767 v -0.51312 h 0.970866 c 0.08095,0 0.148375,-0.0684 0.148375,-0.15736 0,-0.089 -0.06743,-0.15736 -0.148375,-0.15736 h -1.146203 c -0.09439,0 -0.175295,0.0752 -0.175295,0.1779 v 1.63509 c 0,0.10263 0.0809,0.17789 0.175295,0.17789 z m 0,0"
       id="path7311"
       inkscape:connector-curvature="0" />
    <path
       style="fill:#000000;fill-opacity:1;stroke:none;stroke-width:0.43467134"
       d="m 38.474298,210.8406 c 0,0.0958 0.0809,0.17103 0.175294,0.17103 0.09439,0 0.175297,-0.0752 0.175297,-0.17103 v -1.51197 h 0.47869 c 0.08769,0 0.155113,-0.0752 0.155113,-0.15736 0,-0.089 -0.06743,-0.1642 -0.155113,-0.1642 h -1.308014 c -0.08765,0 -0.155066,0.0752 -0.155066,0.1642 0,0.082 0.06743,0.15736 0.155066,0.15736 h 0.478733 z m 0,0"
       id="path7307"
       inkscape:connector-curvature="0" />
    <path
       inkscape:connector-curvature="0"
       id="path37367"
       d="m 38.29703,181.97854 c 0,-0.35581 -0.291121,-0.64693 -0.646906,-0.64693 h -6.281711 c -0.355812,0 -0.646933,0.29112 -0.646933,0.64693 v 6.28278 c 0,0.35581 0.291121,0.64693 0.646933,0.64693 h 6.281711 c 0.355785,0 0.646906,-0.29112 0.646906,-0.64693 z m 0,0"
       style="fill:#000000;fill-opacity:1;fill-rule:nonzero;stroke:none;stroke-width:0.27602378" />
    <path
       style="fill:#000000;fill-opacity:1;fill-rule:nonzero;stroke:none;stroke-width:0.27602378"
       d="m 38.29703,213.65293 c 0,-0.35581 -0.291121,-0.64693 -0.646906,-0.64693 h -6.281711 c -0.355812,0 -0.646933,0.29112 -0.646933,0.64693 v 6.28278 c 0,0.35581 0.291121,0.64693 0.646933,0.64693 h 6.281711 c 0.355785,0 0.646906,-0.29112 0.646906,-0.64693 z m 0,0"
       id="path46"
       inkscape:connector-curvature="0" />
    <path
       inkscape:connector-curvature="0"
       id="path4012"
       d="m 32.677283,254.63278 c -0.02079,-0.0388 -0.03375,-0.3894 -0.03375,-0.91281 0,-0.97152 -0.02396,-0.89088 0.321103,-1.08058 0.110277,-0.0606 0.200504,-0.11952 0.200504,-0.13087 0,-0.0114 -0.06,-0.0622 -0.133338,-0.11305 -0.380006,-0.26334 -0.744464,-0.80497 -0.864566,-1.28484 -0.07442,-0.29736 -0.0496,-0.88366 0.04972,-1.17446 0.381938,-1.11823 1.621298,-1.79465 2.832229,-1.54578 0.789736,0.16231 1.416774,0.65484 1.733962,1.36201 0.133785,0.29827 0.178911,0.52255 0.178005,0.88468 -0.0016,0.65152 -0.297315,1.25714 -0.821227,1.68205 -0.09413,0.0763 -0.171152,0.15026 -0.171152,0.16427 0,0.014 0.06968,0.0652 0.154852,0.11375 0.32558,0.18564 0.301554,0.0964 0.301554,1.11984 0,0.657 -0.01058,0.91119 -0.03912,0.93973 -0.02949,0.0295 -0.486579,0.0391 -1.857079,0.0391 -1.763996,0 -1.818959,-0.002 -1.851705,-0.0631 z m 1.766287,-0.49583 c 0.0075,-0.2664 0.01985,-0.33734 0.06361,-0.36487 0.03936,-0.0248 0.06854,-0.0224 0.105951,0.009 0.04073,0.0338 0.05163,0.11082 0.05163,0.36486 v 0.32201 h 0.750833 c 0.637831,0 0.753662,-0.007 0.769627,-0.049 0.04387,-0.11434 -0.03116,-0.2028 -0.387657,-0.45705 -0.298189,-0.21266 -0.366692,-0.2766 -0.366692,-0.3423 0,-0.0639 0.01874,-0.0829 0.08965,-0.0911 l 0.08965,-0.0103 v -0.26872 c 0,-0.30409 0.04188,-0.4011 0.157336,-0.36446 0.06739,0.0214 0.07089,0.0412 0.07137,0.40334 2.61e-4,0.20949 0.01128,0.39632 0.02445,0.41519 0.03967,0.0568 0.255592,0.21019 0.295982,0.21019 0.02681,0 0.03767,-0.13961 0.03767,-0.48396 0,-0.5491 0.01672,-0.51117 -0.304257,-0.69049 l -0.190155,-0.10626 -0.331293,0.11059 c -0.32156,0.10735 -0.346619,0.1106 -0.853058,0.11049 -0.501072,-1e-4 -0.533002,-0.004 -0.805035,-0.10138 l -0.283269,-0.10128 -0.262789,0.14822 -0.262789,0.14821 v 0.49922 c 0,0.27458 0.0084,0.49924 0.01865,0.49924 0.01026,0 0.08361,-0.0381 0.163002,-0.0846 l 0.144357,-0.0846 4.76e-4,-0.33105 c 6.09e-4,-0.42417 0.07626,-0.59197 0.207639,-0.46058 0.04012,0.0401 0.05268,0.11775 0.05268,0.3254 v 0.27273 l 0.107464,-0.0174 c 0.116449,-0.0189 0.200791,0.0427 0.169634,0.1239 -0.0096,0.025 -0.207888,0.15966 -0.440669,0.29928 -0.411617,0.24688 -0.423237,0.25693 -0.423237,0.36621 v 0.11236 h 0.76497 0.76497 z m 0.837381,-1.61074 c 0.672782,-0.22526 1.220253,-0.79112 1.387814,-1.43443 0.05237,-0.20106 0.06746,-0.75134 0.02255,-0.8221 -0.02022,-0.0319 -0.190168,-0.0394 -0.73678,-0.0326 l -0.710502,0.009 -0.105698,0.2934 c -0.09258,0.257 -0.115266,0.2934 -0.182817,0.2934 -0.07159,0 -0.08118,-0.0219 -0.133726,-0.30567 -0.08629,-0.46599 -0.09775,-0.45871 -0.203477,0.12931 -0.09275,0.51591 -0.104598,0.55127 -0.184622,0.55127 -0.07719,0 -0.07335,0.0168 -0.218561,-0.95909 -0.06648,-0.44682 -0.135547,-0.81721 -0.153477,-0.8231 -0.01793,-0.006 -0.127957,0.17632 -0.244503,0.40489 l -0.211903,0.41559 -0.609915,0.009 -0.609915,0.009 -0.02203,0.1174 c -0.0373,0.19883 0.0076,0.60359 0.09466,0.85403 0.177796,0.51125 0.540472,0.91419 1.0494,1.16591 0.395682,0.1957 0.624083,0.24279 1.108415,0.2285 0.321915,-0.01 0.439715,-0.0278 0.665088,-0.10324 z m -0.954561,-0.1279 c -0.185323,-0.0525 -0.226329,-0.0854 -0.2102,-0.16849 0.01036,-0.0534 0.04822,-0.0612 0.320911,-0.0662 0.17004,-0.003 0.360509,-0.0104 0.423265,-0.0163 0.102089,-0.009 0.115144,-0.002 0.124008,0.0748 0.0085,0.0729 -0.0094,0.0931 -0.121747,0.13809 -0.193254,0.0773 -0.356929,0.089 -0.536237,0.0381 z m -0.607039,-0.76691 c -0.03586,-0.0359 -0.0652,-0.0945 -0.0652,-0.13041 0,-0.0904 0.11401,-0.1956 0.211903,-0.1956 0.09789,0 0.211902,0.10524 0.211902,0.1956 0,0.0904 -0.11401,0.19561 -0.211902,0.19561 -0.04483,0 -0.110842,-0.0293 -0.146703,-0.0652 z m 1.271417,-0.0326 c -0.08604,-0.086 -0.08225,-0.14891 0.01482,-0.24598 0.09004,-0.09 0.12191,-0.0961 0.223678,-0.0425 0.08947,0.0471 0.118976,0.0909 0.119609,0.17752 0.0012,0.16045 -0.235349,0.23376 -0.358105,0.111 z m -0.425642,-1.58112 c 0.109622,-0.66013 0.212762,-0.67723 0.323395,-0.0536 0.03612,0.20361 0.07293,0.37746 0.08179,0.38632 0.03058,0.0306 0.0785,-0.0227 0.100966,-0.11217 0.04327,-0.17241 0.03971,-0.17165 0.804717,-0.17165 0.809157,0 0.79359,0.006 0.682326,-0.24592 -0.242248,-0.54764 -0.798691,-1.00235 -1.437152,-1.1744 -0.285992,-0.0771 -0.855591,-0.0792 -1.141015,-0.004 -0.688569,0.18082 -1.269374,0.68028 -1.501495,1.29116 l -0.06366,0.16755 0.546224,-0.009 0.546225,-0.009 0.260803,-0.51183 c 0.143442,-0.28152 0.279246,-0.53029 0.301787,-0.55282 0.09055,-0.0905 0.134573,0.0463 0.237685,0.73824 0.05607,0.3763 0.109655,0.69666 0.119073,0.7119 0.03803,0.0615 0.07124,-0.0467 0.13833,-0.45068 z"
       style="fill:#54b6fc;stroke-width:0.03260044" />
    <path
       inkscape:connector-curvature="0"
       id="path4010"
       d="m 32.677283,254.63278 c -0.02079,-0.0388 -0.03375,-0.3894 -0.03375,-0.91281 0,-0.97152 -0.02396,-0.89088 0.321103,-1.08058 0.110277,-0.0606 0.200504,-0.11952 0.200504,-0.13087 0,-0.0114 -0.06,-0.0622 -0.133338,-0.11305 -0.380006,-0.26334 -0.744464,-0.80497 -0.864566,-1.28484 -0.07442,-0.29736 -0.0496,-0.88366 0.04972,-1.17446 0.381938,-1.11823 1.621298,-1.79465 2.832229,-1.54578 0.789736,0.16231 1.416774,0.65484 1.733962,1.36201 0.133785,0.29827 0.178911,0.52255 0.178005,0.88468 -0.0016,0.65152 -0.297315,1.25714 -0.821227,1.68205 -0.09413,0.0763 -0.171152,0.15026 -0.171152,0.16427 0,0.014 0.06968,0.0652 0.154852,0.11375 0.32558,0.18564 0.301554,0.0964 0.301554,1.11984 0,0.657 -0.01058,0.91119 -0.03912,0.93973 -0.02949,0.0295 -0.486579,0.0391 -1.857079,0.0391 -1.763996,0 -1.818959,-0.002 -1.851705,-0.0631 z m 1.766287,-0.49583 c 0.0075,-0.2664 0.01985,-0.33734 0.06361,-0.36487 0.03936,-0.0248 0.06854,-0.0224 0.105951,0.009 0.04073,0.0338 0.05163,0.11082 0.05163,0.36486 v 0.32201 h 0.750833 c 0.637831,0 0.753662,-0.007 0.769627,-0.049 0.04387,-0.11434 -0.03116,-0.2028 -0.387657,-0.45705 -0.298189,-0.21266 -0.366692,-0.2766 -0.366692,-0.3423 0,-0.0639 0.01874,-0.0829 0.08965,-0.0911 l 0.08965,-0.0103 v -0.26872 c 0,-0.30409 0.04188,-0.4011 0.157336,-0.36446 0.06739,0.0214 0.07089,0.0412 0.07137,0.40334 2.61e-4,0.20949 0.01128,0.39632 0.02445,0.41519 0.03967,0.0568 0.255592,0.21019 0.295982,0.21019 0.02681,0 0.03767,-0.13961 0.03767,-0.48396 0,-0.5491 0.01672,-0.51117 -0.304257,-0.69049 l -0.190155,-0.10626 -0.331293,0.11059 c -0.32156,0.10735 -0.346619,0.1106 -0.853058,0.11049 -0.501072,-1e-4 -0.533002,-0.004 -0.805035,-0.10138 l -0.283269,-0.10128 -0.262789,0.14822 -0.262789,0.14821 v 0.49922 c 0,0.27458 0.0084,0.49924 0.01865,0.49924 0.01026,0 0.08361,-0.0381 0.163002,-0.0846 l 0.144357,-0.0846 4.76e-4,-0.33105 c 6.09e-4,-0.42417 0.07626,-0.59197 0.207639,-0.46058 0.04012,0.0401 0.05268,0.11775 0.05268,0.3254 v 0.27273 l 0.107464,-0.0174 c 0.116449,-0.0189 0.200791,0.0427 0.169634,0.1239 -0.0096,0.025 -0.207888,0.15966 -0.440669,0.29928 -0.411617,0.24688 -0.423237,0.25693 -0.423237,0.36621 v 0.11236 h 0.76497 0.76497 z m 0.837381,-1.61074 c 0.518826,-0.17371 0.976222,-0.55469 1.217731,-1.01428 0.158604,-0.30183 0.220006,-0.55079 0.219464,-0.88985 -7.41e-4,-0.46853 0.076,-0.4251 -0.751243,-0.4251 -0.533387,0 -0.718086,0.0102 -0.737858,0.0408 -0.01451,0.0224 -0.07075,0.15798 -0.12498,0.30126 -0.141368,0.37349 -0.183763,0.36185 -0.261873,-0.0719 -0.0922,-0.51195 -0.136698,-0.485 -0.249433,0.15109 -0.08734,0.4928 -0.125092,0.60219 -0.185966,0.53886 -0.01637,-0.017 -0.08278,-0.39773 -0.147563,-0.84598 -0.139745,-0.96688 -0.138722,-0.96172 -0.190605,-0.96172 -0.02238,0 -0.139392,0.19805 -0.260029,0.44011 l -0.21934,0.44011 h -0.601264 -0.601265 l -0.02267,0.15115 c -0.0865,0.57684 0.17866,1.26703 0.651219,1.69506 0.233945,0.21191 0.690841,0.44906 0.997474,0.51774 0.34524,0.0773 0.928683,0.0464 1.268198,-0.0673 z m -0.954561,-0.1279 c -0.185323,-0.0525 -0.226329,-0.0854 -0.2102,-0.16849 0.01036,-0.0534 0.04822,-0.0612 0.320911,-0.0662 0.17004,-0.003 0.360509,-0.0104 0.423265,-0.0163 0.102089,-0.009 0.115144,-0.002 0.124008,0.0748 0.0085,0.0729 -0.0094,0.0931 -0.121747,0.13809 -0.193254,0.0773 -0.356929,0.089 -0.536237,0.0381 z m -0.607039,-0.76691 c -0.03586,-0.0359 -0.0652,-0.0945 -0.0652,-0.13041 0,-0.0904 0.11401,-0.1956 0.211903,-0.1956 0.09789,0 0.211902,0.10524 0.211902,0.1956 0,0.0904 -0.11401,0.19561 -0.211902,0.19561 -0.04483,0 -0.110842,-0.0293 -0.146703,-0.0652 z m 1.271417,-0.0326 c -0.08604,-0.086 -0.08225,-0.14891 0.01482,-0.24598 0.09004,-0.09 0.12191,-0.0961 0.223678,-0.0425 0.08947,0.0471 0.118976,0.0909 0.119609,0.17752 0.0012,0.16045 -0.235349,0.23376 -0.358105,0.111 z m -0.405805,-1.51626 c 0.07822,-0.44732 0.123442,-0.57391 0.182817,-0.51175 0.01213,0.0127 0.05627,0.2138 0.09807,0.44689 0.08608,0.47993 0.126983,0.52514 0.228627,0.25266 l 0.06384,-0.17116 h 0.729308 c 0.401119,0 0.736498,-0.0116 0.745286,-0.0258 0.02966,-0.048 -0.132143,-0.39141 -0.285964,-0.60697 -0.26912,-0.37714 -0.732526,-0.68718 -1.225787,-0.8201 -0.285992,-0.0771 -0.855591,-0.0792 -1.141015,-0.004 -0.400977,0.1053 -0.738986,0.29894 -1.029965,0.59005 -0.250384,0.2505 -0.443221,0.55773 -0.518651,0.82633 l -0.0206,0.0734 0.531954,-5.3e-4 c 0.292575,-2.7e-4 0.548503,-0.0113 0.56873,-0.0245 0.02023,-0.0132 0.156012,-0.26235 0.301746,-0.55371 0.248582,-0.49699 0.299912,-0.57187 0.34358,-0.50122 0.0097,0.0157 0.06282,0.34211 0.118043,0.72536 0.102865,0.71391 0.141358,0.87677 0.19464,0.82349 0.01647,-0.0165 0.06837,-0.24967 0.115331,-0.51822 z"
       style="fill:#a0a0a0;stroke-width:0.03260044" />
    <path
       inkscape:connector-curvature="0"
       id="path4008"
       d="m 32.696028,254.61194 c -0.0345,-0.0899 -0.02243,-1.67607 0.01326,-1.74275 0.01823,-0.0341 0.135594,-0.12177 0.260803,-0.1949 0.12521,-0.0731 0.227654,-0.14651 0.227654,-0.16306 0,-0.0166 -0.08332,-0.0929 -0.185157,-0.16972 -0.372373,-0.28077 -0.688841,-0.75937 -0.806783,-1.22013 -0.06516,-0.25454 -0.06617,-0.75409 -0.002,-1.00721 0.02707,-0.10686 0.110268,-0.31899 0.184878,-0.4714 0.108411,-0.22146 0.191833,-0.3333 0.415416,-0.55694 0.232178,-0.23223 0.332422,-0.30569 0.589383,-0.43192 0.446083,-0.21912 0.650333,-0.26571 1.157231,-0.26399 0.298209,0.001 0.484968,0.0183 0.630188,0.0582 1.183137,0.32543 1.920254,1.41002 1.72032,2.53126 -0.09179,0.51474 -0.458955,1.10261 -0.863969,1.38329 -0.07349,0.0509 -0.133621,0.10462 -0.133621,0.11932 0,0.0147 0.102555,0.0866 0.227898,0.15983 0.145373,0.0849 0.234278,0.15921 0.245513,0.20519 0.0097,0.0396 0.01349,0.46085 0.0085,0.936 l -0.0092,0.86392 -1.830183,0.008 c -1.647758,0.008 -1.832166,0.003 -1.850075,-0.0434 z m 1.773133,-0.47031 c 0.01501,-0.31514 0.02148,-0.34231 0.0815,-0.34231 0.06003,0 0.06649,0.0272 0.0815,0.34231 l 0.0163,0.3423 h 0.781964 c 0.731691,0 0.782703,-0.004 0.793448,-0.0596 0.02741,-0.14232 -0.03248,-0.21511 -0.38408,-0.46679 -0.196691,-0.14079 -0.365543,-0.27565 -0.375226,-0.29968 -0.02637,-0.0654 0.0096,-0.10301 0.09863,-0.10301 0.07839,0 0.07958,-0.004 0.07958,-0.28941 0,-0.21362 0.01243,-0.29973 0.04747,-0.32881 0.09149,-0.0759 0.11553,-0.002 0.11553,0.35668 0,0.1947 0.0089,0.37708 0.01967,0.40528 0.02798,0.0729 0.331068,0.28878 0.370903,0.26416 0.05065,-0.0313 0.0438,-1.00161 -0.0075,-1.06585 -0.02241,-0.0281 -0.13534,-0.10545 -0.250949,-0.17199 -0.235907,-0.13578 -0.245736,-0.13572 -0.621113,0.004 -0.229254,0.0851 -0.277035,0.0909 -0.76611,0.0918 -0.505502,0.001 -0.530954,-0.002 -0.824315,-0.10473 l -0.302707,-0.10572 -0.261403,0.15187 c -0.143772,0.0835 -0.275285,0.17783 -0.292251,0.20954 -0.01697,0.0317 -0.03085,0.26444 -0.03085,0.51721 0,0.3689 0.0092,0.4631 0.04672,0.47749 0.0582,0.0223 0.334753,-0.13648 0.377829,-0.21696 0.01752,-0.0327 0.03186,-0.21367 0.03186,-0.40205 0,-0.35411 0.0333,-0.44608 0.119047,-0.32883 0.02853,0.039 0.04395,0.15529 0.04395,0.33137 v 0.27127 l 0.133275,-0.0213 c 0.126153,-0.0202 0.132687,-0.0172 0.122252,0.0553 -0.0085,0.0594 -0.103869,0.13126 -0.424561,0.31998 -0.423502,0.2492 -0.481391,0.31117 -0.433012,0.46361 0.01914,0.0603 0.05374,0.0626 0.808178,0.0543 l 0.788181,-0.009 z m 0.79871,-1.57554 c 0.654234,-0.21426 1.171049,-0.7033 1.390172,-1.31545 0.07099,-0.19833 0.121351,-0.80646 0.08032,-0.96993 l -0.02102,-0.0837 h -0.730965 c -0.548972,0 -0.737531,0.0101 -0.757339,0.0408 -0.01451,0.0224 -0.07075,0.15798 -0.12498,0.30126 -0.141368,0.37349 -0.183763,0.36185 -0.261873,-0.0719 -0.0922,-0.51195 -0.136698,-0.485 -0.249433,0.15109 -0.08734,0.4928 -0.125092,0.60219 -0.185966,0.53886 -0.01637,-0.017 -0.08278,-0.39773 -0.147563,-0.84598 -0.139745,-0.96688 -0.138722,-0.96172 -0.190605,-0.96172 -0.02238,0 -0.139392,0.19805 -0.260029,0.44011 l -0.21934,0.44011 h -0.602115 c -0.703199,0 -0.669609,-0.0184 -0.669609,0.36754 0,0.29731 0.09429,0.67886 0.233957,0.94671 0.156854,0.30081 0.595229,0.72446 0.909574,0.87901 0.405647,0.19944 0.663295,0.25382 1.138499,0.24027 0.330032,-0.009 0.45709,-0.0279 0.668309,-0.097 z m -0.896512,-0.19011 c -0.17699,-0.0396 -0.260106,-0.10631 -0.20326,-0.16316 0.02825,-0.0283 0.08565,-0.0299 0.216447,-0.006 0.131816,0.0239 0.221634,0.0211 0.346175,-0.0108 0.178286,-0.0456 0.227446,-0.0365 0.227446,0.0422 0,0.10667 -0.354257,0.18992 -0.586808,0.13789 z m -0.630656,-0.7716 c -0.07012,-0.0775 -0.06831,-0.14549 0.0057,-0.21244 0.08609,-0.0779 0.191502,-0.0664 0.253084,0.0275 0.04947,0.0755 0.04947,0.0875 0,0.163 -0.06349,0.0969 -0.181806,0.10691 -0.258749,0.0219 z m 1.264799,-0.0523 c -0.100353,-0.15316 0.07345,-0.30321 0.231365,-0.19974 0.09147,0.0599 0.10322,0.15328 0.02868,0.22783 -0.07679,0.0768 -0.200043,0.0635 -0.260041,-0.0281 z m -0.420539,-1.46955 c 0.07822,-0.44732 0.123442,-0.57391 0.182817,-0.51175 0.01213,0.0127 0.05627,0.2138 0.09807,0.44689 0.08604,0.4797 0.126993,0.52511 0.228401,0.25326 l 0.06362,-0.17054 0.739608,-0.009 c 0.869677,-0.0103 0.843199,0.006 0.637261,-0.39106 -0.158814,-0.30617 -0.530537,-0.68478 -0.842654,-0.85827 -1.122274,-0.62379 -2.575417,-0.22823 -3.138512,0.85435 -0.07603,0.14618 -0.138244,0.30388 -0.138244,0.35045 v 0.0847 l 0.529757,-5.3e-4 c 0.291366,-2.6e-4 0.546306,-0.0113 0.566533,-0.0245 0.02023,-0.0132 0.156012,-0.26235 0.301746,-0.55371 0.248582,-0.49699 0.299912,-0.57187 0.34358,-0.50122 0.0097,0.0157 0.06282,0.34211 0.118043,0.72536 0.102865,0.71391 0.141358,0.87677 0.19464,0.82349 0.01647,-0.0165 0.06837,-0.24967 0.115331,-0.51822 z"
       style="fill:#179cfd;stroke-width:0.03260044" />
    <path
       inkscape:connector-curvature="0"
       id="path4006"
       d="m 32.696028,254.61194 c -0.0345,-0.0899 -0.02243,-1.67607 0.01326,-1.74275 0.01823,-0.0341 0.135594,-0.12177 0.260803,-0.1949 0.12521,-0.0731 0.227654,-0.14651 0.227654,-0.16306 0,-0.0166 -0.08332,-0.0929 -0.185157,-0.16972 -0.372373,-0.28077 -0.688841,-0.75937 -0.806783,-1.22013 -0.06516,-0.25454 -0.06617,-0.75409 -0.002,-1.00721 0.02707,-0.10686 0.110268,-0.31899 0.184878,-0.4714 0.108411,-0.22146 0.191833,-0.3333 0.415416,-0.55694 0.232178,-0.23223 0.332422,-0.30569 0.589383,-0.43192 0.446083,-0.21912 0.650333,-0.26571 1.157231,-0.26399 0.298209,0.001 0.484968,0.0183 0.630188,0.0582 1.183137,0.32543 1.920254,1.41002 1.72032,2.53126 -0.09179,0.51474 -0.458955,1.10261 -0.863969,1.38329 -0.07349,0.0509 -0.133621,0.10462 -0.133621,0.11932 0,0.0147 0.102555,0.0866 0.227898,0.15983 0.145373,0.0849 0.234278,0.15921 0.245513,0.20519 0.0097,0.0396 0.01349,0.46085 0.0085,0.936 l -0.0092,0.86392 -1.830183,0.008 c -1.647758,0.008 -1.832166,0.003 -1.850075,-0.0434 z m 1.773133,-0.47031 c 0.01501,-0.31514 0.02148,-0.34231 0.0815,-0.34231 0.06003,0 0.06649,0.0272 0.0815,0.34231 l 0.0163,0.3423 h 0.781964 c 0.731691,0 0.782703,-0.004 0.793448,-0.0596 0.02741,-0.14232 -0.03248,-0.21511 -0.38408,-0.46679 -0.196691,-0.14079 -0.365543,-0.27565 -0.375226,-0.29968 -0.02637,-0.0654 0.0096,-0.10301 0.09863,-0.10301 0.07839,0 0.07958,-0.004 0.07958,-0.28941 0,-0.21362 0.01243,-0.29973 0.04747,-0.32881 0.09149,-0.0759 0.11553,-0.002 0.11553,0.35668 0,0.1947 0.0089,0.37708 0.01967,0.40528 0.02798,0.0729 0.331068,0.28878 0.370903,0.26416 0.05065,-0.0313 0.0438,-1.00161 -0.0075,-1.06585 -0.02241,-0.0281 -0.13534,-0.10545 -0.250949,-0.17199 -0.235907,-0.13578 -0.245736,-0.13572 -0.621113,0.004 -0.229254,0.0851 -0.277035,0.0909 -0.76611,0.0918 -0.505502,0.001 -0.530954,-0.002 -0.824315,-0.10473 l -0.302707,-0.10572 -0.261403,0.15187 c -0.143772,0.0835 -0.275285,0.17783 -0.292251,0.20954 -0.01697,0.0317 -0.03085,0.26444 -0.03085,0.51721 0,0.3689 0.0092,0.4631 0.04672,0.47749 0.0582,0.0223 0.334753,-0.13648 0.377829,-0.21696 0.01752,-0.0327 0.03186,-0.21367 0.03186,-0.40205 0,-0.35411 0.0333,-0.44608 0.119047,-0.32883 0.02853,0.039 0.04395,0.15529 0.04395,0.33137 v 0.27127 l 0.133275,-0.0213 c 0.126153,-0.0202 0.132687,-0.0172 0.122252,0.0553 -0.0085,0.0594 -0.103869,0.13126 -0.424561,0.31998 -0.423502,0.2492 -0.481391,0.31117 -0.433012,0.46361 0.01914,0.0603 0.05374,0.0626 0.808178,0.0543 l 0.788181,-0.009 z m 0.79871,-1.57554 c 0.664755,-0.21771 1.194783,-0.72969 1.40639,-1.3585 0.07879,-0.23413 0.08203,-0.87483 0.0058,-1.14574 -0.13188,-0.46864 -0.53724,-0.96902 -0.987961,-1.21955 -0.91583,-0.50904 -2.068798,-0.35442 -2.787785,0.37388 -0.603842,0.61166 -0.749602,1.5209 -0.367606,2.29308 0.164191,0.3319 0.582832,0.74566 0.924365,0.91358 0.405647,0.19944 0.663295,0.25382 1.138499,0.24027 0.330032,-0.009 0.45709,-0.0279 0.668309,-0.097 z m -0.896512,-0.19011 c -0.17699,-0.0396 -0.260106,-0.10631 -0.20326,-0.16316 0.02825,-0.0283 0.08565,-0.0299 0.216447,-0.006 0.131816,0.0239 0.221634,0.0211 0.346175,-0.0108 0.178286,-0.0456 0.227446,-0.0365 0.227446,0.0422 0,0.10667 -0.354257,0.18992 -0.586808,0.13789 z m -0.630656,-0.7716 c -0.07012,-0.0775 -0.06831,-0.14549 0.0057,-0.21244 0.08609,-0.0779 0.191502,-0.0664 0.253084,0.0275 0.04947,0.0755 0.04947,0.0875 0,0.163 -0.06349,0.0969 -0.181806,0.10691 -0.258749,0.0219 z m 1.264799,-0.0523 c -0.100353,-0.15316 0.07345,-0.30321 0.231365,-0.19974 0.09147,0.0599 0.10322,0.15328 0.02868,0.22783 -0.07679,0.0768 -0.200043,0.0635 -0.260041,-0.0281 z"
       style="fill:#5d5d5d;stroke-width:0.03260044" />
    <path
       style="font-style:normal;font-variant:normal;font-weight:normal;font-stretch:normal;font-size:medium;line-height:1.25;font-family:'DejaVu Sans Mono';-inkscape-font-specification:'DejaVu Sans Mono, Normal';font-variant-ligatures:normal;font-variant-caps:normal;font-variant-numeric:normal;font-feature-settings:normal;text-align:center;letter-spacing:0px;word-spacing:0px;writing-mode:lr-tb;text-anchor:middle;fill:#000000;fill-opacity:1;stroke:none;stroke-width:0.26458332"
       inkscape:connector-curvature="0"
       id="path4175"
       d="m 31.499837,230.41231 q 0.08061,0.0207 0.137459,0.0785 0.05684,0.0568 0.141594,0.22841 l 0.209806,0.42168 H 31.76442 l -0.183968,-0.38964 q -0.07958,-0.1664 -0.14366,-0.21394 -0.06304,-0.0486 -0.165365,-0.0486 h -0.199471 v 0.65216 H 30.86215 v -1.54306 h 0.429948 q 0.254248,0 0.38964,0.11472 0.135392,0.11473 0.135392,0.33177 0,0.15296 -0.08372,0.25011 -0.08268,0.0961 -0.233578,0.11782 z m -0.427881,-0.64285 v 0.54777 h 0.22841 q 0.149862,0 0.223242,-0.0672 0.07338,-0.0672 0.07338,-0.20567 0,-0.13333 -0.07855,-0.20361 -0.07752,-0.0713 -0.226343,-0.0713 z" />
    <path
       style="font-style:normal;font-variant:normal;font-weight:normal;font-stretch:normal;font-size:medium;line-height:1.25;font-family:'DejaVu Sans Mono';-inkscape-font-specification:'DejaVu Sans Mono, Normal';font-variant-ligatures:normal;font-variant-caps:normal;font-variant-numeric:normal;font-feature-settings:normal;text-align:center;letter-spacing:0px;word-spacing:0px;writing-mode:lr-tb;text-anchor:middle;fill:#000000;fill-opacity:1;stroke:none;stroke-width:0.26458332"
       inkscape:connector-curvature="0"
       id="path4177"
       d="m 32.624316,229.78186 -0.220141,0.78962 h 0.440283 z m -0.12609,-0.18397 h 0.253214 l 0.472323,1.54306 h -0.216008 l -0.113688,-0.40204 h -0.540535 l -0.111621,0.40204 h -0.216008 z" />
    <path
       style="font-style:normal;font-variant:normal;font-weight:normal;font-stretch:normal;font-size:medium;line-height:1.25;font-family:'DejaVu Sans Mono';-inkscape-font-specification:'DejaVu Sans Mono, Normal';font-variant-ligatures:normal;font-variant-caps:normal;font-variant-numeric:normal;font-feature-settings:normal;text-align:center;letter-spacing:0px;word-spacing:0px;writing-mode:lr-tb;text-anchor:middle;fill:#000000;fill-opacity:1;stroke:none;stroke-width:0.26458332"
       inkscape:connector-curvature="0"
       id="path4179"
       d="m 33.40463,229.59789 h 0.264584 l 0.520898,1.27021 v -1.27021 h 0.201538 v 1.54306 h -0.264583 l -0.520899,-1.27021 v 1.27021 H 33.40463 Z" />
    <path
       style="font-style:normal;font-variant:normal;font-weight:normal;font-stretch:normal;font-size:medium;line-height:1.25;font-family:'DejaVu Sans Mono';-inkscape-font-specification:'DejaVu Sans Mono, Normal';font-variant-ligatures:normal;font-variant-caps:normal;font-variant-numeric:normal;font-feature-settings:normal;text-align:center;letter-spacing:0px;word-spacing:0px;writing-mode:lr-tb;text-anchor:middle;fill:#000000;fill-opacity:1;stroke:none;stroke-width:0.26458332"
       inkscape:connector-curvature="0"
       id="path4181"
       d="m 34.984895,230.96938 q 0.26355,0 0.367936,-0.12919 0.104387,-0.13022 0.104387,-0.46922 0,-0.3421 -0.104387,-0.47129 -0.103352,-0.13022 -0.367936,-0.13022 h -0.09922 v 1.19992 z m 0.0041,-1.37149 q 0.353467,0 0.520899,0.1881 0.167431,0.18811 0.167431,0.58498 0,0.39481 -0.167431,0.58291 -0.167432,0.18707 -0.520899,0.18707 h -0.313159 v -1.54306 z" />
    <path
       style="font-style:normal;font-variant:normal;font-weight:normal;font-stretch:normal;font-size:medium;line-height:1.25;font-family:'DejaVu Sans Mono';-inkscape-font-specification:'DejaVu Sans Mono, Normal';font-variant-ligatures:normal;font-variant-caps:normal;font-variant-numeric:normal;font-feature-settings:normal;text-align:center;letter-spacing:0px;word-spacing:0px;writing-mode:lr-tb;text-anchor:middle;fill:#000000;fill-opacity:1;stroke:none;stroke-width:0.26458332"
       inkscape:connector-curvature="0"
       id="path4183"
       d="m 36.742928,230.37097 q 0,-0.34003 -0.07028,-0.48576 -0.06925,-0.14572 -0.22841,-0.14572 -0.15813,0 -0.22841,0.14572 -0.06925,0.14573 -0.06925,0.48576 0,0.339 0.06925,0.48473 0.07028,0.14572 0.22841,0.14572 0.159163,0 0.22841,-0.14469 0.07028,-0.14573 0.07028,-0.48576 z m 0.218074,0 q 0,0.40308 -0.128157,0.60152 -0.127124,0.19843 -0.388607,0.19843 -0.261483,0 -0.388607,-0.1974 -0.127124,-0.19741 -0.127124,-0.60255 0,-0.40411 0.127124,-0.60255 0.128158,-0.19843 0.388607,-0.19843 0.261483,0 0.388607,0.19843 0.128157,0.19844 0.128157,0.60255 z" />
    <path
       style="font-style:normal;font-variant:normal;font-weight:normal;font-stretch:normal;font-size:medium;line-height:1.25;font-family:'DejaVu Sans Mono';-inkscape-font-specification:'DejaVu Sans Mono, Normal';font-variant-ligatures:normal;font-variant-caps:normal;font-variant-numeric:normal;font-feature-settings:normal;text-align:center;letter-spacing:0px;word-spacing:0px;writing-mode:lr-tb;text-anchor:middle;fill:#000000;fill-opacity:1;stroke:none;stroke-width:0.26458332"
       inkscape:connector-curvature="0"
       id="path4185"
       d="m 37.169775,229.59789 h 0.279053 l 0.26665,0.78548 0.268717,-0.78548 h 0.280087 v 1.54306 h -0.19327 v -1.36322 l -0.274919,0.81338 h -0.15813 l -0.275952,-0.81338 v 1.36322 h -0.192236 z" />
    <path
       style="font-style:normal;font-variant:normal;font-weight:normal;font-stretch:normal;font-size:medium;line-height:1.25;font-family:'DejaVu Sans Mono';-inkscape-font-specification:'DejaVu Sans Mono, Normal';font-variant-ligatures:normal;font-variant-caps:normal;font-variant-numeric:normal;font-feature-settings:normal;text-align:center;letter-spacing:0px;word-spacing:0px;writing-mode:lr-tb;text-anchor:middle;fill:#000000;fill-opacity:1;stroke:none;stroke-width:0.26458332"
       inkscape:connector-curvature="0"
       id="path4187"
       d="m 32.136491,233.05815 q 0.08062,0.0207 0.137459,0.0785 0.05684,0.0568 0.141593,0.22841 l 0.209807,0.42168 h -0.224276 l -0.183968,-0.3896 q -0.07958,-0.16639 -0.143661,-0.21394 -0.06304,-0.0486 -0.165364,-0.0486 H 31.70861 v 0.65215 h -0.209806 v -1.54305 h 0.429947 q 0.254248,0 0.389641,0.11472 0.135392,0.11472 0.135392,0.33176 0,0.15296 -0.08372,0.25011 -0.08268,0.0961 -0.233577,0.11783 z m -0.427881,-0.64286 v 0.54777 h 0.22841 q 0.149861,0 0.223242,-0.0672 0.07338,-0.0672 0.07338,-0.20567 0,-0.13333 -0.07855,-0.20361 -0.07751,-0.0713 -0.226343,-0.0713 z" />
    <path
       style="font-style:normal;font-variant:normal;font-weight:normal;font-stretch:normal;font-size:medium;line-height:1.25;font-family:'DejaVu Sans Mono';-inkscape-font-specification:'DejaVu Sans Mono, Normal';font-variant-ligatures:normal;font-variant-caps:normal;font-variant-numeric:normal;font-feature-settings:normal;text-align:center;letter-spacing:0px;word-spacing:0px;writing-mode:lr-tb;text-anchor:middle;fill:#000000;fill-opacity:1;stroke:none;stroke-width:0.26458332"
       inkscape:connector-curvature="0"
       id="path4189"
       d="m 32.827921,232.24373 h 0.915707 v 0.1757 h -0.706934 v 0.45681 h 0.675928 v 0.1757 h -0.675928 v 0.55914 h 0.726571 v 0.1757 h -0.935344 z" />
    <path
       style="font-style:normal;font-variant:normal;font-weight:normal;font-stretch:normal;font-size:medium;line-height:1.25;font-family:'DejaVu Sans Mono';-inkscape-font-specification:'DejaVu Sans Mono, Normal';font-variant-ligatures:normal;font-variant-caps:normal;font-variant-numeric:normal;font-feature-settings:normal;text-align:center;letter-spacing:0px;word-spacing:0px;writing-mode:lr-tb;text-anchor:middle;fill:#000000;fill-opacity:1;stroke:none;stroke-width:0.26458332"
       inkscape:connector-curvature="0"
       id="path4191"
       d="m 34.943554,232.29644 v 0.21187 q -0.09508,-0.061 -0.191202,-0.092 -0.09508,-0.031 -0.192237,-0.031 -0.147794,0 -0.233577,0.0693 -0.08578,0.0682 -0.08578,0.185 0,0.10232 0.05581,0.15606 0.05684,0.0537 0.21084,0.0899 l 0.109554,0.0248 q 0.217041,0.0506 0.31626,0.15916 0.09922,0.10853 0.09922,0.29559 0,0.22015 -0.136426,0.3359 -0.136426,0.11576 -0.396875,0.11576 -0.10852,0 -0.218075,-0.0238 -0.109554,-0.0227 -0.220141,-0.0692 v -0.22221 q 0.118856,0.0755 0.224276,0.11059 0.106453,0.0351 0.21394,0.0351 0.15813,0 0.24598,-0.0703 0.08785,-0.0713 0.08785,-0.19844 0,-0.11576 -0.06098,-0.17673 -0.05995,-0.061 -0.209807,-0.094 l -0.111621,-0.0258 q -0.214974,-0.0486 -0.312125,-0.14676 -0.09715,-0.0982 -0.09715,-0.26355 0,-0.20671 0.138493,-0.33073 0.139526,-0.12506 0.370003,-0.12506 0.08888,0 0.187069,0.0207 0.09819,0.0196 0.206705,0.06 z" />
    <path
       style="font-style:normal;font-variant:normal;font-weight:normal;font-stretch:normal;font-size:medium;line-height:1.25;font-family:'DejaVu Sans Mono';-inkscape-font-specification:'DejaVu Sans Mono, Normal';font-variant-ligatures:normal;font-variant-caps:normal;font-variant-numeric:normal;font-feature-settings:normal;text-align:center;letter-spacing:0px;word-spacing:0px;writing-mode:lr-tb;text-anchor:middle;fill:#000000;fill-opacity:1;stroke:none;stroke-width:0.26458332"
       inkscape:connector-curvature="0"
       id="path4193"
       d="m 35.374536,232.24373 h 0.915706 v 0.1757 h -0.706934 v 0.45681 h 0.675928 v 0.1757 h -0.675928 v 0.55914 h 0.726571 v 0.1757 h -0.935343 z" />
    <path
       style="font-style:normal;font-variant:normal;font-weight:normal;font-stretch:normal;font-size:medium;line-height:1.25;font-family:'DejaVu Sans Mono';-inkscape-font-specification:'DejaVu Sans Mono, Normal';font-variant-ligatures:normal;font-variant-caps:normal;font-variant-numeric:normal;font-feature-settings:normal;text-align:center;letter-spacing:0px;word-spacing:0px;writing-mode:lr-tb;text-anchor:middle;fill:#000000;fill-opacity:1;stroke:none;stroke-width:0.26458332"
       inkscape:connector-curvature="0"
       id="path4195"
       d="m 36.492814,232.24373 h 1.177189 v 0.1757 h -0.482658 v 1.36735 h -0.209806 v -1.36735 h -0.484725 z" />
  </g>
</svg>
