<?xml version="1.0" encoding="UTF-8" standalone="no"?>
<!-- Generator: Gravit.io -->

<svg
   xmlns:dc="http://purl.org/dc/elements/1.1/"
   xmlns:cc="http://creativecommons.org/ns#"
   xmlns:rdf="http://www.w3.org/1999/02/22-rdf-syntax-ns#"
   xmlns:svg="http://www.w3.org/2000/svg"
   xmlns="http://www.w3.org/2000/svg"
   xmlns:sodipodi="http://sodipodi.sourceforge.net/DTD/sodipodi-0.dtd"
   xmlns:inkscape="http://www.inkscape.org/namespaces/inkscape"
   style="isolation:isolate"
   viewBox="0 0 195 380"
   width="195"
   height="380"
   version="1.1"
   id="svg28"
   sodipodi:docname="Trigs.svg"
   inkscape:version="0.92.2 5c3e80d, 2017-08-06">
  <metadata
     id="metadata32">
    <rdf:RDF>
      <cc:Work
         rdf:about="">
        <dc:format>image/svg+xml</dc:format>
        <dc:type
           rdf:resource="http://purl.org/dc/dcmitype/StillImage" />
        <dc:title />
      </cc:Work>
    </rdf:RDF>
  </metadata>
  <sodipodi:namedview
     pagecolor="#ffffff"
     bordercolor="#666666"
     borderopacity="1"
     objecttolerance="10"
     gridtolerance="10"
     guidetolerance="10"
     inkscape:pageopacity="0"
     inkscape:pageshadow="2"
     inkscape:window-width="1372"
     inkscape:window-height="985"
     id="namedview30"
     showgrid="false"
     inkscape:zoom="3.2222903"
     inkscape:cx="109.9447"
     inkscape:cy="123.01187"
     inkscape:window-x="528"
     inkscape:window-y="217"
     inkscape:window-maximized="0"
     inkscape:current-layer="svg28"
     showguides="false"
     inkscape:snap-nodes="true"
     inkscape:snap-grids="false"
     inkscape:snap-global="false" />
  <defs
     id="defs5">
    <clipPath
       id="_clipPath_0ow2e6EsI2z2JMRNarlGPRVH8APlqVOp">
      <rect
         width="720"
         height="380"
         id="rect2"
         x="0"
         y="0" />
    </clipPath>
  </defs>
  <path
     style="fill:#e6e6e6;stroke-width:0.5204165"
     inkscape:connector-curvature="0"
     id="path7"
     d="M 0,0.55 H 195 V 380 H 0 Z" />
  <rect
     y="285.94449"
     x="3.0470161"
     height="38.888897"
     width="76.94445"
     id="rect2834"
     style="fill:#e0e0e0;fill-opacity:1;stroke:none;stroke-width:1.00157475;stroke-miterlimit:4;stroke-dasharray:none;stroke-dashoffset:0;stroke-opacity:1" />
  <g
     id="layer1-2"
     transform="translate(-29.575866)">
    <rect
       style="fill:#ffffff"
       id="rect9"
       height="2.2750001"
       width="10.008"
       y="347.13"
       x="39.669998" />
    <rect
       style="fill:#ffffff"
       id="rect11"
       height="0.70499998"
       width="12.49"
       y="347.74399"
       x="38.465" />
    <path
       style="fill:#ffffff"
       inkscape:connector-curvature="0"
       id="path13"
       d="m 36.026,339.784 c 0,-4.456 3.82,-8.074 8.525,-8.074 4.705,0 8.524,3.618 8.524,8.074 0,4.457 -3.819,8.075 -8.524,8.075 -4.705,0 -8.525,-3.618 -8.525,-8.075 z" />
    <rect
       style="fill:#ffffff"
       id="rect15"
       height="5.9190001"
       width="13.125"
       y="348.44901"
       x="37.944" />
    <path
       style="fill:#54b6fc"
       inkscape:connector-curvature="0"
       id="path17"
       d="m 37.635,354.766 c -0.078,-0.145 -0.126,-1.449 -0.126,-3.397 0,-3.615 -0.089,-3.315 1.195,-4.021 0.41,-0.226 0.746,-0.445 0.746,-0.487 0,-0.043 -0.223,-0.232 -0.496,-0.421 -1.414,-0.98 -2.77,-2.995 -3.217,-4.781 -0.277,-1.106 -0.185,-3.288 0.185,-4.37 1.421,-4.161 6.033,-6.679 10.539,-5.752 2.939,0.604 5.272,2.436 6.452,5.068 0.498,1.11 0.666,1.944 0.663,3.292 -0.006,2.424 -1.107,4.678 -3.056,6.259 -0.35,0.284 -0.637,0.559 -0.637,0.611 0,0.053 0.259,0.243 0.576,0.424 1.212,0.69 1.122,0.358 1.122,4.167 0,2.445 -0.039,3.39 -0.145,3.497 -0.11,0.109 -1.811,0.145 -6.911,0.145 -6.564,0 -6.768,-0.008 -6.89,-0.235 z m 6.572,-1.846 c 0.028,-0.991 0.074,-1.255 0.237,-1.357 0.147,-0.092 0.255,-0.083 0.394,0.033 0.152,0.126 0.192,0.413 0.192,1.358 v 1.198 h 2.794 c 2.374,0 2.805,-0.026 2.864,-0.182 0.164,-0.426 -0.116,-0.755 -1.442,-1.701 -1.11,-0.791 -1.365,-1.029 -1.365,-1.274 0,-0.237 0.07,-0.308 0.334,-0.339 l 0.334,-0.038 v -1 c 0,-1.132 0.155,-1.493 0.585,-1.356 0.251,0.079 0.264,0.153 0.266,1.501 0.001,0.779 0.042,1.474 0.091,1.545 0.147,0.211 0.951,0.782 1.101,0.782 0.1,0 0.14,-0.52 0.14,-1.801 0,-2.043 0.062,-1.902 -1.132,-2.569 l -0.708,-0.396 -1.232,0.412 c -1.197,0.399 -1.29,0.411 -3.175,0.411 -1.864,0 -1.983,-0.016 -2.996,-0.377 l -1.054,-0.377 -0.977,0.551 -0.978,0.552 v 1.857 c 0,1.022 0.031,1.858 0.069,1.858 0.038,0 0.311,-0.142 0.607,-0.315 l 0.537,-0.314 0.002,-1.232 c 0.002,-1.579 0.283,-2.203 0.772,-1.714 0.15,0.149 0.196,0.438 0.196,1.211 v 1.014 l 0.4,-0.064 c 0.434,-0.071 0.747,0.159 0.632,0.461 -0.036,0.093 -0.774,0.594 -1.64,1.113 -1.532,0.919 -1.575,0.957 -1.575,1.363 v 0.418 h 2.846 2.847 z m 3.116,-5.993 c 2.504,-0.839 4.541,-2.944 5.165,-5.338 0.195,-0.748 0.251,-2.796 0.084,-3.059 -0.076,-0.119 -0.708,-0.147 -2.742,-0.121 l -2.644,0.033 -0.393,1.092 c -0.345,0.956 -0.429,1.092 -0.681,1.092 -0.266,0 -0.302,-0.082 -0.497,-1.138 -0.321,-1.734 -0.364,-1.707 -0.757,0.481 -0.345,1.92 -0.39,2.052 -0.687,2.052 -0.288,0 -0.273,0.062 -0.814,-3.569 -0.247,-1.663 -0.504,-3.041 -0.571,-3.063 -0.066,-0.023 -0.476,0.656 -0.91,1.507 l -0.788,1.546 -2.27,0.034 -2.269,0.033 -0.082,0.437 c -0.139,0.74 0.028,2.246 0.352,3.178 0.662,1.902 2.011,3.402 3.905,4.338 1.472,0.729 2.322,0.904 4.125,0.851 1.197,-0.037 1.636,-0.104 2.474,-0.385 z m -3.552,-0.476 c -0.689,-0.196 -0.842,-0.318 -0.782,-0.627 0.039,-0.199 0.18,-0.228 1.194,-0.247 0.633,-0.011 1.342,-0.038 1.575,-0.06 0.38,-0.034 0.429,-0.009 0.462,0.278 0.031,0.271 -0.035,0.347 -0.453,0.514 -0.719,0.288 -1.328,0.331 -1.996,0.142 z m -2.259,-2.854 c -0.133,-0.134 -0.242,-0.352 -0.242,-0.485 0,-0.337 0.424,-0.728 0.788,-0.728 0.365,0 0.789,0.391 0.789,0.728 0,0.336 -0.424,0.728 -0.789,0.728 -0.166,0 -0.412,-0.11 -0.546,-0.243 z m 4.732,-0.121 c -0.321,-0.32 -0.306,-0.555 0.055,-0.916 0.335,-0.335 0.453,-0.357 0.832,-0.158 0.333,0.175 0.443,0.338 0.445,0.661 0.004,0.597 -0.876,0.869 -1.332,0.413 z m -1.584,-5.884 c 0.408,-2.456 0.791,-2.52 1.203,-0.199 0.135,0.757 0.272,1.404 0.304,1.437 0.114,0.114 0.293,-0.084 0.376,-0.417 0.161,-0.642 0.148,-0.639 2.995,-0.639 3.011,0 2.953,0.022 2.539,-0.915 -0.902,-2.038 -2.972,-3.73 -5.348,-4.37 -1.064,-0.287 -3.184,-0.295 -4.246,-0.016 -2.562,0.673 -4.724,2.532 -5.587,4.805 l -0.237,0.623 2.032,-0.033 2.033,-0.034 0.97,-1.904 c 0.534,-1.048 1.04,-1.974 1.123,-2.057 0.337,-0.337 0.501,0.172 0.885,2.747 0.209,1.4 0.408,2.592 0.443,2.649 0.141,0.229 0.265,-0.174 0.515,-1.677 z" />
    <path
       style="fill:#a0a0a0"
       inkscape:connector-curvature="0"
       id="path19"
       d="m 37.635,354.766 c -0.078,-0.145 -0.126,-1.449 -0.126,-3.397 0,-3.615 -0.089,-3.315 1.195,-4.021 0.41,-0.226 0.746,-0.445 0.746,-0.487 0,-0.043 -0.223,-0.232 -0.496,-0.421 -1.414,-0.98 -2.77,-2.995 -3.217,-4.781 -0.277,-1.106 -0.185,-3.288 0.185,-4.37 1.421,-4.161 6.033,-6.679 10.539,-5.752 2.939,0.604 5.272,2.436 6.452,5.068 0.498,1.11 0.666,1.944 0.663,3.292 -0.006,2.424 -1.107,4.678 -3.056,6.259 -0.35,0.284 -0.637,0.559 -0.637,0.611 0,0.053 0.259,0.243 0.576,0.424 1.212,0.69 1.122,0.358 1.122,4.167 0,2.445 -0.039,3.39 -0.145,3.497 -0.11,0.109 -1.811,0.145 -6.911,0.145 -6.564,0 -6.768,-0.008 -6.89,-0.235 z m 6.572,-1.846 c 0.028,-0.991 0.074,-1.255 0.237,-1.357 0.147,-0.092 0.255,-0.083 0.394,0.033 0.152,0.126 0.192,0.413 0.192,1.358 v 1.198 h 2.794 c 2.374,0 2.805,-0.026 2.864,-0.182 0.164,-0.426 -0.116,-0.755 -1.442,-1.701 -1.11,-0.791 -1.365,-1.029 -1.365,-1.274 0,-0.237 0.07,-0.308 0.334,-0.339 l 0.334,-0.038 v -1 c 0,-1.132 0.155,-1.493 0.585,-1.356 0.251,0.079 0.264,0.153 0.266,1.501 0.001,0.779 0.042,1.474 0.091,1.545 0.147,0.211 0.951,0.782 1.101,0.782 0.1,0 0.14,-0.52 0.14,-1.801 0,-2.043 0.062,-1.902 -1.132,-2.569 l -0.708,-0.396 -1.232,0.412 c -1.197,0.399 -1.29,0.411 -3.175,0.411 -1.864,0 -1.983,-0.016 -2.996,-0.377 l -1.054,-0.377 -0.977,0.551 -0.978,0.552 v 1.857 c 0,1.022 0.031,1.858 0.069,1.858 0.038,0 0.311,-0.142 0.607,-0.315 l 0.537,-0.314 0.002,-1.232 c 0.002,-1.579 0.283,-2.203 0.772,-1.714 0.15,0.149 0.196,0.438 0.196,1.211 v 1.014 l 0.4,-0.064 c 0.434,-0.071 0.747,0.159 0.632,0.461 -0.036,0.093 -0.774,0.594 -1.64,1.113 -1.532,0.919 -1.575,0.957 -1.575,1.363 v 0.418 h 2.846 2.847 z m 3.116,-5.993 c 1.931,-0.647 3.633,-2.064 4.532,-3.775 0.59,-1.123 0.818,-2.049 0.816,-3.311 -0.002,-1.743 0.283,-1.582 -2.795,-1.582 -1.985,0 -2.672,0.038 -2.746,0.152 -0.054,0.083 -0.263,0.588 -0.465,1.121 -0.526,1.39 -0.684,1.347 -0.974,-0.267 -0.343,-1.905 -0.509,-1.805 -0.928,0.562 -0.325,1.834 -0.466,2.241 -0.692,2.005 -0.061,-0.063 -0.309,-1.48 -0.55,-3.148 -0.52,-3.598 -0.516,-3.579 -0.709,-3.579 -0.083,0 -0.519,0.737 -0.967,1.638 l -0.817,1.638 h -2.237 -2.237 l -0.085,0.562 c -0.322,2.147 0.665,4.715 2.423,6.308 0.871,0.788 2.571,1.671 3.712,1.926 1.285,0.288 3.456,0.173 4.719,-0.25 z m -3.552,-0.476 c -0.689,-0.196 -0.842,-0.318 -0.782,-0.627 0.039,-0.199 0.18,-0.228 1.194,-0.247 0.633,-0.011 1.342,-0.038 1.575,-0.06 0.38,-0.034 0.429,-0.009 0.462,0.278 0.031,0.271 -0.035,0.347 -0.453,0.514 -0.719,0.288 -1.328,0.331 -1.996,0.142 z m -2.259,-2.854 c -0.133,-0.134 -0.242,-0.352 -0.242,-0.485 0,-0.337 0.424,-0.728 0.788,-0.728 0.365,0 0.789,0.391 0.789,0.728 0,0.336 -0.424,0.728 -0.789,0.728 -0.166,0 -0.412,-0.11 -0.546,-0.243 z m 4.732,-0.121 c -0.321,-0.32 -0.306,-0.555 0.055,-0.916 0.335,-0.335 0.453,-0.357 0.832,-0.158 0.333,0.175 0.443,0.338 0.445,0.661 0.004,0.597 -0.876,0.869 -1.332,0.413 z m -1.51,-5.643 c 0.291,-1.664 0.459,-2.135 0.68,-1.904 0.045,0.047 0.209,0.796 0.365,1.663 0.32,1.786 0.472,1.954 0.851,0.94 l 0.237,-0.637 h 2.714 c 1.493,0 2.741,-0.043 2.773,-0.096 0.111,-0.178 -0.491,-1.456 -1.064,-2.258 -1.001,-1.404 -2.726,-2.557 -4.561,-3.052 -1.064,-0.287 -3.184,-0.295 -4.246,-0.016 -1.492,0.392 -2.75,1.113 -3.833,2.196 -0.931,0.932 -1.649,2.075 -1.93,3.075 l -0.076,0.273 1.979,-10e-4 c 1.089,-0.001 2.041,-0.042 2.116,-0.091 0.076,-0.049 0.581,-0.977 1.123,-2.061 0.925,-1.849 1.116,-2.128 1.279,-1.865 0.036,0.059 0.234,1.273 0.439,2.699 0.383,2.657 0.526,3.263 0.724,3.065 0.062,-0.062 0.255,-0.929 0.429,-1.929 z" />
    <path
       style="fill:#179cfd"
       inkscape:connector-curvature="0"
       id="path21"
       d="m 37.695,354.688 c -0.128,-0.335 -0.083,-6.237 0.05,-6.485 0.067,-0.127 0.504,-0.453 0.97,-0.725 0.466,-0.272 0.847,-0.545 0.847,-0.607 0,-0.062 -0.31,-0.346 -0.689,-0.632 -1.386,-1.044 -2.563,-2.825 -3.002,-4.54 -0.243,-0.947 -0.246,-2.806 -0.007,-3.748 0.1,-0.398 0.41,-1.187 0.687,-1.754 0.404,-0.824 0.714,-1.24 1.546,-2.073 0.864,-0.864 1.237,-1.137 2.194,-1.607 1.659,-0.815 2.42,-0.989 4.306,-0.982 1.109,0.003 1.804,0.068 2.345,0.216 4.402,1.211 7.145,5.247 6.401,9.42 -0.341,1.915 -1.707,4.103 -3.215,5.147 -0.273,0.189 -0.497,0.389 -0.497,0.444 0,0.055 0.382,0.322 0.848,0.595 0.541,0.316 0.872,0.592 0.914,0.763 0.036,0.148 0.05,1.715 0.031,3.483 l -0.034,3.215 -6.81,0.03 c -6.132,0.029 -6.818,0.011 -6.885,-0.161 z m 6.598,-1.75 c 0.056,-1.173 0.08,-1.274 0.304,-1.274 0.223,0 0.247,0.101 0.303,1.274 l 0.061,1.274 h 2.909 c 2.723,0 2.913,-0.016 2.953,-0.222 0.102,-0.53 -0.121,-0.801 -1.429,-1.737 -0.732,-0.524 -1.361,-1.026 -1.397,-1.115 -0.098,-0.244 0.036,-0.384 0.367,-0.384 0.292,0 0.297,-0.015 0.297,-1.077 0,-0.794 0.046,-1.115 0.176,-1.223 0.341,-0.283 0.43,-0.008 0.43,1.327 0,0.725 0.033,1.403 0.073,1.508 0.104,0.272 1.232,1.075 1.38,0.983 0.189,-0.116 0.163,-3.727 -0.027,-3.966 -0.084,-0.105 -0.504,-0.392 -0.934,-0.64 -0.878,-0.505 -0.915,-0.505 -2.312,0.016 -0.853,0.316 -1.03,0.338 -2.85,0.341 -1.881,0.003 -1.976,-0.008 -3.068,-0.39 l -1.126,-0.393 -0.973,0.565 c -0.535,0.311 -1.024,0.662 -1.087,0.78 -0.064,0.118 -0.115,0.984 -0.115,1.925 0,1.372 0.034,1.723 0.174,1.776 0.216,0.083 1.245,-0.507 1.406,-0.807 0.065,-0.122 0.118,-0.795 0.118,-1.496 0,-1.318 0.124,-1.66 0.443,-1.224 0.106,0.145 0.164,0.578 0.164,1.233 v 1.01 l 0.496,-0.079 c 0.469,-0.075 0.493,-0.064 0.455,0.205 -0.032,0.221 -0.387,0.489 -1.58,1.191 -1.576,0.927 -1.792,1.158 -1.612,1.725 0.072,0.225 0.2,0.233 3.008,0.202 l 2.933,-0.033 z m 2.972,-5.863 c 2.435,-0.797 4.358,-2.617 5.174,-4.895 0.264,-0.738 0.451,-3.001 0.298,-3.609 l -0.078,-0.312 h -2.72 c -2.043,0 -2.744,0.038 -2.818,0.152 -0.054,0.083 -0.263,0.588 -0.465,1.121 -0.526,1.39 -0.684,1.347 -0.975,-0.267 -0.343,-1.905 -0.508,-1.805 -0.928,0.562 -0.325,1.834 -0.465,2.241 -0.692,2.005 -0.061,-0.063 -0.308,-1.48 -0.549,-3.148 -0.52,-3.598 -0.516,-3.579 -0.709,-3.579 -0.083,0 -0.519,0.737 -0.968,1.638 l -0.816,1.638 h -2.241 c -2.616,0 -2.491,-0.069 -2.491,1.367 0,1.107 0.351,2.527 0.87,3.523 0.584,1.12 2.215,2.696 3.385,3.271 1.509,0.742 2.468,0.945 4.237,0.894 1.228,-0.033 1.7,-0.103 2.486,-0.361 z m -3.336,-0.707 c -0.658,-0.148 -0.968,-0.396 -0.756,-0.608 0.105,-0.105 0.319,-0.111 0.805,-0.022 0.491,0.089 0.825,0.079 1.289,-0.04 0.663,-0.169 0.846,-0.136 0.846,0.157 0,0.397 -1.318,0.707 -2.184,0.513 z m -2.346,-2.872 c -0.261,-0.288 -0.255,-0.541 0.021,-0.79 0.32,-0.29 0.712,-0.247 0.942,0.102 0.184,0.281 0.184,0.326 0,0.607 -0.237,0.36 -0.677,0.397 -0.963,0.081 z m 4.706,-0.194 c -0.373,-0.57 0.273,-1.129 0.861,-0.744 0.34,0.223 0.384,0.571 0.107,0.848 -0.286,0.286 -0.745,0.237 -0.968,-0.104 z m -1.565,-5.469 c 0.291,-1.664 0.46,-2.135 0.681,-1.904 0.045,0.047 0.209,0.796 0.364,1.663 0.321,1.785 0.473,1.954 0.85,0.942 l 0.237,-0.634 2.752,-0.034 c 3.237,-0.038 3.138,0.023 2.372,-1.455 -0.591,-1.139 -1.975,-2.548 -3.136,-3.194 -4.176,-2.321 -9.584,-0.849 -11.679,3.18 -0.283,0.544 -0.514,1.13 -0.514,1.304 v 0.315 l 1.971,-0.002 c 1.084,0 2.033,-0.042 2.108,-0.091 0.075,-0.049 0.581,-0.976 1.123,-2.06 0.925,-1.85 1.116,-2.128 1.279,-1.865 0.036,0.058 0.233,1.273 0.439,2.699 0.383,2.656 0.526,3.263 0.724,3.064 0.061,-0.061 0.254,-0.929 0.429,-1.928 z" />
    <path
       style="fill:#050505"
       inkscape:connector-curvature="0"
       id="path23"
       d="m 37.695,354.688 c -0.128,-0.335 -0.083,-6.237 0.05,-6.485 0.067,-0.127 0.504,-0.453 0.97,-0.725 0.466,-0.272 0.847,-0.545 0.847,-0.607 0,-0.062 -0.31,-0.346 -0.689,-0.632 -1.386,-1.044 -2.563,-2.825 -3.002,-4.54 -0.243,-0.947 -0.246,-2.806 -0.007,-3.748 0.1,-0.398 0.41,-1.187 0.687,-1.754 0.404,-0.824 0.714,-1.24 1.546,-2.073 0.864,-0.864 1.237,-1.137 2.194,-1.607 1.659,-0.815 2.42,-0.989 4.306,-0.982 1.109,0.003 1.804,0.068 2.345,0.216 4.402,1.211 7.145,5.247 6.401,9.42 -0.341,1.915 -1.707,4.103 -3.215,5.147 -0.273,0.189 -0.497,0.389 -0.497,0.444 0,0.055 0.382,0.322 0.848,0.595 0.541,0.316 0.872,0.592 0.914,0.763 0.036,0.148 0.05,1.715 0.031,3.483 l -0.034,3.215 -6.81,0.03 c -6.132,0.029 -6.818,0.011 -6.885,-0.161 z m 6.598,-1.75 c 0.056,-1.173 0.08,-1.274 0.304,-1.274 0.223,0 0.247,0.101 0.303,1.274 l 0.061,1.274 h 2.909 c 2.723,0 2.913,-0.016 2.953,-0.222 0.102,-0.53 -0.121,-0.801 -1.429,-1.737 -0.732,-0.524 -1.361,-1.026 -1.397,-1.115 -0.098,-0.244 0.036,-0.384 0.367,-0.384 0.292,0 0.297,-0.015 0.297,-1.077 0,-0.794 0.046,-1.115 0.176,-1.223 0.341,-0.283 0.43,-0.008 0.43,1.327 0,0.725 0.033,1.403 0.073,1.508 0.104,0.272 1.232,1.075 1.38,0.983 0.189,-0.116 0.163,-3.727 -0.027,-3.966 -0.084,-0.105 -0.504,-0.392 -0.934,-0.64 -0.878,-0.505 -0.915,-0.505 -2.312,0.016 -0.853,0.316 -1.03,0.338 -2.85,0.341 -1.881,0.003 -1.976,-0.008 -3.068,-0.39 l -1.126,-0.393 -0.973,0.565 c -0.535,0.311 -1.024,0.662 -1.087,0.78 -0.064,0.118 -0.115,0.984 -0.115,1.925 0,1.372 0.034,1.723 0.174,1.776 0.216,0.083 1.245,-0.507 1.406,-0.807 0.065,-0.122 0.118,-0.795 0.118,-1.496 0,-1.318 0.124,-1.66 0.443,-1.224 0.106,0.145 0.164,0.578 0.164,1.233 v 1.01 l 0.496,-0.079 c 0.469,-0.075 0.493,-0.064 0.455,0.205 -0.032,0.221 -0.387,0.489 -1.58,1.191 -1.576,0.927 -1.792,1.158 -1.612,1.725 0.072,0.225 0.2,0.233 3.008,0.202 l 2.933,-0.033 z m 2.972,-5.863 c 2.474,-0.81 4.446,-2.715 5.234,-5.055 0.293,-0.871 0.305,-3.256 0.021,-4.264 -0.49,-1.744 -1.999,-3.606 -3.676,-4.538 -3.408,-1.894 -7.698,-1.319 -10.374,1.391 -2.247,2.277 -2.789,5.66 -1.368,8.533 0.611,1.235 2.169,2.775 3.44,3.4 1.51,0.742 2.468,0.944 4.237,0.894 1.228,-0.033 1.701,-0.104 2.486,-0.361 z m -3.336,-0.707 c -0.658,-0.148 -0.968,-0.396 -0.756,-0.608 0.105,-0.105 0.319,-0.111 0.805,-0.022 0.491,0.089 0.825,0.079 1.289,-0.04 0.663,-0.169 0.846,-0.136 0.846,0.157 0,0.397 -1.318,0.707 -2.184,0.513 z m -2.346,-2.872 c -0.261,-0.288 -0.255,-0.541 0.021,-0.79 0.32,-0.29 0.712,-0.247 0.942,0.102 0.184,0.281 0.184,0.326 0,0.607 -0.237,0.36 -0.677,0.397 -0.963,0.081 z m 4.706,-0.194 c -0.373,-0.57 0.273,-1.129 0.861,-0.744 0.34,0.223 0.384,0.571 0.107,0.848 -0.286,0.286 -0.745,0.237 -0.968,-0.104 z" />
  </g>
  <g
     aria-label="MODE"
     style="font-style:normal;font-variant:normal;font-weight:normal;font-stretch:normal;font-size:9.33333302px;line-height:1.25;font-family:monospace;-inkscape-font-specification:'monospace, Normal';font-variant-ligatures:normal;font-variant-caps:normal;font-variant-numeric:normal;font-feature-settings:normal;text-align:center;letter-spacing:0px;word-spacing:0px;writing-mode:lr-tb;text-anchor:middle;fill:#000000;fill-opacity:1;stroke:none"
     id="text841"
     transform="translate(35.111111,-2.5555586)">
    <path
       d="m 125.71832,27.357181 h 1.23047 l 1.17578,3.463541 1.18489,-3.463541 h 1.23503 v 6.804036 h -0.85221 v -6.011068 l -1.21224,3.586589 h -0.69727 l -1.2168,-3.586589 v 6.011068 h -0.84765 z"
       id="path1228"
       inkscape:connector-curvature="0" />
    <path
       d="m 135.06532,30.766035 q 0,-1.499349 -0.30989,-2.141927 -0.30534,-0.642579 -1.00716,-0.642579 -0.69727,0 -1.00717,0.642579 -0.30533,0.642578 -0.30533,2.141927 0,1.494791 0.30533,2.137369 0.3099,0.642578 1.00717,0.642578 0.70182,0 1.00716,-0.63802 0.30989,-0.642579 0.30989,-2.141927 z m 0.96159,0 q 0,1.777343 -0.5651,2.652343 -0.56055,0.875 -1.71354,0.875 -1.153,0 -1.71355,-0.870442 -0.56054,-0.870443 -0.56054,-2.656901 0,-1.781901 0.56054,-2.656901 0.56511,-0.875 1.71355,-0.875 1.15299,0 1.71354,0.875 0.5651,0.875 0.5651,2.656901 z"
       id="path1230"
       inkscape:connector-curvature="0" />
    <path
       d="m 138.54254,33.404706 q 1.16211,0 1.62239,-0.569661 0.46029,-0.574219 0.46029,-2.06901 0,-1.508464 -0.46029,-2.078125 -0.45573,-0.574219 -1.62239,-0.574219 h -0.4375 v 5.291015 z m 0.0182,-6.047525 q 1.55859,0 2.29687,0.829427 0.73828,0.829427 0.73828,2.579427 0,1.740885 -0.73828,2.570312 -0.73828,0.82487 -2.29687,0.82487 h -1.38086 v -6.804036 z"
       id="path1232"
       inkscape:connector-curvature="0" />
    <path
       d="m 143.06793,27.357181 h 4.03776 v 0.774739 h -3.11719 v 2.014323 h 2.98047 v 0.774739 h -2.98047 v 2.465495 h 3.20378 v 0.77474 h -4.12435 z"
       id="path1234"
       inkscape:connector-curvature="0" />
  </g>
  <g
     aria-label="RANDOM"
     style="font-style:normal;font-variant:normal;font-weight:normal;font-stretch:normal;font-size:9.33333302px;line-height:1.25;font-family:monospace;-inkscape-font-specification:'monospace, Normal';font-variant-ligatures:normal;font-variant-caps:normal;font-variant-numeric:normal;font-feature-settings:normal;text-align:center;letter-spacing:0px;word-spacing:0px;writing-mode:lr-tb;text-anchor:middle;fill:#000000;fill-opacity:1;stroke:none"
     id="text845"
     transform="matrix(1.0000009,0,0,1.0000021,-16.247304,209.42321)">
    <path
       d="m 41.619792,82.23156 q 0.355469,0.09115 0.60612,0.346354 0.250651,0.250651 0.624349,1.007161 l 0.92513,1.859375 h -0.988932 l -0.811198,-1.718099 q -0.350912,-0.733723 -0.633464,-0.943359 -0.277994,-0.214193 -0.729166,-0.214193 h -0.879558 v 2.875651 h -0.92513 v -6.804036 h 1.895834 q 1.121093,0 1.718098,0.50586 0.597006,0.505859 0.597006,1.46289 0,0.674479 -0.369141,1.102865 -0.364583,0.423828 -1.029948,0.519531 z m -1.886719,-2.834635 v 2.415364 h 1.007162 q 0.660807,0 0.984375,-0.296224 0.323568,-0.296224 0.323568,-0.906901 0,-0.587891 -0.346355,-0.897786 -0.341796,-0.314453 -0.998046,-0.314453 z"
       id="path1215"
       inkscape:connector-curvature="0" />
    <path
       d="m 46.578125,79.451612 -0.970703,3.481771 h 1.941406 z m -0.555989,-0.811198 h 1.116536 l 2.082682,6.804036 H 48.26888 l -0.501302,-1.772786 h -2.383463 l -0.492188,1.772786 h -0.952474 z"
       id="path1217"
       inkscape:connector-curvature="0" />
    <path
       d="m 50.01888,78.640414 h 1.166667 l 2.296875,5.600911 v -5.600911 h 0.888672 V 85.44445 H 53.204427 L 50.907552,79.843539 V 85.44445 H 50.01888 Z"
       id="path1219"
       inkscape:connector-curvature="0" />
    <path
       d="m 56.98698,84.68794 q 1.162109,0 1.622395,-0.569661 0.460287,-0.574219 0.460287,-2.069011 0,-1.508463 -0.460287,-2.078125 -0.455729,-0.574218 -1.622395,-0.574218 h -0.4375 v 5.291015 z m 0.01823,-6.047526 q 1.558594,0 2.296875,0.829427 0.738281,0.829427 0.738281,2.579427 0,1.740886 -0.738281,2.570313 -0.738281,0.824869 -2.296875,0.824869 h -1.38086 v -6.804036 z"
       id="path1221"
       inkscape:connector-curvature="0" />
    <path
       d="m 64.738931,82.049268 q 0,-1.499349 -0.309895,-2.141927 -0.305339,-0.642578 -1.007162,-0.642578 -0.697265,0 -1.007161,0.642578 -0.305339,0.642578 -0.305339,2.141927 0,1.494792 0.305339,2.13737 0.309896,0.642578 1.007161,0.642578 0.701823,0 1.007162,-0.638021 0.309895,-0.642578 0.309895,-2.141927 z m 0.961589,0 q 0,1.777344 -0.565104,2.652344 -0.560547,0.875 -1.713542,0.875 -1.152995,0 -1.713541,-0.870443 -0.560547,-0.870443 -0.560547,-2.656901 0,-1.781901 0.560547,-2.656901 0.565104,-0.875 1.713541,-0.875 1.152995,0 1.713542,0.875 0.565104,0.875 0.565104,2.656901 z"
       id="path1223"
       inkscape:connector-curvature="0" />
    <path
       d="m 66.621092,78.640414 h 1.230468 l 1.175782,3.463542 1.184895,-3.463542 h 1.235026 V 85.44445 H 70.59505 v -6.011067 l -1.21224,3.586588 h -0.697265 l -1.216797,-3.586588 v 6.011067 h -0.847656 z"
       id="path1225"
       inkscape:connector-curvature="0" />
  </g>
  <g
     inkscape:groupmode="layer"
     id="layer1"
     inkscape:label="widgets"
     style="display:none">
    <rect
       style="fill:#00ff00;fill-opacity:1;stroke:none;stroke-width:2.09074736;stroke-miterlimit:4;stroke-dasharray:none;stroke-opacity:1"
       id="CLOCK"
       width="32"
       height="32"
       x="17.013702"
       y="40.085506"
       inkscape:label="#rect1279" />
    <rect
       style="fill:#00ff00;fill-opacity:1;stroke:none;stroke-width:0.98003787;stroke-miterlimit:4;stroke-dasharray:none;stroke-opacity:1"
       id="ROT_RIGHT"
       width="15"
       height="15"
       x="61.344215"
       y="176.88031"
       inkscape:label="#rect1305" />
    <rect
       y="54.189999"
       x="559.08063"
       height="15"
       width="15"
       id="VOCT_1"
       style="fill:#0000ff;fill-opacity:1;stroke:none;stroke-width:0.98003799;stroke-miterlimit:4;stroke-dasharray:none;stroke-opacity:1"
       inkscape:label="#rect1317" />
    <rect
       style="isolation:isolate;fill:#000000;fill-opacity:1;stroke:none;stroke-width:1.88735402;stroke-miterlimit:4;stroke-dasharray:none;stroke-opacity:1"
       id="rect823"
       width="376"
       height="492.22223"
       x="172"
       y="-40" />
    <g
       aria-label="TODO  REMOVE"
       style="font-style:normal;font-variant:normal;font-weight:normal;font-stretch:normal;font-size:40px;line-height:1.25;font-family:monospace;-inkscape-font-specification:'monospace, Normal';font-variant-ligatures:normal;font-variant-caps:normal;font-variant-numeric:normal;font-feature-settings:normal;text-align:center;letter-spacing:0px;word-spacing:0px;writing-mode:lr-tb;text-anchor:middle;isolation:isolate;fill:#ff0000;fill-opacity:1;stroke:none"
       id="text827">
      <path
         d="m 315.0152,159.72873 h 22.24609 v 3.32031 h -9.12109 v 25.83985 h -3.96485 v -25.83985 h -9.16015 z"
         id="path1257"
         inkscape:connector-curvature="0" />
      <path
         d="m 355.83551,174.3381 q 0,-6.42578 -1.32812,-9.17968 -1.3086,-2.75391 -4.31641,-2.75391 -2.98828,0 -4.31641,2.75391 -1.30859,2.7539 -1.30859,9.17968 0,6.40625 1.30859,9.16016 1.32813,2.75391 4.31641,2.75391 3.00781,0 4.31641,-2.73438 1.32812,-2.7539 1.32812,-9.17969 z m 4.12109,0 q 0,7.61719 -2.42187,11.36719 -2.40234,3.75 -7.34375,3.75 -4.94141,0 -7.34375,-3.73047 -2.40234,-3.73047 -2.40234,-11.38672 0,-7.63671 2.40234,-11.38671 2.42187,-3.75 7.34375,-3.75 4.94141,0 7.34375,3.75 2.42187,3.75 2.42187,11.38671 z"
         id="path1259"
         inkscape:connector-curvature="0" />
      <path
         d="m 370.73785,185.6467 q 4.98047,0 6.95313,-2.44141 1.97266,-2.46094 1.97266,-8.86719 0,-6.46484 -1.97266,-8.90625 -1.95313,-2.46093 -6.95313,-2.46093 h -1.875 v 22.67578 z m 0.0781,-25.91797 q 6.67969,0 9.84375,3.55469 3.16406,3.55468 3.16406,11.05468 0,7.46094 -3.16406,11.01563 -3.16406,3.53516 -9.84375,3.53516 h -5.91797 v -29.16016 z"
         id="path1261"
         inkscape:connector-curvature="0" />
      <path
         d="m 403.96051,174.3381 q 0,-6.42578 -1.32812,-9.17968 -1.3086,-2.75391 -4.31641,-2.75391 -2.98828,0 -4.31641,2.75391 -1.30859,2.7539 -1.30859,9.17968 0,6.40625 1.30859,9.16016 1.32813,2.75391 4.31641,2.75391 3.00781,0 4.31641,-2.73438 1.32812,-2.7539 1.32812,-9.17969 z m 4.12109,0 q 0,7.61719 -2.42187,11.36719 -2.40234,3.75 -7.34375,3.75 -4.94141,0 -7.34375,-3.73047 -2.40234,-3.73047 -2.40234,-11.38672 0,-7.63671 2.40234,-11.38671 2.42187,-3.75 7.34375,-3.75 4.94141,0 7.34375,3.75 2.42187,3.75 2.42187,11.38671 z"
         id="path1263"
         inkscape:connector-curvature="0" />
      <path
         d="m 304.87848,225.11935 q 1.52344,0.39063 2.59766,1.48438 1.07421,1.07422 2.67578,4.31641 l 3.96484,7.96875 h -4.23828 l -3.47656,-7.36329 q -1.50391,-3.14453 -2.71485,-4.04296 -1.1914,-0.91797 -3.125,-0.91797 h -3.76953 v 12.32422 h -3.96484 v -29.16016 h 8.125 q 4.80469,0 7.36328,2.16797 2.55859,2.16797 2.55859,6.26953 0,2.89062 -1.58203,4.72656 -1.5625,1.81641 -4.41406,2.22656 z m -8.08594,-12.14843 v 10.35156 h 4.31641 q 2.83203,0 4.21875,-1.26953 1.38672,-1.26953 1.38672,-3.88672 0,-2.51953 -1.48438,-3.84766 -1.46484,-1.34765 -4.27734,-1.34765 z"
         id="path1265"
         inkscape:connector-curvature="0" />
      <path
         d="m 317.94489,209.72873 h 17.30468 v 3.32031 H 321.8902 v 8.63281 h 12.77344 v 3.32032 H 321.8902 v 10.5664 h 13.73047 v 3.32032 h -17.67578 z"
         id="path1267"
         inkscape:connector-curvature="0" />
      <path
         d="m 339.83942,209.72873 h 5.27343 l 5.03907,14.84375 5.07812,-14.84375 h 5.29297 v 29.16016 h -3.65234 v -25.76172 l -5.19532,15.37109 h -2.98828 l -5.21484,-15.37109 v 25.76172 h -3.63281 z"
         id="path1269"
         inkscape:connector-curvature="0" />
      <path
         d="m 379.89801,224.3381 q 0,-6.42578 -1.32812,-9.17968 -1.3086,-2.75391 -4.31641,-2.75391 -2.98828,0 -4.31641,2.75391 -1.30859,2.7539 -1.30859,9.17968 0,6.40625 1.30859,9.16016 1.32813,2.75391 4.31641,2.75391 3.00781,0 4.31641,-2.73438 1.32812,-2.7539 1.32812,-9.17969 z m 4.12109,0 q 0,7.61719 -2.42187,11.36719 -2.40234,3.75 -7.34375,3.75 -4.94141,0 -7.34375,-3.73047 -2.40234,-3.73047 -2.40234,-11.38672 0,-7.63671 2.40234,-11.38671 2.42187,-3.75 7.34375,-3.75 4.94141,0 7.34375,3.75 2.42187,3.75 2.42187,11.38671 z"
         id="path1271"
         inkscape:connector-curvature="0" />
      <path
         d="m 398.31598,235.56857 6.85547,-25.83984 h 4.08203 l -8.53516,29.16016 h -4.78515 l -8.53516,-29.16016 h 4.08203 z"
         id="path1273"
         inkscape:connector-curvature="0" />
      <path
         d="m 414.19489,209.72873 h 17.30468 v 3.32031 H 418.1402 v 8.63281 h 12.77344 v 3.32032 H 418.1402 v 10.5664 h 13.73047 v 3.32032 h -17.67578 z"
         id="path1275"
         inkscape:connector-curvature="0" />
    </g>
    <rect
       style="fill:#0000ff;fill-opacity:1;stroke:none;stroke-width:0.98003787;stroke-miterlimit:4;stroke-dasharray:none;stroke-opacity:1"
       id="VOCT_2"
       width="15"
       height="15"
       x="559.08063"
       y="78.665947"
       inkscape:label="#rect1333" />
    <rect
       y="103.14216"
       x="559.08063"
       height="15"
       width="15"
       id="VOCT_3"
       style="fill:#0000ff;fill-opacity:1;stroke:none;stroke-width:0.98003787;stroke-miterlimit:4;stroke-dasharray:none;stroke-opacity:1"
       inkscape:label="#rect1337" />
    <rect
       style="fill:#0000ff;fill-opacity:1;stroke:none;stroke-width:0.98003787;stroke-miterlimit:4;stroke-dasharray:none;stroke-opacity:1"
       id="VOCT_4"
       width="15"
       height="15"
       x="559.08063"
       y="127.61829"
       inkscape:label="#rect1341" />
    <rect
       y="152.09445"
       x="559.08063"
       height="15"
       width="15"
       id="VOCT_5"
       style="fill:#0000ff;fill-opacity:1;stroke:none;stroke-width:0.98003787;stroke-miterlimit:4;stroke-dasharray:none;stroke-opacity:1"
       inkscape:label="#rect1345" />
    <rect
       style="fill:#0000ff;fill-opacity:1;stroke:none;stroke-width:0.98003787;stroke-miterlimit:4;stroke-dasharray:none;stroke-opacity:1"
       id="VOCT_6"
       width="15"
       height="15"
       x="559.08063"
       y="176.5706"
       inkscape:label="#rect1349" />
    <rect
       y="201.04675"
       x="559.08063"
       height="15"
       width="15"
       id="VOCT_7"
       style="fill:#0000ff;fill-opacity:1;stroke:none;stroke-width:0.98003787;stroke-miterlimit:4;stroke-dasharray:none;stroke-opacity:1"
       inkscape:label="#rect1351" />
    <rect
       style="fill:#0000ff;fill-opacity:1;stroke:none;stroke-width:0.98003787;stroke-miterlimit:4;stroke-dasharray:none;stroke-opacity:1"
       id="VOCT_8"
       width="15"
       height="15"
       x="559.08063"
       y="225.52292"
       inkscape:label="#rect1353" />
    <rect
       y="249.99908"
       x="559.08063"
       height="15"
       width="15"
       id="VOCT_9"
       style="fill:#0000ff;fill-opacity:1;stroke:none;stroke-width:0.98003787;stroke-miterlimit:4;stroke-dasharray:none;stroke-opacity:1"
       inkscape:label="#rect1355" />
    <rect
       style="fill:#0000ff;fill-opacity:1;stroke:none;stroke-width:0.98003787;stroke-miterlimit:4;stroke-dasharray:none;stroke-opacity:1"
       id="VOCT_10"
       width="15"
       height="15"
       x="559.08063"
       y="274.47522"
       inkscape:label="#rect1357" />
    <rect
       style="fill:#0000ff;fill-opacity:1;stroke:none;stroke-width:0.98003787;stroke-miterlimit:4;stroke-dasharray:none;stroke-opacity:1"
       id="GATE_1"
       width="15"
       height="15"
       x="591.8584"
       y="54.189823"
       inkscape:label="#rect1369" />
    <rect
       y="78.665947"
       x="591.8584"
       height="15"
       width="15"
       id="GATE_2"
       style="fill:#0000ff;fill-opacity:1;stroke:none;stroke-width:0.98003787;stroke-miterlimit:4;stroke-dasharray:none;stroke-opacity:1"
       inkscape:label="#rect1371" />
    <rect
       style="fill:#0000ff;fill-opacity:1;stroke:none;stroke-width:0.98003787;stroke-miterlimit:4;stroke-dasharray:none;stroke-opacity:1"
       id="GATE_3"
       width="15"
       height="15"
       x="591.8584"
       y="103.14216"
       inkscape:label="#rect1373" />
    <rect
       y="127.61829"
       x="591.8584"
       height="15"
       width="15"
       id="GATE_4"
       style="fill:#0000ff;fill-opacity:1;stroke:none;stroke-width:0.98003787;stroke-miterlimit:4;stroke-dasharray:none;stroke-opacity:1"
       inkscape:label="#rect1375" />
    <rect
       style="fill:#0000ff;fill-opacity:1;stroke:none;stroke-width:0.98003787;stroke-miterlimit:4;stroke-dasharray:none;stroke-opacity:1"
       id="GATE_5"
       width="15"
       height="15"
       x="591.8584"
       y="152.09445"
       inkscape:label="#rect1377" />
    <rect
       y="176.5706"
       x="591.8584"
       height="15"
       width="15"
       id="GATE_6"
       style="fill:#0000ff;fill-opacity:1;stroke:none;stroke-width:0.98003787;stroke-miterlimit:4;stroke-dasharray:none;stroke-opacity:1"
       inkscape:label="#rect1379" />
    <rect
       style="fill:#0000ff;fill-opacity:1;stroke:none;stroke-width:0.98003787;stroke-miterlimit:4;stroke-dasharray:none;stroke-opacity:1"
       id="GATE_7"
       width="15"
       height="15"
       x="591.8584"
       y="201.04675"
       inkscape:label="#rect1381" />
    <rect
       y="225.52292"
       x="591.8584"
       height="15"
       width="15"
       id="GATE_8"
       style="fill:#0000ff;fill-opacity:1;stroke:none;stroke-width:0.98003787;stroke-miterlimit:4;stroke-dasharray:none;stroke-opacity:1"
       inkscape:label="#rect1383" />
    <rect
       style="fill:#0000ff;fill-opacity:1;stroke:none;stroke-width:0.98003787;stroke-miterlimit:4;stroke-dasharray:none;stroke-opacity:1"
       id="GATE_9"
       width="15"
       height="15"
       x="591.8584"
       y="249.99908"
       inkscape:label="#rect1385" />
    <rect
       y="274.47522"
       x="591.8584"
       height="15"
       width="15"
       id="GATE_10"
       style="fill:#0000ff;fill-opacity:1;stroke:none;stroke-width:0.98003787;stroke-miterlimit:4;stroke-dasharray:none;stroke-opacity:1"
       inkscape:label="#rect1387" />
    <rect
       style="fill:#0000ff;fill-opacity:1;stroke:none;stroke-width:0.98003787;stroke-miterlimit:4;stroke-dasharray:none;stroke-opacity:1"
       id="MIN_VOCT"
       width="15"
       height="15"
       x="656.30286"
       y="54.74538"
       inkscape:label="#rect1423" />
    <rect
       y="79.221504"
       x="656.30286"
       height="15"
       width="15"
       id="MID_VOCT"
       style="fill:#0000ff;fill-opacity:1;stroke:none;stroke-width:0.98003787;stroke-miterlimit:4;stroke-dasharray:none;stroke-opacity:1"
       inkscape:label="#rect1425" />
    <rect
       style="fill:#0000ff;fill-opacity:1;stroke:none;stroke-width:0.98003787;stroke-miterlimit:4;stroke-dasharray:none;stroke-opacity:1"
       id="MAX_VOCT"
       width="15"
       height="15"
       x="656.30286"
       y="103.69772"
       inkscape:label="#rect1427" />
    <rect
       y="128.17386"
       x="656.30286"
       height="15"
       width="15"
       id="RND_VOCT"
       style="fill:#0000ff;fill-opacity:1;stroke:none;stroke-width:0.98003787;stroke-miterlimit:4;stroke-dasharray:none;stroke-opacity:1"
       inkscape:label="#rect1429" />
    <rect
       y="54.74538"
       x="689.08063"
       height="15"
       width="15"
       id="MIN_GATE"
       style="fill:#0000ff;fill-opacity:1;stroke:none;stroke-width:0.98003787;stroke-miterlimit:4;stroke-dasharray:none;stroke-opacity:1"
       inkscape:label="#rect1431" />
    <rect
       style="fill:#0000ff;fill-opacity:1;stroke:none;stroke-width:0.98003787;stroke-miterlimit:4;stroke-dasharray:none;stroke-opacity:1"
       id="MID_GATE"
       width="15"
       height="15"
       x="689.08063"
       y="79.221504"
       inkscape:label="#rect1433" />
    <rect
       y="103.69772"
       x="689.08063"
       height="15"
       width="15"
       id="MAX_GATE"
       style="fill:#0000ff;fill-opacity:1;stroke:none;stroke-width:0.98003787;stroke-miterlimit:4;stroke-dasharray:none;stroke-opacity:1"
       inkscape:label="#rect1435" />
    <rect
       style="fill:#0000ff;fill-opacity:1;stroke:none;stroke-width:0.98003787;stroke-miterlimit:4;stroke-dasharray:none;stroke-opacity:1"
       id="RND_GATE"
       width="15"
       height="15"
       x="689.08063"
       y="128.17386"
       inkscape:label="#rect1437" />
    <rect
       y="43.085506"
       x="71.854126"
       height="26"
       width="26"
       id="STEP_BTN"
       style="fill:#ff0000;fill-opacity:1;stroke:none;stroke-width:1.69873238;stroke-miterlimit:4;stroke-dasharray:none;stroke-opacity:1"
       inkscape:label="#rect1439" />
    <rect
       style="fill:#ff0000;fill-opacity:1;stroke:none;stroke-width:1.69873238;stroke-miterlimit:4;stroke-dasharray:none;stroke-opacity:1"
       id="PLAY_MODE_KNOB"
       width="26"
       height="26"
       x="123.4553"
       y="43.085506"
       inkscape:label="#rect1441" />
    <rect
       y="336.88031"
       x="126.41925"
       height="15"
       width="15"
       id="ONE_PER_COL_SWITCH"
       style="fill:#ff0000;fill-opacity:1;stroke:none;stroke-width:0.98003787;stroke-miterlimit:4;stroke-dasharray:none;stroke-opacity:1"
       inkscape:label="#rect1447" />
    <rect
       style="fill:#ff0000;fill-opacity:1;stroke:none;stroke-width:0.98003787;stroke-miterlimit:4;stroke-dasharray:none;stroke-opacity:1"
       id="ROT_RIGHT_BTN"
       width="15"
       height="15"
       x="82.564194"
       y="176.88031"
       inkscape:label="#rect1449" />
    <rect
       style="fill:#ff0000;fill-opacity:1;stroke:none;stroke-width:1.69873238;stroke-miterlimit:4;stroke-dasharray:none;stroke-opacity:1"
       id="LOW_MID_HIGH_SWITCH"
       width="26"
       height="26"
       x="556.33563"
       y="335.53592"
       inkscape:label="#rect1465" />
    <rect
       y="335.53592"
       x="599.12952"
       height="26"
       width="26"
       id="SCALE_KNOB"
       style="fill:#ff0000;fill-opacity:1;stroke:none;stroke-width:1.69873238;stroke-miterlimit:4;stroke-dasharray:none;stroke-opacity:1"
       inkscape:label="#rect1467" />
    <rect
       style="fill:#ff0000;fill-opacity:1;stroke:none;stroke-width:1.69873238;stroke-miterlimit:4;stroke-dasharray:none;stroke-opacity:1"
       id="NOTE_KNOB"
       width="26"
       height="26"
       x="641.92346"
       y="335.53592"
       inkscape:label="#rect1469" />
    <rect
       y="335.53592"
       x="684.71735"
       height="26"
       width="26"
       id="OCTAVE_KNOB"
       style="fill:#ff0000;fill-opacity:1;stroke:none;stroke-width:1.69873238;stroke-miterlimit:4;stroke-dasharray:none;stroke-opacity:1"
       inkscape:label="#rect1471" />
    <rect
       y="176.88031"
       x="116.34422"
       height="15"
       width="15"
       id="ROT_LEFT"
       style="fill:#00ff00;fill-opacity:1;stroke:none;stroke-width:0.98003787;stroke-miterlimit:4;stroke-dasharray:none;stroke-opacity:1"
       inkscape:label="#rect1473" />
    <rect
       y="176.88031"
       x="137.56419"
       height="15"
       width="15"
       id="ROT_LEFT_BTN"
       style="fill:#ff0000;fill-opacity:1;stroke:none;stroke-width:0.98003787;stroke-miterlimit:4;stroke-dasharray:none;stroke-opacity:1"
       inkscape:label="#rect1475" />
    <rect
       y="196.09796"
       x="61.344215"
       height="15"
       width="15"
       id="FLIP_RIGHT"
       style="fill:#00ff00;fill-opacity:1;stroke:none;stroke-width:0.98003787;stroke-miterlimit:4;stroke-dasharray:none;stroke-opacity:1"
       inkscape:label="#rect1477" />
    <rect
       y="196.09796"
       x="82.564194"
       height="15"
       width="15"
       id="FLIP_RIGHT_BTN"
       style="fill:#ff0000;fill-opacity:1;stroke:none;stroke-width:0.98003787;stroke-miterlimit:4;stroke-dasharray:none;stroke-opacity:1"
       inkscape:label="#rect1479" />
    <rect
       style="fill:#00ff00;fill-opacity:1;stroke:none;stroke-width:0.98003787;stroke-miterlimit:4;stroke-dasharray:none;stroke-opacity:1"
       id="FLIP_LEFT"
       width="15"
       height="15"
       x="116.34422"
       y="196.09796"
       inkscape:label="#rect1481" />
    <rect
       style="fill:#ff0000;fill-opacity:1;stroke:none;stroke-width:0.98003787;stroke-miterlimit:4;stroke-dasharray:none;stroke-opacity:1"
       id="FLIP_LEFT_BTN"
       width="15"
       height="15"
       x="137.56419"
       y="196.09796"
       inkscape:label="#rect1483" />
    <rect
       style="fill:#00ff00;fill-opacity:1;stroke:none;stroke-width:0.98003787;stroke-miterlimit:4;stroke-dasharray:none;stroke-opacity:1"
       id="FLIP_UP"
       width="15"
       height="15"
       x="61.344215"
       y="235.98683"
       inkscape:label="#rect1485" />
    <rect
       style="fill:#ff0000;fill-opacity:1;stroke:none;stroke-width:0.98003787;stroke-miterlimit:4;stroke-dasharray:none;stroke-opacity:1"
       id="FLIP_UP_BTN"
       width="15"
       height="15"
       x="82.564194"
       y="235.98683"
       inkscape:label="#rect1487" />
    <rect
       y="235.98683"
       x="116.34422"
       height="15"
       width="15"
       id="FLIP_DOWN"
       style="fill:#00ff00;fill-opacity:1;stroke:none;stroke-width:0.98003787;stroke-miterlimit:4;stroke-dasharray:none;stroke-opacity:1"
       inkscape:label="#rect1489" />
    <rect
       y="235.98683"
       x="137.56419"
       height="15"
       width="15"
       id="FLIP_DOWN_BTN"
       style="fill:#ff0000;fill-opacity:1;stroke:none;stroke-width:0.98003787;stroke-miterlimit:4;stroke-dasharray:none;stroke-opacity:1"
       inkscape:label="#rect1491" />
    <rect
       y="290.20911"
       x="61.344002"
       height="15"
       width="15"
       id="LIFE_MODE"
       style="fill:#00ff00;fill-opacity:1;stroke:none;stroke-width:0.98003787;stroke-miterlimit:4;stroke-dasharray:none;stroke-opacity:1"
       inkscape:label="#rect1493" />
    <rect
       y="290.20911"
       x="82.563972"
       height="15"
       width="15"
       id="LIFE_MODE_SWITCH"
       style="fill:#ff0000;fill-opacity:1;stroke:none;stroke-width:0.98003787;stroke-miterlimit:4;stroke-dasharray:none;stroke-opacity:1"
       inkscape:label="#rect1495" />
    <rect
       style="fill:#00ff00;fill-opacity:1;stroke:none;stroke-width:0.98003787;stroke-miterlimit:4;stroke-dasharray:none;stroke-opacity:1"
       id="LIFE_SPEED"
       width="15"
       height="15"
       x="116.344"
       y="290.20911"
       inkscape:label="#rect1497" />
    <rect
       style="fill:#ff0000;fill-opacity:1;stroke:none;stroke-width:0.98003787;stroke-miterlimit:4;stroke-dasharray:none;stroke-opacity:1"
       id="LIFE_SPEED_KNOB"
       width="15"
       height="15"
       x="137.56398"
       y="290.20911"
       inkscape:label="#rect1499" />
    <rect
       y="113.7692"
       x="61.344002"
       height="15"
       width="15"
       id="RND_TRIG"
       style="fill:#00ff00;fill-opacity:1;stroke:none;stroke-width:0.98003787;stroke-miterlimit:4;stroke-dasharray:none;stroke-opacity:1"
       inkscape:label="#rect1501" />
    <rect
       y="113.7692"
       x="82.56398"
       height="15"
       width="15"
       id="RND_TRIG_BTN"
       style="fill:#ff0000;fill-opacity:1;stroke:none;stroke-width:0.98003787;stroke-miterlimit:4;stroke-dasharray:none;stroke-opacity:1"
       inkscape:label="#rect1503" />
    <rect
       style="fill:#00ff00;fill-opacity:1;stroke:none;stroke-width:0.98003787;stroke-miterlimit:4;stroke-dasharray:none;stroke-opacity:1"
       id="RND_AMT"
       width="15"
       height="15"
       x="116.34401"
       y="113.7692"
       inkscape:label="#rect1505" />
    <rect
       style="fill:#ff0000;fill-opacity:1;stroke:none;stroke-width:0.98003787;stroke-miterlimit:4;stroke-dasharray:none;stroke-opacity:1"
       id="RND_AMT_KNOB"
       width="15"
       height="15"
       x="137.56398"
       y="113.7692"
       inkscape:label="#rect1507" />
  </g>
  <g
     aria-label="LEN"
     style="font-style:normal;font-variant:normal;font-weight:normal;font-stretch:normal;font-size:9.33333302px;line-height:1.25;font-family:monospace;-inkscape-font-specification:monospace;text-align:center;letter-spacing:0px;word-spacing:0px;text-anchor:middle;fill:#000000;fill-opacity:1;stroke:none"
     id="text2798"
     transform="translate(30.478937,5.0360024)">
    <path
       d="m 90.767217,19.642573 h 0.92513 v 6.029297 h 3.285808 v 0.774739 h -4.210938 z"
       id="path2800"
       inkscape:connector-curvature="0" />
    <path
       d="m 96.299769,19.642573 h 4.037761 v 0.77474 h -3.117188 v 2.014323 h 2.980468 v 0.774739 h -2.980468 v 2.465495 h 3.203778 v 0.774739 h -4.124351 z"
       id="path2802"
       inkscape:connector-curvature="0" />
    <path
       d="m 101.65003,19.642573 h 1.16667 l 2.29687,5.600912 v -5.600912 h 0.88867 v 6.804036 h -1.16666 l -2.29688,-5.600911 v 5.600911 h -0.88867 z"
       id="path2804"
       inkscape:connector-curvature="0" />
  </g>
  <g
     aria-label="EOC"
     style="font-style:normal;font-variant:normal;font-weight:normal;font-stretch:normal;font-size:6.66666651px;line-height:1.25;font-family:monospace;-inkscape-font-specification:'monospace, Normal';font-variant-ligatures:normal;font-variant-caps:normal;font-variant-numeric:normal;font-feature-settings:normal;text-align:start;letter-spacing:0px;word-spacing:0px;writing-mode:lr-tb;text-anchor:start;fill:#000000;fill-opacity:1;stroke:none"
     id="text5042"
     transform="translate(-4,-1.59444)">
    <path
       d="m 129.64128,367.63997 h 2.88411 v 0.55339 h -2.22656 v 1.4388 h 2.1289 v 0.55339 h -2.1289 v 1.76106 h 2.28841 V 372.5 h -2.94596 z"
       id="path5044"
       inkscape:connector-curvature="0" />
    <path
       d="m 135.95638,370.07487 q 0,-1.07096 -0.22135,-1.52995 -0.2181,-0.45898 -0.71941,-0.45898 -0.49804,0 -0.7194,0.45898 -0.2181,0.45899 -0.2181,1.52995 0,1.06771 0.2181,1.52669 0.22136,0.45899 0.7194,0.45899 0.50131,0 0.71941,-0.45573 0.22135,-0.45899 0.22135,-1.52995 z m 0.68685,0 q 0,1.26953 -0.40365,1.89453 -0.40039,0.625 -1.22396,0.625 -0.82356,0 -1.22395,-0.62174 -0.40039,-0.62175 -0.40039,-1.89779 0,-1.27279 0.40039,-1.89779 0.40364,-0.625 1.22395,-0.625 0.82357,0 1.22396,0.625 0.40365,0.625 0.40365,1.89779 z"
       id="path5046"
       inkscape:connector-curvature="0" />
    <path
       d="m 140.51367,372.32747 q -0.25065,0.13347 -0.51432,0.19857 -0.26367,0.0684 -0.5599,0.0684 -0.93424,0 -1.45182,-0.66081 -0.51432,-0.6608 -0.51432,-1.85872 0,-1.19141 0.51758,-1.85547 0.52083,-0.66732 1.44856,-0.66732 0.29623,0 0.5599,0.0684 0.26367,0.0651 0.51432,0.19857 v 0.67383 q -0.24088,-0.19857 -0.51758,-0.30274 -0.27669,-0.10416 -0.55664,-0.10416 -0.64127,0 -0.96028,0.49479 -0.31901,0.49479 -0.31901,1.49414 0,0.99609 0.31901,1.49089 0.31901,0.49479 0.96028,0.49479 0.28646,0 0.5599,-0.10417 0.27669,-0.10417 0.51432,-0.30273 z"
       id="path5048"
       inkscape:connector-curvature="0" />
  </g>
  <g
     aria-label="CLK"
     style="font-style:normal;font-variant:normal;font-weight:normal;font-stretch:normal;font-size:9.33333302px;line-height:1.25;font-family:monospace;-inkscape-font-specification:'monospace, Normal';font-variant-ligatures:normal;font-variant-caps:normal;font-variant-numeric:normal;font-feature-settings:normal;text-align:start;letter-spacing:0px;word-spacing:0px;writing-mode:lr-tb;text-anchor:start;fill:#000000;fill-opacity:1;stroke:none"
     id="text1369"
     transform="translate(0.833333,-0.2777746)">
    <path
       d="m 9.8899747,31.6419 q -0.3509114,0.186849 -0.720052,0.277995 -0.3691406,0.0957 -0.7838542,0.0957 -1.3079426,0 -2.032552,-0.925131 -0.720052,-0.92513 -0.720052,-2.602213 0,-1.667969 0.7246093,-2.597656 0.7291667,-0.934245 2.0279947,-0.934245 0.4147136,0 0.7838542,0.0957 0.3691406,0.09115 0.720052,0.277995 V 26.27341 Q 9.5527352,25.995416 9.1653654,25.849582 8.7779956,25.703749 8.3860685,25.703749 q -0.8977864,0 -1.3444009,0.692708 -0.4466146,0.692709 -0.4466146,2.091797 0,1.394531 0.4466146,2.08724 0.4466145,0.692708 1.3444009,0.692708 0.4010417,0 0.7838542,-0.145833 0.3873698,-0.145834 0.720052,-0.423829 z"
       id="path1383"
       inkscape:connector-curvature="0" />
    <path
       d="m 11.594402,25.0794 h 0.92513 v 6.029297 h 3.285807 v 0.774739 h -4.210937 z"
       id="path1385"
       inkscape:connector-curvature="0" />
    <path
       d="m 16.853516,25.0794 h 0.92513 v 3.026042 L 20.654297,25.0794 h 1.080078 l -2.647786,2.779948 2.72526,4.024088 H 20.69987 l -2.219401,-3.408854 -0.701823,0.747396 v 2.661458 h -0.92513 z"
       id="path1387"
       inkscape:connector-curvature="0" />
  </g>
  <g
     aria-label="RST"
     style="font-style:normal;font-variant:normal;font-weight:normal;font-stretch:normal;font-size:9.33333302px;line-height:1.25;font-family:monospace;-inkscape-font-specification:'monospace, Normal';font-variant-ligatures:normal;font-variant-caps:normal;font-variant-numeric:normal;font-feature-settings:normal;text-align:start;letter-spacing:0px;word-spacing:0px;writing-mode:lr-tb;text-anchor:start;fill:#000000;fill-opacity:1;stroke:none"
     id="text1373"
     transform="translate(3.126082,-0.2777776)">
    <path
       d="m 33.185767,28.670546 q 0.355468,0.09115 0.60612,0.346354 0.250651,0.250651 0.624348,1.007161 l 0.925131,1.859375 h -0.988933 l -0.811198,-1.718099 q -0.350911,-0.733724 -0.633463,-0.943359 -0.277995,-0.214193 -0.729167,-0.214193 h -0.879557 v 2.875651 h -0.92513 V 25.0794 h 1.895833 q 1.121094,0 1.718099,0.505859 0.597005,0.50586 0.597005,1.462891 0,0.674479 -0.36914,1.102864 -0.364584,0.423829 -1.029948,0.519532 z M 31.299048,25.83591 v 2.415365 h 1.007161 q 0.660808,0 0.984375,-0.296224 0.323568,-0.296224 0.323568,-0.906901 0,-0.587891 -0.346354,-0.897787 -0.341797,-0.314453 -0.998047,-0.314453 z"
       id="path1390"
       inkscape:connector-curvature="0" />
    <path
       d="m 39.948787,25.311822 v 0.934245 q -0.419271,-0.268881 -0.843099,-0.405599 -0.419271,-0.136719 -0.847656,-0.136719 -0.651693,0 -1.029948,0.305338 -0.378255,0.300782 -0.378255,0.815756 0,0.451171 0.246094,0.688151 0.250651,0.236979 0.929687,0.396484 l 0.483073,0.109375 q 0.957031,0.223307 1.394531,0.701823 0.4375,0.478516 0.4375,1.303385 0,0.970703 -0.601562,1.48112 -0.601563,0.510417 -1.75,0.510417 -0.478516,0 -0.961589,-0.104818 -0.483073,-0.10026 -0.970703,-0.305339 v -0.979817 q 0.524089,0.332682 0.988933,0.48763 0.469401,0.154948 0.943359,0.154948 0.697265,0 1.084635,-0.309896 0.38737,-0.314453 0.38737,-0.875 0,-0.510417 -0.26888,-0.779297 -0.264323,-0.26888 -0.92513,-0.414713 l -0.492188,-0.113933 q -0.947916,-0.214192 -1.376302,-0.647135 -0.428385,-0.432943 -0.428385,-1.162109 0,-0.911459 0.610677,-1.458334 0.615234,-0.551432 1.63151,-0.551432 0.391927,0 0.82487,0.09115 0.432943,0.08659 0.911458,0.264323 z"
       id="path1392"
       inkscape:connector-curvature="0" />
    <path
       d="m 41.165584,25.0794 h 5.190755 v 0.77474 h -2.128255 v 6.029296 h -0.92513 V 25.85414 h -2.13737 z"
       id="path1394"
       inkscape:connector-curvature="0" />
  </g>
  <g
     aria-label="START"
     style="font-style:normal;font-variant:normal;font-weight:normal;font-stretch:normal;font-size:9.33333302px;line-height:1.25;font-family:monospace;-inkscape-font-specification:'monospace, Normal';font-variant-ligatures:normal;font-variant-caps:normal;font-variant-numeric:normal;font-feature-settings:normal;text-align:start;letter-spacing:0px;word-spacing:0px;writing-mode:lr-tb;text-anchor:start;fill:#000000;fill-opacity:1;stroke:none"
     id="text1381"
     transform="translate(5.644315,-0.2777776)">
    <path
       d="m 64.3342,25.311822 v 0.934245 q -0.41927,-0.268881 -0.843099,-0.405599 -0.41927,-0.136719 -0.847656,-0.136719 -0.651692,0 -1.029948,0.305338 -0.378255,0.300782 -0.378255,0.815756 0,0.451171 0.246094,0.688151 0.250651,0.236979 0.929687,0.396484 l 0.483073,0.109375 q 0.957031,0.223307 1.394531,0.701823 0.4375,0.478516 0.4375,1.303385 0,0.970703 -0.601562,1.48112 -0.601563,0.510417 -1.75,0.510417 -0.478516,0 -0.961588,-0.104818 -0.483073,-0.10026 -0.970704,-0.305339 v -0.979817 q 0.524089,0.332682 0.988933,0.48763 0.469401,0.154948 0.943359,0.154948 0.697266,0 1.084635,-0.309896 0.38737,-0.314453 0.38737,-0.875 0,-0.510417 -0.26888,-0.779297 -0.264323,-0.26888 -0.92513,-0.414713 l -0.492188,-0.113933 q -0.947916,-0.214192 -1.376302,-0.647135 -0.428385,-0.432943 -0.428385,-1.162109 0,-0.911459 0.610677,-1.458334 0.615234,-0.551432 1.63151,-0.551432 0.391927,0 0.82487,0.09115 0.432943,0.08659 0.911458,0.264323 z"
       id="path1397"
       inkscape:connector-curvature="0" />
    <path
       d="m 65.550997,25.0794 h 5.190755 v 0.77474 h -2.128255 v 6.029296 h -0.92513 V 25.85414 h -2.13737 z"
       id="path1399"
       inkscape:connector-curvature="0" />
    <path
       d="m 73.758679,25.890598 -0.970703,3.481771 h 1.941406 z M 73.202689,25.0794 h 1.116537 l 2.082682,6.804036 H 75.449434 L 74.948132,30.11065 h -2.383463 l -0.492188,1.772786 h -0.952474 z"
       id="path1401"
       inkscape:connector-curvature="0" />
    <path
       d="m 80.029513,28.670546 q 0.355469,0.09115 0.60612,0.346354 0.250651,0.250651 0.624349,1.007161 l 0.92513,1.859375 H 81.19618 L 80.384982,30.165337 Q 80.03407,29.431613 79.751518,29.221978 79.473523,29.007785 79.022351,29.007785 h -0.879557 v 2.875651 h -0.92513 V 25.0794 h 1.895833 q 1.121094,0 1.718099,0.505859 0.597005,0.50586 0.597005,1.462891 0,0.674479 -0.36914,1.102864 -0.364584,0.423829 -1.029948,0.519532 z M 78.142794,25.83591 v 2.415365 h 1.007162 q 0.660807,0 0.984375,-0.296224 0.323567,-0.296224 0.323567,-0.906901 0,-0.587891 -0.346354,-0.897787 -0.341797,-0.314453 -0.998047,-0.314453 z"
       id="path1403"
       inkscape:connector-curvature="0" />
    <path
       d="m 82.394746,25.0794 h 5.190755 v 0.77474 h -2.128255 v 6.029296 h -0.92513 V 25.85414 h -2.13737 z"
       id="path1405"
       inkscape:connector-curvature="0" />
  </g>
  <g
     aria-label="CLEAR"
     style="font-style:normal;font-variant:normal;font-weight:normal;font-stretch:normal;font-size:9.33333302px;line-height:1.25;font-family:monospace;-inkscape-font-specification:'monospace, Normal';font-variant-ligatures:normal;font-variant-caps:normal;font-variant-numeric:normal;font-feature-settings:normal;text-align:start;letter-spacing:0px;word-spacing:0px;writing-mode:lr-tb;text-anchor:start;fill:#000000;fill-opacity:1;stroke:none"
     id="text2821"
     transform="translate(6.1915481,154.36784)">
    <path
       d="m 23.223306,122.25846 q -0.350912,0.18685 -0.720052,0.278 -0.369141,0.0957 -0.783854,0.0957 -1.307943,0 -2.032552,-0.92513 -0.720052,-0.92513 -0.720052,-2.60221 0,-1.66797 0.724609,-2.59766 0.729167,-0.93424 2.027995,-0.93424 0.414713,0 0.783854,0.0957 0.36914,0.0911 0.720052,0.27799 v 0.94336 q -0.33724,-0.27799 -0.724609,-0.42382 -0.38737,-0.14584 -0.779297,-0.14584 -0.897787,0 -1.344401,0.69271 -0.446615,0.69271 -0.446615,2.0918 0,1.39453 0.446615,2.08724 0.446614,0.69271 1.344401,0.69271 0.401041,0 0.783854,-0.14584 0.38737,-0.14583 0.720052,-0.42383 z"
       id="path2823"
       inkscape:connector-curvature="0" />
    <path
       d="m 24.927733,115.69596 h 0.92513 v 6.0293 H 29.13867 V 122.5 h -4.210937 z"
       id="path2825"
       inkscape:connector-curvature="0" />
    <path
       d="m 30.460285,115.69596 h 4.03776 v 0.77474 h -3.117188 v 2.01433 h 2.980469 v 0.77474 h -2.980469 v 2.46549 h 3.203776 V 122.5 h -4.124348 z"
       id="path2827"
       inkscape:connector-curvature="0" />
    <path
       d="m 37.984374,116.50716 -0.970703,3.48177 h 1.941406 z m -0.55599,-0.8112 H 38.54492 L 40.627603,122.5 h -0.952474 l -0.501302,-1.77279 H 36.790363 L 36.298176,122.5 h -0.952474 z"
       id="path2829"
       inkscape:connector-curvature="0" />
    <path
       d="m 44.255206,119.28711 q 0.355468,0.0911 0.606119,0.34635 0.250651,0.25065 0.624349,1.00717 L 46.410805,122.5 h -0.988933 l -0.811198,-1.7181 q -0.350911,-0.73372 -0.633463,-0.94336 -0.277995,-0.21419 -0.729167,-0.21419 H 42.368487 V 122.5 h -0.92513 v -6.80404 h 1.895833 q 1.121094,0 1.718099,0.50586 0.597005,0.50586 0.597005,1.46289 0,0.67448 -0.36914,1.10287 -0.364584,0.42383 -1.029948,0.51953 z m -1.886719,-2.83464 v 2.41537 h 1.007161 q 0.660808,0 0.984375,-0.29623 0.323568,-0.29622 0.323568,-0.9069 0,-0.58789 -0.346354,-0.89778 -0.341797,-0.31446 -0.998047,-0.31446 z"
       id="path2831"
       inkscape:connector-curvature="0" />
  </g>
  <g
     aria-label="Trigs"
     style="font-style:normal;font-variant:normal;font-weight:bold;font-stretch:normal;font-size:12px;line-height:1.25;font-family:monospace;-inkscape-font-specification:'monospace, Bold';font-variant-ligatures:normal;font-variant-caps:normal;font-variant-numeric:normal;font-feature-settings:normal;text-align:start;letter-spacing:0px;word-spacing:0px;writing-mode:lr-tb;text-anchor:start;fill:#1996fc;fill-opacity:1;stroke:none"
     id="text2958"
     transform="translate(-54.70365)">
    <path
       d="m 138.85304,13.800841 h -1.72851 V 6.5645132 h -2.22071 V 5.0527945 h 6.16993 v 1.5117187 h -2.22071 z"
       id="path2960"
       inkscape:connector-curvature="0" />
    <path
       d="m 148.33937,9.0488882 q -0.28125,-0.2578125 -0.66211,-0.3867187 -0.375,-0.1289063 -0.82617,-0.1289063 -0.54492,0 -0.95508,0.1933594 -0.4043,0.1875 -0.62695,0.5507812 -0.14063,0.2226563 -0.19922,0.5390625 -0.0527,0.3164067 -0.0527,0.9609377 v 3.023437 h -1.7168 V 7.2383413 h 1.7168 v 1.0195313 q 0.25195,-0.5625 0.77343,-0.8671875 0.52149,-0.3105469 1.21875,-0.3105469 0.35157,0 0.68555,0.087891 0.33984,0.082031 0.64453,0.2460938 z"
       id="path2962"
       inkscape:connector-curvature="0" />
    <path
       d="m 150.1089,7.2383413 h 3.39844 v 5.2441407 h 2.13281 v 1.318359 h -5.98828 v -1.318359 h 2.13867 V 8.5567007 h -1.68164 z m 1.68164,-3.1933593 h 1.7168 v 2.0039062 h -1.7168 z"
       id="path2964"
       inkscape:connector-curvature="0" />
    <path
       d="m 160.73781,10.414123 q 0,-0.8789067 -0.33399,-1.4062504 -0.33398,-0.5332031 -0.8789,-0.5332031 -0.53906,0 -0.87305,0.5273437 -0.32812,0.5273438 -0.32812,1.4121098 0,0.890625 0.32812,1.417968 0.33399,0.527344 0.87305,0.527344 0.54492,0 0.8789,-0.527344 0.33399,-0.533203 0.33399,-1.417968 z m 1.7168,2.894531 q 0,1.576172 -0.71485,2.273437 -0.70898,0.703125 -2.30859,0.703125 -0.53906,0 -1.06641,-0.08203 -0.52734,-0.07617 -1.07226,-0.240234 V 14.38678 q 0.48632,0.269531 0.99023,0.398437 0.50391,0.128907 1.03711,0.128907 0.72656,0 1.07227,-0.345704 0.3457,-0.339843 0.3457,-1.066406 V 12.79303 q -0.25195,0.46875 -0.66797,0.697265 -0.41602,0.228516 -1.01367,0.228516 -1.125,0 -1.78711,-0.878906 -0.66211,-0.878906 -0.66211,-2.384766 0,-1.5585935 0.66211,-2.472656 0.66211,-0.9140625 1.77539,-0.9140625 0.5625,0 1.00195,0.2636718 0.43946,0.2636719 0.69141,0.7441407 V 7.2383413 h 1.7168 z"
       id="path2966"
       inkscape:connector-curvature="0" />
    <path
       d="m 169.05812,7.4434195 v 1.5 q -0.47461,-0.3046875 -0.99023,-0.4570313 -0.50977,-0.1582031 -1.02539,-0.1582031 -0.57422,0 -0.86719,0.1699219 -0.29297,0.1640625 -0.29297,0.4921875 0,0.46875 1.25391,0.7617187 l 0.0645,0.017578 0.49219,0.1171875 q 0.9375,0.2226563 1.37109,0.7207033 0.43945,0.492187 0.43945,1.335937 0,1.013672 -0.66797,1.523438 -0.6621,0.503906 -1.99804,0.503906 -0.5918,0 -1.21289,-0.105469 -0.6211,-0.09961 -1.25977,-0.304687 v -1.5 q 0.56836,0.322266 1.1543,0.492187 0.5918,0.169922 1.14258,0.169922 0.60351,0 0.91406,-0.175781 0.31055,-0.175781 0.31055,-0.509766 0,-0.328125 -0.22266,-0.503906 -0.2168,-0.175781 -1.04297,-0.375 l -0.47461,-0.105469 q -0.98437,-0.222656 -1.43555,-0.697265 -0.45117,-0.4746096 -0.45117,-1.2714846 0,-0.9492188 0.68555,-1.4765625 0.68555,-0.5273438 1.92773,-0.5273438 0.55664,0 1.10743,0.09375 0.55664,0.087891 1.07812,0.2695313 z"
       id="path2968"
       inkscape:connector-curvature="0" />
  </g>
</svg>
