<?xml version="1.0" encoding="UTF-8" standalone="no"?>
<svg
   width="150"
   height="380"
   viewBox="0 0 39.6875 100.54166"
   version="1.1"
   id="svg12553"
   inkscape:version="1.3.2 (091e20e, 2023-11-25)"
   sodipodi:docname="StereoSwitch.svg"
   xmlns:inkscape="http://www.inkscape.org/namespaces/inkscape"
   xmlns:sodipodi="http://sodipodi.sourceforge.net/DTD/sodipodi-0.dtd"
   xmlns="http://www.w3.org/2000/svg"
   xmlns:svg="http://www.w3.org/2000/svg"
   xmlns:rdf="http://www.w3.org/1999/02/22-rdf-syntax-ns#"
   xmlns:cc="http://creativecommons.org/ns#"
   xmlns:dc="http://purl.org/dc/elements/1.1/">
  <defs
     id="defs12547" />
  <sodipodi:namedview
     id="base"
     pagecolor="#ffffff"
     bordercolor="#666666"
     borderopacity="1.0"
     inkscape:pageopacity="0.0"
     inkscape:pageshadow="2"
     inkscape:zoom="2.2927246"
     inkscape:cx="155.27377"
     inkscape:cy="239.23501"
     inkscape:document-units="px"
     inkscape:current-layer="layer1"
     showgrid="true"
     fit-margin-top="0"
     fit-margin-left="0"
     fit-margin-right="0"
     fit-margin-bottom="0"
     units="px"
     inkscape:window-width="1552"
     inkscape:window-height="1316"
     inkscape:window-x="661"
     inkscape:window-y="348"
     inkscape:window-maximized="0"
     inkscape:snap-grids="false"
     showguides="false"
     inkscape:snap-others="false"
     inkscape:snap-nodes="false"
     inkscape:snap-global="false"
     inkscape:document-rotation="0"
     inkscape:showpageshadow="2"
     inkscape:pagecheckerboard="0"
     inkscape:deskcolor="#d1d1d1">
    <inkscape:grid
       type="xygrid"
       id="grid12870"
       originx="-20.372917"
       originy="84.666664"
       spacingy="1"
       spacingx="1"
       units="px"
       visible="true" />
  </sodipodi:namedview>
  <metadata
     id="metadata12550">
    <rdf:RDF>
      <cc:Work
         rdf:about="">
        <dc:format>image/svg+xml</dc:format>
        <dc:type
           rdf:resource="http://purl.org/dc/dcmitype/StillImage" />
      </cc:Work>
    </rdf:RDF>
  </metadata>
  <g
     inkscape:label="Layer 1"
     inkscape:groupmode="layer"
     id="layer1"
     transform="translate(-26.543497,-161.30655)">
    <g
       aria-label="V"
       id="text430"
       style="font-style:normal;font-variant:normal;font-weight:normal;font-stretch:normal;font-size:4.93889px;line-height:1.25;font-family:sans-serif;-inkscape-font-specification:'sans-serif, Normal';font-variant-ligatures:normal;font-variant-caps:normal;font-variant-numeric:normal;font-variant-east-asian:normal;fill:#1996fc;fill-opacity:1;stroke:none;stroke-width:0.264583">
      <path
         d="m 177.8904,176.41375 -1.30707,3.59083 h -0.63666 l -1.30706,-3.59083 h 0.51125 l 1.1262,3.15916 1.1262,-3.15916 z"
         style="font-style:normal;font-variant:normal;font-weight:normal;font-stretch:normal;font-size:4.93889px;font-family:sans-serif;-inkscape-font-specification:'sans-serif, Normal';font-variant-ligatures:normal;font-variant-caps:normal;font-variant-numeric:normal;font-variant-east-asian:normal;fill:#1996fc;fill-opacity:1;stroke-width:0.264583"
         id="path444" />
    </g>
    <path
       inkscape:connector-curvature="0"
       id="path33453"
       d="M 26.543497,161.30655 H 66.230996 V 261.84821 H 26.543497 Z m 0,0"
       style="fill:#343434;fill-opacity:1;fill-rule:nonzero;stroke:none;stroke-width:0.186246" />
    <g
       id="layer1-2"
       transform="matrix(0.22095688,0,0,0.22095688,36.537883,180.64926)"
       style="isolation:isolate;stroke-width:2.31106">
      <rect
         style="fill:#ffffff;stroke-width:2.31106"
         id="rect9"
         height="2.2750001"
         width="10.008"
         y="347.13"
         x="39.669998" />
      <rect
         style="fill:#ffffff;stroke-width:2.31106"
         id="rect11"
         height="0.70499998"
         width="12.49"
         y="347.74399"
         x="38.465" />
      <path
         style="fill:#ffffff;stroke-width:2.31106"
         inkscape:connector-curvature="0"
         id="path13"
         d="m 36.026,339.784 c 0,-4.456 3.82,-8.074 8.525,-8.074 4.705,0 8.524,3.618 8.524,8.074 0,4.457 -3.819,8.075 -8.524,8.075 -4.705,0 -8.525,-3.618 -8.525,-8.075 z" />
      <rect
         style="fill:#ffffff;stroke-width:2.31106"
         id="rect15"
         height="5.9190001"
         width="13.125"
         y="348.44901"
         x="37.944" />
      <path
         style="fill:#54b6fc;stroke-width:2.31106"
         inkscape:connector-curvature="0"
         id="path17"
         d="m 37.635,354.766 c -0.078,-0.145 -0.126,-1.449 -0.126,-3.397 0,-3.615 -0.089,-3.315 1.195,-4.021 0.41,-0.226 0.746,-0.445 0.746,-0.487 0,-0.043 -0.223,-0.232 -0.496,-0.421 -1.414,-0.98 -2.77,-2.995 -3.217,-4.781 -0.277,-1.106 -0.185,-3.288 0.185,-4.37 1.421,-4.161 6.033,-6.679 10.539,-5.752 2.939,0.604 5.272,2.436 6.452,5.068 0.498,1.11 0.666,1.944 0.663,3.292 -0.006,2.424 -1.107,4.678 -3.056,6.259 -0.35,0.284 -0.637,0.559 -0.637,0.611 0,0.053 0.259,0.243 0.576,0.424 1.212,0.69 1.122,0.358 1.122,4.167 0,2.445 -0.039,3.39 -0.145,3.497 -0.11,0.109 -1.811,0.145 -6.911,0.145 -6.564,0 -6.768,-0.008 -6.89,-0.235 z m 6.572,-1.846 c 0.028,-0.991 0.074,-1.255 0.237,-1.357 0.147,-0.092 0.255,-0.083 0.394,0.033 0.152,0.126 0.192,0.413 0.192,1.358 v 1.198 h 2.794 c 2.374,0 2.805,-0.026 2.864,-0.182 0.164,-0.426 -0.116,-0.755 -1.442,-1.701 -1.11,-0.791 -1.365,-1.029 -1.365,-1.274 0,-0.237 0.07,-0.308 0.334,-0.339 l 0.334,-0.038 v -1 c 0,-1.132 0.155,-1.493 0.585,-1.356 0.251,0.079 0.264,0.153 0.266,1.501 0.001,0.779 0.042,1.474 0.091,1.545 0.147,0.211 0.951,0.782 1.101,0.782 0.1,0 0.14,-0.52 0.14,-1.801 0,-2.043 0.062,-1.902 -1.132,-2.569 l -0.708,-0.396 -1.232,0.412 c -1.197,0.399 -1.29,0.411 -3.175,0.411 -1.864,0 -1.983,-0.016 -2.996,-0.377 l -1.054,-0.377 -0.977,0.551 -0.978,0.552 v 1.857 c 0,1.022 0.031,1.858 0.069,1.858 0.038,0 0.311,-0.142 0.607,-0.315 l 0.537,-0.314 0.002,-1.232 c 0.002,-1.579 0.283,-2.203 0.772,-1.714 0.15,0.149 0.196,0.438 0.196,1.211 v 1.014 l 0.4,-0.064 c 0.434,-0.071 0.747,0.159 0.632,0.461 -0.036,0.093 -0.774,0.594 -1.64,1.113 -1.532,0.919 -1.575,0.957 -1.575,1.363 v 0.418 h 2.846 2.847 z m 3.116,-5.993 c 2.504,-0.839 4.541,-2.944 5.165,-5.338 0.195,-0.748 0.251,-2.796 0.084,-3.059 -0.076,-0.119 -0.708,-0.147 -2.742,-0.121 l -2.644,0.033 -0.393,1.092 c -0.345,0.956 -0.429,1.092 -0.681,1.092 -0.266,0 -0.302,-0.082 -0.497,-1.138 -0.321,-1.734 -0.364,-1.707 -0.757,0.481 -0.345,1.92 -0.39,2.052 -0.687,2.052 -0.288,0 -0.273,0.062 -0.814,-3.569 -0.247,-1.663 -0.504,-3.041 -0.571,-3.063 -0.066,-0.023 -0.476,0.656 -0.91,1.507 l -0.788,1.546 -2.27,0.034 -2.269,0.033 -0.082,0.437 c -0.139,0.74 0.028,2.246 0.352,3.178 0.662,1.902 2.011,3.402 3.905,4.338 1.472,0.729 2.322,0.904 4.125,0.851 1.197,-0.037 1.636,-0.104 2.474,-0.385 z m -3.552,-0.476 c -0.689,-0.196 -0.842,-0.318 -0.782,-0.627 0.039,-0.199 0.18,-0.228 1.194,-0.247 0.633,-0.011 1.342,-0.038 1.575,-0.06 0.38,-0.034 0.429,-0.009 0.462,0.278 0.031,0.271 -0.035,0.347 -0.453,0.514 -0.719,0.288 -1.328,0.331 -1.996,0.142 z m -2.259,-2.854 c -0.133,-0.134 -0.242,-0.352 -0.242,-0.485 0,-0.337 0.424,-0.728 0.788,-0.728 0.365,0 0.789,0.391 0.789,0.728 0,0.336 -0.424,0.728 -0.789,0.728 -0.166,0 -0.412,-0.11 -0.546,-0.243 z m 4.732,-0.121 c -0.321,-0.32 -0.306,-0.555 0.055,-0.916 0.335,-0.335 0.453,-0.357 0.832,-0.158 0.333,0.175 0.443,0.338 0.445,0.661 0.004,0.597 -0.876,0.869 -1.332,0.413 z m -1.584,-5.884 c 0.408,-2.456 0.791,-2.52 1.203,-0.199 0.135,0.757 0.272,1.404 0.304,1.437 0.114,0.114 0.293,-0.084 0.376,-0.417 0.161,-0.642 0.148,-0.639 2.995,-0.639 3.011,0 2.953,0.022 2.539,-0.915 -0.902,-2.038 -2.972,-3.73 -5.348,-4.37 -1.064,-0.287 -3.184,-0.295 -4.246,-0.016 -2.562,0.673 -4.724,2.532 -5.587,4.805 l -0.237,0.623 2.032,-0.033 2.033,-0.034 0.97,-1.904 c 0.534,-1.048 1.04,-1.974 1.123,-2.057 0.337,-0.337 0.501,0.172 0.885,2.747 0.209,1.4 0.408,2.592 0.443,2.649 0.141,0.229 0.265,-0.174 0.515,-1.677 z" />
      <path
         style="fill:#a0a0a0;stroke-width:2.31106"
         inkscape:connector-curvature="0"
         id="path19"
         d="m 37.635,354.766 c -0.078,-0.145 -0.126,-1.449 -0.126,-3.397 0,-3.615 -0.089,-3.315 1.195,-4.021 0.41,-0.226 0.746,-0.445 0.746,-0.487 0,-0.043 -0.223,-0.232 -0.496,-0.421 -1.414,-0.98 -2.77,-2.995 -3.217,-4.781 -0.277,-1.106 -0.185,-3.288 0.185,-4.37 1.421,-4.161 6.033,-6.679 10.539,-5.752 2.939,0.604 5.272,2.436 6.452,5.068 0.498,1.11 0.666,1.944 0.663,3.292 -0.006,2.424 -1.107,4.678 -3.056,6.259 -0.35,0.284 -0.637,0.559 -0.637,0.611 0,0.053 0.259,0.243 0.576,0.424 1.212,0.69 1.122,0.358 1.122,4.167 0,2.445 -0.039,3.39 -0.145,3.497 -0.11,0.109 -1.811,0.145 -6.911,0.145 -6.564,0 -6.768,-0.008 -6.89,-0.235 z m 6.572,-1.846 c 0.028,-0.991 0.074,-1.255 0.237,-1.357 0.147,-0.092 0.255,-0.083 0.394,0.033 0.152,0.126 0.192,0.413 0.192,1.358 v 1.198 h 2.794 c 2.374,0 2.805,-0.026 2.864,-0.182 0.164,-0.426 -0.116,-0.755 -1.442,-1.701 -1.11,-0.791 -1.365,-1.029 -1.365,-1.274 0,-0.237 0.07,-0.308 0.334,-0.339 l 0.334,-0.038 v -1 c 0,-1.132 0.155,-1.493 0.585,-1.356 0.251,0.079 0.264,0.153 0.266,1.501 0.001,0.779 0.042,1.474 0.091,1.545 0.147,0.211 0.951,0.782 1.101,0.782 0.1,0 0.14,-0.52 0.14,-1.801 0,-2.043 0.062,-1.902 -1.132,-2.569 l -0.708,-0.396 -1.232,0.412 c -1.197,0.399 -1.29,0.411 -3.175,0.411 -1.864,0 -1.983,-0.016 -2.996,-0.377 l -1.054,-0.377 -0.977,0.551 -0.978,0.552 v 1.857 c 0,1.022 0.031,1.858 0.069,1.858 0.038,0 0.311,-0.142 0.607,-0.315 l 0.537,-0.314 0.002,-1.232 c 0.002,-1.579 0.283,-2.203 0.772,-1.714 0.15,0.149 0.196,0.438 0.196,1.211 v 1.014 l 0.4,-0.064 c 0.434,-0.071 0.747,0.159 0.632,0.461 -0.036,0.093 -0.774,0.594 -1.64,1.113 -1.532,0.919 -1.575,0.957 -1.575,1.363 v 0.418 h 2.846 2.847 z m 3.116,-5.993 c 1.931,-0.647 3.633,-2.064 4.532,-3.775 0.59,-1.123 0.818,-2.049 0.816,-3.311 -0.002,-1.743 0.283,-1.582 -2.795,-1.582 -1.985,0 -2.672,0.038 -2.746,0.152 -0.054,0.083 -0.263,0.588 -0.465,1.121 -0.526,1.39 -0.684,1.347 -0.974,-0.267 -0.343,-1.905 -0.509,-1.805 -0.928,0.562 -0.325,1.834 -0.466,2.241 -0.692,2.005 -0.061,-0.063 -0.309,-1.48 -0.55,-3.148 -0.52,-3.598 -0.516,-3.579 -0.709,-3.579 -0.083,0 -0.519,0.737 -0.967,1.638 l -0.817,1.638 h -2.237 -2.237 l -0.085,0.562 c -0.322,2.147 0.665,4.715 2.423,6.308 0.871,0.788 2.571,1.671 3.712,1.926 1.285,0.288 3.456,0.173 4.719,-0.25 z m -3.552,-0.476 c -0.689,-0.196 -0.842,-0.318 -0.782,-0.627 0.039,-0.199 0.18,-0.228 1.194,-0.247 0.633,-0.011 1.342,-0.038 1.575,-0.06 0.38,-0.034 0.429,-0.009 0.462,0.278 0.031,0.271 -0.035,0.347 -0.453,0.514 -0.719,0.288 -1.328,0.331 -1.996,0.142 z m -2.259,-2.854 c -0.133,-0.134 -0.242,-0.352 -0.242,-0.485 0,-0.337 0.424,-0.728 0.788,-0.728 0.365,0 0.789,0.391 0.789,0.728 0,0.336 -0.424,0.728 -0.789,0.728 -0.166,0 -0.412,-0.11 -0.546,-0.243 z m 4.732,-0.121 c -0.321,-0.32 -0.306,-0.555 0.055,-0.916 0.335,-0.335 0.453,-0.357 0.832,-0.158 0.333,0.175 0.443,0.338 0.445,0.661 0.004,0.597 -0.876,0.869 -1.332,0.413 z m -1.51,-5.643 c 0.291,-1.664 0.459,-2.135 0.68,-1.904 0.045,0.047 0.209,0.796 0.365,1.663 0.32,1.786 0.472,1.954 0.851,0.94 l 0.237,-0.637 h 2.714 c 1.493,0 2.741,-0.043 2.773,-0.096 0.111,-0.178 -0.491,-1.456 -1.064,-2.258 -1.001,-1.404 -2.726,-2.557 -4.561,-3.052 -1.064,-0.287 -3.184,-0.295 -4.246,-0.016 -1.492,0.392 -2.75,1.113 -3.833,2.196 -0.931,0.932 -1.649,2.075 -1.93,3.075 l -0.076,0.273 1.979,-10e-4 c 1.089,-0.001 2.041,-0.042 2.116,-0.091 0.076,-0.049 0.581,-0.977 1.123,-2.061 0.925,-1.849 1.116,-2.128 1.279,-1.865 0.036,0.059 0.234,1.273 0.439,2.699 0.383,2.657 0.526,3.263 0.724,3.065 0.062,-0.062 0.255,-0.929 0.429,-1.929 z" />
      <path
         style="fill:#179cfd;stroke-width:2.31106"
         inkscape:connector-curvature="0"
         id="path21"
         d="m 37.695,354.688 c -0.128,-0.335 -0.083,-6.237 0.05,-6.485 0.067,-0.127 0.504,-0.453 0.97,-0.725 0.466,-0.272 0.847,-0.545 0.847,-0.607 0,-0.062 -0.31,-0.346 -0.689,-0.632 -1.386,-1.044 -2.563,-2.825 -3.002,-4.54 -0.243,-0.947 -0.246,-2.806 -0.007,-3.748 0.1,-0.398 0.41,-1.187 0.687,-1.754 0.404,-0.824 0.714,-1.24 1.546,-2.073 0.864,-0.864 1.237,-1.137 2.194,-1.607 1.659,-0.815 2.42,-0.989 4.306,-0.982 1.109,0.003 1.804,0.068 2.345,0.216 4.402,1.211 7.145,5.247 6.401,9.42 -0.341,1.915 -1.707,4.103 -3.215,5.147 -0.273,0.189 -0.497,0.389 -0.497,0.444 0,0.055 0.382,0.322 0.848,0.595 0.541,0.316 0.872,0.592 0.914,0.763 0.036,0.148 0.05,1.715 0.031,3.483 l -0.034,3.215 -6.81,0.03 c -6.132,0.029 -6.818,0.011 -6.885,-0.161 z m 6.598,-1.75 c 0.056,-1.173 0.08,-1.274 0.304,-1.274 0.223,0 0.247,0.101 0.303,1.274 l 0.061,1.274 h 2.909 c 2.723,0 2.913,-0.016 2.953,-0.222 0.102,-0.53 -0.121,-0.801 -1.429,-1.737 -0.732,-0.524 -1.361,-1.026 -1.397,-1.115 -0.098,-0.244 0.036,-0.384 0.367,-0.384 0.292,0 0.297,-0.015 0.297,-1.077 0,-0.794 0.046,-1.115 0.176,-1.223 0.341,-0.283 0.43,-0.008 0.43,1.327 0,0.725 0.033,1.403 0.073,1.508 0.104,0.272 1.232,1.075 1.38,0.983 0.189,-0.116 0.163,-3.727 -0.027,-3.966 -0.084,-0.105 -0.504,-0.392 -0.934,-0.64 -0.878,-0.505 -0.915,-0.505 -2.312,0.016 -0.853,0.316 -1.03,0.338 -2.85,0.341 -1.881,0.003 -1.976,-0.008 -3.068,-0.39 l -1.126,-0.393 -0.973,0.565 c -0.535,0.311 -1.024,0.662 -1.087,0.78 -0.064,0.118 -0.115,0.984 -0.115,1.925 0,1.372 0.034,1.723 0.174,1.776 0.216,0.083 1.245,-0.507 1.406,-0.807 0.065,-0.122 0.118,-0.795 0.118,-1.496 0,-1.318 0.124,-1.66 0.443,-1.224 0.106,0.145 0.164,0.578 0.164,1.233 v 1.01 l 0.496,-0.079 c 0.469,-0.075 0.493,-0.064 0.455,0.205 -0.032,0.221 -0.387,0.489 -1.58,1.191 -1.576,0.927 -1.792,1.158 -1.612,1.725 0.072,0.225 0.2,0.233 3.008,0.202 l 2.933,-0.033 z m 2.972,-5.863 c 2.435,-0.797 4.358,-2.617 5.174,-4.895 0.264,-0.738 0.451,-3.001 0.298,-3.609 l -0.078,-0.312 h -2.72 c -2.043,0 -2.744,0.038 -2.818,0.152 -0.054,0.083 -0.263,0.588 -0.465,1.121 -0.526,1.39 -0.684,1.347 -0.975,-0.267 -0.343,-1.905 -0.508,-1.805 -0.928,0.562 -0.325,1.834 -0.465,2.241 -0.692,2.005 -0.061,-0.063 -0.308,-1.48 -0.549,-3.148 -0.52,-3.598 -0.516,-3.579 -0.709,-3.579 -0.083,0 -0.519,0.737 -0.968,1.638 l -0.816,1.638 h -2.241 c -2.616,0 -2.491,-0.069 -2.491,1.367 0,1.107 0.351,2.527 0.87,3.523 0.584,1.12 2.215,2.696 3.385,3.271 1.509,0.742 2.468,0.945 4.237,0.894 1.228,-0.033 1.7,-0.103 2.486,-0.361 z m -3.336,-0.707 c -0.658,-0.148 -0.968,-0.396 -0.756,-0.608 0.105,-0.105 0.319,-0.111 0.805,-0.022 0.491,0.089 0.825,0.079 1.289,-0.04 0.663,-0.169 0.846,-0.136 0.846,0.157 0,0.397 -1.318,0.707 -2.184,0.513 z m -2.346,-2.872 c -0.261,-0.288 -0.255,-0.541 0.021,-0.79 0.32,-0.29 0.712,-0.247 0.942,0.102 0.184,0.281 0.184,0.326 0,0.607 -0.237,0.36 -0.677,0.397 -0.963,0.081 z m 4.706,-0.194 c -0.373,-0.57 0.273,-1.129 0.861,-0.744 0.34,0.223 0.384,0.571 0.107,0.848 -0.286,0.286 -0.745,0.237 -0.968,-0.104 z m -1.565,-5.469 c 0.291,-1.664 0.46,-2.135 0.681,-1.904 0.045,0.047 0.209,0.796 0.364,1.663 0.321,1.785 0.473,1.954 0.85,0.942 l 0.237,-0.634 2.752,-0.034 c 3.237,-0.038 3.138,0.023 2.372,-1.455 -0.591,-1.139 -1.975,-2.548 -3.136,-3.194 -4.176,-2.321 -9.584,-0.849 -11.679,3.18 -0.283,0.544 -0.514,1.13 -0.514,1.304 v 0.315 l 1.971,-0.002 c 1.084,0 2.033,-0.042 2.108,-0.091 0.075,-0.049 0.581,-0.976 1.123,-2.06 0.925,-1.85 1.116,-2.128 1.279,-1.865 0.036,0.058 0.233,1.273 0.439,2.699 0.383,2.656 0.526,3.263 0.724,3.064 0.061,-0.061 0.254,-0.929 0.429,-1.928 z" />
      <path
         style="fill:#050505;stroke-width:2.31106"
         inkscape:connector-curvature="0"
         id="path23"
         d="m 37.695,354.688 c -0.128,-0.335 -0.083,-6.237 0.05,-6.485 0.067,-0.127 0.504,-0.453 0.97,-0.725 0.466,-0.272 0.847,-0.545 0.847,-0.607 0,-0.062 -0.31,-0.346 -0.689,-0.632 -1.386,-1.044 -2.563,-2.825 -3.002,-4.54 -0.243,-0.947 -0.246,-2.806 -0.007,-3.748 0.1,-0.398 0.41,-1.187 0.687,-1.754 0.404,-0.824 0.714,-1.24 1.546,-2.073 0.864,-0.864 1.237,-1.137 2.194,-1.607 1.659,-0.815 2.42,-0.989 4.306,-0.982 1.109,0.003 1.804,0.068 2.345,0.216 4.402,1.211 7.145,5.247 6.401,9.42 -0.341,1.915 -1.707,4.103 -3.215,5.147 -0.273,0.189 -0.497,0.389 -0.497,0.444 0,0.055 0.382,0.322 0.848,0.595 0.541,0.316 0.872,0.592 0.914,0.763 0.036,0.148 0.05,1.715 0.031,3.483 l -0.034,3.215 -6.81,0.03 c -6.132,0.029 -6.818,0.011 -6.885,-0.161 z m 6.598,-1.75 c 0.056,-1.173 0.08,-1.274 0.304,-1.274 0.223,0 0.247,0.101 0.303,1.274 l 0.061,1.274 h 2.909 c 2.723,0 2.913,-0.016 2.953,-0.222 0.102,-0.53 -0.121,-0.801 -1.429,-1.737 -0.732,-0.524 -1.361,-1.026 -1.397,-1.115 -0.098,-0.244 0.036,-0.384 0.367,-0.384 0.292,0 0.297,-0.015 0.297,-1.077 0,-0.794 0.046,-1.115 0.176,-1.223 0.341,-0.283 0.43,-0.008 0.43,1.327 0,0.725 0.033,1.403 0.073,1.508 0.104,0.272 1.232,1.075 1.38,0.983 0.189,-0.116 0.163,-3.727 -0.027,-3.966 -0.084,-0.105 -0.504,-0.392 -0.934,-0.64 -0.878,-0.505 -0.915,-0.505 -2.312,0.016 -0.853,0.316 -1.03,0.338 -2.85,0.341 -1.881,0.003 -1.976,-0.008 -3.068,-0.39 l -1.126,-0.393 -0.973,0.565 c -0.535,0.311 -1.024,0.662 -1.087,0.78 -0.064,0.118 -0.115,0.984 -0.115,1.925 0,1.372 0.034,1.723 0.174,1.776 0.216,0.083 1.245,-0.507 1.406,-0.807 0.065,-0.122 0.118,-0.795 0.118,-1.496 0,-1.318 0.124,-1.66 0.443,-1.224 0.106,0.145 0.164,0.578 0.164,1.233 v 1.01 l 0.496,-0.079 c 0.469,-0.075 0.493,-0.064 0.455,0.205 -0.032,0.221 -0.387,0.489 -1.58,1.191 -1.576,0.927 -1.792,1.158 -1.612,1.725 0.072,0.225 0.2,0.233 3.008,0.202 l 2.933,-0.033 z m 2.972,-5.863 c 2.474,-0.81 4.446,-2.715 5.234,-5.055 0.293,-0.871 0.305,-3.256 0.021,-4.264 -0.49,-1.744 -1.999,-3.606 -3.676,-4.538 -3.408,-1.894 -7.698,-1.319 -10.374,1.391 -2.247,2.277 -2.789,5.66 -1.368,8.533 0.611,1.235 2.169,2.775 3.44,3.4 1.51,0.742 2.468,0.944 4.237,0.894 1.228,-0.033 1.701,-0.104 2.486,-0.361 z m -3.336,-0.707 c -0.658,-0.148 -0.968,-0.396 -0.756,-0.608 0.105,-0.105 0.319,-0.111 0.805,-0.022 0.491,0.089 0.825,0.079 1.289,-0.04 0.663,-0.169 0.846,-0.136 0.846,0.157 0,0.397 -1.318,0.707 -2.184,0.513 z m -2.346,-2.872 c -0.261,-0.288 -0.255,-0.541 0.021,-0.79 0.32,-0.29 0.712,-0.247 0.942,0.102 0.184,0.281 0.184,0.326 0,0.607 -0.237,0.36 -0.677,0.397 -0.963,0.081 z m 4.706,-0.194 c -0.373,-0.57 0.273,-1.129 0.861,-0.744 0.34,0.223 0.384,0.571 0.107,0.848 -0.286,0.286 -0.745,0.237 -0.968,-0.104 z" />
    </g>
    <path
       id="rect1298-5-2-2-2"
       style="fill:#2d6087;fill-opacity:1;stroke:none;stroke-width:0.263651;stroke-miterlimit:4;stroke-dasharray:none;stroke-dashoffset:0;stroke-opacity:1"
       d="m 39.508082,242.76672 h 21.166666 v 7.9375 H 39.508082 Z" />
    <g
       id="text6"
       style="font-weight:bold;font-size:2.11667px;-inkscape-font-specification:'sans-serif Bold';text-align:center;text-anchor:middle;fill:#1995fa;stroke-width:0.265112"
       aria-label="Weighted&#10;Random&#10;Stereo&#10;Switch">
      <path
         d="m 42.804286,163.34506 -0.414446,1.53893 h -0.43925 l -0.275953,-1.00253 -0.268717,1.00253 h -0.439251 l -0.414445,-1.53893 h 0.414445 l 0.236679,1.05937 0.283187,-1.05937 h 0.395842 l 0.269751,1.05937 0.248048,-1.05937 z m 1.386997,1.02733 h -0.851628 q 0.0083,0.13643 0.103353,0.20877 0.09612,0.0724 0.282153,0.0724 0.117823,0 0.22841,-0.0424 0.110588,-0.0424 0.174667,-0.091 h 0.04134 v 0.2987 q -0.12609,0.0506 -0.237712,0.0734 -0.111621,0.0227 -0.247013,0.0227 -0.349334,0 -0.535369,-0.15709 -0.186035,-0.1571 -0.186035,-0.44752 0,-0.28732 0.1757,-0.45476 0.176733,-0.16846 0.483692,-0.16846 0.283187,0 0.425814,0.14366 0.142627,0.14263 0.142627,0.41135 z m -0.370003,-0.21807 q -0.0031,-0.11679 -0.05788,-0.17571 -0.05478,-0.0589 -0.170533,-0.0589 -0.107487,0 -0.176733,0.0558 -0.06925,0.0558 -0.07751,0.17881 z m 1.004591,0.72967 H 44.4538 v -1.16066 h 0.372071 z m 0.01033,-1.32602 h -0.392741 v -0.28216 h 0.392741 z m 1.46968,1.19269 q 0,0.1633 -0.04651,0.27492 -0.04651,0.11162 -0.130224,0.17467 -0.08372,0.0641 -0.202572,0.092 -0.117823,0.0289 -0.266651,0.0289 -0.120923,0 -0.238746,-0.0145 -0.116789,-0.0145 -0.202572,-0.0351 v -0.29042 h 0.04548 q 0.06821,0.0269 0.166398,0.0486 0.09819,0.0227 0.1757,0.0227 0.103353,0 0.167432,-0.0196 0.06511,-0.0186 0.09922,-0.0537 0.03204,-0.0331 0.04651,-0.0848 0.01447,-0.0517 0.01447,-0.12402 v -0.0217 q -0.06718,0.0548 -0.148828,0.0868 -0.08165,0.032 -0.181901,0.032 -0.243914,0 -0.376205,-0.14676 -0.132292,-0.14676 -0.132292,-0.44649 0,-0.14366 0.04031,-0.24804 0.04031,-0.10439 0.113689,-0.1819 0.06821,-0.0724 0.167432,-0.11266 0.100252,-0.0403 0.204639,-0.0403 0.09405,0 0.170532,0.0227 0.07751,0.0217 0.14056,0.061 l 0.01344,-0.0517 h 0.360702 z m -0.372071,-0.23254 v -0.52607 q -0.03204,-0.0134 -0.07855,-0.0207 -0.04651,-0.008 -0.08372,-0.008 -0.146761,0 -0.220142,0.0847 -0.07338,0.0837 -0.07338,0.23461 0,0.16743 0.06201,0.23358 0.06305,0.0661 0.186036,0.0661 0.05581,0 0.109554,-0.0176 0.05374,-0.0176 0.09819,-0.0465 z m 1.889294,0.36587 h -0.374138 v -0.57568 q 0,-0.0703 -0.0072,-0.13953 -0.0072,-0.0703 -0.02481,-0.10335 -0.02067,-0.0382 -0.06098,-0.0558 -0.03927,-0.0176 -0.110588,-0.0176 -0.05064,0 -0.103353,0.0165 -0.05168,0.0165 -0.112655,0.0527 v 0.82269 h -0.372071 v -1.60818 h 0.372071 v 0.57568 q 0.09922,-0.0775 0.19017,-0.11886 0.09198,-0.0413 0.203605,-0.0413 0.188103,0 0.293523,0.10956 0.106454,0.10955 0.106454,0.32763 z m 1.084173,-0.0103 q -0.05994,0.0155 -0.127124,0.0238 -0.06718,0.009 -0.164332,0.009 -0.217041,0 -0.323495,-0.0879 -0.10542,-0.0879 -0.10542,-0.30076 v -0.54261 h -0.152962 v -0.25218 h 0.152962 v -0.33176 h 0.372071 v 0.33176 h 0.3483 v 0.25218 h -0.3483 v 0.41135 q 0,0.061 0.001,0.10645 0.001,0.0455 0.01654,0.0816 0.01447,0.0362 0.05064,0.0579 0.03721,0.0207 0.107487,0.0207 0.02894,0 0.07545,-0.0124 0.04754,-0.0124 0.06615,-0.0227 h 0.03101 z m 1.365293,-0.50126 h -0.851629 q 0.0083,0.13643 0.103353,0.20877 0.09612,0.0724 0.282154,0.0724 0.117822,0 0.22841,-0.0424 0.110588,-0.0424 0.174667,-0.091 h 0.04134 v 0.2987 q -0.126091,0.0506 -0.237712,0.0734 -0.111621,0.0227 -0.247014,0.0227 -0.349333,0 -0.535368,-0.15709 -0.186036,-0.1571 -0.186036,-0.44752 0,-0.28732 0.1757,-0.45476 0.176734,-0.16846 0.483692,-0.16846 0.283188,0 0.425815,0.14366 0.142627,0.14263 0.142627,0.41135 z m -0.370004,-0.21807 q -0.0031,-0.11679 -0.05788,-0.17571 -0.05478,-0.0589 -0.170533,-0.0589 -0.107487,0 -0.176734,0.0558 -0.06925,0.0558 -0.07751,0.17881 z m 1.761136,0.72967 h -0.372071 v -0.12093 q -0.09612,0.0786 -0.179834,0.11576 -0.08372,0.0372 -0.19327,0.0372 -0.211874,0 -0.338998,-0.1633 -0.127124,-0.1633 -0.127124,-0.44028 0,-0.1478 0.04237,-0.26149 0.04341,-0.11472 0.117823,-0.19637 0.07028,-0.0775 0.170532,-0.11989 0.100253,-0.0434 0.200505,-0.0434 0.104387,0 0.170533,0.0227 0.06718,0.0217 0.137459,0.0558 v -0.49403 h 0.372071 z m -0.372071,-0.3204 v -0.56947 q -0.03927,-0.0165 -0.08268,-0.0238 -0.04341,-0.007 -0.07958,-0.007 -0.146761,0 -0.220142,0.092 -0.07338,0.0909 -0.07338,0.25321 0,0.17053 0.05891,0.24805 0.05891,0.0765 0.189136,0.0765 0.05064,0 0.107487,-0.0186 0.05684,-0.0196 0.100252,-0.0506 z"
         id="path9" />
      <path
         d="m 42.345915,166.46219 q 0,-0.0579 -0.02377,-0.0992 -0.02377,-0.0413 -0.08165,-0.0651 -0.04031,-0.0165 -0.09405,-0.0196 -0.05374,-0.004 -0.125057,-0.004 h -0.143661 v 0.41444 h 0.121957 q 0.09508,0 0.159163,-0.009 0.06408,-0.009 0.107487,-0.0424 0.04134,-0.032 0.05994,-0.0703 0.01964,-0.0393 0.01964,-0.10438 z m 0.619085,1.06763 h -0.484726 l -0.419613,-0.5643 h -0.182935 v 0.5643 h -0.394808 v -1.53892 h 0.665593 q 0.136426,0 0.234611,0.0155 0.09819,0.0155 0.183969,0.0672 0.08682,0.0517 0.137459,0.13436 0.05168,0.0816 0.05168,0.20567 0,0.17053 -0.07958,0.27802 -0.07855,0.10749 -0.22531,0.1788 z m 0.855763,-0.30282 v -0.24185 q -0.07545,0.006 -0.163298,0.0176 -0.08785,0.0103 -0.133325,0.0248 -0.05581,0.0176 -0.08578,0.0517 -0.02894,0.0331 -0.02894,0.0879 0,0.0362 0.0062,0.0589 0.0062,0.0227 0.03101,0.0434 0.02377,0.0207 0.05684,0.031 0.03307,0.009 0.103353,0.009 0.05581,0 0.112655,-0.0227 0.05788,-0.0227 0.101286,-0.0599 z m 0,0.17983 q -0.02997,0.0227 -0.07441,0.0548 -0.04444,0.032 -0.08372,0.0506 -0.05478,0.0248 -0.113689,0.0362 -0.05891,0.0124 -0.129191,0.0124 -0.165365,0 -0.276986,-0.10232 -0.111621,-0.10232 -0.111621,-0.26148 0,-0.12713 0.05684,-0.20774 0.05684,-0.0806 0.161231,-0.12713 0.103353,-0.0465 0.256315,-0.0661 0.152963,-0.0196 0.317294,-0.0289 v -0.006 q 0,-0.0961 -0.07855,-0.13229 -0.07855,-0.0372 -0.231511,-0.0372 -0.09198,0 -0.196371,0.0331 -0.104386,0.032 -0.149862,0.0496 h -0.03411 v -0.28008 q 0.05891,-0.0155 0.191203,-0.0362 0.133325,-0.0217 0.266651,-0.0217 0.317293,0 0.457854,0.0982 0.141593,0.0971 0.141593,0.30593 v 0.78961 h -0.36897 z m 1.876891,0.12299 h -0.374138 v -0.57567 q 0,-0.0703 -0.0072,-0.13953 -0.0072,-0.0703 -0.0248,-0.10335 -0.02067,-0.0382 -0.06098,-0.0558 -0.03927,-0.0176 -0.110588,-0.0176 -0.05064,0 -0.103353,0.0165 -0.05168,0.0165 -0.112654,0.0527 v 0.82269 h -0.372071 v -1.16065 h 0.372071 v 0.12816 q 0.09922,-0.0775 0.190169,-0.11886 0.09198,-0.0413 0.203606,-0.0413 0.188102,0 0.293522,0.10956 0.106454,0.10955 0.106454,0.32762 z m 1.470714,0 h -0.372071 v -0.12092 q -0.09612,0.0786 -0.179835,0.11576 -0.08372,0.0372 -0.19327,0.0372 -0.211873,0 -0.338998,-0.16329 -0.127124,-0.1633 -0.127124,-0.44029 0,-0.14779 0.04237,-0.26148 0.04341,-0.11472 0.117822,-0.19637 0.07028,-0.0775 0.170533,-0.11989 0.100252,-0.0434 0.200505,-0.0434 0.104386,0 0.170532,0.0227 0.06718,0.0217 0.13746,0.0558 v -0.49403 h 0.372071 z m -0.372071,-0.32039 v -0.56947 q -0.03928,-0.0165 -0.08268,-0.0238 -0.04341,-0.007 -0.07958,-0.007 -0.146761,0 -0.220142,0.092 -0.07338,0.0909 -0.07338,0.25322 0,0.17053 0.05891,0.24805 0.05891,0.0765 0.189136,0.0765 0.05064,0 0.107487,-0.0186 0.05684,-0.0196 0.100253,-0.0506 z m 1.909963,-0.25942 q 0,0.28629 -0.167431,0.45166 -0.166399,0.16433 -0.46819,0.16433 -0.30179,0 -0.469222,-0.16433 -0.166399,-0.16537 -0.166399,-0.45166 0,-0.28835 0.167432,-0.45268 0.168466,-0.16433 0.468189,-0.16433 0.303858,0 0.469223,0.16536 0.166398,0.16537 0.166398,0.45165 z m -0.457853,0.28216 q 0.03617,-0.0444 0.05374,-0.10646 0.0186,-0.063 0.0186,-0.17363 0,-0.10232 -0.0186,-0.17156 -0.0186,-0.0692 -0.05168,-0.11059 -0.03307,-0.0424 -0.07958,-0.0599 -0.04651,-0.0176 -0.100253,-0.0176 -0.05374,0 -0.09612,0.0145 -0.04134,0.0145 -0.07958,0.0579 -0.03411,0.0403 -0.05478,0.11059 -0.01964,0.0703 -0.01964,0.17673 0,0.0951 0.01757,0.16537 0.01757,0.0692 0.05168,0.11162 0.03307,0.0403 0.07855,0.0589 0.04651,0.0186 0.10542,0.0186 0.05064,0 0.09612,-0.0165 0.04651,-0.0176 0.07855,-0.0579 z m 1.85932,-0.52504 v 0.82269 h -0.374138 v -0.57981 q 0,-0.0847 -0.0041,-0.14366 -0.0041,-0.0599 -0.02274,-0.0971 -0.0186,-0.0372 -0.05684,-0.0537 -0.03721,-0.0176 -0.10542,-0.0176 -0.05478,0 -0.106453,0.0227 -0.05168,0.0217 -0.09302,0.0465 v 0.82269 h -0.372071 v -1.16065 h 0.372071 v 0.12816 q 0.09612,-0.0755 0.183968,-0.11782 0.08785,-0.0424 0.194304,-0.0424 0.114722,0 0.202572,0.0517 0.08785,0.0506 0.137459,0.14986 0.111622,-0.0941 0.217042,-0.1478 0.10542,-0.0537 0.206706,-0.0537 0.188102,0 0.285254,0.11266 0.09819,0.11265 0.09819,0.32452 v 0.75551 h -0.374138 v -0.57981 q 0,-0.0858 -0.0041,-0.14469 -0.0031,-0.0589 -0.0217,-0.0961 -0.01757,-0.0372 -0.05581,-0.0537 -0.03824,-0.0176 -0.107488,-0.0176 -0.04651,0 -0.09095,0.0165 -0.04444,0.0155 -0.108521,0.0527 z"
         id="path10" />
      <path
         d="m 43.697773,169.69197 q 0,0.22738 -0.19327,0.37 -0.192237,0.1416 -0.522967,0.1416 -0.191203,0 -0.33383,-0.0331 -0.141594,-0.0341 -0.265617,-0.0858 v -0.36897 h 0.04341 q 0.12299,0.0982 0.274919,0.1509 0.152963,0.0527 0.293523,0.0527 0.03617,0 0.09508,-0.006 0.05891,-0.006 0.09612,-0.0207 0.04548,-0.0186 0.07441,-0.0465 0.02997,-0.0279 0.02997,-0.0827 0,-0.0506 -0.04341,-0.0868 -0.04237,-0.0372 -0.125057,-0.0568 -0.08682,-0.0207 -0.183968,-0.0382 -0.09612,-0.0186 -0.180868,-0.0465 -0.194304,-0.063 -0.280087,-0.17053 -0.08475,-0.10852 -0.08475,-0.26872 0,-0.21497 0.192236,-0.35036 0.19327,-0.13643 0.496095,-0.13643 0.151929,0 0.299723,0.03 0.148829,0.0289 0.25735,0.0734 v 0.3545 h -0.04237 q -0.09302,-0.0744 -0.22841,-0.12402 -0.134359,-0.0506 -0.274919,-0.0506 -0.04961,0 -0.09922,0.007 -0.04858,0.006 -0.09405,0.0248 -0.04031,0.0155 -0.06925,0.0475 -0.02894,0.031 -0.02894,0.0713 0,0.061 0.04651,0.094 0.04651,0.032 0.1757,0.0589 0.08475,0.0176 0.162264,0.0341 0.07855,0.0165 0.168466,0.0455 0.176733,0.0579 0.260449,0.15813 0.08475,0.0992 0.08475,0.25838 z m 0.993222,0.47336 q -0.05994,0.0155 -0.127124,0.0238 -0.06718,0.009 -0.164331,0.009 -0.217042,0 -0.323495,-0.0879 -0.10542,-0.0879 -0.10542,-0.30076 v -0.5426 h -0.152963 v -0.25218 h 0.152963 v -0.33177 h 0.372071 v 0.33177 h 0.348299 v 0.25218 h -0.348299 v 0.41134 q 0,0.061 0.001,0.10646 0.001,0.0455 0.01654,0.0816 0.01447,0.0362 0.05064,0.0579 0.03721,0.0207 0.107487,0.0207 0.02894,0 0.07545,-0.0124 0.04754,-0.0124 0.06615,-0.0227 h 0.03101 z m 1.365294,-0.50127 H 45.20466 q 0.0083,0.13643 0.103353,0.20878 0.09612,0.0723 0.282153,0.0723 0.117823,0 0.228411,-0.0424 0.110587,-0.0424 0.174666,-0.0909 h 0.04134 v 0.29869 q -0.12609,0.0506 -0.237711,0.0734 -0.111622,0.0227 -0.247014,0.0227 -0.349333,0 -0.535369,-0.1571 -0.186035,-0.1571 -0.186035,-0.44752 0,-0.28732 0.1757,-0.45475 0.176734,-0.16847 0.483692,-0.16847 0.283187,0 0.425814,0.14366 0.142628,0.14263 0.142628,0.41135 z m -0.370004,-0.21807 q -0.0031,-0.11679 -0.05788,-0.1757 -0.05478,-0.0589 -0.170532,-0.0589 -0.107488,0 -0.176734,0.0558 -0.06925,0.0558 -0.07751,0.1788 z m 1.473814,-0.0765 h -0.03307 q -0.02377,-0.008 -0.07648,-0.0124 -0.05271,-0.004 -0.08785,-0.004 -0.07958,0 -0.14056,0.0103 -0.06098,0.0103 -0.131259,0.0351 v 0.77721 h -0.372071 v -1.16065 h 0.372071 v 0.17053 q 0.12299,-0.10542 0.213941,-0.13953 0.09095,-0.0351 0.167432,-0.0351 0.01964,0 0.04444,0.001 0.0248,0.001 0.04341,0.003 z m 1.353925,0.29455 h -0.851629 q 0.0083,0.13643 0.103353,0.20878 0.09612,0.0723 0.282154,0.0723 0.117822,0 0.22841,-0.0424 0.110587,-0.0424 0.174666,-0.0909 h 0.04134 v 0.29869 q -0.126091,0.0506 -0.237712,0.0734 -0.111622,0.0227 -0.247014,0.0227 -0.349333,0 -0.535369,-0.1571 -0.186035,-0.1571 -0.186035,-0.44752 0,-0.28732 0.1757,-0.45475 0.176734,-0.16847 0.483692,-0.16847 0.283187,0 0.425815,0.14366 0.142627,0.14263 0.142627,0.41135 z m -0.370004,-0.21807 q -0.0031,-0.11679 -0.05788,-0.1757 -0.05478,-0.0589 -0.170532,-0.0589 -0.107487,0 -0.176734,0.0558 -0.06925,0.0558 -0.07751,0.1788 z m 1.819013,0.14986 q 0,0.28629 -0.167432,0.45165 -0.166398,0.16434 -0.468189,0.16434 -0.301791,0 -0.469223,-0.16434 -0.166398,-0.16536 -0.166398,-0.45165 0,-0.28835 0.167432,-0.45268 0.168465,-0.16434 0.468189,-0.16434 0.303858,0 0.469223,0.16537 0.166398,0.16536 0.166398,0.45165 z m -0.457854,0.28216 q 0.03617,-0.0444 0.05374,-0.10646 0.0186,-0.063 0.0186,-0.17363 0,-0.10232 -0.0186,-0.17157 -0.0186,-0.0692 -0.05168,-0.11058 -0.03307,-0.0424 -0.07958,-0.0599 -0.04651,-0.0176 -0.100252,-0.0176 -0.05374,0 -0.09612,0.0145 -0.04134,0.0145 -0.07958,0.0579 -0.03411,0.0403 -0.05478,0.11059 -0.01964,0.0703 -0.01964,0.17673 0,0.0951 0.01757,0.16536 0.01757,0.0692 0.05168,0.11162 0.03307,0.0403 0.07855,0.0589 0.04651,0.0186 0.10542,0.0186 0.05064,0 0.09612,-0.0165 0.04651,-0.0176 0.07855,-0.0579 z"
         id="path11" />
      <path
         d="m 43.580984,172.33781 q 0,0.22737 -0.19327,0.37 -0.192237,0.14159 -0.522967,0.14159 -0.191203,0 -0.33383,-0.0331 -0.141593,-0.0341 -0.265617,-0.0858 v -0.36897 h 0.04341 q 0.12299,0.0982 0.274919,0.15089 0.152963,0.0527 0.293523,0.0527 0.03617,0 0.09508,-0.006 0.05891,-0.006 0.09612,-0.0207 0.04547,-0.0186 0.07441,-0.0465 0.02997,-0.0279 0.02997,-0.0827 0,-0.0506 -0.04341,-0.0868 -0.04237,-0.0372 -0.125057,-0.0568 -0.08682,-0.0207 -0.183968,-0.0382 -0.09612,-0.0186 -0.180868,-0.0465 -0.194304,-0.063 -0.280087,-0.17053 -0.08475,-0.10852 -0.08475,-0.26872 0,-0.21497 0.192236,-0.35037 0.19327,-0.13642 0.496095,-0.13642 0.151929,0 0.299724,0.03 0.148828,0.0289 0.257349,0.0734 v 0.3545 h -0.04237 q -0.09302,-0.0744 -0.22841,-0.12402 -0.134359,-0.0507 -0.274919,-0.0507 -0.04961,0 -0.09922,0.007 -0.04858,0.006 -0.09405,0.0248 -0.04031,0.0155 -0.06925,0.0476 -0.02894,0.031 -0.02894,0.0713 0,0.061 0.04651,0.0941 0.04651,0.032 0.1757,0.0589 0.08475,0.0176 0.162264,0.0341 0.07855,0.0165 0.168466,0.0455 0.176733,0.0579 0.260449,0.15813 0.08475,0.0992 0.08475,0.25839 z m 2.1022,-0.67696 -0.359668,1.16065 h -0.394809 l -0.236678,-0.78238 -0.232544,0.78238 h -0.399977 l -0.356568,-1.16065 h 0.390675 l 0.198438,0.79995 0.248047,-0.79995 h 0.329696 l 0.235645,0.79995 0.195337,-0.79995 z m 0.59428,1.16065 h -0.37207 v -1.16065 h 0.37207 z m 0.01034,-1.32602 h -0.392742 v -0.28215 H 46.2878 Z m 1.083139,1.31568 q -0.05994,0.0155 -0.127124,0.0238 -0.06718,0.009 -0.164331,0.009 -0.217041,0 -0.323495,-0.0879 -0.10542,-0.0879 -0.10542,-0.30076 v -0.5426 h -0.152963 v -0.25218 h 0.152963 v -0.33177 h 0.372071 v 0.33177 h 0.348299 v 0.25218 H 47.02264 v 0.41134 q 0,0.061 0.001,0.10646 0.001,0.0455 0.01654,0.0816 0.01447,0.0362 0.05064,0.0579 0.03721,0.0207 0.107487,0.0207 0.02894,0 0.07545,-0.0124 0.04754,-0.0124 0.06614,-0.0227 h 0.03101 z m 0.826824,0.0413 q -0.151929,0 -0.278019,-0.0362 -0.125057,-0.0362 -0.218075,-0.11162 -0.09198,-0.0755 -0.142627,-0.19017 -0.05064,-0.11472 -0.05064,-0.26872 0,-0.16226 0.05374,-0.28008 0.05478,-0.11783 0.151929,-0.19534 0.09405,-0.0734 0.217042,-0.10749 0.12299,-0.0341 0.255282,-0.0341 0.118855,0 0.219108,0.0258 0.100252,0.0258 0.187069,0.0672 v 0.3173 h -0.05271 q -0.0217,-0.0186 -0.05271,-0.0434 -0.02997,-0.0248 -0.07441,-0.0486 -0.04237,-0.0227 -0.09302,-0.0372 -0.05064,-0.0155 -0.117823,-0.0155 -0.148828,0 -0.229443,0.0951 -0.07958,0.0941 -0.07958,0.25631 0,0.16744 0.08165,0.25425 0.08268,0.0868 0.233578,0.0868 0.07028,0 0.12609,-0.0155 0.05684,-0.0165 0.09405,-0.0383 0.03514,-0.0207 0.06201,-0.0434 0.02687,-0.0227 0.04961,-0.0445 h 0.05271 v 0.3173 q -0.08785,0.0413 -0.183968,0.0651 -0.09508,0.0248 -0.210841,0.0248 z m 1.806612,-0.031 h -0.374138 v -0.57568 q 0,-0.0703 -0.0072,-0.13952 -0.0072,-0.0703 -0.02481,-0.10336 -0.02067,-0.0382 -0.06098,-0.0558 -0.03927,-0.0176 -0.110588,-0.0176 -0.05064,0 -0.103353,0.0165 -0.05168,0.0165 -0.112655,0.0527 v 0.82269 h -0.372071 v -1.60817 h 0.372071 v 0.57567 q 0.09922,-0.0775 0.19017,-0.11885 0.09198,-0.0413 0.203605,-0.0413 0.188103,0 0.293523,0.10955 0.106454,0.10955 0.106454,0.32763 z"
         id="path12" />
    </g>
  </g>
</svg>
