<?xml version="1.0" encoding="UTF-8" standalone="no"?>
<!-- Created with Inkscape (http://www.inkscape.org/) -->

<svg
   width="60"
   height="380"
   viewBox="0 0 15.875 100.54166"
   version="1.1"
   id="svg12553"
   inkscape:version="1.3.2 (091e20e, 2023-11-25)"
   sodipodi:docname="Timer.svg"
   xmlns:inkscape="http://www.inkscape.org/namespaces/inkscape"
   xmlns:sodipodi="http://sodipodi.sourceforge.net/DTD/sodipodi-0.dtd"
   xmlns="http://www.w3.org/2000/svg"
   xmlns:svg="http://www.w3.org/2000/svg"
   xmlns:rdf="http://www.w3.org/1999/02/22-rdf-syntax-ns#"
   xmlns:cc="http://creativecommons.org/ns#"
   xmlns:dc="http://purl.org/dc/elements/1.1/">
  <defs
     id="defs12547" />
  <sodipodi:namedview
     id="base"
     pagecolor="#ffffff"
     bordercolor="#666666"
     borderopacity="1.0"
     inkscape:pageopacity="0.0"
     inkscape:pageshadow="2"
     inkscape:zoom="1.979899"
     inkscape:cx="1.5152288"
     inkscape:cy="201.77797"
     inkscape:document-units="px"
     inkscape:current-layer="layer1"
     showgrid="true"
     fit-margin-top="0"
     fit-margin-left="0"
     fit-margin-right="0"
     fit-margin-bottom="0"
     units="px"
     inkscape:window-width="1424"
     inkscape:window-height="962"
     inkscape:window-x="102"
     inkscape:window-y="113"
     inkscape:window-maximized="0"
     inkscape:snap-global="false"
     inkscape:showpageshadow="2"
     inkscape:pagecheckerboard="0"
     inkscape:deskcolor="#d1d1d1">
    <inkscape:grid
       type="xygrid"
       id="grid12870"
       originx="-20.372917"
       originy="84.666661"
       spacingy="1"
       spacingx="1"
       units="px"
       visible="true" />
  </sodipodi:namedview>
  <metadata
     id="metadata12550">
    <rdf:RDF>
      <cc:Work
         rdf:about="">
        <dc:format>image/svg+xml</dc:format>
        <dc:type
           rdf:resource="http://purl.org/dc/dcmitype/StillImage" />
      </cc:Work>
    </rdf:RDF>
  </metadata>
  <g
     inkscape:label="Layer 1"
     inkscape:groupmode="layer"
     id="layer1"
     transform="translate(-26.543497,-161.30655)">
    <path
       inkscape:connector-curvature="0"
       id="path33453"
       d="m 26.543497,161.45211 h 15.874999 v 100.3961 H 26.543497 Z m 0,0"
       style="fill:#333333;fill-opacity:1;fill-rule:nonzero;stroke:none;stroke-width:0.11770677" />
    <g
       transform="matrix(0.37757778,0,0,0.37757778,21.988293,156.36556)"
       id="layer1-8"
       inkscape:label="Layer 1">
      <rect
         y="256.12662"
         x="29.52006"
         height="1.6536458"
         width="7.2760415"
         id="rect823"
         style="fill:#ffffff;fill-opacity:1;stroke:none;stroke-width:0.71059781;stroke-miterlimit:4;stroke-dasharray:none;stroke-opacity:1" />
      <rect
         y="256.57309"
         x="28.643627"
         height="0.51248246"
         width="9.0803432"
         id="rect821"
         style="fill:#ffffff;fill-opacity:1;stroke:none;stroke-width:0.17694761;stroke-miterlimit:4;stroke-dasharray:none;stroke-opacity:1" />
      <ellipse
         ry="5.8699069"
         rx="6.1973119"
         cy="250.78661"
         cx="33.068214"
         id="path817"
         style="fill:#ffffff;fill-opacity:1;stroke:none;stroke-width:0.29476252;stroke-miterlimit:4;stroke-dasharray:none;stroke-opacity:1" />
      <rect
         y="257.08557"
         x="28.265131"
         height="4.3030396"
         width="9.541522"
         id="rect819"
         style="fill:#ffffff;fill-opacity:1;stroke:none;stroke-width:0.23695372;stroke-miterlimit:4;stroke-dasharray:none;stroke-opacity:1" />
      <path
         style="fill:#54b6fc;stroke-width:0.43423772"
         d="m 28.040353,261.67777 c -0.05624,-0.1049 -0.09132,-1.05343 -0.09132,-2.46939 0,-2.62823 -0.06483,-2.41007 0.868669,-2.92327 0.298327,-0.16393 0.542417,-0.32331 0.542417,-0.35402 0,-0.0309 -0.162318,-0.16826 -0.360716,-0.30583 -1.028016,-0.71241 -2.013971,-2.17766 -2.338877,-3.47584 -0.201325,-0.80442 -0.134174,-2.39054 0.13451,-3.17721 1.033244,-3.02511 4.386038,-4.85502 7.661927,-4.18175 2.136444,0.4391 3.832748,1.7715 4.690824,3.6846 0.361925,0.8069 0.484002,1.41362 0.481552,2.39329 -0.0043,1.76252 -0.804317,3.40089 -2.221636,4.55038 -0.254647,0.20641 -0.463011,0.4065 -0.463011,0.44439 0,0.038 0.188503,0.17638 0.418915,0.30774 0.88078,0.5022 0.815782,0.26078 0.815782,3.02947 0,1.77735 -0.02862,2.465 -0.105831,2.54221 -0.07977,0.0796 -1.316324,0.10568 -5.023888,0.10568 -4.772077,0 -4.920765,-0.006 -5.009351,-0.17069 z m 4.778272,-1.34136 c 0.02029,-0.72066 0.0537,-0.91258 0.172084,-0.98706 0.106484,-0.067 0.185415,-0.0605 0.286623,0.0243 0.110188,0.0915 0.139673,0.2998 0.139673,0.98705 v 0.87111 h 2.031202 c 1.725502,0 2.038854,-0.0189 2.082046,-0.13248 0.118689,-0.30933 -0.0843,-0.54865 -1.048716,-1.23644 -0.806681,-0.57531 -0.992,-0.74828 -0.992,-0.92603 0,-0.17285 0.05069,-0.22425 0.242529,-0.24644 l 0.242526,-0.0279 v -0.72694 c 0,-0.82266 0.11329,-1.0851 0.425635,-0.98597 0.182308,0.0579 0.191777,0.11143 0.193075,1.09112 6.9e-4,0.56673 0.03051,1.07216 0.06615,1.12322 0.107317,0.15365 0.691445,0.5686 0.80071,0.5686 0.07253,0 0.101903,-0.37768 0.101903,-1.30922 0,-1.48548 0.04525,-1.38286 -0.823095,-1.86798 l -0.514419,-0.28745 -0.896236,0.29918 c -0.869904,0.29041 -0.937695,0.2992 -2.307746,0.29891 -1.355532,-2.1e-4 -1.441911,-0.0113 -2.177833,-0.27426 l -0.766317,-0.27401 -0.710913,0.40097 -0.710915,0.40096 v 1.35053 c 0,0.7428 0.02272,1.35058 0.05046,1.35058 0.02775,0 0.226187,-0.10309 0.440962,-0.22887 l 0.390524,-0.22887 0.0014,-0.89557 c 0.0016,-1.14751 0.206306,-1.60144 0.561721,-1.24599 0.108544,0.1085 0.142513,0.31853 0.142513,0.88028 v 0.7378 l 0.290718,-0.0471 c 0.315025,-0.0511 0.543194,0.11558 0.458905,0.33517 -0.02597,0.0676 -0.562393,0.43193 -1.192126,0.80964 -1.113533,0.66789 -1.144968,0.69508 -1.144968,0.9907 v 0.30396 h 2.069441 2.069444 z m 2.265337,-4.35748 c 1.820054,-0.60937 3.301106,-2.14018 3.754405,-3.88051 0.141672,-0.5439 0.182494,-2.03256 0.06101,-2.22398 -0.0547,-0.0862 -0.514454,-0.10647 -1.993182,-0.0881 l -1.922097,0.0243 -0.285943,0.79373 c -0.250451,0.69526 -0.311823,0.79372 -0.494567,0.79372 -0.193669,0 -0.219614,-0.0593 -0.361764,-0.82692 -0.233437,-1.26061 -0.264438,-1.24093 -0.550459,0.34982 -0.250913,1.39568 -0.282965,1.49134 -0.499452,1.49134 -0.208819,0 -0.19843,0.0455 -0.591264,-2.59459 -0.179846,-1.20877 -0.366691,-2.21079 -0.415197,-2.22673 -0.04851,-0.0164 -0.346157,0.47702 -0.661443,1.09535 l -0.573255,1.12428 -1.649981,0.0244 -1.649981,0.0243 -0.05961,0.3176 c -0.100912,0.53789 0.02055,1.63287 0.25608,2.31038 0.480987,1.38307 1.462121,2.47313 2.838905,3.15409 1.070426,0.52942 1.68831,0.6568 2.998555,0.61816 0.870867,-0.027 1.189545,-0.0752 1.799239,-0.27931 z m -2.582339,-0.34598 c -0.501349,-0.14204 -0.612279,-0.23104 -0.568647,-0.45582 0.02803,-0.14447 0.130451,-0.16555 0.868148,-0.17909 0.460004,-0.008 0.975273,-0.0281 1.145044,-0.0441 0.276178,-0.0243 0.311494,-0.006 0.335474,0.20237 0.023,0.19722 -0.02543,0.25187 -0.329357,0.37355 -0.522805,0.20913 -0.965587,0.24078 -1.450662,0.1031 z m -1.6422,-2.07469 c -0.09701,-0.0972 -0.176384,-0.25567 -0.176384,-0.35282 0,-0.24453 0.308426,-0.52913 0.573253,-0.52913 0.264818,0 0.573252,0.28468 0.573252,0.52913 0,0.24455 -0.308429,0.52918 -0.573252,0.52918 -0.121275,0 -0.299857,-0.0793 -0.396869,-0.17636 z m 3.439517,-0.0882 c -0.232761,-0.23267 -0.222508,-0.40285 0.0401,-0.66546 0.243582,-0.24345 0.329798,-0.25996 0.605107,-0.11502 0.242042,0.12748 0.321863,0.24591 0.323575,0.48022 0.0031,0.43406 -0.63668,0.63239 -0.968767,0.30029 z m -1.151475,-4.27736 c 0.296559,-1.78581 0.575578,-1.83207 0.874871,-0.14501 0.09772,0.55084 0.197295,1.02113 0.221263,1.04511 0.08271,0.0828 0.212362,-0.0613 0.273139,-0.30344 0.117052,-0.46642 0.107419,-0.46436 2.176972,-0.46436 2.188984,0 2.146871,0.0162 1.845872,-0.66529 -0.655344,-1.4815 -2.160669,-2.71162 -3.887876,-3.17706 -0.773684,-0.20858 -2.314597,-0.21425 -3.086746,-0.0113 -1.862761,0.48917 -3.433992,1.84034 -4.06194,3.49292 l -0.172218,0.45328 1.47768,-0.0243 1.477684,-0.0244 0.705541,-1.38465 c 0.388047,-0.76156 0.755433,-1.43456 0.816413,-1.4955 0.244962,-0.24482 0.364055,0.12518 0.643002,1.99713 0.151683,1.01798 0.296644,1.88465 0.322123,1.92588 0.102882,0.16637 0.192723,-0.12627 0.374219,-1.21922 z"
         id="path4012-0"
         inkscape:connector-curvature="0" />
      <path
         style="fill:#a0a0a0;stroke-width:0.43423772"
         d="m 28.040353,261.67777 c -0.05624,-0.1049 -0.09132,-1.05343 -0.09132,-2.46939 0,-2.62823 -0.06483,-2.41007 0.868669,-2.92327 0.298327,-0.16393 0.542417,-0.32331 0.542417,-0.35402 0,-0.0309 -0.162318,-0.16826 -0.360716,-0.30583 -1.028016,-0.71241 -2.013971,-2.17766 -2.338877,-3.47584 -0.201325,-0.80442 -0.134174,-2.39054 0.13451,-3.17721 1.033244,-3.02511 4.386038,-4.85502 7.661927,-4.18175 2.136444,0.4391 3.832748,1.7715 4.690824,3.6846 0.361925,0.8069 0.484002,1.41362 0.481552,2.39329 -0.0043,1.76252 -0.804317,3.40089 -2.221636,4.55038 -0.254647,0.20641 -0.463011,0.4065 -0.463011,0.44439 0,0.038 0.188503,0.17638 0.418915,0.30774 0.88078,0.5022 0.815782,0.26078 0.815782,3.02947 0,1.77735 -0.02862,2.465 -0.105831,2.54221 -0.07977,0.0796 -1.316324,0.10568 -5.023888,0.10568 -4.772077,0 -4.920765,-0.006 -5.009351,-0.17069 z m 4.778272,-1.34136 c 0.02029,-0.72066 0.0537,-0.91258 0.172084,-0.98706 0.106484,-0.067 0.185415,-0.0605 0.286623,0.0243 0.110188,0.0915 0.139673,0.2998 0.139673,0.98705 v 0.87111 h 2.031202 c 1.725502,0 2.038854,-0.0189 2.082046,-0.13248 0.118689,-0.30933 -0.0843,-0.54865 -1.048716,-1.23644 -0.806681,-0.57531 -0.992,-0.74828 -0.992,-0.92603 0,-0.17285 0.05069,-0.22425 0.242529,-0.24644 l 0.242526,-0.0279 v -0.72694 c 0,-0.82266 0.11329,-1.0851 0.425635,-0.98597 0.182308,0.0579 0.191777,0.11143 0.193075,1.09112 6.9e-4,0.56673 0.03051,1.07216 0.06615,1.12322 0.107317,0.15365 0.691445,0.5686 0.80071,0.5686 0.07253,0 0.101903,-0.37768 0.101903,-1.30922 0,-1.48548 0.04525,-1.38286 -0.823095,-1.86798 l -0.514419,-0.28745 -0.896236,0.29918 c -0.869904,0.29041 -0.937695,0.2992 -2.307746,0.29891 -1.355532,-2.1e-4 -1.441911,-0.0113 -2.177833,-0.27426 l -0.766317,-0.27401 -0.710913,0.40097 -0.710915,0.40096 v 1.35053 c 0,0.7428 0.02272,1.35058 0.05046,1.35058 0.02775,0 0.226187,-0.10309 0.440962,-0.22887 l 0.390524,-0.22887 0.0014,-0.89557 c 0.0016,-1.14751 0.206306,-1.60144 0.561721,-1.24599 0.108544,0.1085 0.142513,0.31853 0.142513,0.88028 v 0.7378 l 0.290718,-0.0471 c 0.315025,-0.0511 0.543194,0.11558 0.458905,0.33517 -0.02597,0.0676 -0.562393,0.43193 -1.192126,0.80964 -1.113533,0.66789 -1.144968,0.69508 -1.144968,0.9907 v 0.30396 h 2.069441 2.069444 z m 2.265337,-4.35748 c 1.403562,-0.46993 2.640938,-1.50058 3.294283,-2.74387 0.429067,-0.81653 0.595175,-1.49004 0.593708,-2.40729 -0.002,-1.2675 0.205601,-1.15 -2.032309,-1.15 -1.442955,0 -1.942613,0.0275 -1.996101,0.11041 -0.03924,0.0606 -0.191398,0.42737 -0.338104,0.81498 -0.382438,1.0104 -0.497129,0.9789 -0.708436,-0.1945 -0.249425,-1.38497 -0.369803,-1.31205 -0.674781,0.40874 -0.236279,1.33315 -0.338408,1.62908 -0.50309,1.45776 -0.04428,-0.0461 -0.22394,-1.07598 -0.399194,-2.28859 -0.378048,-2.61568 -0.375281,-2.60172 -0.515638,-2.60172 -0.06054,0 -0.377093,0.53579 -0.703448,1.19062 l -0.593372,1.1906 h -1.626578 -1.626579 l -0.06131,0.40891 c -0.234007,1.5605 0.483321,3.42764 1.761718,4.58559 0.632883,0.57328 1.868907,1.21483 2.698432,1.40062 0.933964,0.20911 2.512332,0.12546 3.430809,-0.18205 z m -2.582339,-0.34598 c -0.501349,-0.14204 -0.612279,-0.23104 -0.568647,-0.45582 0.02803,-0.14447 0.130451,-0.16555 0.868148,-0.17909 0.460004,-0.008 0.975273,-0.0281 1.145044,-0.0441 0.276178,-0.0243 0.311494,-0.006 0.335474,0.20237 0.023,0.19722 -0.02543,0.25187 -0.329357,0.37355 -0.522805,0.20913 -0.965587,0.24078 -1.450662,0.1031 z m -1.6422,-2.07469 c -0.09701,-0.0972 -0.176384,-0.25567 -0.176384,-0.35282 0,-0.24453 0.308426,-0.52913 0.573253,-0.52913 0.264818,0 0.573252,0.28468 0.573252,0.52913 0,0.24455 -0.308429,0.52918 -0.573252,0.52918 -0.121275,0 -0.299857,-0.0793 -0.396869,-0.17636 z m 3.439517,-0.0882 c -0.232761,-0.23267 -0.222508,-0.40285 0.0401,-0.66546 0.243582,-0.24345 0.329798,-0.25996 0.605107,-0.11502 0.242042,0.12748 0.321863,0.24591 0.323575,0.48022 0.0031,0.43406 -0.63668,0.63239 -0.968767,0.30029 z m -1.097809,-4.10189 c 0.211607,-1.21013 0.333943,-1.55258 0.494567,-1.38443 0.03281,0.0344 0.152225,0.57839 0.265306,1.20896 0.232869,1.29834 0.343523,1.42064 0.618496,0.68352 l 0.172705,-0.46302 h 1.972971 c 1.085132,0 1.99242,-0.0315 2.016195,-0.0698 0.08023,-0.12991 -0.357483,-1.05886 -0.773608,-1.642 -0.728041,-1.02028 -1.981677,-1.859 -3.316077,-2.21859 -0.773686,-0.20857 -2.314601,-0.21426 -3.086747,-0.0113 -1.084749,0.28486 -1.999152,0.80872 -2.786328,1.59624 -0.677355,0.67767 -1.19903,1.50881 -1.403089,2.23545 l -0.05574,0.19856 1.439077,-9.8e-4 c 0.791494,-6.2e-4 1.483847,-0.0306 1.538565,-0.0662 0.05473,-0.0355 0.422055,-0.70973 0.816304,-1.49793 0.672478,-1.34451 0.811339,-1.54707 0.929474,-1.35595 0.02624,0.0426 0.169945,0.92549 0.319337,1.9623 0.278277,1.93132 0.382411,2.3719 0.526552,2.22775 0.04457,-0.0447 0.184959,-0.67541 0.312001,-1.40192 z"
         id="path4010-4"
         inkscape:connector-curvature="0" />
      <path
         style="fill:#179cfd;stroke-width:0.43423772"
         d="m 28.084301,261.62139 c -0.09334,-0.2432 -0.06068,-4.53422 0.03585,-4.71459 0.04932,-0.0922 0.366818,-0.32942 0.705541,-0.52725 0.338727,-0.19778 0.615865,-0.39635 0.615865,-0.44114 0,-0.0449 -0.225402,-0.25131 -0.5009,-0.45914 -1.007366,-0.75955 -1.863496,-2.05429 -2.182561,-3.30077 -0.176274,-0.68859 -0.179006,-2.04001 -0.0054,-2.72476 0.07324,-0.28909 0.298305,-0.86296 0.500144,-1.27526 0.293281,-0.59912 0.51896,-0.90166 1.123813,-1.50667 0.628099,-0.62825 0.899287,-0.82698 1.594434,-1.16847 1.206772,-0.59277 1.759323,-0.7188 3.130615,-0.71416 0.806735,0.002 1.311968,0.0495 1.704825,0.15746 3.200698,0.88036 5.194794,3.81447 4.65392,6.84772 -0.248316,1.39251 -1.241594,2.98286 -2.337264,3.74216 -0.198811,0.13767 -0.36148,0.28303 -0.36148,0.3228 0,0.0398 0.277437,0.23428 0.616524,0.43238 0.393273,0.22968 0.633784,0.4307 0.664178,0.55509 0.02625,0.10714 0.03649,1.24673 0.02299,2.53213 l -0.02488,2.33712 -4.951132,0.0216 c -4.457619,0.0215 -4.956494,0.008 -5.004941,-0.11734 z m 4.796794,-1.27231 c 0.04062,-0.85254 0.0581,-0.92604 0.220478,-0.92604 0.162399,0 0.179874,0.0735 0.22048,0.92604 l 0.0441,0.92602 h 2.11542 c 1.979416,0 2.117418,-0.0113 2.146485,-0.16124 0.07415,-0.38501 -0.08786,-0.58193 -1.039039,-1.26279 -0.5321,-0.38086 -0.988888,-0.74572 -1.015085,-0.81071 -0.07133,-0.17694 0.02596,-0.27867 0.266821,-0.27867 0.212067,0 0.215285,-0.0113 0.215285,-0.78294 0,-0.57789 0.03363,-0.81084 0.12842,-0.88952 0.247505,-0.20531 0.312538,-0.006 0.312538,0.96492 0,0.5267 0.02407,1.0201 0.05321,1.09639 0.07569,0.19722 0.895628,0.78122 1.003392,0.71461 0.137026,-0.0848 0.118488,-2.70962 -0.02028,-2.88339 -0.06062,-0.0761 -0.366131,-0.28527 -0.678882,-0.46529 -0.638192,-0.36731 -0.664782,-0.36715 -1.680277,0.0113 -0.620191,0.23022 -0.749452,0.24593 -2.072528,0.24835 -1.367516,0.002 -1.436372,-0.006 -2.229991,-0.28332 l -0.818897,-0.286 -0.707163,0.41086 c -0.388942,0.22589 -0.744718,0.48108 -0.790616,0.56686 -0.04592,0.0857 -0.08344,0.71537 -0.08344,1.39919 0,0.99797 0.02488,1.25279 0.126404,1.29174 0.157447,0.0603 0.905595,-0.36921 1.022127,-0.58694 0.04739,-0.0885 0.0862,-0.57804 0.0862,-1.08767 0,-0.95796 0.0901,-1.20675 0.322052,-0.88956 0.07719,0.10547 0.118894,0.4201 0.118894,0.89644 v 0.73386 l 0.360543,-0.0576 c 0.341277,-0.0546 0.358954,-0.0466 0.330725,0.14961 -0.02299,0.16068 -0.280994,0.35508 -1.148549,0.86561 -1.145685,0.67416 -1.30229,0.84178 -1.171412,1.25421 0.05178,0.16311 0.145382,0.16933 2.186334,0.14688 l 2.132238,-0.0243 z m 2.160723,-4.26226 c 1.769875,-0.57963 3.167996,-1.90262 3.76078,-3.55863 0.192048,-0.53652 0.328288,-2.18171 0.217288,-2.62393 l -0.05685,-0.22641 h -1.977453 c -1.485114,0 -1.995217,0.0273 -2.0488,0.11041 -0.03924,0.0605 -0.191399,0.42736 -0.338105,0.81497 -0.382437,1.0104 -0.497129,0.97892 -0.708437,-0.1945 -0.249424,-1.38497 -0.369803,-1.31205 -0.674782,0.40873 -0.236276,1.33315 -0.338406,1.62909 -0.503087,1.45777 -0.04428,-0.046 -0.223941,-1.07597 -0.399196,-2.28861 -0.378048,-2.61567 -0.375282,-2.6017 -0.515636,-2.6017 -0.06054,0 -0.377094,0.53578 -0.703448,1.19062 l -0.593373,1.19063 h -1.628884 c -1.902339,0 -1.81147,-0.0499 -1.81147,0.99426 0,0.80431 0.255081,1.83651 0.632916,2.56111 0.424332,0.81377 1.610253,1.95985 2.460638,2.37796 1.097382,0.53952 1.794389,0.68665 3.07994,0.64999 0.892825,-0.0244 1.23655,-0.0755 1.807954,-0.26241 z m -2.425303,-0.51429 c -0.478805,-0.10703 -0.703657,-0.2876 -0.549872,-0.44139 0.07642,-0.0766 0.231706,-0.0808 0.585546,-0.0162 0.356597,0.0647 0.599579,0.0571 0.936494,-0.0291 0.48231,-0.12329 0.615302,-0.0987 0.615302,0.11422 0,0.28859 -0.958357,0.51378 -1.58747,0.37302 z m -1.706091,-2.08738 c -0.189693,-0.20965 -0.184796,-0.3936 0.01543,-0.57471 0.232894,-0.21073 0.518062,-0.17963 0.684657,0.0743 0.133834,0.20423 0.133834,0.23669 0,0.44096 -0.171756,0.26213 -0.491832,0.2892 -0.699982,0.0593 z m 3.421615,-0.14148 c -0.271481,-0.41435 0.198702,-0.82027 0.625904,-0.54036 0.247452,0.16205 0.279238,0.41467 0.07757,0.61634 -0.207737,0.20776 -0.541169,0.17179 -0.703478,-0.0761 z m -1.137669,-3.97553 c 0.211606,-1.21013 0.333942,-1.55259 0.494569,-1.38441 0.03282,0.0344 0.152224,0.57837 0.265305,1.20895 0.23276,1.29772 0.34355,1.42057 0.617887,0.68512 l 0.172107,-0.46134 2.000835,-0.0243 c 2.352706,-0.0279 2.281076,0.0162 1.723959,-1.05794 -0.429635,-0.82824 -1.435244,-1.8525 -2.279603,-2.32184 -3.036046,-1.6875 -6.967182,-0.61741 -8.490501,2.31125 -0.205682,0.39548 -0.373989,0.82207 -0.373989,0.94808 v 0.22911 l 1.433135,-9.7e-4 c 0.788221,-6e-4 1.477901,-0.0306 1.53262,-0.0663 0.05473,-0.0355 0.422054,-0.7097 0.816303,-1.49792 0.672479,-1.34449 0.811342,-1.54706 0.929474,-1.35594 0.02625,0.0425 0.169945,0.9255 0.319337,1.96229 0.278278,1.93132 0.382411,2.37191 0.526555,2.22776 0.04455,-0.0447 0.184956,-0.67543 0.311999,-1.40192 z"
         id="path4008-5"
         inkscape:connector-curvature="0" />
      <path
         style="fill:#050505;fill-opacity:1;stroke-width:0.43423772"
         d="m 28.084301,261.62139 c -0.09334,-0.2432 -0.06068,-4.53422 0.03585,-4.71459 0.04932,-0.0922 0.366818,-0.32942 0.705541,-0.52725 0.338727,-0.19778 0.615865,-0.39635 0.615865,-0.44114 0,-0.0449 -0.225402,-0.25131 -0.5009,-0.45914 -1.007366,-0.75955 -1.863496,-2.05429 -2.182561,-3.30077 -0.176274,-0.68859 -0.179006,-2.04001 -0.0054,-2.72476 0.07324,-0.28909 0.298305,-0.86296 0.500144,-1.27526 0.293281,-0.59912 0.51896,-0.90166 1.123813,-1.50667 0.628099,-0.62825 0.899287,-0.82698 1.594434,-1.16847 1.206772,-0.59277 1.759323,-0.7188 3.130615,-0.71416 0.806735,0.002 1.311968,0.0495 1.704825,0.15746 3.200698,0.88036 5.194794,3.81447 4.65392,6.84772 -0.248316,1.39251 -1.241594,2.98286 -2.337264,3.74216 -0.198811,0.13767 -0.36148,0.28303 -0.36148,0.3228 0,0.0398 0.277437,0.23428 0.616524,0.43238 0.393273,0.22968 0.633784,0.4307 0.664178,0.55509 0.02625,0.10714 0.03649,1.24673 0.02299,2.53213 l -0.02488,2.33712 -4.951132,0.0216 c -4.457619,0.0215 -4.956494,0.008 -5.004941,-0.11734 z m 4.796794,-1.27231 c 0.04062,-0.85254 0.0581,-0.92604 0.220478,-0.92604 0.162399,0 0.179874,0.0735 0.22048,0.92604 l 0.0441,0.92602 h 2.11542 c 1.979416,0 2.117418,-0.0113 2.146485,-0.16124 0.07415,-0.38501 -0.08786,-0.58193 -1.039039,-1.26279 -0.5321,-0.38086 -0.988888,-0.74572 -1.015085,-0.81071 -0.07133,-0.17694 0.02596,-0.27867 0.266821,-0.27867 0.212067,0 0.215285,-0.0113 0.215285,-0.78294 0,-0.57789 0.03363,-0.81084 0.12842,-0.88952 0.247505,-0.20531 0.312538,-0.006 0.312538,0.96492 0,0.5267 0.02407,1.0201 0.05321,1.09639 0.07569,0.19722 0.895628,0.78122 1.003392,0.71461 0.137026,-0.0848 0.118488,-2.70962 -0.02028,-2.88339 -0.06062,-0.0761 -0.366131,-0.28527 -0.678882,-0.46529 -0.638192,-0.36731 -0.664782,-0.36715 -1.680277,0.0113 -0.620191,0.23022 -0.749452,0.24593 -2.072528,0.24835 -1.367516,0.002 -1.436372,-0.006 -2.229991,-0.28332 l -0.818897,-0.286 -0.707163,0.41086 c -0.388942,0.22589 -0.744718,0.48108 -0.790616,0.56686 -0.04592,0.0857 -0.08344,0.71537 -0.08344,1.39919 0,0.99797 0.02488,1.25279 0.126404,1.29174 0.157447,0.0603 0.905595,-0.36921 1.022127,-0.58694 0.04739,-0.0885 0.0862,-0.57804 0.0862,-1.08767 0,-0.95796 0.0901,-1.20675 0.322052,-0.88956 0.07719,0.10547 0.118894,0.4201 0.118894,0.89644 v 0.73386 l 0.360543,-0.0576 c 0.341277,-0.0546 0.358954,-0.0466 0.330725,0.14961 -0.02299,0.16068 -0.280994,0.35508 -1.148549,0.86561 -1.145685,0.67416 -1.30229,0.84178 -1.171412,1.25421 0.05178,0.16311 0.145382,0.16933 2.186334,0.14688 l 2.132238,-0.0243 z m 2.160723,-4.26226 c 1.798336,-0.58895 3.232202,-1.974 3.804655,-3.6751 0.213148,-0.63339 0.221914,-2.36663 0.01569,-3.09953 -0.356769,-1.26779 -1.453375,-2.62144 -2.672695,-3.2992 -2.477562,-1.37709 -5.596645,-0.9588 -7.541693,1.01144 -1.633552,1.65471 -2.027872,4.11443 -0.994473,6.2034 0.44418,0.89788 1.576714,2.0172 2.500652,2.47147 1.097382,0.53953 1.794387,0.68664 3.079941,0.64999 0.892823,-0.0243 1.236549,-0.0756 1.807951,-0.26241 z m -2.425303,-0.51429 c -0.478805,-0.10703 -0.703657,-0.2876 -0.549872,-0.44139 0.07642,-0.0766 0.231706,-0.0808 0.585546,-0.0162 0.356597,0.0647 0.599579,0.0571 0.936494,-0.0291 0.48231,-0.12329 0.615302,-0.0987 0.615302,0.11422 0,0.28859 -0.958357,0.51378 -1.58747,0.37302 z m -1.706091,-2.08738 c -0.189693,-0.20965 -0.184796,-0.3936 0.01543,-0.57471 0.232894,-0.21073 0.518062,-0.17963 0.684657,0.0743 0.133834,0.20423 0.133834,0.23669 0,0.44096 -0.171756,0.26213 -0.491832,0.2892 -0.699982,0.0593 z m 3.421615,-0.14148 c -0.271481,-0.41435 0.198702,-0.82027 0.625904,-0.54036 0.247452,0.16205 0.279238,0.41467 0.07757,0.61634 -0.207737,0.20776 -0.541169,0.17179 -0.703478,-0.0761 z"
         id="path4006-7"
         inkscape:connector-curvature="0" />
    </g>
    <path
       style="font-weight:bold;font-size:3.175px;-inkscape-font-specification:'sans-serif Bold';fill:#1996fc;stroke-width:0.265"
       d="m 31.494175,166.15372 h -0.720886 v 1.8619 h -0.595312 v -1.8619 H 29.45709 v -0.44648 h 2.037085 z m 0.885217,1.8619 h -0.558105 v -1.74097 h 0.558105 z m 0.0155,-1.98902 h -0.58911 v -0.42323 h 0.58911 z m 2.213819,0.75499 v 1.23403 h -0.561206 v -0.86971 q 0,-0.12712 -0.0062,-0.21549 -0.0062,-0.0899 -0.03411,-0.14573 -0.0279,-0.0558 -0.08527,-0.0806 -0.05581,-0.0264 -0.15813,-0.0264 -0.08217,0 -0.15968,0.0341 -0.07751,0.0326 -0.139525,0.0698 v 1.23403 h -0.558107 v -1.74097 h 0.558107 v 0.19223 q 0.144177,-0.11317 0.275951,-0.17673 0.131775,-0.0636 0.291455,-0.0636 0.172083,0 0.303857,0.0775 0.131775,0.076 0.206189,0.22479 0.167432,-0.14107 0.325562,-0.22169 0.15813,-0.0806 0.310058,-0.0806 0.282154,0 0.427881,0.16898 0.147278,0.16898 0.147278,0.48679 v 1.13326 h -0.561206 v -0.86971 q 0,-0.12867 -0.0062,-0.21704 -0.0047,-0.0884 -0.03256,-0.14418 -0.02636,-0.0558 -0.08372,-0.0806 -0.05736,-0.0264 -0.161232,-0.0264 -0.06976,0 -0.136426,0.0248 -0.06666,0.0232 -0.162779,0.0791 z m 3.371887,0.46664 h -1.277441 q 0.0124,0.20464 0.155029,0.31316 0.144177,0.10852 0.42323,0.10852 0.176733,0 0.342615,-0.0636 0.165881,-0.0636 0.261999,-0.13643 h 0.06201 v 0.44804 q -0.189136,0.076 -0.356567,0.11007 -0.167431,0.0341 -0.37052,0.0341 -0.523999,0 -0.803052,-0.23564 -0.279052,-0.23565 -0.279052,-0.67128 0,-0.43098 0.26355,-0.68213 0.265099,-0.25269 0.725537,-0.25269 0.42478,0 0.638721,0.21549 0.21394,0.21394 0.21394,0.61701 z m -0.555005,-0.32711 q -0.0047,-0.17518 -0.08682,-0.26355 -0.08217,-0.0884 -0.255798,-0.0884 -0.161231,0 -0.2651,0.0837 -0.10387,0.0837 -0.116272,0.2682 z m 2.210718,-0.11472 h -0.04961 q -0.03566,-0.0124 -0.114722,-0.0186 -0.07906,-0.006 -0.131775,-0.006 -0.119372,0 -0.21084,0.0155 -0.09147,0.0155 -0.196886,0.0527 v 1.16582 h -0.558105 v -1.74097 h 0.558105 v 0.25579 q 0.184485,-0.15813 0.320911,-0.20929 0.136426,-0.0527 0.251147,-0.0527 0.02946,0 0.06666,0.002 0.03721,0.002 0.06511,0.005 z"
       id="text1"
       aria-label="Timer" />
    <g
       id="text2"
       style="font-weight:bold;font-size:3.175px;-inkscape-font-specification:'sans-serif Bold';fill:#1996fc;stroke-width:0.264999"
       aria-label="Start&#10;Stop"
       transform="translate(-0.0468285,-11.823653)">
      <path
         style="stroke-width:0.265"
         d="m 32.262664,208.6828 q 0,0.34107 -0.289905,0.55501 -0.288354,0.21239 -0.784448,0.21239 -0.286804,0 -0.500745,-0.0496 -0.21239,-0.0512 -0.398425,-0.12868 v -0.55345 h 0.06511 q 0.184485,0.14728 0.412378,0.22634 0.229444,0.0791 0.440284,0.0791 0.05426,0 0.142626,-0.009 0.08837,-0.009 0.144178,-0.031 0.06821,-0.0279 0.111621,-0.0698 0.04496,-0.0419 0.04496,-0.12403 0,-0.076 -0.06511,-0.13022 -0.06356,-0.0558 -0.187585,-0.0853 -0.130225,-0.031 -0.275953,-0.0574 -0.144177,-0.0279 -0.271301,-0.0698 -0.291455,-0.0946 -0.420129,-0.2558 -0.127124,-0.16278 -0.127124,-0.40308 0,-0.32246 0.288354,-0.52554 0.289905,-0.20464 0.744141,-0.20464 0.227893,0 0.449585,0.045 0.223242,0.0434 0.386023,0.11008 v 0.53175 h -0.06356 q -0.139527,-0.11162 -0.342615,-0.18604 -0.201538,-0.076 -0.412378,-0.076 -0.07441,0 -0.148828,0.0109 -0.07286,0.009 -0.141077,0.0372 -0.06046,0.0233 -0.103869,0.0713 -0.04341,0.0465 -0.04341,0.10697 0,0.0915 0.06976,0.14108 0.06976,0.0481 0.263549,0.0884 0.127124,0.0264 0.243396,0.0512 0.117823,0.0248 0.252698,0.0682 0.2651,0.0868 0.390674,0.23719 0.127124,0.14883 0.127124,0.38757 z m 1.489832,0.71004 q -0.08992,0.0232 -0.190686,0.0357 -0.10077,0.014 -0.246497,0.014 -0.325562,0 -0.485242,-0.13178 -0.15813,-0.13177 -0.15813,-0.45113 v -0.81391 h -0.229443 v -0.37827 h 0.229443 v -0.49764 h 0.558106 v 0.49764 h 0.522449 v 0.37827 h -0.522449 v 0.61702 q 0,0.0915 0.0016,0.15968 0.0016,0.0682 0.02481,0.12247 0.0217,0.0543 0.07596,0.0868 0.05581,0.031 0.161231,0.031 0.04341,0 0.113171,-0.0186 0.07131,-0.0186 0.09922,-0.0341 h 0.04651 z m 1.387512,-0.43874 v -0.36276 q -0.113172,0.009 -0.244947,0.0264 -0.131774,0.0155 -0.199987,0.0372 -0.08372,0.0264 -0.128675,0.0775 -0.04341,0.0496 -0.04341,0.13178 0,0.0543 0.0093,0.0884 0.0093,0.0341 0.04651,0.0651 0.03566,0.031 0.08527,0.0465 0.04961,0.0139 0.155029,0.0139 0.08372,0 0.168982,-0.0341 0.08682,-0.0341 0.151929,-0.0899 z m 0,0.26976 q -0.04496,0.0341 -0.111621,0.0822 -0.06666,0.0481 -0.125574,0.076 -0.08217,0.0372 -0.170532,0.0543 -0.08837,0.0186 -0.193787,0.0186 -0.248047,0 -0.415478,-0.15348 -0.167432,-0.15348 -0.167432,-0.39222 0,-0.19069 0.08527,-0.31161 0.08527,-0.12093 0.241846,-0.19069 0.155029,-0.0698 0.384472,-0.0992 0.229444,-0.0294 0.47594,-0.0434 v -0.009 q 0,-0.14417 -0.117822,-0.19843 -0.117822,-0.0558 -0.347266,-0.0558 -0.137976,0 -0.294555,0.0496 -0.15658,0.0481 -0.224793,0.0744 h -0.05116 V 207.705 q 0.08837,-0.0233 0.286804,-0.0543 0.199988,-0.0326 0.399975,-0.0326 0.47594,0 0.68678,0.14728 0.21239,0.14573 0.21239,0.45889 v 1.18442 h -0.553454 z m 2.32854,-1.02475 h -0.04961 q -0.03566,-0.0124 -0.114721,-0.0186 -0.07906,-0.006 -0.131775,-0.006 -0.119373,0 -0.21084,0.0155 -0.09147,0.0155 -0.196887,0.0527 v 1.16582 h -0.558106 v -1.74098 h 0.558106 v 0.2558 q 0.184485,-0.15813 0.32091,-0.20929 0.136426,-0.0527 0.251148,-0.0527 0.02945,0 0.06666,0.002 0.03721,0.002 0.06511,0.005 z m 1.42937,1.19373 q -0.08992,0.0232 -0.190686,0.0357 -0.10077,0.014 -0.246497,0.014 -0.325562,0 -0.485242,-0.13178 -0.15813,-0.13177 -0.15813,-0.45113 v -0.81391 H 37.58792 v -0.37827 h 0.229443 v -0.49764 h 0.558106 v 0.49764 h 0.522449 v 0.37827 h -0.522449 v 0.61702 q 0,0.0915 0.0015,0.15968 0.0016,0.0682 0.02481,0.12247 0.0217,0.0543 0.07596,0.0868 0.05581,0.031 0.161231,0.031 0.04341,0 0.113171,-0.0186 0.07131,-0.0186 0.09922,-0.0341 h 0.04651 z"
         id="path4" />
      <path
         style="stroke-width:0.265"
         d="m 32.262664,212.65155 q 0,0.34107 -0.289905,0.55501 -0.288354,0.21239 -0.784448,0.21239 -0.286804,0 -0.500745,-0.0496 -0.21239,-0.0512 -0.398425,-0.12868 v -0.55345 h 0.06511 q 0.184485,0.14728 0.412378,0.22634 0.229444,0.0791 0.440284,0.0791 0.05426,0 0.142626,-0.009 0.08837,-0.009 0.144178,-0.031 0.06821,-0.0279 0.111621,-0.0698 0.04496,-0.0419 0.04496,-0.12403 0,-0.076 -0.06511,-0.13022 -0.06356,-0.0558 -0.187585,-0.0853 -0.130225,-0.031 -0.275953,-0.0574 -0.144177,-0.0279 -0.271301,-0.0698 -0.291455,-0.0946 -0.420129,-0.2558 -0.127124,-0.16278 -0.127124,-0.40308 0,-0.32246 0.288354,-0.52555 0.289905,-0.20463 0.744141,-0.20463 0.227893,0 0.449585,0.045 0.223242,0.0434 0.386023,0.11008 v 0.53175 h -0.06356 q -0.139527,-0.11163 -0.342615,-0.18604 -0.201538,-0.076 -0.412378,-0.076 -0.07441,0 -0.148828,0.0109 -0.07286,0.009 -0.141077,0.0372 -0.06046,0.0233 -0.103869,0.0713 -0.04341,0.0465 -0.04341,0.10697 0,0.0915 0.06976,0.14108 0.06976,0.0481 0.263549,0.0884 0.127124,0.0264 0.243396,0.0512 0.117823,0.0248 0.252698,0.0682 0.2651,0.0868 0.390674,0.23719 0.127124,0.14883 0.127124,0.38757 z m 1.489832,0.71004 q -0.08992,0.0232 -0.190686,0.0357 -0.10077,0.014 -0.246497,0.014 -0.325562,0 -0.485242,-0.13178 -0.15813,-0.13177 -0.15813,-0.45113 v -0.81391 h -0.229443 v -0.37827 h 0.229443 v -0.49764 h 0.558106 v 0.49764 h 0.522449 v 0.37827 h -0.522449 v 0.61702 q 0,0.0915 0.0016,0.15968 0.0016,0.0682 0.02481,0.12247 0.0217,0.0543 0.07596,0.0868 0.05581,0.031 0.161231,0.031 0.04341,0 0.113171,-0.0186 0.07131,-0.0186 0.09922,-0.0341 h 0.04651 z m 2.113049,-0.85421 q 0,0.42943 -0.251148,0.67747 -0.249597,0.2465 -0.702282,0.2465 -0.452686,0 -0.703833,-0.2465 -0.249598,-0.24804 -0.249598,-0.67747 0,-0.43254 0.251148,-0.67903 0.252698,-0.2465 0.702283,-0.2465 0.455786,0 0.703833,0.24805 0.249597,0.24804 0.249597,0.67748 z m -0.68678,0.42323 q 0.05426,-0.0667 0.08062,-0.15968 0.02791,-0.0946 0.02791,-0.26045 0,-0.15348 -0.02791,-0.25735 -0.0279,-0.10387 -0.07751,-0.16588 -0.04961,-0.0636 -0.119373,-0.0899 -0.06976,-0.0264 -0.150378,-0.0264 -0.08062,0 -0.144178,0.0217 -0.06201,0.0217 -0.119372,0.0868 -0.05116,0.0605 -0.08217,0.16588 -0.02945,0.10542 -0.02945,0.2651 0,0.14262 0.02636,0.24804 0.02636,0.10387 0.07751,0.16744 0.04961,0.0605 0.117823,0.0884 0.06976,0.0279 0.15813,0.0279 0.07596,0 0.144177,-0.0248 0.06976,-0.0263 0.117822,-0.0868 z m 2.903698,-0.44804 q 0,0.21549 -0.06666,0.39223 -0.06511,0.17673 -0.172083,0.29145 -0.111621,0.12092 -0.252697,0.18294 -0.141077,0.062 -0.302308,0.062 -0.148828,0 -0.252697,-0.0326 -0.10387,-0.031 -0.21239,-0.0884 v 0.72554 H 36.26552 v -2.3797 h 0.558106 v 0.18139 q 0.128674,-0.10232 0.261999,-0.16589 0.134876,-0.0636 0.310059,-0.0636 0.325561,0 0.505395,0.23875 0.181384,0.23874 0.181384,0.65577 z m -0.575158,0.0108 q 0,-0.25424 -0.08682,-0.36897 -0.08682,-0.11472 -0.274402,-0.11472 -0.07906,0 -0.16278,0.0248 -0.08372,0.0233 -0.15968,0.0682 v 0.87592 q 0.05581,0.0217 0.119372,0.0279 0.06356,0.006 0.125574,0.006 0.221692,0 0.330212,-0.12867 0.108521,-0.13023 0.108521,-0.39068 z"
         id="path5" />
    </g>
    <path
       style="font-weight:bold;font-size:3.175px;-inkscape-font-specification:'sans-serif Bold';fill:#1996fc;stroke-width:0.265"
       d="m 31.008131,218.16398 q 0,-0.0868 -0.03566,-0.14883 -0.03566,-0.062 -0.122473,-0.0977 -0.06046,-0.0248 -0.141077,-0.0294 -0.08061,-0.006 -0.187585,-0.006 h -0.215491 v 0.62167 h 0.182935 q 0.142627,0 0.238745,-0.014 0.09612,-0.0139 0.16123,-0.0636 0.06201,-0.0481 0.08992,-0.10542 0.02946,-0.0589 0.02946,-0.15658 z m 0.928625,1.60145 h -0.727087 l -0.629419,-0.84646 h -0.274402 v 0.84646 h -0.592212 v -2.30838 h 0.998389 q 0.204639,0 0.351917,0.0232 0.147277,0.0233 0.275952,0.10077 0.130224,0.0775 0.206189,0.20154 0.07751,0.12247 0.07751,0.30851 0,0.2558 -0.119372,0.41703 -0.117822,0.16123 -0.337964,0.2682 z m 1.944068,-0.76739 h -1.277441 q 0.0124,0.20464 0.155029,0.31316 0.144177,0.10852 0.42323,0.10852 0.176733,0 0.342615,-0.0636 0.165881,-0.0636 0.261999,-0.13643 h 0.06201 v 0.44804 q -0.189136,0.076 -0.356568,0.11007 -0.167431,0.0341 -0.37052,0.0341 -0.523999,0 -0.803051,-0.23564 -0.279053,-0.23565 -0.279053,-0.67128 0,-0.43098 0.26355,-0.68213 0.2651,-0.2527 0.725537,-0.2527 0.42478,0 0.638721,0.2155 0.21394,0.21394 0.21394,0.61701 z m -0.555005,-0.32711 q -0.0047,-0.17519 -0.08682,-0.26355 -0.08217,-0.0884 -0.255799,-0.0884 -0.16123,0 -0.2651,0.0837 -0.103869,0.0837 -0.116272,0.2682 z m 2.461865,0.5426 q 0,0.26975 -0.241846,0.43563 -0.241845,0.16433 -0.661975,0.16433 -0.232544,0 -0.421679,-0.0434 -0.189136,-0.0434 -0.303858,-0.0961 v -0.45889 h 0.05116 q 0.04186,0.0295 0.09612,0.0651 0.05581,0.0341 0.15658,0.0744 0.08682,0.0357 0.196887,0.062 0.110071,0.0248 0.235644,0.0248 0.164331,0 0.243396,-0.0357 0.07906,-0.0372 0.07906,-0.10852 0,-0.0636 -0.04651,-0.0915 -0.04651,-0.0295 -0.176733,-0.0558 -0.06201,-0.014 -0.168982,-0.0295 -0.10542,-0.0171 -0.192236,-0.0403 -0.237195,-0.062 -0.351917,-0.19223 -0.114721,-0.13178 -0.114721,-0.32711 0,-0.25115 0.237194,-0.41703 0.238746,-0.16743 0.651123,-0.16743 0.195337,0 0.373621,0.0403 0.179834,0.0388 0.280603,0.0837 v 0.44028 h -0.04806 q -0.124023,-0.0853 -0.283704,-0.13797 -0.158129,-0.0543 -0.32091,-0.0543 -0.134876,0 -0.227893,0.0372 -0.09147,0.0372 -0.09147,0.10542 0,0.062 0.04186,0.0946 0.04186,0.0326 0.196888,0.0651 0.08527,0.0171 0.182934,0.0341 0.09922,0.0155 0.198438,0.0403 0.220141,0.0574 0.325561,0.18138 0.10542,0.12247 0.10542,0.30696 z m 2.085144,-0.21549 h -1.277441 q 0.0124,0.20464 0.155029,0.31316 0.144177,0.10852 0.42323,0.10852 0.176733,0 0.342615,-0.0636 0.165881,-0.0636 0.261999,-0.13643 h 0.06201 v 0.44804 q -0.189136,0.076 -0.356567,0.11007 -0.167432,0.0341 -0.37052,0.0341 -0.523999,0 -0.803052,-0.23564 -0.279053,-0.23565 -0.279053,-0.67128 0,-0.43098 0.26355,-0.68213 0.2651,-0.2527 0.725537,-0.2527 0.42478,0 0.638721,0.2155 0.21394,0.21394 0.21394,0.61701 z m -0.555005,-0.32711 q -0.0047,-0.17519 -0.08682,-0.26355 -0.08217,-0.0884 -0.255799,-0.0884 -0.16123,0 -0.2651,0.0837 -0.103869,0.0837 -0.116272,0.2682 z m 2.06189,1.079 q -0.08992,0.0233 -0.190686,0.0357 -0.100769,0.0139 -0.246497,0.0139 -0.325561,0 -0.485241,-0.13177 -0.15813,-0.13178 -0.15813,-0.45114 v -0.8139 h -0.229444 v -0.37827 h 0.229444 v -0.49765 h 0.558105 v 0.49765 h 0.522449 v 0.37827 h -0.522449 v 0.61701 q 0,0.0915 0.0016,0.15968 0.0016,0.0682 0.02481,0.12248 0.0217,0.0543 0.07596,0.0868 0.05581,0.031 0.161231,0.031 0.04341,0 0.113171,-0.0186 0.07131,-0.0186 0.09922,-0.0341 h 0.04651 z"
       id="text3"
       aria-label="Reset" />
    <path
       id="path2124-5-5"
       style="fill:#1a96fc;fill-opacity:1;stroke:none;stroke-width:0.204983;stroke-miterlimit:4;stroke-dasharray:none;stroke-dashoffset:0;stroke-opacity:1"
       d="m 29.495236,237.63482 h 10.10293 v 10.05232 h -10.10293 z" />
    <path
       style="font-weight:bold;font-size:2.82222px;-inkscape-font-specification:'sans-serif Bold';fill:#1a96fc;stroke-width:0.265"
       d="m 29.78429,235.63073 q 0,0.30317 -0.257693,0.49334 -0.256315,0.18879 -0.697287,0.18879 -0.254937,0 -0.445106,-0.0441 -0.188791,-0.0455 -0.354155,-0.11438 v -0.49196 h 0.05788 q 0.163987,0.13092 0.366558,0.2012 0.20395,0.0703 0.391363,0.0703 0.04823,0 0.126779,-0.008 0.07855,-0.008 0.128158,-0.0276 0.06063,-0.0248 0.09922,-0.062 0.03996,-0.0372 0.03996,-0.11025 0,-0.0675 -0.05788,-0.11575 -0.0565,-0.0496 -0.166743,-0.0758 -0.115755,-0.0276 -0.24529,-0.051 -0.128158,-0.0248 -0.241157,-0.062 -0.259071,-0.0841 -0.373448,-0.22738 -0.112999,-0.14469 -0.112999,-0.35829 0,-0.28663 0.256315,-0.46715 0.257693,-0.1819 0.661458,-0.1819 0.202571,0 0.399631,0.04 0.198437,0.0386 0.343131,0.0978 v 0.47267 h -0.0565 q -0.124023,-0.0992 -0.304546,-0.16537 -0.179145,-0.0675 -0.366558,-0.0675 -0.06614,0 -0.132291,0.01 -0.06477,0.008 -0.125402,0.0331 -0.05374,0.0207 -0.09233,0.0634 -0.03859,0.0413 -0.03859,0.0951 0,0.0813 0.06201,0.1254 0.06201,0.0427 0.234267,0.0786 0.112999,0.0234 0.216352,0.0455 0.10473,0.022 0.22462,0.0606 0.235644,0.0772 0.347265,0.21084 0.112999,0.13229 0.112999,0.34451 z m 1.858972,-0.0372 H 30.50776 q 0.01102,0.1819 0.137803,0.27837 0.128158,0.0965 0.376204,0.0965 0.157097,0 0.304547,-0.0565 0.14745,-0.0565 0.232888,-0.12127 h 0.05512 v 0.39825 q -0.16812,0.0675 -0.316948,0.0978 -0.148828,0.0303 -0.329351,0.0303 -0.465777,0 -0.713823,-0.20946 -0.248047,-0.20946 -0.248047,-0.59669 0,-0.38309 0.234266,-0.60634 0.235645,-0.22462 0.644922,-0.22462 0.377582,0 0.567751,0.19155 0.190169,0.19017 0.190169,0.54846 z m -0.493337,-0.29076 q -0.0041,-0.15572 -0.07717,-0.23427 -0.07304,-0.0786 -0.227376,-0.0786 -0.143316,0 -0.235645,0.0744 -0.09233,0.0744 -0.103353,0.2384 z m 1.64951,1.01423 q -0.202571,0 -0.370692,-0.0482 -0.166742,-0.0482 -0.290766,-0.14883 -0.122645,-0.10059 -0.190169,-0.25356 -0.06752,-0.15296 -0.06752,-0.35829 0,-0.21635 0.07166,-0.37344 0.07304,-0.1571 0.202572,-0.26045 0.125401,-0.0978 0.289388,-0.14332 0.163986,-0.0455 0.340375,-0.0455 0.158474,0 0.292144,0.0345 0.133669,0.0344 0.249424,0.0896 v 0.42306 h -0.07028 q -0.02894,-0.0248 -0.07028,-0.0579 -0.03996,-0.0331 -0.09922,-0.0648 -0.0565,-0.0303 -0.124023,-0.0496 -0.06752,-0.0207 -0.157097,-0.0207 -0.198437,0 -0.305924,0.12678 -0.106109,0.1254 -0.106109,0.34175 0,0.22325 0.108865,0.339 0.110243,0.11576 0.311437,0.11576 0.09371,0 0.16812,-0.0207 0.07579,-0.0221 0.125402,-0.051 0.04685,-0.0276 0.08268,-0.0579 0.03583,-0.0303 0.06615,-0.0593 h 0.07028 v 0.42306 q -0.117133,0.0551 -0.24529,0.0868 -0.12678,0.0331 -0.28112,0.0331 z m 2.43637,-0.81442 q 0,0.38172 -0.223242,0.6022 -0.221864,0.21911 -0.624251,0.21911 -0.402387,0 -0.625629,-0.21911 -0.221864,-0.22048 -0.221864,-0.6022 0,-0.38447 0.223242,-0.60358 0.22462,-0.21911 0.624251,-0.21911 0.405143,0 0.625629,0.22049 0.221864,0.22048 0.221864,0.6022 z m -0.610471,0.37621 q 0.04823,-0.0593 0.07166,-0.14194 0.02481,-0.0841 0.02481,-0.23151 0,-0.13643 -0.02481,-0.22876 -0.0248,-0.0923 -0.0689,-0.14745 -0.0441,-0.0565 -0.106108,-0.0799 -0.06201,-0.0234 -0.13367,-0.0234 -0.07166,0 -0.128157,0.0193 -0.05512,0.0193 -0.106109,0.0772 -0.04548,0.0538 -0.07304,0.14745 -0.02618,0.0937 -0.02618,0.23565 0,0.12678 0.02343,0.22048 0.02343,0.0923 0.0689,0.14883 0.0441,0.0537 0.104731,0.0786 0.06201,0.0248 0.14056,0.0248 0.06752,0 0.128158,-0.022 0.06201,-0.0234 0.10473,-0.0772 z m 2.520431,0.39687 h -0.49885 v -0.76757 q 0,-0.0937 -0.0096,-0.18603 -0.0096,-0.0937 -0.03307,-0.13781 -0.02756,-0.051 -0.0813,-0.0744 -0.05237,-0.0234 -0.14745,-0.0234 -0.06752,0 -0.137804,0.0221 -0.0689,0.0221 -0.150206,0.0703 v 1.09692 h -0.496093 v -1.54754 h 0.496093 v 0.17088 q 0.132292,-0.10335 0.253559,-0.15847 0.122645,-0.0551 0.271473,-0.0551 0.250803,0 0.391363,0.14607 0.141938,0.14607 0.141938,0.43683 z m 1.960946,0 h -0.496093 v -0.16123 q -0.128158,0.10473 -0.239779,0.15434 -0.111621,0.0496 -0.257693,0.0496 -0.282497,0 -0.451996,-0.21773 -0.169499,-0.21773 -0.169499,-0.58704 0,-0.19706 0.0565,-0.34865 0.05788,-0.15296 0.157096,-0.26182 0.09371,-0.10336 0.227376,-0.15986 0.13367,-0.0579 0.26734,-0.0579 0.139181,0 0.227376,0.0303 0.08957,0.0289 0.183279,0.0744 v -0.65871 h 0.496093 z m -0.496093,-0.42719 v -0.7593 q -0.05237,-0.022 -0.110243,-0.0317 -0.05788,-0.01 -0.106109,-0.01 -0.195681,0 -0.293522,0.12264 -0.09784,0.12127 -0.09784,0.33762 0,0.22738 0.07855,0.33073 0.07855,0.10198 0.252181,0.10198 0.06752,0 0.143316,-0.0248 0.07579,-0.0262 0.13367,-0.0675 z m 2.30959,-0.0634 q 0,0.23978 -0.214974,0.38723 -0.214973,0.14607 -0.588421,0.14607 -0.206706,0 -0.374827,-0.0386 -0.16812,-0.0386 -0.270095,-0.0854 v -0.4079 h 0.04548 q 0.03721,0.0262 0.08544,0.0579 0.04961,0.0303 0.139181,0.0661 0.07717,0.0317 0.175011,0.0551 0.09784,0.0221 0.209462,0.0221 0.146072,0 0.216352,-0.0317 0.07028,-0.0331 0.07028,-0.0965 0,-0.0565 -0.04134,-0.0813 -0.04134,-0.0262 -0.157096,-0.0496 -0.05512,-0.0124 -0.150206,-0.0262 -0.09371,-0.0152 -0.170876,-0.0358 -0.21084,-0.0551 -0.312815,-0.17088 -0.101975,-0.11713 -0.101975,-0.29076 0,-0.22325 0.21084,-0.3707 0.212218,-0.14882 0.578776,-0.14882 0.173632,0 0.332107,0.0358 0.159852,0.0345 0.249424,0.0744 v 0.39136 h -0.04272 q -0.110243,-0.0758 -0.252181,-0.12264 -0.140559,-0.0482 -0.285253,-0.0482 -0.11989,0 -0.202572,0.0331 -0.0813,0.0331 -0.0813,0.0937 0,0.0551 0.03721,0.0841 0.03721,0.0289 0.175011,0.0579 0.07579,0.0152 0.162608,0.0303 0.08819,0.0138 0.176389,0.0358 0.195681,0.051 0.289388,0.16123 0.09371,0.10886 0.09371,0.27285 z"
       id="text4"
       aria-label="Seconds" />
  </g>
</svg>
